<?xml version="1.0" encoding="UTF-8" standalone="no"?>
<svg width="902px" height="524px" viewBox="0 0 902 524" version="1.1" xmlns="http://www.w3.org/2000/svg" xmlns:xlink="http://www.w3.org/1999/xlink" xmlns:sketch="http://www.bohemiancoding.com/sketch/ns">
    <title>computer-outline</title>
    <description>Created with Sketch (http://www.bohemiancoding.com/sketch)</description>
    <defs>
        <path id="path-1" d="M0,366 L570,366 L570,0 L5.93275429e-14,0"></path>
        <mask id="mask-2" sketch:name="Clip 145" fill="white">
            <use xlink:href="#path-1"></use>
        </mask>
    </defs>
    <g id="Page-1" stroke="none" stroke-width="1" fill="none" fill-rule="evenodd" sketch:type="MSPage">
        <g id="Macbook-Pro-+-Group-220" sketch:type="MSLayerGroup" transform="translate(1.000000, 1.000000)">
            <g id="Macbook-Pro" stroke="#FFFFFF" sketch:type="MSShapeGroup">
                <path d="M900,512.248341 C900,512.664328 899.660566,513 899.250761,513 L0.751309099,513 C0.33529497,513 0,512.664328 0,512.248341 L0,486.751659 C0,486.34185 0.337364692,486 0.751309099,486 L899.250761,486 C899.660566,486 900,486.34185 900,486.751659 L900,512.248341 L900,512.248341 Z" id="Shape"></path>
                <path d="M822,29.1606228 C822,13.0556674 809.005118,0 792.984515,0 L111.019912,0 C94.9948823,0 82,13.0556674 82,29.1606228 L82,486 L821.997787,486 L821.997787,29.1606228 L822,29.1606228 Z" id="Shape"></path>
                <rect id="Rectangle" x="112" y="29" width="681" height="429"></rect>
                <path d="M1,513 C3.60113379,518.201812 11.6764813,522 21.2547984,522 L879.745202,522 C889.319367,522 897.398866,518.204283 900,513 L1,513 L1,513 Z" id="Shape"></path>
                <path d="M392.198664,486 C392.088985,486.666158 392,487.342992 392,488.036907 C392,494.640842 397.192178,500 403.594967,500 L499.409172,500 C505.81403,500 511,494.640842 511,488.036907 C511,487.342992 510.915154,486.666158 510.801336,486 L392.198664,486 L392.198664,486 Z" id="Shape"></path>
            </g>
            <g id="Group-220" transform="translate(180.000000, 63.000000)">
                <g id="Clip-145"></g>
                <path d="M45,22 L45,343" id="Fill-144" fill="#000000" sketch:type="MSShapeGroup" mask="url(#mask-2)"></path>
                <path d="M45,22 L45,343" id="Stroke-146" stroke="#DDDDDD" sketch:type="MSShapeGroup" mask="url(#mask-2)"></path>
                <path d="M85,22 L85,343" id="Fill-147" fill="#000000" sketch:type="MSShapeGroup" mask="url(#mask-2)"></path>
                <path d="M85,22 L85,343" id="Stroke-148" stroke="#DDDDDD" sketch:type="MSShapeGroup" mask="url(#mask-2)"></path>
                <path d="M125,22 L125,343" id="Fill-149" fill="#000000" sketch:type="MSShapeGroup" mask="url(#mask-2)"></path>
                <path d="M125,22 L125,343" id="Stroke-150" stroke="#DDDDDD" sketch:type="MSShapeGroup" mask="url(#mask-2)"></path>
                <path d="M165,22 L165,343" id="Fill-151" fill="#000000" sketch:type="MSShapeGroup" mask="url(#mask-2)"></path>
                <path d="M165,22 L165,343" id="Stroke-152" stroke="#DDDDDD" sketch:type="MSShapeGroup" mask="url(#mask-2)"></path>
                <path d="M205,22 L205,343" id="Fill-153" fill="#000000" sketch:type="MSShapeGroup" mask="url(#mask-2)"></path>
                <path d="M205,22 L205,343" id="Stroke-154" stroke="#DDDDDD" sketch:type="MSShapeGroup" mask="url(#mask-2)"></path>
                <path d="M245,22 L245,343" id="Fill-155" fill="#000000" sketch:type="MSShapeGroup" mask="url(#mask-2)"></path>
                <path d="M245,22 L245,343" id="Stroke-156" stroke="#DDDDDD" sketch:type="MSShapeGroup" mask="url(#mask-2)"></path>
                <path d="M286,22 L286,343" id="Fill-157" fill="#000000" sketch:type="MSShapeGroup" mask="url(#mask-2)"></path>
                <path d="M286,22 L286,343" id="Stroke-158" stroke="#DDDDDD" sketch:type="MSShapeGroup" mask="url(#mask-2)"></path>
                <path d="M325,22 L325,343" id="Fill-159" fill="#000000" sketch:type="MSShapeGroup" mask="url(#mask-2)"></path>
                <path d="M325,22 L325,343" id="Stroke-160" stroke="#DDDDDD" sketch:type="MSShapeGroup" mask="url(#mask-2)"></path>
                <path d="M366,22 L366,343" id="Fill-161" fill="#000000" sketch:type="MSShapeGroup" mask="url(#mask-2)"></path>
                <path d="M366,22 L366,343" id="Stroke-162" stroke="#DDDDDD" sketch:type="MSShapeGroup" mask="url(#mask-2)"></path>
                <path d="M406,22 L406,343" id="Fill-163" fill="#000000" sketch:type="MSShapeGroup" mask="url(#mask-2)"></path>
                <path d="M406,22 L406,343" id="Stroke-164" stroke="#DDDDDD" sketch:type="MSShapeGroup" mask="url(#mask-2)"></path>
                <path d="M445,22 L445,343" id="Fill-165" fill="#000000" sketch:type="MSShapeGroup" mask="url(#mask-2)"></path>
                <path d="M445,22 L445,343" id="Stroke-166" stroke="#DDDDDD" sketch:type="MSShapeGroup" mask="url(#mask-2)"></path>
                <path d="M486,22 L486,343" id="Fill-167" fill="#000000" sketch:type="MSShapeGroup" mask="url(#mask-2)"></path>
                <path d="M486,22 L486,343" id="Stroke-168" stroke="#DDDDDD" sketch:type="MSShapeGroup" mask="url(#mask-2)"></path>
                <path d="M526,22 L526,343" id="Fill-169" fill="#000000" sketch:type="MSShapeGroup" mask="url(#mask-2)"></path>
                <path d="M526,22 L526,343" id="Stroke-170" stroke="#DDDDDD" sketch:type="MSShapeGroup" mask="url(#mask-2)"></path>
                <path d="M45,22 L526,22" id="Fill-171" fill="#000000" sketch:type="MSShapeGroup" mask="url(#mask-2)"></path>
                <path d="M45,22 L526,22" id="Stroke-172" stroke="#DDDDDD" sketch:type="MSShapeGroup" mask="url(#mask-2)"></path>
                <path d="M45,62 L526,62" id="Fill-173" fill="#000000" sketch:type="MSShapeGroup" mask="url(#mask-2)"></path>
                <path d="M45,62 L526,62" id="Stroke-174" stroke="#DDDDDD" sketch:type="MSShapeGroup" mask="url(#mask-2)"></path>
                <path d="M45,102 L526,102" id="Fill-175" fill="#000000" sketch:type="MSShapeGroup" mask="url(#mask-2)"></path>
                <path d="M45,102 L526,102" id="Stroke-176" stroke="#DDDDDD" sketch:type="MSShapeGroup" mask="url(#mask-2)"></path>
                <path d="M45,142 L526,142" id="Fill-177" fill="#000000" sketch:type="MSShapeGroup" mask="url(#mask-2)"></path>
                <path d="M45,142 L526,142" id="Stroke-178" stroke="#DDDDDD" sketch:type="MSShapeGroup" mask="url(#mask-2)"></path>
                <path d="M45,183 L526,183" id="Fill-179" fill="#000000" sketch:type="MSShapeGroup" mask="url(#mask-2)"></path>
                <path d="M45,183 L526,183" id="Stroke-180" stroke="#DDDDDD" sketch:type="MSShapeGroup" mask="url(#mask-2)"></path>
                <path d="M45,223 L526,223" id="Fill-181" fill="#000000" sketch:type="MSShapeGroup" mask="url(#mask-2)"></path>
                <path d="M45,223 L526,223" id="Stroke-182" stroke="#DDDDDD" sketch:type="MSShapeGroup" mask="url(#mask-2)"></path>
                <path d="M45,263 L526,263" id="Fill-183" fill="#000000" sketch:type="MSShapeGroup" mask="url(#mask-2)"></path>
                <path d="M45,263 L526,263" id="Stroke-184" stroke="#DDDDDD" sketch:type="MSShapeGroup" mask="url(#mask-2)"></path>
                <path d="M45,303 L526,303" id="Fill-185" fill="#000000" sketch:type="MSShapeGroup" mask="url(#mask-2)"></path>
                <path d="M45,303 L526,303" id="Stroke-186" stroke="#DDDDDD" sketch:type="MSShapeGroup" mask="url(#mask-2)"></path>
                <path d="M45,343 L526,343" id="Fill-187" fill="#000000" sketch:type="MSShapeGroup" mask="url(#mask-2)"></path>
                <path d="M45,343 L526,343" id="Stroke-188" stroke="#DDDDDD" sketch:type="MSShapeGroup" mask="url(#mask-2)"></path>
                <path d="M45,22 L526,22 L526,343 L45,343 L45,22 Z" id="Fill-189" fill-opacity="0" fill="#000000" sketch:type="MSShapeGroup" mask="url(#mask-2)"></path>
                <path d="M45,23 L45,16" id="Stroke-190" stroke="#DDDDDD" sketch:type="MSShapeGroup" mask="url(#mask-2)"></path>
                <path d="M85,23 L85,16" id="Stroke-191" stroke="#DDDDDD" sketch:type="MSShapeGroup" mask="url(#mask-2)"></path>
                <path d="M125,23 L125,16" id="Stroke-192" stroke="#DDDDDD" sketch:type="MSShapeGroup" mask="url(#mask-2)"></path>
                <path d="M165,23 L165,16" id="Stroke-193" stroke="#DDDDDD" sketch:type="MSShapeGroup" mask="url(#mask-2)"></path>
                <path d="M205,23 L205,16" id="Stroke-194" stroke="#DDDDDD" sketch:type="MSShapeGroup" mask="url(#mask-2)"></path>
                <path d="M245,23 L245,16" id="Stroke-195" stroke="#DDDDDD" sketch:type="MSShapeGroup" mask="url(#mask-2)"></path>
                <path d="M286,23 L286,16" id="Stroke-196" stroke="#DDDDDD" sketch:type="MSShapeGroup" mask="url(#mask-2)"></path>
                <path d="M325,23 L325,16" id="Stroke-197" stroke="#DDDDDD" sketch:type="MSShapeGroup" mask="url(#mask-2)"></path>
                <path d="M366,23 L366,16" id="Stroke-198" stroke="#DDDDDD" sketch:type="MSShapeGroup" mask="url(#mask-2)"></path>
                <path d="M406,23 L406,16" id="Stroke-199" stroke="#DDDDDD" sketch:type="MSShapeGroup" mask="url(#mask-2)"></path>
                <path d="M445,23 L445,16" id="Stroke-200" stroke="#DDDDDD" sketch:type="MSShapeGroup" mask="url(#mask-2)"></path>
                <path d="M486,23 L486,16" id="Stroke-201" stroke="#DDDDDD" sketch:type="MSShapeGroup" mask="url(#mask-2)"></path>
                <path d="M526,23 L526,16" id="Stroke-202" stroke="#DDDDDD" sketch:type="MSShapeGroup" mask="url(#mask-2)"></path>
                <path d="M45,16 L45,23 L526,23 L526,16" id="Stroke-203" stroke="#DDDDDD" sketch:type="MSShapeGroup" mask="url(#mask-2)"></path>
                <path d="M44,22 L38,22" id="Stroke-204" stroke="#DDDDDD" sketch:type="MSShapeGroup" mask="url(#mask-2)"></path>
                <path d="M44,62 L38,62" id="Stroke-205" stroke="#DDDDDD" sketch:type="MSShapeGroup" mask="url(#mask-2)"></path>
                <path d="M44,102 L38,102" id="Stroke-206" stroke="#DDDDDD" sketch:type="MSShapeGroup" mask="url(#mask-2)"></path>
                <path d="M44,142 L38,142" id="Stroke-207" stroke="#DDDDDD" sketch:type="MSShapeGroup" mask="url(#mask-2)"></path>
                <path d="M44,183 L38,183" id="Stroke-208" stroke="#DDDDDD" sketch:type="MSShapeGroup" mask="url(#mask-2)"></path>
                <path d="M44,223 L38,223" id="Stroke-209" stroke="#DDDDDD" sketch:type="MSShapeGroup" mask="url(#mask-2)"></path>
                <path d="M44,263 L38,263" id="Stroke-210" stroke="#DDDDDD" sketch:type="MSShapeGroup" mask="url(#mask-2)"></path>
                <path d="M44,303 L38,303" id="Stroke-211" stroke="#DDDDDD" sketch:type="MSShapeGroup" mask="url(#mask-2)"></path>
                <path d="M44,343 L38,343" id="Stroke-212" stroke="#DDDDDD" sketch:type="MSShapeGroup" mask="url(#mask-2)"></path>
                <path d="M38,22 L44,22 L44,343 L38,343" id="Stroke-213" stroke="#DDDDDD" sketch:type="MSShapeGroup" mask="url(#mask-2)"></path>
                <path d="M127.222222,82 L282.777778,82 C284.005139,82 285,83.0072969 285,84.25 L285,160.75 C285,161.992703 284.005139,163 282.777778,163 L127.222222,163 C125.994861,163 125,161.992703 125,160.75 L125,84.25 C125,83.0072969 125.994861,82 127.222222,82 L127.222222,82 Z" id="Fill-214" fill="#E74B3B" sketch:type="MSShapeGroup" mask="url(#mask-2)"></path>
                <path d="M127.222222,82 L282.777778,82 C284.005111,82 285,83.0073587 285,84.25 L285,160.75 C285,161.992675 284.005111,163 282.777778,163 L127.222222,163 C125.994889,163 125,161.992675 125,160.75 L125,84.25 C125,83.0073587 125.994889,82 127.222222,82 L127.222222,82 Z" id="Stroke-215" stroke="#C0392B" stroke-width="10" sketch:type="MSShapeGroup" mask="url(#mask-2)"></path>
                <path d="M410,252.5 C410,296.95892 374.182778,333 330,333 C285.817222,333 250,296.95892 250,252.5 C250,208.04108 285.817222,172 330,172 C374.182778,172 410,208.04108 410,252.5 L410,252.5 Z" id="Fill-216" fill="#3498DB" sketch:type="MSShapeGroup" mask="url(#mask-2)"></path>
                <path d="M410,252.5 C410,296.95892 374.182778,333 330,333 C285.817222,333 250,296.95892 250,252.5 C250,208.04108 285.817222,172 330,172 C374.182778,172 410,208.04108 410,252.5 L410,252.5 Z" id="Stroke-217" stroke="#2980B9" stroke-width="4" sketch:type="MSShapeGroup" mask="url(#mask-2)"></path>
                <path d="M325,176.5 C325,198.867531 307.091389,217 285,217 C262.908611,217 245,198.867531 245,176.5 C245,154.132469 262.908611,136 285,136 C307.091389,136 325,154.132469 325,176.5 L325,176.5 Z" id="Fill-218" fill-opacity="0.5" fill="#F1C40F" sketch:type="MSShapeGroup" mask="url(#mask-2)"></path>
                <path d="M325,176.5 C325,198.867588 307.091444,217 285,217 C262.908556,217 245,198.867588 245,176.5 C245,154.132412 262.908556,136 285,136 C307.091444,136 325,154.132412 325,176.5 L325,176.5 Z" id="Stroke-219" stroke="#F39C12" stroke-width="4" sketch:type="MSShapeGroup" mask="url(#mask-2)"></path>
                <path d="M41.65625,6.48125 C41.65625,7.66042256 41.4302106,8.56353853 40.978125,9.190625 C40.5260394,9.81771147 39.9125039,10.13125 39.1375,10.13125 C38.3583294,10.13125 37.7406273,9.81666981 37.284375,9.1875 C36.8281227,8.55833019 36.6,7.65625588 36.6,6.48125 L36.6,4.425 C36.6,3.25416081 36.8270811,2.3520865 37.28125,1.71875 C37.7354189,1.0854135 38.3499961,0.76875 39.125,0.76875 C39.9000039,0.76875 40.5156227,1.0854135 40.971875,1.71875 C41.4281273,2.3520865 41.65625,3.25416081 41.65625,4.425 L41.65625,6.48125 Z M40.39375,4.24375 C40.39375,3.41874588 40.2843761,2.79583544 40.065625,2.375 C39.8468739,1.95416456 39.5333354,1.74375 39.125,1.74375 C38.7166646,1.74375 38.4052094,1.95520622 38.190625,2.378125 C37.9760406,2.80104378 37.86875,3.42291256 37.86875,4.24375 L37.86875,6.65625 C37.86875,7.48125413 37.9781239,8.10624788 38.196875,8.53125 C38.4156261,8.95625213 38.7291646,9.16875 39.1375,9.16875 C39.5416687,9.16875 39.8520823,8.95729378 40.06875,8.534375 C40.2854178,8.11145622 40.39375,7.48542081 40.39375,6.65625 L40.39375,4.24375 Z M44.39405,10 L43.11905,10 L43.11905,8.73125 L44.39405,8.73125 L44.39405,10 Z M51.016,6.48125 C51.016,7.66042256 50.7899606,8.56353853 50.337875,9.190625 C49.8857894,9.81771147 49.2722539,10.13125 48.49725,10.13125 C47.7180794,10.13125 47.1003773,9.81666981 46.644125,9.1875 C46.1878727,8.55833019 45.95975,7.65625588 45.95975,6.48125 L45.95975,4.425 C45.95975,3.25416081 46.1868311,2.3520865 46.641,1.71875 C47.0951689,1.0854135 47.7097461,0.76875 48.48475,0.76875 C49.2597539,0.76875 49.8753727,1.0854135 50.331625,1.71875 C50.7878773,2.3520865 51.016,3.25416081 51.016,4.425 L51.016,6.48125 Z M49.7535,4.24375 C49.7535,3.41874588 49.6441261,2.79583544 49.425375,2.375 C49.2066239,1.95416456 48.8930854,1.74375 48.48475,1.74375 C48.0764146,1.74375 47.7649594,1.95520622 47.550375,2.378125 C47.3357906,2.80104378 47.2285,3.42291256 47.2285,4.24375 L47.2285,6.65625 C47.2285,7.48125413 47.3378739,8.10624788 47.556625,8.53125 C47.7753761,8.95625213 48.0889146,9.16875 48.49725,9.16875 C48.9014187,9.16875 49.2118323,8.95729378 49.4285,8.534375 C49.6451678,8.11145622 49.7535,7.48542081 49.7535,6.65625 L49.7535,4.24375 Z" id="0.0" fill-opacity="0.794376149" fill="#FFFFFF" sketch:type="MSShapeGroup" mask="url(#mask-2)"></path>
                <path d="M361.95625,6.89375 L362.93125,6.89375 L362.93125,7.8625 L361.95625,7.8625 L361.95625,10 L360.69375,10 L360.69375,7.8625 L357.3875,7.8625 L357.35,7.15 L360.65625,0.9 L361.95625,0.9 L361.95625,6.89375 Z M358.6,6.89375 L360.69375,6.89375 L360.69375,2.7375 L360.65625,2.73125 L360.53125,2.99375 L358.6,6.89375 Z M365.38155,10 L364.10655,10 L364.10655,8.73125 L365.38155,8.73125 L365.38155,10 Z M372.0035,6.48125 C372.0035,7.66042256 371.777461,8.56353853 371.325375,9.190625 C370.873289,9.81771147 370.259754,10.13125 369.48475,10.13125 C368.705579,10.13125 368.087877,9.81666981 367.631625,9.1875 C367.175373,8.55833019 366.94725,7.65625588 366.94725,6.48125 L366.94725,4.425 C366.94725,3.25416081 367.174331,2.3520865 367.6285,1.71875 C368.082669,1.0854135 368.697246,0.76875 369.47225,0.76875 C370.247254,0.76875 370.862873,1.0854135 371.319125,1.71875 C371.775377,2.3520865 372.0035,3.25416081 372.0035,4.425 L372.0035,6.48125 Z M370.741,4.24375 C370.741,3.41874588 370.631626,2.79583544 370.412875,2.375 C370.194124,1.95416456 369.880585,1.74375 369.47225,1.74375 C369.063915,1.74375 368.752459,1.95520622 368.537875,2.378125 C368.323291,2.80104378 368.216,3.42291256 368.216,4.24375 L368.216,6.65625 C368.216,7.48125413 368.325374,8.10624788 368.544125,8.53125 C368.762876,8.95625213 369.076415,9.16875 369.48475,9.16875 C369.888919,9.16875 370.199332,8.95729378 370.416,8.534375 C370.632668,8.11145622 370.741,7.48542081 370.741,6.65625 L370.741,4.24375 Z" id="4.0" fill-opacity="0.794376149" fill="#FFFFFF" sketch:type="MSShapeGroup" mask="url(#mask-2)"></path>
                <path d="M401.95625,6.89375 L402.93125,6.89375 L402.93125,7.8625 L401.95625,7.8625 L401.95625,10 L400.69375,10 L400.69375,7.8625 L397.3875,7.8625 L397.35,7.15 L400.65625,0.9 L401.95625,0.9 L401.95625,6.89375 Z M398.6,6.89375 L400.69375,6.89375 L400.69375,2.7375 L400.65625,2.73125 L400.53125,2.99375 L398.6,6.89375 Z M405.38155,10 L404.10655,10 L404.10655,8.73125 L405.38155,8.73125 L405.38155,10 Z M407.22225,5.9125 L407.65975,0.9 L411.741,0.9 L411.741,1.94375 L408.716,1.94375 L408.4785,4.64375 C408.632667,4.48541588 408.811832,4.35520884 409.016,4.253125 C409.220168,4.15104116 409.453499,4.09583338 409.716,4.0875 C410.43267,4.07916663 410.995165,4.34478897 411.4035,4.884375 C411.811835,5.42396103 412.016,6.160412 412.016,7.09375 C412.016,7.99792119 411.80246,8.73020553 411.375375,9.290625 C410.94829,9.85104447 410.324337,10.13125 409.5035,10.13125 C408.820163,10.13125 408.245169,9.9145855 407.7785,9.48125 C407.311831,9.0479145 407.086833,8.42500406 407.1035,7.6125 L407.116,7.58125 L408.30975,7.55625 C408.30975,8.07291925 408.419124,8.47083194 408.637875,8.75 C408.856626,9.02916806 409.145165,9.16875 409.5035,9.16875 C409.916002,9.16875 410.226416,8.98646016 410.43475,8.621875 C410.643084,8.25728984 410.74725,7.75208656 410.74725,7.10625 C410.74725,6.49791363 410.638918,6.00937684 410.42225,5.640625 C410.205582,5.27187316 409.895169,5.0875 409.491,5.0875 C409.132665,5.0875 408.864959,5.16562422 408.687875,5.321875 C408.510791,5.47812578 408.386834,5.71041513 408.316,6.01875 L407.22225,5.9125 Z" id="4.5" fill-opacity="0.794376149" fill="#FFFFFF" sketch:type="MSShapeGroup" mask="url(#mask-2)"></path>
                <path d="M438.875,5.9125 L439.3125,0.9 L443.39375,0.9 L443.39375,1.94375 L440.36875,1.94375 L440.13125,4.64375 C440.285417,4.48541588 440.464582,4.35520884 440.66875,4.253125 C440.872918,4.15104116 441.106249,4.09583338 441.36875,4.0875 C442.08542,4.07916663 442.647915,4.34478897 443.05625,4.884375 C443.464585,5.42396103 443.66875,6.160412 443.66875,7.09375 C443.66875,7.99792119 443.45521,8.73020553 443.028125,9.290625 C442.60104,9.85104447 441.977087,10.13125 441.15625,10.13125 C440.472913,10.13125 439.897919,9.9145855 439.43125,9.48125 C438.964581,9.0479145 438.739583,8.42500406 438.75625,7.6125 L438.76875,7.58125 L439.9625,7.55625 C439.9625,8.07291925 440.071874,8.47083194 440.290625,8.75 C440.509376,9.02916806 440.797915,9.16875 441.15625,9.16875 C441.568752,9.16875 441.879166,8.98646016 442.0875,8.621875 C442.295834,8.25728984 442.4,7.75208656 442.4,7.10625 C442.4,6.49791363 442.291668,6.00937684 442.075,5.640625 C441.858332,5.27187316 441.547919,5.0875 441.14375,5.0875 C440.785415,5.0875 440.517709,5.16562422 440.340625,5.321875 C440.163541,5.47812578 440.039584,5.71041513 439.96875,6.01875 L438.875,5.9125 Z M446.38155,10 L445.10655,10 L445.10655,8.73125 L446.38155,8.73125 L446.38155,10 Z M453.0035,6.48125 C453.0035,7.66042256 452.777461,8.56353853 452.325375,9.190625 C451.873289,9.81771147 451.259754,10.13125 450.48475,10.13125 C449.705579,10.13125 449.087877,9.81666981 448.631625,9.1875 C448.175373,8.55833019 447.94725,7.65625588 447.94725,6.48125 L447.94725,4.425 C447.94725,3.25416081 448.174331,2.3520865 448.6285,1.71875 C449.082669,1.0854135 449.697246,0.76875 450.47225,0.76875 C451.247254,0.76875 451.862873,1.0854135 452.319125,1.71875 C452.775377,2.3520865 453.0035,3.25416081 453.0035,4.425 L453.0035,6.48125 Z M451.741,4.24375 C451.741,3.41874588 451.631626,2.79583544 451.412875,2.375 C451.194124,1.95416456 450.880585,1.74375 450.47225,1.74375 C450.063915,1.74375 449.752459,1.95520622 449.537875,2.378125 C449.323291,2.80104378 449.216,3.42291256 449.216,4.24375 L449.216,6.65625 C449.216,7.48125413 449.325374,8.10624788 449.544125,8.53125 C449.762876,8.95625213 450.076415,9.16875 450.48475,9.16875 C450.888919,9.16875 451.199332,8.95729378 451.416,8.534375 C451.632668,8.11145622 451.741,7.48542081 451.741,6.65625 L451.741,4.24375 Z" id="5.0" fill-opacity="0.794376149" fill="#FFFFFF" sketch:type="MSShapeGroup" mask="url(#mask-2)"></path>
                <path d="M478.875,5.9125 L479.3125,0.9 L483.39375,0.9 L483.39375,1.94375 L480.36875,1.94375 L480.13125,4.64375 C480.285417,4.48541588 480.464582,4.35520884 480.66875,4.253125 C480.872918,4.15104116 481.106249,4.09583338 481.36875,4.0875 C482.08542,4.07916663 482.647915,4.34478897 483.05625,4.884375 C483.464585,5.42396103 483.66875,6.160412 483.66875,7.09375 C483.66875,7.99792119 483.45521,8.73020553 483.028125,9.290625 C482.60104,9.85104447 481.977087,10.13125 481.15625,10.13125 C480.472913,10.13125 479.897919,9.9145855 479.43125,9.48125 C478.964581,9.0479145 478.739583,8.42500406 478.75625,7.6125 L478.76875,7.58125 L479.9625,7.55625 C479.9625,8.07291925 480.071874,8.47083194 480.290625,8.75 C480.509376,9.02916806 480.797915,9.16875 481.15625,9.16875 C481.568752,9.16875 481.879166,8.98646016 482.0875,8.621875 C482.295834,8.25728984 482.4,7.75208656 482.4,7.10625 C482.4,6.49791363 482.291668,6.00937684 482.075,5.640625 C481.858332,5.27187316 481.547919,5.0875 481.14375,5.0875 C480.785415,5.0875 480.517709,5.16562422 480.340625,5.321875 C480.163541,5.47812578 480.039584,5.71041513 479.96875,6.01875 L478.875,5.9125 Z M486.38155,10 L485.10655,10 L485.10655,8.73125 L486.38155,8.73125 L486.38155,10 Z M488.22225,5.9125 L488.65975,0.9 L492.741,0.9 L492.741,1.94375 L489.716,1.94375 L489.4785,4.64375 C489.632667,4.48541588 489.811832,4.35520884 490.016,4.253125 C490.220168,4.15104116 490.453499,4.09583338 490.716,4.0875 C491.43267,4.07916663 491.995165,4.34478897 492.4035,4.884375 C492.811835,5.42396103 493.016,6.160412 493.016,7.09375 C493.016,7.99792119 492.80246,8.73020553 492.375375,9.290625 C491.94829,9.85104447 491.324337,10.13125 490.5035,10.13125 C489.820163,10.13125 489.245169,9.9145855 488.7785,9.48125 C488.311831,9.0479145 488.086833,8.42500406 488.1035,7.6125 L488.116,7.58125 L489.30975,7.55625 C489.30975,8.07291925 489.419124,8.47083194 489.637875,8.75 C489.856626,9.02916806 490.145165,9.16875 490.5035,9.16875 C490.916002,9.16875 491.226416,8.98646016 491.43475,8.621875 C491.643084,8.25728984 491.74725,7.75208656 491.74725,7.10625 C491.74725,6.49791363 491.638918,6.00937684 491.42225,5.640625 C491.205582,5.27187316 490.895169,5.0875 490.491,5.0875 C490.132665,5.0875 489.864959,5.16562422 489.687875,5.321875 C489.510791,5.47812578 489.386834,5.71041513 489.316,6.01875 L488.22225,5.9125 Z" id="5.5" fill-opacity="0.794376149" fill="#FFFFFF" sketch:type="MSShapeGroup" mask="url(#mask-2)"></path>
                <path d="M520.63125,0.76875 C520.906251,0.76875 521.170832,0.804166313 521.425,0.875 C521.679168,0.945833688 521.910416,1.04166606 522.11875,1.1625 L521.875,2.09375 C521.687499,1.98124944 521.497918,1.89583363 521.30625,1.8375 C521.114582,1.77916638 520.891668,1.75 520.6375,1.75 C520.129164,1.75 519.71771,1.99478922 519.403125,2.484375 C519.08854,2.97396078 518.93125,3.62916256 518.93125,4.45 L518.93125,4.70625 C519.139584,4.46874881 519.385415,4.28437566 519.66875,4.153125 C519.952085,4.02187434 520.262498,3.95625 520.6,3.95625 C521.287503,3.95625 521.830206,4.2395805 522.228125,4.80625 C522.626044,5.3729195 522.825,6.09999556 522.825,6.9875 C522.825,7.90417125 522.595836,8.65728872 522.1375,9.246875 C521.679164,9.83646128 521.07917,10.13125 520.3375,10.13125 C519.558329,10.13125 518.918752,9.81250319 518.41875,9.175 C517.918747,8.53749681 517.66875,7.65000569 517.66875,6.5125 L517.66875,4.5375 C517.66875,3.40832769 517.949997,2.49792013 518.5125,1.80625 C519.075003,1.11457988 519.781246,0.76875 520.63125,0.76875 Z M520.2875,4.8875 C519.966665,4.8875 519.690626,4.96458256 519.459375,5.11875 C519.228124,5.27291744 519.052084,5.483332 518.93125,5.75 L518.93125,6.5875 C518.93125,7.40417075 519.062499,8.03958106 519.325,8.49375 C519.587501,8.94791894 519.924998,9.175 520.3375,9.175 C520.712502,9.175 521.010416,8.96354378 521.23125,8.540625 C521.452084,8.11770622 521.5625,7.60000306 521.5625,6.9875 C521.5625,6.37083025 521.448959,5.86666863 521.221875,5.475 C520.994791,5.08333138 520.683335,4.8875 520.2875,4.8875 Z M525.38155,10 L524.10655,10 L524.10655,8.73125 L525.38155,8.73125 L525.38155,10 Z M532.0035,6.48125 C532.0035,7.66042256 531.777461,8.56353853 531.325375,9.190625 C530.873289,9.81771147 530.259754,10.13125 529.48475,10.13125 C528.705579,10.13125 528.087877,9.81666981 527.631625,9.1875 C527.175373,8.55833019 526.94725,7.65625588 526.94725,6.48125 L526.94725,4.425 C526.94725,3.25416081 527.174331,2.3520865 527.6285,1.71875 C528.082669,1.0854135 528.697246,0.76875 529.47225,0.76875 C530.247254,0.76875 530.862873,1.0854135 531.319125,1.71875 C531.775377,2.3520865 532.0035,3.25416081 532.0035,4.425 L532.0035,6.48125 Z M530.741,4.24375 C530.741,3.41874588 530.631626,2.79583544 530.412875,2.375 C530.194124,1.95416456 529.880585,1.74375 529.47225,1.74375 C529.063915,1.74375 528.752459,1.95520622 528.537875,2.378125 C528.323291,2.80104378 528.216,3.42291256 528.216,4.24375 L528.216,6.65625 C528.216,7.48125413 528.325374,8.10624788 528.544125,8.53125 C528.762876,8.95625213 529.076415,9.16875 529.48475,9.16875 C529.888919,9.16875 530.199332,8.95729378 530.416,8.534375 C530.632668,8.11145622 530.741,7.48542081 530.741,6.65625 L530.741,4.24375 Z" id="6.0" fill-opacity="0.794376149" fill="#FFFFFF" sketch:type="MSShapeGroup" mask="url(#mask-2)"></path>
                <path d="M23.65625,23.48125 C23.65625,24.6604226 23.4302106,25.5635385 22.978125,26.190625 C22.5260394,26.8177115 21.9125039,27.13125 21.1375,27.13125 C20.3583294,27.13125 19.7406273,26.8166698 19.284375,26.1875 C18.8281227,25.5583302 18.6,24.6562559 18.6,23.48125 L18.6,21.425 C18.6,20.2541608 18.8270811,19.3520865 19.28125,18.71875 C19.7354189,18.0854135 20.3499961,17.76875 21.125,17.76875 C21.9000039,17.76875 22.5156227,18.0854135 22.971875,18.71875 C23.4281273,19.3520865 23.65625,20.2541608 23.65625,21.425 L23.65625,23.48125 Z M22.39375,21.24375 C22.39375,20.4187459 22.2843761,19.7958354 22.065625,19.375 C21.8468739,18.9541646 21.5333354,18.74375 21.125,18.74375 C20.7166646,18.74375 20.4052094,18.9552062 20.190625,19.378125 C19.9760406,19.8010438 19.86875,20.4229126 19.86875,21.24375 L19.86875,23.65625 C19.86875,24.4812541 19.9781239,25.1062479 20.196875,25.53125 C20.4156261,25.9562521 20.7291646,26.16875 21.1375,26.16875 C21.5416687,26.16875 21.8520823,25.9572938 22.06875,25.534375 C22.2854178,25.1114562 22.39375,24.4854208 22.39375,23.65625 L22.39375,21.24375 Z M26.39405,27 L25.11905,27 L25.11905,25.73125 L26.39405,25.73125 L26.39405,27 Z M33.016,23.48125 C33.016,24.6604226 32.7899606,25.5635385 32.337875,26.190625 C31.8857894,26.8177115 31.2722539,27.13125 30.49725,27.13125 C29.7180794,27.13125 29.1003773,26.8166698 28.644125,26.1875 C28.1878727,25.5583302 27.95975,24.6562559 27.95975,23.48125 L27.95975,21.425 C27.95975,20.2541608 28.1868311,19.3520865 28.641,18.71875 C29.0951689,18.0854135 29.7097461,17.76875 30.48475,17.76875 C31.2597539,17.76875 31.8753727,18.0854135 32.331625,18.71875 C32.7878773,19.3520865 33.016,20.2541608 33.016,21.425 L33.016,23.48125 Z M31.7535,21.24375 C31.7535,20.4187459 31.6441261,19.7958354 31.425375,19.375 C31.2066239,18.9541646 30.8930854,18.74375 30.48475,18.74375 C30.0764146,18.74375 29.7649594,18.9552062 29.550375,19.378125 C29.3357906,19.8010438 29.2285,20.4229126 29.2285,21.24375 L29.2285,23.65625 C29.2285,24.4812541 29.3378739,25.1062479 29.556625,25.53125 C29.7753761,25.9562521 30.0889146,26.16875 30.49725,26.16875 C30.9014187,26.16875 31.2118323,25.9572938 31.4285,25.534375 C31.6451678,25.1114562 31.7535,24.4854208 31.7535,23.65625 L31.7535,21.24375 Z" id="0.0" fill-opacity="0.794376149" fill="#FFFFFF" sketch:type="MSShapeGroup" mask="url(#mask-2)"></path>
                <path d="M23.65625,63.48125 C23.65625,64.6604226 23.4302106,65.5635385 22.978125,66.190625 C22.5260394,66.8177115 21.9125039,67.13125 21.1375,67.13125 C20.3583294,67.13125 19.7406273,66.8166698 19.284375,66.1875 C18.8281227,65.5583302 18.6,64.6562559 18.6,63.48125 L18.6,61.425 C18.6,60.2541608 18.8270811,59.3520865 19.28125,58.71875 C19.7354189,58.0854135 20.3499961,57.76875 21.125,57.76875 C21.9000039,57.76875 22.5156227,58.0854135 22.971875,58.71875 C23.4281273,59.3520865 23.65625,60.2541608 23.65625,61.425 L23.65625,63.48125 Z M22.39375,61.24375 C22.39375,60.4187459 22.2843761,59.7958354 22.065625,59.375 C21.8468739,58.9541646 21.5333354,58.74375 21.125,58.74375 C20.7166646,58.74375 20.4052094,58.9552062 20.190625,59.378125 C19.9760406,59.8010438 19.86875,60.4229126 19.86875,61.24375 L19.86875,63.65625 C19.86875,64.4812541 19.9781239,65.1062479 20.196875,65.53125 C20.4156261,65.9562521 20.7291646,66.16875 21.1375,66.16875 C21.5416687,66.16875 21.8520823,65.9572938 22.06875,65.534375 C22.2854178,65.1114562 22.39375,64.4854208 22.39375,63.65625 L22.39375,61.24375 Z M26.39405,67 L25.11905,67 L25.11905,65.73125 L26.39405,65.73125 L26.39405,67 Z M28.23475,62.9125 L28.67225,57.9 L32.7535,57.9 L32.7535,58.94375 L29.7285,58.94375 L29.491,61.64375 C29.6451674,61.4854159 29.8243323,61.3552088 30.0285,61.253125 C30.2326677,61.1510412 30.4659987,61.0958334 30.7285,61.0875 C31.4451703,61.0791666 32.0076646,61.344789 32.416,61.884375 C32.8243354,62.423961 33.0285,63.160412 33.0285,64.09375 C33.0285,64.9979212 32.8149605,65.7302055 32.387875,66.290625 C31.9607895,66.8510445 31.3368374,67.13125 30.516,67.13125 C29.8326633,67.13125 29.257669,66.9145855 28.791,66.48125 C28.324331,66.0479145 28.0993333,65.4250041 28.116,64.6125 L28.1285,64.58125 L29.32225,64.55625 C29.32225,65.0729193 29.4316239,65.4708319 29.650375,65.75 C29.8691261,66.0291681 30.1576649,66.16875 30.516,66.16875 C30.9285021,66.16875 31.2389156,65.9864602 31.44725,65.621875 C31.6555844,65.2572898 31.75975,64.7520866 31.75975,64.10625 C31.75975,63.4979136 31.6514178,63.0093768 31.43475,62.640625 C31.2180823,62.2718732 30.9076687,62.0875 30.5035,62.0875 C30.1451649,62.0875 29.8774592,62.1656242 29.700375,62.321875 C29.5232908,62.4781258 29.3993337,62.7104151 29.3285,63.01875 L28.23475,62.9125 Z" id="0.5" fill-opacity="0.794376149" fill="#FFFFFF" sketch:type="MSShapeGroup" mask="url(#mask-2)"></path>
                <path d="M21.9375,107.0125 L20.675,107.0125 L20.675,99.16875 L18.89375,99.2875 L18.89375,98.46875 L21.9375,97.89375 L21.9375,107.0125 Z M26.38155,107 L25.10655,107 L25.10655,105.73125 L26.38155,105.73125 L26.38155,107 Z M33.0035,103.48125 C33.0035,104.660423 32.7774606,105.563539 32.325375,106.190625 C31.8732894,106.817711 31.2597539,107.13125 30.48475,107.13125 C29.7055794,107.13125 29.0878773,106.81667 28.631625,106.1875 C28.1753727,105.55833 27.94725,104.656256 27.94725,103.48125 L27.94725,101.425 C27.94725,100.254161 28.1743311,99.3520865 28.6285,98.71875 C29.0826689,98.0854135 29.6972461,97.76875 30.47225,97.76875 C31.2472539,97.76875 31.8628727,98.0854135 32.319125,98.71875 C32.7753773,99.3520865 33.0035,100.254161 33.0035,101.425 L33.0035,103.48125 Z M31.741,101.24375 C31.741,100.418746 31.6316261,99.7958354 31.412875,99.375 C31.1941239,98.9541646 30.8805854,98.74375 30.47225,98.74375 C30.0639146,98.74375 29.7524594,98.9552062 29.537875,99.378125 C29.3232906,99.8010438 29.216,100.422913 29.216,101.24375 L29.216,103.65625 C29.216,104.481254 29.3253739,105.106248 29.544125,105.53125 C29.7628761,105.956252 30.0764146,106.16875 30.48475,106.16875 C30.8889187,106.16875 31.1993323,105.957294 31.416,105.534375 C31.6326678,105.111456 31.741,104.485421 31.741,103.65625 L31.741,101.24375 Z" id="1.0" fill-opacity="0.794376149" fill="#FFFFFF" sketch:type="MSShapeGroup" mask="url(#mask-2)"></path>
                <path d="M22.9375,148.0125 L21.675,148.0125 L21.675,140.16875 L19.89375,140.2875 L19.89375,139.46875 L22.9375,138.89375 L22.9375,148.0125 Z M27.38155,148 L26.10655,148 L26.10655,146.73125 L27.38155,146.73125 L27.38155,148 Z M29.22225,143.9125 L29.65975,138.9 L33.741,138.9 L33.741,139.94375 L30.716,139.94375 L30.4785,142.64375 C30.6326674,142.485416 30.8118323,142.355209 31.016,142.253125 C31.2201677,142.151041 31.4534987,142.095833 31.716,142.0875 C32.4326703,142.079167 32.9951646,142.344789 33.4035,142.884375 C33.8118354,143.423961 34.016,144.160412 34.016,145.09375 C34.016,145.997921 33.8024605,146.730206 33.375375,147.290625 C32.9482895,147.851044 32.3243374,148.13125 31.5035,148.13125 C30.8201633,148.13125 30.245169,147.914585 29.7785,147.48125 C29.311831,147.047914 29.0868333,146.425004 29.1035,145.6125 L29.116,145.58125 L30.30975,145.55625 C30.30975,146.072919 30.4191239,146.470832 30.637875,146.75 C30.8566261,147.029168 31.1451649,147.16875 31.5035,147.16875 C31.9160021,147.16875 32.2264156,146.98646 32.43475,146.621875 C32.6430844,146.25729 32.74725,145.752087 32.74725,145.10625 C32.74725,144.497914 32.6389178,144.009377 32.42225,143.640625 C32.2055823,143.271873 31.8951687,143.0875 31.491,143.0875 C31.1326649,143.0875 30.8649592,143.165624 30.687875,143.321875 C30.5107908,143.478126 30.3868337,143.710415 30.316,144.01875 L29.22225,143.9125 Z" id="1.5" fill-opacity="0.794376149" fill="#FFFFFF" sketch:type="MSShapeGroup" mask="url(#mask-2)"></path>
                <path d="M23.7375,187 L18.63125,187 L18.63125,186.15625 L21.13125,182.86875 C21.5354187,182.297914 21.8177075,181.826044 21.978125,181.453125 C22.1385425,181.080206 22.21875,180.718752 22.21875,180.36875 C22.21875,179.889581 22.1177093,179.49896 21.915625,179.196875 C21.7135407,178.89479 21.4354184,178.74375 21.08125,178.74375 C20.6354144,178.74375 20.3010428,178.910415 20.078125,179.24375 C19.8552072,179.577085 19.74375,180.031247 19.74375,180.60625 L18.525,180.60625 L18.5125,180.575 C18.4958332,179.787496 18.7187477,179.122919 19.18125,178.58125 C19.6437523,178.039581 20.2770793,177.76875 21.08125,177.76875 C21.8229204,177.76875 22.4093728,178.003123 22.840625,178.471875 C23.2718772,178.940627 23.4875,179.560413 23.4875,180.33125 C23.4875,180.852086 23.3552097,181.365622 23.090625,181.871875 C22.8260403,182.378128 22.4416692,182.943747 21.9375,183.56875 L20.21875,186.0375 L23.7375,186.0375 L23.7375,187 Z M26.38155,187 L25.10655,187 L25.10655,185.73125 L26.38155,185.73125 L26.38155,187 Z M33.0035,183.48125 C33.0035,184.660423 32.7774606,185.563539 32.325375,186.190625 C31.8732894,186.817711 31.2597539,187.13125 30.48475,187.13125 C29.7055794,187.13125 29.0878773,186.81667 28.631625,186.1875 C28.1753727,185.55833 27.94725,184.656256 27.94725,183.48125 L27.94725,181.425 C27.94725,180.254161 28.1743311,179.352086 28.6285,178.71875 C29.0826689,178.085413 29.6972461,177.76875 30.47225,177.76875 C31.2472539,177.76875 31.8628727,178.085413 32.319125,178.71875 C32.7753773,179.352086 33.0035,180.254161 33.0035,181.425 L33.0035,183.48125 Z M31.741,181.24375 C31.741,180.418746 31.6316261,179.795835 31.412875,179.375 C31.1941239,178.954165 30.8805854,178.74375 30.47225,178.74375 C30.0639146,178.74375 29.7524594,178.955206 29.537875,179.378125 C29.3232906,179.801044 29.216,180.422913 29.216,181.24375 L29.216,183.65625 C29.216,184.481254 29.3253739,185.106248 29.544125,185.53125 C29.7628761,185.956252 30.0764146,186.16875 30.48475,186.16875 C30.8889187,186.16875 31.1993322,185.957294 31.416,185.534375 C31.6326677,185.111456 31.741,184.485421 31.741,183.65625 L31.741,181.24375 Z" id="2.0" fill-opacity="0.794376149" fill="#FFFFFF" sketch:type="MSShapeGroup" mask="url(#mask-2)"></path>
                <path d="M24.7375,228 L19.63125,228 L19.63125,227.15625 L22.13125,223.86875 C22.5354187,223.297914 22.8177075,222.826044 22.978125,222.453125 C23.1385425,222.080206 23.21875,221.718752 23.21875,221.36875 C23.21875,220.889581 23.1177093,220.49896 22.915625,220.196875 C22.7135407,219.89479 22.4354184,219.74375 22.08125,219.74375 C21.6354144,219.74375 21.3010428,219.910415 21.078125,220.24375 C20.8552072,220.577085 20.74375,221.031247 20.74375,221.60625 L19.525,221.60625 L19.5125,221.575 C19.4958332,220.787496 19.7187477,220.122919 20.18125,219.58125 C20.6437523,219.039581 21.2770793,218.76875 22.08125,218.76875 C22.8229204,218.76875 23.4093728,219.003123 23.840625,219.471875 C24.2718772,219.940627 24.4875,220.560413 24.4875,221.33125 C24.4875,221.852086 24.3552097,222.365622 24.090625,222.871875 C23.8260403,223.378128 23.4416692,223.943747 22.9375,224.56875 L21.21875,227.0375 L24.7375,227.0375 L24.7375,228 Z M27.38155,228 L26.10655,228 L26.10655,226.73125 L27.38155,226.73125 L27.38155,228 Z M29.22225,223.9125 L29.65975,218.9 L33.741,218.9 L33.741,219.94375 L30.716,219.94375 L30.4785,222.64375 C30.6326674,222.485416 30.8118323,222.355209 31.016,222.253125 C31.2201677,222.151041 31.4534987,222.095833 31.716,222.0875 C32.4326702,222.079167 32.9951646,222.344789 33.4035,222.884375 C33.8118354,223.423961 34.016,224.160412 34.016,225.09375 C34.016,225.997921 33.8024605,226.730206 33.375375,227.290625 C32.9482895,227.851044 32.3243374,228.13125 31.5035,228.13125 C30.8201632,228.13125 30.245169,227.914585 29.7785,227.48125 C29.311831,227.047914 29.0868332,226.425004 29.1035,225.6125 L29.116,225.58125 L30.30975,225.55625 C30.30975,226.072919 30.4191239,226.470832 30.637875,226.75 C30.8566261,227.029168 31.1451649,227.16875 31.5035,227.16875 C31.9160021,227.16875 32.2264156,226.98646 32.43475,226.621875 C32.6430844,226.25729 32.74725,225.752087 32.74725,225.10625 C32.74725,224.497914 32.6389177,224.009377 32.42225,223.640625 C32.2055822,223.271873 31.8951687,223.0875 31.491,223.0875 C31.1326649,223.0875 30.8649592,223.165624 30.687875,223.321875 C30.5107908,223.478126 30.3868337,223.710415 30.316,224.01875 L29.22225,223.9125 Z" id="2.5" fill-opacity="0.794376149" fill="#FFFFFF" sketch:type="MSShapeGroup" mask="url(#mask-2)"></path>
                <path d="M20.125,262.8875 L20.99375,262.8875 C21.4145854,262.8875 21.721874,262.746876 21.915625,262.465625 C22.109376,262.184374 22.20625,261.804169 22.20625,261.325 C22.20625,260.833331 22.1052093,260.446876 21.903125,260.165625 C21.7010407,259.884374 21.4062519,259.74375 21.01875,259.74375 C20.6645816,259.74375 20.3739595,259.884374 20.146875,260.165625 C19.9197905,260.446876 19.80625,260.816664 19.80625,261.275 L18.6,261.275 L18.58125,261.2375 C18.5645832,260.53333 18.7854144,259.945836 19.24375,259.475 C19.7020856,259.004164 20.2854131,258.76875 20.99375,258.76875 C21.7437537,258.76875 22.3437477,258.992706 22.79375,259.440625 C23.2437522,259.888544 23.46875,260.520829 23.46875,261.3375 C23.46875,261.741669 23.3625011,262.128123 23.15,262.496875 C22.9374989,262.865627 22.6354186,263.145832 22.24375,263.3375 C22.7020856,263.508334 23.0416656,263.784373 23.2625,264.165625 C23.4833344,264.546877 23.59375,264.987498 23.59375,265.4875 C23.59375,266.312504 23.3510441,266.959373 22.865625,267.428125 C22.3802059,267.896877 21.7583371,268.13125 21,268.13125 C20.2916631,268.13125 19.6927108,267.907294 19.203125,267.459375 C18.7135392,267.011456 18.4770832,266.387504 18.49375,265.5875 L18.5125,265.55 L19.725,265.55 C19.725,266.029169 19.8437488,266.418748 20.08125,266.71875 C20.3187512,267.018752 20.6312481,267.16875 21.01875,267.16875 C21.4270854,267.16875 21.7468738,267.02396 21.978125,266.734375 C22.2093762,266.44479 22.325,266.033336 22.325,265.5 C22.325,264.933331 22.2145844,264.515626 21.99375,264.246875 C21.7729156,263.978124 21.4395856,263.84375 20.99375,263.84375 L20.125,263.84375 L20.125,262.8875 Z M26.38155,268 L25.10655,268 L25.10655,266.73125 L26.38155,266.73125 L26.38155,268 Z M33.0035,264.48125 C33.0035,265.660423 32.7774606,266.563539 32.325375,267.190625 C31.8732894,267.817711 31.2597539,268.13125 30.48475,268.13125 C29.7055794,268.13125 29.0878773,267.81667 28.631625,267.1875 C28.1753727,266.55833 27.94725,265.656256 27.94725,264.48125 L27.94725,262.425 C27.94725,261.254161 28.1743311,260.352086 28.6285,259.71875 C29.0826689,259.085414 29.6972461,258.76875 30.47225,258.76875 C31.2472539,258.76875 31.8628727,259.085414 32.319125,259.71875 C32.7753773,260.352086 33.0035,261.254161 33.0035,262.425 L33.0035,264.48125 Z M31.741,262.24375 C31.741,261.418746 31.6316261,260.795835 31.412875,260.375 C31.1941239,259.954165 30.8805854,259.74375 30.47225,259.74375 C30.0639146,259.74375 29.7524594,259.955206 29.537875,260.378125 C29.3232906,260.801044 29.216,261.422913 29.216,262.24375 L29.216,264.65625 C29.216,265.481254 29.3253739,266.106248 29.544125,266.53125 C29.7628761,266.956252 30.0764146,267.16875 30.48475,267.16875 C30.8889187,267.16875 31.1993322,266.957294 31.416,266.534375 C31.6326677,266.111456 31.741,265.485421 31.741,264.65625 L31.741,262.24375 Z" id="3.0" fill-opacity="0.794376149" fill="#FFFFFF" sketch:type="MSShapeGroup" mask="url(#mask-2)"></path>
                <path d="M21.125,302.8875 L21.99375,302.8875 C22.4145854,302.8875 22.721874,302.746876 22.915625,302.465625 C23.109376,302.184374 23.20625,301.804169 23.20625,301.325 C23.20625,300.833331 23.1052093,300.446876 22.903125,300.165625 C22.7010407,299.884374 22.4062519,299.74375 22.01875,299.74375 C21.6645816,299.74375 21.3739595,299.884374 21.146875,300.165625 C20.9197905,300.446876 20.80625,300.816664 20.80625,301.275 L19.6,301.275 L19.58125,301.2375 C19.5645832,300.53333 19.7854144,299.945836 20.24375,299.475 C20.7020856,299.004164 21.2854131,298.76875 21.99375,298.76875 C22.7437537,298.76875 23.3437477,298.992706 23.79375,299.440625 C24.2437522,299.888544 24.46875,300.520829 24.46875,301.3375 C24.46875,301.741669 24.3625011,302.128123 24.15,302.496875 C23.9374989,302.865627 23.6354186,303.145832 23.24375,303.3375 C23.7020856,303.508334 24.0416656,303.784373 24.2625,304.165625 C24.4833344,304.546877 24.59375,304.987498 24.59375,305.4875 C24.59375,306.312504 24.3510441,306.959373 23.865625,307.428125 C23.3802059,307.896877 22.7583371,308.13125 22,308.13125 C21.2916631,308.13125 20.6927108,307.907294 20.203125,307.459375 C19.7135392,307.011456 19.4770832,306.387504 19.49375,305.5875 L19.5125,305.55 L20.725,305.55 C20.725,306.029169 20.8437488,306.418748 21.08125,306.71875 C21.3187512,307.018752 21.6312481,307.16875 22.01875,307.16875 C22.4270854,307.16875 22.7468738,307.02396 22.978125,306.734375 C23.2093762,306.44479 23.325,306.033336 23.325,305.5 C23.325,304.933331 23.2145844,304.515626 22.99375,304.246875 C22.7729156,303.978124 22.4395856,303.84375 21.99375,303.84375 L21.125,303.84375 L21.125,302.8875 Z M27.38155,308 L26.10655,308 L26.10655,306.73125 L27.38155,306.73125 L27.38155,308 Z M29.22225,303.9125 L29.65975,298.9 L33.741,298.9 L33.741,299.94375 L30.716,299.94375 L30.4785,302.64375 C30.6326674,302.485416 30.8118323,302.355209 31.016,302.253125 C31.2201677,302.151041 31.4534987,302.095833 31.716,302.0875 C32.4326702,302.079167 32.9951646,302.344789 33.4035,302.884375 C33.8118354,303.423961 34.016,304.160412 34.016,305.09375 C34.016,305.997921 33.8024605,306.730206 33.375375,307.290625 C32.9482895,307.851044 32.3243374,308.13125 31.5035,308.13125 C30.8201632,308.13125 30.245169,307.914585 29.7785,307.48125 C29.311831,307.047914 29.0868332,306.425004 29.1035,305.6125 L29.116,305.58125 L30.30975,305.55625 C30.30975,306.072919 30.4191239,306.470832 30.637875,306.75 C30.8566261,307.029168 31.1451649,307.16875 31.5035,307.16875 C31.9160021,307.16875 32.2264156,306.98646 32.43475,306.621875 C32.6430844,306.25729 32.74725,305.752087 32.74725,305.10625 C32.74725,304.497914 32.6389177,304.009377 32.42225,303.640625 C32.2055822,303.271873 31.8951687,303.0875 31.491,303.0875 C31.1326649,303.0875 30.8649592,303.165624 30.687875,303.321875 C30.5107908,303.478126 30.3868337,303.710415 30.316,304.01875 L29.22225,303.9125 Z" id="3.5" fill-opacity="0.794376149" fill="#FFFFFF" sketch:type="MSShapeGroup" mask="url(#mask-2)"></path>
                <path d="M22.95625,344.89375 L23.93125,344.89375 L23.93125,345.8625 L22.95625,345.8625 L22.95625,348 L21.69375,348 L21.69375,345.8625 L18.3875,345.8625 L18.35,345.15 L21.65625,338.9 L22.95625,338.9 L22.95625,344.89375 Z M19.6,344.89375 L21.69375,344.89375 L21.69375,340.7375 L21.65625,340.73125 L21.53125,340.99375 L19.6,344.89375 Z M26.38155,348 L25.10655,348 L25.10655,346.73125 L26.38155,346.73125 L26.38155,348 Z M33.0035,344.48125 C33.0035,345.660423 32.7774606,346.563539 32.325375,347.190625 C31.8732894,347.817711 31.2597539,348.13125 30.48475,348.13125 C29.7055794,348.13125 29.0878773,347.81667 28.631625,347.1875 C28.1753727,346.55833 27.94725,345.656256 27.94725,344.48125 L27.94725,342.425 C27.94725,341.254161 28.1743311,340.352086 28.6285,339.71875 C29.0826689,339.085414 29.6972461,338.76875 30.47225,338.76875 C31.2472539,338.76875 31.8628727,339.085414 32.319125,339.71875 C32.7753773,340.352086 33.0035,341.254161 33.0035,342.425 L33.0035,344.48125 Z M31.741,342.24375 C31.741,341.418746 31.6316261,340.795835 31.412875,340.375 C31.1941239,339.954165 30.8805854,339.74375 30.47225,339.74375 C30.0639146,339.74375 29.7524594,339.955206 29.537875,340.378125 C29.3232906,340.801044 29.216,341.422913 29.216,342.24375 L29.216,344.65625 C29.216,345.481254 29.3253739,346.106248 29.544125,346.53125 C29.7628761,346.956252 30.0764146,347.16875 30.48475,347.16875 C30.8889187,347.16875 31.1993323,346.957294 31.416,346.534375 C31.6326678,346.111456 31.741,345.485421 31.741,344.65625 L31.741,342.24375 Z" id="4.0" fill-opacity="0.794376149" fill="#FFFFFF" sketch:type="MSShapeGroup" mask="url(#mask-2)"></path>
                <path d="M82.65625,6.48125 C82.65625,7.66042256 82.4302106,8.56353853 81.978125,9.190625 C81.5260394,9.81771147 80.9125039,10.13125 80.1375,10.13125 C79.3583294,10.13125 78.7406273,9.81666981 78.284375,9.1875 C77.8281227,8.55833019 77.6,7.65625588 77.6,6.48125 L77.6,4.425 C77.6,3.25416081 77.8270811,2.3520865 78.28125,1.71875 C78.7354189,1.0854135 79.3499961,0.76875 80.125,0.76875 C80.9000039,0.76875 81.5156227,1.0854135 81.971875,1.71875 C82.4281273,2.3520865 82.65625,3.25416081 82.65625,4.425 L82.65625,6.48125 Z M81.39375,4.24375 C81.39375,3.41874588 81.2843761,2.79583544 81.065625,2.375 C80.8468739,1.95416456 80.5333354,1.74375 80.125,1.74375 C79.7166646,1.74375 79.4052094,1.95520622 79.190625,2.378125 C78.9760406,2.80104378 78.86875,3.42291256 78.86875,4.24375 L78.86875,6.65625 C78.86875,7.48125413 78.9781239,8.10624788 79.196875,8.53125 C79.4156261,8.95625213 79.7291646,9.16875 80.1375,9.16875 C80.5416687,9.16875 80.8520823,8.95729378 81.06875,8.534375 C81.2854178,8.11145622 81.39375,7.48542081 81.39375,6.65625 L81.39375,4.24375 Z M85.39405,10 L84.11905,10 L84.11905,8.73125 L85.39405,8.73125 L85.39405,10 Z M87.23475,5.9125 L87.67225,0.9 L91.7535,0.9 L91.7535,1.94375 L88.7285,1.94375 L88.491,4.64375 C88.6451674,4.48541588 88.8243323,4.35520884 89.0285,4.253125 C89.2326677,4.15104116 89.4659987,4.09583338 89.7285,4.0875 C90.4451703,4.07916663 91.0076646,4.34478897 91.416,4.884375 C91.8243354,5.42396103 92.0285,6.160412 92.0285,7.09375 C92.0285,7.99792119 91.8149605,8.73020553 91.387875,9.290625 C90.9607895,9.85104447 90.3368374,10.13125 89.516,10.13125 C88.8326633,10.13125 88.257669,9.9145855 87.791,9.48125 C87.324331,9.0479145 87.0993333,8.42500406 87.116,7.6125 L87.1285,7.58125 L88.32225,7.55625 C88.32225,8.07291925 88.4316239,8.47083194 88.650375,8.75 C88.8691261,9.02916806 89.1576649,9.16875 89.516,9.16875 C89.9285021,9.16875 90.2389156,8.98646016 90.44725,8.621875 C90.6555844,8.25728984 90.75975,7.75208656 90.75975,7.10625 C90.75975,6.49791363 90.6514178,6.00937684 90.43475,5.640625 C90.2180823,5.27187316 89.9076687,5.0875 89.5035,5.0875 C89.1451649,5.0875 88.8774592,5.16562422 88.700375,5.321875 C88.5232908,5.47812578 88.3993337,5.71041513 88.3285,6.01875 L87.23475,5.9125 Z" id="0.5" fill-opacity="0.794376149" fill="#FFFFFF" sketch:type="MSShapeGroup" mask="url(#mask-2)"></path>
                <path d="M120.9375,10.0125 L119.675,10.0125 L119.675,2.16875 L117.89375,2.2875 L117.89375,1.46875 L120.9375,0.89375 L120.9375,10.0125 Z M125.38155,10 L124.10655,10 L124.10655,8.73125 L125.38155,8.73125 L125.38155,10 Z M132.0035,6.48125 C132.0035,7.66042256 131.777461,8.56353853 131.325375,9.190625 C130.873289,9.81771147 130.259754,10.13125 129.48475,10.13125 C128.705579,10.13125 128.087877,9.81666981 127.631625,9.1875 C127.175373,8.55833019 126.94725,7.65625588 126.94725,6.48125 L126.94725,4.425 C126.94725,3.25416081 127.174331,2.3520865 127.6285,1.71875 C128.082669,1.0854135 128.697246,0.76875 129.47225,0.76875 C130.247254,0.76875 130.862873,1.0854135 131.319125,1.71875 C131.775377,2.3520865 132.0035,3.25416081 132.0035,4.425 L132.0035,6.48125 Z M130.741,4.24375 C130.741,3.41874588 130.631626,2.79583544 130.412875,2.375 C130.194124,1.95416456 129.880585,1.74375 129.47225,1.74375 C129.063915,1.74375 128.752459,1.95520622 128.537875,2.378125 C128.323291,2.80104378 128.216,3.42291256 128.216,4.24375 L128.216,6.65625 C128.216,7.48125413 128.325374,8.10624788 128.544125,8.53125 C128.762876,8.95625213 129.076415,9.16875 129.48475,9.16875 C129.888919,9.16875 130.199332,8.95729378 130.416,8.534375 C130.632668,8.11145622 130.741,7.48542081 130.741,6.65625 L130.741,4.24375 Z" id="1.0" fill-opacity="0.794376149" fill="#FFFFFF" sketch:type="MSShapeGroup" mask="url(#mask-2)"></path>
                <path d="M160.9375,10.0125 L159.675,10.0125 L159.675,2.16875 L157.89375,2.2875 L157.89375,1.46875 L160.9375,0.89375 L160.9375,10.0125 Z M165.38155,10 L164.10655,10 L164.10655,8.73125 L165.38155,8.73125 L165.38155,10 Z M167.22225,5.9125 L167.65975,0.9 L171.741,0.9 L171.741,1.94375 L168.716,1.94375 L168.4785,4.64375 C168.632667,4.48541588 168.811832,4.35520884 169.016,4.253125 C169.220168,4.15104116 169.453499,4.09583338 169.716,4.0875 C170.43267,4.07916663 170.995165,4.34478897 171.4035,4.884375 C171.811835,5.42396103 172.016,6.160412 172.016,7.09375 C172.016,7.99792119 171.80246,8.73020553 171.375375,9.290625 C170.94829,9.85104447 170.324337,10.13125 169.5035,10.13125 C168.820163,10.13125 168.245169,9.9145855 167.7785,9.48125 C167.311831,9.0479145 167.086833,8.42500406 167.1035,7.6125 L167.116,7.58125 L168.30975,7.55625 C168.30975,8.07291925 168.419124,8.47083194 168.637875,8.75 C168.856626,9.02916806 169.145165,9.16875 169.5035,9.16875 C169.916002,9.16875 170.226416,8.98646016 170.43475,8.621875 C170.643084,8.25728984 170.74725,7.75208656 170.74725,7.10625 C170.74725,6.49791363 170.638918,6.00937684 170.42225,5.640625 C170.205582,5.27187316 169.895169,5.0875 169.491,5.0875 C169.132665,5.0875 168.864959,5.16562422 168.687875,5.321875 C168.510791,5.47812578 168.386834,5.71041513 168.316,6.01875 L167.22225,5.9125 Z" id="1.5" fill-opacity="0.794376149" fill="#FFFFFF" sketch:type="MSShapeGroup" mask="url(#mask-2)"></path>
                <path d="M202.7375,10 L197.63125,10 L197.63125,9.15625 L200.13125,5.86875 C200.535419,5.29791381 200.817708,4.82604353 200.978125,4.453125 C201.138542,4.08020647 201.21875,3.71875175 201.21875,3.36875 C201.21875,2.88958094 201.117709,2.49895984 200.915625,2.196875 C200.713541,1.89479016 200.435418,1.74375 200.08125,1.74375 C199.635414,1.74375 199.301043,1.910415 199.078125,2.24375 C198.855207,2.577085 198.74375,3.03124713 198.74375,3.60625 L197.525,3.60625 L197.5125,3.575 C197.495833,2.78749606 197.718748,2.12291938 198.18125,1.58125 C198.643752,1.03958063 199.277079,0.76875 200.08125,0.76875 C200.82292,0.76875 201.409373,1.00312266 201.840625,1.471875 C202.271877,1.94062734 202.4875,2.56041281 202.4875,3.33125 C202.4875,3.85208594 202.35521,4.36562247 202.090625,4.871875 C201.82604,5.37812753 201.441669,5.94374688 200.9375,6.56875 L199.21875,9.0375 L202.7375,9.0375 L202.7375,10 Z M205.38155,10 L204.10655,10 L204.10655,8.73125 L205.38155,8.73125 L205.38155,10 Z M212.0035,6.48125 C212.0035,7.66042256 211.777461,8.56353853 211.325375,9.190625 C210.873289,9.81771147 210.259754,10.13125 209.48475,10.13125 C208.705579,10.13125 208.087877,9.81666981 207.631625,9.1875 C207.175373,8.55833019 206.94725,7.65625588 206.94725,6.48125 L206.94725,4.425 C206.94725,3.25416081 207.174331,2.3520865 207.6285,1.71875 C208.082669,1.0854135 208.697246,0.76875 209.47225,0.76875 C210.247254,0.76875 210.862873,1.0854135 211.319125,1.71875 C211.775377,2.3520865 212.0035,3.25416081 212.0035,4.425 L212.0035,6.48125 Z M210.741,4.24375 C210.741,3.41874588 210.631626,2.79583544 210.412875,2.375 C210.194124,1.95416456 209.880585,1.74375 209.47225,1.74375 C209.063915,1.74375 208.752459,1.95520622 208.537875,2.378125 C208.323291,2.80104378 208.216,3.42291256 208.216,4.24375 L208.216,6.65625 C208.216,7.48125413 208.325374,8.10624788 208.544125,8.53125 C208.762876,8.95625213 209.076415,9.16875 209.48475,9.16875 C209.888919,9.16875 210.199332,8.95729378 210.416,8.534375 C210.632668,8.11145622 210.741,7.48542081 210.741,6.65625 L210.741,4.24375 Z" id="2.0" fill-opacity="0.794376149" fill="#FFFFFF" sketch:type="MSShapeGroup" mask="url(#mask-2)"></path>
                <path d="M242.7375,10 L237.63125,10 L237.63125,9.15625 L240.13125,5.86875 C240.535419,5.29791381 240.817708,4.82604353 240.978125,4.453125 C241.138542,4.08020647 241.21875,3.71875175 241.21875,3.36875 C241.21875,2.88958094 241.117709,2.49895984 240.915625,2.196875 C240.713541,1.89479016 240.435418,1.74375 240.08125,1.74375 C239.635414,1.74375 239.301043,1.910415 239.078125,2.24375 C238.855207,2.577085 238.74375,3.03124713 238.74375,3.60625 L237.525,3.60625 L237.5125,3.575 C237.495833,2.78749606 237.718748,2.12291938 238.18125,1.58125 C238.643752,1.03958063 239.277079,0.76875 240.08125,0.76875 C240.82292,0.76875 241.409373,1.00312266 241.840625,1.471875 C242.271877,1.94062734 242.4875,2.56041281 242.4875,3.33125 C242.4875,3.85208594 242.35521,4.36562247 242.090625,4.871875 C241.82604,5.37812753 241.441669,5.94374688 240.9375,6.56875 L239.21875,9.0375 L242.7375,9.0375 L242.7375,10 Z M245.38155,10 L244.10655,10 L244.10655,8.73125 L245.38155,8.73125 L245.38155,10 Z M247.22225,5.9125 L247.65975,0.9 L251.741,0.9 L251.741,1.94375 L248.716,1.94375 L248.4785,4.64375 C248.632667,4.48541588 248.811832,4.35520884 249.016,4.253125 C249.220168,4.15104116 249.453499,4.09583338 249.716,4.0875 C250.43267,4.07916663 250.995165,4.34478897 251.4035,4.884375 C251.811835,5.42396103 252.016,6.160412 252.016,7.09375 C252.016,7.99792119 251.80246,8.73020553 251.375375,9.290625 C250.94829,9.85104447 250.324337,10.13125 249.5035,10.13125 C248.820163,10.13125 248.245169,9.9145855 247.7785,9.48125 C247.311831,9.0479145 247.086833,8.42500406 247.1035,7.6125 L247.116,7.58125 L248.30975,7.55625 C248.30975,8.07291925 248.419124,8.47083194 248.637875,8.75 C248.856626,9.02916806 249.145165,9.16875 249.5035,9.16875 C249.916002,9.16875 250.226416,8.98646016 250.43475,8.621875 C250.643084,8.25728984 250.74725,7.75208656 250.74725,7.10625 C250.74725,6.49791363 250.638918,6.00937684 250.42225,5.640625 C250.205582,5.27187316 249.895169,5.0875 249.491,5.0875 C249.132665,5.0875 248.864959,5.16562422 248.687875,5.321875 C248.510791,5.47812578 248.386834,5.71041513 248.316,6.01875 L247.22225,5.9125 Z" id="2.5" fill-opacity="0.794376149" fill="#FFFFFF" sketch:type="MSShapeGroup" mask="url(#mask-2)"></path>
                <path d="M279.125,4.8875 L279.99375,4.8875 C280.414585,4.8875 280.721874,4.74687641 280.915625,4.465625 C281.109376,4.18437359 281.20625,3.80416906 281.20625,3.325 C281.20625,2.83333088 281.105209,2.44687641 280.903125,2.165625 C280.701041,1.88437359 280.406252,1.74375 280.01875,1.74375 C279.664582,1.74375 279.373959,1.88437359 279.146875,2.165625 C278.919791,2.44687641 278.80625,2.81666438 278.80625,3.275 L277.6,3.275 L277.58125,3.2375 C277.564583,2.53332981 277.785414,1.94583569 278.24375,1.475 C278.702086,1.00416431 279.285413,0.76875 279.99375,0.76875 C280.743754,0.76875 281.343748,0.992706094 281.79375,1.440625 C282.243752,1.88854391 282.46875,2.52082925 282.46875,3.3375 C282.46875,3.74166869 282.362501,4.12812316 282.15,4.496875 C281.937499,4.86562684 281.635419,5.14583238 281.24375,5.3375 C281.702086,5.50833419 282.041666,5.78437309 282.2625,6.165625 C282.483334,6.54687691 282.59375,6.9874975 282.59375,7.4875 C282.59375,8.31250413 282.351044,8.95937266 281.865625,9.428125 C281.380206,9.89687734 280.758337,10.13125 280,10.13125 C279.291663,10.13125 278.692711,9.90729391 278.203125,9.459375 C277.713539,9.01145609 277.477083,8.387504 277.49375,7.5875 L277.5125,7.55 L278.725,7.55 C278.725,8.02916906 278.843749,8.4187485 279.08125,8.71875 C279.318751,9.0187515 279.631248,9.16875 280.01875,9.16875 C280.427085,9.16875 280.746874,9.02395978 280.978125,8.734375 C281.209376,8.44479022 281.325,8.033336 281.325,7.5 C281.325,6.9333305 281.214584,6.51562634 280.99375,6.246875 C280.772916,5.97812366 280.439586,5.84375 279.99375,5.84375 L279.125,5.84375 L279.125,4.8875 Z M285.38155,10 L284.10655,10 L284.10655,8.73125 L285.38155,8.73125 L285.38155,10 Z M292.0035,6.48125 C292.0035,7.66042256 291.777461,8.56353853 291.325375,9.190625 C290.873289,9.81771147 290.259754,10.13125 289.48475,10.13125 C288.705579,10.13125 288.087877,9.81666981 287.631625,9.1875 C287.175373,8.55833019 286.94725,7.65625588 286.94725,6.48125 L286.94725,4.425 C286.94725,3.25416081 287.174331,2.3520865 287.6285,1.71875 C288.082669,1.0854135 288.697246,0.76875 289.47225,0.76875 C290.247254,0.76875 290.862873,1.0854135 291.319125,1.71875 C291.775377,2.3520865 292.0035,3.25416081 292.0035,4.425 L292.0035,6.48125 Z M290.741,4.24375 C290.741,3.41874588 290.631626,2.79583544 290.412875,2.375 C290.194124,1.95416456 289.880585,1.74375 289.47225,1.74375 C289.063915,1.74375 288.752459,1.95520622 288.537875,2.378125 C288.323291,2.80104378 288.216,3.42291256 288.216,4.24375 L288.216,6.65625 C288.216,7.48125413 288.325374,8.10624788 288.544125,8.53125 C288.762876,8.95625213 289.076415,9.16875 289.48475,9.16875 C289.888919,9.16875 290.199332,8.95729378 290.416,8.534375 C290.632668,8.11145622 290.741,7.48542081 290.741,6.65625 L290.741,4.24375 Z" id="3.0" fill-opacity="0.794376149" fill="#FFFFFF" sketch:type="MSShapeGroup" mask="url(#mask-2)"></path>
                <path d="M319.125,4.8875 L319.99375,4.8875 C320.414585,4.8875 320.721874,4.74687641 320.915625,4.465625 C321.109376,4.18437359 321.20625,3.80416906 321.20625,3.325 C321.20625,2.83333088 321.105209,2.44687641 320.903125,2.165625 C320.701041,1.88437359 320.406252,1.74375 320.01875,1.74375 C319.664582,1.74375 319.373959,1.88437359 319.146875,2.165625 C318.919791,2.44687641 318.80625,2.81666438 318.80625,3.275 L317.6,3.275 L317.58125,3.2375 C317.564583,2.53332981 317.785414,1.94583569 318.24375,1.475 C318.702086,1.00416431 319.285413,0.76875 319.99375,0.76875 C320.743754,0.76875 321.343748,0.992706094 321.79375,1.440625 C322.243752,1.88854391 322.46875,2.52082925 322.46875,3.3375 C322.46875,3.74166869 322.362501,4.12812316 322.15,4.496875 C321.937499,4.86562684 321.635419,5.14583238 321.24375,5.3375 C321.702086,5.50833419 322.041666,5.78437309 322.2625,6.165625 C322.483334,6.54687691 322.59375,6.9874975 322.59375,7.4875 C322.59375,8.31250413 322.351044,8.95937266 321.865625,9.428125 C321.380206,9.89687734 320.758337,10.13125 320,10.13125 C319.291663,10.13125 318.692711,9.90729391 318.203125,9.459375 C317.713539,9.01145609 317.477083,8.387504 317.49375,7.5875 L317.5125,7.55 L318.725,7.55 C318.725,8.02916906 318.843749,8.4187485 319.08125,8.71875 C319.318751,9.0187515 319.631248,9.16875 320.01875,9.16875 C320.427085,9.16875 320.746874,9.02395978 320.978125,8.734375 C321.209376,8.44479022 321.325,8.033336 321.325,7.5 C321.325,6.9333305 321.214584,6.51562634 320.99375,6.246875 C320.772916,5.97812366 320.439586,5.84375 319.99375,5.84375 L319.125,5.84375 L319.125,4.8875 Z M325.38155,10 L324.10655,10 L324.10655,8.73125 L325.38155,8.73125 L325.38155,10 Z M327.22225,5.9125 L327.65975,0.9 L331.741,0.9 L331.741,1.94375 L328.716,1.94375 L328.4785,4.64375 C328.632667,4.48541588 328.811832,4.35520884 329.016,4.253125 C329.220168,4.15104116 329.453499,4.09583338 329.716,4.0875 C330.43267,4.07916663 330.995165,4.34478897 331.4035,4.884375 C331.811835,5.42396103 332.016,6.160412 332.016,7.09375 C332.016,7.99792119 331.80246,8.73020553 331.375375,9.290625 C330.94829,9.85104447 330.324337,10.13125 329.5035,10.13125 C328.820163,10.13125 328.245169,9.9145855 327.7785,9.48125 C327.311831,9.0479145 327.086833,8.42500406 327.1035,7.6125 L327.116,7.58125 L328.30975,7.55625 C328.30975,8.07291925 328.419124,8.47083194 328.637875,8.75 C328.856626,9.02916806 329.145165,9.16875 329.5035,9.16875 C329.916002,9.16875 330.226416,8.98646016 330.43475,8.621875 C330.643084,8.25728984 330.74725,7.75208656 330.74725,7.10625 C330.74725,6.49791363 330.638918,6.00937684 330.42225,5.640625 C330.205582,5.27187316 329.895169,5.0875 329.491,5.0875 C329.132665,5.0875 328.864959,5.16562422 328.687875,5.321875 C328.510791,5.47812578 328.386834,5.71041513 328.316,6.01875 L327.22225,5.9125 Z" id="3.5" fill-opacity="0.794376149" fill="#FFFFFF" sketch:type="MSShapeGroup" mask="url(#mask-2)"></path>
            </g>
        </g>
    </g>
</svg>