<?xml version="1.0" encoding="UTF-8" standalone="no"?>
<svg width="62px" height="104px" viewBox="0 0 62 104" version="1.1" xmlns="http://www.w3.org/2000/svg" xmlns:xlink="http://www.w3.org/1999/xlink" xmlns:sketch="http://www.bohemiancoding.com/sketch/ns">
    <title>icon-sprite-map</title>
    <description>Created with Sketch (http://www.bohemiancoding.com/sketch)</description>
    <defs></defs>
    <g id="Page-1" stroke="none" stroke-width="1" fill="none" fill-rule="evenodd" sketch:type="MSPage">
        <path d="M10.7387741,0.765323791 L10.7387741,9.2612259 L19.2346762,9.2612259 C20.2551079,9.2612259 20.2551079,10.7387741 19.2346762,10.7387741 L10.7387741,10.7387741 L10.7387741,19.2346762 C10.7387741,20.2551079 9.2612259,20.2551079 9.2612259,19.2346762 L9.2612259,10.7387741 L0.765323791,10.7387741 C-0.25510793,10.7387741 -0.25510793,9.2612259 0.765323791,9.2612259 L9.2612259,9.2612259 L9.2612259,0.765323791 C9.2612259,-0.25510793 10.7387741,-0.25510793 10.7387741,0.765323791 Z" id="Shape" fill="#34495E" sketch:type="MSShapeGroup"></path>
        <path d="M31.7387741,0.765323791 L31.7387741,9.2612259 L40.2346762,9.2612259 C41.2551079,9.2612259 41.2551079,10.7387741 40.2346762,10.7387741 L31.7387741,10.7387741 L31.7387741,19.2346762 C31.7387741,20.2551079 30.2612259,20.2551079 30.2612259,19.2346762 L30.2612259,10.7387741 L21.7653238,10.7387741 C20.7448921,10.7387741 20.7448921,9.2612259 21.7653238,9.2612259 L30.2612259,9.2612259 L30.2612259,0.765323791 C30.2612259,-0.25510793 31.7387741,-0.25510793 31.7387741,0.765323791 Z" id="Shape-copy" fill="#1D77EF" sketch:type="MSShapeGroup"></path>
        <path d="M52.7387741,0.765323791 L52.7387741,9.2612259 L61.2346762,9.2612259 C62.2551079,9.2612259 62.2551079,10.7387741 61.2346762,10.7387741 L52.7387741,10.7387741 L52.7387741,19.2346762 C52.7387741,20.2551079 51.2612259,20.2551079 51.2612259,19.2346762 L51.2612259,10.7387741 L42.7653238,10.7387741 C41.7448921,10.7387741 41.7448921,9.2612259 42.7653238,9.2612259 L51.2612259,9.2612259 L51.2612259,0.765323791 C51.2612259,-0.25510793 52.7387741,-0.25510793 52.7387741,0.765323791 Z" id="Shape-copy-2" fill="#185CB7" sketch:type="MSShapeGroup"></path>
        <path d="M16.9006511,38.6763023 C16.9006511,39.085443 16.5564923,39.4188444 16.1324396,39.4188444 L2.30463424,39.4188444 C1.88058154,39.4188444 1.53642282,39.085443 1.53642282,38.6763023 L1.53642282,25.3105446 C1.53642282,24.9014039 1.88058154,24.5680025 2.30463424,24.5680025 L8.45032553,24.5680025 C8.87514644,24.5680025 9.21853694,24.2353437 9.21853694,23.8254604 C9.21853694,23.4155772 8.87514644,23.0829183 8.45032553,23.0829183 L2.30463424,23.0829183 C1.03401256,23.0829183 0,24.08238 0,25.3105446 L0,38.6763023 C0,39.9044669 1.03401256,40.9039286 2.30463424,40.9039286 L16.1324396,40.9039286 C17.4030613,40.9039286 18.4370739,39.9044669 18.4370739,38.6763023 L18.4370739,32.7359656 C18.4370739,32.3260823 18.0936834,31.9934235 17.6688625,31.9934235 C17.2440416,31.9934235 16.9006511,32.3260823 16.9006511,32.7359656 L16.9006511,38.6763023 Z M13.7997657,22.3890128 L17.3773262,22.3890128 L8.3677428,31.0975464 C8.06814035,31.3871378 8.06814035,31.8579095 8.3677428,32.1475009 C8.66734525,32.4370924 9.15439129,32.4370924 9.45399374,32.1475009 L18.4635772,23.4389673 L18.4635772,26.8969858 C18.4643454,27.2935033 18.8207955,27.6387854 19.2317886,27.6395279 C19.6550731,27.6395279 20,27.3061265 20,26.8969858 L20,20.9039286 L13.7997657,20.9039286 C13.3764812,20.9039286 13.0315543,21.23733 13.0315543,21.6464707 C13.0323225,22.0429881 13.3887726,22.3882702 13.7997657,22.3890128 Z" id="Shape" fill="#34495E" sketch:type="MSShapeGroup"></path>
        <path d="M37.9006511,38.6763023 C37.9006511,39.085443 37.5564923,39.4188444 37.1324396,39.4188444 L23.3046342,39.4188444 C22.8805815,39.4188444 22.5364228,39.085443 22.5364228,38.6763023 L22.5364228,25.3105446 C22.5364228,24.9014039 22.8805815,24.5680025 23.3046342,24.5680025 L29.4503255,24.5680025 C29.8751464,24.5680025 30.2185369,24.2353437 30.2185369,23.8254604 C30.2185369,23.4155772 29.8751464,23.0829183 29.4503255,23.0829183 L23.3046342,23.0829183 C22.0340126,23.0829183 21,24.08238 21,25.3105446 L21,38.6763023 C21,39.9044669 22.0340126,40.9039286 23.3046342,40.9039286 L37.1324396,40.9039286 C38.4030613,40.9039286 39.4370739,39.9044669 39.4370739,38.6763023 L39.4370739,32.7359656 C39.4370739,32.3260823 39.0936834,31.9934235 38.6688625,31.9934235 C38.2440416,31.9934235 37.9006511,32.3260823 37.9006511,32.7359656 L37.9006511,38.6763023 Z M34.7997657,22.3890128 L38.3773262,22.3890128 L29.3677428,31.0975464 C29.0681404,31.3871378 29.0681404,31.8579095 29.3677428,32.1475009 C29.6673453,32.4370924 30.1543913,32.4370924 30.4539937,32.1475009 L39.4635772,23.4389673 L39.4635772,26.8969858 C39.4643454,27.2935033 39.8207955,27.6387854 40.2317886,27.6395279 C40.6550731,27.6395279 41,27.3061265 41,26.8969858 L41,20.9039286 L34.7997657,20.9039286 C34.3764812,20.9039286 34.0315543,21.23733 34.0315543,21.6464707 C34.0323225,22.0429881 34.3887726,22.3882702 34.7997657,22.3890128 Z" id="Shape" fill="#1D77EF" sketch:type="MSShapeGroup"></path>
        <path d="M44.3046342,39.4188444 C43.8805815,39.4188444 43.5364228,39.085443 43.5364228,38.6763023 L43.5364228,25.3105446 C43.5364228,24.9014039 43.8805815,24.5680025 44.3046342,24.5680025 L50.4503255,24.5680025 C50.8751464,24.5680025 51.2185369,24.2353437 51.2185369,23.8254604 C51.2185369,23.4155772 50.8751464,23.0829183 50.4503255,23.0829183 L44.3046342,23.0829183 C43.0340126,23.0829183 42,24.08238 42,25.3105446 L42,38.6763023 C42,39.9044669 43.0340126,40.9039286 44.3046342,40.9039286 L58.1324396,40.9039286 C59.4030613,40.9039286 60.4370739,39.9044669 60.4370739,38.6763023 L60.4370739,32.7359656 C60.4370739,32.3260823 60.0936834,31.9934235 59.6688625,31.9934235 C59.2440416,31.9934235 58.9006511,32.3260823 58.9006511,32.7359656 L58.9006511,38.6763023 C58.9006511,39.085443 58.5564923,39.4188444 58.1324396,39.4188444 L44.3046342,39.4188444 Z M50.3677428,31.0975464 C50.0681404,31.3871378 50.0681404,31.8579095 50.3677428,32.1475009 C50.6673453,32.4370924 51.1543913,32.4370924 51.4539937,32.1475009 L60.4635772,23.4389673 L60.4635772,26.8969858 C60.4643454,27.2935033 60.8207955,27.6387854 61.2317886,27.6395279 C61.6550731,27.6395279 62,27.3061265 62,26.8969858 L62,20.9039286 L55.7997657,20.9039286 C55.3764812,20.9039286 55.0315543,21.23733 55.0315543,21.6464707 C55.0323225,22.0429881 55.3887726,22.3882702 55.7997657,22.3890128 L59.3773262,22.3890128 L50.3677428,31.0975464 Z" id="Shape" fill="#185CB7" sketch:type="MSShapeGroup"></path>
        <g id="Group" sketch:type="MSLayerGroup" transform="translate(0.000000, 42.903929)" fill="#34495E">
            <path d="M9.5575,5.97407143 C9.313125,6.22542857 9.313125,6.63171429 9.5575,6.88307143 L11.615625,9 L9.5575,11.1169286 C9.313125,11.3682857 9.313125,11.7745714 9.5575,12.0259286 C9.679375,12.1512857 9.839375,12.2142857 9.999375,12.2142857 C10.159375,12.2142857 10.319375,12.1512857 10.44125,12.0259286 L12.499375,9.909 L14.5575,12.0259286 C14.679375,12.1512857 14.839375,12.2142857 14.999375,12.2142857 C15.159375,12.2142857 15.319375,12.1512857 15.44125,12.0259286 C15.685625,11.7745714 15.685625,11.3682857 15.44125,11.1169286 L13.383125,9 L15.44125,6.88307143 C15.685625,6.63171429 15.685625,6.22542857 15.44125,5.97407143 C15.196875,5.72271429 14.801875,5.72271429 14.5575,5.97407143 L12.499375,8.091 L10.44125,5.97407143 C10.196875,5.72271429 9.80125,5.72271429 9.5575,5.97407143 L9.5575,5.97407143 Z" id="Shape" sketch:type="MSShapeGroup"></path>
            <path d="M18.75,0 L10,0 C9.6825,0.00257142857 9.245625,0.105428571 8.994375,0.308571429 L0.495625,7.98557143 C0.180625,8.2305 0,8.60464286 0,9 C0,9.39535714 0.180625,9.7695 0.495625,10.0144286 L8.994375,17.6914286 C9.245625,17.8945714 9.6825,17.9974286 10,18 L18.75,18 C19.43875,18 20,17.4214286 20,16.7142857 L20,1.28571429 C20,0.578571429 19.43875,0 18.75,0 L18.75,0 Z M18.75,16.7142857 L10.01,16.7142857 C9.92125,16.7136429 9.808125,16.686 9.75125,16.6635 L1.320625,9.04821429 L1.28625,9.03921429 L1.25,9.01092857 L1.28625,8.98264286 L1.320625,8.95178571 L9.75125,1.33585714 C9.808125,1.31335714 9.919375,1.28635714 10,1.28571429 L18.75,1.28571429 L18.75,16.7142857 L18.75,16.7142857 Z" id="Shape" sketch:type="MSShapeGroup"></path>
        </g>
        <g id="Group-copy" sketch:type="MSLayerGroup" transform="translate(21.000000, 42.903929)" fill="#1D77EF">
            <path d="M9.5575,5.97407143 C9.313125,6.22542857 9.313125,6.63171429 9.5575,6.88307143 L11.615625,9 L9.5575,11.1169286 C9.313125,11.3682857 9.313125,11.7745714 9.5575,12.0259286 C9.679375,12.1512857 9.839375,12.2142857 9.999375,12.2142857 C10.159375,12.2142857 10.319375,12.1512857 10.44125,12.0259286 L12.499375,9.909 L14.5575,12.0259286 C14.679375,12.1512857 14.839375,12.2142857 14.999375,12.2142857 C15.159375,12.2142857 15.319375,12.1512857 15.44125,12.0259286 C15.685625,11.7745714 15.685625,11.3682857 15.44125,11.1169286 L13.383125,9 L15.44125,6.88307143 C15.685625,6.63171429 15.685625,6.22542857 15.44125,5.97407143 C15.196875,5.72271429 14.801875,5.72271429 14.5575,5.97407143 L12.499375,8.091 L10.44125,5.97407143 C10.196875,5.72271429 9.80125,5.72271429 9.5575,5.97407143 L9.5575,5.97407143 Z" id="Shape" sketch:type="MSShapeGroup"></path>
            <path d="M18.75,0 L10,0 C9.6825,0.00257142857 9.245625,0.105428571 8.994375,0.308571429 L0.495625,7.98557143 C0.180625,8.2305 0,8.60464286 0,9 C0,9.39535714 0.180625,9.7695 0.495625,10.0144286 L8.994375,17.6914286 C9.245625,17.8945714 9.6825,17.9974286 10,18 L18.75,18 C19.43875,18 20,17.4214286 20,16.7142857 L20,1.28571429 C20,0.578571429 19.43875,0 18.75,0 L18.75,0 Z M18.75,16.7142857 L10.01,16.7142857 C9.92125,16.7136429 9.808125,16.686 9.75125,16.6635 L1.320625,9.04821429 L1.28625,9.03921429 L1.25,9.01092857 L1.28625,8.98264286 L1.320625,8.95178571 L9.75125,1.33585714 C9.808125,1.31335714 9.919375,1.28635714 10,1.28571429 L18.75,1.28571429 L18.75,16.7142857 L18.75,16.7142857 Z" id="Shape" sketch:type="MSShapeGroup"></path>
        </g>
        <g id="Group-copy-2" sketch:type="MSLayerGroup" transform="translate(42.000000, 42.903929)" fill="#185CB7">
            <path d="M9.5575,5.97407143 C9.313125,6.22542857 9.313125,6.63171429 9.5575,6.88307143 L11.615625,9 L9.5575,11.1169286 C9.313125,11.3682857 9.313125,11.7745714 9.5575,12.0259286 C9.679375,12.1512857 9.839375,12.2142857 9.999375,12.2142857 C10.159375,12.2142857 10.319375,12.1512857 10.44125,12.0259286 L12.499375,9.909 L14.5575,12.0259286 C14.679375,12.1512857 14.839375,12.2142857 14.999375,12.2142857 C15.159375,12.2142857 15.319375,12.1512857 15.44125,12.0259286 C15.685625,11.7745714 15.685625,11.3682857 15.44125,11.1169286 L13.383125,9 L15.44125,6.88307143 C15.685625,6.63171429 15.685625,6.22542857 15.44125,5.97407143 C15.196875,5.72271429 14.801875,5.72271429 14.5575,5.97407143 L12.499375,8.091 L10.44125,5.97407143 C10.196875,5.72271429 9.80125,5.72271429 9.5575,5.97407143 L9.5575,5.97407143 Z" id="Shape" sketch:type="MSShapeGroup"></path>
            <path d="M18.75,0 L10,0 C9.6825,0.00257142857 9.245625,0.105428571 8.994375,0.308571429 L0.495625,7.98557143 C0.180625,8.2305 0,8.60464286 0,9 C0,9.39535714 0.180625,9.7695 0.495625,10.0144286 L8.994375,17.6914286 C9.245625,17.8945714 9.6825,17.9974286 10,18 L18.75,18 C19.43875,18 20,17.4214286 20,16.7142857 L20,1.28571429 C20,0.578571429 19.43875,0 18.75,0 L18.75,0 Z M18.75,16.7142857 L10.01,16.7142857 C9.92125,16.7136429 9.808125,16.686 9.75125,16.6635 L1.320625,9.04821429 L1.28625,9.03921429 L1.25,9.01092857 L1.28625,8.98264286 L1.320625,8.95178571 L9.75125,1.33585714 C9.808125,1.31335714 9.919375,1.28635714 10,1.28571429 L18.75,1.28571429 L18.75,16.7142857 L18.75,16.7142857 Z" id="Shape" sketch:type="MSShapeGroup"></path>
        </g>
        <g id="edit" sketch:type="MSLayerGroup" transform="translate(0.000000, 62.807857)" fill="#34495E">
            <g id="Group" sketch:type="MSShapeGroup">
                <path d="M19.1775,0.8225 C18.080625,-0.274375 16.296875,-0.274375 15.2,0.8225 L5.704375,10.320625 C5.53875,10.48625 5.423125,10.695 5.370625,10.923125 L4.70625,13.794375 C4.609375,14.214375 4.735625,14.655 5.04,14.959375 L5.04,14.959375 C5.345,15.264375 5.785,15.390625 6.205,15.29375 L9.0775,14.630625 C9.305625,14.578125 9.514375,14.461875 9.68,14.29625 L19.1775,4.8 C20.274375,3.703125 20.274375,1.91875 19.1775,0.8225 L19.1775,0.8225 Z M8.796875,13.413125 L5.924375,14.07625 L6.5875,11.20375 L13.658125,4.131875 L15.868125,6.341875 L8.796875,13.413125 L8.796875,13.413125 Z M16.31,5.9 L14.1,3.69 L14.984375,2.80625 L17.19375,5.015625 L16.31,5.9 L16.31,5.9 Z M18.29375,3.91625 L17.635625,4.574375 L15.42625,2.365 L16.084375,1.706875 C16.694375,1.096875 17.684375,1.0975 18.29375,1.706875 C18.904375,2.316875 18.90375,3.305625 18.29375,3.91625 L18.29375,3.91625 Z" id="Shape"></path>
                <path d="M14.375,12.5 C14.029375,12.5 13.75,12.78 13.75,13.125 L13.75,18.125 C13.75,18.469375 13.47,18.75 13.125,18.75 L1.875,18.75 C1.53,18.75 1.25,18.469375 1.25,18.125 L1.25,6.875 C1.25,6.530625 1.53,6.25 1.875,6.25 L6.875,6.25 C7.220625,6.25 7.5,5.97 7.5,5.625 C7.5,5.28 7.220625,5 6.875,5 L1.875,5 C0.84125,5 0,5.84125 0,6.875 L0,18.125 C0,19.15875 0.84125,20 1.875,20 L13.125,20 C14.15875,20 15,19.15875 15,18.125 L15,13.125 C15,12.78 14.720625,12.5 14.375,12.5 L14.375,12.5 Z" id="Shape"></path>
            </g>
        </g>
        <g id="edit-copy" sketch:type="MSLayerGroup" transform="translate(21.000000, 62.807857)" fill="#1D77EF">
            <g id="Group" sketch:type="MSShapeGroup">
                <path d="M19.1775,0.8225 C18.080625,-0.274375 16.296875,-0.274375 15.2,0.8225 L5.704375,10.320625 C5.53875,10.48625 5.423125,10.695 5.370625,10.923125 L4.70625,13.794375 C4.609375,14.214375 4.735625,14.655 5.04,14.959375 L5.04,14.959375 C5.345,15.264375 5.785,15.390625 6.205,15.29375 L9.0775,14.630625 C9.305625,14.578125 9.514375,14.461875 9.68,14.29625 L19.1775,4.8 C20.274375,3.703125 20.274375,1.91875 19.1775,0.8225 L19.1775,0.8225 Z M8.796875,13.413125 L5.924375,14.07625 L6.5875,11.20375 L13.658125,4.131875 L15.868125,6.341875 L8.796875,13.413125 L8.796875,13.413125 Z M16.31,5.9 L14.1,3.69 L14.984375,2.80625 L17.19375,5.015625 L16.31,5.9 L16.31,5.9 Z M18.29375,3.91625 L17.635625,4.574375 L15.42625,2.365 L16.084375,1.706875 C16.694375,1.096875 17.684375,1.0975 18.29375,1.706875 C18.904375,2.316875 18.90375,3.305625 18.29375,3.91625 L18.29375,3.91625 Z" id="Shape"></path>
                <path d="M14.375,12.5 C14.029375,12.5 13.75,12.78 13.75,13.125 L13.75,18.125 C13.75,18.469375 13.47,18.75 13.125,18.75 L1.875,18.75 C1.53,18.75 1.25,18.469375 1.25,18.125 L1.25,6.875 C1.25,6.530625 1.53,6.25 1.875,6.25 L6.875,6.25 C7.220625,6.25 7.5,5.97 7.5,5.625 C7.5,5.28 7.220625,5 6.875,5 L1.875,5 C0.84125,5 0,5.84125 0,6.875 L0,18.125 C0,19.15875 0.84125,20 1.875,20 L13.125,20 C14.15875,20 15,19.15875 15,18.125 L15,13.125 C15,12.78 14.720625,12.5 14.375,12.5 L14.375,12.5 Z" id="Shape"></path>
            </g>
        </g>
        <g id="edit-copy-2" sketch:type="MSLayerGroup" transform="translate(42.000000, 62.807857)" fill="#185CB7">
            <g id="Group" sketch:type="MSShapeGroup">
                <path d="M19.1775,0.8225 C18.080625,-0.274375 16.296875,-0.274375 15.2,0.8225 L5.704375,10.320625 C5.53875,10.48625 5.423125,10.695 5.370625,10.923125 L4.70625,13.794375 C4.609375,14.214375 4.735625,14.655 5.04,14.959375 L5.04,14.959375 C5.345,15.264375 5.785,15.390625 6.205,15.29375 L9.0775,14.630625 C9.305625,14.578125 9.514375,14.461875 9.68,14.29625 L19.1775,4.8 C20.274375,3.703125 20.274375,1.91875 19.1775,0.8225 L19.1775,0.8225 Z M8.796875,13.413125 L5.924375,14.07625 L6.5875,11.20375 L13.658125,4.131875 L15.868125,6.341875 L8.796875,13.413125 L8.796875,13.413125 Z M16.31,5.9 L14.1,3.69 L14.984375,2.80625 L17.19375,5.015625 L16.31,5.9 L16.31,5.9 Z M18.29375,3.91625 L17.635625,4.574375 L15.42625,2.365 L16.084375,1.706875 C16.694375,1.096875 17.684375,1.0975 18.29375,1.706875 C18.904375,2.316875 18.90375,3.305625 18.29375,3.91625 L18.29375,3.91625 Z" id="Shape"></path>
                <path d="M14.375,12.5 C14.029375,12.5 13.75,12.78 13.75,13.125 L13.75,18.125 C13.75,18.469375 13.47,18.75 13.125,18.75 L1.875,18.75 C1.53,18.75 1.25,18.469375 1.25,18.125 L1.25,6.875 C1.25,6.530625 1.53,6.25 1.875,6.25 L6.875,6.25 C7.220625,6.25 7.5,5.97 7.5,5.625 C7.5,5.28 7.220625,5 6.875,5 L1.875,5 C0.84125,5 0,5.84125 0,6.875 L0,18.125 C0,19.15875 0.84125,20 1.875,20 L13.125,20 C14.15875,20 15,19.15875 15,18.125 L15,13.125 C15,12.78 14.720625,12.5 14.375,12.5 L14.375,12.5 Z" id="Shape"></path>
            </g>
        </g>
        <g id="cloud-download" sketch:type="MSLayerGroup" transform="translate(0.000000, 86.000000)" fill="#34495E">
            <g id="Group" sketch:type="MSShapeGroup">
                <path d="M14.185625,11.54875 C13.941875,11.305 13.545625,11.305 13.301875,11.54875 L11.25,13.5 L11.2375,7.875 C11.2375,7.53 10.9575,7.25 10.6125,7.25 C10.2675,7.25 10,7.555625 10,7.875 L10,13.5 L7.935625,11.54875 C7.8175,11.43125 7.660625,11.365625 7.49375,11.365625 C7.326875,11.365625 7.17,11.430625 7.051875,11.54875 C6.815,11.78625 6.816875,12.19625 7.051875,12.431875 L10.61875,16 L14.185625,12.4325 C14.42125,12.19625 14.4225,11.78625 14.185625,11.54875 L14.185625,11.54875 Z" id="Shape"></path>
                <path d="M16.484375,5.76875 C16.484375,2.5875 13.86,0 10.634375,0 C7.828125,0 5.46875,1.951875 4.9275,4.62625 C2.18125,4.796875 0,7.05625 0,9.8075 C0,12.670625 2.36,15 5.261875,15 L7.85125,15 L6.60125,13.75 L5.261875,13.75 C3.05,13.75 1.25,11.98125 1.25,9.8075 C1.25,7.63625 3.045625,5.869375 5.278125,5.869375 C5.33625,5.87625 5.38625,5.8825 5.4375,5.884375 L6.025,5.908125 L6.084375,5.3225 C6.319375,3.00125 8.275625,1.25 10.634375,1.25 C13.17125,1.25 15.234375,3.2775 15.234375,5.76875 C15.234375,5.925 15.21125,6.075 15.189375,6.225 L15.08625,6.98875 L15.719375,7.06125 C17.4475,7.259375 18.750625,8.688125 18.750625,10.384375 C18.75,12.24 17.211875,13.75 15.321875,13.75 L14.636875,13.75 L13.386875,15 L15.321875,15 C17.901875,15 20,12.93 20,10.385 C20,8.26125 18.525,6.444375 16.479375,5.931875 C16.4825,5.87875 16.484375,5.824375 16.484375,5.76875 Z" id="Shape"></path>
            </g>
        </g>
        <g id="cloud-download-copy" sketch:type="MSLayerGroup" transform="translate(21.000000, 86.000000)" fill="#1D77EF">
            <g id="Group" sketch:type="MSShapeGroup">
                <path d="M14.185625,11.54875 C13.941875,11.305 13.545625,11.305 13.301875,11.54875 L11.25,13.5 L11.2375,7.875 C11.2375,7.53 10.9575,7.25 10.6125,7.25 C10.2675,7.25 10,7.555625 10,7.875 L10,13.5 L7.935625,11.54875 C7.8175,11.43125 7.660625,11.365625 7.49375,11.365625 C7.326875,11.365625 7.17,11.430625 7.051875,11.54875 C6.815,11.78625 6.816875,12.19625 7.051875,12.431875 L10.61875,16 L14.185625,12.4325 C14.42125,12.19625 14.4225,11.78625 14.185625,11.54875 L14.185625,11.54875 Z" id="Shape"></path>
                <path d="M16.484375,5.76875 C16.484375,2.5875 13.86,0 10.634375,0 C7.828125,0 5.46875,1.951875 4.9275,4.62625 C2.18125,4.796875 0,7.05625 0,9.8075 C0,12.670625 2.36,15 5.261875,15 L7.85125,15 L6.60125,13.75 L5.261875,13.75 C3.05,13.75 1.25,11.98125 1.25,9.8075 C1.25,7.63625 3.045625,5.869375 5.278125,5.869375 C5.33625,5.87625 5.38625,5.8825 5.4375,5.884375 L6.025,5.908125 L6.084375,5.3225 C6.319375,3.00125 8.275625,1.25 10.634375,1.25 C13.17125,1.25 15.234375,3.2775 15.234375,5.76875 C15.234375,5.925 15.21125,6.075 15.189375,6.225 L15.08625,6.98875 L15.719375,7.06125 C17.4475,7.259375 18.750625,8.688125 18.750625,10.384375 C18.75,12.24 17.211875,13.75 15.321875,13.75 L14.636875,13.75 L13.386875,15 L15.321875,15 C17.901875,15 20,12.93 20,10.385 C20,8.26125 18.525,6.444375 16.479375,5.931875 C16.4825,5.87875 16.484375,5.824375 16.484375,5.76875 Z" id="Shape"></path>
            </g>
        </g>
        <g id="cloud-download-copy-2" sketch:type="MSLayerGroup" transform="translate(42.000000, 86.000000)" fill="#185CB7">
            <g id="Group" sketch:type="MSShapeGroup">
                <path d="M14.185625,11.54875 C13.941875,11.305 13.545625,11.305 13.301875,11.54875 L11.25,13.5 L11.2375,7.875 C11.2375,7.53 10.9575,7.25 10.6125,7.25 C10.2675,7.25 10,7.555625 10,7.875 L10,13.5 L7.935625,11.54875 C7.8175,11.43125 7.660625,11.365625 7.49375,11.365625 C7.326875,11.365625 7.17,11.430625 7.051875,11.54875 C6.815,11.78625 6.816875,12.19625 7.051875,12.431875 L10.61875,16 L14.185625,12.4325 C14.42125,12.19625 14.4225,11.78625 14.185625,11.54875 L14.185625,11.54875 Z" id="Shape"></path>
                <path d="M16.484375,5.76875 C16.484375,2.5875 13.86,0 10.634375,0 C7.828125,0 5.46875,1.951875 4.9275,4.62625 C2.18125,4.796875 0,7.05625 0,9.8075 C0,12.670625 2.36,15 5.261875,15 L7.85125,15 L6.60125,13.75 L5.261875,13.75 C3.05,13.75 1.25,11.98125 1.25,9.8075 C1.25,7.63625 3.045625,5.869375 5.278125,5.869375 C5.33625,5.87625 5.38625,5.8825 5.4375,5.884375 L6.025,5.908125 L6.084375,5.3225 C6.319375,3.00125 8.275625,1.25 10.634375,1.25 C13.17125,1.25 15.234375,3.2775 15.234375,5.76875 C15.234375,5.925 15.21125,6.075 15.189375,6.225 L15.08625,6.98875 L15.719375,7.06125 C17.4475,7.259375 18.750625,8.688125 18.750625,10.384375 C18.75,12.24 17.211875,13.75 15.321875,13.75 L14.636875,13.75 L13.386875,15 L15.321875,15 C17.901875,15 20,12.93 20,10.385 C20,8.26125 18.525,6.444375 16.479375,5.931875 C16.4825,5.87875 16.484375,5.824375 16.484375,5.76875 Z" id="Shape"></path>
            </g>
        </g>
    </g>
</svg>