<?xml version="1.0" encoding="UTF-8" standalone="no"?>
<svg width="137px" height="365px" viewBox="0 0 137 365" version="1.1" xmlns="http://www.w3.org/2000/svg" xmlns:xlink="http://www.w3.org/1999/xlink" xmlns:sketch="http://www.bohemiancoding.com/sketch/ns">
    <title>tech-outline</title>
    <description>Created with Sketch (http://www.bohemiancoding.com/sketch)</description>
    <defs></defs>
    <g id="Page-1" stroke="none" stroke-width="1" fill="none" fill-rule="evenodd" sketch:type="MSPage">
        <g id="cloud-+-code-+-share-+-users-+-sync" sketch:type="MSLayerGroup" transform="translate(1.000000, 1.000000)" stroke="#34495E">
            <g id="cloud-+-code-+-share" sketch:type="MSShapeGroup">
                <g id="cloud">
                    <path d="M31.0741071,35.8481424 C13.8519643,35.8481424 0,49.5549277 0,66.4046702 C0,83.2738137 13.8857143,97 30.94875,97 L108.554464,97 C123.134464,97 135,85.2818141 135,70.8862943 C135,57.7227361 124.947321,46.6350818 111.616071,45.0975549 L106.731964,44.5349267 L107.5275,38.6079304 C107.69625,37.439022 107.874643,36.279814 107.874643,35.0672534 C107.874643,15.7293365 91.9542857,0 72.3889286,0 C54.1976786,0 39.1066071,13.5903795 37.29375,31.6090305 L36.8357143,36.1537077 L32.3035714,35.9645482 C31.9082143,35.9499975 31.5225,35.9014951 31.1367857,35.8481424 L31.0741071,35.8481424 L31.0741071,35.8481424 Z" id="Shape"></path>
                </g>
                <g id="code" transform="translate(24.000000, 136.000000)">
                    <g id="Group">
                        <path d="M54.2872721,0.0666728633 C52.4580964,-0.297700682 50.6829186,0.868294663 50.3150585,2.6636625 L30.0658814,102.038266 C29.7013962,103.833634 30.885973,105.576002 32.7117738,105.937063 C32.9378896,105.980125 33.1606306,106 33.3799967,106 C34.9560576,106 36.3667503,104.910192 36.6839874,103.336761 L56.9331646,3.96215731 C57.3010246,2.17010197 56.1130729,0.424421435 54.2872721,0.0666728633 L54.2872721,0.0666728633 Z" id="Shape"></path>
                        <path d="M24.011328,71.04775 C23.3505276,71.6815 22.4874414,72 21.6277266,72 C20.7680119,72 19.9015542,71.6815 19.2441253,71.04775 L0,52.5 L19.2407539,33.95225 C19.9015542,33.3185 20.7646404,33 21.6277266,33 C22.4908129,33 23.3538991,33.3185 24.011328,33.95225 C25.3295573,35.223 25.3295573,37.277 24.011328,38.54775 L9.53777688,52.5 L24.011328,66.45225 C25.3261859,67.723 25.3261859,69.777 24.011328,71.04775 L24.011328,71.04775 Z" id="Shape"></path>
                        <path d="M67.7558747,71.04775 C67.0984458,71.6815 66.2353596,72 65.3722734,72 C64.5091871,72 63.6461009,71.6815 62.988672,71.04775 C61.6704427,69.777 61.6704427,67.723 62.988672,66.45225 L77.4622231,52.5 L62.988672,38.54775 C61.6704427,37.277 61.6704427,35.223 62.988672,33.95225 C63.6494724,33.3185 64.5125586,33 65.3722734,33 C66.2319881,33 67.0984458,33.3185 67.7558747,33.95225 L87,52.5 L67.7558747,71.04775 L67.7558747,71.04775 Z" id="Shape"></path>
                    </g>
                </g>
            </g>
            <g id="users-+-sync" transform="translate(26.000000, 275.000000)" sketch:type="MSShapeGroup">
                <g id="users">
                    <g id="Group">
                        <path d="M24,39 C30.05,39 35,34.2744615 35,28.5 L35,21.5 C35,15.7255385 30.05,11 24,11 C17.95,11 13,15.7255385 13,21.5 L13,28.5 C13,34.2744615 17.95,39 24,39 L24,39 Z M17,21.0694444 C17,17.7233333 19.9163333,15 23.5,15 C27.0836667,15 30,17.7233333 30,21.0694444 L30,27.9305556 C30,31.2766667 27.0836667,34 23.5,34 C19.9163333,34 17,31.2766667 17,27.9305556 L17,21.0694444 L17,21.0694444 Z" id="Shape"></path>
                        <path d="M50,28 C56.05,28 61,23.2744615 61,17.5 L61,10.5 C61,4.72553846 56.05,0 50,0 C43.95,0 39,4.72553846 39,10.5 L39,17.5 C39,23.2744615 43.95,28 50,28 L50,28 Z M43,10.0694444 C43,6.72333333 45.9163333,4 49.5,4 C53.0836667,4 56,6.72333333 56,10.0694444 L56,16.9305556 C56,20.2766667 53.0836667,23 49.5,23 C45.9163333,23 43,20.2766667 43,16.9305556 L43,10.0694444 L43,10.0694444 Z" id="Shape"></path>
                        <path d="M49.59375,32 C41.305125,32 34.2110625,37.069 31.4424375,44.1338235 C29.0145,43.3372353 26.4226875,42.8823529 23.71875,42.8823529 C10.6712812,42.8823529 0,52.9572353 0,65.2695294 C0,67.3219412 1.77675,69 3.958875,69 L43.48725,69 C45.652125,69 47.4375,67.3219412 47.4375,65.2695294 C47.4375,61.0645882 46.169625,57.1360588 44.0090625,53.7647059 L65.7677812,53.7647059 C67.5402187,53.7647059 69,52.3652353 69,50.6567059 C69,40.3946471 60.262875,32 49.59375,32 L49.59375,32 Z M4,64 C4.35553085,54.571375 12.9663146,47 23.5,47 C34.0336854,47 42.6444691,54.571375 43,64 L4,64 L4,64 Z M39.9610332,49 C38.4864207,47.6133333 36.8127675,46.4216667 35,45.438 L35.038524,45.3405 C37.2194096,39.7548333 42.8610332,36 49.0740959,36 C56.8966052,36 63.3365314,41.7265 64,49 L39.9610332,49 L39.9610332,49 Z" id="Shape"></path>
                    </g>
                </g>
                <g id="sync" transform="translate(55.000000, 60.000000)">
                    <g id="Layer_3">
                        <g id="Group">
                            <path d="M1.419,10.385 C1.607,10.463 1.803,10.5 1.995,10.5 C2.583,10.5 3.141,10.153 3.381,9.577 C5.174,5.278 9.343,2.5 14,2.5 C17.855,2.5 21.371,4.407 23.486,7.5 L21,7.5 C20.172,7.5 19.5,8.172 19.5,9 C19.5,9.828 20.172,10.5 21,10.5 L28.5,10.5 L28.5,3 C28.5,2.172 27.828,1.5 27,1.5 C26.172,1.5 25.5,2.172 25.5,3 L25.5,5.174 C22.8,1.648 18.592,-0.5 14,-0.5 C8.128,-0.5 2.873,3.002 0.611,8.423 C0.293,9.188 0.654,10.065 1.419,10.385 L1.419,10.385 Z" id="Shape"></path>
                            <path d="M27.577,17.615 C26.812,17.299 25.933,17.659 25.615,18.423 C23.823,22.722 19.654,25.5 14.996,25.5 C11.141,25.5 7.625,23.593 5.51,20.5 L7.996,20.5 C8.824,20.5 9.496,19.828 9.496,19 C9.496,18.172 8.824,17.5 7.996,17.5 L0.496,17.5 L0.496,25 C0.496,25.828 1.168,26.5 1.996,26.5 C2.824,26.5 3.496,25.828 3.496,25 L3.496,22.826 C6.196,26.352 10.404,28.5 14.996,28.5 C20.869,28.5 26.124,24.998 28.385,19.577 C28.703,18.812 28.342,17.935 27.577,17.615 L27.577,17.615 Z" id="Shape"></path>
                        </g>
                    </g>
                </g>
            </g>
        </g>
    </g>
</svg>