<?xml version="1.0" encoding="UTF-8" standalone="no"?>
<svg width="147px" height="104px" viewBox="0 0 147 104" version="1.1" xmlns="http://www.w3.org/2000/svg" xmlns:xlink="http://www.w3.org/1999/xlink" xmlns:sketch="http://www.bohemiancoding.com/sketch/ns">
    <!-- Generator: Sketch 3.0.4 (8053) - http://www.bohemiancoding.com/sketch -->
    <title>speedometer</title>
    <desc>Created with Sketch.</desc>
    <defs></defs>
    <g id="Page-1" stroke="none" stroke-width="1" fill="none" fill-rule="evenodd" sketch:type="MSPage">
        <g id="speedometer" sketch:type="MSArtboardGroup">
            <g id="Speedometer" sketch:type="MSLayerGroup" transform="translate(2.000000, 2.000000)">
                <path d="M78.5270581,68.4236625 C80.6537526,70.2574753 82,72.9715212 82,76 C82,81.5228475 77.5228475,86 72,86 C66.4771525,86 62,81.5228475 62,76 C62,70.4771525 66.4771525,66 72,66 C74.4943687,66 76.7754328,66.9132655 78.5270581,68.4236625 L104.58961,38.4421267 L78.5270581,68.4236625 Z" id="Oval-3" stroke="#00ACC1" sketch:type="MSShapeGroup"></path>
                <path d="M71.5,0 C50.8319279,0 33.4225968,7.62641183 19.2714844,22.8794643 C6.42376389,36.6444141 0,52.8272879 0,71.4285714 L0,97.65625 C0.372397695,99.1443527 1.21027994,99.9813979 2.51367188,100.167411 L140.486328,100.167411 C141.975919,99.795385 142.813801,98.9583398 143,97.65625 L143,71.4285714 C143,50.7811468 135.365962,33.3892076 120.097656,19.2522321 C106.318942,6.41734654 90.1198848,0 71.5,0 L71.5,0 Z" id="Path" stroke="#424242" sketch:type="MSShapeGroup"></path>
                <path d="M71.5,12.5 L71.5,28.5" id="Line" stroke="#979797" stroke-linecap="square" sketch:type="MSShapeGroup"></path>
                <path d="M94.1396484,17.0356446 L88.0170898,31.8022462" id="Line-2" stroke="#D01716" stroke-linecap="square" sketch:type="MSShapeGroup"></path>
                <path d="M111.15332,55.3413086 L126.512207,48.690918" id="Path-42" stroke="#D01716" sketch:type="MSShapeGroup"></path>
                <path d="M114.486328,74.6855469 L130.939941,74.6855469" id="Path-43" sketch:type="MSShapeGroup"></path>
                <path d="M48.6323242,16.9658203 L54.8701172,31.840332" id="Path-44" stroke="#979797" sketch:type="MSShapeGroup"></path>
                <path d="M29.4907227,29.7124023 L41.0166016,40.9501953" id="Path-45" stroke="#979797" sketch:type="MSShapeGroup"></path>
                <path d="M16.5688477,48.7270508 L31.8671875,55.1279297" id="Path-46" stroke="#979797" sketch:type="MSShapeGroup"></path>
                <path d="M12.4628906,74.8144531 L28.4718581,74.8144531" id="Path-47" stroke="#979797" sketch:type="MSShapeGroup"></path>
                <path d="M112.462891,74.8144531 L128.471858,74.8144531" id="Path-48" stroke="#D01716" sketch:type="MSShapeGroup"></path>
            </g>
        </g>
    </g>
</svg>