<?xml version="1.0" encoding="utf-8"?>
<!-- Generator: Adobe Illustrator 17.0.0, SVG Export Plug-In . SVG Version: 6.00 Build 0)  -->
<!DOCTYPE svg PUBLIC "-//W3C//DTD SVG 1.1//EN" "http://www.w3.org/Graphics/SVG/1.1/DTD/svg11.dtd">
<svg version="1.1" xmlns="http://www.w3.org/2000/svg" xmlns:xlink="http://www.w3.org/1999/xlink" x="0px" y="0px" width="32px"
	 height="32px" viewBox="0 0 32 32" enable-background="new 0 0 32 32" xml:space="preserve">
<g id="Layer_3">
	<g>
		<g>
			<path d="M4,7h24c0.55,0,1,0.45,1,1s-0.45,1-1,1H4C3.45,9,3,8.55,3,8S3.45,7,4,7z"/>
		</g>
		<g>
			<path d="M28,17H4c-0.55,0-1-0.45-1-1s0.45-1,1-1h24c0.55,0,1,0.45,1,1S28.55,17,28,17z"/>
		</g>
		<g>
			<path d="M28,25H4c-0.55,0-1-0.45-1-1s0.45-1,1-1h24c0.55,0,1,0.45,1,1S28.55,25,28,25z"/>
		</g>
	</g>
</g>
<g id="nyt_x5F_exporter_x5F_info" display="none">
</g>
</svg>
