<?xml version="1.0" encoding="UTF-8" standalone="no"?>
<svg width="210px" height="160px" viewBox="0 0 210 160" version="1.1" xmlns="http://www.w3.org/2000/svg" xmlns:xlink="http://www.w3.org/1999/xlink" xmlns:sketch="http://www.bohemiancoding.com/sketch/ns">
    <!-- Generator: Sketch 3.0.2 (7799) - http://www.bohemiancoding.com/sketch -->
    <title>pub-full-logo</title>
    <description>Created with Sketch.</description>
    <defs></defs>
    <g id="Page-1" stroke="none" stroke-width="1" fill="none" fill-rule="evenodd" sketch:type="MSPage">
        <g id="pub-full-logo" sketch:type="MSArtboardGroup">
            <g id="Rectangle-2-+-Rectangle-2-+-Rectangle-2-copy-+-PUBLICATIONS" sketch:type="MSLayerGroup" transform="translate(1.000000, 3.000000)">
                <g id="Rectangle-2-+-Rectangle-2-+-Rectangle-2-copy" transform="translate(46.818655, 0.000000)" stroke="#434A54" sketch:type="MSShapeGroup">
                    <path d="M13.8093403,102.86828 L19.286953,102.86828 L115.998459,5.75658269 L111.156887,0.926741266 L13.8093403,97.7810044 L13.8093403,102.86828 Z" id="Rectangle-2"></path>
                    <path d="M0,32.4174095 L0,13.901119 L102.189118,13.901119 L102.189118,116.769399 L83.795077,116.769399 L83.795077,32.4174095 L0,32.4174095 Z" id="Rectangle-2"></path>
                    <path d="M13.8093403,18.5162905 L13.8093403,0 L115.998459,0 L115.998459,102.86828 L97.6044173,102.86828 L97.6044173,18.5162905 L13.8093403,18.5162905 Z" id="Rectangle-2-copy" transform="translate(64.903899, 51.434140) rotate(-180.000000) translate(-64.903899, -51.434140) "></path>
                </g>
                <path d="M1.05280543,154.338685 L1.05280543,144.321432 L7.59993921,144.321432 C11.6137599,144.321432 14.0154723,141.305858 14.0154723,137.770357 C14.0154723,134.234856 11.6795603,131.219281 7.59993921,131.219281 L0,131.219281 L0,154.338685 L1.05280543,154.338685 Z M7.56703905,143.281579 L1.05280543,143.281579 L1.05280543,132.259135 L7.56703905,132.259135 C10.7912557,132.259135 12.8639664,134.581473 12.8639664,137.770357 C12.8639664,140.95924 10.7912557,143.281579 7.56703905,143.281579 Z M26.1103972,154.754626 C31.4402247,154.754626 34.2696393,151.288448 34.2696393,145.569256 L34.2696393,131.219281 L33.2168338,131.219281 L33.2168338,145.569256 C33.2168338,150.699198 30.7164209,153.714773 26.1103972,153.714773 C21.5043734,153.714773 19.0039605,150.699198 19.0039605,145.569256 L19.0039605,131.219281 L17.9511551,131.219281 L17.9511551,145.569256 C17.9511551,151.253787 20.7805697,154.754626 26.1103972,154.754626 Z M48.1411733,154.338685 C51.9904932,154.338685 54.4251057,152.051007 54.4251057,148.099565 C54.4251057,145.430609 52.4510955,142.796314 50.1151835,142.415034 C52.0562935,141.999093 53.9974035,140.023372 53.9974035,137.111783 C53.9974035,133.298988 51.5298908,131.219281 48.0095726,131.219281 L39.75163,131.219281 L39.75163,154.338685 L48.1411733,154.338685 Z M48.0095726,141.929769 L40.8044354,141.929769 L40.8044354,132.259135 L48.0095726,132.259135 C51.2337892,132.259135 52.8458976,134.477488 52.8458976,137.111783 C52.8458976,139.780739 51.2337892,141.929769 48.0095726,141.929769 Z M48.1411733,153.298831 L40.8044354,153.298831 L40.8044354,142.969623 L48.1411733,142.969623 C51.5627909,142.969623 53.2735998,145.499932 53.2735998,148.134227 C53.2735998,151.288448 51.3653899,153.298831 48.1411733,153.298831 Z M71.257655,154.338685 L71.257655,153.298831 L60.2360981,153.298831 L60.2360981,131.219281 L59.1832927,131.219281 L59.1832927,154.338685 L71.257655,154.338685 Z M76.3448437,154.338685 L76.3448437,131.219281 L75.2920383,131.219281 L75.2920383,154.338685 L76.3448437,154.338685 Z M92.0258871,154.754626 C95.118503,154.754626 97.6189159,153.541464 99.6916266,151.080478 L98.8362222,150.352581 C97.2899142,152.397625 94.7566012,153.714773 92.0258871,153.714773 C86.5315587,153.714773 82.2216365,149.243404 82.2216365,142.796314 C82.2216365,136.2799 86.5315587,131.877855 92.0258871,131.877855 C94.7566012,131.877855 97.2899142,133.195002 98.8362222,135.240047 L99.6587264,134.477488 C97.7176164,132.120487 95.118503,130.838002 92.0258871,130.838002 C85.9393557,130.838002 81.0701305,135.69065 81.0701305,142.796314 C81.0701305,149.901977 85.9393557,154.754626 92.0258871,154.754626 Z M120.801198,154.338685 L111.654951,131.219281 L110.404744,131.219281 L101.258497,154.338685 L102.475803,154.338685 L104.910416,148.134227 L117.149279,148.134227 L119.583892,154.338685 L120.801198,154.338685 Z M116.754477,147.094374 L105.305218,147.094374 L111.029848,132.501767 L116.754477,147.094374 Z M128.586201,154.338685 L128.586201,132.259135 L136.021639,132.259135 L136.021639,131.219281 L120.130857,131.219281 L120.130857,132.259135 L127.533395,132.259135 L127.533395,154.338685 L128.586201,154.338685 Z M140.911427,154.338685 L140.911427,131.219281 L139.858621,131.219281 L139.858621,154.338685 L140.911427,154.338685 Z M156.066067,154.754626 C162.4158,154.754626 166.495421,149.486036 166.495421,142.796314 C166.495421,136.106591 162.4158,130.838002 156.066067,130.838002 C149.683434,130.838002 145.636713,136.106591 145.636713,142.796314 C145.636713,149.486036 149.683434,154.754626 156.066067,154.754626 Z M156.066067,153.714773 C150.374338,153.714773 146.788219,149.070095 146.788219,142.796314 C146.788219,136.453209 150.374338,131.877855 156.066067,131.877855 C161.691996,131.877855 165.343915,136.453209 165.343915,142.796314 C165.343915,149.070095 161.691996,153.714773 156.066067,153.714773 Z M188.131395,154.338685 L188.131395,131.219281 L187.07859,131.219281 L187.07859,152.328302 L172.273513,131.219281 L171.220708,131.219281 L171.220708,154.338685 L172.273513,154.338685 L172.273513,133.021694 L187.07859,154.338685 L188.131395,154.338685 Z M200.12762,154.754626 C206.04965,154.754626 207.628858,151.080478 207.628858,148.480845 C207.628858,139.850063 194.304289,143.31624 194.304289,136.730503 C194.304289,133.888238 196.837603,131.877855 200.028919,131.877855 C202.562232,131.877855 204.766543,132.779061 206.312851,134.893429 L207.135356,134.096209 C205.589048,132.085826 203.253136,130.838002 200.028919,130.838002 C196.4099,130.838002 193.152784,132.987032 193.152784,136.730503 C193.152784,144.633388 206.477352,140.855254 206.477352,148.480845 C206.477352,150.664537 205.194246,153.714773 200.12762,153.714773 C196.969203,153.714773 194.666191,152.016346 193.317284,150.283257 L192.46188,151.080478 C194.041088,153.194846 196.706002,154.754626 200.12762,154.754626 L200.12762,154.754626 Z" id="PUBLICATIONS" fill="#434A54" sketch:type="MSShapeGroup"></path>
            </g>
        </g>
    </g>
</svg>