<?xml version="1.0" encoding="UTF-8" standalone="no"?>
<svg width="450px" height="320px" viewBox="0 0 450 320" version="1.1" xmlns="http://www.w3.org/2000/svg" xmlns:xlink="http://www.w3.org/1999/xlink" xmlns:sketch="http://www.bohemiancoding.com/sketch/ns">
    <!-- Generator: Sketch 3.0.2 (7799) - http://www.bohemiancoding.com/sketch -->
    <title>Artboard 8</title>
    <description>Created with Sketch.</description>
    <defs></defs>
    <g id="Page-1" stroke="none" stroke-width="1" fill="none" fill-rule="evenodd" sketch:type="MSPage">
        <g id="Artboard-8" sketch:type="MSArtboardGroup">
            <g id="Rectangle-2-+-Rectangle-2-+-Rectangle-2-copy-+-Publications" sketch:type="MSLayerGroup" transform="translate(-18.000000, -37.000000)"></g>
            <g id="Rectangle-2-+-Rectangle-2-+-Rectangle-2-copy-+-PUBLICATIONS-+-a-web-app-for-beauti" sketch:type="MSLayerGroup" transform="translate(2.000000, 5.000000)">
                <g id="Rectangle-2-+-Rectangle-2-+-Rectangle-2-copy" transform="translate(113.000000, 0.000000)" stroke="#FFFFFF" sketch:type="MSShapeGroup">
                    <path d="M26.1904762,193.809524 L36.57919,193.809524 L220,10.8457198 L210.817587,1.74603175 L26.1904762,184.224815 L26.1904762,193.809524 Z" id="Rectangle-2"></path>
                    <path d="M0,61.0761905 L0,26.1904762 L193.809524,26.1904762 L193.809524,220 L158.92381,220 L158.92381,61.0761905 L0,61.0761905 Z" id="Rectangle-2"></path>
                    <path d="M26.1904762,34.8857143 L26.1904762,0 L220,0 L220,193.809524 L185.114286,193.809524 L185.114286,34.8857143 L26.1904762,34.8857143 Z" id="Rectangle-2-copy" transform="translate(123.095238, 96.904762) rotate(-180.000000) translate(-123.095238, -96.904762) "></path>
                </g>
                <path d="M74.5066209,270.440696 L74.5066209,256.200116 L83.8759196,256.200116 C89.6199118,256.200116 93.0568907,251.913159 93.0568907,246.887072 C93.0568907,241.860986 89.7140756,237.574029 83.8759196,237.574029 L73,237.574029 L73,270.440696 L74.5066209,270.440696 Z M83.8288377,254.721855 L74.5066209,254.721855 L74.5066209,239.05229 L83.8288377,239.05229 C88.4428642,239.05229 91.4090241,242.353739 91.4090241,246.887072 C91.4090241,251.420406 88.4428642,254.721855 83.8288377,254.721855 Z M110.365375,271.032 C117.992644,271.032 122.041687,266.104464 122.041687,257.974029 L122.041687,237.574029 L120.535066,237.574029 L120.535066,257.974029 C120.535066,265.266783 116.956842,269.553739 110.365375,269.553739 C103.773909,269.553739 100.195684,265.266783 100.195684,257.974029 L100.195684,237.574029 L98.6890633,237.574029 L98.6890633,257.974029 C98.6890633,266.055188 102.738107,271.032 110.365375,271.032 Z M141.892594,270.440696 C147.401177,270.440696 150.885238,267.188522 150.885238,261.57113 C150.885238,257.776928 148.060324,254.032 144.717509,253.489971 C147.495341,252.898667 150.273173,250.089971 150.273173,245.950841 C150.273173,240.530551 146.74203,237.574029 141.704267,237.574029 L129.886709,237.574029 L129.886709,270.440696 L141.892594,270.440696 Z M141.704267,252.800116 L131.39333,252.800116 L131.39333,239.05229 L141.704267,239.05229 C146.318293,239.05229 148.625307,242.205913 148.625307,245.950841 C148.625307,249.745043 146.318293,252.800116 141.704267,252.800116 Z M141.892594,268.962435 L131.39333,268.962435 L131.39333,254.278377 L141.892594,254.278377 C146.789112,254.278377 149.237371,257.875478 149.237371,261.620406 C149.237371,266.104464 146.506621,268.962435 141.892594,268.962435 Z M174.973516,270.440696 L174.973516,268.962435 L159.201079,268.962435 L159.201079,237.574029 L157.694458,237.574029 L157.694458,270.440696 L174.973516,270.440696 Z M182.253556,270.440696 L182.253556,237.574029 L180.746935,237.574029 L180.746935,270.440696 L182.253556,270.440696 Z M204.693968,271.032 C209.119667,271.032 212.697891,269.307362 215.664051,265.808812 L214.439922,264.774029 C212.227072,267.681275 208.601766,269.553739 204.693968,269.553739 C196.83129,269.553739 190.663561,263.197217 190.663561,254.032 C190.663561,244.768232 196.83129,238.510261 204.693968,238.510261 C208.601766,238.510261 212.227072,240.382725 214.439922,243.289971 L215.616969,242.205913 C212.839137,238.855188 209.119667,237.032 204.693968,237.032 C195.983816,237.032 189.015694,243.930551 189.015694,254.032 C189.015694,264.133449 195.983816,271.032 204.693968,271.032 Z M245.872977,270.440696 L232.784208,237.574029 L230.995096,237.574029 L217.906327,270.440696 L219.648357,270.440696 L223.132418,261.620406 L240.646886,261.620406 L244.130947,270.440696 L245.872977,270.440696 Z M240.081903,260.142145 L223.697401,260.142145 L231.889652,239.397217 L240.081903,260.142145 Z M257.013732,270.440696 L257.013732,239.05229 L267.654242,239.05229 L267.654242,237.574029 L244.913683,237.574029 L244.913683,239.05229 L255.507111,239.05229 L255.507111,270.440696 L257.013732,270.440696 Z M274.65179,270.440696 L274.65179,237.574029 L273.145169,237.574029 L273.145169,270.440696 L274.65179,270.440696 Z M296.338892,271.032 C305.425699,271.032 311.263855,263.542145 311.263855,254.032 C311.263855,244.521855 305.425699,237.032 296.338892,237.032 C287.205002,237.032 281.413928,244.521855 281.413928,254.032 C281.413928,263.542145 287.205002,271.032 296.338892,271.032 Z M296.338892,269.553739 C288.193722,269.553739 283.061795,262.950841 283.061795,254.032 C283.061795,245.014609 288.193722,238.510261 296.338892,238.510261 C304.389897,238.510261 309.615988,245.014609 309.615988,254.032 C309.615988,262.950841 304.389897,269.553739 296.338892,269.553739 Z M342.226091,270.440696 L342.226091,237.574029 L340.71947,237.574029 L340.71947,267.582725 L319.532614,237.574029 L318.025993,237.574029 L318.025993,270.440696 L319.532614,270.440696 L319.532614,240.136348 L340.71947,270.440696 L342.226091,270.440696 Z M359.39333,271.032 C367.868073,271.032 370.128004,265.808812 370.128004,262.113159 C370.128004,249.843594 351.059833,254.77113 351.059833,245.408812 C351.059833,241.368232 354.68514,238.510261 359.252084,238.510261 C362.877391,238.510261 366.031878,239.79142 368.244728,242.797217 L369.421775,241.663884 C367.208926,238.805913 363.866111,237.032 359.252084,237.032 C354.073075,237.032 349.411967,240.087072 349.411967,245.408812 C349.411967,256.643594 368.480137,251.27258 368.480137,262.113159 C368.480137,265.217507 366.643943,269.553739 359.39333,269.553739 C354.873467,269.553739 351.577734,267.139246 349.647376,264.675478 L348.423247,265.808812 C350.683178,268.814609 354.496812,271.032 359.39333,271.032 L359.39333,271.032 Z" id="PUBLICATIONS" fill="#FFFFFF" sketch:type="MSShapeGroup"></path>
                <path d="M8.37222134,306.064 L8.37222134,299.424 C8.37222134,297.084 6.67222134,296.164 4.63222134,296.164 C3.05222134,296.164 1.81222134,296.684 0.772221345,297.764 L1.47222134,298.804 C2.33222134,297.884 3.27222134,297.464 4.43222134,297.464 C5.83222134,297.464 6.87222134,298.204 6.87222134,299.504 L6.87222134,301.244 C6.09222134,300.344 4.99222134,299.924 3.67222134,299.924 C2.03222134,299.924 0.292221345,300.944 0.292221345,303.104 C0.292221345,305.204 2.03222134,306.304 3.67222134,306.304 C4.97222134,306.304 6.07222134,305.844 6.87222134,304.964 L6.87222134,306.064 L8.37222134,306.064 Z M4.21222134,305.224 C2.81222134,305.224 1.83222134,304.344 1.83222134,303.124 C1.83222134,301.884 2.81222134,301.004 4.21222134,301.004 C5.27222134,301.004 6.29222134,301.404 6.87222134,302.204 L6.87222134,304.024 C6.29222134,304.824 5.27222134,305.224 4.21222134,305.224 L4.21222134,305.224 Z M25.2811103,306.064 L28.3611103,296.404 L26.8011103,296.404 L24.4411103,304.104 L21.9011103,296.404 L20.6211103,296.404 L18.0811103,304.104 L15.7211103,296.404 L14.1611103,296.404 L17.2411103,306.064 L18.7411103,306.064 L21.2611103,298.304 L23.7811103,306.064 L25.2811103,306.064 Z M33.9055548,306.304 C35.4855548,306.304 36.7855548,305.784 37.7455548,304.824 L37.0255548,303.844 C36.2655548,304.624 35.1455548,305.064 34.0455548,305.064 C31.9655548,305.064 30.6855548,303.544 30.5655548,301.724 L38.3855548,301.724 L38.3855548,301.344 C38.3855548,298.444 36.6655548,296.164 33.7455548,296.164 C30.9855548,296.164 28.9855548,298.424 28.9855548,301.224 C28.9855548,304.244 31.0455548,306.304 33.9055548,306.304 L33.9055548,306.304 Z M36.9055548,300.624 L30.5655548,300.624 C30.6455548,299.144 31.6655548,297.404 33.7255548,297.404 C35.9255548,297.404 36.8855548,299.184 36.9055548,300.624 L36.9055548,300.624 Z M41.7499993,303.444 L41.7499993,299.064 C42.2699993,298.224 43.4499993,297.504 44.6299993,297.504 C46.5899993,297.504 47.7499993,299.104 47.7499993,301.244 C47.7499993,303.384 46.5899993,304.964 44.6299993,304.964 C43.4499993,304.964 42.2699993,304.284 41.7499993,303.444 L41.7499993,303.444 Z M41.7499993,306.064 L41.7499993,304.624 C42.4699993,305.604 43.6499993,306.304 45.0099993,306.304 C47.5299993,306.304 49.3099993,304.384 49.3099993,301.244 C49.3099993,298.164 47.5299993,296.164 45.0099993,296.164 C43.6899993,296.164 42.5299993,296.804 41.7499993,297.864 L41.7499993,292.724 L40.2499993,292.724 L40.2499993,306.064 L41.7499993,306.064 Z M63.3388882,306.064 L63.3388882,299.424 C63.3388882,297.084 61.6388882,296.164 59.5988882,296.164 C58.0188882,296.164 56.7788882,296.684 55.7388882,297.764 L56.4388882,298.804 C57.2988882,297.884 58.2388882,297.464 59.3988882,297.464 C60.7988882,297.464 61.8388882,298.204 61.8388882,299.504 L61.8388882,301.244 C61.0588882,300.344 59.9588882,299.924 58.6388882,299.924 C56.9988882,299.924 55.2588882,300.944 55.2588882,303.104 C55.2588882,305.204 56.9988882,306.304 58.6388882,306.304 C59.9388882,306.304 61.0388882,305.844 61.8388882,304.964 L61.8388882,306.064 L63.3388882,306.064 Z M59.1788882,305.224 C57.7788882,305.224 56.7988882,304.344 56.7988882,303.124 C56.7988882,301.884 57.7788882,301.004 59.1788882,301.004 C60.2388882,301.004 61.2588882,301.404 61.8388882,302.204 L61.8388882,304.024 C61.2588882,304.824 60.2388882,305.224 59.1788882,305.224 L59.1788882,305.224 Z M70.5433327,306.304 C73.0833327,306.304 74.8433327,304.344 74.8433327,301.224 C74.8433327,298.084 73.0833327,296.164 70.5433327,296.164 C69.1833327,296.164 67.9833327,296.864 67.2833327,297.844 L67.2833327,296.404 L65.7833327,296.404 L65.7833327,309.744 L67.2833327,309.744 L67.2833327,304.604 C68.0633327,305.684 69.2233327,306.304 70.5433327,306.304 L70.5433327,306.304 Z M70.1633327,304.964 C68.9833327,304.964 67.8033327,304.244 67.2833327,303.404 L67.2833327,299.044 C67.8033327,298.204 68.9833327,297.504 70.1633327,297.504 C72.1033327,297.504 73.2633327,299.084 73.2633327,301.224 C73.2633327,303.364 72.1033327,304.964 70.1633327,304.964 L70.1633327,304.964 Z M81.4277772,306.304 C83.9677772,306.304 85.7277772,304.344 85.7277772,301.224 C85.7277772,298.084 83.9677772,296.164 81.4277772,296.164 C80.0677772,296.164 78.8677772,296.864 78.1677772,297.844 L78.1677772,296.404 L76.6677772,296.404 L76.6677772,309.744 L78.1677772,309.744 L78.1677772,304.604 C78.9477772,305.684 80.1077772,306.304 81.4277772,306.304 L81.4277772,306.304 Z M81.0477772,304.964 C79.8677772,304.964 78.6877772,304.244 78.1677772,303.404 L78.1677772,299.044 C78.6877772,298.204 79.8677772,297.504 81.0477772,297.504 C82.9877772,297.504 84.1477772,299.084 84.1477772,301.224 C84.1477772,303.364 82.9877772,304.964 81.0477772,304.964 L81.0477772,304.964 Z M94.0766661,306.064 L94.0766661,297.724 L96.0366661,297.724 L96.0366661,296.404 L94.0766661,296.404 L94.0766661,295.664 C94.0766661,294.444 94.6166661,293.764 95.5966661,293.764 C96.0966661,293.764 96.4766661,293.964 96.7966661,294.244 L97.4166661,293.264 C96.8166661,292.704 96.1366661,292.524 95.3766661,292.524 C93.6566661,292.524 92.5766661,293.684 92.5766661,295.664 L92.5766661,296.404 L90.9766661,296.404 L90.9766661,297.724 L92.5766661,297.724 L92.5766661,306.064 L94.0766661,306.064 Z M101.481111,306.304 C104.421111,306.304 106.261111,304.024 106.261111,301.224 C106.261111,298.424 104.421111,296.164 101.481111,296.164 C98.5411106,296.164 96.7011106,298.424 96.7011106,301.224 C96.7011106,304.024 98.5411106,306.304 101.481111,306.304 L101.481111,306.304 Z M101.481111,304.964 C99.4211106,304.964 98.2611106,303.204 98.2611106,301.224 C98.2611106,299.264 99.4211106,297.504 101.481111,297.504 C103.541111,297.504 104.681111,299.264 104.681111,301.224 C104.681111,303.204 103.541111,304.964 101.481111,304.964 L101.481111,304.964 Z M109.645555,306.064 L109.645555,299.224 C110.085555,298.444 111.345555,297.684 112.265555,297.684 C112.505555,297.684 112.685555,297.704 112.865555,297.744 L112.865555,296.204 C111.545555,296.204 110.425555,296.944 109.645555,297.964 L109.645555,296.404 L108.145555,296.404 L108.145555,306.064 L109.645555,306.064 Z M120.294444,303.444 L120.294444,299.064 C120.814444,298.224 121.994444,297.504 123.174444,297.504 C125.134444,297.504 126.294444,299.104 126.294444,301.244 C126.294444,303.384 125.134444,304.964 123.174444,304.964 C121.994444,304.964 120.814444,304.284 120.294444,303.444 L120.294444,303.444 Z M120.294444,306.064 L120.294444,304.624 C121.014444,305.604 122.194444,306.304 123.554444,306.304 C126.074444,306.304 127.854444,304.384 127.854444,301.244 C127.854444,298.164 126.074444,296.164 123.554444,296.164 C122.234444,296.164 121.074444,296.804 120.294444,297.864 L120.294444,292.724 L118.794444,292.724 L118.794444,306.064 L120.294444,306.064 Z M134.098889,306.304 C135.678889,306.304 136.978889,305.784 137.938889,304.824 L137.218889,303.844 C136.458889,304.624 135.338889,305.064 134.238889,305.064 C132.158889,305.064 130.878889,303.544 130.758889,301.724 L138.578889,301.724 L138.578889,301.344 C138.578889,298.444 136.858889,296.164 133.938889,296.164 C131.178889,296.164 129.178889,298.424 129.178889,301.224 C129.178889,304.244 131.238889,306.304 134.098889,306.304 L134.098889,306.304 Z M137.098889,300.624 L130.758889,300.624 C130.838889,299.144 131.858889,297.404 133.918889,297.404 C136.118889,297.404 137.078889,299.184 137.098889,300.624 L137.098889,300.624 Z M147.983333,306.064 L147.983333,299.424 C147.983333,297.084 146.283333,296.164 144.243333,296.164 C142.663333,296.164 141.423333,296.684 140.383333,297.764 L141.083333,298.804 C141.943333,297.884 142.883333,297.464 144.043333,297.464 C145.443333,297.464 146.483333,298.204 146.483333,299.504 L146.483333,301.244 C145.703333,300.344 144.603333,299.924 143.283333,299.924 C141.643333,299.924 139.903333,300.944 139.903333,303.104 C139.903333,305.204 141.643333,306.304 143.283333,306.304 C144.583333,306.304 145.683333,305.844 146.483333,304.964 L146.483333,306.064 L147.983333,306.064 Z M143.823333,305.224 C142.423333,305.224 141.443333,304.344 141.443333,303.124 C141.443333,301.884 142.423333,301.004 143.823333,301.004 C144.883333,301.004 145.903333,301.404 146.483333,302.204 L146.483333,304.024 C145.903333,304.824 144.883333,305.224 143.823333,305.224 L143.823333,305.224 Z M158.447777,306.064 L158.447777,296.404 L156.947777,296.404 L156.947777,303.504 C156.387777,304.284 155.267777,304.964 154.087777,304.964 C152.787777,304.964 151.927777,304.464 151.927777,302.764 L151.927777,296.404 L150.427777,296.404 L150.427777,303.224 C150.427777,305.324 151.487777,306.304 153.507777,306.304 C154.947777,306.304 156.207777,305.544 156.947777,304.704 L156.947777,306.064 L158.447777,306.064 Z M163.332222,306.304 C164.212222,306.304 164.752222,306.044 165.132222,305.684 L164.692222,304.564 C164.492222,304.784 164.092222,304.964 163.672222,304.964 C163.012222,304.964 162.692222,304.444 162.692222,303.724 L162.692222,297.724 L164.652222,297.724 L164.652222,296.404 L162.692222,296.404 L162.692222,293.764 L161.192222,293.764 L161.192222,296.404 L159.592222,296.404 L159.592222,297.724 L161.192222,297.724 L161.192222,304.044 C161.192222,305.484 161.912222,306.304 163.332222,306.304 L163.332222,306.304 Z M166.956666,295.024 C167.516666,295.024 167.976666,294.584 167.976666,294.024 C167.976666,293.464 167.516666,293.004 166.956666,293.004 C166.416666,293.004 165.956666,293.464 165.956666,294.024 C165.956666,294.584 166.416666,295.024 166.956666,295.024 L166.956666,295.024 Z M167.716666,306.064 L167.716666,296.404 L166.216666,296.404 L166.216666,306.064 L167.716666,306.064 Z M172.081111,306.064 L172.081111,297.724 L174.041111,297.724 L174.041111,296.404 L172.081111,296.404 L172.081111,295.664 C172.081111,294.444 172.621111,293.764 173.601111,293.764 C174.101111,293.764 174.481111,293.964 174.801111,294.244 L175.421111,293.264 C174.821111,292.704 174.141111,292.524 173.381111,292.524 C171.661111,292.524 170.581111,293.684 170.581111,295.664 L170.581111,296.404 L168.981111,296.404 L168.981111,297.724 L170.581111,297.724 L170.581111,306.064 L172.081111,306.064 Z M183.285555,306.064 L183.285555,296.404 L181.785555,296.404 L181.785555,303.504 C181.225555,304.284 180.105555,304.964 178.925555,304.964 C177.625555,304.964 176.765555,304.464 176.765555,302.764 L176.765555,296.404 L175.265555,296.404 L175.265555,303.224 C175.265555,305.324 176.325555,306.304 178.345555,306.304 C179.785555,306.304 181.045555,305.544 181.785555,304.704 L181.785555,306.064 L183.285555,306.064 Z M187.23,306.064 L187.23,292.724 L185.73,292.724 L185.73,306.064 L187.23,306.064 Z M199.038889,306.304 C201.578889,306.304 203.338889,304.344 203.338889,301.224 C203.338889,298.084 201.578889,296.164 199.038889,296.164 C197.678889,296.164 196.478889,296.864 195.778889,297.844 L195.778889,296.404 L194.278889,296.404 L194.278889,309.744 L195.778889,309.744 L195.778889,304.604 C196.558889,305.684 197.718889,306.304 199.038889,306.304 L199.038889,306.304 Z M198.658889,304.964 C197.478889,304.964 196.298889,304.244 195.778889,303.404 L195.778889,299.044 C196.298889,298.204 197.478889,297.504 198.658889,297.504 C200.598889,297.504 201.758889,299.084 201.758889,301.224 C201.758889,303.364 200.598889,304.964 198.658889,304.964 L198.658889,304.964 Z M212.703333,306.064 L212.703333,299.424 C212.703333,297.084 211.003333,296.164 208.963333,296.164 C207.383333,296.164 206.143333,296.684 205.103333,297.764 L205.803333,298.804 C206.663333,297.884 207.603333,297.464 208.763333,297.464 C210.163333,297.464 211.203333,298.204 211.203333,299.504 L211.203333,301.244 C210.423333,300.344 209.323333,299.924 208.003333,299.924 C206.363333,299.924 204.623333,300.944 204.623333,303.104 C204.623333,305.204 206.363333,306.304 208.003333,306.304 C209.303333,306.304 210.403333,305.844 211.203333,304.964 L211.203333,306.064 L212.703333,306.064 Z M208.543333,305.224 C207.143333,305.224 206.163333,304.344 206.163333,303.124 C206.163333,301.884 207.143333,301.004 208.543333,301.004 C209.603333,301.004 210.623333,301.404 211.203333,302.204 L211.203333,304.024 C210.623333,304.824 209.603333,305.224 208.543333,305.224 L208.543333,305.224 Z M219.027778,309.984 C221.387778,309.984 223.627778,308.984 223.627778,305.784 L223.627778,296.404 L222.127778,296.404 L222.127778,297.864 C221.347778,296.804 220.187778,296.164 218.887778,296.164 C216.347778,296.164 214.587778,298.084 214.587778,301.184 C214.587778,304.304 216.367778,306.184 218.887778,306.184 C220.247778,306.184 221.427778,305.444 222.127778,304.464 L222.127778,305.844 C222.127778,307.964 220.627778,308.744 219.027778,308.744 C217.647778,308.744 216.687778,308.384 215.887778,307.424 L215.127778,308.544 C216.267778,309.664 217.387778,309.984 219.027778,309.984 L219.027778,309.984 Z M219.247778,304.864 C217.307778,304.864 216.147778,303.304 216.147778,301.184 C216.147778,299.044 217.307778,297.504 219.247778,297.504 C220.447778,297.504 221.607778,298.224 222.127778,299.064 L222.127778,303.284 C221.607778,304.124 220.447778,304.864 219.247778,304.864 L219.247778,304.864 Z M230.432222,306.304 C232.012222,306.304 233.312222,305.784 234.272222,304.824 L233.552222,303.844 C232.792222,304.624 231.672222,305.064 230.572222,305.064 C228.492222,305.064 227.212222,303.544 227.092222,301.724 L234.912222,301.724 L234.912222,301.344 C234.912222,298.444 233.192222,296.164 230.272222,296.164 C227.512222,296.164 225.512222,298.424 225.512222,301.224 C225.512222,304.244 227.572222,306.304 230.432222,306.304 L230.432222,306.304 Z M233.432222,300.624 L227.092222,300.624 C227.172222,299.144 228.192222,297.404 230.252222,297.404 C232.452222,297.404 233.412222,299.184 233.432222,300.624 L233.432222,300.624 Z M242.881111,306.064 L242.881111,292.724 L241.381111,292.724 L241.381111,306.064 L242.881111,306.064 Z M252.865556,306.064 L252.865556,299.424 C252.865556,297.084 251.165556,296.164 249.125556,296.164 C247.545556,296.164 246.305556,296.684 245.265556,297.764 L245.965556,298.804 C246.825556,297.884 247.765556,297.464 248.925556,297.464 C250.325556,297.464 251.365556,298.204 251.365556,299.504 L251.365556,301.244 C250.585556,300.344 249.485556,299.924 248.165556,299.924 C246.525556,299.924 244.785556,300.944 244.785556,303.104 C244.785556,305.204 246.525556,306.304 248.165556,306.304 C249.465556,306.304 250.565556,305.844 251.365556,304.964 L251.365556,306.064 L252.865556,306.064 Z M248.705556,305.224 C247.305556,305.224 246.325556,304.344 246.325556,303.124 C246.325556,301.884 247.305556,301.004 248.705556,301.004 C249.765556,301.004 250.785556,301.404 251.365556,302.204 L251.365556,304.024 C250.785556,304.824 249.765556,305.224 248.705556,305.224 L248.705556,305.224 Z M254.77,309.844 C255.05,309.924 255.55,309.984 255.87,309.984 C257.15,309.964 258.13,309.424 258.71,308.024 L263.55,296.404 L261.91,296.404 L258.71,304.324 L255.49,296.404 L253.87,296.404 L257.91,306.164 L257.27,307.624 C256.93,308.424 256.49,308.644 255.83,308.644 C255.59,308.644 255.23,308.584 255.01,308.484 L254.77,309.844 Z M268.774445,306.304 C271.714445,306.304 273.554445,304.024 273.554445,301.224 C273.554445,298.424 271.714445,296.164 268.774445,296.164 C265.834445,296.164 263.994445,298.424 263.994445,301.224 C263.994445,304.024 265.834445,306.304 268.774445,306.304 L268.774445,306.304 Z M268.774445,304.964 C266.714445,304.964 265.554445,303.204 265.554445,301.224 C265.554445,299.264 266.714445,297.504 268.774445,297.504 C270.834445,297.504 271.974445,299.264 271.974445,301.224 C271.974445,303.204 270.834445,304.964 268.774445,304.964 L268.774445,304.964 Z M283.458889,306.064 L283.458889,296.404 L281.958889,296.404 L281.958889,303.504 C281.398889,304.284 280.278889,304.964 279.098889,304.964 C277.798889,304.964 276.938889,304.464 276.938889,302.764 L276.938889,296.404 L275.438889,296.404 L275.438889,303.224 C275.438889,305.324 276.498889,306.304 278.518889,306.304 C279.958889,306.304 281.218889,305.544 281.958889,304.704 L281.958889,306.064 L283.458889,306.064 Z M288.343334,306.304 C289.223334,306.304 289.763334,306.044 290.143334,305.684 L289.703334,304.564 C289.503334,304.784 289.103334,304.964 288.683334,304.964 C288.023334,304.964 287.703334,304.444 287.703334,303.724 L287.703334,297.724 L289.663334,297.724 L289.663334,296.404 L287.703334,296.404 L287.703334,293.764 L286.203334,293.764 L286.203334,296.404 L284.603334,296.404 L284.603334,297.724 L286.203334,297.724 L286.203334,304.044 C286.203334,305.484 286.923334,306.304 288.343334,306.304 L288.343334,306.304 Z M303.372223,306.064 L303.372223,299.424 C303.372223,297.084 301.672223,296.164 299.632223,296.164 C298.052223,296.164 296.812223,296.684 295.772223,297.764 L296.472223,298.804 C297.332223,297.884 298.272223,297.464 299.432223,297.464 C300.832223,297.464 301.872223,298.204 301.872223,299.504 L301.872223,301.244 C301.092223,300.344 299.992223,299.924 298.672223,299.924 C297.032223,299.924 295.292223,300.944 295.292223,303.104 C295.292223,305.204 297.032223,306.304 298.672223,306.304 C299.972223,306.304 301.072223,305.844 301.872223,304.964 L301.872223,306.064 L303.372223,306.064 Z M299.212223,305.224 C297.812223,305.224 296.832223,304.344 296.832223,303.124 C296.832223,301.884 297.812223,301.004 299.212223,301.004 C300.272223,301.004 301.292223,301.404 301.872223,302.204 L301.872223,304.024 C301.292223,304.824 300.272223,305.224 299.212223,305.224 L299.212223,305.224 Z M313.836667,306.064 L313.836667,299.284 C313.836667,297.184 312.776667,296.164 310.756667,296.164 C309.316667,296.164 307.996667,297.004 307.316667,297.804 L307.316667,296.404 L305.816667,296.404 L305.816667,306.064 L307.316667,306.064 L307.316667,299.004 C307.876667,298.224 308.996667,297.504 310.176667,297.504 C311.476667,297.504 312.336667,298.044 312.336667,299.744 L312.336667,306.064 L313.836667,306.064 Z M324.781111,306.064 L324.781111,292.724 L323.281111,292.724 L323.281111,297.864 C322.501111,296.804 321.321111,296.164 320.021111,296.164 C317.481111,296.164 315.721111,298.164 315.721111,301.244 C315.721111,304.384 317.501111,306.304 320.021111,306.304 C321.381111,306.304 322.561111,305.604 323.281111,304.624 L323.281111,306.064 L324.781111,306.064 Z M320.381111,304.964 C318.441111,304.964 317.281111,303.384 317.281111,301.244 C317.281111,299.104 318.441111,297.504 320.381111,297.504 C321.581111,297.504 322.741111,298.224 323.281111,299.064 L323.281111,303.444 C322.741111,304.284 321.581111,304.964 320.381111,304.964 L320.381111,304.964 Z M334.89,306.304 C337.39,306.304 338.69,305.004 338.69,303.384 C338.69,299.624 332.71,301.024 332.71,298.904 C332.71,298.044 333.53,297.384 334.85,297.384 C336.09,297.384 337.15,297.904 337.73,298.604 L338.43,297.564 C337.65,296.784 336.49,296.164 334.85,296.164 C332.55,296.164 331.25,297.444 331.25,298.944 C331.25,302.524 337.23,301.084 337.23,303.424 C337.23,304.384 336.43,305.084 334.95,305.084 C333.63,305.084 332.41,304.444 331.77,303.704 L330.99,304.784 C331.97,305.824 333.31,306.304 334.89,306.304 L334.89,306.304 Z M344.834445,306.304 C346.594445,306.304 347.634445,305.584 348.374445,304.624 L347.374445,303.704 C346.734445,304.564 345.914445,304.964 344.914445,304.964 C342.854445,304.964 341.574445,303.364 341.574445,301.224 C341.574445,299.084 342.854445,297.504 344.914445,297.504 C345.914445,297.504 346.734445,297.884 347.374445,298.764 L348.374445,297.844 C347.634445,296.884 346.594445,296.164 344.834445,296.164 C341.954445,296.164 340.014445,298.364 340.014445,301.224 C340.014445,304.104 341.954445,306.304 344.834445,306.304 L344.834445,306.304 Z M351.418889,306.064 L351.418889,299.224 C351.858889,298.444 353.118889,297.684 354.038889,297.684 C354.278889,297.684 354.458889,297.704 354.638889,297.744 L354.638889,296.204 C353.318889,296.204 352.198889,296.944 351.418889,297.964 L351.418889,296.404 L349.918889,296.404 L349.918889,306.064 L351.418889,306.064 Z M360.323334,306.304 C361.903334,306.304 363.203334,305.784 364.163334,304.824 L363.443334,303.844 C362.683334,304.624 361.563334,305.064 360.463334,305.064 C358.383334,305.064 357.103334,303.544 356.983334,301.724 L364.803334,301.724 L364.803334,301.344 C364.803334,298.444 363.083334,296.164 360.163334,296.164 C357.403334,296.164 355.403334,298.424 355.403334,301.224 C355.403334,304.244 357.463334,306.304 360.323334,306.304 L360.323334,306.304 Z M363.323334,300.624 L356.983334,300.624 C357.063334,299.144 358.083334,297.404 360.143334,297.404 C362.343334,297.404 363.303334,299.184 363.323334,300.624 L363.323334,300.624 Z M371.027778,306.304 C372.607778,306.304 373.907778,305.784 374.867778,304.824 L374.147778,303.844 C373.387778,304.624 372.267778,305.064 371.167778,305.064 C369.087778,305.064 367.807778,303.544 367.687778,301.724 L375.507778,301.724 L375.507778,301.344 C375.507778,298.444 373.787778,296.164 370.867778,296.164 C368.107778,296.164 366.107778,298.424 366.107778,301.224 C366.107778,304.244 368.167778,306.304 371.027778,306.304 L371.027778,306.304 Z M374.027778,300.624 L367.687778,300.624 C367.767778,299.144 368.787778,297.404 370.847778,297.404 C373.047778,297.404 374.007778,299.184 374.027778,300.624 L374.027778,300.624 Z M385.392223,306.064 L385.392223,299.284 C385.392223,297.184 384.332223,296.164 382.312223,296.164 C380.872223,296.164 379.552223,297.004 378.872223,297.804 L378.872223,296.404 L377.372223,296.404 L377.372223,306.064 L378.872223,306.064 L378.872223,299.004 C379.432223,298.224 380.552223,297.504 381.732223,297.504 C383.032223,297.504 383.892223,298.044 383.892223,299.744 L383.892223,306.064 L385.392223,306.064 Z M400.941112,306.064 L400.941112,292.724 L399.441112,292.724 L399.441112,297.864 C398.661112,296.804 397.481112,296.164 396.181112,296.164 C393.641112,296.164 391.881112,298.164 391.881112,301.244 C391.881112,304.384 393.661112,306.304 396.181112,306.304 C397.541112,306.304 398.721112,305.604 399.441112,304.624 L399.441112,306.064 L400.941112,306.064 Z M396.541112,304.964 C394.601112,304.964 393.441112,303.384 393.441112,301.244 C393.441112,299.104 394.601112,297.504 396.541112,297.504 C397.741112,297.504 398.901112,298.224 399.441112,299.064 L399.441112,303.444 C398.901112,304.284 397.741112,304.964 396.541112,304.964 L396.541112,304.964 Z M407.745556,306.304 C409.325556,306.304 410.625556,305.784 411.585556,304.824 L410.865556,303.844 C410.105556,304.624 408.985556,305.064 407.885556,305.064 C405.805556,305.064 404.525556,303.544 404.405556,301.724 L412.225556,301.724 L412.225556,301.344 C412.225556,298.444 410.505556,296.164 407.585556,296.164 C404.825556,296.164 402.825556,298.424 402.825556,301.224 C402.825556,304.244 404.885556,306.304 407.745556,306.304 L407.745556,306.304 Z M410.745556,300.624 L404.405556,300.624 C404.485556,299.144 405.505556,297.404 407.565556,297.404 C409.765556,297.404 410.725556,299.184 410.745556,300.624 L410.745556,300.624 Z M417.150001,306.304 C419.650001,306.304 420.950001,305.004 420.950001,303.384 C420.950001,299.624 414.970001,301.024 414.970001,298.904 C414.970001,298.044 415.790001,297.384 417.110001,297.384 C418.350001,297.384 419.410001,297.904 419.990001,298.604 L420.690001,297.564 C419.910001,296.784 418.750001,296.164 417.110001,296.164 C414.810001,296.164 413.510001,297.444 413.510001,298.944 C413.510001,302.524 419.490001,301.084 419.490001,303.424 C419.490001,304.384 418.690001,305.084 417.210001,305.084 C415.890001,305.084 414.670001,304.444 414.030001,303.704 L413.250001,304.784 C414.230001,305.824 415.570001,306.304 417.150001,306.304 L417.150001,306.304 Z M423.574445,295.024 C424.134445,295.024 424.594445,294.584 424.594445,294.024 C424.594445,293.464 424.134445,293.004 423.574445,293.004 C423.034445,293.004 422.574445,293.464 422.574445,294.024 C422.574445,294.584 423.034445,295.024 423.574445,295.024 L423.574445,295.024 Z M424.334445,306.064 L424.334445,296.404 L422.834445,296.404 L422.834445,306.064 L424.334445,306.064 Z M430.65889,309.984 C433.01889,309.984 435.25889,308.984 435.25889,305.784 L435.25889,296.404 L433.75889,296.404 L433.75889,297.864 C432.97889,296.804 431.81889,296.164 430.51889,296.164 C427.97889,296.164 426.21889,298.084 426.21889,301.184 C426.21889,304.304 427.99889,306.184 430.51889,306.184 C431.87889,306.184 433.05889,305.444 433.75889,304.464 L433.75889,305.844 C433.75889,307.964 432.25889,308.744 430.65889,308.744 C429.27889,308.744 428.31889,308.384 427.51889,307.424 L426.75889,308.544 C427.89889,309.664 429.01889,309.984 430.65889,309.984 L430.65889,309.984 Z M430.87889,304.864 C428.93889,304.864 427.77889,303.304 427.77889,301.184 C427.77889,299.044 428.93889,297.504 430.87889,297.504 C432.07889,297.504 433.23889,298.224 433.75889,299.064 L433.75889,303.284 C433.23889,304.124 432.07889,304.864 430.87889,304.864 L430.87889,304.864 Z M445.723334,306.064 L445.723334,299.284 C445.723334,297.184 444.663334,296.164 442.643334,296.164 C441.203334,296.164 439.883334,297.004 439.203334,297.804 L439.203334,296.404 L437.703334,296.404 L437.703334,306.064 L439.203334,306.064 L439.203334,299.004 C439.763334,298.224 440.883334,297.504 442.063334,297.504 C443.363334,297.504 444.223334,298.044 444.223334,299.744 L444.223334,306.064 L445.723334,306.064 Z" id="a-web-app-for-beauti" fill="#FFFFFF" sketch:type="MSShapeGroup"></path>
            </g>
        </g>
    </g>
</svg>