<?xml version="1.0" encoding="UTF-8" standalone="no"?>
<svg width="234px" height="42px" viewBox="0 0 234 42" version="1.1" xmlns="http://www.w3.org/2000/svg" xmlns:xlink="http://www.w3.org/1999/xlink" xmlns:sketch="http://www.bohemiancoding.com/sketch/ns">
    <!-- Generator: Sketch 3.0.4 (8053) - http://www.bohemiancoding.com/sketch -->
    <title>publications-wordmark 2</title>
    <desc>Created with Sketch.</desc>
    <defs></defs>
    <g id="Page-1" stroke="none" stroke-width="1" fill="none" fill-rule="evenodd" sketch:type="MSPage">
        <g id="publications-wordmark" sketch:type="MSLayerGroup" transform="translate(1.000000, 1.000000)" fill="#484A53">
            <g id="Page-1" sketch:type="MSShapeGroup">
                <g id="publications-wordmark">
                    <g id="Rectangle-2-+-Rectangle-2-+-Rectangle-2-copy">
                        <path d="M3.94505251,35.6931123 L5.61316178,35.6931123 L38.0047562,3.24001787 L36.5496763,1.68392122 L3.94505251,33.9959224 L3.94505251,35.6931123 L3.94505251,35.6931123 Z" id="Rectangle-2"></path>
                        <path d="M0,11.7734834 L0,5.66332219 L33.8541878,5.66332219 L33.8541878,39.6086621 L27.7604339,39.6086621 L27.7604339,11.7734834 L0,11.7734834 L0,11.7734834 Z" id="Rectangle-2"></path>
                        <path d="M4.82827344,6.93121237 L4.82827344,0.802674783 L38.7842782,0.802674783 L38.7842782,34.8501059 L32.6721974,34.8501059 L32.6721974,6.93121237 L4.82827344,6.93121237 L4.82827344,6.93121237 Z" id="Rectangle-2-copy" transform="translate(21.399702, 18.193979) rotate(180.000000) translate(-21.399702, -18.193979) "></path>
                    </g>
                    <path d="M51.7492263,8.42595318 L51.7492263,32.6421405 L54.743521,32.6421405 L54.743521,23.0916388 L61.2854043,23.0916388 C65.5164733,23.0916388 68.7711414,20.598796 68.7711414,15.7749833 C68.7711414,10.918796 65.5164733,8.42595318 61.2854043,8.42595318 L51.7492263,8.42595318 L51.7492263,8.42595318 Z M54.7109744,11.0482943 L60.9273908,11.0482943 C63.5311256,11.0482943 65.7117533,12.5375251 65.7117533,15.7749833 C65.7117533,18.9476923 63.5311256,20.4692977 60.9273908,20.4692977 L54.7109744,20.4692977 L54.7109744,11.0482943 L54.7109744,11.0482943 Z M85.7545926,32.6421405 L85.7545926,16.1311037 L82.9555778,16.1311037 L82.9555778,25.778729 C82.9555778,28.2068228 81.3933369,30.3435452 78.7570557,30.3435452 C76.250961,30.3435452 74.8514536,28.6276923 74.8514536,25.9406021 L74.8514536,16.1311037 L72.0524389,16.1311037 L72.0524389,26.329097 C72.0524389,30.278796 74.3958002,32.9658863 78.106122,32.9658863 C80.8725901,32.9658863 82.4673776,31.5090301 83.0857646,30.1816722 L83.0857646,32.6421405 L85.7545926,32.6421405 L85.7545926,32.6421405 Z M93.6249723,7.4870903 L90.8259575,7.4870903 L90.8259575,32.6421405 L93.4947856,32.6421405 L93.4947856,29.9550501 C94.4386394,31.670903 96.5216271,32.9658863 99.3857352,32.9658863 C103.942271,32.9658863 107.392219,29.7284282 107.392219,24.4189967 C107.392219,19.0771906 103.942271,15.8397324 99.3857352,15.8397324 C96.5867204,15.8397324 94.5688261,17.037592 93.6249723,18.6239465 L93.6249723,7.4870903 L93.6249723,7.4870903 Z M98.9626284,18.2678261 C102.119657,18.2678261 104.528111,20.4369231 104.528111,24.3866221 C104.528111,28.3686957 102.119657,30.5377927 98.9626284,30.5377927 C95.9357868,30.5377927 93.6575189,28.6276923 93.6575189,24.8722409 L93.6575189,23.9010033 C93.6575189,20.1779264 95.9357868,18.2678261 98.9626284,18.2678261 L98.9626284,18.2678261 Z M114.156012,32.6421405 L114.156012,7.4870903 L111.356997,7.4870903 L111.356997,32.6421405 L114.156012,32.6421405 L114.156012,32.6421405 Z M120.691977,8.32882943 C119.68303,8.32882943 118.836817,9.13819398 118.836817,10.1741806 C118.836817,11.1777926 119.650484,11.9871572 120.691977,11.9871572 C121.700925,11.9871572 122.547138,11.1777926 122.547138,10.1741806 C122.547138,9.13819398 121.700925,8.32882943 120.691977,8.32882943 L120.691977,8.32882943 Z M122.058938,32.6421405 L122.058938,16.1311037 L119.259923,16.1311037 L119.259923,32.6421405 L122.058938,32.6421405 L122.058938,32.6421405 Z M134.22548,15.8397324 C129.538758,15.8397324 126.056263,18.9476923 126.056263,24.3866221 C126.056263,29.8255518 129.571304,32.9658863 134.22548,32.9658863 C138.228722,32.9658863 141.09283,30.6996656 141.711217,27.0413377 L138.977296,26.7823412 C138.586736,29.113311 136.829215,30.5377927 134.22548,30.5377927 C131.198639,30.5377927 128.920371,28.336321 128.920371,24.3866221 C128.920371,20.4692977 131.133545,18.2354515 134.22548,18.2354515 C136.731575,18.2354515 138.651829,19.7570569 138.944749,22.2498997 L141.678671,22.0232776 C141.19047,18.1707023 138.131082,15.8397324 134.22548,15.8397324 L134.22548,15.8397324 Z M151.143838,15.8397324 C147.108049,15.8397324 144.732141,18.7534448 144.732141,21.602408 L147.563703,21.7319064 C147.563703,19.983679 148.702837,18.3002007 151.176384,18.3002007 C153.552292,18.3002007 154.65888,19.8218061 154.65888,22.3146489 L154.65888,23.0916388 L150.362717,23.3506355 C146.880222,23.544883 144.276488,24.8398663 144.276488,28.2715718 C144.276488,31.282408 146.489662,32.9658863 149.711784,32.9658863 C151.762225,32.9658863 153.454652,32.1241471 154.65888,30.6996656 L154.65888,32.6421405 L157.490441,32.6421405 L157.490441,22.2498997 C157.490441,18.1707023 155.24472,15.8397324 151.143838,15.8397324 L151.143838,15.8397324 Z M154.691426,25.3254849 L154.691426,26.0053511 C154.691426,29.3075586 152.640985,30.5701673 150.134891,30.5701673 C148.37737,30.5701673 147.108049,29.9550501 147.108049,28.2068228 C147.108049,26.3938461 148.57265,25.71398 150.720731,25.5844816 L154.691426,25.3254849 L154.691426,25.3254849 Z M168.810769,30.3435452 C167.183435,30.3435452 165.881568,29.5341805 165.881568,27.1384616 L165.946661,18.5591973 L170.405557,18.5591973 L170.405557,16.1311037 L165.946661,16.1311037 L165.979208,10.4331773 L163.147646,10.4331773 L163.1151,16.1311037 L160.023165,16.1311037 L160.023165,18.5591973 L163.1151,18.5591973 L163.082553,27.6888294 C163.050006,31.3147826 165.165541,32.8687626 168.192382,32.8687626 C169.233876,32.8687626 169.88481,32.7716388 170.438103,32.6745151 L170.438103,30.1816722 C170.047543,30.2464214 169.49425,30.3435452 168.810769,30.3435452 L168.810769,30.3435452 Z M174.891081,8.32882943 C173.882134,8.32882943 173.03592,9.13819398 173.03592,10.1741806 C173.03592,11.1777926 173.849587,11.9871572 174.891081,11.9871572 C175.900028,11.9871572 176.746242,11.1777926 176.746242,10.1741806 C176.746242,9.13819398 175.900028,8.32882943 174.891081,8.32882943 L174.891081,8.32882943 Z M176.258042,32.6421405 L176.258042,16.1311037 L173.459027,16.1311037 L173.459027,32.6421405 L176.258042,32.6421405 L176.258042,32.6421405 Z M188.782597,15.8397324 C183.965689,15.8397324 180.255367,19.1419398 180.255367,24.3866221 C180.255367,29.6313043 183.965689,32.9658863 188.782597,32.9658863 C193.599507,32.9658863 197.309828,29.6313043 197.309828,24.3866221 C197.309828,19.1419398 193.599507,15.8397324 188.782597,15.8397324 L188.782597,15.8397324 Z M188.782597,18.2678261 C192.004719,18.2678261 194.478267,20.5340468 194.478267,24.3866221 C194.478267,28.2391974 192.004719,30.5377927 188.782597,30.5377927 C185.560476,30.5377927 183.086927,28.2391974 183.086927,24.3866221 C183.086927,20.5340468 185.560476,18.2678261 188.782597,18.2678261 L188.782597,18.2678261 Z M209.150904,15.8397324 C206.514622,15.8397324 204.789648,17.1023411 203.97598,18.5915719 L203.97598,16.1311037 L201.307154,16.1311037 L201.307154,32.6421405 L204.106167,32.6421405 L204.106167,22.9945151 C204.106167,20.5016722 205.928782,18.429699 208.565062,18.429699 C211.071158,18.429699 212.763586,20.210301 212.763586,22.9621405 L212.763586,32.6421405 L215.595147,32.6421405 L215.595147,22.60602 C215.595147,18.4620736 212.893773,15.8397324 209.150904,15.8397324 L209.150904,15.8397324 L209.150904,15.8397324 Z M225.646155,15.872107 C221.740552,15.8397324 219.559925,17.8145819 219.559925,20.6959197 C219.559925,23.9333779 221.968379,24.548495 225.1905,25.2931104 C228.184795,26.0053511 229.291383,26.3938461 229.291383,28.0773243 C229.291383,29.7284282 227.859329,30.5377927 225.873981,30.5377927 C223.660807,30.5377927 222.293846,29.5665551 222.033472,27.7535786 L219.234458,27.9478261 C219.657565,31.1205351 222.06602,32.9658863 225.808888,32.9658863 C229.649397,32.9658863 232.090398,31.1205351 232.090398,27.8507023 C232.090398,24.9046153 229.844676,23.9333779 226.329634,23.0916388 C223.953727,22.541271 222.391486,22.4117725 222.391486,20.6635452 C222.391486,19.206689 223.43298,18.2354515 225.548514,18.2678261 C227.664049,18.2354515 228.738089,19.3361873 228.93337,20.987291 L231.732384,20.8254181 C231.374371,17.9764549 229.356477,15.8397324 225.646155,15.872107 L225.646155,15.872107 L225.646155,15.872107 Z" id="Publications"></path>
                </g>
            </g>
        </g>
    </g>
</svg>