<?xml version="1.0" encoding="UTF-8" standalone="no"?>
<svg width="214px" height="147px" viewBox="0 0 214 147" version="1.1" xmlns="http://www.w3.org/2000/svg" xmlns:xlink="http://www.w3.org/1999/xlink" xmlns:sketch="http://www.bohemiancoding.com/sketch/ns">
    <!-- Generator: Sketch 3.0.4 (8053) - http://www.bohemiancoding.com/sketch -->
    <title>publications-full-logo</title>
    <desc>Created with Sketch.</desc>
    <defs></defs>
    <g id="Page-1" stroke="none" stroke-width="1" fill="none" fill-rule="evenodd" sketch:type="MSPage">
        <path d="M72.0655767,95.1198954 L159.003753,8.01665454 L155.098357,3.8401326 L67.5884158,90.5646829 L67.5884158,95.1198954 L72.0655767,95.1198954 Z" id="Rectangle-2-copy" fill="#455EDE" sketch:type="MSShapeGroup"></path>
        <path d="M2.8999939,121.548261 L2.8999939,143.012609 L4.58745612,143.012609 L4.58745612,134.116957 L10.822486,134.116957 C14.3404158,134.116957 17.2291223,132.05087 17.2291223,127.832609 C17.2291223,123.614348 14.3404158,121.548261 10.822486,121.548261 L2.8999939,121.548261 Z M4.58745612,123.040435 L10.6222787,123.040435 C13.1963736,123.040435 15.4844579,124.532609 15.4844579,127.832609 C15.4844579,131.103913 13.1963736,132.624783 10.6222787,132.624783 L4.58745612,132.624783 L4.58745612,123.040435 Z M37.4500679,121.548261 L35.7626057,121.548261 L35.7626057,135.264783 C35.7626057,139.597826 33.1885108,141.75 29.2129642,141.75 C25.2088165,141.75 22.6919237,139.597826 22.6919237,135.264783 L22.6919237,121.548261 L21.0044615,121.548261 L21.0044615,135.293478 C21.0044615,140.544783 24.2363807,143.27087 29.2129642,143.27087 C34.1895477,143.27087 37.4500679,140.544783 37.4500679,135.293478 L37.4500679,121.548261 Z M42.8842683,121.548261 L42.8842683,143.012609 L51.1785742,143.012609 C54.6965039,143.012609 57.5566094,141.204783 57.5566094,137.216087 C57.5566094,134.203043 55.8691471,132.481304 54.1816849,131.878696 C55.4687324,131.19 56.6127746,129.697826 56.6127746,127.115217 C56.6127746,123.413478 53.9814775,121.548261 50.3777446,121.548261 L42.8842683,121.548261 Z M44.5717305,123.040435 L50.2061383,123.040435 C52.9518396,123.040435 54.8967113,124.475217 54.8967113,127.23 C54.8967113,130.156957 53.2950522,131.247391 51.1499731,131.247391 L44.5717305,131.247391 L44.5717305,123.040435 Z M44.5717305,132.739565 L51.2929784,132.739565 C53.5238607,132.739565 55.8405461,133.916087 55.8405461,137.13 C55.8405461,140.257826 53.5810628,141.491739 51.0069678,141.491739 L44.5717305,141.491739 L44.5717305,132.739565 Z M63.9060435,141.491739 L63.9060435,121.548261 L62.2185813,121.548261 L62.2185813,143.012609 L75.3464654,143.012609 L75.3464654,141.491739 L63.9060435,141.491739 Z M80.8092668,143.012609 L80.8092668,121.548261 L79.1218046,121.548261 L79.1218046,143.012609 L80.8092668,143.012609 Z M95.6246131,121.29 C89.7041948,121.29 85.3282334,125.278696 85.3282334,132.280435 C85.3282334,139.253478 89.818599,143.27087 95.7104163,143.27087 C100.658399,143.27087 104.405137,140.487391 105.205966,135.867391 L103.461302,135.723913 C102.774877,139.56913 99.7145639,141.75 95.6532142,141.75 C90.8196359,141.75 87.0442967,138.392609 87.0442967,132.280435 C87.0442967,126.283043 90.6194286,122.81087 95.567411,122.81087 C99.6573618,122.81087 102.917882,125.221304 103.432701,129.267391 L105.177365,129.095217 C104.576743,124.274348 100.572596,121.29 95.6246131,121.29 Z M125.741524,143.012609 L116.903798,121.548261 L115.445144,121.548261 L106.607418,143.012609 L108.466487,143.012609 L111.011981,136.785652 L121.365562,136.785652 L123.882455,143.012609 L125.741524,143.012609 Z M111.612603,135.35087 L116.188771,124.159565 L120.736339,135.35087 L111.612603,135.35087 Z M141.472104,123.040435 L141.472104,121.548261 L123.081626,121.548261 L123.081626,123.040435 L131.433134,123.040435 L131.433134,143.012609 L133.120596,143.012609 L133.120596,123.040435 L141.472104,123.040435 Z M146.448687,143.012609 L146.448687,121.548261 L144.761225,121.548261 L144.761225,143.012609 L146.448687,143.012609 Z M161.578645,121.29 C155.658227,121.29 150.967654,125.393478 150.967654,132.280435 C150.967654,139.167391 155.658227,143.27087 161.578645,143.27087 C167.470462,143.27087 172.132434,139.167391 172.132434,132.280435 C172.132434,125.393478 167.470462,121.29 161.578645,121.29 Z M161.578645,122.81087 C166.498027,122.81087 170.416371,126.283043 170.416371,132.280435 C170.416371,138.24913 166.498027,141.75 161.578645,141.75 C156.630663,141.75 152.712318,138.24913 152.712318,132.280435 C152.712318,126.283043 156.630663,122.81087 161.578645,122.81087 Z M192.324779,143.012609 L192.324779,121.548261 L190.608716,121.548261 L190.608716,139.856087 L178.081454,121.548261 L176.680002,121.548261 L176.680002,143.012609 L178.367464,143.012609 L178.367464,124.733478 L190.894726,143.012609 L192.324779,143.012609 Z M203.493101,121.29 C198.716725,121.29 196.42864,123.958696 196.42864,127.115217 C196.42864,131.132609 199.460352,131.993478 203.264292,132.911739 C207.154036,133.801304 209.556524,134.375217 209.556524,137.416957 C209.556524,140.458696 207.068233,141.778696 203.836313,141.778696 C200.48999,141.778696 197.887294,140.056957 197.629885,137.244783 L195.913821,137.359565 C196.199832,141.147391 199.546155,143.27087 203.836313,143.27087 C207.926264,143.27087 211.272588,141.434348 211.272588,137.302174 C211.272588,133.543043 208.584088,132.51 203.864914,131.448261 C200.518591,130.673478 198.144704,130.099565 198.144704,127.057826 C198.144704,124.704783 199.917969,122.782174 203.521702,122.782174 C206.553414,122.782174 208.641291,124.331739 208.870099,127.02913 L210.557561,126.914348 C210.328753,123.327391 207.440046,121.29 203.493101,121.29 L203.493101,121.29 Z" id="PUBLICATIONS" fill="#455EDE" sketch:type="MSShapeGroup"></path>
        <path d="M54,16 L54,35 L129,35 L129,109 L148,109 L148,16 L54,16 Z" id="Rectangle-1" stroke="#455EDE" sketch:type="MSShapeGroup"></path>
        <path d="M67,3 L67,22 L142,22 L142,96 L161,96 L161,3 L67,3 Z" id="Rectangle-2" stroke="#455EDE" sketch:type="MSShapeGroup" transform="translate(114.000000, 49.500000) rotate(-180.000000) translate(-114.000000, -49.500000) "></path>
    </g>
</svg>