<?xml version="1.0" encoding="UTF-8" standalone="no"?>
<svg width="214px" height="147px" viewBox="0 0 214 147" version="1.1" xmlns="http://www.w3.org/2000/svg" xmlns:xlink="http://www.w3.org/1999/xlink" xmlns:sketch="http://www.bohemiancoding.com/sketch/ns">
    <!-- Generator: Sketch 3.0.4 (8053) - http://www.bohemiancoding.com/sketch -->
    <title>publications-full-logo</title>
    <desc>Created with Sketch.</desc>
    <defs></defs>
    <g id="Page-1" stroke="none" stroke-width="1" fill="none" fill-rule="evenodd" sketch:type="MSPage">
        <g id="Rectangle-2-+-Rectangle-2-+-Rectangle-2-copy-+-Publications" sketch:type="MSLayerGroup" transform="translate(3.000000, 2.000000)" fill="#455EDE">
            <path d="M80.1811527,27.9202485 L80.1811527,71.111889 L80.1811527,71.111889 L123.763943,27.9202485 L80.1811527,27.9202485 Z M80.1811527,11.5207388 L80.1811527,0.44808764 L63.7764906,0.44808764 L63.7764911,11.5207388 L53,11.5207388 L53,27.9202485 L63.7764917,27.9202485 L63.7764941,91.8304856 L127.508265,91.8304856 L127.508265,102.629127 L143.863738,102.629127 L143.863738,91.8304856 L154.913503,91.8304856 L154.913503,75.381654 L143.863738,75.381654 L143.863738,16.1797192 L156.003753,4.01665454 L152.098357,-0.159867397 L140.31197,11.5207388 L80.1811527,11.5207388 Z M127.508265,75.381654 L84.7739934,75.381654 L127.508265,32.5662453 L127.508265,75.381654 Z" id="Rectangle-2-copy" sketch:type="MSShapeGroup"></path>
            <path d="M-0.334586466,114.582718 L-0.334586466,142.842369 L3.15967631,142.842369 L3.15967631,131.697186 L10.7938811,131.697186 C15.7314267,131.697186 19.5295384,128.788104 19.5295384,123.158842 C19.5295384,117.4918 15.7314267,114.582718 10.7938811,114.582718 L-0.334586466,114.582718 L-0.334586466,114.582718 Z M3.12169524,117.642921 L10.3760888,117.642921 C13.4145785,117.642921 15.9593133,119.380814 15.9593133,123.158842 C15.9593133,126.86131 13.4145785,128.636983 10.3760888,128.636983 L3.12169524,128.636983 L3.12169524,117.642921 L3.12169524,117.642921 Z M39.3487767,142.842369 L39.3487767,123.574425 L36.0824005,123.574425 L36.0824005,134.832949 C36.0824005,137.66647 34.2593067,140.159969 31.1828362,140.159969 C28.2582899,140.159969 26.6251018,138.157614 26.6251018,135.02185 L26.6251018,123.574425 L23.3587256,123.574425 L23.3587256,135.475214 C23.3587256,140.084408 26.0933664,143.220171 30.4232137,143.220171 C33.6516089,143.220171 35.5126837,141.520059 36.2343249,139.971067 L36.2343249,142.842369 L39.3487767,142.842369 L39.3487767,142.842369 Z M48.5333016,113.48709 L45.2669254,113.48709 L45.2669254,142.842369 L48.3813772,142.842369 L48.3813772,139.706605 C49.4828296,141.70896 51.9136212,143.220171 55.2559595,143.220171 C60.5733161,143.220171 64.5993148,139.442143 64.5993148,133.246177 C64.5993148,127.012431 60.5733161,123.234403 55.2559595,123.234403 C51.9895833,123.234403 49.634754,124.632273 48.5333016,126.483507 L48.5333016,113.48709 L48.5333016,113.48709 Z M54.7622051,126.067924 C58.4463736,126.067924 61.2569762,128.599203 61.2569762,133.208397 C61.2569762,137.855371 58.4463736,140.38665 54.7622051,140.38665 C51.2299611,140.38665 48.5712827,138.157614 48.5712827,133.775101 L48.5712827,132.641693 C48.5712827,128.29696 51.2299611,126.067924 54.7622051,126.067924 L54.7622051,126.067924 Z M72.4924818,142.842369 L72.4924818,113.48709 L69.2261056,113.48709 L69.2261056,142.842369 L72.4924818,142.842369 L72.4924818,142.842369 Z M80.1197807,114.469378 C78.9423662,114.469378 77.9548572,115.413885 77.9548572,116.622854 C77.9548572,117.794042 78.9043851,118.738549 80.1197807,118.738549 C81.2971955,118.738549 82.2847045,117.794042 82.2847045,116.622854 C82.2847045,115.413885 81.2971955,114.469378 80.1197807,114.469378 L80.1197807,114.469378 Z M81.7149878,142.842369 L81.7149878,123.574425 L78.4486116,123.574425 L78.4486116,142.842369 L81.7149878,142.842369 L81.7149878,142.842369 Z M95.9130204,123.234403 C90.4437394,123.234403 86.3797596,126.86131 86.3797596,133.208397 C86.3797596,139.555484 90.4817204,143.220171 95.9130204,143.220171 C100.584698,143.220171 103.927036,140.575552 104.648678,136.30638 L101.458264,136.004138 C101.00249,138.724318 98.95151,140.38665 95.9130204,140.38665 C92.3807764,140.38665 89.7220982,137.817591 89.7220982,133.208397 C89.7220982,128.636983 92.3048142,126.030144 95.9130204,126.030144 C98.8375666,126.030144 101.078453,127.805817 101.420283,130.714898 L104.610697,130.450436 C104.04098,125.954583 100.470755,123.234403 95.9130204,123.234403 L95.9130204,123.234403 Z M115.656296,123.234403 C110.946638,123.234403 108.174016,126.634628 108.174016,129.959293 L111.478373,130.110414 C111.478373,128.070279 112.807712,126.105704 115.694277,126.105704 C118.466899,126.105704 119.758257,127.881377 119.758257,130.790459 L119.758257,131.697186 L114.744749,131.999428 C110.68077,132.22611 107.64228,133.737321 107.64228,137.742031 C107.64228,141.255597 110.224996,143.220171 113.985127,143.220171 C116.377938,143.220171 118.352956,142.237884 119.758257,140.575552 L119.758257,142.842369 L123.062614,142.842369 L123.062614,130.714898 C123.062614,125.954583 120.441917,123.234403 115.656296,123.234403 L115.656296,123.234403 Z M119.796238,134.304025 L119.796238,135.097411 C119.796238,138.951 117.403428,140.424431 114.478882,140.424431 C112.427901,140.424431 110.946638,139.706605 110.946638,137.66647 C110.946638,135.550774 112.655788,134.757389 115.162542,134.606267 L119.796238,134.304025 L119.796238,134.304025 Z M136.273138,140.159969 C134.374082,140.159969 132.854837,139.215461 132.854837,136.419721 L132.9308,126.407946 L138.134213,126.407946 L138.134213,123.574425 L132.9308,123.574425 L132.968781,116.925096 L129.664423,116.925096 L129.626442,123.574425 L126.018236,123.574425 L126.018236,126.407946 L129.626442,126.407946 L129.588461,137.061986 C129.55048,141.293377 132.019253,143.106831 135.551497,143.106831 C136.766893,143.106831 137.526515,142.99349 138.172194,142.880149 L138.172194,139.971067 C137.716421,140.046628 137.070742,140.159969 136.273138,140.159969 L136.273138,140.159969 Z M143.368701,114.469378 C142.191287,114.469378 141.203778,115.413885 141.203778,116.622854 C141.203778,117.794042 142.153306,118.738549 143.368701,118.738549 C144.546115,118.738549 145.533624,117.794042 145.533624,116.622854 C145.533624,115.413885 144.546115,114.469378 143.368701,114.469378 L143.368701,114.469378 Z M144.963909,142.842369 L144.963909,123.574425 L141.697532,123.574425 L141.697532,142.842369 L144.963909,142.842369 L144.963909,142.842369 Z M159.579733,123.234403 C153.958529,123.234403 149.628681,127.087991 149.628681,133.208397 C149.628681,139.328802 153.958529,143.220171 159.579733,143.220171 C165.200939,143.220171 169.530787,139.328802 169.530787,133.208397 C169.530787,127.087991 165.200939,123.234403 159.579733,123.234403 L159.579733,123.234403 Z M159.579733,126.067924 C163.339864,126.067924 166.226429,128.712543 166.226429,133.208397 C166.226429,137.70425 163.339864,140.38665 159.579733,140.38665 C155.819603,140.38665 152.933037,137.70425 152.933037,133.208397 C152.933037,128.712543 155.819603,126.067924 159.579733,126.067924 L159.579733,126.067924 Z M183.349009,123.234403 C180.272537,123.234403 178.259538,124.707834 177.31001,126.445727 L177.31001,123.574425 L174.195559,123.574425 L174.195559,142.842369 L177.461934,142.842369 L177.461934,131.583845 C177.461934,128.674763 179.588877,126.256825 182.665347,126.256825 C185.589894,126.256825 187.564912,128.334741 187.564912,131.546065 L187.564912,142.842369 L190.86927,142.842369 L190.86927,131.130481 C190.86927,126.294606 187.716837,123.234403 183.349009,123.234403 L183.349009,123.234403 L183.349009,123.234403 Z M202.59853,123.272183 C198.040795,123.234403 195.49606,125.539 195.49606,128.901445 C195.49606,132.679473 198.306663,133.397298 202.066793,134.266245 C205.561056,135.097411 206.852414,135.550774 206.852414,137.515349 C206.852414,139.442143 205.181245,140.38665 202.864397,140.38665 C200.281682,140.38665 198.686474,139.253242 198.382624,137.137546 L195.11625,137.364228 C195.610004,141.066695 198.420607,143.220171 202.788435,143.220171 C207.270208,143.220171 210.118791,141.066695 210.118791,137.250887 C210.118791,133.812881 207.498094,132.679473 203.396132,131.697186 C200.623512,131.054921 198.800418,130.9038 198.800418,128.863665 C198.800418,127.163552 200.015813,126.030144 202.484586,126.067924 C204.953359,126.030144 206.206735,127.314673 206.434623,129.241467 L209.700998,129.052566 C209.283207,125.727901 206.928378,123.234403 202.59853,123.272183 L202.59853,123.272183 L202.59853,123.272183 Z" id="Publications" sketch:type="MSShapeGroup"></path>
        </g>
    </g>
</svg>