<?xml version="1.0" encoding="UTF-8" standalone="no"?>
<svg width="136px" height="25px" viewBox="0 0 136 25" version="1.1" xmlns="http://www.w3.org/2000/svg" xmlns:xlink="http://www.w3.org/1999/xlink" xmlns:sketch="http://www.bohemiancoding.com/sketch/ns">
    <!-- Generator: Sketch 3.0.4 (8053) - http://www.bohemiancoding.com/sketch -->
    <title>publications-wordmark</title>
    <desc>Created with Sketch.</desc>
    <defs></defs>
    <g id="Page-1" stroke="none" stroke-width="1" fill="none" fill-rule="evenodd" sketch:type="MSPage">
        <g id="publications-wordmark" sketch:type="MSLayerGroup" transform="translate(2.000000, 2.000000)" fill="#484A53">
            <g id="Rectangle-2-+-Rectangle-2-+-Rectangle-2-copy" sketch:type="MSShapeGroup">
                <path d="M2.26160338,19.5235396 L3.21789016,19.5235396 L21.7872094,0.863010274 L20.9530472,-0.031745298 L2.26160338,18.5476554 L2.26160338,19.5235396 Z" id="Rectangle-2"></path>
                <path d="M0,5.76975293 L0,2.25641026 L19.4077887,2.25641026 L19.4077887,21.7749807 L15.9143867,21.7749807 L15.9143867,5.76975293 L0,5.76975293 Z" id="Rectangle-2"></path>
                <path d="M2.26160338,3.52390911 L2.26160338,0 L21.7277613,0 L21.7277613,19.5772729 L18.2238529,19.5772729 L18.2238529,3.52390911 L2.26160338,3.52390911 Z" id="Rectangle-2-copy" transform="translate(12.014768, 9.730769) rotate(-180.000000) translate(-12.014768, -9.730769) "></path>
            </g>
            <path d="M29.6665823,3.84492308 L29.6665823,17.7692308 L31.3831392,17.7692308 L31.3831392,12.2776923 L35.133443,12.2776923 C37.5590127,12.2776923 39.4248354,10.8443077 39.4248354,8.07061538 C39.4248354,5.27830769 37.5590127,3.84492308 35.133443,3.84492308 L29.6665823,3.84492308 Z M31.364481,5.35276923 L34.9282025,5.35276923 C36.4208608,5.35276923 37.670962,6.20907692 37.670962,8.07061538 C37.670962,9.89492308 36.4208608,10.7698462 34.9282025,10.7698462 L31.364481,10.7698462 L31.364481,5.35276923 Z M49.161038,17.7692308 L49.161038,8.27538462 L47.5564304,8.27538462 L47.5564304,13.8227692 C47.5564304,15.2189231 46.6608354,16.4475385 45.149519,16.4475385 C43.7128354,16.4475385 42.9105316,15.4609231 42.9105316,13.9158462 L42.9105316,8.27538462 L41.305924,8.27538462 L41.305924,14.1392308 C41.305924,16.4103077 42.6493165,17.9553846 44.7763544,17.9553846 C46.3623038,17.9553846 47.276557,17.1176923 47.6310633,16.3544615 L47.6310633,17.7692308 L49.161038,17.7692308 Z M53.6729367,3.30507692 L52.0683291,3.30507692 L52.0683291,17.7692308 L53.5983038,17.7692308 L53.5983038,16.2241538 C54.1393924,17.2107692 55.333519,17.9553846 56.975443,17.9553846 C59.5875949,17.9553846 61.5653671,16.0938462 61.5653671,13.0409231 C61.5653671,9.96938462 59.5875949,8.10784615 56.975443,8.10784615 C55.3708354,8.10784615 54.2140253,8.79661538 53.6729367,9.70876923 L53.6729367,3.30507692 Z M56.7328861,9.504 C58.5427342,9.504 59.923443,10.7512308 59.923443,13.0223077 C59.923443,15.312 58.5427342,16.5592308 56.7328861,16.5592308 C54.9976709,16.5592308 53.6915949,15.4609231 53.6915949,13.3015385 L53.6915949,12.7430769 C53.6915949,10.6023077 54.9976709,9.504 56.7328861,9.504 Z M65.4428861,17.7692308 L65.4428861,3.30507692 L63.8382785,3.30507692 L63.8382785,17.7692308 L65.4428861,17.7692308 Z M69.1897974,3.78907692 C68.6113924,3.78907692 68.1262785,4.25446154 68.1262785,4.85015385 C68.1262785,5.42723077 68.5927342,5.89261538 69.1897974,5.89261538 C69.7682025,5.89261538 70.2533164,5.42723077 70.2533164,4.85015385 C70.2533164,4.25446154 69.7682025,3.78907692 69.1897974,3.78907692 Z M69.973443,17.7692308 L69.973443,8.27538462 L68.3688354,8.27538462 L68.3688354,17.7692308 L69.973443,17.7692308 Z M76.9482278,8.10784615 C74.261443,8.10784615 72.2650126,9.89492308 72.2650126,13.0223077 C72.2650126,16.1496923 74.2801012,17.9553846 76.9482278,17.9553846 C79.2431898,17.9553846 80.8851139,16.6523077 81.2396202,14.5487692 L79.6723291,14.3998462 C79.4484304,15.7401538 78.4408861,16.5592308 76.9482278,16.5592308 C75.2130126,16.5592308 73.9069367,15.2933846 73.9069367,13.0223077 C73.9069367,10.7698462 75.1756962,9.48538462 76.9482278,9.48538462 C78.3849114,9.48538462 79.4857468,10.3603077 79.6536709,11.7936923 L81.220962,11.6633846 C80.9410886,9.44815385 79.1872152,8.10784615 76.9482278,8.10784615 Z M86.6471139,8.10784615 C84.3334936,8.10784615 82.971443,9.78323077 82.971443,11.4213846 L84.5947088,11.4958462 C84.5947088,10.4906154 85.2477468,9.52261538 86.6657721,9.52261538 C88.0278228,9.52261538 88.6622025,10.3975385 88.6622025,11.8309231 L88.6622025,12.2776923 L86.1993164,12.4266154 C84.202886,12.5383077 82.7102278,13.2829231 82.7102278,15.2561538 C82.7102278,16.9873846 83.9789873,17.9553846 85.8261519,17.9553846 C87.0016202,17.9553846 87.9718481,17.4713846 88.6622025,16.6523077 L88.6622025,17.7692308 L90.2854683,17.7692308 L90.2854683,11.7936923 C90.2854683,9.44815385 88.9980506,8.10784615 86.6471139,8.10784615 Z M88.6808607,13.5621538 L88.6808607,13.9530769 C88.6808607,15.8518462 87.5053924,16.5778462 86.0687088,16.5778462 C85.0611645,16.5778462 84.3334936,16.2241538 84.3334936,15.2189231 C84.3334936,14.1764615 85.1731139,13.7855385 86.4045569,13.7110769 L88.6808607,13.5621538 Z M96.7751392,16.4475385 C95.8422278,16.4475385 95.0958987,15.9821538 95.0958987,14.6046154 L95.1332152,9.67153846 L97.6893924,9.67153846 L97.6893924,8.27538462 L95.1332152,8.27538462 L95.1518734,4.99907692 L93.5286076,4.99907692 L93.5099493,8.27538462 L91.7374177,8.27538462 L91.7374177,9.67153846 L93.5099493,9.67153846 L93.4912911,14.9210769 C93.4726329,17.006 94.6854177,17.8995385 96.4206329,17.8995385 C97.0176962,17.8995385 97.3908607,17.8436923 97.7080506,17.7878462 L97.7080506,16.3544615 C97.4841519,16.3916923 97.166962,16.4475385 96.7751392,16.4475385 Z M100.260835,3.78907692 C99.6824303,3.78907692 99.1973164,4.25446154 99.1973164,4.85015385 C99.1973164,5.42723077 99.6637721,5.89261538 100.260835,5.89261538 C100.83924,5.89261538 101.324354,5.42723077 101.324354,4.85015385 C101.324354,4.25446154 100.83924,3.78907692 100.260835,3.78907692 Z M101.044481,17.7692308 L101.044481,8.27538462 L99.4398734,8.27538462 L99.4398734,17.7692308 L101.044481,17.7692308 Z M108.224506,8.10784615 C105.463089,8.10784615 103.336051,10.0066154 103.336051,13.0223077 C103.336051,16.038 105.463089,17.9553846 108.224506,17.9553846 C110.985924,17.9553846 113.112962,16.038 113.112962,13.0223077 C113.112962,10.0066154 110.985924,8.10784615 108.224506,8.10784615 Z M108.224506,9.504 C110.071671,9.504 111.489696,10.8070769 111.489696,13.0223077 C111.489696,15.2375385 110.071671,16.5592308 108.224506,16.5592308 C106.377342,16.5592308 104.959316,15.2375385 104.959316,13.0223077 C104.959316,10.8070769 106.377342,9.504 108.224506,9.504 Z M119.901165,8.10784615 C118.389848,8.10784615 117.400962,8.83384615 116.934506,9.69015385 L116.934506,8.27538462 L115.404532,8.27538462 L115.404532,17.7692308 L117.009139,17.7692308 L117.009139,12.2218462 C117.009139,10.7884615 118.054,9.59707692 119.565316,9.59707692 C121.002,9.59707692 121.972228,10.6209231 121.972228,12.2032308 L121.972228,17.7692308 L123.595494,17.7692308 L123.595494,11.9984615 C123.595494,9.61569231 122.046861,8.10784615 119.901165,8.10784615 L119.901165,8.10784615 Z M129.357494,8.12646154 C127.118506,8.10784615 125.868405,9.24338462 125.868405,10.9001538 C125.868405,12.7616923 127.249114,13.1153846 129.096278,13.5435385 C130.812835,13.9530769 131.447215,14.1764615 131.447215,15.1444615 C131.447215,16.0938462 130.626253,16.5592308 129.488101,16.5592308 C128.219342,16.5592308 127.435696,16.0007692 127.28643,14.9583077 L125.681823,15.07 C125.92438,16.8943077 127.305089,17.9553846 129.450785,17.9553846 C131.652456,17.9553846 133.051823,16.8943077 133.051823,15.0141538 C133.051823,13.3201538 131.764405,12.7616923 129.749316,12.2776923 C128.387266,11.9612308 127.491671,11.8867692 127.491671,10.8815385 C127.491671,10.0438462 128.088734,9.48538462 129.301519,9.504 C130.514304,9.48538462 131.130025,10.1183077 131.241975,11.0676923 L132.846582,10.9746154 C132.641342,9.33646154 131.484532,8.10784615 129.357494,8.12646154 L129.357494,8.12646154 Z" id="Publications" sketch:type="MSShapeGroup"></path>
        </g>
    </g>
</svg>