<?xml version="1.0" encoding="utf-8"?>
<!-- Generator: Adobe Illustrator 16.0.0, SVG Export Plug-In . SVG Version: 6.00 Build 0)  -->
<!DOCTYPE svg PUBLIC "-//W3C//DTD SVG 1.1//EN" "http://www.w3.org/Graphics/SVG/1.1/DTD/svg11.dtd">
<svg version="1.1" id="Outline_Version" xmlns="http://www.w3.org/2000/svg" xmlns:xlink="http://www.w3.org/1999/xlink" x="0px"
	 y="0px" width="24px" height="24px" viewBox="0 0 24 24" enable-background="new 0 0 24 24" xml:space="preserve" fill="#444">
<g>
	<g>
		<path d="M23.513,23h-23c-0.276,0-0.5-0.224-0.5-0.5s0.224-0.5,0.5-0.5h23c0.276,0,0.5,0.224,0.5,0.5S23.789,23,23.513,23z"/>
	</g>
	<g>
		<path d="M23.513,2h-19c-0.276,0-0.5-0.224-0.5-0.5S4.236,1,4.513,1h19c0.276,0,0.5,0.224,0.5,0.5S23.789,2,23.513,2z"/>
	</g>
	<g>
		<path d="M23.513,5h-16c-0.276,0-0.5-0.224-0.5-0.5S7.236,4,7.513,4h16c0.276,0,0.5,0.224,0.5,0.5S23.789,5,23.513,5z"/>
	</g>
	<g>
		<path d="M23.513,8h-19c-0.276,0-0.5-0.224-0.5-0.5S4.236,7,4.513,7h19c0.276,0,0.5,0.224,0.5,0.5S23.789,8,23.513,8z"/>
	</g>
	<g>
		<path d="M23.513,11h-23c-0.276,0-0.5-0.224-0.5-0.5s0.224-0.5,0.5-0.5h23c0.276,0,0.5,0.224,0.5,0.5S23.789,11,23.513,11z"/>
	</g>
	<g>
		<path d="M23.513,14h-19c-0.276,0-0.5-0.224-0.5-0.5s0.224-0.5,0.5-0.5h19c0.276,0,0.5,0.224,0.5,0.5S23.789,14,23.513,14z"/>
	</g>
	<g>
		<path d="M23.513,17h-16c-0.276,0-0.5-0.224-0.5-0.5s0.224-0.5,0.5-0.5h16c0.276,0,0.5,0.224,0.5,0.5S23.789,17,23.513,17z"/>
	</g>
	<g>
		<path d="M23.513,20h-19c-0.276,0-0.5-0.224-0.5-0.5s0.224-0.5,0.5-0.5h19c0.276,0,0.5,0.224,0.5,0.5S23.789,20,23.513,20z"/>
	</g>
</g>
</svg>
