<?xml version="1.0" encoding="UTF-8" standalone="no"?>
<svg width="16px" height="16px" viewBox="0 0 16 16" version="1.1" xmlns="http://www.w3.org/2000/svg" xmlns:xlink="http://www.w3.org/1999/xlink">
    <!-- Generator: Sketch 39.1 (31720) - http://www.bohemiancoding.com/sketch -->
    <title>align-center-w</title>
    <desc>Created with Sketch.</desc>
    <defs></defs>
    <g id="Page-1" stroke="none" stroke-width="1" fill="none" fill-rule="evenodd">
        <g id="align-center-w" fill="#FFFFFF">
            <path d="M15.04832,16 L0.32832,16 C0.15168,16 0.00832,15.776 0.00832,15.5 C0.00832,15.224 0.15168,15 0.32832,15 L15.04832,15 C15.22496,15 15.36832,15.224 15.36832,15.5 C15.36832,15.776 15.22496,16 15.04832,16 L15.04832,16 Z" id="Shape"></path>
            <path d="M13.76832,1 L1.60832,1 C1.43168,1 1.28832,0.776 1.28832,0.5 C1.28832,0.224 1.43104,0 1.60832,0 L13.76832,0 C13.94496,0 14.08832,0.224 14.08832,0.5 C14.08832,0.776 13.94496,1 13.76832,1 L13.76832,1 Z" id="Shape"></path>
            <path d="M11.52832,4 L3.84832,4 C3.67168,4 3.52832,3.776 3.52832,3.5 C3.52832,3.224 3.67104,3 3.84832,3 L11.52832,3 C11.70496,3 11.84832,3.224 11.84832,3.5 C11.84832,3.776 11.70496,4 11.52832,4 L11.52832,4 Z" id="Shape"></path>
            <path d="M15.04832,7 L0.32832,7 C0.15168,7 0.00832,6.776 0.00832,6.5 C0.00832,6.224 0.15168,6 0.32832,6 L15.04832,6 C15.22496,6 15.36832,6.224 15.36832,6.5 C15.36832,6.776 15.22496,7 15.04832,7 L15.04832,7 Z" id="Shape"></path>
            <path d="M10.88832,10 L4.48832,10 C4.31168,10 4.16832,9.776 4.16832,9.5 C4.16832,9.224 4.31168,9 4.48832,9 L10.88832,9 C11.06496,9 11.20832,9.224 11.20832,9.5 C11.20832,9.776 11.06496,10 10.88832,10 L10.88832,10 Z" id="Shape"></path>
            <path d="M2.88832,13 C2.71168,13 2.56832,12.776 2.56832,12.5 C2.56832,12.224 2.71168,12 2.88832,12 L12.48832,12 C12.66496,12 12.80832,12.224 12.80832,12.5 C12.80832,12.776 12.66496,13 12.48832,13 L2.88832,13 Z" id="Shape"></path>
        </g>
    </g>
</svg>