<?xml version="1.0" encoding="utf-8"?>
<!-- Generator: Adobe Illustrator 16.0.0, SVG Export Plug-In . SVG Version: 6.00 Build 0)  -->
<!DOCTYPE svg PUBLIC "-//W3C//DTD SVG 1.1//EN" "http://www.w3.org/Graphics/SVG/1.1/DTD/svg11.dtd">
<svg version="1.1" id="Outline_Version" xmlns="http://www.w3.org/2000/svg" xmlns:xlink="http://www.w3.org/1999/xlink" x="0px"
	 y="0px" width="24px" height="24px" viewBox="0 0 24 24" enable-background="new 0 0 24 24" xml:space="preserve" fill="#fff">
<g>
	<g>
		<path d="M23.513,23h-23c-0.276,0-0.5-0.224-0.5-0.5s0.224-0.5,0.5-0.5h23c0.276,0,0.5,0.224,0.5,0.5S23.789,23,23.513,23z"/>
	</g>
	<g>
		<path d="M21.513,2h-19c-0.276,0-0.5-0.224-0.5-0.5S2.236,1,2.513,1h19c0.276,0,0.5,0.224,0.5,0.5S21.789,2,21.513,2z"/>
	</g>
	<g>
		<path d="M18.013,5h-12c-0.276,0-0.5-0.224-0.5-0.5S5.736,4,6.013,4h12c0.276,0,0.5,0.224,0.5,0.5S18.289,5,18.013,5z"/>
	</g>
	<g>
		<path d="M20.513,8h-17c-0.276,0-0.5-0.224-0.5-0.5S3.236,7,3.513,7h17c0.276,0,0.5,0.224,0.5,0.5S20.789,8,20.513,8z"/>
	</g>
	<g>
		<path d="M23.513,11h-23c-0.276,0-0.5-0.224-0.5-0.5s0.224-0.5,0.5-0.5h23c0.276,0,0.5,0.224,0.5,0.5S23.789,11,23.513,11z"/>
	</g>
	<g>
		<path d="M19.513,14h-15c-0.276,0-0.5-0.224-0.5-0.5s0.224-0.5,0.5-0.5h15c0.276,0,0.5,0.224,0.5,0.5S19.789,14,19.513,14z"/>
	</g>
	<g>
		<path d="M17.013,17h-10c-0.276,0-0.5-0.224-0.5-0.5s0.224-0.5,0.5-0.5h10c0.276,0,0.5,0.224,0.5,0.5S17.289,17,17.013,17z"/>
	</g>
	<g>
		<path d="M19.513,20h-15c-0.276,0-0.5-0.224-0.5-0.5s0.224-0.5,0.5-0.5h15c0.276,0,0.5,0.224,0.5,0.5S19.789,20,19.513,20z"/>
	</g>
</g>
</svg>
