<?xml version="1.0" encoding="UTF-8" standalone="no"?>
<svg width="16px" height="16px" viewBox="0 0 16 16" version="1.1" xmlns="http://www.w3.org/2000/svg" xmlns:xlink="http://www.w3.org/1999/xlink">
    <!-- Generator: Sketch 39.1 (31720) - http://www.bohemiancoding.com/sketch -->
    <title>align-right-w</title>
    <desc>Created with Sketch.</desc>
    <defs></defs>
    <g id="Page-1" stroke="none" stroke-width="1" fill="none" fill-rule="evenodd">
        <g id="align-right-w" fill="#FFFFFF">
            <path d="M15.04832,16 L0.32832,16 C0.15168,16 0.00832,15.776 0.00832,15.5 C0.00832,15.224 0.15168,15 0.32832,15 L15.04832,15 C15.22496,15 15.36832,15.224 15.36832,15.5 C15.36832,15.776 15.22496,16 15.04832,16 L15.04832,16 Z" id="Shape"></path>
            <path d="M15.04832,1 L2.88832,1 C2.71168,1 2.56832,0.776 2.56832,0.5 C2.56832,0.224 2.71104,0 2.88832,0 L15.04832,0 C15.22496,0 15.36832,0.224 15.36832,0.5 C15.36832,0.776 15.22496,1 15.04832,1 L15.04832,1 Z" id="Shape"></path>
            <path d="M15.04832,4 L4.80832,4 C4.63168,4 4.48832,3.776 4.48832,3.5 C4.48832,3.224 4.63104,3 4.80832,3 L15.04832,3 C15.22496,3 15.36832,3.224 15.36832,3.5 C15.36832,3.776 15.22496,4 15.04832,4 L15.04832,4 Z" id="Shape"></path>
            <path d="M15.04832,7 L0.32832,7 C0.15168,7 0.00832,6.776 0.00832,6.5 C0.00832,6.224 0.15168,6 0.32832,6 L15.04832,6 C15.22496,6 15.36832,6.224 15.36832,6.5 C15.36832,6.776 15.22496,7 15.04832,7 L15.04832,7 Z" id="Shape"></path>
            <path d="M15.04832,10 L2.88832,10 C2.71168,10 2.56832,9.776 2.56832,9.5 C2.56832,9.224 2.71168,9 2.88832,9 L15.04832,9 C15.22496,9 15.36832,9.224 15.36832,9.5 C15.36832,9.776 15.22496,10 15.04832,10 L15.04832,10 Z" id="Shape"></path>
            <path d="M15.04832,13 L4.80832,13 C4.63168,13 4.48832,12.776 4.48832,12.5 C4.48832,12.224 4.63168,12 4.80832,12 L15.04832,12 C15.22496,12 15.36832,12.224 15.36832,12.5 C15.36832,12.776 15.22496,13 15.04832,13 L15.04832,13 Z" id="Shape"></path>
        </g>
    </g>
</svg>