<?xml version="1.0" encoding="UTF-8" standalone="no"?>
<svg width="16px" height="16px" viewBox="0 0 16 16" version="1.1" xmlns="http://www.w3.org/2000/svg" xmlns:xlink="http://www.w3.org/1999/xlink">
    <!-- Generator: Sketch 39.1 (31720) - http://www.bohemiancoding.com/sketch -->
    <title>align-left</title>
    <desc>Created with Sketch.</desc>
    <defs></defs>
    <g id="Page-1" stroke="none" stroke-width="1" fill="none" fill-rule="evenodd">
        <g id="align-left" fill="#000000">
            <path d="M15.04832,16 L0.32832,16 C0.15168,16 0.00832,15.776 0.00832,15.5 C0.00832,15.224 0.15168,15 0.32832,15 L15.04832,15 C15.22496,15 15.36832,15.224 15.36832,15.5 C15.36832,15.776 15.22496,16 15.04832,16 L15.04832,16 Z" id="Shape"></path>
            <path d="M13.12832,1 L0.32832,1 C0.15168,1 0.00832,0.776 0.00832,0.5 C0.00832,0.224 0.15104,0 0.32832,0 L13.12832,0 C13.30496,0 13.44832,0.224 13.44832,0.5 C13.44832,0.776 13.30496,1 13.12832,1 L13.12832,1 Z" id="Shape"></path>
            <path d="M10.56832,4 L0.32832,4 C0.15168,4 0.00832,3.776 0.00832,3.5 C0.00832,3.224 0.15104,3 0.32832,3 L10.56832,3 C10.74496,3 10.88832,3.224 10.88832,3.5 C10.88832,3.776 10.74496,4 10.56832,4 L10.56832,4 Z" id="Shape"></path>
            <path d="M15.04832,7 L0.32832,7 C0.15168,7 0.00832,6.776 0.00832,6.5 C0.00832,6.224 0.15168,6 0.32832,6 L15.04832,6 C15.22496,6 15.36832,6.224 15.36832,6.5 C15.36832,6.776 15.22496,7 15.04832,7 L15.04832,7 Z" id="Shape"></path>
            <path d="M12.48832,10 L0.32832,10 C0.15168,10 0.00832,9.776 0.00832,9.5 C0.00832,9.224 0.15168,9 0.32832,9 L12.48832,9 C12.66496,9 12.80832,9.224 12.80832,9.5 C12.80832,9.776 12.66496,10 12.48832,10 L12.48832,10 Z" id="Shape"></path>
            <path d="M10.56832,13 L0.32832,13 C0.15168,13 0.00832,12.776 0.00832,12.5 C0.00832,12.224 0.15168,12 0.32832,12 L10.56832,12 C10.74496,12 10.88832,12.224 10.88832,12.5 C10.88832,12.776 10.74496,13 10.56832,13 L10.56832,13 Z" id="Shape"></path>
        </g>
    </g>
</svg>