<?xml version="1.0" encoding="UTF-8" standalone="no"?>
<svg width="60px" height="60px" viewBox="0 0 60 60" version="1.1" xmlns="http://www.w3.org/2000/svg" xmlns:xlink="http://www.w3.org/1999/xlink" xmlns:sketch="http://www.bohemiancoding.com/sketch/ns">
    <!-- Generator: Sketch 3.4.2 (15855) - http://www.bohemiancoding.com/sketch -->
    <title>Group</title>
    <desc>Created with Sketch.</desc>
    <defs></defs>
    <g id="Page-1" stroke="none" stroke-width="1" fill="none" fill-rule="evenodd" sketch:type="MSPage">
        <g id="Group" sketch:type="MSLayerGroup" transform="translate(1.000000, 1.000000)" stroke="#999999">
            <path d="M52.75,10.25 L52.75,47.75 M10.25,5.25 L47.75,5.25 M5.25,47.75 L5.25,10.25 M47.75,52.75 L10.25,52.75" id="Shape" sketch:type="MSShapeGroup"></path>
            <path d="M0.25,0.25 L10.25,0.25 L10.25,10.25 L0.25,10.25 L0.25,0.25 Z M47.75,0.25 L57.75,0.25 L57.75,10.25 L47.75,10.25 L47.75,0.25 Z M0.25,47.75 L10.25,47.75 L10.25,57.75 L0.25,57.75 L0.25,47.75 Z M47.75,47.75 L57.75,47.75 L57.75,57.75 L47.75,57.75 L47.75,47.75 Z" id="Shape" sketch:type="MSShapeGroup"></path>
        </g>
    </g>
</svg>