<?xml version="1.0" encoding="utf-8"?>
<!-- Generator: Adobe Illustrator 16.0.0, SVG Export Plug-In . SVG Version: 6.00 Build 0)  -->
<!DOCTYPE svg PUBLIC "-//W3C//DTD SVG 1.1//EN" "http://www.w3.org/Graphics/SVG/1.1/DTD/svg11.dtd">
<svg version="1.1" id="Outline_Version" xmlns="http://www.w3.org/2000/svg" xmlns:xlink="http://www.w3.org/1999/xlink" x="0px"
	 y="0px" width="24px" height="24px" viewBox="0 0 24 24" enable-background="new 0 0 24 24" xml:space="preserve" fill="#fff">
<path d="M16.021,11.184c1.786-1.041,2.992-2.972,2.992-5.184c0-3.309-2.691-6-6-6h-9.5c-0.276,0-0.5,0.224-0.5,0.5S3.236,1,3.513,1
	h2.5v22h-2.5c-0.276,0-0.5,0.224-0.5,0.5s0.224,0.5,0.5,0.5h11c3.584,0,6.5-2.916,6.5-6.5
	C21.013,14.436,18.879,11.866,16.021,11.184z M13.013,1c2.757,0,5,2.243,5,5s-2.243,5-5,5h-2h-4V1H13.013z M14.513,23h-7.5V12h4h2
	h1.5c3.032,0,5.5,2.467,5.5,5.5S17.545,23,14.513,23z"/>
</svg>
