<?xml version="1.0" encoding="UTF-8" standalone="no"?>
<svg width="12px" height="16px" viewBox="0 0 12 16" version="1.1" xmlns="http://www.w3.org/2000/svg" xmlns:xlink="http://www.w3.org/1999/xlink">
    <!-- Generator: Sketch 39.1 (31720) - http://www.bohemiancoding.com/sketch -->
    <title>bold-w</title>
    <desc>Created with Sketch.</desc>
    <defs></defs>
    <g id="Page-1" stroke="none" stroke-width="1" fill="none" fill-rule="evenodd">
        <path d="M0,16 L0,0.0903954802 L6.61200898,0 C8.26058164,0 9.49364188,0.314874441 10.3112267,0.944632768 C11.1288115,1.5743911 11.5375978,2.50575655 11.5375978,3.73875706 L11.5375978,4.49446328 C11.5375978,5.28994748 11.3533089,5.90312402 10.9847256,6.3340113 C10.6161423,6.76489858 10.0431713,7.05325727 9.2657956,7.19909605 L9.2657956,7.77581921 C10.1235895,7.8686257 10.7937309,8.18681461 11.27624,8.73039548 C11.7587491,9.27397635 12,9.95675672 12,10.7787571 L12,11.7731073 C12,13.1386886 11.5510052,14.169488 10.6530022,14.8655367 C9.75499925,15.5615854 8.40801497,15.9096045 6.61200898,15.9096045 L0,16 Z M2.94027495,6.52293785 L6.2099201,6.52293785 C6.96048976,6.52293785 7.4932522,6.39698808 7.8082234,6.14508475 C8.1231946,5.89318141 8.28067784,5.4623006 8.28067784,4.85242938 L8.28067784,4.05694915 C8.28067784,3.44707793 8.1231946,3.01951158 7.8082234,2.77423729 C7.4932522,2.52896299 6.96048976,2.40632768 6.2099201,2.40632768 L2.94027495,2.40632768 L2.94027495,6.52293785 Z M2.94027495,13.5032768 L6.23002454,13.5032768 C7.12802753,13.5032768 7.76131119,13.3574403 8.12989451,13.0657627 C8.49847783,12.7740852 8.68276672,12.276915 8.68276672,11.5742373 L8.68276672,10.699209 C8.68276672,9.98327326 8.49847783,9.47947415 8.12989451,9.18779661 C7.76131119,8.89611907 7.12802753,8.75028249 6.23002454,8.75028249 L2.94027495,8.75028249 L2.94027495,13.5032768 Z" id="bold-w" fill="#FFFFFF"></path>
    </g>
</svg>