<?xml version="1.0" encoding="utf-8"?>
<!-- Generator: Adobe Illustrator 16.0.0, SVG Export Plug-In . SVG Version: 6.00 Build 0)  -->
<!DOCTYPE svg PUBLIC "-//W3C//DTD SVG 1.1//EN" "http://www.w3.org/Graphics/SVG/1.1/DTD/svg11.dtd">
<svg version="1.1" id="Outline_Version" xmlns="http://www.w3.org/2000/svg" xmlns:xlink="http://www.w3.org/1999/xlink" x="0px"
	 y="0px" width="24px" height="24px" viewBox="0 0 24 24" enable-background="new 0 0 24 24" xml:space="preserve">
<path d="M21.961,5.308c-0.025-0.061-0.062-0.116-0.108-0.162l-4.999-4.999c-0.046-0.046-0.101-0.083-0.162-0.108
	C16.632,0.014,16.567,0,16.5,0h-9C7.224,0,7,0.224,7,0.5V3H1.5C1.224,3,1,3.224,1,3.5v20C1,23.776,1.224,24,1.5,24h14
	c0.276,0,0.5-0.224,0.5-0.5V21h5.5c0.276,0,0.5-0.224,0.5-0.5v-15C22,5.433,21.986,5.368,21.961,5.308z M17,1.707L20.293,5H17V1.707
	z M15,23H2V4h8v4.5C10,8.776,10.224,9,10.5,9H15V23z M14.293,8H11V4.707L14.293,8z M16,20V8.5c0-0.067-0.014-0.132-0.039-0.192
	c-0.025-0.061-0.062-0.116-0.108-0.162l-4.999-4.999c-0.046-0.046-0.101-0.083-0.162-0.108C10.632,3.014,10.567,3,10.5,3H8V1h8v4.5
	C16,5.776,16.224,6,16.5,6H21v14H16z"/>
</svg>
