<?xml version="1.0" encoding="utf-8"?>
<!-- Generator: Adobe Illustrator 16.0.0, SVG Export Plug-In . SVG Version: 6.00 Build 0)  -->
<!DOCTYPE svg PUBLIC "-//W3C//DTD SVG 1.1//EN" "http://www.w3.org/Graphics/SVG/1.1/DTD/svg11.dtd">
<svg version="1.1" id="Outline_Version" xmlns="http://www.w3.org/2000/svg" xmlns:xlink="http://www.w3.org/1999/xlink" x="0px"
	 y="0px" width="24px" height="24px" viewBox="0 0 24 24" enable-background="new 0 0 24 24" xml:space="preserve" fill="#fff">
<path d="M23.643,17.657l-9.51-5.663l9.51-5.652c0.236-0.141,0.314-0.446,0.175-0.684c-0.696-1.182-2.405-1.625-3.59-0.927
	L8.875,11.414L5.826,9.617C7.191,8.979,8.145,7.603,8.145,6c0-2.206-1.794-4-4-4s-4,1.794-4,4s1.794,4,4,4
	c0.106,0,0.206-0.023,0.311-0.031l3.435,2.025l-3.458,2.036C4.335,14.022,4.243,14,4.145,14c-2.206,0-4,1.794-4,4s1.794,4,4,4
	s4-1.794,4-4c0-1.608-0.959-2.989-2.331-3.624l3.062-1.802l11.353,6.693c0.376,0.222,0.818,0.335,1.275,0.335
	c0.233,0,0.47-0.029,0.703-0.09c0.69-0.178,1.277-0.605,1.611-1.172C23.957,18.103,23.879,17.798,23.643,17.657z M1.145,6
	c0-1.654,1.346-3,3-3s3,1.346,3,3s-1.346,3-3,3S1.145,7.654,1.145,6z M7.145,18c0,1.654-1.346,3-3,3s-3-1.346-3-3s1.346-3,3-3
	S7.145,16.346,7.145,18z M20.735,5.593c0.571-0.336,1.371-0.229,1.889,0.191l-9.469,5.628l-1.146-0.683L20.735,5.593z
	 M21.956,18.544c-0.436,0.114-0.88,0.062-1.221-0.139L9.859,11.994l1.166-0.686l1.804,1.074c0.03,0.024,0.063,0.041,0.097,0.058
	l9.697,5.774C22.437,18.365,22.208,18.479,21.956,18.544z"/>
</svg>
