<?xml version="1.0" encoding="UTF-8" standalone="no"?>
<svg width="24px" height="24px" viewBox="0 0 24 24" version="1.1" xmlns="http://www.w3.org/2000/svg" xmlns:xlink="http://www.w3.org/1999/xlink" xmlns:sketch="http://www.bohemiancoding.com/sketch/ns">
    <!-- Generator: Sketch 3.3.3 (12072) - http://www.bohemiancoding.com/sketch -->
    <title>file-download</title>
    <desc>Created with Sketch.</desc>
    <defs></defs>
    <g id="Page-1" stroke="none" stroke-width="1" fill="none" fill-rule="evenodd" sketch:type="MSPage">
        <g id="file-download" sketch:type="MSLayerGroup" fill="#444">
            <g id="Group" sketch:type="MSShapeGroup">
                <path d="M1,1 L11,1 L11,5.5 C11,5.776 11.224,6 11.5,6 L16,6 L16,9.5 L17,9.5 L17,5.502 L17,5.501 L17,5.5 C17,5.446 16.985,5.398 16.97,5.35 C16.966,5.337 16.967,5.323 16.962,5.311 C16.936,5.247 16.896,5.19 16.847,5.142 L11.854,0.148 C11.808,0.102 11.753,0.065 11.692,0.04 C11.632,0.014 11.567,0 11.5,0 L0.5,0 C0.224,0 0,0.224 0,0.5 L0,21.5 C0,21.776 0.224,22 0.5,22 L10.5,22 L10.5,21 L1,21 L1,1 L1,1 Z M12,1.707 L15.292,5 L12,5 L12,1.707 L12,1.707 Z" id="Shape"></path>
                <path d="M17.5,11 C13.916,11 11,13.916 11,17.5 C11,21.084 13.916,24 17.5,24 C21.084,24 24,21.084 24,17.5 C24,13.916 21.084,11 17.5,11 L17.5,11 Z M17.5,23 C14.467,23 12,20.532 12,17.5 C12,14.468 14.467,12 17.5,12 C20.533,12 23,14.468 23,17.5 C23,20.532 20.533,23 17.5,23 L17.5,23 Z" id="Shape"></path>
                <path d="M19.328,17.692 L18,19.021 L18,14.772 C18,14.496 17.776,14.272 17.5,14.272 C17.224,14.272 17,14.496 17,14.772 L17,19.021 L15.672,17.693 C15.477,17.498 15.16,17.498 14.965,17.693 C14.77,17.888 14.77,18.205 14.965,18.4 L17.147,20.582 C17.245,20.68 17.373,20.728 17.501,20.728 C17.629,20.728 17.757,20.679 17.855,20.582 L20.037,18.4 C20.232,18.205 20.232,17.888 20.037,17.693 C19.842,17.498 19.523,17.497 19.328,17.692 L19.328,17.692 Z" id="Shape"></path>
            </g>
        </g>
    </g>
</svg>
