<?xml version="1.0" encoding="utf-8"?>
<!-- Generator: Adobe Illustrator 16.0.0, SVG Export Plug-In . SVG Version: 6.00 Build 0)  -->
<!DOCTYPE svg PUBLIC "-//W3C//DTD SVG 1.1//EN" "http://www.w3.org/Graphics/SVG/1.1/DTD/svg11.dtd">
<svg version="1.1" id="Outline_Version" xmlns="http://www.w3.org/2000/svg" xmlns:xlink="http://www.w3.org/1999/xlink" x="0px"
	 y="0px" width="24px" height="24px" viewBox="0 0 24 24" enable-background="new 0 0 24 24" xml:space="preserve" fill="#fff">
<g>
	<g>
		<path d="M20.5,24h-18C2.224,24,2,23.776,2,23.5v-21C2,2.224,2.224,2,2.5,2h2C4.776,2,5,2.224,5,2.5S4.776,3,4.5,3H3v20h17V3h-1.5
			C18.224,3,18,2.776,18,2.5S18.224,2,18.5,2h2C20.776,2,21,2.224,21,2.5v21C21,23.776,20.776,24,20.5,24z"/>
	</g>
	<g>
		<path d="M16.5,5h-10C6.224,5,6,4.776,6,4.5v-2C6,2.224,6.224,2,6.5,2h2.55c0.232-1.14,1.243-2,2.45-2s2.218,0.86,2.45,2h2.55
			C16.776,2,17,2.224,17,2.5v2C17,4.776,16.776,5,16.5,5z M7,4h9V3h-2.5C13.224,3,13,2.776,13,2.5C13,1.673,12.327,1,11.5,1
			S10,1.673,10,2.5C10,2.776,9.776,3,9.5,3H7V4z"/>
	</g>
	<g>
		<path d="M18.5,22h-14C4.224,22,4,21.776,4,21.5v-17C4,4.224,4.224,4,4.5,4S5,4.224,5,4.5V21h13V4.5C18,4.224,18.224,4,18.5,4
			S19,4.224,19,4.5v17C19,21.776,18.776,22,18.5,22z"/>
	</g>
	<g>
		<path d="M15.5,9h-6C9.224,9,9,8.776,9,8.5S9.224,8,9.5,8h6C15.776,8,16,8.224,16,8.5S15.776,9,15.5,9z"/>
	</g>
	<g>
		<path d="M15.5,12h-6C9.224,12,9,11.776,9,11.5S9.224,11,9.5,11h6c0.276,0,0.5,0.224,0.5,0.5S15.776,12,15.5,12z"/>
	</g>
	<g>
		<path d="M15.5,15h-6C9.224,15,9,14.776,9,14.5S9.224,14,9.5,14h6c0.276,0,0.5,0.224,0.5,0.5S15.776,15,15.5,15z"/>
	</g>
	<g>
		<path d="M15.5,18h-6C9.224,18,9,17.776,9,17.5S9.224,17,9.5,17h6c0.276,0,0.5,0.224,0.5,0.5S15.776,18,15.5,18z"/>
	</g>
	<g>
		<path d="M7.5,9H7C6.724,9,6.5,8.776,6.5,8.5S6.724,8,7,8h0.5C7.776,8,8,8.224,8,8.5S7.776,9,7.5,9z"/>
	</g>
	<g>
		<path d="M7.5,12H7c-0.276,0-0.5-0.224-0.5-0.5S6.724,11,7,11h0.5C7.776,11,8,11.224,8,11.5S7.776,12,7.5,12z"/>
	</g>
	<g>
		<path d="M7.5,15H7c-0.276,0-0.5-0.224-0.5-0.5S6.724,14,7,14h0.5C7.776,14,8,14.224,8,14.5S7.776,15,7.5,15z"/>
	</g>
	<g>
		<path d="M7.5,18H7c-0.276,0-0.5-0.224-0.5-0.5S6.724,17,7,17h0.5C7.776,17,8,17.224,8,17.5S7.776,18,7.5,18z"/>
	</g>
</g>
</svg>
