<?xml version="1.0" encoding="UTF-8" standalone="no"?>
<svg width="24px" height="24px" viewBox="0 0 24 24" version="1.1" xmlns="http://www.w3.org/2000/svg" xmlns:xlink="http://www.w3.org/1999/xlink" xmlns:sketch="http://www.bohemiancoding.com/sketch/ns">
    <!-- Generator: Sketch 3.3.3 (12072) - http://www.bohemiancoding.com/sketch -->
    <title>zoom-in</title>
    <desc>Created with Sketch.</desc>
    <defs></defs>
    <g id="Page-1" stroke="none" stroke-width="1" fill="none" fill-rule="evenodd" sketch:type="MSPage">
        <g id="zoom-in" sketch:type="MSLayerGroup" fill="#fff">
            <g id="Group" sketch:type="MSShapeGroup">
                <path d="M23.854,23.146 L14.845,14.136 C16.181,12.635 17,10.663 17,8.5 C17,3.813 13.187,0 8.5,0 C3.813,0 0,3.813 0,8.5 C0,13.187 3.813,17 8.5,17 C10.664,17 12.636,16.181 14.138,14.844 L23.147,23.854 C23.244,23.951 23.372,24 23.5,24 C23.628,24 23.756,23.951 23.854,23.854 C24.049,23.658 24.049,23.342 23.854,23.146 L23.854,23.146 Z M1,8.5 C1,4.364 4.364,1 8.5,1 C12.636,1 16,4.364 16,8.5 C16,12.636 12.636,16 8.5,16 C4.364,16 1,12.636 1,8.5 L1,8.5 Z" id="Shape"></path>
                <path d="M12,8 L9,8 L9,5 C9,4.724 8.776,4.5 8.5,4.5 C8.224,4.5 8,4.724 8,5 L8,8 L5,8 C4.724,8 4.5,8.224 4.5,8.5 C4.5,8.776 4.724,9 5,9 L8,9 L8,12 C8,12.276 8.224,12.5 8.5,12.5 C8.776,12.5 9,12.276 9,12 L9,9 L12,9 C12.276,9 12.5,8.776 12.5,8.5 C12.5,8.224 12.276,8 12,8 L12,8 Z" id="Shape"></path>
            </g>
        </g>
    </g>
</svg>
