<?xml version="1.0" standalone="no"?>
<!DOCTYPE svg PUBLIC "-//W3C//DTD SVG 1.1//EN" "http://www.w3.org/Graphics/SVG/1.1/DTD/svg11.dtd" >
<svg>
<metadata>
Created by FontForge 20090622 at Wed Apr  8 19:55:35 2015
 By deploy user
Copyright &#194;&#169; 2015 Monotype Imaging Inc.  All rights reserved.
</metadata>
<defs>
<font id="NeueHaasUnicaPro-Regular" horiz-adv-x="576" >
  <font-face 
    font-family="Neue Haas Unica Pro"
    font-weight="400"
    font-variant="small-caps"
    font-stretch="normal"
    units-per-em="1000"
    panose-1="2 11 5 4 3 2 6 2 2 3"
    ascent="764"
    descent="-236"
    x-height="508"
    cap-height="712"
    bbox="-156 -275 984 953"
    underline-thickness="50"
    underline-position="-75"
    unicode-range="U+0020-U+FEFF"
  />
<missing-glyph horiz-adv-x="623" 
d="M151 777h321q61 0 96 -35t35 -96v-580q0 -61 -35 -96t-96 -35h-321q-60 0 -95.5 35t-35.5 96v580q0 61 35.5 96t95.5 35zM472 728h-321q-38 0 -60 -22t-22 -60v-580q0 -38 22 -60t60 -22h321q38 0 60 22t22 60v580q0 38 -22 60t-60 22zM309 646q77 0 124 -40t47 -107
q0 -42 -16 -71t-64 -72q-43 -38 -55.5 -65.5t-12.5 -88.5h-72v27q0 60 14.5 92t61.5 76q36 34 46.5 53.5t10.5 47.5q0 35 -22.5 55.5t-61.5 20.5q-89 0 -94 -98h-84q4 83 50 126.5t128 43.5zM343 65h-94v91h94v-91z" />
    <glyph glyph-name="f_f" unicode="ff" horiz-adv-x="578" 
d="M536 647q-38 0 -56 -20t-18 -66v-53h101v-70h-101v-438h-87v438h-186v-438h-87v438h-89v70h89v63q0 146 139 146q31 0 51 -5v-68q-9 3 -29 3q-38 0 -56 -20t-18 -66v-53h186v63q0 146 139 146q29 0 51 -5v-68q-10 3 -29 3z" />
    <glyph glyph-name="f_f_i" unicode="ffi" horiz-adv-x="822" 
d="M375 508v63q0 146 139 146q29 0 51 -5v-68q-10 3 -29 3q-38 0 -56 -20t-18 -66v-53h101v-70h-101v-438h-87v438h-186v-438h-87v438h-89v70h89v63q0 146 139 146q31 0 51 -5v-68q-9 3 -29 3q-38 0 -56 -20t-18 -66v-53h186zM744 712v-99h-88v99h88zM656 508h88v-508h-88
v508z" />
    <glyph glyph-name="f_f_l" unicode="ffl" horiz-adv-x="822" 
d="M375 508v63q0 146 139 146q29 0 51 -5v-68q-10 3 -29 3q-38 0 -56 -20t-18 -66v-53h101v-70h-101v-438h-87v438h-186v-438h-87v438h-89v70h89v63q0 146 139 146q31 0 51 -5v-68q-9 3 -29 3q-38 0 -56 -20t-18 -66v-53h186zM744 712v-712h-88v712h88z" />
    <glyph glyph-name="f_i" unicode="fi" horiz-adv-x="549" 
d="M102 508v63q0 146 139 146q31 0 51 -5v-68q-9 3 -29 3q-38 0 -56 -20t-18 -66v-53h101v-70h-101v-438h-87v438h-89v70h89zM471 712v-99h-88v99h88zM383 508h88v-508h-88v508z" />
    <glyph glyph-name="f_l" unicode="fl" horiz-adv-x="549" 
d="M102 508v63q0 146 139 146q31 0 51 -5v-68q-9 3 -29 3q-38 0 -56 -20t-18 -66v-53h101v-70h-101v-438h-87v438h-89v70h89zM471 712v-712h-88v712h88z" />
    <glyph glyph-name=".notdef" horiz-adv-x="623" 
d="M151 777h321q61 0 96 -35t35 -96v-580q0 -61 -35 -96t-96 -35h-321q-60 0 -95.5 35t-35.5 96v580q0 61 35.5 96t95.5 35zM472 728h-321q-38 0 -60 -22t-22 -60v-580q0 -38 22 -60t60 -22h321q38 0 60 22t22 60v580q0 38 -22 60t-60 22zM309 646q77 0 124 -40t47 -107
q0 -42 -16 -71t-64 -72q-43 -38 -55.5 -65.5t-12.5 -88.5h-72v27q0 60 14.5 92t61.5 76q36 34 46.5 53.5t10.5 47.5q0 35 -22.5 55.5t-61.5 20.5q-89 0 -94 -98h-84q4 83 50 126.5t128 43.5zM343 65h-94v91h94v-91z" />
    <glyph glyph-name=".null" horiz-adv-x="0" 
 />
    <glyph glyph-name="nonmarkingreturn" horiz-adv-x="333" 
 />
    <glyph glyph-name="space" unicode=" " horiz-adv-x="230" 
 />
    <glyph glyph-name="exclam" unicode="!" horiz-adv-x="275" 
d="M173 175h-71l-21 537h113zM190 0h-104v106h104v-106z" />
    <glyph glyph-name="quotedbl" unicode="&#x22;" horiz-adv-x="372" 
d="M143 449h-64l-11 263h86zM293 449h-64l-11 263h87z" />
    <glyph glyph-name="numbersign" unicode="#" horiz-adv-x="649" 
d="M486 420l-26 -164h118l-11 -65h-118l-30 -191h-76l30 191h-144l-30 -191h-76l30 191h-118l10 65h119l26 164h-119l10 66h119l30 188h76l-30 -188h144l30 188h76l-30 -188h118l-11 -66h-117zM410 420h-144l-26 -164h144z" />
    <glyph glyph-name="dollar" unicode="$" horiz-adv-x="562" 
d="M520 180q0 -82 -56 -133.5t-152 -59.5v-86h-62v86q-100 8 -153.5 67.5t-54.5 165.5h89q0 -141 119 -158v248q-45 13 -73 24.5t-60 33.5t-47.5 56t-15.5 80q0 79 52 127.5t144 55.5v77h62v-77q194 -17 194 -221h-89q0 130 -105 147v-229q41 -11 64 -19t54.5 -24.5t48 -36
t29 -51.5t12.5 -73zM144 509q0 -46 25 -69t81 -39v213q-106 -11 -106 -105zM312 293v-232q58 6 88 36t30 80q0 49 -28 73t-90 43z" />
    <glyph glyph-name="percent" unicode="%" horiz-adv-x="864" 
d="M277 -30h-68l378 734h68zM198 688q74 0 113.5 -49.5t39.5 -140.5t-39.5 -140.5t-113.5 -49.5t-113.5 49.5t-39.5 140.5t39.5 140.5t113.5 49.5zM198 626q-74 0 -74 -128t74 -128t74 128t-74 128zM666 366q74 0 113.5 -49.5t39.5 -140.5t-39.5 -140.5t-113.5 -49.5
t-113.5 49.5t-39.5 140.5t39.5 140.5t113.5 49.5zM666 304q-74 0 -74 -128t74 -128t74 128t-74 128z" />
    <glyph glyph-name="ampersand" unicode="&#x26;" horiz-adv-x="734" 
d="M606 0l-79 80q-87 -95 -225 -95q-113 0 -180.5 56.5t-67.5 147.5q0 137 158 213q-48 50 -65 84.5t-17 81.5q0 70 49 114t128 44q80 0 127.5 -43t47.5 -112q0 -60 -30.5 -103t-104.5 -84l176 -177q44 77 44 192h90q-2 -151 -72 -254l144 -145h-123zM307 650
q-42 0 -66 -22.5t-24 -62.5q0 -32 15.5 -58.5t61.5 -72.5q58 31 80 62.5t22 69.5t-24 61t-65 23zM308 64q94 0 163 72l-207 210q-64 -33 -89.5 -68.5t-25.5 -84.5q0 -56 43.5 -92.5t115.5 -36.5z" />
    <glyph glyph-name="quotesingle" unicode="'" horiz-adv-x="222" 
d="M143 449h-64l-11 263h86z" />
    <glyph glyph-name="parenleft" unicode="(" horiz-adv-x="292" 
d="M186 741h76q-60 -110 -87.5 -215t-27.5 -229q0 -123 27.5 -228.5t87.5 -215.5h-76q-135 200 -135 444q0 246 135 444z" />
    <glyph glyph-name="parenright" unicode=")" horiz-adv-x="292" 
d="M30 741h77q135 -200 135 -444q0 -242 -135 -444h-77q60 110 87.5 215.5t27.5 228.5q0 124 -27.5 229t-87.5 215z" />
    <glyph glyph-name="asterisk" unicode="*" horiz-adv-x="407" 
d="M227 575l124 57l25 -76l-133 -24l91 -99l-64 -48l-66 121l-66 -121l-65 48l91 99l-133 24l25 76l124 -57l-16 137h79z" />
    <glyph glyph-name="plus" unicode="+" horiz-adv-x="566" 
d="M319 353h176v-73h-176v-175h-72v175h-176v73h176v176h72v-176z" />
    <glyph glyph-name="comma" unicode="," horiz-adv-x="226" 
d="M167 0l-52 -144h-58l38 144h-36v117h108v-117z" />
    <glyph glyph-name="hyphen" unicode="-" horiz-adv-x="300" 
d="M270 253h-240v78h240v-78z" />
    <glyph glyph-name="period" unicode="." horiz-adv-x="226" 
d="M167 0h-108v117h108v-117z" />
    <glyph glyph-name="slash" unicode="/" horiz-adv-x="457" 
d="M109 -89h-79l297 834h79z" />
    <glyph glyph-name="zero" unicode="0" horiz-adv-x="562" 
d="M281 688q118 0 181 -90.5t63 -260.5t-63 -260.5t-181 -90.5t-181 90.5t-63 260.5t63 260.5t181 90.5zM281 607q-72 0 -110 -69t-38 -201q0 -133 38 -202.5t110 -69.5q73 0 111 69.5t38 202.5q0 132 -38 201t-111 69z" />
    <glyph glyph-name="one" unicode="1" horiz-adv-x="562" 
d="M347 0h-91v491h-151v70q79 0 116.5 26t47.5 87h78v-674z" />
    <glyph glyph-name="two" unicode="2" horiz-adv-x="562" 
d="M281 688q97 0 156 -51.5t59 -136.5q0 -43 -12.5 -77t-40.5 -62.5t-56.5 -49t-75.5 -47.5q-97 -56 -129.5 -95.5t-33.5 -89.5h364v-79h-465q-1 7 -1 20q0 101 39.5 164.5t159.5 133.5q87 51 121 86.5t34 93.5q0 49 -32.5 79.5t-87.5 30.5q-123 0 -131 -132h-94
q4 100 64.5 156t161.5 56z" />
    <glyph glyph-name="three" unicode="3" horiz-adv-x="562" 
d="M277 688q102 0 161.5 -50t59.5 -134q0 -114 -117 -157v-2q66 -22 97 -62.5t31 -105.5q0 -85 -64 -138t-167 -53q-111 0 -172 57t-61 160h93q0 -67 36 -102.5t104 -35.5q61 0 99 32t38 83q0 59 -41 90.5t-119 31.5h-27v77h27q69 0 109.5 31.5t40.5 85.5q0 51 -36 82
t-96 31q-129 0 -129 -134h-93q0 100 60.5 156.5t165.5 56.5z" />
    <glyph glyph-name="four" unicode="4" horiz-adv-x="562" 
d="M538 174h-110v-174h-91v174h-318v83l286 417h123v-424h110v-76zM107 250h231v92q0 125 3 251h-2l-155 -232z" />
    <glyph glyph-name="five" unicode="5" horiz-adv-x="562" 
d="M478 596h-305l-20 -209h2q48 56 136 56q99 0 158.5 -60.5t59.5 -161.5q0 -107 -64.5 -171t-171.5 -64q-100 0 -159.5 52t-59.5 141h94q1 -53 35.5 -83t89.5 -30q65 0 103 40.5t38 111.5q0 69 -36.5 108t-99.5 39q-103 0 -128 -95l-91 6l37 398h382v-78z" />
    <glyph glyph-name="six" unicode="6" horiz-adv-x="562" 
d="M300 688q90 0 145 -49.5t63 -137.5h-94q-18 107 -117 107q-73 0 -115.5 -63t-45.5 -192h2q59 86 166 86q95 0 154 -61t59 -160q0 -104 -63.5 -168t-166.5 -64q-116 0 -177 82t-61 243q0 183 65.5 280t185.5 97zM288 364q-61 0 -98.5 -41.5t-37.5 -106.5
q0 -69 36.5 -109.5t98.5 -40.5q61 0 98 41t37 109q0 66 -36.5 107t-97.5 41z" />
    <glyph glyph-name="seven" unicode="7" horiz-adv-x="562" 
d="M509 674v-81q-172 -249 -240 -593h-101q80 357 248 594h-373v80h466z" />
    <glyph glyph-name="eight" unicode="8" horiz-adv-x="562" 
d="M281 688q98 0 160.5 -51.5t62.5 -133.5q0 -54 -31.5 -93t-86.5 -60v-2q63 -19 97 -61.5t34 -104.5q0 -88 -65.5 -142t-170.5 -54t-170 54t-65 142q0 62 34 104.5t96 61.5v2q-55 21 -86 60.5t-31 92.5q0 82 62.5 133.5t159.5 51.5zM281 609q-59 0 -95 -30t-36 -79
q0 -52 35.5 -83t95.5 -31t95.5 31t35.5 83q0 49 -36 79t-95 30zM281 308q-63 0 -102.5 -33.5t-39.5 -86.5q0 -55 39 -88.5t103 -33.5t103 33.5t39 88.5q0 53 -39.5 86.5t-102.5 33.5z" />
    <glyph glyph-name="nine" unicode="9" horiz-adv-x="562" 
d="M255 -14q-90 0 -145 49.5t-63 137.5h94q18 -107 117 -107q73 0 115.5 63t45.5 192h-2q-59 -86 -166 -86q-95 0 -154 61t-59 160q0 104 63.5 168t166.5 64q116 0 177 -82t61 -243q0 -183 -65.5 -280t-185.5 -97zM267 310q61 0 98.5 41.5t37.5 106.5q0 69 -36.5 109.5
t-98.5 40.5q-61 0 -98 -41t-37 -109q0 -66 36.5 -107t97.5 -41z" />
    <glyph glyph-name="colon" unicode=":" horiz-adv-x="226" 
d="M167 391h-108v117h108v-117zM167 0h-108v117h108v-117z" />
    <glyph glyph-name="semicolon" unicode=";" horiz-adv-x="226" 
d="M167 391h-108v117h108v-117zM167 0l-52 -144h-58l38 144h-36v117h108v-117z" />
    <glyph glyph-name="less" unicode="&#x3c;" horiz-adv-x="566" 
d="M495 460l-342 -142v-2l342 -142v-80l-424 178v90l424 178v-80z" />
    <glyph glyph-name="equal" unicode="=" horiz-adv-x="566" 
d="M495 362h-424v74h424v-74zM495 197h-424v74h424v-74z" />
    <glyph glyph-name="greater" unicode="&#x3e;" horiz-adv-x="566" 
d="M495 362v-90l-424 -178v80l342 142v2l-342 142v80z" />
    <glyph glyph-name="question" unicode="?" horiz-adv-x="516" 
d="M260 726q98 0 157.5 -50t59.5 -131q0 -54 -20.5 -90.5t-85.5 -90.5q-58 -47 -74.5 -83t-16.5 -116h-78v30q0 78 19.5 119t81.5 95q50 44 65 70t15 64q0 47 -33 75t-90 28q-128 0 -135 -129h-92q5 102 64 155.5t163 53.5zM293 0h-104v106h104v-106z" />
    <glyph glyph-name="at" unicode="@" horiz-adv-x="868" 
d="M444 693q171 0 273 -100t102 -266q0 -122 -54 -187t-135 -65q-94 0 -111 90h-2q-43 -90 -137 -90q-69 0 -108 50t-40 144q1 111 54 180t135 69q86 0 116 -79h2q6 39 13 69h76q-42 -196 -42 -293q0 -74 56 -74q47 0 79 47.5t32 138.5q0 137 -84 220t-225 83
q-154 0 -241.5 -100.5t-87.5 -253.5q0 -149 85 -234t229 -85q128 0 220 56l30 -56q-104 -63 -250 -63q-175 0 -278 102t-103 280t107.5 297.5t288.5 119.5zM433 448q-52 0 -85.5 -48.5t-33.5 -129.5q0 -60 23 -92t64 -32q49 0 82.5 49t33.5 143q0 52 -22 81t-62 29z" />
    <glyph glyph-name="A" unicode="A" horiz-adv-x="675" 
d="M495 212h-314l-78 -212h-98l270 712h125l271 -712h-99zM465 293l-23 65l-103 290h-2l-103 -290l-24 -65h255z" />
    <glyph glyph-name="B" unicode="B" horiz-adv-x="627" 
d="M95 712h232q119 0 179.5 -48.5t60.5 -132.5q0 -123 -118 -166v-2q64 -15 99 -58.5t35 -108.5q0 -90 -63 -143t-174 -53h-251v712zM187 634v-233h133q156 0 156 117q0 116 -152 116h-137zM187 324v-246h146q155 0 155 123t-168 123h-133z" />
    <glyph glyph-name="C" unicode="C" horiz-adv-x="689" 
d="M355 726q125 0 201 -71t82 -184h-95q-7 79 -57.5 125t-130.5 46q-101 0 -158.5 -76.5t-57.5 -209.5t57 -209.5t156 -76.5q79 0 131 47t63 128h96q-11 -120 -88 -189.5t-202 -69.5q-143 0 -226 99t-83 271t83.5 271t228.5 99z" />
    <glyph glyph-name="D" unicode="D" horiz-adv-x="723" 
d="M95 712h217q177 0 273 -92.5t96 -263.5t-96 -263.5t-273 -92.5h-217v712zM187 630v-548h124q133 0 203 70t70 204t-70 204t-203 70h-124z" />
    <glyph glyph-name="E" unicode="E" horiz-adv-x="618" 
d="M554 630h-367v-225h346v-81h-346v-242h378v-82h-470v712h459v-82z" />
    <glyph glyph-name="F" unicode="F" horiz-adv-x="573" 
d="M541 630h-354v-243h332v-82h-332v-305h-92v712h446v-82z" />
    <glyph glyph-name="G" unicode="G" horiz-adv-x="731" 
d="M365 726q122 0 197.5 -61.5t85.5 -166.5h-98q-12 69 -60 106.5t-125 37.5q-105 0 -165.5 -77t-60.5 -211q0 -135 58.5 -211.5t160.5 -76.5q92 0 146.5 56.5t55.5 176.5h-196v79h284v-378h-82v98h-2q-29 -51 -89 -81t-135 -30q-137 0 -217 98.5t-80 268.5
q0 173 86.5 272.5t235.5 99.5z" />
    <glyph glyph-name="H" unicode="H" horiz-adv-x="737" 
d="M643 0h-93v329h-363v-329h-92v712h92v-302h363v302h93v-712z" />
    <glyph glyph-name="I" unicode="I" horiz-adv-x="282" 
d="M187 0h-92v712h92v-712z" />
    <glyph glyph-name="J" unicode="J" horiz-adv-x="356" 
d="M266 712v-508q0 -209 -201 -209q-31 0 -50 6v82q27 -5 43 -5q59 0 87.5 32t28.5 106v496h92z" />
    <glyph glyph-name="K" unicode="K" horiz-adv-x="625" 
d="M281 373l340 -373h-123l-309 350h-2v-350h-92v712h92v-321h2l287 321h116z" />
    <glyph glyph-name="L" unicode="L" horiz-adv-x="561" 
d="M187 82h364v-82h-456v712h92v-630z" />
    <glyph glyph-name="M" unicode="M" horiz-adv-x="934" 
d="M839 0h-90v362q0 90 2 272h-2l-97 -272l-132 -362h-106l-132 362l-97 272h-2q2 -182 2 -272v-362h-90v712h148l129 -351l94 -273h2l94 273l128 351h149v-712z" />
    <glyph glyph-name="N" unicode="N" horiz-adv-x="755" 
d="M661 0h-136l-169 307l-172 319h-2q3 -171 3 -341v-285h-90v712h135l170 -307l172 -319h2q-3 171 -3 341v285h90v-712z" />
    <glyph glyph-name="O" unicode="O" horiz-adv-x="732" 
d="M366 726q149 0 236 -100t87 -270t-87 -270t-236 -100t-236 100t-87 270t87 270t236 100zM366 642q-105 0 -166 -77t-61 -209t61 -209t166 -77q104 0 165.5 77.5t61.5 208.5t-61.5 208.5t-165.5 77.5z" />
    <glyph glyph-name="P" unicode="P" horiz-adv-x="616" 
d="M95 712h244q121 0 185 -57.5t64 -157.5t-64 -157.5t-185 -57.5h-152v-282h-92v712zM187 632v-270h145q80 0 120.5 35.5t40.5 99.5t-40.5 99.5t-120.5 35.5h-145z" />
    <glyph glyph-name="Q" unicode="Q" horiz-adv-x="731" 
d="M688 356q0 -172 -87 -271l79 -87l-56 -53l-81 89q-76 -48 -175 -48q-150 0 -237.5 100t-87.5 270t87.5 270t237.5 100q148 0 234 -100t86 -270zM369 67q65 0 114 32l-94 103l57 52l93 -102q55 79 55 203q0 131 -61 209t-164 78q-106 0 -168 -77.5t-62 -209.5t62 -210
t168 -78z" />
    <glyph glyph-name="R" unicode="R" horiz-adv-x="640" 
d="M95 712h226q126 0 188 -50t62 -143q0 -68 -37 -116t-99 -62v-2q39 -12 61 -40t46 -94l73 -205h-100l-65 188q-22 64 -51.5 88t-86.5 24h-125v-300h-92v712zM187 633v-255h133q80 0 118.5 36.5t38.5 97.5q0 121 -163 121h-127z" />
    <glyph glyph-name="S" unicode="S" horiz-adv-x="609" 
d="M288 726q255 0 255 -234h-93q0 155 -163 155q-66 0 -103.5 -30t-37.5 -81q0 -53 38 -78t134 -49q48 -12 78 -21t65 -26t54 -37.5t32 -53t13 -75.5q0 -96 -69.5 -153t-185.5 -57q-126 0 -196 64t-70 186h95q0 -86 45 -128.5t127 -42.5q76 0 117.5 33t41.5 93q0 55 -38 79
t-136 49q-40 10 -66 18t-56.5 20t-49 27t-35.5 35.5t-24.5 48t-7.5 62.5q0 87 64 141.5t172 54.5z" />
    <glyph glyph-name="T" unicode="T" horiz-adv-x="599" 
d="M589 630h-243v-630h-93v630h-243v82h579v-82z" />
    <glyph glyph-name="U" unicode="U" horiz-adv-x="705" 
d="M617 712v-445q0 -137 -68 -209t-196 -72q-129 0 -196.5 71.5t-67.5 209.5v445h92v-443q0 -98 45 -148.5t127 -50.5t126.5 50.5t44.5 148.5v443h93z" />
    <glyph glyph-name="V" unicode="V" horiz-adv-x="624" 
d="M372 0h-120l-245 712h96l109 -317q35 -101 99 -305h2q54 174 100 305l108 317h97z" />
    <glyph glyph-name="W" unicode="W" horiz-adv-x="916" 
d="M740 0h-132l-75 311q-41 169 -74 319h-2q-33 -150 -74 -319l-75 -311h-132l-166 712h92l67 -288l74 -335h2q45 202 79 336l70 287h128l70 -287q34 -134 79 -336h2q31 151 74 335l67 288h92z" />
    <glyph glyph-name="X" unicode="X" horiz-adv-x="621" 
d="M367 365l247 -365h-110l-192 293h-2l-192 -293h-111l247 365l-233 347h108l181 -277h2l180 277h108z" />
    <glyph glyph-name="Y" unicode="Y" horiz-adv-x="614" 
d="M353 295v-295h-92v295l-257 417h107l87 -147l108 -188h2l108 188l88 147h106z" />
    <glyph glyph-name="Z" unicode="Z" horiz-adv-x="566" 
d="M529 624l-403 -541v-2h422v-81h-530v88l403 541v2h-392v81h500v-88z" />
    <glyph glyph-name="bracketleft" unicode="[" horiz-adv-x="297" 
d="M279 682h-118v-771h118v-59h-203v889h203v-59z" />
    <glyph glyph-name="backslash" unicode="\" horiz-adv-x="457" 
d="M130 745l297 -834h-79l-297 834h79z" />
    <glyph glyph-name="bracketright" unicode="]" horiz-adv-x="297" 
d="M221 741v-889h-203v59h118v771h-118v59h203z" />
    <glyph glyph-name="asciicircum" unicode="^" horiz-adv-x="449" 
d="M438 371h-82l-130 270h-2l-130 -270h-83l166 341h95z" />
    <glyph glyph-name="underscore" unicode="_" horiz-adv-x="500" 
d="M500 -101h-500v51h500v-51z" />
    <glyph glyph-name="grave" unicode="`" horiz-adv-x="299" 
d="M163 712l86 -143h-76l-123 143h113z" />
    <glyph glyph-name="a" unicode="a" horiz-adv-x="531" 
d="M259 522q95 0 147.5 -49.5t52.5 -147.5v-195q0 -77 12 -130h-80q-7 32 -7 74h-2q-55 -85 -176 -85q-78 0 -125 41.5t-47 107.5t43.5 104.5t149.5 55.5q74 12 147 17v20q0 61 -30.5 90t-84.5 29t-84 -27.5t-32 -73.5h-88q4 75 57 122t147 47zM374 217v31q-77 -6 -133 -16
q-64 -10 -90.5 -30t-26.5 -58q0 -40 27.5 -63.5t76.5 -23.5q67 0 105 40q23 24 32 49.5t9 70.5z" />
    <glyph glyph-name="b" unicode="b" 
d="M166 438h2q21 38 62.5 60.5t92.5 22.5q97 0 154.5 -72.5t57.5 -193.5q0 -122 -58 -194.5t-155 -72.5q-51 0 -93 23t-62 63h-2v-74h-87v712h88v-274zM300 450q-63 0 -100.5 -52.5t-37.5 -142.5t37.5 -143t100.5 -53q65 0 104 53.5t39 142.5t-39 142t-104 53z" />
    <glyph glyph-name="c" unicode="c" horiz-adv-x="534" 
d="M280 522q91 0 150 -54t67 -140h-92q-5 54 -39.5 88t-86.5 34q-67 0 -106 -52.5t-39 -143.5t38.5 -143.5t106.5 -52.5q52 0 86.5 36.5t39.5 92.5h92q-8 -89 -67 -145t-150 -56q-110 0 -174.5 72t-64.5 196t64.5 196t174.5 72z" />
    <glyph glyph-name="d" unicode="d" 
d="M498 0h-86v74h-2q-21 -40 -62.5 -63t-93.5 -23q-97 0 -155 72.5t-58 194.5q0 121 57.5 193.5t154.5 72.5q51 0 92.5 -22.5t62.5 -60.5h2v274h88v-712zM276 450q-65 0 -104 -53t-39 -142t39 -142.5t104 -53.5q63 0 101 53t38 143t-38 142.5t-101 52.5z" />
    <glyph glyph-name="e" unicode="e" horiz-adv-x="550" 
d="M280 54q54 0 89.5 27t44.5 71h90q-14 -71 -72.5 -118.5t-151.5 -47.5q-111 0 -175 74.5t-64 200.5q0 115 63.5 188t172.5 73q85 0 143.5 -47t78.5 -130q10 -41 10 -109h-380q3 -90 44.5 -136t106.5 -46zM277 454q-62 0 -101 -39.5t-46 -111.5h292q-7 73 -46 112t-99 39z
" />
    <glyph glyph-name="f" unicode="f" horiz-adv-x="305" 
d="M263 647q-38 0 -56 -20t-18 -66v-53h101v-70h-101v-438h-87v438h-89v70h89v63q0 146 139 146q31 0 51 -5v-68q-9 3 -29 3z" />
    <glyph glyph-name="g" unicode="g" horiz-adv-x="573" 
d="M256 521q100 0 152 -87h2v74h85v-477q0 -111 -57 -167.5t-165 -56.5q-97 0 -152.5 43t-57.5 118h88q2 -44 34.5 -68.5t88.5 -24.5q69 0 102 38t33 122v55h-2q-55 -85 -151 -85q-98 0 -156.5 70.5t-58.5 187.5q0 118 58.5 188t156.5 70zM270 448q-62 0 -99.5 -50.5
t-37.5 -134.5q0 -83 37.5 -133.5t99.5 -50.5q66 0 104 49.5t38 134.5q0 86 -38 135.5t-104 49.5z" />
    <glyph glyph-name="h" unicode="h" 
d="M166 444h2q51 75 151 75q88 0 136 -53t48 -156v-310h-88v303q0 77 -30 110.5t-87 33.5t-94.5 -41t-37.5 -115v-291h-88v712h88v-268z" />
    <glyph glyph-name="i" unicode="i" horiz-adv-x="244" 
d="M166 613h-88v99h88v-99zM166 0h-88v508h88v-508z" />
    <glyph glyph-name="j" unicode="j" horiz-adv-x="249" 
d="M171 613h-88v99h88v-99zM171 508v-537q0 -160 -146 -160q-28 0 -47 5v70q15 -3 29 -3q39 0 57.5 21.5t18.5 74.5v529h88z" />
    <glyph glyph-name="k" unicode="k" horiz-adv-x="500" 
d="M509 0h-116l-225 254h-2v-254h-88v712h88v-415h2l205 211h109l-228 -230z" />
    <glyph glyph-name="l" unicode="l" horiz-adv-x="244" 
d="M166 0h-88v712h88v-712z" />
    <glyph glyph-name="m" unicode="m" horiz-adv-x="863" 
d="M619 519q82 0 126.5 -52t44.5 -153v-314h-88v307q0 140 -104 140q-55 0 -87.5 -43t-32.5 -116v-288h-88v320q0 60 -27 93.5t-76 33.5q-56 0 -88.5 -44t-32.5 -121v-282h-88v508h85v-63h2q54 74 142 74q110 0 151 -96q54 96 161 96z" />
    <glyph glyph-name="n" unicode="n" 
d="M319 519q88 0 136 -53t48 -156v-310h-88v303q0 77 -30 110.5t-87 33.5t-94.5 -41t-37.5 -115v-291h-88v508h85v-67h2q51 78 154 78z" />
    <glyph glyph-name="o" unicode="o" horiz-adv-x="565" 
d="M282 522q112 0 177 -72t65 -196t-65 -196t-177 -72t-176.5 72t-64.5 196t64.5 196t176.5 72zM282 450q-69 0 -109 -52.5t-40 -143.5t40 -143.5t109 -52.5q70 0 110 52.5t40 143.5t-40 143.5t-110 52.5z" />
    <glyph glyph-name="p" unicode="p" 
d="M322 521q97 0 155 -72t58 -194t-57.5 -194.5t-154.5 -72.5q-51 0 -92.5 22.5t-62.5 61.5h-2v-257h-88v693h87v-73h2q20 40 62 63t93 23zM300 450q-63 0 -100.5 -52.5t-37.5 -142.5t37.5 -143t100.5 -53q65 0 104 53.5t39 142.5t-39 142t-104 53z" />
    <glyph glyph-name="q" unicode="q" 
d="M254 521q52 0 93.5 -23t62.5 -63h2v73h86v-693h-88v257h-2q-21 -39 -62.5 -61.5t-92.5 -22.5q-97 0 -154.5 72.5t-57.5 194.5t58 194t155 72zM276 450q-65 0 -104 -53t-39 -142t39 -142.5t104 -53.5q63 0 101 53t38 143t-38 142.5t-101 52.5z" />
    <glyph glyph-name="r" unicode="r" horiz-adv-x="362" 
d="M314 513q22 0 37 -4v-79q-33 3 -35 3q-72 0 -111 -45t-39 -129v-259h-88v508h84v-78h2q50 83 150 83z" />
    <glyph glyph-name="s" unicode="s" horiz-adv-x="494" 
d="M239 522q94 0 146 -45t52 -128h-86q0 51 -29.5 78t-83.5 27q-46 0 -72.5 -19.5t-26.5 -52.5q0 -37 24.5 -51t97.5 -31q98 -24 132 -46q60 -38 60 -116q0 -69 -54.5 -110.5t-146.5 -41.5q-101 0 -156.5 47t-56.5 136h89q0 -54 32.5 -83.5t92.5 -29.5q50 0 80 21t30 55
q0 41 -28.5 57.5t-111.5 36.5q-88 22 -118 41q-54 34 -54 108q0 65 52.5 106t135.5 41z" />
    <glyph glyph-name="t" unicode="t" horiz-adv-x="320" 
d="M257 69q21 0 36 5v-72q-23 -6 -56 -6q-73 0 -105.5 34t-32.5 112v296h-88v70h88v123h88v-123h101v-70h-101v-287q0 -44 16 -63t54 -19z" />
    <glyph glyph-name="u" unicode="u" 
d="M256 -11q-88 0 -135.5 53t-47.5 156v310h88v-303q0 -77 30 -110.5t87 -33.5q56 0 94 41.5t38 114.5v291h88v-508h-85v67h-2q-24 -36 -64.5 -57t-90.5 -21z" />
    <glyph glyph-name="v" unicode="v" horiz-adv-x="470" 
d="M292 0h-114l-184 508h94l72 -213l74 -226h2l73 226l73 213h94z" />
    <glyph glyph-name="w" unicode="w" horiz-adv-x="770" 
d="M628 0h-126l-60 220l-56 220h-2l-56 -220l-60 -220h-126l-135 508h89l54 -212l56 -228h2q27 114 56 223l58 217h126l58 -217l56 -223h2l56 228l54 212h89z" />
    <glyph glyph-name="x" unicode="x" horiz-adv-x="480" 
d="M294 264l189 -264h-106l-136 203h-2l-136 -203h-105l189 264l-173 244h104l121 -182h2l122 182h104z" />
    <glyph glyph-name="y" unicode="y" horiz-adv-x="472" 
d="M478 508l-204 -531q-37 -96 -81.5 -131t-127.5 -35q-30 0 -46 5v74q18 -6 42 -6q50 0 75.5 23t50.5 91l-193 510h95l146 -404h2l148 404h93z" />
    <glyph glyph-name="z" unicode="z" horiz-adv-x="469" 
d="M433 432l-299 -358v-2h309v-72h-417v76l299 358v2h-289v72h397v-76z" />
    <glyph glyph-name="braceleft" unicode="{" horiz-adv-x="301" 
d="M277 741v-56q-48 -2 -68 -24.5t-20 -76.5v-163q0 -53 -19 -81t-65 -43v-3q46 -14 65 -42.5t19 -80.5v-164q0 -54 20 -76.5t68 -23.5v-56h-22q-79 0 -113.5 38.5t-34.5 123.5v155q0 44 -15 65t-52 32v61q37 11 52 32.5t15 64.5v156q0 85 34.5 123.5t113.5 38.5h22z" />
    <glyph glyph-name="bar" unicode="|" horiz-adv-x="273" 
d="M177 -205h-81v937h81v-937z" />
    <glyph glyph-name="braceright" unicode="}" horiz-adv-x="301" 
d="M24 741h22q79 0 113.5 -38.5t34.5 -123.5v-156q0 -43 15 -64.5t52 -32.5v-61q-37 -11 -52 -32t-15 -65v-155q0 -85 -34.5 -123.5t-113.5 -38.5h-22v56q48 1 68 23.5t20 76.5v164q0 52 19 80.5t65 42.5v3q-46 15 -65 43t-19 81v163q0 54 -20 76.5t-68 24.5v56z" />
    <glyph glyph-name="asciitilde" unicode="~" horiz-adv-x="583" 
d="M173 410q37 0 72 -17.5t57.5 -38.5t52 -38.5t56.5 -17.5q39 0 62 27.5t23 73.5h62q0 -79 -41 -127t-107 -48q-37 0 -72 17.5t-57.5 38.5t-52 38.5t-56.5 17.5q-39 0 -62 -28t-23 -74h-62q0 79 41 127.5t107 48.5z" />
    <glyph glyph-name="nbspace" unicode="&#xa0;" horiz-adv-x="230" 
 />
    <glyph glyph-name="exclamdown" unicode="&#xa1;" horiz-adv-x="275" 
d="M86 508h104v-106h-104v106zM102 333h71l21 -537h-113z" />
    <glyph glyph-name="cent" unicode="&#xa2;" horiz-adv-x="562" 
d="M323 525v-384q39 10 64.5 44.5t29.5 80.5h92q-7 -81 -57 -135t-129 -64v-91h-63v91q-96 11 -151.5 81.5t-55.5 184.5q0 115 55 185t152 81v89h63v-89q78 -9 128.5 -61t57.5 -130h-92q-4 45 -29 76.5t-65 40.5zM146 333q0 -80 30 -130.5t84 -62.5v386q-54 -12 -84 -62.5
t-30 -130.5z" />
    <glyph glyph-name="sterling" unicode="&#xa3;" horiz-adv-x="562" 
d="M159 76h360v-76h-495v77q97 0 97 134v82h-97v77h97v100q0 108 53 163t152 55q93 0 145.5 -55t52.5 -151h-89q0 61 -28.5 93.5t-80.5 32.5q-114 0 -114 -138v-100h125v-77h-125v-81q0 -53 -12.5 -83.5t-40.5 -50.5v-2z" />
    <glyph glyph-name="currency" unicode="&#xa4;" horiz-adv-x="562" 
d="M493 291q0 -75 -37 -129l76 -81l-59 -55l-75 80q-51 -31 -117 -31t-117 31l-75 -80l-59 55l76 80q-37 54 -37 130t37 130l-76 80l59 55l75 -80q51 31 117 31t117 -31l75 80l59 -55l-76 -81q37 -54 37 -129zM281 150q61 0 97.5 38.5t36.5 102.5t-36.5 102.5t-97.5 38.5
t-97 -38.5t-36 -102.5t36 -102.5t97 -38.5z" />
    <glyph glyph-name="yen" unicode="&#xa5;" horiz-adv-x="562" 
d="M364 360h136v-59h-172v-56h172v-59h-172v-186h-93v186h-173v59h173v56h-173v59h137l-190 314h106l59 -103l106 -188h2l106 188l60 103h105z" />
    <glyph glyph-name="brokenbar" unicode="&#xa6;" horiz-adv-x="273" 
d="M177 382h-81v350h81v-350zM177 -205h-81v350h81v-350z" />
    <glyph glyph-name="section" unicode="&#xa7;" horiz-adv-x="578" 
d="M283 726q89 0 137 -43.5t52 -127.5h-89q-3 97 -100 97q-42 0 -66.5 -21t-24.5 -57q0 -38 23 -55.5t108 -54.5q110 -48 150.5 -86t40.5 -111q0 -93 -85 -145v-2q49 -39 49 -111q0 -74 -51.5 -116.5t-139.5 -42.5q-96 0 -148 45t-53 133h89q3 -104 111 -104q47 0 73.5 22.5
t26.5 62.5q0 41 -28 63.5t-119 63.5q-97 45 -136 83t-39 107q0 92 83 143v2q-47 38 -47 103q0 68 51 110t132 42zM204 430q-55 -39 -55 -93q0 -40 28 -68t104 -62q45 -20 92 -46q56 36 56 96q0 40 -26 67t-101 60q-47 20 -98 46z" />
    <glyph glyph-name="dieresis" unicode="&#xa8;" horiz-adv-x="377" 
d="M132 613h-82v99h82v-99zM327 613h-82v99h82v-99z" />
    <glyph glyph-name="copyright" unicode="&#xa9;" horiz-adv-x="810" 
d="M405 724q161 0 260 -101t99 -267t-99 -267t-260 -101t-259.5 101t-98.5 267t98.5 267t259.5 101zM405 677q-141 0 -227 -88t-86 -233t86 -233t227 -88t227 88t86 233t-86 233t-227 88zM406 599q84 0 134.5 -47t54.5 -122h-75q-4 47 -34 75.5t-80 28.5q-60 0 -94.5 -47.5
t-34.5 -130.5q0 -82 34.5 -130t93.5 -48q48 0 79.5 29t37.5 79h76q-8 -80 -59 -126.5t-134 -46.5q-95 0 -149.5 65t-54.5 178t55 178t150 65z" />
    <glyph glyph-name="ordfeminine" unicode="&#xaa;" horiz-adv-x="393" 
d="M192 696q72 0 110.5 -35.5t38.5 -105.5v-131q0 -54 9 -94h-68q-5 27 -5 50h-2q-41 -58 -126 -58q-57 0 -91 29.5t-34 76.5t32.5 74.5t110.5 39.5q71 9 101 11v12q0 76 -77 76q-36 0 -55.5 -17t-20.5 -47h-76q3 52 42.5 85.5t110.5 33.5zM268 481v19q-48 -4 -89 -11
q-43 -7 -60.5 -19.5t-17.5 -36.5q0 -25 18 -40t51 -15q46 0 70 25q28 28 28 78z" />
    <glyph glyph-name="guillemetleft" unicode="&#xab;" horiz-adv-x="464" 
d="M133 254l111 -200h-82l-114 200l114 200h82zM305 254l111 -200h-83l-114 200l114 200h83z" />
    <glyph glyph-name="logicalnot" unicode="&#xac;" horiz-adv-x="566" 
d="M495 140h-73v240h-351v74h424v-314z" />
    <glyph glyph-name="softhyphen" unicode="&#xad;" horiz-adv-x="300" 
d="M270 253h-240v78h240v-78z" />
    <glyph glyph-name="registered" unicode="&#xae;" horiz-adv-x="587" 
d="M293 726q112 0 180.5 -70t68.5 -185t-68.5 -185.5t-180.5 -70.5t-180 70.5t-68 185.5t68 185t180 70zM293 693q-97 0 -156 -61t-59 -161t59 -161t156 -61t156 61t59 161t-59 161t-156 61zM181 634h117q53 0 80.5 -24t27.5 -67q0 -28 -15.5 -50t-40.5 -27v-2q28 -8 43 -52
l34 -97h-58l-27 82q-8 25 -21.5 35.5t-37.5 10.5h-48v-128h-54v319zM235 588v-99h50q66 0 66 51q0 48 -62 48h-54z" />
    <glyph glyph-name="macron" unicode="&#xaf;" horiz-adv-x="384" 
d="M334 616h-284v64h284v-64z" />
    <glyph glyph-name="degree" unicode="&#xb0;" horiz-adv-x="319" 
d="M159 722q50 0 85.5 -35.5t35.5 -85.5t-35.5 -85t-85.5 -35q-49 0 -84.5 35.5t-35.5 84.5q0 50 35 85.5t85 35.5zM159 669q-27 0 -46.5 -20t-19.5 -48q0 -27 19.5 -46.5t46.5 -19.5q28 0 48 19.5t20 46.5q0 28 -20 48t-48 20z" />
    <glyph glyph-name="plusminus" unicode="&#xb1;" horiz-adv-x="566" 
d="M319 381h176v-74h-176v-171h-72v171h-176v74h176v172h72v-172zM495 0h-424v74h424v-74z" />
    <glyph glyph-name="twosuperior" unicode="&#xb2;" horiz-adv-x="420" 
d="M212 812q73 0 117.5 -37t44.5 -97q0 -57 -34 -93t-102 -72q-66 -36 -89 -61t-24 -56h260v-66h-346q-1 6 -1 17q0 73 28.5 119t114.5 93q60 32 85 56t25 62q0 31 -21.5 50t-57.5 19q-82 0 -87 -86h-81q2 71 47.5 111.5t120.5 40.5z" />
    <glyph glyph-name="threesuperior" unicode="&#xb3;" horiz-adv-x="414" 
d="M205 812q77 0 121 -35.5t44 -94.5q0 -77 -82 -109v-2q47 -17 68 -44t21 -71q0 -61 -47.5 -98.5t-123.5 -37.5q-84 0 -129.5 40.5t-45.5 114.5h80q0 -90 95 -90q40 0 65.5 20.5t25.5 52.5q0 79 -109 79h-17v63h17q47 0 74.5 20.5t27.5 54.5q0 33 -23.5 52t-63.5 19
q-87 0 -87 -87h-80q0 72 45 112.5t124 40.5z" />
    <glyph glyph-name="acute" unicode="&#xb4;" horiz-adv-x="299" 
d="M126 569h-76l86 143h113z" />
    <glyph glyph-name="micro" unicode="&#xb5;" horiz-adv-x="583" 
d="M499 508v-363q0 -45 10.5 -61.5t36.5 -16.5q12 0 24 3v-67q-27 -9 -60 -9q-42 0 -64.5 19.5t-28.5 62.5h-2q-18 -38 -56 -60.5t-86 -22.5q-74 0 -107 42v-220h-88v693h88v-301q0 -77 28.5 -110.5t84.5 -33.5q57 0 94.5 40.5t37.5 114.5v290h88z" />
    <glyph glyph-name="paragraph" unicode="&#xb6;" horiz-adv-x="588" 
d="M566 650h-80v-770h-66v770h-87v-770h-66v428h-35q-88 0 -140 54.5t-52 147.5q0 92 52 147t140 55h334v-62z" />
    <glyph glyph-name="periodcentered" unicode="&#xb7;" horiz-adv-x="226" 
d="M167 247h-108v117h108v-117z" />
    <glyph glyph-name="cedilla" unicode="&#xb8;" horiz-adv-x="315" 
d="M199 0l-40 -62q18 3 26 3q33 0 56.5 -20.5t23.5 -53.5q0 -37 -28.5 -62t-81.5 -25q-54 0 -105 27l18 37q36 -21 78 -21q56 0 56 41q0 19 -14.5 30.5t-38.5 11.5q-17 0 -31 -6l-18 20l53 80h46z" />
    <glyph glyph-name="onesuperior" unicode="&#xb9;" horiz-adv-x="274" 
d="M202 330h-79v332h-112v60q60 0 88.5 18.5t35.5 61.5h67v-472z" />
    <glyph glyph-name="ordmasculine" unicode="&#xba;" horiz-adv-x="416" 
d="M208 696q83 0 131 -50.5t48 -137.5q0 -88 -48 -138t-131 -50q-82 0 -130.5 50.5t-48.5 137.5t48.5 137.5t130.5 50.5zM208 635q-46 0 -72 -34t-26 -93t26 -93t72 -34q47 0 73.5 34t26.5 93t-26.5 93t-73.5 34z" />
    <glyph glyph-name="guillemetright" unicode="&#xbb;" horiz-adv-x="464" 
d="M130 454l114 -200l-114 -200h-82l111 200l-111 200h82zM302 454l114 -200l-114 -200h-83l112 200l-112 200h83z" />
    <glyph glyph-name="onequarter" unicode="&#xbc;" horiz-adv-x="721" 
d="M103 548h-94v58q49 0 73.5 16t31.5 52h66v-404h-77v278zM542 674l-385 -674h-73l384 674h74zM711 95h-66v-95h-75v95h-195v66l171 243h99v-246h66v-63zM446 158h126v49q0 45 2 133h-2q-40 -63 -84 -123z" />
    <glyph glyph-name="onehalf" unicode="&#xbd;" horiz-adv-x="755" 
d="M180 270h-77v278h-94v58q49 0 73.5 16t31.5 52h66v-404zM157 0h-73l384 674h74zM572 413q65 0 103 -32t38 -84q0 -49 -30 -81t-86 -62q-56 -29 -75.5 -48.5t-20.5 -42.5h223v-63h-304q-1 5 -1 16q0 65 25 104.5t99 79.5q27 15 40 23t27.5 20t20 25t5.5 29q0 24 -17 38.5
t-47 14.5q-68 0 -70 -69h-77q1 62 41 97t106 35z" />
    <glyph glyph-name="threequarters" unicode="&#xbe;" horiz-adv-x="847" 
d="M331 378q0 -53 -41 -85t-109 -32q-74 0 -114.5 35.5t-40.5 99.5h76q0 -72 79 -72q34 0 54 15.5t20 41.5q0 63 -91 63h-13v61h13q39 0 62.5 16t23.5 44q0 26 -19 40.5t-52 14.5q-73 0 -73 -68h-75q0 62 40 96.5t109 34.5q67 0 106 -30.5t39 -81.5q0 -64 -68 -92v-2
q39 -14 56.5 -37.5t17.5 -61.5zM667 674l-385 -674h-73l384 674h74zM837 95h-66v-95h-75v95h-195v66l171 243h99v-246h66v-63zM572 158h126v49q0 45 2 133h-2q-40 -63 -84 -123z" />
    <glyph glyph-name="questiondown" unicode="&#xbf;" horiz-adv-x="483" 
d="M224 508h104v-106h-104v106zM256 -218q-98 0 -157.5 50t-59.5 131q0 54 21 90t86 91q57 48 73.5 83.5t16.5 115.5h78q1 -11 1 -30q0 -78 -19.5 -119t-82.5 -95q-50 -44 -65 -70t-15 -64q0 -47 33 -75t90 -28q128 0 136 129h91q-4 -102 -63 -155.5t-164 -53.5z" />
    <glyph glyph-name="Agrave" unicode="&#xc0;" horiz-adv-x="675" 
d="M328 760l-123 138h113l86 -138h-76zM495 212h-314l-78 -212h-98l270 712h125l271 -712h-99zM465 293l-23 65l-103 290h-2l-103 -290l-24 -65h255z" />
    <glyph glyph-name="Aacute" unicode="&#xc1;" horiz-adv-x="675" 
d="M347 760h-76l86 138h113zM495 212h-314l-78 -212h-98l270 712h125l271 -712h-99zM465 293l-23 65l-103 290h-2l-103 -290l-24 -65h255z" />
    <glyph glyph-name="Acircumflex" unicode="&#xc2;" horiz-adv-x="675" 
d="M264 760h-89l114 138h97l114 -138h-89l-74 89zM495 212h-314l-78 -212h-98l270 712h125l271 -712h-99zM465 293l-23 65l-103 290h-2l-103 -290l-24 -65h255z" />
    <glyph glyph-name="Atilde" unicode="&#xc3;" horiz-adv-x="675" 
d="M269 828q-41 0 -46 -51h-58q3 55 30 85t71 30q33 0 77 -25.5t63 -25.5q40 0 46 51h58q-3 -55 -30 -85t-71 -30q-33 0 -77 25.5t-63 25.5zM495 212h-314l-78 -212h-98l270 712h125l271 -712h-99zM465 293l-23 65l-103 290h-2l-103 -290l-24 -65h255z" />
    <glyph glyph-name="Adieresis" unicode="&#xc4;" horiz-adv-x="675" 
d="M281 775h-82v99h82v-99zM476 775h-82v99h82v-99zM495 212h-314l-78 -212h-98l270 712h125l271 -712h-99zM465 293l-23 65l-103 290h-2l-103 -290l-24 -65h255z" />
    <glyph glyph-name="Aring" unicode="&#xc5;" horiz-adv-x="675" 
d="M337 752q-41 0 -70.5 29.5t-29.5 70.5q0 42 29.5 71.5t70.5 29.5q42 0 71.5 -29.5t29.5 -71.5q0 -41 -29.5 -70.5t-71.5 -29.5zM337 910q-23 0 -40 -17t-17 -41t17 -40.5t40 -16.5q25 0 41.5 16.5t16.5 40.5t-16.5 41t-41.5 17zM495 212h-314l-78 -212h-98l270 712h125
l271 -712h-99zM465 293l-23 65l-103 290h-2l-103 -290l-24 -65h255z" />
    <glyph glyph-name="AE" unicode="&#xc6;" horiz-adv-x="937" 
d="M884 82v-82h-371l-34 224h-273l-107 -224h-105l349 712h530v-82h-364l34 -225h310v-81h-298l36 -242h293zM467 305l-49 329h-15l-158 -329h222z" />
    <glyph glyph-name="Ccedilla" unicode="&#xc7;" horiz-adv-x="689" 
d="M546 245h96q-11 -112 -79 -180.5t-180 -77.5l-32 -49q18 3 26 3q33 0 56.5 -20.5t23.5 -53.5q0 -37 -28.5 -62t-81.5 -25q-54 0 -105 27l18 37q36 -21 78 -21q56 0 56 41q0 19 -14.5 30.5t-38.5 11.5q-17 0 -31 -6l-18 20l44 66q-137 6 -215 104.5t-78 265.5
q0 172 83.5 271t228.5 99q125 0 201 -71t82 -184h-95q-7 79 -57.5 125t-130.5 46q-101 0 -158.5 -76.5t-57.5 -209.5t57 -209.5t156 -76.5q79 0 131 47t63 128z" />
    <glyph glyph-name="Egrave" unicode="&#xc8;" horiz-adv-x="618" 
d="M305 898l86 -138h-76l-123 138h113zM554 630h-367v-225h346v-81h-346v-242h378v-82h-470v712h459v-82z" />
    <glyph glyph-name="Eacute" unicode="&#xc9;" horiz-adv-x="618" 
d="M333 760h-76l86 138h113zM554 630h-367v-225h346v-81h-346v-242h378v-82h-470v712h459v-82z" />
    <glyph glyph-name="Ecircumflex" unicode="&#xca;" horiz-adv-x="618" 
d="M276 898h97l114 -138h-89l-74 89l-73 -89h-89zM554 630h-367v-225h346v-81h-346v-242h378v-82h-470v712h459v-82z" />
    <glyph glyph-name="Edieresis" unicode="&#xcb;" horiz-adv-x="618" 
d="M268 775h-82v99h82v-99zM463 775h-82v99h82v-99zM554 630h-367v-225h346v-81h-346v-242h378v-82h-470v712h459v-82z" />
    <glyph glyph-name="Igrave" unicode="&#xcc;" horiz-adv-x="282" 
d="M122 898l86 -138h-76l-123 138h113zM187 0h-92v712h92v-712z" />
    <glyph glyph-name="Iacute" unicode="&#xcd;" horiz-adv-x="282" 
d="M150 760h-76l86 138h113zM187 0h-92v712h92v-712z" />
    <glyph glyph-name="Icircumflex" unicode="&#xce;" horiz-adv-x="282" 
d="M92 898h97l114 -138h-89l-74 89l-73 -89h-89zM187 0h-92v712h92v-712z" />
    <glyph glyph-name="Idieresis" unicode="&#xcf;" horiz-adv-x="282" 
d="M84 775h-82v99h82v-99zM279 775h-82v99h82v-99zM187 0h-92v712h92v-712z" />
    <glyph glyph-name="Eth" unicode="&#xd0;" horiz-adv-x="723" 
d="M95 712h217q177 0 273 -92.5t96 -263.5t-96 -263.5t-273 -92.5h-217v325h-66v71h66v316zM187 82h124q133 0 203 70t70 204t-70 204t-203 70h-124v-234h202v-71h-202v-243z" />
    <glyph glyph-name="Ntilde" unicode="&#xd1;" horiz-adv-x="755" 
d="M493 892h58q-3 -55 -30 -85t-71 -30q-33 0 -77 25.5t-63 25.5q-42 0 -46 -51h-58q3 55 30 85t71 30q33 0 77 -25.5t63 -25.5q40 0 46 51zM661 0h-136l-169 307l-172 319h-2q3 -171 3 -341v-285h-90v712h135l170 -307l172 -319h2q-3 171 -3 341v285h90v-712z" />
    <glyph glyph-name="Ograve" unicode="&#xd2;" horiz-adv-x="732" 
d="M346 898l86 -138h-76l-123 138h113zM366 726q149 0 236 -100t87 -270t-87 -270t-236 -100t-236 100t-87 270t87 270t236 100zM366 642q-105 0 -166 -77t-61 -209t61 -209t166 -77q104 0 165.5 77.5t61.5 208.5t-61.5 208.5t-165.5 77.5z" />
    <glyph glyph-name="Oacute" unicode="&#xd3;" horiz-adv-x="732" 
d="M375 760h-76l86 138h113zM366 726q149 0 236 -100t87 -270t-87 -270t-236 -100t-236 100t-87 270t87 270t236 100zM366 642q-105 0 -166 -77t-61 -209t61 -209t166 -77q104 0 165.5 77.5t61.5 208.5t-61.5 208.5t-165.5 77.5z" />
    <glyph glyph-name="Ocircumflex" unicode="&#xd4;" horiz-adv-x="732" 
d="M317 898h97l114 -138h-89l-74 89l-73 -89h-89zM366 726q149 0 236 -100t87 -270t-87 -270t-236 -100t-236 100t-87 270t87 270t236 100zM366 642q-105 0 -166 -77t-61 -209t61 -209t166 -77q104 0 165.5 77.5t61.5 208.5t-61.5 208.5t-165.5 77.5z" />
    <glyph glyph-name="Otilde" unicode="&#xd5;" horiz-adv-x="732" 
d="M481 892h58q-3 -55 -30 -85t-71 -30q-33 0 -77 25.5t-63 25.5q-42 0 -46 -51h-58q3 55 30 85t71 30q33 0 77 -25.5t63 -25.5q40 0 46 51zM366 726q149 0 236 -100t87 -270t-87 -270t-236 -100t-236 100t-87 270t87 270t236 100zM366 642q-105 0 -166 -77t-61 -209
t61 -209t166 -77q104 0 165.5 77.5t61.5 208.5t-61.5 208.5t-165.5 77.5z" />
    <glyph glyph-name="Odieresis" unicode="&#xd6;" horiz-adv-x="732" 
d="M309 775h-82v99h82v-99zM504 775h-82v99h82v-99zM366 726q149 0 236 -100t87 -270t-87 -270t-236 -100t-236 100t-87 270t87 270t236 100zM366 642q-105 0 -166 -77t-61 -209t61 -209t166 -77q104 0 165.5 77.5t61.5 208.5t-61.5 208.5t-165.5 77.5z" />
    <glyph glyph-name="multiply" unicode="&#xd7;" horiz-adv-x="566" 
d="M527 499l-193 -193l193 -192l-51 -51l-193 192l-192 -192l-52 51l193 192l-193 193l52 51l192 -192l193 192z" />
    <glyph glyph-name="Oslash" unicode="&#xd8;" horiz-adv-x="732" 
d="M670 706l-64 -85q83 -100 83 -265q0 -170 -87 -270t-236 -100q-115 0 -193 60l-60 -79l-51 39l64 85q-83 100 -83 265q0 170 87 270t236 100q115 0 194 -61l60 80zM137 356q0 -115 46 -189l324 428q-58 50 -141 50q-106 0 -167.5 -78t-61.5 -211zM366 67q106 0 167.5 78
t61.5 211q0 115 -46 189l-323 -428q58 -50 140 -50z" />
    <glyph glyph-name="Ugrave" unicode="&#xd9;" horiz-adv-x="705" 
d="M333 898l86 -138h-76l-123 138h113zM617 712v-445q0 -137 -68 -209t-196 -72q-129 0 -196.5 71.5t-67.5 209.5v445h92v-443q0 -98 45 -148.5t127 -50.5t126.5 50.5t44.5 148.5v443h93z" />
    <glyph glyph-name="Uacute" unicode="&#xda;" horiz-adv-x="705" 
d="M362 760h-76l86 138h113zM617 712v-445q0 -137 -68 -209t-196 -72q-129 0 -196.5 71.5t-67.5 209.5v445h92v-443q0 -98 45 -148.5t127 -50.5t126.5 50.5t44.5 148.5v443h93z" />
    <glyph glyph-name="Ucircumflex" unicode="&#xdb;" horiz-adv-x="705" 
d="M304 898h97l114 -138h-89l-74 89l-73 -89h-89zM617 712v-445q0 -137 -68 -209t-196 -72q-129 0 -196.5 71.5t-67.5 209.5v445h92v-443q0 -98 45 -148.5t127 -50.5t126.5 50.5t44.5 148.5v443h93z" />
    <glyph glyph-name="Udieresis" unicode="&#xdc;" horiz-adv-x="705" 
d="M296 775h-82v99h82v-99zM491 775h-82v99h82v-99zM617 712v-445q0 -137 -68 -209t-196 -72q-129 0 -196.5 71.5t-67.5 209.5v445h92v-443q0 -98 45 -148.5t127 -50.5t126.5 50.5t44.5 148.5v443h93z" />
    <glyph glyph-name="Yacute" unicode="&#xdd;" horiz-adv-x="614" 
d="M316 760h-76l86 138h113zM353 295v-295h-92v295l-257 417h107l87 -147l108 -188h2l108 188l88 147h106z" />
    <glyph glyph-name="Thorn" unicode="&#xde;" horiz-adv-x="616" 
d="M187 582h152q121 0 185 -57.5t64 -156.5q0 -100 -64 -157.5t-185 -57.5h-152v-153h-92v712h92v-130zM187 502v-269h145q80 0 120.5 35.5t40.5 99.5t-40.5 99t-120.5 35h-145z" />
    <glyph glyph-name="germandbls" unicode="&#xdf;" horiz-adv-x="557" 
d="M284 726q91 0 145.5 -47t54.5 -125q0 -117 -115 -155v-2q70 -13 109.5 -62t39.5 -128q0 -100 -62 -156.5t-169 -56.5q-29 0 -51 6v75q18 -5 40 -5q71 0 110.5 37t39.5 105t-39.5 106.5t-109.5 38.5h-14v78q134 0 134 111q0 50 -30 78t-82 28q-119 0 -119 -148v-504h-88
v510q0 103 54 159.5t152 56.5z" />
    <glyph glyph-name="agrave" unicode="&#xe0;" horiz-adv-x="531" 
d="M233 712l86 -143h-76l-123 143h113zM259 522q95 0 147.5 -49.5t52.5 -147.5v-195q0 -77 12 -130h-80q-7 32 -7 74h-2q-55 -85 -176 -85q-78 0 -125 41.5t-47 107.5t43.5 104.5t149.5 55.5q74 12 147 17v20q0 61 -30.5 90t-84.5 29t-84 -27.5t-32 -73.5h-88q4 75 57 122
t147 47zM374 217v31q-77 -6 -133 -16q-64 -10 -90.5 -30t-26.5 -58q0 -40 27.5 -63.5t76.5 -23.5q67 0 105 40q23 24 32 49.5t9 70.5z" />
    <glyph glyph-name="aacute" unicode="&#xe1;" horiz-adv-x="531" 
d="M262 569h-76l86 143h113zM259 522q95 0 147.5 -49.5t52.5 -147.5v-195q0 -77 12 -130h-80q-7 32 -7 74h-2q-55 -85 -176 -85q-78 0 -125 41.5t-47 107.5t43.5 104.5t149.5 55.5q74 12 147 17v20q0 61 -30.5 90t-84.5 29t-84 -27.5t-32 -73.5h-88q4 75 57 122t147 47z
M374 217v31q-77 -6 -133 -16q-64 -10 -90.5 -30t-26.5 -58q0 -40 27.5 -63.5t76.5 -23.5q67 0 105 40q23 24 32 49.5t9 70.5z" />
    <glyph glyph-name="acircumflex" unicode="&#xe2;" horiz-adv-x="531" 
d="M326 569l-73 93l-74 -93h-89l114 143h97l114 -143h-89zM259 522q95 0 147.5 -49.5t52.5 -147.5v-195q0 -77 12 -130h-80q-7 32 -7 74h-2q-55 -85 -176 -85q-78 0 -125 41.5t-47 107.5t43.5 104.5t149.5 55.5q74 12 147 17v20q0 61 -30.5 90t-84.5 29t-84 -27.5t-32 -73.5
h-88q4 75 57 122t147 47zM374 217v31q-77 -6 -133 -16q-64 -10 -90.5 -30t-26.5 -58q0 -40 27.5 -63.5t76.5 -23.5q67 0 105 40q23 24 32 49.5t9 70.5z" />
    <glyph glyph-name="atilde" unicode="&#xe3;" horiz-adv-x="531" 
d="M368 706h58q-3 -55 -30 -85t-71 -30q-33 0 -77 25.5t-63 25.5q-41 0 -46 -51h-58q3 55 30 85t71 30q33 0 77 -25.5t63 -25.5q40 0 46 51zM259 522q95 0 147.5 -49.5t52.5 -147.5v-195q0 -77 12 -130h-80q-7 32 -7 74h-2q-55 -85 -176 -85q-78 0 -125 41.5t-47 107.5
t43.5 104.5t149.5 55.5q74 12 147 17v20q0 61 -30.5 90t-84.5 29t-84 -27.5t-32 -73.5h-88q4 75 57 122t147 47zM374 217v31q-77 -6 -133 -16q-64 -10 -90.5 -30t-26.5 -58q0 -40 27.5 -63.5t76.5 -23.5q67 0 105 40q23 24 32 49.5t9 70.5z" />
    <glyph glyph-name="adieresis" unicode="&#xe4;" horiz-adv-x="531" 
d="M196 613h-82v99h82v-99zM391 613h-82v99h82v-99zM259 522q95 0 147.5 -49.5t52.5 -147.5v-195q0 -77 12 -130h-80q-7 32 -7 74h-2q-55 -85 -176 -85q-78 0 -125 41.5t-47 107.5t43.5 104.5t149.5 55.5q74 12 147 17v20q0 61 -30.5 90t-84.5 29t-84 -27.5t-32 -73.5h-88
q4 75 57 122t147 47zM374 217v31q-77 -6 -133 -16q-64 -10 -90.5 -30t-26.5 -58q0 -40 27.5 -63.5t76.5 -23.5q67 0 105 40q23 24 32 49.5t9 70.5z" />
    <glyph glyph-name="aring" unicode="&#xe5;" horiz-adv-x="531" 
d="M252 766q42 0 71.5 -29.5t29.5 -70.5q0 -42 -29.5 -71.5t-71.5 -29.5q-41 0 -70.5 29.5t-29.5 71.5q0 41 29.5 70.5t70.5 29.5zM252 724q-23 0 -40 -17t-17 -41t16.5 -41t40.5 -17q25 0 41.5 16.5t16.5 41.5q0 24 -16.5 41t-41.5 17zM259 522q95 0 147.5 -49.5
t52.5 -147.5v-195q0 -77 12 -130h-80q-7 32 -7 74h-2q-55 -85 -176 -85q-78 0 -125 41.5t-47 107.5t43.5 104.5t149.5 55.5q74 12 147 17v20q0 61 -30.5 90t-84.5 29t-84 -27.5t-32 -73.5h-88q4 75 57 122t147 47zM374 217v31q-77 -6 -133 -16q-64 -10 -90.5 -30t-26.5 -58
q0 -40 27.5 -63.5t76.5 -23.5q67 0 105 40q23 24 32 49.5t9 70.5z" />
    <glyph glyph-name="ae" unicode="&#xe6;" horiz-adv-x="862" 
d="M600 54q51 0 84 27t42 71h90q-13 -71 -69.5 -118.5t-146.5 -47.5q-126 0 -185 108q-28 -52 -80 -80t-120 -28q-82 0 -131.5 42.5t-49.5 110.5q0 77 54.5 119t179.5 42h110v35q0 119 -117 119q-54 0 -84.5 -27.5t-33.5 -73.5h-88q5 75 58.5 122t147.5 47q123 0 168 -82
q59 82 168 82q81 0 138 -48t76 -130q10 -43 10 -111h-364q4 -89 43 -134t100 -45zM597 454q-59 0 -96 -40.5t-43 -113.5h276q-4 74 -41.5 114t-95.5 40zM378 233h-100q-84 0 -119 -22.5t-35 -68.5q0 -40 28 -64t78 -24q68 0 106 41q24 24 33 50.5t9 71.5v16z" />
    <glyph glyph-name="ccedilla" unicode="&#xe7;" horiz-adv-x="534" 
d="M279 58q52 0 86.5 36.5t39.5 92.5h92q-7 -80 -56.5 -134.5t-127.5 -64.5l-32 -50q18 3 26 3q33 0 56.5 -20.5t23.5 -53.5q0 -37 -28.5 -62t-81.5 -25q-54 0 -105 27l18 37q36 -21 78 -21q56 0 56 41q0 19 -14.5 30.5t-38.5 11.5q-17 0 -31 -6l-18 20l44 66
q-104 5 -164.5 76.5t-60.5 191.5q0 124 64.5 196t174.5 72q91 0 150 -54t67 -140h-92q-5 54 -39.5 88t-86.5 34q-67 0 -106 -52.5t-39 -143.5t38.5 -143.5t106.5 -52.5z" />
    <glyph glyph-name="egrave" unicode="&#xe8;" horiz-adv-x="550" 
d="M265 569l-123 143h113l86 -143h-76zM280 54q54 0 89.5 27t44.5 71h90q-14 -71 -72.5 -118.5t-151.5 -47.5q-111 0 -175 74.5t-64 200.5q0 115 63.5 188t172.5 73q85 0 143.5 -47t78.5 -130q10 -41 10 -109h-380q3 -90 44.5 -136t106.5 -46zM277 454q-62 0 -101 -39.5
t-46 -111.5h292q-7 73 -46 112t-99 39z" />
    <glyph glyph-name="eacute" unicode="&#xe9;" horiz-adv-x="550" 
d="M284 569h-76l86 143h113zM280 54q54 0 89.5 27t44.5 71h90q-14 -71 -72.5 -118.5t-151.5 -47.5q-111 0 -175 74.5t-64 200.5q0 115 63.5 188t172.5 73q85 0 143.5 -47t78.5 -130q10 -41 10 -109h-380q3 -90 44.5 -136t106.5 -46zM277 454q-62 0 -101 -39.5t-46 -111.5
h292q-7 73 -46 112t-99 39z" />
    <glyph glyph-name="ecircumflex" unicode="&#xea;" horiz-adv-x="550" 
d="M201 569h-89l114 143h97l114 -143h-89l-73 93zM280 54q54 0 89.5 27t44.5 71h90q-14 -71 -72.5 -118.5t-151.5 -47.5q-111 0 -175 74.5t-64 200.5q0 115 63.5 188t172.5 73q85 0 143.5 -47t78.5 -130q10 -41 10 -109h-380q3 -90 44.5 -136t106.5 -46zM277 454
q-62 0 -101 -39.5t-46 -111.5h292q-7 73 -46 112t-99 39z" />
    <glyph glyph-name="edieresis" unicode="&#xeb;" horiz-adv-x="550" 
d="M218 613h-82v99h82v-99zM413 613h-82v99h82v-99zM280 54q54 0 89.5 27t44.5 71h90q-14 -71 -72.5 -118.5t-151.5 -47.5q-111 0 -175 74.5t-64 200.5q0 115 63.5 188t172.5 73q85 0 143.5 -47t78.5 -130q10 -41 10 -109h-380q3 -90 44.5 -136t106.5 -46zM277 454
q-62 0 -101 -39.5t-46 -111.5h292q-7 73 -46 112t-99 39z" />
    <glyph glyph-name="igrave" unicode="&#xec;" horiz-adv-x="244" 
d="M103 712l86 -143h-76l-123 143h113zM166 0h-88v508h88v-508z" />
    <glyph glyph-name="iacute" unicode="&#xed;" horiz-adv-x="244" 
d="M132 569h-76l86 143h113zM166 0h-88v508h88v-508z" />
    <glyph glyph-name="icircumflex" unicode="&#xee;" horiz-adv-x="244" 
d="M270 570h-85l-63 93l-62 -93h-86l100 142h96zM166 0h-88v508h88v-508z" />
    <glyph glyph-name="idieresis" unicode="&#xef;" horiz-adv-x="244" 
d="M86 613h-82v99h82v-99zM239 613h-81v99h81v-99zM166 0h-88v508h88v-508z" />
    <glyph glyph-name="eth" unicode="&#xf0;" horiz-adv-x="566" 
d="M424 534q100 -131 100 -278q0 -125 -64.5 -197.5t-176.5 -72.5t-177 70.5t-65 192.5q0 121 60.5 191.5t164.5 70.5q61 0 104 -35v2q-44 59 -110 117l-134 -60l-21 49l109 49q-37 29 -70 51l65 42q46 -31 80 -59l123 55l22 -49l-100 -45q56 -49 90 -94zM282 58
q70 0 110 52t40 143q0 90 -40 142t-110 52q-69 0 -109 -52t-40 -142q0 -91 40 -143t109 -52z" />
    <glyph glyph-name="ntilde" unicode="&#xf1;" 
d="M405 706h58q-3 -55 -30 -85t-71 -30q-33 0 -77 25.5t-63 25.5q-41 0 -46 -51h-58q3 55 30 85t71 30q33 0 77 -25.5t63 -25.5q40 0 46 51zM319 519q88 0 136 -53t48 -156v-310h-88v303q0 77 -30 110.5t-87 33.5t-94.5 -41t-37.5 -115v-291h-88v508h85v-67h2q51 78 154 78z
" />
    <glyph glyph-name="ograve" unicode="&#xf2;" horiz-adv-x="565" 
d="M263 712l86 -143h-76l-123 143h113zM282 522q112 0 177 -72t65 -196t-65 -196t-177 -72t-176.5 72t-64.5 196t64.5 196t176.5 72zM282 450q-69 0 -109 -52.5t-40 -143.5t40 -143.5t109 -52.5q70 0 110 52.5t40 143.5t-40 143.5t-110 52.5z" />
    <glyph glyph-name="oacute" unicode="&#xf3;" horiz-adv-x="565" 
d="M292 569h-76l86 143h113zM282 522q112 0 177 -72t65 -196t-65 -196t-177 -72t-176.5 72t-64.5 196t64.5 196t176.5 72zM282 450q-69 0 -109 -52.5t-40 -143.5t40 -143.5t109 -52.5q70 0 110 52.5t40 143.5t-40 143.5t-110 52.5z" />
    <glyph glyph-name="ocircumflex" unicode="&#xf4;" horiz-adv-x="565" 
d="M356 569l-73 93l-74 -93h-89l114 143h97l114 -143h-89zM282 522q112 0 177 -72t65 -196t-65 -196t-177 -72t-176.5 72t-64.5 196t64.5 196t176.5 72zM282 450q-69 0 -109 -52.5t-40 -143.5t40 -143.5t109 -52.5q70 0 110 52.5t40 143.5t-40 143.5t-110 52.5z" />
    <glyph glyph-name="otilde" unicode="&#xf5;" horiz-adv-x="565" 
d="M397 706h58q-3 -55 -30 -85t-71 -30q-33 0 -77 25.5t-63 25.5q-41 0 -46 -51h-58q3 55 30 85t71 30q33 0 77 -25.5t63 -25.5q40 0 46 51zM282 522q112 0 177 -72t65 -196t-65 -196t-177 -72t-176.5 72t-64.5 196t64.5 196t176.5 72zM282 450q-69 0 -109 -52.5t-40 -143.5
t40 -143.5t109 -52.5q70 0 110 52.5t40 143.5t-40 143.5t-110 52.5z" />
    <glyph glyph-name="odieresis" unicode="&#xf6;" horiz-adv-x="565" 
d="M226 613h-82v99h82v-99zM421 613h-82v99h82v-99zM282 522q112 0 177 -72t65 -196t-65 -196t-177 -72t-176.5 72t-64.5 196t64.5 196t176.5 72zM282 450q-69 0 -109 -52.5t-40 -143.5t40 -143.5t109 -52.5q70 0 110 52.5t40 143.5t-40 143.5t-110 52.5z" />
    <glyph glyph-name="divide" unicode="&#xf7;" horiz-adv-x="566" 
d="M324 441h-82v85h82v-85zM495 280h-424v73h424v-73zM324 108h-82v85h82v-85z" />
    <glyph glyph-name="oslash" unicode="&#xf8;" horiz-adv-x="566" 
d="M516 516l-53 -70q61 -72 61 -192q0 -124 -65 -196t-177 -72q-82 0 -138 38l-51 -66l-43 33l53 70q-62 71 -62 193q0 124 64.5 196t176.5 72q81 0 139 -39l52 68zM282 452q-70 0 -111 -53t-41 -145q0 -73 26 -122l218 288q-37 32 -92 32zM282 56q71 0 112 53t41 145
q0 71 -27 122l-217 -289q37 -31 91 -31z" />
    <glyph glyph-name="ugrave" unicode="&#xf9;" 
d="M269 712l86 -143h-76l-123 143h113zM256 -11q-88 0 -135.5 53t-47.5 156v310h88v-303q0 -77 30 -110.5t87 -33.5q56 0 94 41.5t38 114.5v291h88v-508h-85v67h-2q-24 -36 -64.5 -57t-90.5 -21z" />
    <glyph glyph-name="uacute" unicode="&#xfa;" 
d="M297 569h-76l86 143h113zM256 -11q-88 0 -135.5 53t-47.5 156v310h88v-303q0 -77 30 -110.5t87 -33.5q56 0 94 41.5t38 114.5v291h88v-508h-85v67h-2q-24 -36 -64.5 -57t-90.5 -21z" />
    <glyph glyph-name="ucircumflex" unicode="&#xfb;" 
d="M361 569l-73 93l-74 -93h-89l114 143h97l114 -143h-89zM256 -11q-88 0 -135.5 53t-47.5 156v310h88v-303q0 -77 30 -110.5t87 -33.5q56 0 94 41.5t38 114.5v291h88v-508h-85v67h-2q-24 -36 -64.5 -57t-90.5 -21z" />
    <glyph glyph-name="udieresis" unicode="&#xfc;" 
d="M231 613h-82v99h82v-99zM426 613h-82v99h82v-99zM256 -11q-88 0 -135.5 53t-47.5 156v310h88v-303q0 -77 30 -110.5t87 -33.5q56 0 94 41.5t38 114.5v291h88v-508h-85v67h-2q-24 -36 -64.5 -57t-90.5 -21z" />
    <glyph glyph-name="yacute" unicode="&#xfd;" horiz-adv-x="472" 
d="M246 569h-76l86 143h113zM478 508l-204 -531q-37 -96 -81.5 -131t-127.5 -35q-30 0 -46 5v74q18 -6 42 -6q50 0 75.5 23t50.5 91l-193 510h95l146 -404h2l148 404h93z" />
    <glyph glyph-name="thorn" unicode="&#xfe;" 
d="M166 438h2q21 38 62 60.5t92 22.5q97 0 155 -72t58 -194t-57.5 -194.5t-154.5 -72.5q-51 0 -92.5 22.5t-62.5 61.5h-2v-257h-88v897h88v-274zM300 450q-63 0 -100.5 -52.5t-37.5 -142.5t37.5 -143t100.5 -53q65 0 104 53.5t39 142.5t-39 142t-104 53z" />
    <glyph glyph-name="ydieresis" unicode="&#xff;" horiz-adv-x="472" 
d="M180 613h-82v99h82v-99zM375 613h-82v99h82v-99zM478 508l-204 -531q-37 -96 -81.5 -131t-127.5 -35q-30 0 -46 5v74q18 -6 42 -6q50 0 75.5 23t50.5 91l-193 510h95l146 -404h2l148 404h93z" />
    <glyph glyph-name="Amacron" unicode="&#x100;" horiz-adv-x="675" 
d="M479 788h-284v65h284v-65zM495 212h-314l-78 -212h-98l270 712h125l271 -712h-99zM465 293l-23 65l-103 290h-2l-103 -290l-24 -65h255z" />
    <glyph glyph-name="amacron" unicode="&#x101;" horiz-adv-x="531" 
d="M395 616h-284v64h284v-64zM259 522q95 0 147.5 -49.5t52.5 -147.5v-195q0 -77 12 -130h-80q-7 32 -7 74h-2q-55 -85 -176 -85q-78 0 -125 41.5t-47 107.5t43.5 104.5t149.5 55.5q74 12 147 17v20q0 61 -30.5 90t-84.5 29t-84 -27.5t-32 -73.5h-88q4 75 57 122t147 47z
M374 217v31q-77 -6 -133 -16q-64 -10 -90.5 -30t-26.5 -58q0 -40 27.5 -63.5t76.5 -23.5q67 0 105 40q23 24 32 49.5t9 70.5z" />
    <glyph glyph-name="Abreve" unicode="&#x102;" horiz-adv-x="675" 
d="M338 756q-70 0 -110.5 37t-45.5 105h66q4 -38 28 -59t62 -21t61.5 21t28.5 59h65q-5 -68 -45.5 -105t-109.5 -37zM495 212h-314l-78 -212h-98l270 712h125l271 -712h-99zM465 293l-23 65l-103 290h-2l-103 -290l-24 -65h255z" />
    <glyph glyph-name="abreve" unicode="&#x103;" horiz-adv-x="531" 
d="M343 712h65q-5 -68 -45.5 -105.5t-109.5 -37.5t-110 37.5t-46 105.5h66q4 -39 28 -60t62 -21t61.5 21t28.5 60zM259 522q95 0 147.5 -49.5t52.5 -147.5v-195q0 -77 12 -130h-80q-7 32 -7 74h-2q-55 -85 -176 -85q-78 0 -125 41.5t-47 107.5t43.5 104.5t149.5 55.5
q74 12 147 17v20q0 61 -30.5 90t-84.5 29t-84 -27.5t-32 -73.5h-88q4 75 57 122t147 47zM374 217v31q-77 -6 -133 -16q-64 -10 -90.5 -30t-26.5 -58q0 -40 27.5 -63.5t76.5 -23.5q67 0 105 40q23 24 32 49.5t9 70.5z" />
    <glyph glyph-name="Aogonek" unicode="&#x104;" horiz-adv-x="675" 
d="M635 -138q22 0 39 7v-53q-25 -10 -59 -10q-99 0 -99 80q0 32 18.5 58.5t59.5 55.5h-22l-77 212h-314l-78 -212h-98l270 712h125l271 -712q-76 -56 -76 -102q0 -36 40 -36zM465 293l-23 65l-103 290h-2l-103 -290l-24 -65h255z" />
    <glyph glyph-name="aogonek" unicode="&#x105;" horiz-adv-x="531" 
d="M435 -138q22 0 39 7v-53q-25 -10 -59 -10q-99 0 -99 80q0 32 18.5 58.5t59.5 55.5h-3q-7 32 -7 74h-2q-55 -85 -176 -85q-78 0 -125 41.5t-47 107.5t43.5 104.5t149.5 55.5q74 12 147 17v20q0 61 -30.5 90t-84.5 29t-84 -27.5t-32 -73.5h-88q4 75 57 122t147 47
q95 0 147.5 -49.5t52.5 -147.5v-195q0 -77 12 -130q-76 -56 -76 -102q0 -36 40 -36zM374 217v31q-77 -6 -133 -16q-64 -10 -90.5 -30t-26.5 -58q0 -40 27.5 -63.5t76.5 -23.5q67 0 105 40q23 24 32 49.5t9 70.5z" />
    <glyph glyph-name="Cacute" unicode="&#x106;" horiz-adv-x="689" 
d="M364 760h-76l86 138h113zM355 726q125 0 201 -71t82 -184h-95q-7 79 -57.5 125t-130.5 46q-101 0 -158.5 -76.5t-57.5 -209.5t57 -209.5t156 -76.5q79 0 131 47t63 128h96q-11 -120 -88 -189.5t-202 -69.5q-143 0 -226 99t-83 271t83.5 271t228.5 99z" />
    <glyph glyph-name="cacute" unicode="&#x107;" horiz-adv-x="534" 
d="M289 569h-76l86 143h113zM280 522q91 0 150 -54t67 -140h-92q-5 54 -39.5 88t-86.5 34q-67 0 -106 -52.5t-39 -143.5t38.5 -143.5t106.5 -52.5q52 0 86.5 36.5t39.5 92.5h92q-8 -89 -67 -145t-150 -56q-110 0 -174.5 72t-64.5 196t64.5 196t174.5 72z" />
    <glyph glyph-name="Ccircumflex" unicode="&#x108;" horiz-adv-x="689" 
d="M306 898h97l114 -138h-89l-74 89l-73 -89h-89zM355 726q125 0 201 -71t82 -184h-95q-7 79 -57.5 125t-130.5 46q-101 0 -158.5 -76.5t-57.5 -209.5t57 -209.5t156 -76.5q79 0 131 47t63 128h96q-11 -120 -88 -189.5t-202 -69.5q-143 0 -226 99t-83 271t83.5 271t228.5 99
z" />
    <glyph glyph-name="ccircumflex" unicode="&#x109;" horiz-adv-x="534" 
d="M353 569l-73 93l-74 -93h-89l114 143h97l114 -143h-89zM280 522q91 0 150 -54t67 -140h-92q-5 54 -39.5 88t-86.5 34q-67 0 -106 -52.5t-39 -143.5t38.5 -143.5t106.5 -52.5q52 0 86.5 36.5t39.5 92.5h92q-8 -89 -67 -145t-150 -56q-110 0 -174.5 72t-64.5 196t64.5 196
t174.5 72z" />
    <glyph glyph-name="Cdotaccent" unicode="&#x10a;" horiz-adv-x="689" 
d="M399 769h-88v99h88v-99zM355 726q125 0 201 -71t82 -184h-95q-7 79 -57.5 125t-130.5 46q-101 0 -158.5 -76.5t-57.5 -209.5t57 -209.5t156 -76.5q79 0 131 47t63 128h96q-11 -120 -88 -189.5t-202 -69.5q-143 0 -226 99t-83 271t83.5 271t228.5 99z" />
    <glyph glyph-name="cdotaccent" unicode="&#x10b;" horiz-adv-x="534" 
d="M323 613h-88v99h88v-99zM280 522q91 0 150 -54t67 -140h-92q-5 54 -39.5 88t-86.5 34q-67 0 -106 -52.5t-39 -143.5t38.5 -143.5t106.5 -52.5q52 0 86.5 36.5t39.5 92.5h92q-8 -89 -67 -145t-150 -56q-110 0 -174.5 72t-64.5 196t64.5 196t174.5 72z" />
    <glyph glyph-name="Ccaron" unicode="&#x10c;" horiz-adv-x="689" 
d="M403 760h-97l-114 138h89l74 -88l73 88h89zM355 726q125 0 201 -71t82 -184h-95q-7 79 -57.5 125t-130.5 46q-101 0 -158.5 -76.5t-57.5 -209.5t57 -209.5t156 -76.5q79 0 131 47t63 128h96q-11 -120 -88 -189.5t-202 -69.5q-143 0 -226 99t-83 271t83.5 271t228.5 99z
" />
    <glyph glyph-name="ccaron" unicode="&#x10d;" horiz-adv-x="534" 
d="M328 569h-97l-114 143h89l74 -93l73 93h89zM280 522q91 0 150 -54t67 -140h-92q-5 54 -39.5 88t-86.5 34q-67 0 -106 -52.5t-39 -143.5t38.5 -143.5t106.5 -52.5q52 0 86.5 36.5t39.5 92.5h92q-8 -89 -67 -145t-150 -56q-110 0 -174.5 72t-64.5 196t64.5 196t174.5 72z
" />
    <glyph glyph-name="Dcaron" unicode="&#x10e;" horiz-adv-x="723" 
d="M377 760h-97l-114 138h89l74 -88l73 88h89zM95 712h217q177 0 273 -92.5t96 -263.5t-96 -263.5t-273 -92.5h-217v712zM187 630v-548h124q133 0 203 70t70 204t-70 204t-203 70h-124z" />
    <glyph glyph-name="dcaron" unicode="&#x10f;" 
d="M498 0h-86v74h-2q-21 -40 -62.5 -63t-93.5 -23q-97 0 -155 72.5t-58 194.5q0 121 57.5 193.5t154.5 72.5q51 0 92.5 -22.5t62.5 -60.5h2v274h88v-712zM586 536h-54l29 176h80zM276 450q-65 0 -104 -53t-39 -142t39 -142.5t104 -53.5q63 0 101 53t38 143t-38 142.5
t-101 52.5z" />
    <glyph glyph-name="Dcroat" unicode="&#x110;" horiz-adv-x="723" 
d="M95 712h217q177 0 273 -92.5t96 -263.5t-96 -263.5t-273 -92.5h-217v325h-66v71h66v316zM187 82h124q133 0 203 70t70 204t-70 204t-203 70h-124v-234h202v-71h-202v-243z" />
    <glyph glyph-name="dcroat" unicode="&#x111;" horiz-adv-x="570" 
d="M563 580h-65v-580h-86v74h-2q-21 -40 -62.5 -63t-93.5 -23q-97 0 -155 72.5t-58 194.5q0 121 57.5 193.5t154.5 72.5q51 0 92.5 -22.5t62.5 -60.5h2v142h-131v55h131v77h88v-77h65v-55zM276 59q63 0 101 53t38 143t-38 142.5t-101 52.5q-65 0 -104 -53t-39 -142
t39 -142.5t104 -53.5z" />
    <glyph glyph-name="Emacron" unicode="&#x112;" horiz-adv-x="618" 
d="M466 788h-284v65h284v-65zM554 630h-367v-225h346v-81h-346v-242h378v-82h-470v712h459v-82z" />
    <glyph glyph-name="emacron" unicode="&#x113;" horiz-adv-x="550" 
d="M416 616h-284v64h284v-64zM280 54q54 0 89.5 27t44.5 71h90q-14 -71 -72.5 -118.5t-151.5 -47.5q-111 0 -175 74.5t-64 200.5q0 115 63.5 188t172.5 73q85 0 143.5 -47t78.5 -130q10 -41 10 -109h-380q3 -90 44.5 -136t106.5 -46zM277 454q-62 0 -101 -39.5t-46 -111.5
h292q-7 73 -46 112t-99 39z" />
    <glyph glyph-name="Ebreve" unicode="&#x114;" horiz-adv-x="618" 
d="M415 898h65q-5 -68 -45.5 -105t-109.5 -37q-70 0 -110.5 37t-45.5 105h66q4 -38 28 -59t62 -21t61.5 21t28.5 59zM554 630h-367v-225h346v-81h-346v-242h378v-82h-470v712h459v-82z" />
    <glyph glyph-name="ebreve" unicode="&#x115;" horiz-adv-x="550" 
d="M275 569q-69 0 -110 37.5t-46 105.5h66q4 -39 28 -60t62 -21t61.5 21t28.5 60h65q-5 -68 -45.5 -105.5t-109.5 -37.5zM280 54q54 0 89.5 27t44.5 71h90q-14 -71 -72.5 -118.5t-151.5 -47.5q-111 0 -175 74.5t-64 200.5q0 115 63.5 188t172.5 73q85 0 143.5 -47t78.5 -130
q10 -41 10 -109h-380q3 -90 44.5 -136t106.5 -46zM277 454q-62 0 -101 -39.5t-46 -111.5h292q-7 73 -46 112t-99 39z" />
    <glyph glyph-name="Edotaccent" unicode="&#x116;" horiz-adv-x="618" 
d="M368 769h-88v99h88v-99zM554 630h-367v-225h346v-81h-346v-242h378v-82h-470v712h459v-82z" />
    <glyph glyph-name="edotaccent" unicode="&#x117;" horiz-adv-x="550" 
d="M318 613h-88v99h88v-99zM280 54q54 0 89.5 27t44.5 71h90q-14 -71 -72.5 -118.5t-151.5 -47.5q-111 0 -175 74.5t-64 200.5q0 115 63.5 188t172.5 73q85 0 143.5 -47t78.5 -130q10 -41 10 -109h-380q3 -90 44.5 -136t106.5 -46zM277 454q-62 0 -101 -39.5t-46 -111.5h292
q-7 73 -46 112t-99 39z" />
    <glyph glyph-name="Eogonek" unicode="&#x118;" horiz-adv-x="618" 
d="M529 -138q22 0 39 7v-53q-25 -10 -59 -10q-99 0 -99 80q0 32 18.5 58.5t59.5 55.5h-393v712h459v-82h-367v-225h346v-81h-346v-242h378v-82q-76 -56 -76 -102q0 -36 40 -36z" />
    <glyph glyph-name="eogonek" unicode="&#x119;" horiz-adv-x="550" 
d="M280 54q54 0 89.5 27t44.5 71h90q-13 -70 -77 -128q-45 -40 -62.5 -67t-17.5 -55q0 -40 41 -40q22 0 39 7v-53q-25 -10 -59 -10q-99 0 -99 80q0 54 53 102v2q-26 -4 -42 -4q-111 0 -175 74.5t-64 200.5q0 115 63.5 188t172.5 73q85 0 143.5 -47t78.5 -130q10 -41 10 -109
h-380q3 -90 44.5 -136t106.5 -46zM277 454q-62 0 -101 -39.5t-46 -111.5h292q-7 73 -46 112t-99 39z" />
    <glyph glyph-name="Ecaron" unicode="&#x11a;" horiz-adv-x="618" 
d="M373 760h-97l-114 138h89l74 -88l73 88h89zM554 630h-367v-225h346v-81h-346v-242h378v-82h-470v712h459v-82z" />
    <glyph glyph-name="ecaron" unicode="&#x11b;" horiz-adv-x="550" 
d="M226 569l-114 143h89l74 -93l73 93h89l-114 -143h-97zM280 54q54 0 89.5 27t44.5 71h90q-14 -71 -72.5 -118.5t-151.5 -47.5q-111 0 -175 74.5t-64 200.5q0 115 63.5 188t172.5 73q85 0 143.5 -47t78.5 -130q10 -41 10 -109h-380q3 -90 44.5 -136t106.5 -46zM277 454
q-62 0 -101 -39.5t-46 -111.5h292q-7 73 -46 112t-99 39z" />
    <glyph glyph-name="Gcircumflex" unicode="&#x11c;" horiz-adv-x="731" 
d="M311 898h97l114 -138h-89l-74 89l-73 -89h-89zM365 726q122 0 197.5 -61.5t85.5 -166.5h-98q-12 69 -60 106.5t-125 37.5q-105 0 -165.5 -77t-60.5 -211q0 -135 58.5 -211.5t160.5 -76.5q92 0 146.5 56.5t55.5 176.5h-196v79h284v-378h-82v98h-2q-29 -51 -89 -81
t-135 -30q-137 0 -217 98.5t-80 268.5q0 173 86.5 272.5t235.5 99.5z" />
    <glyph glyph-name="gcircumflex" unicode="&#x11d;" horiz-adv-x="573" 
d="M348 569l-73 93l-74 -93h-89l114 143h97l114 -143h-89zM256 521q100 0 152 -87h2v74h85v-477q0 -111 -57 -167.5t-165 -56.5q-97 0 -152.5 43t-57.5 118h88q2 -44 34.5 -68.5t88.5 -24.5q69 0 102 38t33 122v55h-2q-55 -85 -151 -85q-98 0 -156.5 70.5t-58.5 187.5
q0 118 58.5 188t156.5 70zM270 448q-62 0 -99.5 -50.5t-37.5 -134.5q0 -83 37.5 -133.5t99.5 -50.5q66 0 104 49.5t38 134.5q0 86 -38 135.5t-104 49.5z" />
    <glyph glyph-name="Gbreve" unicode="&#x11e;" horiz-adv-x="731" 
d="M450 898h65q-5 -68 -45.5 -105t-109.5 -37q-70 0 -110.5 37t-45.5 105h66q4 -38 28 -59t62 -21t61.5 21t28.5 59zM365 726q122 0 197.5 -61.5t85.5 -166.5h-98q-12 69 -60 106.5t-125 37.5q-105 0 -165.5 -77t-60.5 -211q0 -135 58.5 -211.5t160.5 -76.5q92 0 146.5 56.5
t55.5 176.5h-196v79h284v-378h-82v98h-2q-29 -51 -89 -81t-135 -30q-137 0 -217 98.5t-80 268.5q0 173 86.5 272.5t235.5 99.5z" />
    <glyph glyph-name="gbreve" unicode="&#x11f;" horiz-adv-x="573" 
d="M365 712h65q-5 -68 -45.5 -105.5t-109.5 -37.5t-110 37.5t-46 105.5h66q4 -39 28 -60t62 -21t61.5 21t28.5 60zM256 521q100 0 152 -87h2v74h85v-477q0 -111 -57 -167.5t-165 -56.5q-97 0 -152.5 43t-57.5 118h88q2 -44 34.5 -68.5t88.5 -24.5q69 0 102 38t33 122v55h-2
q-55 -85 -151 -85q-98 0 -156.5 70.5t-58.5 187.5q0 118 58.5 188t156.5 70zM270 448q-62 0 -99.5 -50.5t-37.5 -134.5q0 -83 37.5 -133.5t99.5 -50.5q66 0 104 49.5t38 134.5q0 86 -38 135.5t-104 49.5z" />
    <glyph glyph-name="Gdotaccent" unicode="&#x120;" horiz-adv-x="731" 
d="M403 769h-88v99h88v-99zM365 726q122 0 197.5 -61.5t85.5 -166.5h-98q-12 69 -60 106.5t-125 37.5q-105 0 -165.5 -77t-60.5 -211q0 -135 58.5 -211.5t160.5 -76.5q92 0 146.5 56.5t55.5 176.5h-196v79h284v-378h-82v98h-2q-29 -51 -89 -81t-135 -30q-137 0 -217 98.5
t-80 268.5q0 173 86.5 272.5t235.5 99.5z" />
    <glyph glyph-name="gdotaccent" unicode="&#x121;" horiz-adv-x="573" 
d="M318 613h-88v99h88v-99zM256 521q100 0 152 -87h2v74h85v-477q0 -111 -57 -167.5t-165 -56.5q-97 0 -152.5 43t-57.5 118h88q2 -44 34.5 -68.5t88.5 -24.5q69 0 102 38t33 122v55h-2q-55 -85 -151 -85q-98 0 -156.5 70.5t-58.5 187.5q0 118 58.5 188t156.5 70zM270 448
q-62 0 -99.5 -50.5t-37.5 -134.5q0 -83 37.5 -133.5t99.5 -50.5q66 0 104 49.5t38 134.5q0 86 -38 135.5t-104 49.5z" />
    <glyph glyph-name="Gcommaaccent" unicode="&#x122;" horiz-adv-x="731" 
d="M365 726q122 0 197.5 -61.5t85.5 -166.5h-98q-12 69 -60 106.5t-125 37.5q-105 0 -165.5 -77t-60.5 -211q0 -135 58.5 -211.5t160.5 -76.5q92 0 146.5 56.5t55.5 176.5h-196v79h284v-378h-82v98h-2q-29 -51 -89 -81t-135 -30q-137 0 -217 98.5t-80 268.5
q0 173 86.5 272.5t235.5 99.5zM403 -154l-55 -103h-38l38 103h-34v89h89v-89z" />
    <glyph glyph-name="gcommaaccent" unicode="&#x123;" horiz-adv-x="573" 
d="M283 672h34v-89h-89v89l55 103h38zM256 521q100 0 152 -87h2v74h85v-477q0 -111 -57 -167.5t-165 -56.5q-97 0 -152.5 43t-57.5 118h88q2 -44 34.5 -68.5t88.5 -24.5q69 0 102 38t33 122v55h-2q-55 -85 -151 -85q-98 0 -156.5 70.5t-58.5 187.5q0 118 58.5 188t156.5 70z
M270 448q-62 0 -99.5 -50.5t-37.5 -134.5q0 -83 37.5 -133.5t99.5 -50.5q66 0 104 49.5t38 134.5q0 86 -38 135.5t-104 49.5z" />
    <glyph glyph-name="Hcircumflex" unicode="&#x124;" horiz-adv-x="737" 
d="M320 898h97l114 -138h-89l-74 89l-73 -89h-89zM643 0h-93v329h-363v-329h-92v712h92v-302h363v302h93v-712z" />
    <glyph glyph-name="hcircumflex" unicode="&#x125;" 
d="M239 898h97l114 -138h-89l-74 89l-73 -89h-89zM166 444h2q51 75 151 75q88 0 136 -53t48 -156v-310h-88v303q0 77 -30 110.5t-87 33.5t-94.5 -41t-37.5 -115v-291h-88v712h88v-268z" />
    <glyph glyph-name="Hbar" unicode="&#x126;" horiz-adv-x="737" 
d="M701 574h-58v-574h-93v329h-363v-329h-92v574h-59v58h59v80h92v-80h363v80h93v-80h58v-58zM550 574h-363v-164h363v164z" />
    <glyph glyph-name="hbar" unicode="&#x127;" 
d="M319 519q88 0 136 -53t48 -156v-310h-88v303q0 77 -30 110.5t-87 33.5t-94.5 -41t-37.5 -115v-291h-88v580h-71v52h71v80h88v-80h125v-52h-125v-136h2q51 75 151 75z" />
    <glyph glyph-name="Itilde" unicode="&#x128;" horiz-adv-x="282" 
d="M256 892h58q-3 -55 -30 -85t-71 -30q-33 0 -77 25.5t-63 25.5q-41 0 -46 -51h-58q3 55 30 85t71 30q33 0 77 -25.5t63 -25.5q40 0 46 51zM187 0h-92v712h92v-712z" />
    <glyph glyph-name="itilde" unicode="&#x129;" horiz-adv-x="244" 
d="M221 706h52q-2 -55 -26.5 -85t-66.5 -30q-29 0 -64.5 26t-51.5 26q-37 0 -42 -52h-51q2 55 26.5 85t66.5 30q29 0 64.5 -26.5t51.5 -26.5q36 0 41 53zM166 0h-88v508h88v-508z" />
    <glyph glyph-name="Imacron" unicode="&#x12a;" horiz-adv-x="282" 
d="M283 788h-284v65h284v-65zM187 0h-92v712h92v-712z" />
    <glyph glyph-name="imacron" unicode="&#x12b;" horiz-adv-x="244" 
d="M251 617h-257v65h257v-65zM166 0h-88v508h88v-508z" />
    <glyph glyph-name="Ibreve" unicode="&#x12c;" horiz-adv-x="282" 
d="M231 898h65q-5 -68 -45.5 -105t-109.5 -37q-70 0 -110.5 37t-45.5 105h66q4 -38 28 -59t62 -21t61.5 21t28.5 59zM187 0h-92v712h92v-712z" />
    <glyph glyph-name="ibreve" unicode="&#x12d;" horiz-adv-x="244" 
d="M198 712h63q-3 -68 -39.5 -105.5t-99.5 -37.5t-99.5 37.5t-39.5 105.5h63q6 -82 76 -82t76 82zM166 0h-88v508h88v-508z" />
    <glyph glyph-name="Iogonek" unicode="&#x12e;" horiz-adv-x="282" 
d="M151 -138q22 0 39 7v-53q-25 -10 -59 -10q-99 0 -99 80q0 32 18.5 58.5t59.5 55.5h-15v712h92v-712q-76 -56 -76 -102q0 -36 40 -36z" />
    <glyph glyph-name="iogonek" unicode="&#x12f;" horiz-adv-x="244" 
d="M166 613h-88v99h88v-99zM130 -138q22 0 39 7v-53q-25 -10 -59 -10q-99 0 -99 80q0 32 18.5 58.5t59.5 55.5h-11v508h88v-508q-76 -56 -76 -102q0 -36 40 -36z" />
    <glyph glyph-name="Idotaccent" unicode="&#x130;" horiz-adv-x="282" 
d="M185 769h-88v99h88v-99zM187 0h-92v712h92v-712z" />
    <glyph glyph-name="dotlessi" unicode="&#x131;" horiz-adv-x="244" 
d="M166 0h-88v508h88v-508z" />
    <glyph glyph-name="IJ" unicode="&#x132;" horiz-adv-x="637" 
d="M187 0h-92v712h92v-712zM548 712v-508q0 -209 -201 -209q-31 0 -50 6v82q27 -5 43 -5q59 0 87.5 32t28.5 106v496h92z" />
    <glyph glyph-name="ij" unicode="&#x133;" horiz-adv-x="493" 
d="M166 613h-88v99h88v-99zM415 613h-88v99h88v-99zM166 0h-88v508h88v-508zM415 508v-537q0 -160 -146 -160q-28 0 -47 5v70q15 -3 29 -3q39 0 57.5 21.5t18.5 74.5v529h88z" />
    <glyph glyph-name="Jcircumflex" unicode="&#x134;" horiz-adv-x="356" 
d="M171 898h97l114 -138h-89l-74 89l-73 -89h-89zM266 712v-508q0 -209 -201 -209q-31 0 -50 6v82q27 -5 43 -5q59 0 87.5 32t28.5 106v496h92z" />
    <glyph glyph-name="jcircumflex" unicode="&#x135;" horiz-adv-x="249" 
d="M275 570h-85l-63 93l-62 -93h-86l100 142h96zM171 508v-537q0 -160 -146 -160q-28 0 -47 5v70q15 -3 29 -3q39 0 57.5 21.5t18.5 74.5v529h88z" />
    <glyph glyph-name="Kcommaaccent" unicode="&#x136;" horiz-adv-x="625" 
d="M281 373l340 -373h-123l-309 350h-2v-350h-92v712h92v-321h2l287 321h116zM372 -154l-55 -103h-38l38 103h-34v89h89v-89z" />
    <glyph glyph-name="kcommaaccent" unicode="&#x137;" horiz-adv-x="500" 
d="M509 0h-116l-225 254h-2v-254h-88v712h88v-415h2l205 211h109l-228 -230zM229 -65h89v-89l-55 -103h-38l38 103h-34v89z" />
    <glyph glyph-name="kgreenlandic" unicode="&#x138;" horiz-adv-x="517" 
d="M509 0h-116l-225 254h-2v-254h-88v508h88v-211h2l205 211h109l-228 -230z" />
    <glyph glyph-name="Lacute" unicode="&#x139;" horiz-adv-x="561" 
d="M182 760h-76l86 138h113zM187 82h364v-82h-456v712h92v-630z" />
    <glyph glyph-name="lacute" unicode="&#x13a;" horiz-adv-x="244" 
d="M151 773h-76l86 143h113zM166 0h-88v712h88v-712z" />
    <glyph glyph-name="Lcommaaccent" unicode="&#x13b;" horiz-adv-x="561" 
d="M187 82h364v-82h-456v712h92v-630zM367 -154l-55 -103h-38l38 103h-34v89h89v-89z" />
    <glyph glyph-name="lcommaaccent" unicode="&#x13c;" horiz-adv-x="244" 
d="M166 0h-88v712h88v-712zM166 -154l-55 -103h-38l38 103h-34v89h89v-89z" />
    <glyph glyph-name="Lcaron" unicode="&#x13d;" horiz-adv-x="561" 
d="M187 82h364v-82h-456v712h92v-630zM300 494h-54l29 218h80z" />
    <glyph glyph-name="lcaron" unicode="&#x13e;" horiz-adv-x="244" 
d="M166 0h-88v712h88v-712zM256 536h-54l29 176h80z" />
    <glyph glyph-name="Ldot" unicode="&#x13f;" horiz-adv-x="641" 
d="M187 82h364v-82h-456v712h92v-630zM513 354h-108v117h108v-117z" />
    <glyph glyph-name="ldot" unicode="&#x140;" horiz-adv-x="399" 
d="M166 0h-88v712h88v-712zM375 297h-108v117h108v-117z" />
    <glyph glyph-name="Lslash" unicode="&#x141;" horiz-adv-x="561" 
d="M551 82v-82h-456v305l-79 -48v83l79 47v325h92v-278l148 88v-82l-148 -88v-270h364z" />
    <glyph glyph-name="lslash" unicode="&#x142;" horiz-adv-x="285" 
d="M275 430l-88 -52v-378h-88v335l-89 -52v78l89 53v298h88v-256l88 53v-79z" />
    <glyph glyph-name="Nacute" unicode="&#x143;" horiz-adv-x="755" 
d="M387 760h-76l86 138h113zM661 0h-136l-169 307l-172 319h-2q3 -171 3 -341v-285h-90v712h135l170 -307l172 -319h2q-3 171 -3 341v285h90v-712z" />
    <glyph glyph-name="nacute" unicode="&#x144;" 
d="M300 569h-76l86 143h113zM319 519q88 0 136 -53t48 -156v-310h-88v303q0 77 -30 110.5t-87 33.5t-94.5 -41t-37.5 -115v-291h-88v508h85v-67h2q51 78 154 78z" />
    <glyph glyph-name="Ncommaaccent" unicode="&#x145;" horiz-adv-x="755" 
d="M661 0h-136l-169 307l-172 319h-2q3 -171 3 -341v-285h-90v712h135l170 -307l172 -319h2q-3 171 -3 341v285h90v-712zM422 -154l-55 -103h-38l38 103h-34v89h89v-89z" />
    <glyph glyph-name="ncommaaccent" unicode="&#x146;" 
d="M319 519q88 0 136 -53t48 -156v-310h-88v303q0 77 -30 110.5t-87 33.5t-94.5 -41t-37.5 -115v-291h-88v508h85v-67h2q51 78 154 78zM335 -154l-55 -103h-38l38 103h-34v89h89v-89z" />
    <glyph glyph-name="Ncaron" unicode="&#x147;" horiz-adv-x="755" 
d="M426 760h-97l-114 138h89l74 -88l73 88h89zM661 0h-136l-169 307l-172 319h-2q3 -171 3 -341v-285h-90v712h135l170 -307l172 -319h2q-3 171 -3 341v285h90v-712z" />
    <glyph glyph-name="ncaron" unicode="&#x148;" 
d="M339 569h-97l-114 143h89l74 -93l73 93h89zM319 519q88 0 136 -53t48 -156v-310h-88v303q0 77 -30 110.5t-87 33.5t-94.5 -41t-37.5 -115v-291h-88v508h85v-67h2q51 78 154 78z" />
    <glyph glyph-name="napostrophe" unicode="&#x149;" horiz-adv-x="694" 
d="M168 604l-48 -134h-53l35 134h-33v108h99v-108zM438 519q88 0 135.5 -53t47.5 -156v-310h-88v303q0 144 -116 144q-57 0 -94.5 -41t-37.5 -115v-291h-88v508h84v-67h2q24 36 64.5 57t90.5 21z" />
    <glyph glyph-name="Eng" unicode="&#x14a;" horiz-adv-x="744" 
d="M650 712v-748q0 -154 -148 -154q-28 0 -47 5v70q15 -3 30 -3q38 0 56.5 19.5t18.5 67.5v31l-203 328l-174 287h-2q4 -140 4 -315v-300h-90v712h126l166 -271l174 -287h2q-4 140 -4 316v242h91z" />
    <glyph glyph-name="eng" unicode="&#x14b;" 
d="M321 520q81 0 131 -50q51 -52 51 -171v-333q0 -155 -147 -155q-22 0 -47 5v70q15 -3 29 -3q39 0 58 20.5t19 69.5v319q0 88 -31 123q-31 32 -86 32q-56 0 -94 -41t-38 -114v-292h-88v508h85v-68h2q54 80 156 80z" />
    <glyph glyph-name="Omacron" unicode="&#x14c;" horiz-adv-x="732" 
d="M508 788h-284v65h284v-65zM366 726q149 0 236 -100t87 -270t-87 -270t-236 -100t-236 100t-87 270t87 270t236 100zM366 642q-105 0 -166 -77t-61 -209t61 -209t166 -77q104 0 165.5 77.5t61.5 208.5t-61.5 208.5t-165.5 77.5z" />
    <glyph glyph-name="omacron" unicode="&#x14d;" horiz-adv-x="565" 
d="M424 616h-284v64h284v-64zM282 522q112 0 177 -72t65 -196t-65 -196t-177 -72t-176.5 72t-64.5 196t64.5 196t176.5 72zM282 450q-69 0 -109 -52.5t-40 -143.5t40 -143.5t109 -52.5q70 0 110 52.5t40 143.5t-40 143.5t-110 52.5z" />
    <glyph glyph-name="Obreve" unicode="&#x14e;" horiz-adv-x="732" 
d="M456 898h65q-5 -68 -45.5 -105t-109.5 -37q-70 0 -110.5 37t-45.5 105h66q4 -38 28 -59t62 -21t61.5 21t28.5 59zM366 726q149 0 236 -100t87 -270t-87 -270t-236 -100t-236 100t-87 270t87 270t236 100zM366 642q-105 0 -166 -77t-61 -209t61 -209t166 -77
q104 0 165.5 77.5t61.5 208.5t-61.5 208.5t-165.5 77.5z" />
    <glyph glyph-name="obreve" unicode="&#x14f;" horiz-adv-x="565" 
d="M373 712h65q-5 -68 -45.5 -105.5t-109.5 -37.5t-110 37.5t-46 105.5h66q4 -39 28 -60t62 -21t61.5 21t28.5 60zM282 522q112 0 177 -72t65 -196t-65 -196t-177 -72t-176.5 72t-64.5 196t64.5 196t176.5 72zM282 450q-69 0 -109 -52.5t-40 -143.5t40 -143.5t109 -52.5
q70 0 110 52.5t40 143.5t-40 143.5t-110 52.5z" />
    <glyph glyph-name="Ohungarumlaut" unicode="&#x150;" horiz-adv-x="732" 
d="M294 756h-74l106 142h104zM454 756h-74l106 142h104zM366 726q149 0 236 -100t87 -270t-87 -270t-236 -100t-236 100t-87 270t87 270t236 100zM366 642q-105 0 -166 -77t-61 -209t61 -209t166 -77q104 0 165.5 77.5t61.5 208.5t-61.5 208.5t-165.5 77.5z" />
    <glyph glyph-name="ohungarumlaut" unicode="&#x151;" horiz-adv-x="565" 
d="M218 569h-74l106 143h104zM378 569h-74l106 143h104zM282 522q112 0 177 -72t65 -196t-65 -196t-177 -72t-176.5 72t-64.5 196t64.5 196t176.5 72zM282 450q-69 0 -109 -52.5t-40 -143.5t40 -143.5t109 -52.5q70 0 110 52.5t40 143.5t-40 143.5t-110 52.5z" />
    <glyph glyph-name="OE" unicode="&#x152;" horiz-adv-x="999" 
d="M935 630h-367v-225h347v-81h-347v-242h378v-82h-537q-176 0 -271 92.5t-95 263.5t95 263.5t271 92.5h526v-82zM476 630h-67q-131 0 -200.5 -70.5t-69.5 -203.5t69.5 -203.5t200.5 -70.5h67v548z" />
    <glyph glyph-name="oe" unicode="&#x153;" horiz-adv-x="897" 
d="M635 54q51 0 84 27t42 71h90q-13 -71 -69.5 -118.5t-146.5 -47.5q-123 0 -182 103q-58 -103 -181 -103q-107 0 -169 72t-62 196t62 196t169 72q121 0 181 -102q58 102 179 102q81 0 138 -47.5t76 -129.5q10 -41 10 -109h-364q3 -90 42 -136t101 -46zM632 454
q-58 0 -95 -39.5t-44 -111.5h276q-7 73 -43.5 112t-93.5 39zM272 58q65 0 102.5 52.5t37.5 143.5t-37.5 143.5t-102.5 52.5q-64 0 -101.5 -52.5t-37.5 -143.5t37.5 -143.5t101.5 -52.5z" />
    <glyph glyph-name="Racute" unicode="&#x154;" horiz-adv-x="640" 
d="M325 760h-76l86 138h113zM95 712h226q126 0 188 -50t62 -143q0 -68 -37 -116t-99 -62v-2q39 -12 61 -40t46 -94l73 -205h-100l-65 188q-22 64 -51.5 88t-86.5 24h-125v-300h-92v712zM187 633v-255h133q80 0 118.5 36.5t38.5 97.5q0 121 -163 121h-127z" />
    <glyph glyph-name="racute" unicode="&#x155;" horiz-adv-x="362" 
d="M216 569h-76l86 143h113zM314 513q22 0 37 -4v-79q-33 3 -35 3q-72 0 -111 -45t-39 -129v-259h-88v508h84v-78h2q50 83 150 83z" />
    <glyph glyph-name="Rcommaaccent" unicode="&#x156;" horiz-adv-x="640" 
d="M95 712h226q126 0 188 -50t62 -143q0 -68 -37 -116t-99 -62v-2q39 -12 61 -40t46 -94l73 -205h-100l-65 188q-22 64 -51.5 88t-86.5 24h-125v-300h-92v712zM187 633v-255h133q80 0 118.5 36.5t38.5 97.5q0 121 -163 121h-127zM384 -154l-55 -103h-38l38 103h-34v89h89
v-89z" />
    <glyph glyph-name="rcommaaccent" unicode="&#x157;" horiz-adv-x="362" 
d="M314 513q22 0 37 -4v-79q-33 3 -35 3q-72 0 -111 -45t-39 -129v-259h-88v508h84v-78h2q50 83 150 83zM166 -154l-55 -103h-38l38 103h-34v89h89v-89z" />
    <glyph glyph-name="Rcaron" unicode="&#x158;" horiz-adv-x="640" 
d="M364 760h-97l-114 138h89l74 -88l73 88h89zM95 712h226q126 0 188 -50t62 -143q0 -68 -37 -116t-99 -62v-2q39 -12 61 -40t46 -94l73 -205h-100l-65 188q-22 64 -51.5 88t-86.5 24h-125v-300h-92v712zM187 633v-255h133q80 0 118.5 36.5t38.5 97.5q0 121 -163 121h-127z
" />
    <glyph glyph-name="rcaron" unicode="&#x159;" horiz-adv-x="362" 
d="M255 569h-97l-114 143h89l74 -93l73 93h89zM314 513q22 0 37 -4v-79q-33 3 -35 3q-72 0 -111 -45t-39 -129v-259h-88v508h84v-78h2q50 83 150 83z" />
    <glyph glyph-name="Sacute" unicode="&#x15a;" horiz-adv-x="609" 
d="M298 760h-76l86 138h113zM288 726q255 0 255 -234h-93q0 155 -163 155q-66 0 -103.5 -30t-37.5 -81q0 -53 38 -78t134 -49q48 -12 78 -21t65 -26t54 -37.5t32 -53t13 -75.5q0 -96 -69.5 -153t-185.5 -57q-126 0 -196 64t-70 186h95q0 -86 45 -128.5t127 -42.5
q76 0 117.5 33t41.5 93q0 55 -38 79t-136 49q-40 10 -66 18t-56.5 20t-49 27t-35.5 35.5t-24.5 48t-7.5 62.5q0 87 64 141.5t172 54.5z" />
    <glyph glyph-name="sacute" unicode="&#x15b;" horiz-adv-x="494" 
d="M248 569h-76l86 143h113zM239 522q94 0 146 -45t52 -128h-86q0 51 -29.5 78t-83.5 27q-46 0 -72.5 -19.5t-26.5 -52.5q0 -37 24.5 -51t97.5 -31q98 -24 132 -46q60 -38 60 -116q0 -69 -54.5 -110.5t-146.5 -41.5q-101 0 -156.5 47t-56.5 136h89q0 -54 32.5 -83.5
t92.5 -29.5q50 0 80 21t30 55q0 41 -28.5 57.5t-111.5 36.5q-88 22 -118 41q-54 34 -54 108q0 65 52.5 106t135.5 41z" />
    <glyph glyph-name="Scircumflex" unicode="&#x15c;" horiz-adv-x="609" 
d="M240 898h97l114 -138h-89l-74 89l-73 -89h-89zM288 726q255 0 255 -234h-93q0 155 -163 155q-66 0 -103.5 -30t-37.5 -81q0 -53 38 -78t134 -49q48 -12 78 -21t65 -26t54 -37.5t32 -53t13 -75.5q0 -96 -69.5 -153t-185.5 -57q-126 0 -196 64t-70 186h95q0 -86 45 -128.5
t127 -42.5q76 0 117.5 33t41.5 93q0 55 -38 79t-136 49q-40 10 -66 18t-56.5 20t-49 27t-35.5 35.5t-24.5 48t-7.5 62.5q0 87 64 141.5t172 54.5z" />
    <glyph glyph-name="scircumflex" unicode="&#x15d;" horiz-adv-x="494" 
d="M312 569l-73 93l-74 -93h-89l114 143h97l114 -143h-89zM239 522q94 0 146 -45t52 -128h-86q0 51 -29.5 78t-83.5 27q-46 0 -72.5 -19.5t-26.5 -52.5q0 -37 24.5 -51t97.5 -31q98 -24 132 -46q60 -38 60 -116q0 -69 -54.5 -110.5t-146.5 -41.5q-101 0 -156.5 47t-56.5 136
h89q0 -54 32.5 -83.5t92.5 -29.5q50 0 80 21t30 55q0 41 -28.5 57.5t-111.5 36.5q-88 22 -118 41q-54 34 -54 108q0 65 52.5 106t135.5 41z" />
    <glyph glyph-name="Scedilla" unicode="&#x15e;" horiz-adv-x="609" 
d="M560 196q0 -90 -60.5 -145.5t-164.5 -63.5l-32 -49q18 3 26 3q33 0 56.5 -20.5t23.5 -53.5q0 -37 -28.5 -62t-81.5 -25q-54 0 -105 27l18 37q36 -21 78 -21q56 0 56 41q0 19 -14.5 30.5t-38.5 11.5q-17 0 -31 -6l-18 20l44 66q-118 5 -183.5 69t-65.5 181h95
q0 -86 45 -128.5t127 -42.5q76 0 117.5 33t41.5 93q0 55 -38 79t-136 49q-40 10 -66 18t-56.5 20t-49 27t-35.5 35.5t-24.5 48t-7.5 62.5q0 87 64 141.5t172 54.5q255 0 255 -234h-93q0 155 -163 155q-66 0 -103.5 -30t-37.5 -81q0 -53 38 -78t134 -49q48 -12 78 -21t65 -26
t54 -37.5t32 -53t13 -75.5z" />
    <glyph glyph-name="scedilla" unicode="&#x15f;" horiz-adv-x="494" 
d="M453 138q0 -62 -45.5 -102.5t-123.5 -48.5l-32 -49q18 3 26 3q33 0 56.5 -20.5t23.5 -53.5q0 -37 -28.5 -62t-81.5 -25q-54 0 -105 27l18 37q36 -21 78 -21q56 0 56 41q0 19 -14.5 30.5t-38.5 11.5q-18 0 -31 -6l-18 20l44 66q-94 4 -145.5 51t-52.5 132h89
q0 -54 32.5 -83.5t92.5 -29.5q50 0 80 21t30 55q0 41 -28.5 57.5t-111.5 36.5q-88 22 -118 41q-54 34 -54 108q0 65 52.5 106t135.5 41q94 0 146 -45t52 -128h-86q0 51 -29.5 78t-83.5 27q-46 0 -72.5 -19.5t-26.5 -52.5q0 -37 24.5 -51t97.5 -31q98 -24 132 -46
q60 -38 60 -116z" />
    <glyph glyph-name="Scaron" unicode="&#x160;" horiz-adv-x="609" 
d="M337 760h-97l-114 138h89l74 -88l73 88h89zM288 726q255 0 255 -234h-93q0 155 -163 155q-66 0 -103.5 -30t-37.5 -81q0 -53 38 -78t134 -49q48 -12 78 -21t65 -26t54 -37.5t32 -53t13 -75.5q0 -96 -69.5 -153t-185.5 -57q-126 0 -196 64t-70 186h95q0 -86 45 -128.5
t127 -42.5q76 0 117.5 33t41.5 93q0 55 -38 79t-136 49q-40 10 -66 18t-56.5 20t-49 27t-35.5 35.5t-24.5 48t-7.5 62.5q0 87 64 141.5t172 54.5z" />
    <glyph glyph-name="scaron" unicode="&#x161;" horiz-adv-x="494" 
d="M287 569h-97l-114 143h89l74 -93l73 93h89zM239 522q94 0 146 -45t52 -128h-86q0 51 -29.5 78t-83.5 27q-46 0 -72.5 -19.5t-26.5 -52.5q0 -37 24.5 -51t97.5 -31q98 -24 132 -46q60 -38 60 -116q0 -69 -54.5 -110.5t-146.5 -41.5q-101 0 -156.5 47t-56.5 136h89
q0 -54 32.5 -83.5t92.5 -29.5q50 0 80 21t30 55q0 41 -28.5 57.5t-111.5 36.5q-88 22 -118 41q-54 34 -54 108q0 65 52.5 106t135.5 41z" />
    <glyph glyph-name="Tcedilla" unicode="&#x162;" horiz-adv-x="599" 
d="M589 630h-243v-630h-93v630h-243v82h579v-82zM344 -154l-55 -103h-38l38 103h-34v89h89v-89z" />
    <glyph glyph-name="tcedilla" unicode="&#x163;" horiz-adv-x="320" 
d="M257 69q21 0 36 5v-72q-23 -6 -56 -6q-73 0 -105.5 34t-32.5 112v296h-88v70h88v123h88v-123h101v-70h-101v-287q0 -44 16 -63t54 -19zM134 -65h89v-89l-55 -103h-38l38 103h-34v89z" />
    <glyph glyph-name="Tcaron" unicode="&#x164;" horiz-adv-x="599" 
d="M348 760h-97l-114 138h89l74 -88l73 88h89zM589 630h-243v-630h-93v630h-243v82h579v-82z" />
    <glyph glyph-name="tcaron" unicode="&#x165;" horiz-adv-x="320" 
d="M275 536h-54l29 176h80zM187 438v-287q0 -44 16 -63t54 -19q21 0 36 5v-72q-23 -6 -56 -6q-73 0 -105.5 34t-32.5 112v296h-88v70h88v123h88v-123h101v-70h-101z" />
    <glyph glyph-name="Tbar" unicode="&#x166;" horiz-adv-x="599" 
d="M346 630v-221h141v-72h-141v-337h-93v337h-141v72h141v221h-243v82h579v-82h-243z" />
    <glyph glyph-name="tbar" unicode="&#x167;" horiz-adv-x="318" 
d="M257 69q21 0 36 5v-72q-23 -6 -56 -6q-73 0 -105.5 34t-32.5 112v101h-85v59h85v136h-88v70h88v123h88v-123h101v-70h-101v-136h98v-59h-98v-92q0 -44 16 -63t54 -19z" />
    <glyph glyph-name="Utilde" unicode="&#x168;" horiz-adv-x="705" 
d="M467 892h58q-3 -55 -30 -85t-71 -30q-33 0 -77 25.5t-63 25.5q-42 0 -46 -51h-58q3 55 30 85t71 30q33 0 77 -25.5t63 -25.5q40 0 46 51zM617 712v-445q0 -137 -68 -209t-196 -72q-129 0 -196.5 71.5t-67.5 209.5v445h92v-443q0 -98 45 -148.5t127 -50.5t126.5 50.5
t44.5 148.5v443h93z" />
    <glyph glyph-name="utilde" unicode="&#x169;" 
d="M403 706h58q-3 -55 -30 -85t-71 -30q-33 0 -77 25.5t-63 25.5q-41 0 -46 -51h-58q3 55 30 85t71 30q33 0 77 -25.5t63 -25.5q40 0 46 51zM256 -11q-88 0 -135.5 53t-47.5 156v310h88v-303q0 -77 30 -110.5t87 -33.5q56 0 94 41.5t38 114.5v291h88v-508h-85v67h-2
q-24 -36 -64.5 -57t-90.5 -21z" />
    <glyph glyph-name="Umacron" unicode="&#x16a;" horiz-adv-x="705" 
d="M494 788h-284v65h284v-65zM617 712v-445q0 -137 -68 -209t-196 -72q-129 0 -196.5 71.5t-67.5 209.5v445h92v-443q0 -98 45 -148.5t127 -50.5t126.5 50.5t44.5 148.5v443h93z" />
    <glyph glyph-name="umacron" unicode="&#x16b;" 
d="M430 616h-284v64h284v-64zM256 -11q-88 0 -135.5 53t-47.5 156v310h88v-303q0 -77 30 -110.5t87 -33.5q56 0 94 41.5t38 114.5v291h88v-508h-85v67h-2q-24 -36 -64.5 -57t-90.5 -21z" />
    <glyph glyph-name="Ubreve" unicode="&#x16c;" horiz-adv-x="705" 
d="M443 898h65q-5 -68 -45.5 -105t-109.5 -37q-70 0 -110.5 37t-45.5 105h66q4 -38 28 -59t62 -21t61.5 21t28.5 59zM617 712v-445q0 -137 -68 -209t-196 -72q-129 0 -196.5 71.5t-67.5 209.5v445h92v-443q0 -98 45 -148.5t127 -50.5t126.5 50.5t44.5 148.5v443h93z" />
    <glyph glyph-name="ubreve" unicode="&#x16d;" 
d="M379 712h65q-5 -68 -45.5 -105.5t-109.5 -37.5t-110 37.5t-46 105.5h66q4 -39 28 -60t62 -21t61.5 21t28.5 60zM256 -11q-88 0 -135.5 53t-47.5 156v310h88v-303q0 -77 30 -110.5t87 -33.5q56 0 94 41.5t38 114.5v291h88v-508h-85v67h-2q-24 -36 -64.5 -57t-90.5 -21z
" />
    <glyph glyph-name="Uring" unicode="&#x16e;" horiz-adv-x="705" 
d="M352 953q42 0 71.5 -29.5t29.5 -71.5q0 -41 -29.5 -70.5t-71.5 -29.5q-41 0 -70.5 29.5t-29.5 70.5q0 42 29.5 71.5t70.5 29.5zM352 910q-23 0 -40 -17t-17 -41t17 -40.5t40 -16.5q25 0 41.5 16.5t16.5 40.5t-16.5 41t-41.5 17zM617 712v-445q0 -137 -68 -209t-196 -72
q-129 0 -196.5 71.5t-67.5 209.5v445h92v-443q0 -98 45 -148.5t127 -50.5t126.5 50.5t44.5 148.5v443h93z" />
    <glyph glyph-name="uring" unicode="&#x16f;" 
d="M288 766q42 0 71.5 -29.5t29.5 -70.5q0 -42 -29.5 -71.5t-71.5 -29.5q-41 0 -70.5 29.5t-29.5 71.5q0 41 29.5 70.5t70.5 29.5zM288 724q-23 0 -40 -17t-17 -41t16.5 -41t40.5 -17q25 0 41.5 16.5t16.5 41.5q0 24 -16.5 41t-41.5 17zM256 -11q-88 0 -135.5 53t-47.5 156
v310h88v-303q0 -77 30 -110.5t87 -33.5q56 0 94 41.5t38 114.5v291h88v-508h-85v67h-2q-24 -36 -64.5 -57t-90.5 -21z" />
    <glyph glyph-name="Uhungarumlaut" unicode="&#x170;" horiz-adv-x="705" 
d="M281 756h-74l106 142h104zM441 756h-74l106 142h104zM617 712v-445q0 -137 -68 -209t-196 -72q-129 0 -196.5 71.5t-67.5 209.5v445h92v-443q0 -98 45 -148.5t127 -50.5t126.5 50.5t44.5 148.5v443h93z" />
    <glyph glyph-name="uhungarumlaut" unicode="&#x171;" 
d="M224 569h-74l106 143h104zM384 569h-74l106 143h104zM256 -11q-88 0 -135.5 53t-47.5 156v310h88v-303q0 -77 30 -110.5t87 -33.5q56 0 94 41.5t38 114.5v291h88v-508h-85v67h-2q-24 -36 -64.5 -57t-90.5 -21z" />
    <glyph glyph-name="Uogonek" unicode="&#x172;" horiz-adv-x="705" 
d="M617 712v-445q0 -90 -28.5 -150.5t-85.5 -105.5q-43 -34 -59.5 -58t-16.5 -49q0 -42 41 -42q21 0 38 7v-53q-25 -10 -58 -10q-99 0 -99 85q0 50 60 101v2q-27 -8 -56 -8q-129 0 -196.5 71.5t-67.5 209.5v445h92v-443q0 -98 45 -148.5t127 -50.5t126.5 50.5t44.5 148.5
v443h93z" />
    <glyph glyph-name="uogonek" unicode="&#x173;" 
d="M462 -138q22 0 39 7v-53q-25 -10 -59 -10q-99 0 -99 80q0 32 18.5 58.5t59.5 55.5h-8v67h-2q-24 -36 -64.5 -57t-90.5 -21q-88 0 -135.5 53t-47.5 156v310h88v-303q0 -77 30 -110.5t87 -33.5q56 0 94 41.5t38 114.5v291h88v-508q-76 -56 -76 -102q0 -36 40 -36z" />
    <glyph glyph-name="Wcircumflex" unicode="&#x174;" horiz-adv-x="916" 
d="M409 898h97l114 -138h-89l-74 89l-73 -89h-89zM740 0h-132l-75 311q-41 169 -74 319h-2q-33 -150 -74 -319l-75 -311h-132l-166 712h92l67 -288l74 -335h2q45 202 79 336l70 287h128l70 -287q34 -134 79 -336h2q31 151 74 335l67 288h92z" />
    <glyph glyph-name="wcircumflex" unicode="&#x175;" horiz-adv-x="770" 
d="M458 569l-73 93l-74 -93h-89l114 143h97l114 -143h-89zM628 0h-126l-60 220l-56 220h-2l-56 -220l-60 -220h-126l-135 508h89l54 -212l56 -228h2q27 114 56 223l58 217h126l58 -217l56 -223h2l56 228l54 212h89z" />
    <glyph glyph-name="Ycircumflex" unicode="&#x176;" horiz-adv-x="614" 
d="M258 898h97l114 -138h-89l-74 89l-73 -89h-89zM353 295v-295h-92v295l-257 417h107l87 -147l108 -188h2l108 188l88 147h106z" />
    <glyph glyph-name="ycircumflex" unicode="&#x177;" horiz-adv-x="472" 
d="M310 569l-73 93l-74 -93h-89l114 143h97l114 -143h-89zM478 508l-204 -531q-37 -96 -81.5 -131t-127.5 -35q-30 0 -46 5v74q18 -6 42 -6q50 0 75.5 23t50.5 91l-193 510h95l146 -404h2l148 404h93z" />
    <glyph glyph-name="Ydieresis" unicode="&#x178;" horiz-adv-x="614" 
d="M250 775h-82v99h82v-99zM445 775h-82v99h82v-99zM353 295v-295h-92v295l-257 417h107l87 -147l108 -188h2l108 188l88 147h106z" />
    <glyph glyph-name="Zacute" unicode="&#x179;" horiz-adv-x="566" 
d="M288 760h-76l86 138h113zM529 624l-403 -541v-2h422v-81h-530v88l403 541v2h-392v81h500v-88z" />
    <glyph glyph-name="zacute" unicode="&#x17a;" horiz-adv-x="469" 
d="M235 569h-76l86 143h113zM433 432l-299 -358v-2h309v-72h-417v76l299 358v2h-289v72h397v-76z" />
    <glyph glyph-name="Zdotaccent" unicode="&#x17b;" horiz-adv-x="566" 
d="M323 769h-88v99h88v-99zM529 624l-403 -541v-2h422v-81h-530v88l403 541v2h-392v81h500v-88z" />
    <glyph glyph-name="zdotaccent" unicode="&#x17c;" horiz-adv-x="469" 
d="M269 613h-88v99h88v-99zM433 432l-299 -358v-2h309v-72h-417v76l299 358v2h-289v72h397v-76z" />
    <glyph glyph-name="Zcaron" unicode="&#x17d;" horiz-adv-x="566" 
d="M327 760h-97l-114 138h89l74 -88l73 88h89zM529 624l-403 -541v-2h422v-81h-530v88l403 541v2h-392v81h500v-88z" />
    <glyph glyph-name="zcaron" unicode="&#x17e;" horiz-adv-x="469" 
d="M274 569h-97l-114 143h89l74 -93l73 93h89zM433 432l-299 -358v-2h309v-72h-417v76l299 358v2h-289v72h397v-76z" />
    <glyph glyph-name="longs" unicode="&#x17f;" horiz-adv-x="305" 
d="M241 717q31 0 51 -5v-68q-9 3 -29 3q-38 0 -56 -20t-18 -66v-561h-87v438h-89v70h89v63q0 146 139 146z" />
    <glyph glyph-name="florin" unicode="&#x192;" horiz-adv-x="562" 
d="M485 719q28 0 56 -7v-73q-20 5 -43 5q-44 0 -68.5 -23.5t-38.5 -80.5l-18 -72h110v-68h-126l-103 -407q-26 -101 -66.5 -142t-117.5 -41q-27 0 -48 6v75q18 -6 40 -6q41 0 64.5 24t40.5 94l101 397h-101v68h117l20 81q23 92 64.5 131t116.5 39z" />
    <glyph glyph-name="Scommaaccent" unicode="&#x218;" horiz-adv-x="609" 
d="M288 726q255 0 255 -234h-93q0 155 -163 155q-66 0 -103.5 -30t-37.5 -81q0 -53 38 -78t134 -49q48 -12 78 -21t65 -26t54 -37.5t32 -53t13 -75.5q0 -96 -69.5 -153t-185.5 -57q-126 0 -196 64t-70 186h95q0 -86 45 -128.5t127 -42.5q76 0 117.5 33t41.5 93q0 55 -38 79
t-136 49q-40 10 -66 18t-56.5 20t-49 27t-35.5 35.5t-24.5 48t-7.5 62.5q0 87 64 141.5t172 54.5zM347 -154l-55 -103h-38l38 103h-34v89h89v-89z" />
    <glyph glyph-name="scommaaccent" unicode="&#x219;" horiz-adv-x="494" 
d="M239 522q94 0 146 -45t52 -128h-86q0 51 -29.5 78t-83.5 27q-46 0 -72.5 -19.5t-26.5 -52.5q0 -37 24.5 -51t97.5 -31q98 -24 132 -46q60 -38 60 -116q0 -69 -54.5 -110.5t-146.5 -41.5q-101 0 -156.5 47t-56.5 136h89q0 -54 32.5 -83.5t92.5 -29.5q50 0 80 21t30 55
q0 41 -28.5 57.5t-111.5 36.5q-88 22 -118 41q-54 34 -54 108q0 65 52.5 106t135.5 41zM295 -154l-55 -103h-38l38 103h-34v89h89v-89z" />
    <glyph glyph-name="Tcommaaccent" unicode="&#x21a;" horiz-adv-x="599" 
d="M589 630h-243v-630h-93v630h-243v82h579v-82zM344 -154l-55 -103h-38l38 103h-34v89h89v-89z" />
    <glyph glyph-name="tcommaaccent" unicode="&#x21b;" horiz-adv-x="320" 
d="M257 69q21 0 36 5v-72q-23 -6 -56 -6q-73 0 -105.5 34t-32.5 112v296h-88v70h88v123h88v-123h101v-70h-101v-287q0 -44 16 -63t54 -19zM134 -65h89v-89l-55 -103h-38l38 103h-34v89z" />
    <glyph glyph-name="dotlessj" unicode="&#x237;" horiz-adv-x="249" 
d="M171 508v-537q0 -160 -146 -160q-28 0 -47 5v70q15 -3 29 -3q39 0 57.5 21.5t18.5 74.5v529h88z" />
    <glyph glyph-name="apostrophemod" unicode="&#x2bc;" horiz-adv-x="237" 
d="M168 604l-48 -134h-53l35 134h-33v108h99v-108z" />
    <glyph glyph-name="circumflex" unicode="&#x2c6;" horiz-adv-x="425" 
d="M286 569l-73 93l-74 -93h-89l114 143h97l114 -143h-89z" />
    <glyph glyph-name="caron" unicode="&#x2c7;" horiz-adv-x="425" 
d="M261 569h-97l-114 143h89l74 -93l73 93h89z" />
    <glyph glyph-name="firsttonechinese" unicode="&#x2c9;" horiz-adv-x="384" 
d="M334 616h-284v64h284v-64z" />
    <glyph glyph-name="breve" unicode="&#x2d8;" horiz-adv-x="411" 
d="M296 712h65q-5 -68 -45.5 -105.5t-109.5 -37.5t-110 37.5t-46 105.5h66q4 -39 28 -60t62 -21t61.5 21t28.5 60z" />
    <glyph glyph-name="dotaccent" unicode="&#x2d9;" horiz-adv-x="188" 
d="M138 613h-88v99h88v-99z" />
    <glyph glyph-name="ring" unicode="&#x2da;" horiz-adv-x="301" 
d="M150 766q42 0 71.5 -29.5t29.5 -70.5q0 -42 -29.5 -71.5t-71.5 -29.5q-41 0 -70.5 29.5t-29.5 71.5q0 41 29.5 70.5t70.5 29.5zM150 724q-23 0 -40 -17t-17 -41t16.5 -41t40.5 -17q25 0 41.5 16.5t16.5 41.5q0 24 -16.5 41t-41.5 17z" />
    <glyph glyph-name="ogonek" unicode="&#x2db;" horiz-adv-x="258" 
d="M131 2l74 -2q-76 -56 -76 -102q0 -36 40 -36q22 0 39 7v-53q-25 -10 -59 -10q-99 0 -99 80q0 33 19 59.5t62 56.5z" />
    <glyph glyph-name="tilde" unicode="&#x2dc;" horiz-adv-x="445" 
d="M337 706h58q-3 -55 -30 -85t-71 -30q-33 0 -77 25.5t-63 25.5q-41 0 -46 -51h-58q3 55 30 85t71 30q33 0 77 -25.5t63 -25.5q40 0 46 51z" />
    <glyph glyph-name="hungarumlaut" unicode="&#x2dd;" horiz-adv-x="470" 
d="M124 569h-74l106 143h104zM284 569h-74l106 143h104z" />
    <glyph glyph-name="commaturnedabovecomb" unicode="&#x312;" horiz-adv-x="0" 
d="M105 672h34v-89h-89v89l55 103h38z" />
    <glyph glyph-name="commaaccent" unicode="&#x326;" horiz-adv-x="0" 
d="M143 -154l-55 -103h-38l38 103h-34v89h89v-89z" />
    <glyph glyph-name="Delta" unicode="&#x394;" horiz-adv-x="675" 
d="M671 0h-666l271 712h125zM542 82l-101 276l-103 290h-2l-103 -290l-101 -276h410z" />
    <glyph glyph-name="Omega" unicode="&#x3a9;" horiz-adv-x="729" 
d="M364 726q144 0 230 -80t86 -235q0 -96 -41.5 -173t-117.5 -155v-2h170v-81h-264v84q76 78 116.5 151.5t40.5 165.5q0 118 -60 179.5t-160 61.5q-99 0 -159 -61.5t-60 -179.5q0 -92 40.5 -165.5t116.5 -151.5v-84h-264v81h170v2q-76 78 -117.5 155t-41.5 173q0 155 86 235
t229 80z" />
    <glyph glyph-name="mu" unicode="&#x3bc;" horiz-adv-x="583" 
d="M499 508v-363q0 -45 10.5 -61.5t36.5 -16.5q12 0 24 3v-67q-27 -9 -60 -9q-42 0 -64.5 19.5t-28.5 62.5h-2q-18 -38 -56 -60.5t-86 -22.5q-74 0 -107 42v-220h-88v693h88v-301q0 -77 28.5 -110.5t84.5 -33.5q57 0 94.5 40.5t37.5 114.5v290h88z" />
    <glyph glyph-name="pi" unicode="&#x3c0;" horiz-adv-x="652" 
d="M633 438h-117v-281q0 -52 17 -72t52 -20q14 0 30 4v-67q-24 -8 -60 -8q-64 0 -95.5 35t-31.5 118v291h-225v-438h-88v438h-103v70h621v-70z" />
    <glyph glyph-name="Wgrave" unicode="&#x1e80;" horiz-adv-x="916" 
d="M438 898l86 -138h-76l-123 138h113zM740 0h-132l-75 311q-41 169 -74 319h-2q-33 -150 -74 -319l-75 -311h-132l-166 712h92l67 -288l74 -335h2q45 202 79 336l70 287h128l70 -287q34 -134 79 -336h2q31 151 74 335l67 288h92z" />
    <glyph glyph-name="wgrave" unicode="&#x1e81;" horiz-adv-x="770" 
d="M366 712l86 -143h-76l-123 143h113zM628 0h-126l-60 220l-56 220h-2l-56 -220l-60 -220h-126l-135 508h89l54 -212l56 -228h2q27 114 56 223l58 217h126l58 -217l56 -223h2l56 228l54 212h89z" />
    <glyph glyph-name="Wacute" unicode="&#x1e82;" horiz-adv-x="916" 
d="M467 760h-76l86 138h113zM740 0h-132l-75 311q-41 169 -74 319h-2q-33 -150 -74 -319l-75 -311h-132l-166 712h92l67 -288l74 -335h2q45 202 79 336l70 287h128l70 -287q34 -134 79 -336h2q31 151 74 335l67 288h92z" />
    <glyph glyph-name="wacute" unicode="&#x1e83;" horiz-adv-x="770" 
d="M394 569h-76l86 143h113zM628 0h-126l-60 220l-56 220h-2l-56 -220l-60 -220h-126l-135 508h89l54 -212l56 -228h2q27 114 56 223l58 217h126l58 -217l56 -223h2l56 228l54 212h89z" />
    <glyph glyph-name="Wdieresis" unicode="&#x1e84;" horiz-adv-x="916" 
d="M401 775h-82v99h82v-99zM596 775h-82v99h82v-99zM740 0h-132l-75 311q-41 169 -74 319h-2q-33 -150 -74 -319l-75 -311h-132l-166 712h92l67 -288l74 -335h2q45 202 79 336l70 287h128l70 -287q34 -134 79 -336h2q31 151 74 335l67 288h92z" />
    <glyph glyph-name="wdieresis" unicode="&#x1e85;" horiz-adv-x="770" 
d="M328 613h-82v99h82v-99zM523 613h-82v99h82v-99zM628 0h-126l-60 220l-56 220h-2l-56 -220l-60 -220h-126l-135 508h89l54 -212l56 -228h2q27 114 56 223l58 217h126l58 -217l56 -223h2l56 228l54 212h89z" />
    <glyph glyph-name="Germandbls" unicode="&#x1e9e;" horiz-adv-x="769" 
d="M666 598l-165 -176q222 -46 222 -230q0 -98 -63 -151t-170 -53q-106 0 -162 49.5t-56 143.5h91q0 -55 32.5 -84t94.5 -29q64 0 100.5 32t36.5 93q0 77 -57.5 116.5t-171.5 48.5v68l151 161q-61 58 -161 58q-211 0 -211 -221v-424h-92v423q0 146 79.5 224t227.5 78
q85 0 156.5 -34t117.5 -93z" />
    <glyph glyph-name="Ygrave" unicode="&#x1ef2;" horiz-adv-x="614" 
d="M288 898l86 -138h-76l-123 138h113zM353 295v-295h-92v295l-257 417h107l87 -147l108 -188h2l108 188l88 147h106z" />
    <glyph glyph-name="ygrave" unicode="&#x1ef3;" horiz-adv-x="472" 
d="M217 712l86 -143h-76l-123 143h113zM478 508l-204 -531q-37 -96 -81.5 -131t-127.5 -35q-30 0 -46 5v74q18 -6 42 -6q50 0 75.5 23t50.5 91l-193 510h95l146 -404h2l148 404h93z" />
    <glyph glyph-name="hyphentwo" unicode="&#x2010;" horiz-adv-x="300" 
d="M270 253h-240v78h240v-78z" />
    <glyph glyph-name="endash" unicode="&#x2013;" horiz-adv-x="500" 
d="M480 253h-460v78h460v-78z" />
    <glyph glyph-name="emdash" unicode="&#x2014;" horiz-adv-x="1000" 
d="M980 253h-960v78h960v-78z" />
    <glyph glyph-name="horizontalbar" unicode="&#x2015;" horiz-adv-x="1000" 
d="M980 253h-960v78h960v-78z" />
    <glyph glyph-name="underscoredbl" unicode="&#x2017;" horiz-adv-x="500" 
d="M500 -99h-500v49h500v-49zM500 -228h-500v49h500v-49z" />
    <glyph glyph-name="quoteleft" unicode="&#x2018;" horiz-adv-x="237" 
d="M69 578l48 134h53l-35 -134h34v-108h-100v108z" />
    <glyph glyph-name="quoteright" unicode="&#x2019;" horiz-adv-x="237" 
d="M168 604l-48 -134h-53l35 134h-33v108h99v-108z" />
    <glyph glyph-name="quotesinglbase" unicode="&#x201a;" horiz-adv-x="237" 
d="M168 0l-48 -134h-53l35 134h-33v108h99v-108z" />
    <glyph glyph-name="quotedblleft" unicode="&#x201c;" horiz-adv-x="398" 
d="M69 578l48 134h53l-35 -134h34v-108h-100v108zM230 578l48 134h52l-35 -134h34v-108h-99v108z" />
    <glyph glyph-name="quotedblright" unicode="&#x201d;" horiz-adv-x="398" 
d="M168 604l-48 -134h-53l35 134h-33v108h99v-108zM329 604l-48 -134h-53l35 134h-34v108h100v-108z" />
    <glyph glyph-name="quotedblbase" unicode="&#x201e;" horiz-adv-x="398" 
d="M168 0l-48 -134h-53l35 134h-33v108h99v-108zM329 0l-48 -134h-53l35 134h-33v108h99v-108z" />
    <glyph glyph-name="dagger" unicode="&#x2020;" horiz-adv-x="536" 
d="M313 522h169v-74h-169v-568h-90v568h-169v74h169v190h90v-190z" />
    <glyph glyph-name="daggerdbl" unicode="&#x2021;" horiz-adv-x="536" 
d="M313 523h169v-74h-169v-264h169v-74h-169v-231h-90v231h-169v74h169v264h-169v74h169v189h90v-189z" />
    <glyph glyph-name="bullet" unicode="&#x2022;" horiz-adv-x="335" 
d="M167 241q-47 0 -80.5 34t-33.5 81q0 48 33.5 81.5t80.5 33.5q48 0 81.5 -33.5t33.5 -81.5q0 -47 -33.5 -81t-81.5 -34z" />
    <glyph glyph-name="ellipsis" unicode="&#x2026;" horiz-adv-x="753" 
d="M167 0h-108v117h108v-117zM431 0h-108v117h108v-117zM694 0h-108v117h108v-117z" />
    <glyph glyph-name="perthousand" unicode="&#x2030;" horiz-adv-x="1014" 
d="M167 -30h-70l422 734h70zM165 688q64 0 99 -43t35 -122t-35 -122.5t-99 -43.5q-65 0 -100 43.5t-35 122.5t35 122t100 43zM165 629q-30 0 -46.5 -27.5t-16.5 -78.5t16.5 -78.5t46.5 -27.5q29 0 45.5 27.5t16.5 78.5t-16.5 78.5t-45.5 27.5zM521 317q64 0 99.5 -43
t35.5 -122t-35.5 -122t-99.5 -43q-65 0 -100 43t-35 122t35 122t100 43zM849 317q65 0 100 -43t35 -122t-35 -122t-100 -43q-64 0 -99.5 43t-35.5 122t35.5 122t99.5 43zM521 258q-30 0 -46.5 -27.5t-16.5 -78.5t16.5 -78.5t46.5 -27.5q29 0 45.5 27.5t16.5 78.5t-16.5 78.5
t-45.5 27.5zM849 258q-29 0 -45.5 -27.5t-16.5 -78.5t16.5 -78.5t45.5 -27.5q30 0 46.5 27.5t16.5 78.5t-16.5 78.5t-46.5 27.5z" />
    <glyph glyph-name="guilsinglleft" unicode="&#x2039;" horiz-adv-x="292" 
d="M133 254l111 -200h-82l-114 200l114 200h82z" />
    <glyph glyph-name="guilsinglright" unicode="&#x203a;" horiz-adv-x="292" 
d="M130 454l114 -200l-114 -200h-82l111 200l-111 200h82z" />
    <glyph glyph-name="interrobang" unicode="&#x203d;" horiz-adv-x="516" 
d="M302 712l-2 -64q81 -8 129 -52t48 -111q0 -55 -20.5 -92t-85.5 -87q-50 -38 -64.5 -63t-14.5 -78h-72l-12 397q-77 -23 -83 -113h-92q9 168 172 196l-2 67h99zM324 366q37 36 48 58.5t11 57.5q0 34 -22.5 56.5t-63.5 29.5l-8 -235h2zM203 106h103v-106h-103v106z" />
    <glyph glyph-name="overline" unicode="&#x203e;" horiz-adv-x="500" 
d="M500 788h-500v65h500v-65z" />
    <glyph glyph-name="fraction" unicode="&#x2044;" horiz-adv-x="147" 
d="M-82 0h-73l384 674h74z" />
    <glyph glyph-name="zerosuperior" unicode="&#x2070;" horiz-adv-x="434" 
d="M217 812q88 0 134.5 -63.5t46.5 -182.5t-46.5 -182.5t-134.5 -63.5t-134.5 63.5t-46.5 182.5t46.5 182.5t134.5 63.5zM217 746q-48 0 -74 -46.5t-26 -133.5q0 -88 26 -135t74 -47t73.5 47t25.5 135q0 87 -25.5 133.5t-73.5 46.5z" />
    <glyph glyph-name="foursuperior" unicode="&#x2074;" horiz-adv-x="406" 
d="M395 445h-81v-115h-76v115h-227v69l201 288h102v-293h81v-64zM85 509h154v61q0 53 2 163h-1l-103 -150z" />
    <glyph glyph-name="fivesuperior" unicode="&#x2075;" horiz-adv-x="414" 
d="M354 736h-219l-12 -129h2q33 35 94 35q72 0 115 -42t43 -113q0 -76 -47 -121.5t-127 -45.5q-75 0 -120 37t-45 101h80q1 -34 24.5 -53.5t60.5 -19.5q43 0 68 26.5t25 71.5t-24.5 70.5t-65.5 25.5q-68 0 -86 -62l-78 4l27 281h285v-66z" />
    <glyph glyph-name="sixsuperior" unicode="&#x2076;" horiz-adv-x="417" 
d="M221 812q68 0 109.5 -36t47.5 -99h-81q-12 70 -78 70q-101 0 -108 -163h2q41 54 117 54q68 0 111 -43t43 -112q0 -73 -47.5 -118t-123.5 -45q-86 0 -131.5 58t-45.5 171q0 127 48.5 195t136.5 68zM215 575q-41 0 -66 -26t-25 -68q0 -44 24.5 -70t65.5 -26q40 0 65 27
t25 70q0 42 -24.5 67.5t-64.5 25.5z" />
    <glyph glyph-name="sevensuperior" unicode="&#x2077;" horiz-adv-x="366" 
d="M355 802v-67q-122 -167 -168 -405h-88q58 244 175 404h-263v68h344z" />
    <glyph glyph-name="eightsuperior" unicode="&#x2078;" horiz-adv-x="417" 
d="M208 812q73 0 119 -36.5t46 -94.5q0 -72 -82 -106v-2q92 -28 92 -114q0 -63 -48 -101t-127 -38t-126.5 38t-47.5 101q0 86 92 114v2q-83 34 -83 106q0 58 46 94.5t119 36.5zM208 747q-39 0 -63.5 -19t-24.5 -50q0 -34 24 -54t64 -20t64 20t24 54q0 31 -24.5 50t-63.5 19z
M208 541q-42 0 -68.5 -21.5t-26.5 -56.5q0 -36 26 -57t69 -21t69 21t26 57q0 35 -26 56.5t-69 21.5z" />
    <glyph glyph-name="ninesuperior" unicode="&#x2079;" horiz-adv-x="417" 
d="M195 320q-68 0 -109 36t-47 99h81q11 -70 77 -70q102 0 108 163h-2q-40 -54 -116 -54q-69 0 -112 43t-43 112q0 73 47.5 118t123.5 45q86 0 132 -58t46 -171q0 -127 -49 -195t-137 -68zM202 557q40 0 65.5 26.5t25.5 67.5q0 44 -24.5 70t-65.5 26q-40 0 -65 -27t-25 -70
q0 -42 24.5 -67.5t64.5 -25.5z" />
    <glyph glyph-name="plussuperior" unicode="&#x207a;" horiz-adv-x="408" 
d="M235 583h123v-63h-123v-118h-63v118h-123v63h123v119h63v-119z" />
    <glyph glyph-name="minussuperior" unicode="&#x207b;" horiz-adv-x="408" 
d="M358 520h-309v63h309v-63z" />
    <glyph glyph-name="equalsuperior" unicode="&#x207c;" horiz-adv-x="408" 
d="M358 582h-309v62h309v-62zM358 459h-309v62h309v-62z" />
    <glyph glyph-name="parenleftsuperior" unicode="&#x207d;" horiz-adv-x="220" 
d="M134 849h65q-81 -151 -81 -311q0 -162 81 -311h-65q-99 141 -99 311t99 311z" />
    <glyph glyph-name="parenrightsuperior" unicode="&#x207e;" horiz-adv-x="220" 
d="M86 227h-65q81 153 81 311q0 159 -81 311h65q98 -140 98 -311t-98 -311z" />
    <glyph glyph-name="zeroinferior" unicode="&#x2080;" horiz-adv-x="434" 
d="M216 310q88 0 134.5 -63.5t46.5 -182.5t-46.5 -182.5t-134.5 -63.5t-134.5 63.5t-46.5 182.5t46.5 182.5t134.5 63.5zM216 244q-48 0 -74 -46.5t-26 -133.5q0 -88 26 -135t74 -47t73.5 47t25.5 135q0 87 -25.5 133.5t-73.5 46.5z" />
    <glyph glyph-name="oneinferior" unicode="&#x2081;" horiz-adv-x="274" 
d="M201 -172h-79v332h-112v60q60 0 88.5 18.5t35.5 61.5h67v-472z" />
    <glyph glyph-name="twoinferior" unicode="&#x2082;" horiz-adv-x="420" 
d="M212 310q73 0 117.5 -37t44.5 -97q0 -57 -34 -93t-102 -72q-66 -36 -89 -61t-24 -56h260v-66h-346q-1 6 -1 17q0 73 28.5 119t114.5 93q60 32 85 56t25 62q0 31 -21.5 50t-57.5 19q-82 0 -87 -86h-81q2 71 47.5 111.5t120.5 40.5z" />
    <glyph glyph-name="threeinferior" unicode="&#x2083;" horiz-adv-x="414" 
d="M205 310q77 0 121 -35.5t44 -94.5q0 -77 -82 -109v-2q47 -17 68 -44t21 -71q0 -61 -47.5 -98.5t-123.5 -37.5q-84 0 -129.5 40.5t-45.5 114.5h80q0 -90 95 -90q40 0 65.5 20.5t25.5 52.5q0 79 -109 79h-17v63h17q47 0 74.5 20.5t27.5 54.5q0 33 -23.5 52t-63.5 19
q-87 0 -87 -87h-80q0 72 45 112.5t124 40.5z" />
    <glyph glyph-name="fourinferior" unicode="&#x2084;" horiz-adv-x="406" 
d="M394 -57h-81v-115h-76v115h-227v69l201 288h102v-293h81v-64zM84 7h154v61q0 53 2 163h-1l-103 -150z" />
    <glyph glyph-name="fiveinferior" unicode="&#x2085;" horiz-adv-x="414" 
d="M354 234h-219l-12 -129h2q33 35 94 35q72 0 115 -42t43 -113q0 -76 -47 -121.5t-127 -45.5q-75 0 -120 37t-45 101h80q1 -34 24.5 -53.5t60.5 -19.5q43 0 68 26.5t25 71.5t-24.5 70.5t-65.5 25.5q-68 0 -86 -62l-78 4l27 281h285v-66z" />
    <glyph glyph-name="sixinferior" unicode="&#x2086;" horiz-adv-x="417" 
d="M220 310q68 0 109.5 -36t47.5 -99h-81q-12 70 -78 70q-101 0 -108 -163h2q41 54 117 54q69 0 111.5 -43t42.5 -112q0 -73 -47.5 -118t-123.5 -45q-86 0 -131.5 58t-45.5 171q0 127 48.5 195t136.5 68zM214 73q-41 0 -66 -26t-25 -68q0 -44 24.5 -70t65.5 -26q40 0 65 27
t25 70q0 42 -24.5 67.5t-64.5 25.5z" />
    <glyph glyph-name="seveninferior" unicode="&#x2087;" horiz-adv-x="366" 
d="M354 300v-67q-122 -167 -168 -405h-88q58 244 175 404h-263v68h344z" />
    <glyph glyph-name="eightinferior" unicode="&#x2088;" horiz-adv-x="417" 
d="M208 310q73 0 119 -36.5t46 -94.5q0 -72 -82 -106v-2q92 -28 92 -114q0 -63 -48 -101t-127 -38t-126.5 38t-47.5 101q0 86 92 114v2q-83 34 -83 106q0 58 46 94.5t119 36.5zM208 245q-39 0 -63.5 -19t-24.5 -50q0 -34 24 -54t64 -20t64 20t24 54q0 31 -24.5 50t-63.5 19z
M208 39q-42 0 -68.5 -21.5t-26.5 -56.5q0 -36 26 -57t69 -21t69 21t26 57q0 35 -26 56.5t-69 21.5z" />
    <glyph glyph-name="nineinferior" unicode="&#x2089;" horiz-adv-x="417" 
d="M195 -182q-68 0 -109 36t-47 99h81q11 -70 77 -70q102 0 108 163h-2q-40 -54 -116 -54q-69 0 -112 43t-43 112q0 73 47.5 118t123.5 45q86 0 132 -58t46 -171q0 -127 -49 -195t-137 -68zM202 55q40 0 65.5 26.5t25.5 67.5q0 44 -24.5 70t-65.5 26q-40 0 -65 -27t-25 -70
q0 -42 24.5 -67.5t64.5 -25.5z" />
    <glyph glyph-name="plusinferior" unicode="&#x208a;" horiz-adv-x="409" 
d="M236 81h123v-63h-123v-118h-63v118h-123v63h123v119h63v-119z" />
    <glyph glyph-name="minusinferior" unicode="&#x208b;" horiz-adv-x="409" 
d="M359 18h-309v63h309v-63z" />
    <glyph glyph-name="equalinferior" unicode="&#x208c;" horiz-adv-x="409" 
d="M359 80h-309v62h309v-62zM359 -43h-309v62h309v-62z" />
    <glyph glyph-name="parenleftinferior" unicode="&#x208d;" horiz-adv-x="220" 
d="M134 347h65q-81 -151 -81 -311q0 -162 81 -311h-65q-99 141 -99 311t99 311z" />
    <glyph glyph-name="parenrightinferior" unicode="&#x208e;" horiz-adv-x="220" 
d="M86 -275h-65q81 153 81 311q0 159 -81 311h65q98 -140 98 -311t-98 -311z" />
    <glyph glyph-name="franc" unicode="&#x20a3;" horiz-adv-x="562" 
d="M201 592v-188h307v-81h-307v-118h173v-73h-173v-132h-93v132h-84v73h84v469h422v-82h-329z" />
    <glyph glyph-name="lira" unicode="&#x20a4;" horiz-adv-x="562" 
d="M159 76h360v-76h-495v77q97 0 97 134v30h-97v58h97v57h-97v58h97v56q0 108 53 163t152 55q93 0 145.5 -55t52.5 -151h-89q0 61 -28.5 93.5t-80.5 32.5q-114 0 -114 -138v-56h125v-58h-125v-57h125v-58h-125v-29q0 -53 -12.5 -83.5t-40.5 -50.5v-2z" />
    <glyph glyph-name="peseta" unicode="&#x20a7;" horiz-adv-x="839" 
d="M776 69q21 0 36 5v-72q-22 -6 -55 -6q-73 0 -106 34t-33 112v296h-67q-7 -90 -71 -142t-177 -52h-116v-244h-92v674h208q104 0 167 -44t78 -122h70v123h88v-123h101v-70h-101v-287q0 -44 16 -63t54 -19zM187 324h108q80 0 120.5 35.5t40.5 99.5t-40.5 99.5t-120.5 35.5
h-108v-270z" />
    <glyph glyph-name="euro" unicode="&#x20ac;" horiz-adv-x="562" 
d="M455 205h92q-11 -105 -72 -162t-162 -57q-107 0 -173 67t-82 194h-57l11 58h41l-1 32v25h-51l11 58h45q16 130 82 199t175 69q102 0 162 -56t68 -159h-91q-7 65 -43 100t-96 35q-138 0 -164 -188h256l-11 -58h-250v-25q0 -22 1 -32h238l-11 -58h-222q28 -181 162 -181
q59 0 96 36t46 103z" />
    <glyph glyph-name="rupeeIndian" unicode="&#x20b9;" horiz-adv-x="562" 
d="M355 609v-2q56 -22 68 -84h112l-18 -65h-94q-10 -55 -54 -92.5t-114 -50.5v-2q66 -27 113 -124l93 -189h-105l-84 176q-29 62 -65.5 88.5t-89.5 26.5h-16v67h43q73 0 119 27t59 73h-294l18 65h278q-20 86 -171 86h-125l18 65h489l-18 -65h-162z" />
    <glyph glyph-name="liraTurkish" unicode="&#x20ba;" horiz-adv-x="562" 
d="M442 318h95q0 -159 -87.5 -241t-249.5 -82q-41 0 -88 5v274l-92 -50v71l92 50v86l-92 -50v71l92 50v172h92v-129l168 91v-71l-168 -91v-85l168 91v-71l-168 -91v-240q115 0 176.5 60.5t61.5 179.5z" />
    <glyph glyph-name="uni20BC" unicode="&#x20bc;" horiz-adv-x="656" 
d="M46 0v310q0 147 57.5 216t180.5 75v111h87v-111q124 -6 181.5 -75t57.5 -216v-310h-87v308q0 109 -35 156.5t-117 51.5v-516h-87v516q-81 -4 -116 -51.5t-35 -156.5v-308h-87z" />
    <glyph glyph-name="ruble" unicode="&#x20bd;" horiz-adv-x="562" 
d="M93 674h213q111 0 170 -54t59 -147q0 -94 -59 -148t-170 -54h-122v-67h197v-73h-197v-131h-91v131h-81v73h81v67h-81v75h81v328zM184 600v-254h115q70 0 106 33.5t36 93.5t-36 93.5t-106 33.5h-115z" />
    <glyph glyph-name="literSign" unicode="&#x2113;" horiz-adv-x="440" 
d="M193 202v-53q0 -47 17.5 -68t57.5 -21q23 0 49 7v-67q-31 -9 -70 -9q-73 0 -107.5 38t-34.5 119v44q-26 0 -56 7v54q34 -6 56 -6v234q0 116 31.5 161.5t99.5 45.5q60 0 96.5 -46.5t36.5 -146.5q0 -244 -176 -293zM247 625q-29 0 -41.5 -27t-12.5 -100v-236
q117 46 117 233q0 130 -63 130z" />
    <glyph glyph-name="published" unicode="&#x2117;" horiz-adv-x="810" 
d="M405 724q161 0 260 -101t99 -267t-99 -267t-260 -101t-259.5 101t-98.5 267t98.5 267t259.5 101zM405 677q-141 0 -227 -88t-86 -233t86 -233t227 -88t227 88t86 233t-86 233t-227 88zM267 585h168q85 0 131 -39t46 -109q0 -69 -46 -108.5t-131 -39.5h-94v-174h-74v470z
M341 520v-166h89q106 0 106 83t-106 83h-89z" />
    <glyph glyph-name="trademark" unicode="&#x2122;" horiz-adv-x="801" 
d="M304 653h-116v-297h-67v297h-116v59h299v-59zM754 356h-64v170q0 85 1 126h-2l-40 -125l-57 -171h-77l-56 171q-10 28 -40 125h-2q0 -20 0.5 -62.5t0.5 -63.5v-170h-64v356h105l52 -156q36 -116 41 -134h2q4 14 18.5 61t23.5 73l53 156h105v-356z" />
    <glyph glyph-name="Ohm" unicode="&#x2126;" horiz-adv-x="729" 
d="M364 726q144 0 230 -80t86 -235q0 -96 -41.5 -173t-117.5 -155v-2h170v-81h-264v84q76 78 116.5 151.5t40.5 165.5q0 118 -60 179.5t-160 61.5q-99 0 -159 -61.5t-60 -179.5q0 -92 40.5 -165.5t116.5 -151.5v-84h-264v81h170v2q-76 78 -117.5 155t-41.5 173q0 155 86 235
t229 80z" />
    <glyph glyph-name="estimated" unicode="&#x212e;" horiz-adv-x="860" 
d="M431 688q175 0 278.5 -104.5t103.5 -256.5h-611q-13 0 -13 -13v-166q0 -31 15 -44q93 -91 227 -91q72 0 135 30t103 79h69q-40 -55 -118 -94.5t-189 -39.5q-173 0 -278.5 97.5t-105.5 250.5t104 252.5t280 99.5zM431 662q-134 0 -227 -93q-15 -14 -15 -41v-167
q0 -12 13 -12h455q13 0 13 12v167q0 27 -15 41q-94 93 -224 93z" />
    <glyph glyph-name="oneeighth" unicode="&#x215b;" horiz-adv-x="752" 
d="M180 270h-77v278h-94v58q49 0 73.5 16t31.5 52h66v-404zM157 0h-73l384 674h74zM568 413q65 0 105.5 -31.5t40.5 -82.5q0 -62 -68 -89v-1q77 -24 77 -98q0 -55 -42.5 -87.5t-112.5 -32.5t-111.5 32.5t-41.5 87.5q0 74 77 98v1q-69 27 -69 89q0 51 40.5 82.5t104.5 31.5z
M568 351q-32 0 -52 -14.5t-20 -39.5q0 -27 19.5 -43t52.5 -16q34 0 53.5 15.5t19.5 43.5q0 25 -20 39.5t-53 14.5zM568 177q-34 0 -55.5 -17t-21.5 -45t21 -45t56 -17q36 0 57.5 17t21.5 45t-22 45t-57 17z" />
    <glyph glyph-name="threeeighths" unicode="&#x215c;" horiz-adv-x="877" 
d="M180 683q67 0 106 -30.5t39 -81.5q0 -64 -68 -92v-2q39 -14 56.5 -37.5t17.5 -61.5q0 -53 -41 -85t-109 -32q-74 0 -114.5 35.5t-40.5 99.5h76q0 -72 79 -72q34 0 54 15.5t20 41.5q0 63 -91 63h-13v61h13q39 0 62.5 16t23.5 44q0 26 -19 40.5t-52 14.5q-73 0 -73 -68h-75
q0 62 40 96.5t109 34.5zM282 0h-73l384 674h74zM693 413q65 0 105.5 -31.5t40.5 -82.5q0 -62 -68 -89v-1q77 -24 77 -98q0 -55 -42.5 -87.5t-112.5 -32.5t-111.5 32.5t-41.5 87.5q0 74 77 98v1q-69 27 -69 89q0 51 40.5 82.5t104.5 31.5zM693 351q-32 0 -52 -14.5t-20 -39.5
q0 -27 19.5 -43t52.5 -16q34 0 53.5 15.5t19.5 43.5q0 25 -20 39.5t-53 14.5zM693 177q-34 0 -55.5 -17t-21.5 -45t21 -45t56 -17q36 0 57.5 17t21.5 45t-22 45t-57 17z" />
    <glyph glyph-name="fiveeighths" unicode="&#x215d;" horiz-adv-x="877" 
d="M311 610h-188l-10 -99h2q28 28 80 28q62 0 99.5 -37.5t37.5 -99.5q0 -64 -41.5 -102.5t-110.5 -38.5q-67 0 -107.5 32t-40.5 88h77q1 -27 20 -42.5t50 -15.5q36 0 56.5 21t20.5 58q0 35 -20 55.5t-54 20.5q-58 0 -71 -50l-74 5l22 241h252v-64zM283 0h-73l384 674h74z
M694 413q65 0 105.5 -31.5t40.5 -82.5q0 -62 -68 -89v-1q77 -24 77 -98q0 -55 -42.5 -87.5t-112.5 -32.5t-111.5 32.5t-41.5 87.5q0 74 77 98v1q-69 27 -69 89q0 51 40.5 82.5t104.5 31.5zM694 351q-32 0 -52 -14.5t-20 -39.5q0 -27 19.5 -43t52.5 -16q34 0 53.5 15.5
t19.5 43.5q0 25 -20 39.5t-53 14.5zM694 177q-34 0 -55.5 -17t-21.5 -45t21 -45t56 -17q36 0 57.5 17t21.5 45t-22 45t-57 17z" />
    <glyph glyph-name="seveneighths" unicode="&#x215e;" horiz-adv-x="782" 
d="M310 674v-64q-101 -135 -143 -340h-81q50 209 146 340h-223v64h301zM188 0h-73l384 674h74zM599 413q65 0 105.5 -31.5t40.5 -82.5q0 -62 -68 -89v-1q77 -24 77 -98q0 -55 -42.5 -87.5t-112.5 -32.5t-111.5 32.5t-41.5 87.5q0 74 77 98v1q-69 27 -69 89q0 51 40.5 82.5
t104.5 31.5zM599 351q-32 0 -52 -14.5t-20 -39.5q0 -27 19.5 -43t52.5 -16q34 0 53.5 15.5t19.5 43.5q0 25 -20 39.5t-53 14.5zM599 177q-34 0 -55.5 -17t-21.5 -45t21 -45t56 -17q36 0 57.5 17t21.5 45t-22 45t-57 17z" />
    <glyph glyph-name="partialdiff" unicode="&#x2202;" horiz-adv-x="601" 
d="M274 726q126 0 192.5 -89.5t66.5 -260.5q0 -196 -72 -293t-185 -97q-110 0 -170 64.5t-60 171.5q0 111 63 183.5t170 72.5q58 0 99 -24t61 -60h2q1 9 1 29q0 102 -45.5 163t-119.5 61q-100 0 -114 -102h-93q9 84 60 132.5t144 48.5zM286 403q-67 0 -107 -51.5t-40 -131.5
q0 -73 35.5 -114t102.5 -41q69 0 109.5 50.5t40.5 128.5q0 72 -37.5 115.5t-103.5 43.5z" />
    <glyph glyph-name="increment" unicode="&#x2206;" horiz-adv-x="675" 
d="M671 0h-666l271 712h125zM542 82l-101 276l-103 290h-2l-103 -290l-101 -276h410z" />
    <glyph glyph-name="product" unicode="&#x220f;" horiz-adv-x="661" 
d="M566 -120h-92v750h-287v-750h-92v832h471v-832z" />
    <glyph glyph-name="summation" unicode="&#x2211;" horiz-adv-x="486" 
d="M451 631h-314l200 -338l-200 -332h314v-81h-416v81l203 332l-203 338v81h416v-81z" />
    <glyph glyph-name="minus" unicode="&#x2212;" horiz-adv-x="566" 
d="M495 280h-424v73h424v-73z" />
    <glyph glyph-name="divisionslash" unicode="&#x2215;" horiz-adv-x="457" 
d="M109 -89h-79l297 834h79z" />
    <glyph glyph-name="bulletoperator" unicode="&#x2219;" horiz-adv-x="344" 
d="M226 247h-108v117h108v-117z" />
    <glyph glyph-name="radical" unicode="&#x221a;" horiz-adv-x="575" 
d="M317 -120h-114l-96 408h-82v72h141l95 -397h2l213 749h79z" />
    <glyph glyph-name="infinity" unicode="&#x221e;" horiz-adv-x="629" 
d="M474 460q62 0 101 -42t39 -110t-39 -110t-101 -42q-53 0 -89.5 25.5t-70.5 70.5q-33 -45 -70 -70.5t-89 -25.5q-63 0 -101.5 42t-38.5 110t38.5 110t101.5 42q52 0 89 -25.5t70 -70.5q34 45 70.5 70.5t89.5 25.5zM163 227q33 0 58 20.5t54 60.5q-29 40 -54 60.5t-58 20.5
q-36 0 -55.5 -21.5t-19.5 -59.5t19.5 -59.5t55.5 -21.5zM466 227q35 0 55 21.5t20 59.5t-20 59.5t-55 21.5q-33 0 -58.5 -21t-53.5 -60q28 -39 53.5 -60t58.5 -21z" />
    <glyph glyph-name="integral" unicode="&#x222b;" horiz-adv-x="314" 
d="M252 717q31 0 51 -5v-68q-9 3 -29 3q-38 0 -55.5 -20t-17.5 -66v-605q0 -146 -140 -146q-30 0 -50 5v68q9 -3 29 -3q38 0 55.5 20t17.5 66v605q0 146 139 146z" />
    <glyph glyph-name="approxequal" unicode="&#x2248;" horiz-adv-x="566" 
d="M188 493q30 0 58 -14t46.5 -31t41.5 -31t43 -14q28 0 44 21t16 56h63q0 -66 -33 -106.5t-89 -40.5q-37 0 -71 22.5t-63.5 44.5t-54.5 22q-28 0 -44 -20.5t-16 -55.5h-63q0 66 33 106.5t89 40.5zM188 301q37 0 71.5 -22.5t63.5 -44.5t54 -22q28 0 44 20.5t16 55.5h63
q0 -66 -33 -106.5t-89 -40.5q-37 0 -71 22.5t-63.5 45t-54.5 22.5q-28 0 -44 -21t-16 -56h-63q0 66 33 106.5t89 40.5z" />
    <glyph glyph-name="notequal" unicode="&#x2260;" horiz-adv-x="566" 
d="M350 362l-58 -91h203v-74h-249l-80 -127h-75l80 127h-100v74h146l57 91h-203v74h249l80 127h76l-80 -127h99v-74h-145z" />
    <glyph glyph-name="lessequal" unicode="&#x2264;" horiz-adv-x="566" 
d="M495 463l-342 -135v-2l342 -135v-77l-424 166v95l424 165v-77zM495 72v-72h-424v72h424z" />
    <glyph glyph-name="greaterequal" unicode="&#x2265;" horiz-adv-x="566" 
d="M495 375v-95l-424 -166v77l342 135v2l-342 135v77zM495 0h-424v72h424v-72z" />
    <glyph glyph-name="lozenge" unicode="&#x25ca;" horiz-adv-x="597" 
d="M557 356l-201 -356h-115l-201 356l201 356h115zM131 356l168 -292l167 292l-167 292z" />
    <glyph glyph-name="apple" unicode="&#xf8ff;" horiz-adv-x="600" 
d="M151 777h321q61 0 96 -35t35 -96v-580q0 -61 -35 -96t-96 -35h-321q-60 0 -95.5 35t-35.5 96v580q0 61 35.5 96t95.5 35zM472 728h-321q-38 0 -60 -22t-22 -60v-580q0 -38 22 -60t60 -22h321q38 0 60 22t22 60v580q0 38 -22 60t-60 22zM309 646q77 0 124 -40t47 -107
q0 -42 -16 -71t-64 -72q-43 -38 -55.5 -65.5t-12.5 -88.5h-72v27q0 60 14.5 92t61.5 76q36 34 46.5 53.5t10.5 47.5q0 35 -22.5 55.5t-61.5 20.5q-89 0 -94 -98h-84q4 83 50 126.5t128 43.5zM343 65h-94v91h94v-91z" />
    <glyph glyph-name="ff" unicode="&#xfb00;" horiz-adv-x="578" 
d="M536 647q-38 0 -56 -20t-18 -66v-53h101v-70h-101v-438h-87v438h-186v-438h-87v438h-89v70h89v63q0 146 139 146q31 0 51 -5v-68q-9 3 -29 3q-38 0 -56 -20t-18 -66v-53h186v63q0 146 139 146q29 0 51 -5v-68q-10 3 -29 3z" />
    <glyph glyph-name="fi" unicode="&#xfb01;" horiz-adv-x="549" 
d="M102 508v63q0 146 139 146q31 0 51 -5v-68q-9 3 -29 3q-38 0 -56 -20t-18 -66v-53h101v-70h-101v-438h-87v438h-89v70h89zM471 712v-99h-88v99h88zM383 508h88v-508h-88v508z" />
    <glyph glyph-name="fl" unicode="&#xfb02;" horiz-adv-x="549" 
d="M102 508v63q0 146 139 146q31 0 51 -5v-68q-9 3 -29 3q-38 0 -56 -20t-18 -66v-53h101v-70h-101v-438h-87v438h-89v70h89zM471 712v-712h-88v712h88z" />
    <glyph glyph-name="ffi" unicode="&#xfb03;" horiz-adv-x="822" 
d="M375 508v63q0 146 139 146q29 0 51 -5v-68q-10 3 -29 3q-38 0 -56 -20t-18 -66v-53h101v-70h-101v-438h-87v438h-186v-438h-87v438h-89v70h89v63q0 146 139 146q31 0 51 -5v-68q-9 3 -29 3q-38 0 -56 -20t-18 -66v-53h186zM744 712v-99h-88v99h88zM656 508h88v-508h-88
v508z" />
    <glyph glyph-name="ffl" unicode="&#xfb04;" horiz-adv-x="822" 
d="M375 508v63q0 146 139 146q29 0 51 -5v-68q-10 3 -29 3q-38 0 -56 -20t-18 -66v-53h101v-70h-101v-438h-87v438h-186v-438h-87v438h-89v70h89v63q0 146 139 146q31 0 51 -5v-68q-9 3 -29 3q-38 0 -56 -20t-18 -66v-53h186zM744 712v-712h-88v712h88z" />
    <glyph glyph-name="uniFEFF" unicode="&#xfeff;" horiz-adv-x="0" 
 />
    <glyph glyph-name="NULL" horiz-adv-x="600" 
 />
    <glyph glyph-name="J.acute.loclNLD" horiz-adv-x="356" 
d="M229 773h-76l86 143h113zM266 712v-508q0 -209 -201 -209q-31 0 -50 6v82q27 -5 43 -5q59 0 87.5 32t28.5 106v496h92z" />
    <glyph glyph-name="Ccedilla.ss01" horiz-adv-x="689" 
d="M355 726q125 0 201 -71t82 -184h-95q-7 79 -57.5 125t-130.5 46q-101 0 -158.5 -76.5t-57.5 -209.5t57 -209.5t156 -76.5q79 0 131 47t63 128h96q-11 -120 -88 -189.5t-202 -69.5q-143 0 -226 99t-83 271t83.5 271t228.5 99zM304 -211h-110l129 162h80z" />
    <glyph glyph-name="Scedilla.ss01" horiz-adv-x="609" 
d="M288 726q255 0 255 -234h-93q0 155 -163 155q-66 0 -103.5 -30t-37.5 -81q0 -53 38 -78t134 -49q48 -12 78 -21t65 -26t54 -37.5t32 -53t13 -75.5q0 -96 -69.5 -153t-185.5 -57q-126 0 -196 64t-70 186h95q0 -86 45 -128.5t127 -42.5q76 0 117.5 33t41.5 93q0 55 -38 79
t-136 49q-40 10 -66 18t-56.5 20t-49 27t-35.5 35.5t-24.5 48t-7.5 62.5q0 87 64 141.5t172 54.5zM256 -211h-110l129 162h80z" />
    <glyph glyph-name="Tcedilla.ss01" horiz-adv-x="599" 
d="M589 630h-243v-630h-93v630h-243v82h579v-82zM254 -211h-110l129 162h80z" />
    <glyph glyph-name="idotaccent" horiz-adv-x="244" 
d="M166 613h-88v99h88v-99zM166 0h-88v508h88v-508z" />
    <glyph glyph-name="j.acute.loclNLD" horiz-adv-x="249" 
d="M137 569h-76l86 143h113zM171 508v-537q0 -160 -146 -160q-28 0 -47 5v70q15 -3 29 -3q39 0 57.5 21.5t18.5 74.5v529h88z" />
    <glyph glyph-name="ccedilla.ss01" horiz-adv-x="534" 
d="M280 522q91 0 150 -54t67 -140h-92q-5 54 -39.5 88t-86.5 34q-67 0 -106 -52.5t-39 -143.5t38.5 -143.5t106.5 -52.5q52 0 86.5 36.5t39.5 92.5h92q-8 -89 -67 -145t-150 -56q-110 0 -174.5 72t-64.5 196t64.5 196t174.5 72zM233 -211h-110l129 162h80z" />
    <glyph glyph-name="scedilla.ss01" horiz-adv-x="494" 
d="M239 522q94 0 146 -45t52 -128h-86q0 51 -29.5 78t-83.5 27q-46 0 -72.5 -19.5t-26.5 -52.5q0 -37 24.5 -51t97.5 -31q98 -24 132 -46q60 -38 60 -116q0 -69 -54.5 -110.5t-146.5 -41.5q-101 0 -156.5 47t-56.5 136h89q0 -54 32.5 -83.5t92.5 -29.5q50 0 80 21t30 55
q0 41 -28.5 57.5t-111.5 36.5q-88 22 -118 41q-54 34 -54 108q0 65 52.5 106t135.5 41zM205 -211h-110l129 162h80z" />
    <glyph glyph-name="tcedilla.ss01" horiz-adv-x="320" 
d="M257 69q21 0 36 5v-72q-23 -6 -56 -6q-73 0 -105.5 34t-32.5 112v296h-88v70h88v123h88v-123h101v-70h-101v-287q0 -44 16 -63t54 -19zM152 -49h80l-99 -162h-110z" />
    <glyph glyph-name="a.sups" horiz-adv-x="393" 
d="M192 696q72 0 110.5 -35.5t38.5 -105.5v-131q0 -54 9 -94h-68q-5 27 -5 50h-2q-41 -58 -126 -58q-57 0 -91 29.5t-34 76.5t32.5 74.5t110.5 39.5q71 9 101 11v12q0 76 -77 76q-36 0 -55.5 -17t-20.5 -47h-76q3 52 42.5 85.5t110.5 33.5zM268 481v19q-48 -4 -89 -11
q-43 -7 -60.5 -19.5t-17.5 -36.5q0 -25 18 -40t51 -15q46 0 70 25q28 28 28 78z" />
    <glyph glyph-name="b.sups" horiz-adv-x="423" 
d="M130 640h2q15 25 44.5 40.5t63.5 15.5q70 0 112 -51t42 -136q0 -86 -42.5 -137t-112.5 -51q-35 0 -64.5 16t-43.5 42h-2v-49h-74v498h75v-188zM220 636q-42 0 -68 -34.5t-26 -92.5t26 -92.5t68 -34.5q43 0 69 34.5t26 92.5q0 57 -26 92t-69 35z" />
    <glyph glyph-name="c.sups" horiz-adv-x="393" 
d="M205 696q70 0 113.5 -40t48.5 -99h-79q-2 31 -24.5 54t-58.5 23q-44 0 -70 -34t-26 -92t26 -92t71 -34q33 0 56.5 24t25.5 59h79q-5 -64 -49 -104.5t-113 -40.5q-81 0 -128.5 50.5t-47.5 137.5t47.5 137.5t128.5 50.5z" />
    <glyph glyph-name="d.sups" horiz-adv-x="423" 
d="M368 828v-498h-74v49h-1q-15 -26 -44.5 -42t-64.5 -16q-70 0 -112.5 51t-42.5 137q0 85 42 136t113 51q34 0 63 -15.5t44 -40.5h2v188h75zM203 636q-43 0 -69 -35t-26 -92q0 -58 26 -92.5t69 -34.5t68.5 34.5t25.5 92.5t-25.5 92.5t-68.5 34.5z" />
    <glyph glyph-name="e.sups" horiz-adv-x="404" 
d="M205 376q36 0 59.5 17t29.5 44h78q-10 -50 -53.5 -83.5t-113.5 -33.5q-83 0 -129.5 52.5t-46.5 140.5q0 80 47 131.5t128 51.5q63 0 105.5 -32.5t57.5 -89.5q8 -29 8 -82h-271q2 -59 30 -87.5t71 -28.5zM204 640q-41 0 -67.5 -24.5t-31.5 -70.5h195q-5 46 -31 70.5
t-65 24.5z" />
    <glyph glyph-name="egrave.sups" horiz-adv-x="404" 
d="M205 376q36 0 59.5 17t29.5 44h78q-10 -50 -53.5 -83.5t-113.5 -33.5q-83 0 -129.5 52.5t-46.5 140.5q0 19 3 36l-23 23h28q15 56 58.5 90t108.5 34q63 0 105.5 -32.5t57.5 -89.5q8 -29 8 -82h-208l13 -19h-72l-3 3q6 -51 33 -75.5t67 -24.5zM204 640q-72 0 -93 -68
l19 -27h170q-4 46 -30.5 70.5t-65.5 24.5z" />
    <glyph glyph-name="f.sups" horiz-adv-x="230" 
d="M199 774q-27 0 -39.5 -13.5t-12.5 -44.5v-30h72v-59h-72v-297h-75v297h-62v59h62v39q0 107 108 107q24 0 41 -5v-56q-9 3 -22 3z" />
    <glyph glyph-name="g.sups" horiz-adv-x="420" 
d="M184 695q69 0 108 -56h1v47h73v-333q0 -159 -168 -159q-71 0 -111 30t-42 84h74q1 -28 22.5 -43.5t57.5 -15.5q48 0 70.5 24.5t22.5 80.5v38h-2q-39 -54 -106 -54q-71 0 -113 48.5t-42 130.5q0 81 42 129.5t113 48.5zM199 635q-42 0 -67 -32.5t-25 -85.5t25 -85.5
t67 -32.5q44 0 70 31.5t26 86.5t-26 86.5t-70 31.5z" />
    <glyph glyph-name="h.sups" horiz-adv-x="422" 
d="M130 645h2q37 49 106 49q64 0 98.5 -37.5t34.5 -109.5v-217h-76v211q0 50 -19.5 71t-57.5 21t-63 -27t-25 -77v-199h-75v498h75v-183z" />
    <glyph glyph-name="i.sups" horiz-adv-x="185" 
d="M130 754h-75v74h75v-74zM130 330h-75v356h75v-356z" />
    <glyph glyph-name="j.sups" horiz-adv-x="190" 
d="M135 754h-75v74h75v-74zM135 686v-377q0 -112 -111 -112q-23 0 -39 4v59q8 -2 22 -2q27 0 40 13.5t13 45.5v369h75z" />
    <glyph glyph-name="k.sups" horiz-adv-x="373" 
d="M378 330h-98l-148 174h-2v-174h-75v498h75v-287h2l134 145h94l-156 -161z" />
    <glyph glyph-name="l.sups" horiz-adv-x="185" 
d="M130 330h-75v498h75v-498z" />
    <glyph glyph-name="m.sups" horiz-adv-x="630" 
d="M455 694q60 0 92 -36.5t32 -107.5v-220h-75v213q0 90 -68 90q-38 0 -59.5 -28.5t-21.5 -77.5v-197h-76v221q0 82 -68 82q-38 0 -59.5 -29t-21.5 -80v-194h-75v356h72v-42h2q41 50 101 50q79 0 109 -66q39 66 116 66z" />
    <glyph glyph-name="n.sups" horiz-adv-x="422" 
d="M238 694q64 0 98.5 -37.5t34.5 -109.5v-217h-76v211q0 50 -19.5 71t-57.5 21t-63 -27t-25 -77v-199h-75v356h72v-44h2q38 52 109 52z" />
    <glyph glyph-name="o.sups" horiz-adv-x="416" 
d="M208 696q83 0 131 -50.5t48 -137.5q0 -88 -48 -138t-131 -50q-82 0 -130.5 50.5t-48.5 137.5t48.5 137.5t130.5 50.5zM208 635q-46 0 -72 -34t-26 -93t26 -93t72 -34q47 0 73.5 34t26.5 93t-26.5 93t-73.5 34z" />
    <glyph glyph-name="p.sups" horiz-adv-x="423" 
d="M239 696q70 0 112.5 -51t42.5 -136q0 -86 -42 -137t-112 -51q-34 0 -63.5 15.5t-44.5 39.5h-2v-175h-75v485h74v-48h2q14 26 43.5 42t64.5 16zM220 636q-42 0 -68 -34.5t-26 -92.5t26 -92.5t68 -34.5q43 0 69 34.5t26 92.5q0 57 -26 92t-69 35z" />
    <glyph glyph-name="q.sups" horiz-adv-x="423" 
d="M184 696q35 0 64.5 -16t44.5 -42h1v48h74v-485h-75v175h-2q-15 -25 -44 -40t-63 -15q-71 0 -113 51t-42 137q0 85 42.5 136t112.5 51zM203 636q-43 0 -69 -35t-26 -92q0 -58 26 -92.5t69 -34.5t68.5 34.5t25.5 92.5t-25.5 92.5t-68.5 34.5z" />
    <glyph glyph-name="r.sups" horiz-adv-x="272" 
d="M236 690q16 0 29 -3v-69q-13 3 -29 3q-51 0 -78.5 -31t-27.5 -88v-172h-75v356h72v-53h2q38 57 107 57z" />
    <glyph glyph-name="s.sups" horiz-adv-x="366" 
d="M178 696q70 0 108.5 -31t39.5 -90h-74q0 32 -19.5 49t-55.5 17q-31 0 -48 -12t-17 -32q0 -23 16.5 -32t68.5 -21q3 -1 8 -2q32 -8 48.5 -13.5t39.5 -18t33.5 -32.5t10.5 -49q0 -50 -40.5 -79.5t-109.5 -29.5q-76 0 -117 32.5t-42 95.5h76q0 -72 84 -72q33 0 53 13t20 34
q0 27 -19 37.5t-79 24.5q-70 17 -93 33q-33 25 -33 73q0 47 38 76t103 29z" />
    <glyph glyph-name="t.sups" horiz-adv-x="240" 
d="M195 389q10 0 25 3v-61q-22 -4 -43 -4q-57 0 -82 24.5t-25 80.5v195h-63v59h63v87h75v-87h72v-59h-72v-184q0 -29 11.5 -41.5t38.5 -12.5z" />
    <glyph glyph-name="u.sups" horiz-adv-x="421" 
d="M184 322q-64 0 -98.5 37.5t-34.5 109.5v217h75v-211q0 -50 19.5 -71t57.5 -21t63 27t25 77v199h76v-356h-73v44h-1q-40 -52 -109 -52z" />
    <glyph glyph-name="v.sups" horiz-adv-x="349" 
d="M225 330h-100l-129 356h81l48 -142q30 -91 49 -154h2l48 154l48 142h81z" />
    <glyph glyph-name="w.sups" horiz-adv-x="567" 
d="M467 330h-106l-38 146l-39 153h-1l-38 -153l-39 -146h-106l-95 356h76l35 -143q22 -85 37 -156h2q30 126 37 152l39 147h105l39 -147q23 -89 37 -152h2l37 156l35 143h76z" />
    <glyph glyph-name="x.sups" horiz-adv-x="357" 
d="M225 516l134 -186h-90l-89 136h-2l-90 -136h-89l133 186l-122 170h89l79 -122h2l79 122h88z" />
    <glyph glyph-name="y.sups" horiz-adv-x="353" 
d="M357 686l-141 -367q-28 -71 -60.5 -96.5t-95.5 -25.5q-15 0 -37 4v61q12 -4 29 -4q36 0 53 15t32 57l-141 356h82l100 -275h2l98 275h79z" />
    <glyph glyph-name="z.sups" horiz-adv-x="343" 
d="M318 622l-205 -229v-2h211v-61h-305v64l205 229v2h-199v61h293v-64z" />
    <glyph glyph-name="a.smcp" horiz-adv-x="565" 
d="M407 146h-249l-55 -146h-98l216 548h123l216 -548h-98zM378 225l-17 45l-78 212h-2l-77 -212l-17 -45h191z" />
    <glyph glyph-name="aacute.smcp" horiz-adv-x="565" 
d="M292 609h-76l86 143h113zM407 146h-249l-55 -146h-98l216 548h123l216 -548h-98zM378 225l-17 45l-78 212h-2l-77 -212l-17 -45h191z" />
    <glyph glyph-name="abreve.smcp" horiz-adv-x="565" 
d="M283 609q-69 0 -110 37.5t-46 105.5h66q4 -39 28 -60t62 -21t61.5 21t28.5 60h65q-5 -68 -45.5 -105.5t-109.5 -37.5zM407 146h-249l-55 -146h-98l216 548h123l216 -548h-98zM378 225l-17 45l-78 212h-2l-77 -212l-17 -45h191z" />
    <glyph glyph-name="acircumflex.smcp" horiz-adv-x="565" 
d="M209 609h-89l114 143h97l114 -143h-89l-73 93zM407 146h-249l-55 -146h-98l216 548h123l216 -548h-98zM378 225l-17 45l-78 212h-2l-77 -212l-17 -45h191z" />
    <glyph glyph-name="adieresis.smcp" horiz-adv-x="565" 
d="M226 653h-82v99h82v-99zM421 653h-82v99h82v-99zM407 146h-249l-55 -146h-98l216 548h123l216 -548h-98zM378 225l-17 45l-78 212h-2l-77 -212l-17 -45h191z" />
    <glyph glyph-name="agrave.smcp" horiz-adv-x="565" 
d="M273 609l-123 143h113l86 -143h-76zM407 146h-249l-55 -146h-98l216 548h123l216 -548h-98zM378 225l-17 45l-78 212h-2l-77 -212l-17 -45h191z" />
    <glyph glyph-name="amacron.smcp" horiz-adv-x="565" 
d="M424 656h-284v64h284v-64zM407 146h-249l-55 -146h-98l216 548h123l216 -548h-98zM378 225l-17 45l-78 212h-2l-77 -212l-17 -45h191z" />
    <glyph glyph-name="aogonek.smcp" horiz-adv-x="565" 
d="M524 -138q22 0 39 7v-53q-25 -10 -59 -10q-99 0 -99 80q0 32 18.5 58.5t59.5 55.5h-21l-55 146h-249l-55 -146h-98l216 548h123l216 -548q-76 -56 -76 -102q0 -36 40 -36zM378 225l-17 45l-78 212h-2l-77 -212l-17 -45h191z" />
    <glyph glyph-name="aring.smcp" horiz-adv-x="565" 
d="M282 605q-41 0 -70.5 29.5t-29.5 71.5q0 41 29.5 70.5t70.5 29.5q42 0 71.5 -29.5t29.5 -70.5q0 -42 -29.5 -71.5t-71.5 -29.5zM282 764q-23 0 -40 -17t-17 -41t16.5 -41t40.5 -17q25 0 41.5 16.5t16.5 41.5q0 24 -16.5 41t-41.5 17zM407 146h-249l-55 -146h-98l216 548
h123l216 -548h-98zM378 225l-17 45l-78 212h-2l-77 -212l-17 -45h191z" />
    <glyph glyph-name="atilde.smcp" horiz-adv-x="565" 
d="M214 682q-41 0 -46 -51h-58q3 55 30 85t71 30q33 0 77 -25.5t63 -25.5q40 0 46 51h58q-3 -55 -30 -85t-71 -30q-33 0 -77 25.5t-63 25.5zM407 146h-249l-55 -146h-98l216 548h123l216 -548h-98zM378 225l-17 45l-78 212h-2l-77 -212l-17 -45h191z" />
    <glyph glyph-name="ae.smcp" horiz-adv-x="782" 
d="M731 79v-79h-314l-25 157h-217l-78 -157h-102l277 548h452v-79h-289l24 -150h247v-78h-235l26 -162h234zM379 236l-37 234h-12l-116 -234h165z" />
    <glyph glyph-name="b.smcp" horiz-adv-x="547" 
d="M85 548h199q99 0 149 -38.5t50 -103.5q0 -94 -96 -124v-2q52 -12 80 -45t28 -82q0 -70 -52.5 -111.5t-145.5 -41.5h-212v548zM176 473v-158h95q122 0 122 78q0 80 -117 80h-100zM176 242v-167h105q62 0 90.5 20t28.5 63q0 42 -30.5 63t-97.5 21h-96z" />
    <glyph glyph-name="c.smcp" horiz-adv-x="587" 
d="M296 562q107 0 170.5 -55.5t68.5 -146.5h-95q-6 57 -45 88.5t-99 31.5q-75 0 -118.5 -55t-43.5 -151t43.5 -151t118.5 -55q59 0 98 32.5t47 90.5h97q-9 -96 -73 -150.5t-169 -54.5q-120 0 -189 76.5t-69 211.5q0 134 69 211t189 77z" />
    <glyph glyph-name="cacute.smcp" horiz-adv-x="587" 
d="M305 609h-76l86 143h113zM296 562q107 0 170.5 -55.5t68.5 -146.5h-95q-6 57 -45 88.5t-99 31.5q-75 0 -118.5 -55t-43.5 -151t43.5 -151t118.5 -55q59 0 98 32.5t47 90.5h97q-9 -96 -73 -150.5t-169 -54.5q-120 0 -189 76.5t-69 211.5q0 134 69 211t189 77z" />
    <glyph glyph-name="ccaron.smcp" horiz-adv-x="587" 
d="M344 609h-97l-114 143h89l74 -93l73 93h89zM296 562q107 0 170.5 -55.5t68.5 -146.5h-95q-6 57 -45 88.5t-99 31.5q-75 0 -118.5 -55t-43.5 -151t43.5 -151t118.5 -55q59 0 98 32.5t47 90.5h97q-9 -96 -73 -150.5t-169 -54.5q-120 0 -189 76.5t-69 211.5q0 134 69 211
t189 77z" />
    <glyph glyph-name="ccedilla.smcp" horiz-adv-x="587" 
d="M441 191h97q-8 -88 -63 -141.5t-146 -61.5l-32 -50q18 3 26 3q33 0 56.5 -20.5t23.5 -53.5q0 -37 -28.5 -62t-81.5 -25q-54 0 -105 27l18 37q36 -21 78 -21q56 0 56 41q0 19 -14.5 30.5t-38.5 11.5q-17 0 -31 -6l-18 20l44 66q-114 5 -179 81t-65 207q0 134 69 211
t189 77q107 0 170.5 -55.5t68.5 -146.5h-95q-6 57 -45 88.5t-99 31.5q-75 0 -118.5 -55t-43.5 -151t43.5 -151t118.5 -55q59 0 98 32.5t47 90.5z" />
    <glyph glyph-name="ccircumflex.smcp" horiz-adv-x="587" 
d="M369 609l-73 93l-74 -93h-89l114 143h97l114 -143h-89zM296 562q107 0 170.5 -55.5t68.5 -146.5h-95q-6 57 -45 88.5t-99 31.5q-75 0 -118.5 -55t-43.5 -151t43.5 -151t118.5 -55q59 0 98 32.5t47 90.5h97q-9 -96 -73 -150.5t-169 -54.5q-120 0 -189 76.5t-69 211.5
q0 134 69 211t189 77z" />
    <glyph glyph-name="cdotaccent.smcp" horiz-adv-x="587" 
d="M340 653h-88v99h88v-99zM296 562q107 0 170.5 -55.5t68.5 -146.5h-95q-6 57 -45 88.5t-99 31.5q-75 0 -118.5 -55t-43.5 -151t43.5 -151t118.5 -55q59 0 98 32.5t47 90.5h97q-9 -96 -73 -150.5t-169 -54.5q-120 0 -189 76.5t-69 211.5q0 134 69 211t189 77z" />
    <glyph glyph-name="d.smcp" horiz-adv-x="609" 
d="M85 548h183q146 0 224.5 -71t78.5 -203t-78.5 -203t-224.5 -71h-183v548zM176 468v-388h92q101 0 154 50t53 144t-53 144t-154 50h-92z" />
    <glyph glyph-name="eth.smcp" horiz-adv-x="611" 
d="M87 548h183q146 0 224.5 -71t78.5 -203t-78.5 -203t-224.5 -71h-183v244h-63v66h63v238zM178 80h92q101 0 154 50t53 144t-53 144t-154 50h-92v-158h146v-66h-146v-164z" />
    <glyph glyph-name="dcaron.smcp" horiz-adv-x="609" 
d="M329 609h-97l-114 143h89l74 -93l73 93h89zM85 548h183q146 0 224.5 -71t78.5 -203t-78.5 -203t-224.5 -71h-183v548zM176 468v-388h92q101 0 154 50t53 144t-53 144t-154 50h-92z" />
    <glyph glyph-name="dcroat.smcp" horiz-adv-x="611" 
d="M87 548h183q146 0 224.5 -71t78.5 -203t-78.5 -203t-224.5 -71h-183v244h-63v66h63v238zM178 80h92q101 0 154 50t53 144t-53 144t-154 50h-92v-158h146v-66h-146v-164z" />
    <glyph glyph-name="e.smcp" horiz-adv-x="526" 
d="M470 469h-293v-150h276v-78h-276v-162h301v-79h-393v548h385v-79z" />
    <glyph glyph-name="eacute.smcp" horiz-adv-x="526" 
d="M287 609h-76l86 143h113zM470 469h-293v-150h276v-78h-276v-162h301v-79h-393v548h385v-79z" />
    <glyph glyph-name="ebreve.smcp" horiz-adv-x="526" 
d="M369 752h65q-5 -68 -45.5 -105.5t-109.5 -37.5t-110 37.5t-46 105.5h66q4 -39 28 -60t62 -21t61.5 21t28.5 60zM470 469h-293v-150h276v-78h-276v-162h301v-79h-393v548h385v-79z" />
    <glyph glyph-name="ecaron.smcp" horiz-adv-x="526" 
d="M326 609h-97l-114 143h89l74 -93l73 93h89zM470 469h-293v-150h276v-78h-276v-162h301v-79h-393v548h385v-79z" />
    <glyph glyph-name="ecircumflex.smcp" horiz-adv-x="526" 
d="M351 609l-73 93l-74 -93h-89l114 143h97l114 -143h-89zM470 469h-293v-150h276v-78h-276v-162h301v-79h-393v548h385v-79z" />
    <glyph glyph-name="edieresis.smcp" horiz-adv-x="526" 
d="M221 653h-82v99h82v-99zM416 653h-82v99h82v-99zM470 469h-293v-150h276v-78h-276v-162h301v-79h-393v548h385v-79z" />
    <glyph glyph-name="edotaccent.smcp" horiz-adv-x="526" 
d="M322 653h-88v99h88v-99zM470 469h-293v-150h276v-78h-276v-162h301v-79h-393v548h385v-79z" />
    <glyph glyph-name="egrave.smcp" horiz-adv-x="526" 
d="M259 752l86 -143h-76l-123 143h113zM470 469h-293v-150h276v-78h-276v-162h301v-79h-393v548h385v-79z" />
    <glyph glyph-name="emacron.smcp" horiz-adv-x="526" 
d="M420 656h-284v64h284v-64zM470 469h-293v-150h276v-78h-276v-162h301v-79h-393v548h385v-79z" />
    <glyph glyph-name="eogonek.smcp" horiz-adv-x="526" 
d="M442 -138q22 0 39 7v-53q-25 -10 -59 -10q-99 0 -99 80q0 32 18.5 58.5t59.5 55.5h-316v548h385v-79h-293v-150h276v-78h-276v-162h301v-79q-76 -56 -76 -102q0 -36 40 -36z" />
    <glyph glyph-name="f.smcp" horiz-adv-x="486" 
d="M459 468h-283v-166h265v-80h-265v-222h-91v548h374v-80z" />
    <glyph glyph-name="fi.smcp" horiz-adv-x="748" 
d="M459 468h-283v-166h265v-80h-265v-222h-91v548h374v-80zM663 0h-92v548h92v-548z" />
    <glyph glyph-name="fl.smcp" horiz-adv-x="962" 
d="M459 468h-283v-166h265v-80h-265v-222h-91v548h374v-80zM663 80h289v-80h-381v548h92v-468z" />
    <glyph glyph-name="g.smcp" horiz-adv-x="617" 
d="M305 562q100 0 164 -48t74 -131h-98q-20 98 -140 98q-78 0 -124.5 -56t-46.5 -152t44.5 -151.5t121.5 -55.5q71 0 112.5 39t42.5 118h-151v75h238v-298h-82v63h-2q-24 -34 -71 -54t-104 -20q-113 0 -179 76t-66 208q0 134 72 211.5t195 77.5z" />
    <glyph glyph-name="gbreve.smcp" horiz-adv-x="617" 
d="M390 752h65q-5 -68 -45.5 -105.5t-109.5 -37.5t-110 37.5t-46 105.5h66q4 -39 28 -60t62 -21t61.5 21t28.5 60zM305 562q100 0 164 -48t74 -131h-98q-20 98 -140 98q-78 0 -124.5 -56t-46.5 -152t44.5 -151.5t121.5 -55.5q71 0 112.5 39t42.5 118h-151v75h238v-298h-82
v63h-2q-24 -34 -71 -54t-104 -20q-113 0 -179 76t-66 208q0 134 72 211.5t195 77.5z" />
    <glyph glyph-name="gcircumflex.smcp" horiz-adv-x="617" 
d="M373 609l-73 93l-74 -93h-89l114 143h97l114 -143h-89zM305 562q100 0 164 -48t74 -131h-98q-20 98 -140 98q-78 0 -124.5 -56t-46.5 -152t44.5 -151.5t121.5 -55.5q71 0 112.5 39t42.5 118h-151v75h238v-298h-82v63h-2q-24 -34 -71 -54t-104 -20q-113 0 -179 76t-66 208
q0 134 72 211.5t195 77.5z" />
    <glyph glyph-name="gcommaaccent.smcp" horiz-adv-x="617" 
d="M305 562q100 0 164 -48t74 -131h-98q-20 98 -140 98q-78 0 -124.5 -56t-46.5 -152t44.5 -151.5t121.5 -55.5q71 0 112.5 39t42.5 118h-151v75h238v-298h-82v63h-2q-24 -34 -71 -54t-104 -20q-113 0 -179 76t-66 208q0 134 72 211.5t195 77.5zM347 -154l-55 -103h-38
l38 103h-34v89h89v-89z" />
    <glyph glyph-name="gdotaccent.smcp" horiz-adv-x="617" 
d="M343 653h-88v99h88v-99zM305 562q100 0 164 -48t74 -131h-98q-20 98 -140 98q-78 0 -124.5 -56t-46.5 -152t44.5 -151.5t121.5 -55.5q71 0 112.5 39t42.5 118h-151v75h238v-298h-82v63h-2q-24 -34 -71 -54t-104 -20q-113 0 -179 76t-66 208q0 134 72 211.5t195 77.5z" />
    <glyph glyph-name="h.smcp" horiz-adv-x="630" 
d="M545 0h-92v244h-276v-244h-92v548h92v-224h276v224h92v-548z" />
    <glyph glyph-name="hbar.smcp" horiz-adv-x="630" 
d="M590 437h-45v-437h-92v244h-276v-244h-92v437h-45v55h45v56h92v-56h276v56h92v-56h45v-55zM453 437h-276v-113h276v113z" />
    <glyph glyph-name="hcircumflex.smcp" horiz-adv-x="630" 
d="M389 609l-73 93l-74 -93h-89l114 143h97l114 -143h-89zM545 0h-92v244h-276v-244h-92v548h92v-224h276v224h92v-548z" />
    <glyph glyph-name="i.smcp" horiz-adv-x="262" 
d="M177 0h-92v548h92v-548z" />
    <glyph glyph-name="iacute.smcp" horiz-adv-x="262" 
d="M140 609h-76l86 143h113zM177 0h-92v548h92v-548z" />
    <glyph glyph-name="ibreve.smcp" horiz-adv-x="262" 
d="M207 752h63q-3 -68 -39.5 -105.5t-99.5 -37.5t-99.5 37.5t-39.5 105.5h63q6 -82 76 -82t76 82zM177 0h-92v548h92v-548z" />
    <glyph glyph-name="icircumflex.smcp" horiz-adv-x="262" 
d="M279 610h-85l-63 93l-62 -93h-86l100 142h96zM177 0h-92v548h92v-548z" />
    <glyph glyph-name="idieresis.smcp" horiz-adv-x="262" 
d="M95 653h-82v99h82v-99zM248 653h-81v99h81v-99zM177 0h-92v548h92v-548z" />
    <glyph glyph-name="idotaccent.smcp" horiz-adv-x="262" 
d="M175 653h-88v99h88v-99zM177 0h-92v548h92v-548z" />
    <glyph glyph-name="igrave.smcp" horiz-adv-x="262" 
d="M112 752l86 -143h-76l-123 143h113zM177 0h-92v548h92v-548z" />
    <glyph glyph-name="ij.smcp" horiz-adv-x="572" 
d="M177 0h-92v548h92v-548zM492 548v-382q0 -170 -171 -170q-24 0 -46 5v79q18 -3 35 -3q47 0 69 23t22 79v369h91z" />
    <glyph glyph-name="imacron.smcp" horiz-adv-x="262" 
d="M259 657h-257v65h257v-65zM177 0h-92v548h92v-548z" />
    <glyph glyph-name="iogonek.smcp" horiz-adv-x="262" 
d="M141 -138q22 0 39 7v-53q-25 -10 -59 -10q-99 0 -99 80q0 32 18.5 58.5t59.5 55.5h-15v548h92v-548q-76 -56 -76 -102q0 -36 40 -36z" />
    <glyph glyph-name="itilde.smcp" horiz-adv-x="262" 
d="M230 746h52q-2 -55 -26.5 -85t-66.5 -30q-29 0 -64.5 26t-51.5 26q-37 0 -42 -52h-51q2 55 26.5 85t66.5 30q29 0 64.5 -26.5t51.5 -26.5q36 0 41 53zM177 0h-92v548h92v-548z" />
    <glyph glyph-name="j.smcp" horiz-adv-x="310" 
d="M230 548v-382q0 -170 -171 -170q-24 0 -46 5v79q18 -3 35 -3q47 0 69 23t22 79v369h91z" />
    <glyph glyph-name="jcircumflex.smcp" horiz-adv-x="310" 
d="M332 610h-85l-63 93l-62 -93h-86l100 142h96zM230 548v-382q0 -170 -171 -170q-24 0 -46 5v79q18 -3 35 -3q47 0 69 23t22 79v369h91z" />
    <glyph glyph-name="k.smcp" horiz-adv-x="540" 
d="M270 287l266 -287h-122l-235 264h-2v-264h-92v548h92v-243h2l219 243h115z" />
    <glyph glyph-name="kcommaaccent.smcp" horiz-adv-x="540" 
d="M270 287l266 -287h-122l-235 264h-2v-264h-92v548h92v-243h2l219 243h115zM328 -154l-55 -103h-38l38 103h-34v89h89v-89z" />
    <glyph glyph-name="l.smcp" horiz-adv-x="476" 
d="M177 80h289v-80h-381v548h92v-468z" />
    <glyph glyph-name="lacute.smcp" horiz-adv-x="476" 
d="M172 609h-76l86 143h113zM177 80h289v-80h-381v548h92v-468z" />
    <glyph glyph-name="lcaron.smcp" horiz-adv-x="476" 
d="M177 80h289v-80h-381v548h92v-468zM282 372h-54l29 176h80z" />
    <glyph glyph-name="lcommaaccent.smcp" horiz-adv-x="476" 
d="M177 80h289v-80h-381v548h92v-468zM316 -154l-55 -103h-38l38 103h-34v89h89v-89z" />
    <glyph glyph-name="ldot.smcp" horiz-adv-x="536" 
d="M177 80h289v-80h-381v548h92v-468zM453 283h-108v117h108v-117z" />
    <glyph glyph-name="j.acute.loclNLD.smcp" horiz-adv-x="310" 
d="M193 609h-76l86 143h113zM230 548v-382q0 -170 -171 -170q-24 0 -46 5v79q18 -3 35 -3q47 0 69 23t22 79v369h91z" />
    <glyph glyph-name="lslash.smcp" horiz-adv-x="472" 
d="M462 80v-80h-381v235l-67 -38v75l67 38v238h92v-193l115 65v-75l-115 -64v-201h289z" />
    <glyph glyph-name="m.smcp" horiz-adv-x="802" 
d="M717 0h-89v271q0 68 2 202h-2l-72 -202l-101 -271h-108l-100 271l-73 202h-2q2 -67 2 -202v-271h-89v548h148l95 -257q48 -130 72 -207h2q38 114 73 207l94 257h148v-548z" />
    <glyph glyph-name="n.smcp" horiz-adv-x="648" 
d="M563 0h-135l-127 230l-127 234h-2q2 -84 2 -252v-212h-89v548h136l127 -230l126 -234h2q-2 168 -2 252v212h89v-548z" />
    <glyph glyph-name="nacute.smcp" horiz-adv-x="648" 
d="M333 609h-76l86 143h113zM563 0h-135l-127 230l-127 234h-2q2 -84 2 -252v-212h-89v548h136l127 -230l126 -234h2q-2 168 -2 252v212h89v-548z" />
    <glyph glyph-name="ncaron.smcp" horiz-adv-x="648" 
d="M372 609h-97l-114 143h89l74 -93l73 93h89zM563 0h-135l-127 230l-127 234h-2q2 -84 2 -252v-212h-89v548h136l127 -230l126 -234h2q-2 168 -2 252v212h89v-548z" />
    <glyph glyph-name="ncommaaccent.smcp" horiz-adv-x="648" 
d="M563 0h-135l-127 230l-127 234h-2q2 -84 2 -252v-212h-89v548h136l127 -230l126 -234h2q-2 168 -2 252v212h89v-548zM368 -154l-55 -103h-38l38 103h-34v89h89v-89z" />
    <glyph glyph-name="eng.smcp" horiz-adv-x="639" 
d="M554 548v-574q0 -133 -130 -133q-26 0 -44 5v66q18 -2 26 -2q58 0 58 64v26l-157 244l-134 210h-2q3 -118 3 -237v-217h-89v548h125l123 -190l133 -210h2q-3 118 -3 236v164h89z" />
    <glyph glyph-name="ntilde.smcp" horiz-adv-x="648" 
d="M439 746h58q-3 -55 -30 -85t-71 -30q-33 0 -77 25.5t-63 25.5q-41 0 -46 -51h-58q3 55 30 85t71 30q33 0 77 -25.5t63 -25.5q40 0 46 51zM563 0h-135l-127 230l-127 234h-2q2 -84 2 -252v-212h-89v548h136l127 -230l126 -234h2q-2 168 -2 252v212h89v-548z" />
    <glyph glyph-name="o.smcp" horiz-adv-x="614" 
d="M307 562q124 0 196.5 -78t72.5 -210t-72.5 -210t-196.5 -78q-123 0 -195.5 78t-72.5 210t72.5 210t195.5 78zM307 480q-80 0 -126 -55.5t-46 -150.5t46 -150.5t126 -55.5t126.5 55.5t46.5 150.5t-46.5 150.5t-126.5 55.5z" />
    <glyph glyph-name="oacute.smcp" horiz-adv-x="614" 
d="M316 609h-76l86 143h113zM307 562q124 0 196.5 -78t72.5 -210t-72.5 -210t-196.5 -78q-123 0 -195.5 78t-72.5 210t72.5 210t195.5 78zM307 480q-80 0 -126 -55.5t-46 -150.5t46 -150.5t126 -55.5t126.5 55.5t46.5 150.5t-46.5 150.5t-126.5 55.5z" />
    <glyph glyph-name="obreve.smcp" horiz-adv-x="614" 
d="M398 752h65q-5 -68 -45.5 -105.5t-109.5 -37.5t-110 37.5t-46 105.5h66q4 -39 28 -60t62 -21t61.5 21t28.5 60zM307 562q124 0 196.5 -78t72.5 -210t-72.5 -210t-196.5 -78q-123 0 -195.5 78t-72.5 210t72.5 210t195.5 78zM307 480q-80 0 -126 -55.5t-46 -150.5
t46 -150.5t126 -55.5t126.5 55.5t46.5 150.5t-46.5 150.5t-126.5 55.5z" />
    <glyph glyph-name="ocircumflex.smcp" horiz-adv-x="614" 
d="M380 609l-73 93l-74 -93h-89l114 143h97l114 -143h-89zM307 562q124 0 196.5 -78t72.5 -210t-72.5 -210t-196.5 -78q-123 0 -195.5 78t-72.5 210t72.5 210t195.5 78zM307 480q-80 0 -126 -55.5t-46 -150.5t46 -150.5t126 -55.5t126.5 55.5t46.5 150.5t-46.5 150.5
t-126.5 55.5z" />
    <glyph glyph-name="odieresis.smcp" horiz-adv-x="614" 
d="M250 653h-82v99h82v-99zM445 653h-82v99h82v-99zM307 562q124 0 196.5 -78t72.5 -210t-72.5 -210t-196.5 -78q-123 0 -195.5 78t-72.5 210t72.5 210t195.5 78zM307 480q-80 0 -126 -55.5t-46 -150.5t46 -150.5t126 -55.5t126.5 55.5t46.5 150.5t-46.5 150.5t-126.5 55.5z
" />
    <glyph glyph-name="ograve.smcp" horiz-adv-x="614" 
d="M288 752l86 -143h-76l-123 143h113zM307 562q124 0 196.5 -78t72.5 -210t-72.5 -210t-196.5 -78q-123 0 -195.5 78t-72.5 210t72.5 210t195.5 78zM307 480q-80 0 -126 -55.5t-46 -150.5t46 -150.5t126 -55.5t126.5 55.5t46.5 150.5t-46.5 150.5t-126.5 55.5z" />
    <glyph glyph-name="ohungarumlaut.smcp" horiz-adv-x="614" 
d="M243 609h-74l106 143h104zM403 609h-74l106 143h104zM307 562q124 0 196.5 -78t72.5 -210t-72.5 -210t-196.5 -78q-123 0 -195.5 78t-72.5 210t72.5 210t195.5 78zM307 480q-80 0 -126 -55.5t-46 -150.5t46 -150.5t126 -55.5t126.5 55.5t46.5 150.5t-46.5 150.5
t-126.5 55.5z" />
    <glyph glyph-name="omacron.smcp" horiz-adv-x="614" 
d="M449 656h-284v64h284v-64zM307 562q124 0 196.5 -78t72.5 -210t-72.5 -210t-196.5 -78q-123 0 -195.5 78t-72.5 210t72.5 210t195.5 78zM307 480q-80 0 -126 -55.5t-46 -150.5t46 -150.5t126 -55.5t126.5 55.5t46.5 150.5t-46.5 150.5t-126.5 55.5z" />
    <glyph glyph-name="oslash.smcp" horiz-adv-x="614" 
d="M560 542l-51 -64q67 -78 67 -204q0 -132 -72.5 -210t-196.5 -78q-89 0 -154 43l-49 -61l-49 38l51 65q-67 76 -67 203q0 132 72.5 210t195.5 78q90 0 156 -43l47 60zM307 483q-81 0 -128 -56.5t-47 -152.5q0 -77 31 -131l246 308q-43 32 -102 32zM307 65q81 0 128 56.5
t47 152.5q0 78 -30 129l-246 -307q42 -31 101 -31z" />
    <glyph glyph-name="otilde.smcp" horiz-adv-x="614" 
d="M422 746h58q-3 -55 -30 -85t-71 -30q-33 0 -77 25.5t-63 25.5q-41 0 -46 -51h-58q3 55 30 85t71 30q33 0 77 -25.5t63 -25.5q40 0 46 51zM307 562q124 0 196.5 -78t72.5 -210t-72.5 -210t-196.5 -78q-123 0 -195.5 78t-72.5 210t72.5 210t195.5 78zM307 480
q-80 0 -126 -55.5t-46 -150.5t46 -150.5t126 -55.5t126.5 55.5t46.5 150.5t-46.5 150.5t-126.5 55.5z" />
    <glyph glyph-name="oe.smcp" horiz-adv-x="836" 
d="M778 469h-294v-150h276v-78h-276v-162h301v-79h-444q-144 0 -223 71.5t-79 202.5t79 202.5t223 71.5h437v-79zM393 469h-51q-99 0 -153 -51t-54 -144t54 -144t153 -51h51v390z" />
    <glyph glyph-name="p.smcp" horiz-adv-x="526" 
d="M85 548h205q102 0 156.5 -46t54.5 -128q0 -81 -54.5 -127t-156.5 -46h-113v-201h-92v548zM177 470v-191h105q124 0 124 96q0 95 -124 95h-105z" />
    <glyph glyph-name="thorn.smcp" horiz-adv-x="526" 
d="M177 453h113q102 0 156.5 -46t54.5 -128q0 -81 -54.5 -127t-156.5 -46h-113v-106h-92v548h92v-95zM177 375v-191h105q124 0 124 96q0 95 -124 95h-105z" />
    <glyph glyph-name="q.smcp" horiz-adv-x="614" 
d="M576 274q0 -129 -68 -206l61 -63l-54 -52l-66 68q-59 -35 -142 -35q-123 0 -195.5 77.5t-72.5 210.5q0 132 72.5 210t195.5 78q124 0 196.5 -78t72.5 -210zM135 273q0 -96 46.5 -152t126.5 -56q46 0 81 19l-74 75l54 52l76 -77q37 54 37 139q0 96 -47 151.5t-127 55.5
t-126.5 -55.5t-46.5 -151.5z" />
    <glyph glyph-name="r.smcp" horiz-adv-x="546" 
d="M85 548h196q207 0 207 -151q0 -51 -29.5 -88.5t-78.5 -48.5v-2q31 -10 48 -31t37 -73l58 -154h-98l-50 139q-16 47 -39.5 64.5t-68.5 17.5h-90v-221h-92v548zM177 472v-177h99q60 0 89.5 25.5t29.5 68.5q0 83 -122 83h-96z" />
    <glyph glyph-name="racute.smcp" horiz-adv-x="546" 
d="M282 609h-76l86 143h113zM85 548h196q207 0 207 -151q0 -51 -29.5 -88.5t-78.5 -48.5v-2q31 -10 48 -31t37 -73l58 -154h-98l-50 139q-16 47 -39.5 64.5t-68.5 17.5h-90v-221h-92v548zM177 472v-177h99q60 0 89.5 25.5t29.5 68.5q0 83 -122 83h-96z" />
    <glyph glyph-name="rcaron.smcp" horiz-adv-x="546" 
d="M322 609h-97l-114 143h89l74 -93l73 93h89zM85 548h196q207 0 207 -151q0 -51 -29.5 -88.5t-78.5 -48.5v-2q31 -10 48 -31t37 -73l58 -154h-98l-50 139q-16 47 -39.5 64.5t-68.5 17.5h-90v-221h-92v548zM177 472v-177h99q60 0 89.5 25.5t29.5 68.5q0 83 -122 83h-96z" />
    <glyph glyph-name="rcommaaccent.smcp" horiz-adv-x="546" 
d="M85 548h196q207 0 207 -151q0 -51 -29.5 -88.5t-78.5 -48.5v-2q31 -10 48 -31t37 -73l58 -154h-98l-50 139q-16 47 -39.5 64.5t-68.5 17.5h-90v-221h-92v548zM177 472v-177h99q60 0 89.5 25.5t29.5 68.5q0 83 -122 83h-96zM336 -154l-55 -103h-38l38 103h-34v89h89v-89z
" />
    <glyph glyph-name="s.smcp" horiz-adv-x="523" 
d="M247 562q214 0 214 -182h-91q0 107 -125 107q-50 0 -78 -20.5t-28 -56.5q0 -37 29 -53.5t105 -33.5q49 -11 78.5 -21t61 -28.5t46.5 -47.5t15 -70q0 -78 -58.5 -124t-156.5 -46q-105 0 -164 50.5t-59 144.5h92q0 -119 132 -119q59 0 90 23t31 65q0 37 -30.5 55t-104.5 34
q-42 10 -64.5 16.5t-52.5 20t-45 29t-26 40.5t-11 58q0 71 54 115t146 44z" />
    <glyph glyph-name="sacute.smcp" horiz-adv-x="523" 
d="M256 609h-76l86 143h113zM247 562q214 0 214 -182h-91q0 107 -125 107q-50 0 -78 -20.5t-28 -56.5q0 -37 29 -53.5t105 -33.5q49 -11 78.5 -21t61 -28.5t46.5 -47.5t15 -70q0 -78 -58.5 -124t-156.5 -46q-105 0 -164 50.5t-59 144.5h92q0 -119 132 -119q59 0 90 23t31 65
q0 37 -30.5 55t-104.5 34q-42 10 -64.5 16.5t-52.5 20t-45 29t-26 40.5t-11 58q0 71 54 115t146 44z" />
    <glyph glyph-name="scaron.smcp" horiz-adv-x="523" 
d="M295 609h-97l-114 143h89l74 -93l73 93h89zM247 562q214 0 214 -182h-91q0 107 -125 107q-50 0 -78 -20.5t-28 -56.5q0 -37 29 -53.5t105 -33.5q49 -11 78.5 -21t61 -28.5t46.5 -47.5t15 -70q0 -78 -58.5 -124t-156.5 -46q-105 0 -164 50.5t-59 144.5h92q0 -119 132 -119
q59 0 90 23t31 65q0 37 -30.5 55t-104.5 34q-42 10 -64.5 16.5t-52.5 20t-45 29t-26 40.5t-11 58q0 71 54 115t146 44z" />
    <glyph glyph-name="scedilla.smcp" horiz-adv-x="523" 
d="M474 156q0 -71 -49 -116t-133 -53l-32 -49q18 3 26 3q33 0 56.5 -20.5t23.5 -53.5q0 -37 -28.5 -62t-81.5 -25q-54 0 -105 27l18 37q36 -21 78 -21q56 0 56 41q0 19 -14.5 30.5t-38.5 11.5q-18 0 -31 -6l-18 20l44 66q-99 4 -154 54t-55 141h92q0 -119 132 -119
q59 0 90 23t31 65q0 37 -30.5 55t-104.5 34q-42 10 -64.5 16.5t-52.5 20t-45 29t-26 40.5t-11 58q0 71 54 115t146 44q214 0 214 -182h-91q0 107 -125 107q-50 0 -78 -20.5t-28 -56.5q0 -37 29 -53.5t105 -33.5q49 -11 78.5 -21t61 -28.5t46.5 -47.5t15 -70z" />
    <glyph glyph-name="scircumflex.smcp" horiz-adv-x="523" 
d="M320 609l-73 93l-74 -93h-89l114 143h97l114 -143h-89zM247 562q214 0 214 -182h-91q0 107 -125 107q-50 0 -78 -20.5t-28 -56.5q0 -37 29 -53.5t105 -33.5q49 -11 78.5 -21t61 -28.5t46.5 -47.5t15 -70q0 -78 -58.5 -124t-156.5 -46q-105 0 -164 50.5t-59 144.5h92
q0 -119 132 -119q59 0 90 23t31 65q0 37 -30.5 55t-104.5 34q-42 10 -64.5 16.5t-52.5 20t-45 29t-26 40.5t-11 58q0 71 54 115t146 44z" />
    <glyph glyph-name="scommaaccent.smcp" horiz-adv-x="523" 
d="M247 562q214 0 214 -182h-91q0 107 -125 107q-50 0 -78 -20.5t-28 -56.5q0 -37 29 -53.5t105 -33.5q49 -11 78.5 -21t61 -28.5t46.5 -47.5t15 -70q0 -78 -58.5 -124t-156.5 -46q-105 0 -164 50.5t-59 144.5h92q0 -119 132 -119q59 0 90 23t31 65q0 37 -30.5 55t-104.5 34
q-42 10 -64.5 16.5t-52.5 20t-45 29t-26 40.5t-11 58q0 71 54 115t146 44zM303 -154l-55 -103h-38l38 103h-34v89h89v-89z" />
    <glyph glyph-name="germandbls.smcp" horiz-adv-x="666" 
d="M570 457l-127 -130q172 -38 172 -176q0 -79 -52.5 -122t-141.5 -43q-87 0 -133.5 41t-46.5 119h88q0 -83 92 -83q46 0 72.5 23t26.5 66q0 53 -44.5 80t-134.5 34v66l111 112q-48 40 -117 40q-163 0 -163 -166v-318h-92v320q0 116 67 179t190 63q72 0 132.5 -28.5
t100.5 -76.5z" />
    <glyph glyph-name="t.smcp" horiz-adv-x="500" 
d="M490 468h-194v-468h-92v468h-194v80h480v-80z" />
    <glyph glyph-name="tbar.smcp" horiz-adv-x="500" 
d="M296 468v-157h109v-66h-109v-245h-92v245h-110v66h110v157h-194v80h480v-80h-194z" />
    <glyph glyph-name="tcaron.smcp" horiz-adv-x="500" 
d="M298 609h-97l-114 143h89l74 -93l73 93h89zM490 468h-194v-468h-92v468h-194v80h480v-80z" />
    <glyph glyph-name="tcedilla.smcp" horiz-adv-x="500" 
d="M490 468h-194v-468h-92v468h-194v80h480v-80zM294 -154l-55 -103h-38l38 103h-34v89h89v-89z" />
    <glyph glyph-name="tcommaaccent.smcp" horiz-adv-x="500" 
d="M490 468h-194v-468h-92v468h-194v80h480v-80zM294 -154l-55 -103h-38l38 103h-34v89h89v-89z" />
    <glyph glyph-name="u.smcp" horiz-adv-x="603" 
d="M523 548v-342q0 -107 -57 -163.5t-164 -56.5q-108 0 -165 56.5t-57 163.5v342h91v-341q0 -68 34.5 -103.5t96.5 -35.5t96 35t34 104v341h91z" />
    <glyph glyph-name="uacute.smcp" horiz-adv-x="603" 
d="M311 609h-76l86 143h113zM523 548v-342q0 -107 -57 -163.5t-164 -56.5q-108 0 -165 56.5t-57 163.5v342h91v-341q0 -68 34.5 -103.5t96.5 -35.5t96 35t34 104v341h91z" />
    <glyph glyph-name="ubreve.smcp" horiz-adv-x="603" 
d="M392 752h65q-5 -68 -45.5 -105.5t-109.5 -37.5t-110 37.5t-46 105.5h66q4 -39 28 -60t62 -21t61.5 21t28.5 60zM523 548v-342q0 -107 -57 -163.5t-164 -56.5q-108 0 -165 56.5t-57 163.5v342h91v-341q0 -68 34.5 -103.5t96.5 -35.5t96 35t34 104v341h91z" />
    <glyph glyph-name="ucircumflex.smcp" horiz-adv-x="603" 
d="M375 609l-73 93l-74 -93h-89l114 143h97l114 -143h-89zM523 548v-342q0 -107 -57 -163.5t-164 -56.5q-108 0 -165 56.5t-57 163.5v342h91v-341q0 -68 34.5 -103.5t96.5 -35.5t96 35t34 104v341h91z" />
    <glyph glyph-name="udieresis.smcp" horiz-adv-x="603" 
d="M245 653h-82v99h82v-99zM440 653h-82v99h82v-99zM523 548v-342q0 -107 -57 -163.5t-164 -56.5q-108 0 -165 56.5t-57 163.5v342h91v-341q0 -68 34.5 -103.5t96.5 -35.5t96 35t34 104v341h91z" />
    <glyph glyph-name="ugrave.smcp" horiz-adv-x="603" 
d="M282 752l86 -143h-76l-123 143h113zM523 548v-342q0 -107 -57 -163.5t-164 -56.5q-108 0 -165 56.5t-57 163.5v342h91v-341q0 -68 34.5 -103.5t96.5 -35.5t96 35t34 104v341h91z" />
    <glyph glyph-name="uhungarumlaut.smcp" horiz-adv-x="603" 
d="M237 609h-74l106 143h104zM397 609h-74l106 143h104zM523 548v-342q0 -107 -57 -163.5t-164 -56.5q-108 0 -165 56.5t-57 163.5v342h91v-341q0 -68 34.5 -103.5t96.5 -35.5t96 35t34 104v341h91z" />
    <glyph glyph-name="umacron.smcp" horiz-adv-x="603" 
d="M443 656h-284v64h284v-64zM523 548v-342q0 -107 -57 -163.5t-164 -56.5q-108 0 -165 56.5t-57 163.5v342h91v-341q0 -68 34.5 -103.5t96.5 -35.5t96 35t34 104v341h91z" />
    <glyph glyph-name="uogonek.smcp" horiz-adv-x="603" 
d="M524 548v-340q0 -123 -92 -200q-75 -63 -75 -110q0 -36 41 -36q21 0 38 7v-53q-25 -10 -58 -10q-100 0 -100 80q0 51 64 104v2q-16 -3 -40 -3q-107 0 -164.5 56.5t-57.5 162.5v340h92v-339q0 -68 34 -103t96 -35t96 35t34 103v339h92z" />
    <glyph glyph-name="uring.smcp" horiz-adv-x="603" 
d="M301 806q42 0 71.5 -29.5t29.5 -70.5q0 -42 -29.5 -71.5t-71.5 -29.5q-41 0 -70.5 29.5t-29.5 71.5q0 41 29.5 70.5t70.5 29.5zM301 764q-23 0 -40 -17t-17 -41t17 -41t40 -17q25 0 41.5 16.5t16.5 41.5q0 24 -16.5 41t-41.5 17zM523 548v-342q0 -107 -57 -163.5
t-164 -56.5q-108 0 -165 56.5t-57 163.5v342h91v-341q0 -68 34.5 -103.5t96.5 -35.5t96 35t34 104v341h91z" />
    <glyph glyph-name="utilde.smcp" horiz-adv-x="603" 
d="M416 746h58q-3 -55 -30 -85t-71 -30q-33 0 -77 25.5t-63 25.5q-41 0 -46 -51h-58q3 55 30 85t71 30q33 0 77 -25.5t63 -25.5q40 0 46 51zM523 548v-342q0 -107 -57 -163.5t-164 -56.5q-108 0 -165 56.5t-57 163.5v342h91v-341q0 -68 34.5 -103.5t96.5 -35.5t96 35t34 104
v341h91z" />
    <glyph glyph-name="v.smcp" horiz-adv-x="520" 
d="M322 0h-123l-193 548h96l84 -241q30 -84 73 -222h2q44 141 74 222l83 241h96z" />
    <glyph glyph-name="w.smcp" horiz-adv-x="769" 
d="M631 0h-133l-58 237l-54 233h-2l-54 -233l-58 -237h-133l-129 548h91l49 -212l56 -252h2q31 137 60 253l52 211h130l52 -211q29 -116 60 -253h2q25 120 56 252l49 212h91z" />
    <glyph glyph-name="wacute.smcp" horiz-adv-x="769" 
d="M394 609h-76l86 143h113zM631 0h-133l-58 237l-54 233h-2l-54 -233l-58 -237h-133l-129 548h91l49 -212l56 -252h2q31 137 60 253l52 211h130l52 -211q29 -116 60 -253h2q25 120 56 252l49 212h91z" />
    <glyph glyph-name="wcircumflex.smcp" horiz-adv-x="769" 
d="M458 609l-73 93l-74 -93h-89l114 143h97l114 -143h-89zM631 0h-133l-58 237l-54 233h-2l-54 -233l-58 -237h-133l-129 548h91l49 -212l56 -252h2q31 137 60 253l52 211h130l52 -211q29 -116 60 -253h2q25 120 56 252l49 212h91z" />
    <glyph glyph-name="wdieresis.smcp" horiz-adv-x="769" 
d="M328 653h-82v99h82v-99zM523 653h-82v99h82v-99zM631 0h-133l-58 237l-54 233h-2l-54 -233l-58 -237h-133l-129 548h91l49 -212l56 -252h2q31 137 60 253l52 211h130l52 -211q29 -116 60 -253h2q25 120 56 252l49 212h91z" />
    <glyph glyph-name="wgrave.smcp" horiz-adv-x="769" 
d="M366 752l86 -143h-76l-123 143h113zM631 0h-133l-58 237l-54 233h-2l-54 -233l-58 -237h-133l-129 548h91l49 -212l56 -252h2q31 137 60 253l52 211h130l52 -211q29 -116 60 -253h2q25 120 56 252l49 212h91z" />
    <glyph glyph-name="x.smcp" horiz-adv-x="524" 
d="M319 283l198 -283h-110l-144 214h-2l-145 -214h-110l198 283l-186 265h107l136 -200h2l135 200h108z" />
    <glyph glyph-name="y.smcp" horiz-adv-x="516" 
d="M303 222v-222h-91v222l-209 326h105l66 -108q44 -71 82 -140h2q29 53 83 140l66 108h105z" />
    <glyph glyph-name="yacute.smcp" horiz-adv-x="516" 
d="M267 609h-76l86 143h113zM303 222v-222h-91v222l-209 326h105l66 -108q44 -71 82 -140h2q29 53 83 140l66 108h105z" />
    <glyph glyph-name="ycircumflex.smcp" horiz-adv-x="516" 
d="M331 609l-73 93l-74 -93h-89l114 143h97l114 -143h-89zM303 222v-222h-91v222l-209 326h105l66 -108q44 -71 82 -140h2q29 53 83 140l66 108h105z" />
    <glyph glyph-name="ydieresis.smcp" horiz-adv-x="516" 
d="M201 653h-82v99h82v-99zM396 653h-82v99h82v-99zM303 222v-222h-91v222l-209 326h105l66 -108q44 -71 82 -140h2q29 53 83 140l66 108h105z" />
    <glyph glyph-name="ygrave.smcp" horiz-adv-x="516" 
d="M238 752l86 -143h-76l-123 143h113zM303 222v-222h-91v222l-209 326h105l66 -108q44 -71 82 -140h2q29 53 83 140l66 108h105z" />
    <glyph glyph-name="z.smcp" horiz-adv-x="470" 
d="M439 462l-315 -381v-2h330v-79h-438v86l316 381v2h-306v79h413v-86z" />
    <glyph glyph-name="zacute.smcp" horiz-adv-x="470" 
d="M242 609h-76l86 143h113zM439 462l-315 -381v-2h330v-79h-438v86l316 381v2h-306v79h413v-86z" />
    <glyph glyph-name="zcaron.smcp" horiz-adv-x="470" 
d="M281 609h-97l-114 143h89l74 -93l73 93h89zM439 462l-315 -381v-2h330v-79h-438v86l316 381v2h-306v79h413v-86z" />
    <glyph glyph-name="zdotaccent.smcp" horiz-adv-x="470" 
d="M276 653h-88v99h88v-99zM439 462l-315 -381v-2h330v-79h-438v86l316 381v2h-306v79h413v-86z" />
    <glyph glyph-name="ccedilla.smcp.ss01" horiz-adv-x="587" 
d="M296 562q107 0 170.5 -55.5t68.5 -146.5h-95q-6 57 -45 88.5t-99 31.5q-75 0 -118.5 -55t-43.5 -151t43.5 -151t118.5 -55q59 0 98 32.5t47 90.5h97q-9 -96 -73 -150.5t-169 -54.5q-120 0 -189 76.5t-69 211.5q0 134 69 211t189 77zM250 -211h-110l129 162h80z" />
    <glyph glyph-name="scedilla.smcp.ss01" horiz-adv-x="523" 
d="M247 562q214 0 214 -182h-91q0 107 -125 107q-50 0 -78 -20.5t-28 -56.5q0 -37 29 -53.5t105 -33.5q49 -11 78.5 -21t61 -28.5t46.5 -47.5t15 -70q0 -78 -58.5 -124t-156.5 -46q-105 0 -164 50.5t-59 144.5h92q0 -119 132 -119q59 0 90 23t31 65q0 37 -30.5 55t-104.5 34
q-42 10 -64.5 16.5t-52.5 20t-45 29t-26 40.5t-11 58q0 71 54 115t146 44zM213 -211h-110l129 162h80z" />
    <glyph glyph-name="tcedilla.smcp.ss01" horiz-adv-x="500" 
d="M490 468h-194v-468h-92v468h-194v80h480v-80zM204 -211h-110l129 162h80z" />
    <glyph glyph-name="zero.lf" horiz-adv-x="590" 
d="M295 688q118 0 181 -90.5t63 -260.5t-63 -260.5t-181 -90.5t-181 90.5t-63 260.5t63 260.5t181 90.5zM295 607q-73 0 -111 -69t-38 -201q0 -133 38 -202.5t111 -69.5q72 0 110 69.5t38 202.5q0 132 -38 201t-110 69z" />
    <glyph glyph-name="one.lf" horiz-adv-x="360" 
d="M257 0h-91v491h-151v70q79 0 116.5 26t47.5 87h78v-674z" />
    <glyph glyph-name="two.lf" horiz-adv-x="570" 
d="M288 688q97 0 156.5 -51.5t59.5 -136.5q0 -81 -45 -130.5t-141 -105.5t-128.5 -95.5t-33.5 -89.5h363v-79h-464q-1 7 -1 20q0 101 39.5 164.5t158.5 133.5q87 51 121.5 86.5t34.5 93.5q0 49 -32.5 79.5t-87.5 30.5q-124 0 -132 -132h-93q4 100 64 156t161 56z" />
    <glyph glyph-name="three.lf" horiz-adv-x="563" 
d="M277 688q102 0 161.5 -50t59.5 -134q0 -114 -117 -157v-2q66 -22 97 -62.5t31 -105.5q0 -85 -64 -138t-167 -53q-111 0 -172 57t-61 160h93q0 -67 36 -102.5t104 -35.5q61 0 99 32t38 83q0 59 -41 90.5t-119 31.5h-27v77h27q69 0 109.5 31.5t40.5 85.5q0 51 -36 82
t-96 31q-129 0 -129 -134h-93q0 100 60.5 156.5t165.5 56.5z" />
    <glyph glyph-name="four.lf" horiz-adv-x="550" 
d="M534 174h-110v-174h-91v174h-318v83l286 417h123v-424h110v-76zM103 250h231v92q0 125 3 251h-2l-155 -232z" />
    <glyph glyph-name="five.lf" horiz-adv-x="562" 
d="M478 596h-305l-20 -209h2q48 56 136 56q99 0 158.5 -60.5t59.5 -161.5q0 -107 -64.5 -171t-171.5 -64q-100 0 -159.5 52t-59.5 141h94q1 -53 35.5 -83t89.5 -30q65 0 103 40.5t38 111.5q0 69 -36.5 108t-99.5 39q-103 0 -128 -95l-91 6l37 398h382v-78z" />
    <glyph glyph-name="six.lf" horiz-adv-x="566" 
d="M303 688q90 0 144.5 -50t62.5 -137h-94q-17 107 -116 107q-74 0 -116.5 -63t-45.5 -192h2q59 86 166 86q96 0 155 -61t59 -160q0 -103 -64 -167.5t-167 -64.5q-115 0 -176.5 82t-61.5 243q0 183 65.5 280t186.5 97zM291 364q-61 0 -98.5 -41.5t-37.5 -106.5
q0 -69 36 -109.5t98 -40.5q61 0 98 41t37 109q0 66 -36.5 107t-96.5 41z" />
    <glyph glyph-name="seven.lf" horiz-adv-x="470" 
d="M454 674v-81q-169 -248 -235 -593h-101q78 354 242 594h-345v80h439z" />
    <glyph glyph-name="eight.lf" horiz-adv-x="567" 
d="M283 688q98 0 160.5 -51.5t62.5 -133.5q0 -54 -31.5 -93t-86.5 -60v-2q63 -19 97 -61.5t34 -104.5q0 -88 -65.5 -142t-170.5 -54t-170 54t-65 142q0 62 34 104.5t97 61.5v2q-55 21 -86.5 60t-31.5 93q0 82 62.5 133.5t159.5 51.5zM283 609q-59 0 -94.5 -30t-35.5 -79
q0 -53 35 -83.5t95 -30.5q61 0 96 30.5t35 83.5q0 49 -36 79t-95 30zM283 308q-63 0 -102.5 -33.5t-39.5 -86.5q0 -55 39 -88.5t103 -33.5q65 0 104 33.5t39 88.5q0 53 -39.5 86.5t-103.5 33.5z" />
    <glyph glyph-name="nine.lf" horiz-adv-x="566" 
d="M263 -14q-90 0 -144.5 50t-62.5 137h94q17 -107 116 -107q74 0 116.5 63t45.5 192h-2q-59 -86 -166 -86q-96 0 -155 61t-59 160q0 103 64 167.5t167 64.5q115 0 176.5 -82t61.5 -243q0 -183 -66 -280t-186 -97zM275 310q61 0 98.5 41.5t37.5 106.5q0 69 -36 109.5
t-98 40.5q-61 0 -98 -41t-37 -109q0 -66 36.5 -107t96.5 -41z" />
    <glyph glyph-name="zero.dnom" horiz-adv-x="379" 
d="M190 413q77 0 118 -54t41 -157t-41 -157t-118 -54t-118.5 54t-41.5 157t41.5 157t118.5 54zM190 349q-82 0 -82 -147t82 -147t82 147t-82 147z" />
    <glyph glyph-name="one.dnom" horiz-adv-x="239" 
d="M180 0h-77v278h-94v58q49 0 73.5 16t31.5 52h66v-404z" />
    <glyph glyph-name="two.dnom" horiz-adv-x="369" 
d="M186 413q65 0 103 -32t38 -84q0 -49 -30 -81t-86 -62q-56 -29 -75.5 -48.5t-20.5 -42.5h223v-63h-304q-1 5 -1 16q0 65 25 104.5t99 79.5q27 15 40 23t27.5 20t20 25t5.5 29q0 24 -17 38.5t-47 14.5q-68 0 -70 -69h-77q1 62 41 97t106 35z" />
    <glyph glyph-name="three.dnom" horiz-adv-x="364" 
d="M181 413q67 0 106 -30.5t39 -81.5q0 -64 -68 -92v-2q39 -14 56.5 -37.5t17.5 -61.5q0 -53 -41 -85t-109 -32q-74 0 -114.5 35.5t-40.5 99.5h76q0 -72 79 -72q34 0 54 15.5t20 41.5q0 63 -91 63h-13v61h13q39 0 62.5 16t23.5 44q0 26 -19 40.5t-52 14.5q-73 0 -73 -68h-75
q0 62 40 96.5t109 34.5z" />
    <glyph glyph-name="four.dnom" horiz-adv-x="355" 
d="M345 95h-66v-95h-75v95h-195v66l171 243h99v-246h66v-63zM80 158h126v49q0 45 2 133h-2q-40 -63 -84 -123z" />
    <glyph glyph-name="five.dnom" horiz-adv-x="365" 
d="M311 340h-188l-10 -99h2q28 28 80 28q62 0 99.5 -37.5t37.5 -99.5q0 -64 -41.5 -102.5t-110.5 -38.5q-67 0 -107.5 32t-40.5 88h77q1 -27 20 -42.5t50 -15.5q36 0 56.5 21t20.5 58q0 35 -20 55.5t-54 20.5q-58 0 -71 -50l-74 5l22 241h252v-64z" />
    <glyph glyph-name="six.dnom" horiz-adv-x="365" 
d="M194 413q60 0 97 -31.5t41 -87.5h-77q-9 57 -64 57q-80 0 -86 -129h1q36 42 98 42q59 0 96 -37t37 -96q0 -62 -41.5 -101t-108.5 -39q-76 0 -116.5 50.5t-40.5 147.5q0 108 43 166t121 58zM189 203q-34 0 -54.5 -21t-20.5 -54q0 -35 20 -54.5t53 -19.5t53.5 20.5
t20.5 54.5q0 33 -20 53.5t-52 20.5z" />
    <glyph glyph-name="seven.dnom" horiz-adv-x="320" 
d="M310 404v-64q-101 -135 -143 -340h-81q50 209 146 340h-223v64h301z" />
    <glyph glyph-name="eight.dnom" horiz-adv-x="365" 
d="M182 413q65 0 105.5 -31.5t40.5 -82.5q0 -62 -68 -89v-1q77 -24 77 -98q0 -55 -42.5 -87.5t-112.5 -32.5t-111.5 32.5t-41.5 87.5q0 74 77 98v1q-69 27 -69 89q0 51 40.5 82.5t104.5 31.5zM182 351q-32 0 -52 -14.5t-20 -39.5q0 -27 19.5 -43t52.5 -16q34 0 53.5 15.5
t19.5 43.5q0 25 -20 39.5t-53 14.5zM182 177q-34 0 -55.5 -17t-21.5 -45t21 -45t56 -17q36 0 57.5 17t21.5 45t-22 45t-57 17z" />
    <glyph glyph-name="nine.dnom" horiz-adv-x="365" 
d="M171 -8q-60 0 -97 31.5t-41 87.5h77q9 -57 63 -57q81 0 87 129h-1q-36 -42 -98 -42q-59 0 -96 37t-37 96q0 62 41.5 101t108.5 39q76 0 116.5 -50.5t40.5 -147.5q0 -108 -43 -166t-121 -58zM176 202q34 0 54.5 21t20.5 54q0 35 -20 54.5t-53 19.5t-53.5 -20.5
t-20.5 -54.5q0 -33 20 -53.5t52 -20.5z" />
    <glyph glyph-name="zero.numr" horiz-adv-x="379" 
d="M190 683q77 0 118 -54t41 -157t-41 -157t-118 -54t-118.5 54t-41.5 157t41.5 157t118.5 54zM190 619q-82 0 -82 -147t82 -147t82 147t-82 147z" />
    <glyph glyph-name="one.numr" horiz-adv-x="239" 
d="M180 270h-77v278h-94v58q49 0 73.5 16t31.5 52h66v-404z" />
    <glyph glyph-name="two.numr" horiz-adv-x="369" 
d="M185 683q65 0 103 -32t38 -84q0 -49 -30 -81t-86 -62q-56 -29 -75.5 -48.5t-20.5 -42.5h223v-63h-304q-1 5 -1 16q0 65 25 104.5t99 79.5q27 15 40 23t27.5 20t20 25t5.5 29q0 24 -17 38.5t-47 14.5q-68 0 -70 -69h-77q1 62 41 97t106 35z" />
    <glyph glyph-name="three.numr" horiz-adv-x="364" 
d="M180 683q67 0 106 -30.5t39 -81.5q0 -64 -68 -92v-2q39 -14 56.5 -37.5t17.5 -61.5q0 -53 -41 -85t-109 -32q-74 0 -114.5 35.5t-40.5 99.5h76q0 -72 79 -72q34 0 54 15.5t20 41.5q0 63 -91 63h-13v61h13q39 0 62.5 16t23.5 44q0 26 -19 40.5t-52 14.5q-73 0 -73 -68h-75
q0 62 40 96.5t109 34.5z" />
    <glyph glyph-name="four.numr" horiz-adv-x="355" 
d="M345 365h-66v-95h-75v95h-195v66l171 243h99v-246h66v-63zM80 428h126v49q0 45 2 133h-2q-40 -63 -84 -123z" />
    <glyph glyph-name="five.numr" horiz-adv-x="365" 
d="M311 610h-188l-10 -99h2q28 28 80 28q62 0 99.5 -37.5t37.5 -99.5q0 -64 -41.5 -102.5t-110.5 -38.5q-67 0 -107.5 32t-40.5 88h77q1 -27 20 -42.5t50 -15.5q36 0 56.5 21t20.5 58q0 35 -20 55.5t-54 20.5q-58 0 -71 -50l-74 5l22 241h252v-64z" />
    <glyph glyph-name="six.numr" horiz-adv-x="365" 
d="M194 683q60 0 97 -31.5t41 -87.5h-77q-9 57 -64 57q-80 0 -86 -129h1q36 42 98 42q59 0 96 -37t37 -96q0 -62 -41.5 -101t-108.5 -39q-76 0 -116.5 50.5t-40.5 147.5q0 108 43 166t121 58zM189 473q-34 0 -54.5 -21t-20.5 -54q0 -35 20 -54.5t53 -19.5t53.5 20.5
t20.5 54.5q0 33 -20 53.5t-52 20.5z" />
    <glyph glyph-name="seven.numr" horiz-adv-x="320" 
d="M310 674v-64q-101 -135 -143 -340h-81q50 209 146 340h-223v64h301z" />
    <glyph glyph-name="eight.numr" horiz-adv-x="365" 
d="M182 683q65 0 105.5 -31.5t40.5 -82.5q0 -62 -68 -89v-1q77 -24 77 -98q0 -55 -42.5 -87.5t-112.5 -32.5t-111.5 32.5t-41.5 87.5q0 74 77 98v1q-69 27 -69 89q0 51 40.5 82.5t104.5 31.5zM182 621q-32 0 -52 -14.5t-20 -39.5q0 -27 19.5 -43t52.5 -16q34 0 53.5 15.5
t19.5 43.5q0 25 -20 39.5t-53 14.5zM182 447q-34 0 -55.5 -17t-21.5 -45t21 -45t56 -17q36 0 57.5 17t21.5 45t-22 45t-57 17z" />
    <glyph glyph-name="nine.numr" horiz-adv-x="365" 
d="M171 262q-60 0 -97 31.5t-41 87.5h77q9 -57 63 -57q81 0 87 129h-1q-36 -42 -98 -42q-59 0 -96 37t-37 96q0 62 41.5 101t108.5 39q76 0 116.5 -50.5t40.5 -147.5q0 -108 -43 -166t-121 -58zM176 472q34 0 54.5 21t20.5 54q0 35 -20 54.5t-53 19.5t-53.5 -20.5
t-20.5 -54.5q0 -33 20 -53.5t52 -20.5z" />
    <glyph glyph-name="zero.smcp" horiz-adv-x="478" 
d="M239 560q101 0 155 -74t54 -212t-54 -212t-155 -74q-100 0 -154 74t-54 212t54 212t154 74zM239 483q-55 0 -84.5 -54t-29.5 -155q0 -102 29.5 -156t84.5 -54t84.5 54t29.5 156q0 101 -29.5 155t-84.5 54z" />
    <glyph glyph-name="one.smcp" horiz-adv-x="478" 
d="M304 0h-92v386h-128v69q68 0 101 21.5t40 71.5h79v-548z" />
    <glyph glyph-name="two.smcp" horiz-adv-x="478" 
d="M238 560q84 0 134.5 -43.5t50.5 -113.5q0 -65 -39 -107t-116 -84q-76 -42 -102.5 -70.5t-27.5 -64.5h299v-77h-399q-1 6 -1 20q0 85 33.5 138t132.5 108q69 39 97.5 66.5t28.5 70.5q0 36 -24.5 58t-66.5 22q-95 0 -100 -100h-93q2 83 54.5 130t138.5 47z" />
    <glyph glyph-name="three.smcp" horiz-adv-x="478" 
d="M236 560q87 0 138 -41.5t51 -109.5q0 -47 -22.5 -77t-71.5 -49v-2q54 -19 78.5 -51t24.5 -84q0 -71 -55 -114.5t-143 -43.5q-96 0 -148.5 47.5t-52.5 133.5h93q0 -105 108 -105q47 0 75.5 23.5t28.5 61.5q0 91 -125 91h-19v74h20q54 0 85.5 23t31.5 63q0 38 -27 61
t-73 23q-100 0 -100 -101h-92q0 83 52.5 130t142.5 47z" />
    <glyph glyph-name="four.smcp" horiz-adv-x="478" 
d="M459 134h-92v-134h-90v134h-262v80l232 334h120v-340h92v-74zM100 208h179v71q0 126 2 188h-2l-118 -173z" />
    <glyph glyph-name="five.smcp" horiz-adv-x="478" 
d="M407 471h-251l-14 -150h2q39 42 109 42q83 0 132.5 -49.5t49.5 -131.5q0 -88 -55 -141t-145 -53q-87 0 -139.5 43t-52.5 118h94q1 -40 28 -62.5t69 -22.5q50 0 78.5 30.5t28.5 83.5q0 52 -28 81t-76 29q-78 0 -98 -72l-90 6l30 326h328v-77z" />
    <glyph glyph-name="six.smcp" horiz-adv-x="478" 
d="M254 560q78 0 125.5 -41.5t54.5 -115.5h-94q-14 81 -89 81q-118 0 -124 -190h2q49 63 134 63q80 0 129 -49.5t49 -129.5q0 -85 -54.5 -137.5t-142.5 -52.5q-98 0 -151 68t-53 199q0 147 56 226t158 79zM245 284q-46 0 -75 -30t-29 -78q0 -52 28 -81.5t76 -29.5
q46 0 74 30.5t28 80.5q0 49 -28 78.5t-74 29.5z" />
    <glyph glyph-name="seven.smcp" horiz-adv-x="478" 
d="M433 548v-78q-139 -194 -194 -470h-101q66 285 201 469h-303v79h397z" />
    <glyph glyph-name="eight.smcp" horiz-adv-x="478" 
d="M239 560q84 0 137.5 -42.5t53.5 -109.5q0 -84 -95 -123v-2q106 -34 106 -134q0 -73 -55.5 -117t-146.5 -44t-146 44t-55 117q0 100 105 134v2q-95 39 -95 123q0 67 54 109.5t137 42.5zM239 484q-45 0 -72.5 -22t-27.5 -59q0 -39 27 -62t73 -23t73 23t27 62q0 37 -27.5 59
t-72.5 22zM239 245q-49 0 -78.5 -25t-29.5 -65q0 -42 29.5 -66.5t78.5 -24.5q50 0 79 24.5t29 66.5q0 40 -29.5 65t-78.5 25z" />
    <glyph glyph-name="nine.smcp" horiz-adv-x="478" 
d="M225 -12q-79 0 -126.5 41.5t-54.5 115.5h94q14 -81 89 -81q118 0 124 190h-2q-49 -63 -134 -63q-79 0 -128.5 49.5t-49.5 129.5q0 85 54.5 137.5t142.5 52.5q99 0 152 -68t53 -199q0 -147 -56 -226t-158 -79zM233 264q46 0 75 30t29 78q0 52 -28 81.5t-76 29.5
q-45 0 -73.5 -30.5t-28.5 -80.5q0 -49 28 -78.5t74 -29.5z" />
    <glyph glyph-name="zero.lf.smcp" horiz-adv-x="509" 
d="M255 560q100 0 154 -74t54 -212t-54 -212t-154 -74q-101 0 -155 74t-54 212t54 212t155 74zM255 483q-55 0 -84.5 -54t-29.5 -155q0 -102 29.5 -156t84.5 -54t84.5 54t29.5 156q0 101 -29.5 155t-84.5 54z" />
    <glyph glyph-name="one.lf.smcp" horiz-adv-x="321" 
d="M232 0h-91v386h-128v69q68 0 100.5 21.5t40.5 71.5h78v-548z" />
    <glyph glyph-name="two.lf.smcp" horiz-adv-x="493" 
d="M249 560q84 0 134.5 -43.5t50.5 -113.5q0 -65 -39 -107t-116 -84t-103 -70.5t-27 -64.5h299v-77h-399q-1 6 -1 20q0 85 33 137.5t132 108.5q69 38 97.5 66t28.5 71q0 36 -24.5 58t-65.5 22q-95 0 -100 -100h-93q2 83 54.5 130t138.5 47z" />
    <glyph glyph-name="three.lf.smcp" horiz-adv-x="487" 
d="M241 560q88 0 139 -41.5t51 -109.5q0 -47 -22.5 -77t-72.5 -49v-2q54 -19 78.5 -51t24.5 -84q0 -71 -54.5 -114.5t-143.5 -43.5q-96 0 -148.5 47.5t-52.5 133.5h94q0 -105 107 -105q47 0 76 23.5t29 61.5q0 91 -126 91h-19v74h20q54 0 85.5 23t31.5 63q0 38 -27 61
t-73 23q-100 0 -100 -101h-92q0 83 52.5 130t142.5 47z" />
    <glyph glyph-name="four.lf.smcp" horiz-adv-x="471" 
d="M457 134h-92v-134h-90v134h-262v80l232 334h120v-340h92v-74zM99 208h178v71q0 64 2 188h-2l-118 -173z" />
    <glyph glyph-name="five.lf.smcp" horiz-adv-x="488" 
d="M412 471h-251l-14 -150h2q39 42 109 42q83 0 132.5 -49.5t49.5 -131.5q0 -88 -55 -141t-145 -53q-87 0 -139.5 43t-52.5 118h94q1 -40 28 -62.5t69 -22.5q50 0 78.5 30.5t28.5 83.5q0 52 -28 81t-76 29q-78 0 -98 -72l-90 6l30 326h328v-77z" />
    <glyph glyph-name="six.lf.smcp" horiz-adv-x="489" 
d="M260 560q78 0 126 -41.5t55 -115.5h-94q-13 81 -89 81q-118 0 -124 -190h2q49 63 134 63q79 0 128.5 -49.5t49.5 -129.5q0 -85 -54.5 -137.5t-142.5 -52.5q-99 0 -152 67.5t-53 199.5q0 147 56 226t158 79zM252 284q-46 0 -75 -30t-29 -78q0 -52 28 -81.5t76 -29.5
q45 0 73.5 30.5t28.5 80.5q0 49 -28 78.5t-74 29.5z" />
    <glyph glyph-name="seven.lf.smcp" horiz-adv-x="424" 
d="M410 548v-78q-139 -194 -194 -470h-101q66 285 201 469h-303v79h397z" />
    <glyph glyph-name="eight.lf.smcp" horiz-adv-x="489" 
d="M245 560q83 0 137 -42.5t54 -109.5q0 -84 -95 -123v-2q105 -34 105 -134q0 -73 -55 -117t-146 -44t-146.5 44t-55.5 117q0 100 106 134v2q-95 39 -95 123q0 67 53.5 109.5t137.5 42.5zM245 484q-45 0 -72.5 -22t-27.5 -59q0 -39 27 -62t73 -23t73 23t27 62q0 37 -27.5 59
t-72.5 22zM245 245q-49 0 -79 -25t-30 -65q0 -42 29.5 -66.5t79.5 -24.5q49 0 78.5 24.5t29.5 66.5q0 40 -29.5 65t-78.5 25z" />
    <glyph glyph-name="nine.lf.smcp" horiz-adv-x="489" 
d="M229 -12q-78 0 -125.5 41.5t-54.5 115.5h94q13 -81 89 -81q118 0 124 190h-2q-49 -63 -135 -63q-79 0 -128 49.5t-49 129.5q0 85 54 137.5t142 52.5q99 0 152 -67.5t53 -199.5q0 -147 -56 -226t-158 -79zM237 264q47 0 76 30t29 78q0 52 -28 81.5t-76 29.5
q-46 0 -74.5 -30.5t-28.5 -80.5q0 -49 28 -78.5t74 -29.5z" />
    <glyph glyph-name="periodcentered.case" horiz-adv-x="226" 
d="M167 297h-108v117h108v-117z" />
    <glyph glyph-name="exclamdown.case" horiz-adv-x="275" 
d="M86 712h104v-106h-104v106zM102 537h71l21 -537h-113z" />
    <glyph glyph-name="periodcentered.loclCAT.case" horiz-adv-x="80" 
d="M-48 354h-108v117h108v-117z" />
    <glyph glyph-name="questiondown.case" horiz-adv-x="516" 
d="M224 712h104v-106h-104v106zM256 -14q-98 0 -157.5 50t-59.5 131q0 54 21 90t86 91q57 48 73.5 83.5t16.5 115.5h78q1 -11 1 -30q0 -78 -19.5 -119t-82.5 -95q-50 -44 -65 -70t-15 -64q0 -47 33 -75t90 -28q128 0 136 129h91q-4 -102 -63 -155.5t-164 -53.5z" />
    <glyph glyph-name="slash.case" horiz-adv-x="457" 
d="M141 0h-79l253 712h79z" />
    <glyph glyph-name="periodcentered.loclCAT" horiz-adv-x="155" 
d="M132 297h-109v117h109v-117z" />
    <glyph glyph-name="braceleft.case" horiz-adv-x="301" 
d="M277 772v-56q-48 -2 -68 -24.5t-20 -76.5v-134q0 -52 -19 -80.5t-65 -42.5v-3q46 -14 65 -42.5t19 -80.5v-135q0 -54 20 -76.5t68 -23.5v-57h-22q-79 0 -113.5 38.5t-34.5 123.5v127q0 44 -15 65t-52 32v61q37 11 52 32t15 65v126q0 85 34.5 123.5t113.5 38.5h22z" />
    <glyph glyph-name="braceright.case" horiz-adv-x="301" 
d="M24 772h22q79 0 113.5 -38.5t34.5 -123.5v-126q0 -44 15 -65t52 -32v-61q-37 -11 -52 -32t-15 -65v-127q0 -85 -34.5 -123.5t-113.5 -38.5h-22v57q48 1 68 23.5t20 76.5v135q0 52 19 80.5t65 42.5v3q-46 14 -65 42.5t-19 80.5v134q0 54 -20 76.5t-68 24.5v56z" />
    <glyph glyph-name="bracketleft.case" horiz-adv-x="297" 
d="M279 713h-118v-714h118v-59h-203v832h203v-59z" />
    <glyph glyph-name="bracketright.case" horiz-adv-x="297" 
d="M221 772v-832h-203v59h118v714h-118v59h203z" />
    <glyph glyph-name="parenleft.case" horiz-adv-x="292" 
d="M186 772h76q-60 -103 -87.5 -201.5t-27.5 -214.5t27.5 -214.5t87.5 -201.5h-76q-135 186 -135 416t135 416z" />
    <glyph glyph-name="parenright.case" horiz-adv-x="292" 
d="M30 772h77q135 -188 135 -416t-135 -416h-77q60 103 87.5 201.5t27.5 214.5t-27.5 214.5t-87.5 201.5z" />
    <glyph glyph-name="bracketleft.sups" horiz-adv-x="222" 
d="M209 794h-82v-512h82v-55h-156v622h156v-55z" />
    <glyph glyph-name="bracketright.sups" horiz-adv-x="222" 
d="M169 849v-622h-156v55h82v512h-82v55h156z" />
    <glyph glyph-name="emdash.case" horiz-adv-x="1000" 
d="M980 317h-960v77h960v-77z" />
    <glyph glyph-name="endash.case" horiz-adv-x="500" 
d="M480 317h-460v77h460v-77z" />
    <glyph glyph-name="hyphen.case" horiz-adv-x="300" 
d="M270 317h-240v77h240v-77z" />
    <glyph glyph-name="guillemetleft.case" horiz-adv-x="464" 
d="M133 356l111 -200h-82l-114 200l114 200h82zM305 356l111 -200h-83l-114 200l114 200h83z" />
    <glyph glyph-name="guillemetright.case" horiz-adv-x="464" 
d="M130 556l114 -200l-114 -200h-82l111 200l-111 200h82zM302 556l114 -200l-114 -200h-83l112 200l-112 200h83z" />
    <glyph glyph-name="guilsinglleft.case" horiz-adv-x="292" 
d="M133 356l111 -200h-82l-114 200l114 200h82z" />
    <glyph glyph-name="guilsinglright.case" horiz-adv-x="292" 
d="M130 556l114 -200l-114 -200h-82l111 200l-111 200h82z" />
    <glyph glyph-name="quoteright.loclFRA" horiz-adv-x="273" 
d="M186 604l-48 -134h-52l35 134h-34v108h99v-108z" />
    <glyph glyph-name="periodcentered.loclCAT.smcp" horiz-adv-x="60" 
d="M-23 283h-108v117h108v-117z" />
    <glyph glyph-name="ampersand.smcp" horiz-adv-x="606" 
d="M488 0l-58 55q-70 -67 -176 -67q-96 0 -150.5 43.5t-54.5 115.5q0 106 122 163q-37 36 -50.5 63t-13.5 63q0 56 41.5 91t107.5 35q68 0 108.5 -33.5t40.5 -89.5q0 -46 -25 -79t-85 -64l129 -125q31 55 31 133h86q-2 -108 -57 -190l118 -114h-114zM257 494q-68 0 -70 -61
q0 -22 12 -40.5t47 -51.5q47 24 63 45t15 48q1 27 -17 43.5t-50 16.5zM257 59q70 0 120 48l-157 152q-82 -41 -82 -110q1 -40 33 -65t86 -25z" />
    <glyph glyph-name="acute.case" horiz-adv-x="299" 
d="M126 760h-76l86 138h113z" />
    <glyph glyph-name="breve.case" horiz-adv-x="411" 
d="M296 898h65q-5 -68 -45.5 -105t-109.5 -37q-70 0 -110.5 37t-45.5 105h66q4 -38 28 -59t62 -21t61.5 21t28.5 59z" />
    <glyph glyph-name="caron.alt" horiz-adv-x="209" 
d="M104 536h-54l29 176h80z" />
    <glyph glyph-name="caron.case" horiz-adv-x="425" 
d="M261 760h-97l-114 138h89l74 -88l73 88h89z" />
    <glyph glyph-name="caron.alt.case" horiz-adv-x="209" 
d="M104 494h-54l29 218h80z" />
    <glyph glyph-name="circumflex.case" horiz-adv-x="425" 
d="M164 898h97l114 -138h-89l-74 89l-73 -89h-89z" />
    <glyph glyph-name="dieresis.case" horiz-adv-x="377" 
d="M132 775h-82v99h82v-99zM327 775h-82v99h82v-99z" />
    <glyph glyph-name="dotaccent.case" horiz-adv-x="188" 
d="M138 769h-88v99h88v-99z" />
    <glyph glyph-name="grave.case" horiz-adv-x="299" 
d="M163 898l86 -138h-76l-123 138h113z" />
    <glyph glyph-name="hungarumlaut.case" horiz-adv-x="485" 
d="M124 756h-74l106 142h104zM284 756h-74l106 142h104z" />
    <glyph glyph-name="macron.case" horiz-adv-x="384" 
d="M334 788h-284v65h284v-65z" />
    <glyph glyph-name="breve.narrow" horiz-adv-x="378" 
d="M265 712h63q-3 -68 -39.5 -105.5t-99.5 -37.5t-99.5 37.5t-39.5 105.5h63q6 -82 76 -82t76 82z" />
    <glyph glyph-name="circumflex.narrow" horiz-adv-x="396" 
d="M346 570h-85l-63 93l-62 -93h-86l100 142h96z" />
    <glyph glyph-name="dieresis.narrow" horiz-adv-x="335" 
d="M132 613h-82v99h82v-99zM285 613h-81v99h81v-99z" />
    <glyph glyph-name="macron.narrow" horiz-adv-x="357" 
d="M307 617h-257v65h257v-65z" />
    <glyph glyph-name="tilde.narrow" horiz-adv-x="402" 
d="M300 706h52q-2 -55 -26.5 -85t-66.5 -30q-29 0 -64.5 26t-51.5 26q-37 0 -42 -52h-51q2 55 26.5 85t66.5 30q29 0 64.5 -26.5t51.5 -26.5q36 0 41 53z" />
    <glyph glyph-name="ring.case" horiz-adv-x="301" 
d="M150 953q42 0 71.5 -29.5t29.5 -71.5q0 -41 -29.5 -70.5t-71.5 -29.5q-41 0 -70.5 29.5t-29.5 70.5q0 42 29.5 71.5t70.5 29.5zM150 910q-23 0 -40 -17t-17 -41t17 -40.5t40 -16.5q25 0 41.5 16.5t16.5 40.5t-16.5 41t-41.5 17z" />
    <glyph glyph-name="cedilla.ss01" horiz-adv-x="309" 
d="M160 -211h-110l129 162h80z" />
    <glyph glyph-name="tilde.case" horiz-adv-x="445" 
d="M337 892h58q-3 -55 -30 -85t-71 -30q-33 0 -77 25.5t-63 25.5q-42 0 -46 -51h-58q3 55 30 85t71 30q33 0 77 -25.5t63 -25.5q40 0 46 51z" />
    <glyph glyph-name="bracketleftinferior" horiz-adv-x="222" 
d="M209 292h-82v-512h82v-55h-156v622h156v-55z" />
    <glyph glyph-name="bracketrightinferior" horiz-adv-x="222" 
d="M169 347v-622h-156v55h82v512h-82v55h156z" />
    </font>
</defs>
</svg>
