<?xml version="1.0" standalone="no"?>
<!DOCTYPE svg PUBLIC "-//W3C//DTD SVG 1.1//EN" "http://www.w3.org/Graphics/SVG/1.1/DTD/svg11.dtd" >
<svg>
<metadata>
Created by FontForge 20090622 at Wed Apr  8 19:54:44 2015
 By deploy user
Copyright &#194;&#169; 2015 Monotype Imaging Inc.  All rights reserved.
</metadata>
<defs>
<font id="NeueHaasUnicaPro-Medium" horiz-adv-x="581" >
  <font-face 
    font-family="Neue Haas Unica Pro Medium"
    font-weight="500"
    font-variant="small-caps"
    font-stretch="normal"
    units-per-em="1000"
    panose-1="2 11 6 4 3 2 6 2 2 3"
    ascent="764"
    descent="-236"
    x-height="508"
    cap-height="712"
    bbox="-166 -275 1022 959"
    underline-thickness="50"
    underline-position="-75"
    unicode-range="U+0020-U+FEFF"
  />
<missing-glyph horiz-adv-x="633" 
d="M151 777h331q61 0 96.5 -36t35.5 -97v-576q0 -61 -35.5 -97t-96.5 -36h-331q-61 0 -97 35.5t-36 97.5v576q0 62 36 97.5t97 35.5zM482 721h-331q-35 0 -55.5 -21t-20.5 -56v-576q0 -35 20.5 -56t55.5 -21h331q35 0 55.5 21t20.5 56v576q0 35 -20.5 56t-55.5 21zM316 647
q81 0 128 -40.5t47 -108.5q0 -42 -15 -71t-61 -70q-41 -37 -53.5 -64t-12.5 -82h-87q-1 10 -1 29q0 57 14 88t58 74q33 32 42.5 50t9.5 44q0 30 -18 47t-51 17q-76 0 -79 -89h-104q2 86 49.5 131t133.5 45zM361 65h-111v102h111v-102z" />
    <glyph glyph-name="f_f" unicode="ff" horiz-adv-x="615" 
d="M576 632q-37 0 -55 -19.5t-18 -63.5v-41h98v-87h-98v-421h-113v421h-179v-421h-113v421h-86v87h86v54q0 157 154 157q25 0 60 -7v-84q-14 4 -28 4q-37 0 -55 -19.5t-18 -63.5v-41h179v54q0 157 154 157q26 0 59 -7v-84q-12 4 -27 4z" />
    <glyph glyph-name="f_f_i" unicode="ffi" horiz-adv-x="875" 
d="M390 508v54q0 157 154 157q26 0 59 -7v-84q-12 4 -27 4q-37 0 -55 -19.5t-18 -63.5v-41h98v-87h-98v-421h-113v421h-179v-421h-113v421h-86v87h86v54q0 157 154 157q25 0 60 -7v-84q-14 4 -28 4q-37 0 -55 -19.5t-18 -63.5v-41h179zM802 712v-109h-114v109h114zM688 508
h114v-508h-114v508z" />
    <glyph glyph-name="f_f_l" unicode="ffl" horiz-adv-x="875" 
d="M390 508v54q0 157 154 157q26 0 59 -7v-84q-12 4 -27 4q-37 0 -55 -19.5t-18 -63.5v-41h98v-87h-98v-421h-113v421h-179v-421h-113v421h-86v87h86v54q0 157 154 157q25 0 60 -7v-84q-14 4 -28 4q-37 0 -55 -19.5t-18 -63.5v-41h179zM802 712v-712h-114v712h114z" />
    <glyph glyph-name="f_i" unicode="fi" horiz-adv-x="583" 
d="M98 508v54q0 157 154 157q25 0 60 -7v-84q-14 4 -28 4q-37 0 -55 -19.5t-18 -63.5v-41h98v-87h-98v-421h-113v421h-86v87h86zM510 712v-109h-114v109h114zM396 508h114v-508h-114v508z" />
    <glyph glyph-name="f_l" unicode="fl" horiz-adv-x="583" 
d="M98 508v54q0 157 154 157q25 0 60 -7v-84q-14 4 -28 4q-37 0 -55 -19.5t-18 -63.5v-41h98v-87h-98v-421h-113v421h-86v87h86zM510 712v-712h-114v712h114z" />
    <glyph glyph-name=".notdef" horiz-adv-x="633" 
d="M151 777h331q61 0 96.5 -36t35.5 -97v-576q0 -61 -35.5 -97t-96.5 -36h-331q-61 0 -97 35.5t-36 97.5v576q0 62 36 97.5t97 35.5zM482 721h-331q-35 0 -55.5 -21t-20.5 -56v-576q0 -35 20.5 -56t55.5 -21h331q35 0 55.5 21t20.5 56v576q0 35 -20.5 56t-55.5 21zM316 647
q81 0 128 -40.5t47 -108.5q0 -42 -15 -71t-61 -70q-41 -37 -53.5 -64t-12.5 -82h-87q-1 10 -1 29q0 57 14 88t58 74q33 32 42.5 50t9.5 44q0 30 -18 47t-51 17q-76 0 -79 -89h-104q2 86 49.5 131t133.5 45zM361 65h-111v102h111v-102z" />
    <glyph glyph-name=".null" horiz-adv-x="0" 
 />
    <glyph glyph-name="nonmarkingreturn" horiz-adv-x="333" 
 />
    <glyph glyph-name="space" unicode=" " horiz-adv-x="230" 
 />
    <glyph glyph-name="exclam" unicode="!" horiz-adv-x="300" 
d="M194 187h-89l-26 525h141zM214 0h-129v119h129v-119z" />
    <glyph glyph-name="quotedbl" unicode="&#x22;" horiz-adv-x="404" 
d="M160 444h-83l-13 268h109zM327 444h-83l-13 268h109z" />
    <glyph glyph-name="numbersign" unicode="#" horiz-adv-x="660" 
d="M504 411l-23 -146h108l-13 -83h-108l-29 -182h-98l29 182h-128l-29 -182h-98l29 182h-109l13 83h109l23 146h-109l13 83h109l29 180h98l-29 -180h128l29 180h98l-29 -180h108l-13 -83h-108zM406 411h-128l-23 -146h128z" />
    <glyph glyph-name="dollar" unicode="$" 
d="M542 184q0 -83 -58 -136t-158 -61v-86h-72v85q-104 9 -159.5 68.5t-55.5 165.5h111q0 -124 104 -143v224q-36 10 -60 18.5t-54 25t-48 35.5t-30.5 49t-12.5 68q0 81 55 132t150 59v76h72v-77q198 -18 198 -221h-110q0 112 -88 131v-205q40 -11 64.5 -19t57 -25t50.5 -37
t31 -52.5t13 -74.5zM163 506q0 -39 21.5 -59.5t69.5 -35.5v188q-91 -13 -91 -93zM326 280v-204q103 14 103 103q0 41 -24.5 62.5t-78.5 38.5z" />
    <glyph glyph-name="percent" unicode="%" horiz-adv-x="886" 
d="M292 -30h-75l377 734h75zM204 689q76 0 117.5 -50.5t41.5 -143.5t-41.5 -143.5t-117.5 -50.5t-117.5 50.5t-41.5 143.5t41.5 143.5t117.5 50.5zM204 618q-66 0 -66 -123t66 -123t66 123t-66 123zM682 373q76 0 117.5 -50.5t41.5 -143.5t-41.5 -143.5t-117.5 -50.5
t-117.5 50.5t-41.5 143.5t41.5 143.5t117.5 50.5zM682 302q-66 0 -66 -123t66 -123q67 0 67 123t-67 123z" />
    <glyph glyph-name="ampersand" unicode="&#x26;" horiz-adv-x="743" 
d="M587 0l-67 68q-81 -83 -218 -83q-119 0 -186 56t-67 150q0 140 152 208q-44 47 -60.5 81t-16.5 82q0 74 52 119.5t138 45.5q85 0 136 -43.5t51 -116.5q0 -59 -30 -104t-100 -85l150 -153q38 70 38 175h114q-2 -151 -74 -253l144 -147h-156zM314 632q-36 0 -57 -20
t-21 -56q0 -28 14 -52t54 -65q88 53 88 119q0 33 -21.5 53.5t-56.5 20.5zM312 84q78 0 140 53l-188 191q-52 -28 -73 -59t-21 -71q0 -50 38.5 -82t103.5 -32z" />
    <glyph glyph-name="quotesingle" unicode="'" horiz-adv-x="237" 
d="M160 444h-83l-13 268h109z" />
    <glyph glyph-name="parenleft" unicode="(" horiz-adv-x="310" 
d="M184 741h96q-58 -112 -84.5 -217.5t-26.5 -226.5q0 -229 111 -444h-96q-71 104 -104.5 210t-33.5 234q0 244 138 444z" />
    <glyph glyph-name="parenright" unicode=")" horiz-adv-x="310" 
d="M30 741h96q138 -200 138 -444q0 -128 -33.5 -234t-104.5 -210h-96q111 212 111 444q0 122 -26 227t-85 217z" />
    <glyph glyph-name="asterisk" unicode="*" horiz-adv-x="417" 
d="M237 577l124 56l27 -86l-133 -25l91 -98l-72 -53l-66 118l-66 -118l-72 53l91 98l-132 25l27 86l124 -56l-16 135h89z" />
    <glyph glyph-name="plus" unicode="+" horiz-adv-x="566" 
d="M328 362h171v-91h-171v-170h-90v170h-171v91h171v171h90v-171z" />
    <glyph glyph-name="comma" unicode="," horiz-adv-x="242" 
d="M187 0l-63 -158h-71l46 158h-44v142h132v-142z" />
    <glyph glyph-name="hyphen" unicode="-" horiz-adv-x="310" 
d="M280 245h-250v94h250v-94z" />
    <glyph glyph-name="period" unicode="." horiz-adv-x="242" 
d="M187 0h-132v142h132v-142z" />
    <glyph glyph-name="slash" unicode="/" horiz-adv-x="473" 
d="M124 -89h-94l298 834h94z" />
    <glyph glyph-name="zero" unicode="0" 
d="M291 689q124 0 190 -91t66 -261t-66 -261t-190 -91t-190.5 91t-66.5 261t66.5 261t190.5 91zM291 588q-65 0 -99.5 -64.5t-34.5 -186.5t34.5 -187.5t99.5 -65.5q64 0 98.5 65.5t34.5 187.5t-34.5 186.5t-98.5 64.5z" />
    <glyph glyph-name="one" unicode="1" 
d="M375 0h-118v474h-157v86q82 0 121.5 26.5t48.5 87.5h105v-674z" />
    <glyph glyph-name="two" unicode="2" 
d="M290 689q103 0 164.5 -52t61.5 -138q0 -44 -12 -78.5t-38.5 -62.5t-54.5 -48t-73 -46q-93 -55 -123.5 -89t-32.5 -77h350v-98h-486q-1 8 -1 21q0 103 39.5 168t156.5 133q84 49 118 83.5t34 88.5q0 43 -27.5 69t-75.5 26q-112 0 -117 -119h-119q3 105 65.5 162t170.5 57z
" />
    <glyph glyph-name="three" unicode="3" 
d="M289 689q106 0 168 -51t62 -136q0 -112 -117 -154v-2q66 -22 97 -62t31 -105q0 -88 -66 -141t-174 -53q-118 0 -182.5 59t-64.5 168h120q0 -128 127 -128q54 0 87 27.5t33 72.5q0 106 -148 106h-24v97h24q64 0 101.5 28.5t37.5 75.5q0 44 -32 71.5t-84 27.5
q-56 0 -86 -30.5t-30 -91.5h-119q0 104 63.5 162.5t175.5 58.5z" />
    <glyph glyph-name="four" unicode="4" 
d="M559 162h-103v-162h-118v162h-321v102l281 410h158v-417h103v-95zM128 257h213v87q0 105 5 237h-2q-49 -80 -145 -222z" />
    <glyph glyph-name="five" unicode="5" 
d="M497 576h-307l-18 -183h2q48 53 134 53q100 0 161 -61.5t61 -161.5q0 -108 -68 -173t-180 -65q-105 0 -167.5 53t-62.5 144h119q1 -46 32.5 -72t78.5 -26q59 0 92 35t33 99q0 63 -32.5 97.5t-88.5 34.5q-91 0 -112 -83l-117 8l38 399h402v-98z" />
    <glyph glyph-name="six" unicode="6" 
d="M312 689q95 0 152 -51.5t64 -142.5h-120q-14 95 -101 95q-66 0 -105.5 -56.5t-42.5 -171.5h2q61 78 160 78q97 0 157 -61.5t60 -159.5q0 -105 -67 -169.5t-175 -64.5q-121 0 -185 83t-64 246q0 181 69.5 278t195.5 97zM298 347q-54 0 -86.5 -36.5t-32.5 -96.5t31.5 -95
t85.5 -35t86.5 35.5t32.5 96.5q0 59 -32 95t-85 36z" />
    <glyph glyph-name="seven" unicode="7" 
d="M528 674v-103q-168 -239 -228 -571h-130q39 181 104 329t137 244h-368v101h485z" />
    <glyph glyph-name="eight" unicode="8" 
d="M291 689q102 0 167 -51t65 -134q0 -55 -32 -95t-88 -58v-2q63 -18 98.5 -61.5t35.5 -105.5q0 -90 -67.5 -143.5t-178.5 -53.5q-112 0 -179.5 53.5t-67.5 143.5q0 62 35.5 105.5t98.5 61.5v2q-56 18 -88 58t-32 95q0 83 65 134t168 51zM291 591q-53 0 -85.5 -26t-32.5 -69
q0 -47 31.5 -74t86.5 -27q54 0 85.5 27t31.5 74q0 43 -32 69t-85 26zM291 299q-57 0 -92 -29.5t-35 -77.5q0 -49 34 -78t93 -29q58 0 92.5 29t34.5 78q0 47 -35 77t-92 30z" />
    <glyph glyph-name="nine" unicode="9" 
d="M255 -15q-94 0 -151.5 51.5t-64.5 142.5h120q14 -95 102 -95q66 0 105.5 56.5t42.5 171.5h-2q-61 -78 -160 -78q-97 0 -157 61.5t-60 159.5q0 105 67 169.5t175 64.5q120 0 184 -83t64 -246q0 -181 -69 -278t-196 -97zM270 327q53 0 86 37t33 96t-31.5 94.5t-85.5 35.5
q-55 0 -87 -35.5t-32 -96.5q0 -60 31.5 -95.5t85.5 -35.5z" />
    <glyph glyph-name="colon" unicode=":" horiz-adv-x="242" 
d="M187 366h-132v142h132v-142zM187 0h-132v142h132v-142z" />
    <glyph glyph-name="semicolon" unicode=";" horiz-adv-x="242" 
d="M187 366h-132v142h132v-142zM187 0l-63 -158h-71l46 158h-44v142h132v-142z" />
    <glyph glyph-name="less" unicode="&#x3c;" horiz-adv-x="566" 
d="M499 450l-326 -132v-2l326 -132v-100l-432 180v106l432 180v-100z" />
    <glyph glyph-name="equal" unicode="=" horiz-adv-x="566" 
d="M499 360h-432v91h432v-91zM499 182h-432v91h432v-91z" />
    <glyph glyph-name="greater" unicode="&#x3e;" horiz-adv-x="566" 
d="M499 370v-106l-432 -180v100l326 132v2l-326 132v100z" />
    <glyph glyph-name="question" unicode="?" horiz-adv-x="532" 
d="M269 726q103 0 164 -49.5t61 -133.5q0 -52 -21 -88t-83 -89q-56 -47 -72 -82t-16 -108h-99q-1 11 -1 31q0 75 19 115.5t80 94.5q46 42 59.5 65.5t13.5 57.5q0 39 -28 62.5t-77 23.5q-113 0 -119 -115h-118q4 106 65 160.5t172 54.5zM316 0h-129v119h129v-119z" />
    <glyph glyph-name="at" unicode="@" horiz-adv-x="870" 
d="M446 699q173 0 277 -101.5t104 -269.5q0 -124 -56.5 -190t-140.5 -66q-99 0 -117 86h-2q-42 -86 -134 -86q-70 0 -109 50.5t-40 144.5q1 111 54.5 181t136.5 70q81 0 111 -73h2q9 51 12 63h93q-41 -198 -41 -290q0 -67 50 -67q45 0 75 45t30 132q0 134 -83 215t-222 81
q-153 0 -240 -98t-87 -249q0 -147 84.5 -230.5t227.5 -83.5q132 0 219 54l34 -66q-108 -63 -253 -63q-178 0 -283 104t-105 285q0 179 109.5 300.5t293.5 121.5zM435 431q-46 0 -76 -43.5t-30 -117.5q0 -54 20 -82t56 -28q44 0 73.5 44t29.5 128q0 47 -19 73t-54 26z" />
    <glyph glyph-name="A" unicode="A" horiz-adv-x="687" 
d="M491 193h-295l-66 -193h-126l259 712h161l259 -712h-126zM455 297l-19 56q-60 178 -92 283h-2q-53 -173 -91 -283l-19 -56h223z" />
    <glyph glyph-name="B" unicode="B" horiz-adv-x="638" 
d="M88 712h245q124 0 186.5 -49t62.5 -133q0 -121 -121 -166v-2q137 -32 137 -167q0 -90 -65 -142.5t-180 -52.5h-265v712zM208 613v-203h118q140 0 140 102q0 101 -134 101h-124zM208 314v-214h127q73 0 107 26t34 80t-35.5 81t-113.5 27h-119z" />
    <glyph glyph-name="C" unicode="C" horiz-adv-x="695" 
d="M359 727q128 0 206 -72t83 -187h-121q-8 71 -52.5 111.5t-115.5 40.5q-91 0 -143 -70.5t-52 -193.5t51.5 -193.5t140.5 -70.5q71 0 116.5 41t55.5 114h123q-11 -123 -89 -192.5t-206 -69.5q-147 0 -231.5 99t-84.5 272t85.5 272t233.5 99z" />
    <glyph glyph-name="D" unicode="D" horiz-adv-x="729" 
d="M88 712h228q179 0 276 -92.5t97 -263.5t-97 -263.5t-276 -92.5h-228v712zM207 608v-504h107q251 0 251 252t-251 252h-107z" />
    <glyph glyph-name="E" unicode="E" horiz-adv-x="625" 
d="M564 608h-356v-193h334v-103h-334v-208h366v-104h-486v712h476v-104z" />
    <glyph glyph-name="F" unicode="F" horiz-adv-x="579" 
d="M549 608h-341v-219h317v-103h-317v-286h-120v712h461v-104z" />
    <glyph glyph-name="G" unicode="G" horiz-adv-x="737" 
d="M370 727q126 0 202.5 -63t87.5 -170h-128q-11 61 -52.5 93.5t-109.5 32.5q-95 0 -150.5 -71.5t-55.5 -195.5q0 -125 54 -197t147 -72q84 0 132 50t49 151h-182v100h294v-385h-103v88h-2q-29 -47 -85.5 -74t-129.5 -27q-137 0 -217.5 98t-80.5 268q0 174 88.5 274
t241.5 100z" />
    <glyph glyph-name="H" unicode="H" horiz-adv-x="744" 
d="M655 0h-119v318h-328v-318h-120v712h120v-290h328v290h119v-712z" />
    <glyph glyph-name="I" unicode="I" horiz-adv-x="296" 
d="M208 0h-120v712h120v-712z" />
    <glyph glyph-name="J" unicode="J" horiz-adv-x="374" 
d="M291 712v-496q0 -113 -53.5 -167.5t-165.5 -54.5q-31 0 -57 7v103q21 -4 45 -4q58 0 84.5 30t26.5 107v475h120z" />
    <glyph glyph-name="K" unicode="K" horiz-adv-x="644" 
d="M323 373l317 -373h-155l-275 343h-2v-343h-120v712h120v-317h2l260 317h144z" />
    <glyph glyph-name="L" unicode="L" horiz-adv-x="568" 
d="M208 104h350v-104h-470v712h120v-608z" />
    <glyph glyph-name="M" unicode="M" horiz-adv-x="959" 
d="M871 0h-116v358q0 150 4 270h-2q-35 -117 -86 -268l-123 -360h-137l-123 360q-51 151 -86 268h-2q4 -120 4 -270v-358h-116v712h193l115 -339q47 -137 82 -268h2q39 139 83 268l115 339h193v-712z" />
    <glyph glyph-name="N" unicode="N" horiz-adv-x="766" 
d="M677 0h-172l-154 298l-151 306h-2q6 -162 6 -324v-280h-116v712h173l153 -298l151 -306h2q-5 180 -5 324v280h115v-712z" />
    <glyph glyph-name="O" unicode="O" horiz-adv-x="740" 
d="M370 727q153 0 241.5 -99.5t88.5 -271.5t-88.5 -271.5t-241.5 -99.5t-241.5 99.5t-88.5 271.5t88.5 271.5t241.5 99.5zM370 620q-95 0 -150.5 -71t-55.5 -193t55.5 -193t150.5 -71t150.5 71t55.5 193t-55.5 193t-150.5 71z" />
    <glyph glyph-name="P" unicode="P" horiz-adv-x="626" 
d="M88 712h257q123 0 189 -60t66 -162q0 -103 -66 -163t-189 -60h-137v-267h-120v712zM208 611v-243h123q146 0 146 122q0 121 -146 121h-123z" />
    <glyph glyph-name="Q" unicode="Q" horiz-adv-x="740" 
d="M700 356q0 -170 -87 -269l80 -89l-67 -63l-84 92q-75 -42 -171 -42q-153 0 -242 99.5t-89 271.5t89 271.5t242 99.5q152 0 240.5 -99.5t88.5 -271.5zM373 87q52 0 94 22l-97 107l69 64l96 -107q45 70 45 180q0 123 -55.5 195t-151.5 72q-97 0 -153 -72t-56 -195
t56 -194.5t153 -71.5z" />
    <glyph glyph-name="R" unicode="R" horiz-adv-x="653" 
d="M88 712h245q254 0 254 -197q0 -67 -35.5 -114t-96.5 -62v-2q38 -13 60 -41t46 -95l73 -201h-131l-60 179q-21 61 -49.5 84t-82.5 23h-103v-286h-120v712zM208 613v-229h119q72 0 106 31.5t33 87.5q0 110 -146 110h-112z" />
    <glyph glyph-name="S" unicode="S" horiz-adv-x="620" 
d="M295 727q129 0 195.5 -59.5t66.5 -174.5h-121q0 67 -37 101.5t-106 34.5q-58 0 -91.5 -25.5t-33.5 -69.5q0 -46 35 -68t128 -45q48 -12 78 -21t65.5 -26.5t55.5 -38.5t33.5 -54.5t13.5 -77.5q0 -99 -73 -158.5t-193 -59.5q-131 0 -204 64.5t-73 185.5h123
q0 -151 155 -151q66 0 103.5 29t37.5 79t-34 71t-127 44q-50 13 -78.5 21.5t-65.5 26t-56 38t-33 54t-14 76.5q0 91 68.5 147.5t181.5 56.5z" />
    <glyph glyph-name="T" unicode="T" horiz-adv-x="607" 
d="M597 608h-234v-608h-119v608h-234v104h587v-104z" />
    <glyph glyph-name="U" unicode="U" horiz-adv-x="712" 
d="M629 712v-443q0 -138 -70.5 -211t-202.5 -73t-203 73t-71 211v443h120v-439q0 -89 40 -135t114 -46t114 46t40 135v439h119z" />
    <glyph glyph-name="V" unicode="V" horiz-adv-x="631" 
d="M392 0h-152l-234 712h123l97 -297q42 -127 89 -298h2q36 137 88 298l97 297h123z" />
    <glyph glyph-name="W" unicode="W" horiz-adv-x="936" 
d="M769 0h-161l-71 296q-40 168 -68 313h-2q-28 -145 -68 -313l-71 -296h-161l-157 712h118l58 -274q39 -180 63 -321h2q37 176 72 322l66 273h158l66 -273q35 -146 72 -322h2q21 123 62 321l59 274h118z" />
    <glyph glyph-name="X" unicode="X" horiz-adv-x="626" 
d="M386 364l234 -364h-140l-166 272h-2l-166 -272h-141l235 364l-223 348h139l156 -261h2l156 261h138z" />
    <glyph glyph-name="Y" unicode="Y" horiz-adv-x="626" 
d="M373 286v-286h-120v286l-250 426h136l78 -141q50 -90 95 -184h2q48 100 96 184l77 141h135z" />
    <glyph glyph-name="Z" unicode="Z" horiz-adv-x="574" 
d="M537 603l-376 -499v-2h394v-102h-536v109l376 499v2h-362v102h504v-109z" />
    <glyph glyph-name="bracketleft" unicode="[" horiz-adv-x="313" 
d="M296 671h-115v-750h115v-70h-223v890h223v-70z" />
    <glyph glyph-name="backslash" unicode="\" horiz-adv-x="473" 
d="M145 745l298 -834h-94l-298 834h94z" />
    <glyph glyph-name="bracketright" unicode="]" horiz-adv-x="313" 
d="M240 741v-890h-223v70h115v750h-115v70h223z" />
    <glyph glyph-name="asciicircum" unicode="^" horiz-adv-x="473" 
d="M463 371h-106l-120 251h-2l-120 -251h-105l166 341h121z" />
    <glyph glyph-name="underscore" unicode="_" horiz-adv-x="500" 
d="M500 -113h-500v63h500v-63z" />
    <glyph glyph-name="grave" unicode="`" horiz-adv-x="325" 
d="M193 712l82 -144h-93l-132 144h143z" />
    <glyph glyph-name="a" unicode="a" horiz-adv-x="539" 
d="M263 523q102 0 155.5 -50t53.5 -149v-190q0 -82 13 -134h-103q-7 31 -7 71h-2q-56 -82 -171 -82q-78 0 -125 42.5t-47 108.5q0 65 44.5 104t150.5 56q64 11 137 15v20q0 105 -99 105q-46 0 -72 -24t-28 -65h-112q4 76 58.5 124t153.5 48zM362 216v25q-65 -4 -117 -13
q-55 -9 -77.5 -27t-22.5 -53q0 -34 23.5 -54.5t66.5 -20.5q58 0 92 34q20 21 27.5 44.5t7.5 64.5z" />
    <glyph glyph-name="b" unicode="b" horiz-adv-x="587" 
d="M187 442h2q22 37 61.5 58t87.5 21q97 0 154 -72.5t57 -194.5q0 -121 -57.5 -193.5t-154.5 -72.5q-48 0 -88.5 21.5t-62.5 60.5h-2v-70h-111v712h114v-270zM304 432q-56 0 -89.5 -47.5t-33.5 -130.5q0 -82 33.5 -130t89.5 -48q58 0 92 48.5t34 129.5t-34 129.5t-92 48.5z
" />
    <glyph glyph-name="c" unicode="c" horiz-adv-x="548" 
d="M285 523q96 0 158.5 -55.5t70.5 -143.5h-119q-4 50 -34 79.5t-76 29.5q-60 0 -93.5 -47.5t-33.5 -131.5t33.5 -131.5t93.5 -47.5q46 0 75.5 33t33.5 85h120q-8 -93 -70 -150.5t-159 -57.5q-113 0 -180 73t-67 196t67 196t180 73z" />
    <glyph glyph-name="d" unicode="d" horiz-adv-x="587" 
d="M514 0h-111v70h-2q-22 -39 -62.5 -60.5t-88.5 -21.5q-97 0 -154.5 72.5t-57.5 193.5q0 122 57 194.5t154 72.5q48 0 87.5 -21t61.5 -58h2v270h114v-712zM283 432q-58 0 -92 -48.5t-34 -129.5t34 -129.5t92 -48.5q56 0 89.5 48t33.5 130q0 83 -33.5 130.5t-89.5 47.5z" />
    <glyph glyph-name="e" unicode="e" horiz-adv-x="562" 
d="M284 69q48 0 78.5 23t38.5 61h117q-15 -72 -77 -120t-157 -48q-115 0 -180.5 75t-65.5 200q0 115 65.5 189t178.5 74q86 0 146.5 -46.5t81.5 -126.5q14 -45 14 -119h-373q3 -82 39.5 -122t93.5 -40zM282 439q-53 0 -87.5 -34t-41.5 -99h257q-6 65 -40.5 99t-87.5 34z" />
    <glyph glyph-name="f" unicode="f" horiz-adv-x="323" 
d="M284 632q-37 0 -55 -19.5t-18 -63.5v-41h98v-87h-98v-421h-113v421h-86v87h86v54q0 157 154 157q25 0 60 -7v-84q-14 4 -28 4z" />
    <glyph glyph-name="g" unicode="g" horiz-adv-x="582" 
d="M251 522q92 0 148 -85h2v71h108v-476q0 -112 -60.5 -168.5t-170.5 -56.5q-101 0 -157.5 42.5t-60.5 118.5h114q2 -37 30 -57t76 -20q59 0 88.5 34t29.5 111v50h-2q-55 -80 -147 -80q-97 0 -154 70t-57 188t58 188t155 70zM277 427q-55 0 -87.5 -44t-32.5 -119
t32.5 -119.5t87.5 -44.5q58 0 91.5 44.5t33.5 119.5t-33.5 119t-91.5 44z" />
    <glyph glyph-name="h" unicode="h" horiz-adv-x="588" 
d="M187 448h2q53 72 146 72q88 0 136.5 -53t48.5 -156v-311h-114v301q0 127 -103 127q-51 0 -83.5 -38t-32.5 -108v-282h-114v712h114v-264z" />
    <glyph glyph-name="i" unicode="i" horiz-adv-x="260" 
d="M187 603h-114v109h114v-109zM187 0h-114v508h114v-508z" />
    <glyph glyph-name="j" unicode="j" horiz-adv-x="264" 
d="M191 603h-114v109h114v-109zM191 508v-528q0 -88 -42.5 -129t-117.5 -41q-27 0 -58 7v85q13 -3 28 -3q39 0 57.5 21.5t18.5 74.5v513h114z" />
    <glyph glyph-name="k" unicode="k" horiz-adv-x="522" 
d="M531 0h-144l-198 246h-2v-246h-114v712h114v-412h2l185 208h133l-210 -232z" />
    <glyph glyph-name="l" unicode="l" horiz-adv-x="260" 
d="M187 0h-114v712h114v-712z" />
    <glyph glyph-name="m" unicode="m" horiz-adv-x="880" 
d="M638 520q82 0 128 -53t46 -154v-313h-114v302q0 126 -92 126q-50 0 -78.5 -40.5t-28.5 -113.5v-274h-114v314q0 54 -23.5 84t-67.5 30q-51 0 -79 -41t-28 -115v-272h-114v508h109v-61h2q54 73 141 73q110 0 150 -92q59 92 163 92z" />
    <glyph glyph-name="n" unicode="n" horiz-adv-x="588" 
d="M335 520q88 0 136.5 -53t48.5 -156v-311h-114v301q0 127 -103 127q-51 0 -83.5 -38t-32.5 -108v-282h-114v508h108v-66h2q54 78 152 78z" />
    <glyph glyph-name="o" unicode="o" horiz-adv-x="577" 
d="M289 523q115 0 182.5 -72.5t67.5 -196.5t-67.5 -196.5t-182.5 -72.5t-183 72.5t-68 196.5t68 196.5t183 72.5zM289 433q-61 0 -96 -48t-35 -131t35 -131t96 -48t96 48t35 131t-35 131t-96 48z" />
    <glyph glyph-name="p" unicode="p" horiz-adv-x="587" 
d="M337 521q97 0 154.5 -72.5t57.5 -194.5t-57 -194t-154 -72q-48 0 -87.5 20.5t-61.5 57.5h-2v-251h-114v693h111v-70h2q22 39 62.5 61t88.5 22zM304 432q-56 0 -89.5 -47.5t-33.5 -130.5q0 -82 33.5 -130t89.5 -48q58 0 92 48.5t34 129.5t-34 129.5t-92 48.5z" />
    <glyph glyph-name="q" unicode="q" horiz-adv-x="587" 
d="M250 521q48 0 88.5 -22t62.5 -61h2v70h111v-693h-114v251h-2q-22 -37 -61.5 -57.5t-87.5 -20.5q-97 0 -154 72t-57 194t57.5 194.5t154.5 72.5zM283 432q-58 0 -92 -48.5t-34 -129.5t34 -129.5t92 -48.5q56 0 89.5 48t33.5 130q0 83 -33.5 130.5t-89.5 47.5z" />
    <glyph glyph-name="r" unicode="r" horiz-adv-x="377" 
d="M326 515q20 0 42 -5v-101q-19 4 -40 4q-68 0 -104.5 -42.5t-36.5 -121.5v-249h-114v508h106v-75h2q51 82 145 82z" />
    <glyph glyph-name="s" unicode="s" horiz-adv-x="509" 
d="M248 523q98 0 151.5 -44.5t54.5 -128.5h-110q0 90 -97 90q-40 0 -62 -16t-22 -44q0 -30 23 -43t92 -30q28 -7 35.5 -9t33 -9.5t34 -13t27.5 -15.5t26.5 -20.5l18 -25.5t14 -33.5t3.5 -40.5q0 -70 -58 -112.5t-155 -42.5q-104 0 -161.5 46.5t-58.5 135.5h116
q0 -47 27.5 -72t78.5 -25q43 0 67.5 17t24.5 46q0 36 -26 50.5t-102 33.5l-37.5 9.5t-33.5 10t-34 14t-26.5 18.5t-23.5 25.5t-13 33t-6 43.5q0 68 55 110t144 42z" />
    <glyph glyph-name="t" unicode="t" horiz-adv-x="339" 
d="M277 87q22 0 35 5v-89q-31 -9 -64 -9q-81 0 -117.5 36.5t-36.5 119.5v271h-85v87h85v127h114v-127h99v-87h-99v-254q0 -43 16 -61.5t53 -18.5z" />
    <glyph glyph-name="u" unicode="u" horiz-adv-x="588" 
d="M253 -12q-88 0 -136.5 53t-48.5 156v311h114v-301q0 -127 103 -127q51 0 83.5 38t32.5 108v282h114v-508h-108v66h-2q-54 -78 -152 -78z" />
    <glyph glyph-name="v" unicode="v" horiz-adv-x="490" 
d="M319 0h-148l-177 508h119l66 -207q33 -101 65 -222h2q32 121 65 222l66 207h119z" />
    <glyph glyph-name="w" unicode="w" horiz-adv-x="790" 
d="M660 0h-163l-52 210q-24 97 -49 219h-2q-25 -122 -49 -219l-52 -210h-163l-124 508h114l46 -204q28 -120 46 -225h2q19 93 50 221l51 208h160l51 -208q31 -128 50 -221h2q18 105 46 225l46 204h114z" />
    <glyph glyph-name="x" unicode="x" horiz-adv-x="494" 
d="M317 263l181 -263h-134l-116 188h-2l-116 -188h-134l181 263l-168 245h133l104 -165h2l104 165h133z" />
    <glyph glyph-name="y" unicode="y" horiz-adv-x="488" 
d="M494 508l-196 -530q-36 -96 -84.5 -132t-137.5 -36q-31 0 -57 7v93q23 -7 48 -7q46 0 70.5 20t42.5 73l-186 512h122l127 -378h2l131 378h118z" />
    <glyph glyph-name="z" unicode="z" horiz-adv-x="476" 
d="M439 413l-274 -320v-2h284v-91h-422v95l274 320v2h-264v91h402v-95z" />
    <glyph glyph-name="braceleft" unicode="{" horiz-adv-x="320" 
d="M295 741v-68q-46 -2 -65 -23t-19 -72v-154q0 -54 -20.5 -84t-68.5 -43v-3q48 -14 68.5 -43.5t20.5 -84.5v-153q0 -52 19 -73t65 -22v-69h-23q-90 0 -128 40t-38 130v145q0 44 -14.5 64t-51.5 30v74q38 11 52 31.5t14 63.5v145q0 90 38 129.5t128 39.5h23z" />
    <glyph glyph-name="bar" unicode="|" horiz-adv-x="283" 
d="M193 -205h-103v937h103v-937z" />
    <glyph glyph-name="braceright" unicode="}" horiz-adv-x="320" 
d="M24 741h24q90 0 127.5 -39.5t37.5 -129.5v-145q0 -43 14.5 -63.5t52.5 -31.5v-74q-38 -10 -52.5 -30.5t-14.5 -63.5v-145q0 -90 -37.5 -130t-127.5 -40h-24v69q46 1 65 22t19 73v153q0 54 21 84t68 44v3q-47 14 -68 43.5t-21 83.5v154q0 51 -19 72t-65 23v68z" />
    <glyph glyph-name="asciitilde" unicode="~" horiz-adv-x="589" 
d="M181 414q35 0 69.5 -16t56.5 -36t50 -36t52 -16q35 0 56.5 26t21.5 69h77q0 -83 -43.5 -134.5t-112.5 -51.5q-45 0 -86.5 26t-77 52t-65.5 26q-35 0 -56.5 -25.5t-21.5 -68.5h-76q0 83 43.5 134t112.5 51z" />
    <glyph glyph-name="nbspace" unicode="&#xa0;" horiz-adv-x="230" 
 />
    <glyph glyph-name="exclamdown" unicode="&#xa1;" horiz-adv-x="300" 
d="M85 508h129v-119h-129v119zM105 321h89l26 -525h-141z" />
    <glyph glyph-name="cent" unicode="&#xa2;" 
d="M334 507v-347q32 10 52 40t23 72h120q-8 -85 -60 -140.5t-135 -65.5v-91h-72v91q-97 12 -153 83t-56 184q0 112 56 183t153 84v89h72v-89q82 -10 134.5 -64t60.5 -134h-119q-8 83 -76 105zM172 333q0 -69 23.5 -114t66.5 -59v346q-43 -14 -66.5 -59t-23.5 -114z" />
    <glyph glyph-name="sterling" unicode="&#xa3;" 
d="M179 96h363v-96h-518v97q47 0 70 31t23 102v55h-93v97h93v78q0 114 56.5 171.5t164.5 57.5q98 0 154 -56.5t56 -154.5h-115q0 54 -25 82.5t-70 28.5q-102 0 -102 -129v-78h124v-97h-124v-54q0 -54 -13 -83.5t-44 -49.5v-2z" />
    <glyph glyph-name="currency" unicode="&#xa4;" 
d="M507 291q0 -70 -33 -123l74 -78l-73 -68l-73 79q-46 -27 -111 -27q-63 0 -112 26l-73 -78l-72 68l73 78q-33 53 -33 123t33 123l-73 78l72 68l73 -78q49 26 112 26q65 0 111 -27l73 79l73 -68l-74 -78q33 -53 33 -123zM291 164q55 0 87.5 35t32.5 92t-32.5 92t-87.5 35
t-88 -35t-33 -92t33 -92t88 -35z" />
    <glyph glyph-name="yen" unicode="&#xa5;" 
d="M388 354h129v-65h-166v-48h166v-64h-166v-177h-121v177h-166v64h166v48h-166v65h129l-182 320h134l53 -99q50 -96 92 -185h2q37 83 91 185l53 99h134z" />
    <glyph glyph-name="brokenbar" unicode="&#xa6;" horiz-adv-x="283" 
d="M193 382h-103v350h103v-350zM193 -205h-103v350h103v-350z" />
    <glyph glyph-name="section" unicode="&#xa7;" horiz-adv-x="612" 
d="M303 727q196 0 205 -179h-115q-3 85 -90 85q-36 0 -57.5 -17t-21.5 -47q0 -34 21.5 -49.5t102.5 -48.5q56 -23 86.5 -38.5t60 -39t41.5 -54t12 -72.5q0 -92 -86 -146v-2q48 -37 48 -108q0 -77 -55.5 -120.5t-149.5 -43.5q-101 0 -158 45.5t-59 135.5h115q6 -87 100 -87
q40 0 64 18.5t24 51.5q0 36 -26.5 55.5t-119.5 59.5q-96 42 -138.5 81t-42.5 112q0 94 86 146v2q-45 37 -45 100q0 72 55.5 116t142.5 44zM221 415q-46 -30 -46 -79q0 -38 25.5 -64t98.5 -58q36 -14 92 -43q47 29 47 83q0 36 -24.5 62t-93.5 55q-49 20 -99 44z" />
    <glyph glyph-name="dieresis" unicode="&#xa8;" horiz-adv-x="408" 
d="M152 603h-102v109h102v-109zM358 603h-102v109h102v-109z" />
    <glyph glyph-name="copyright" unicode="&#xa9;" horiz-adv-x="806" 
d="M403 725q162 0 260.5 -101.5t98.5 -267.5t-98.5 -267.5t-260.5 -101.5q-161 0 -260 101.5t-99 267.5t99 267.5t260 101.5zM403 674q-139 0 -224 -87.5t-85 -230.5t85 -230.5t224 -87.5q140 0 225 87.5t85 230.5t-85 230.5t-225 87.5zM405 593q84 0 134.5 -46.5
t54.5 -122.5h-85q-4 44 -31.5 70.5t-72.5 26.5q-55 0 -87 -44.5t-32 -121.5q0 -76 31.5 -120t85.5 -44q45 0 74 27t34 73h86q-7 -80 -59 -126t-135 -46q-94 0 -148.5 63t-54.5 173q0 111 55 174.5t150 63.5z" />
    <glyph glyph-name="ordfeminine" unicode="&#xaa;" horiz-adv-x="402" 
d="M196 696q158 0 158 -142v-126q0 -58 10 -98h-88q-6 22 -6 48h-1q-41 -56 -122 -56q-58 0 -92 30t-34 78q0 47 33 74t112 39q64 9 93 10v14q0 65 -63 65q-62 0 -64 -57h-96q3 53 43.5 87t116.5 34zM259 480v16q-33 -2 -76 -9q-35 -6 -49.5 -18t-14.5 -33q0 -22 15 -35
t42 -13q39 0 60 22q23 22 23 70z" />
    <glyph glyph-name="guillemetleft" unicode="&#xab;" horiz-adv-x="498" 
d="M153 254l109 -200h-102l-114 200l114 200h102zM342 254l110 -200h-102l-114 200l114 200h102z" />
    <glyph glyph-name="logicalnot" unicode="&#xac;" horiz-adv-x="566" 
d="M499 136h-91v230h-341v92h432v-322z" />
    <glyph glyph-name="softhyphen" unicode="&#xad;" horiz-adv-x="310" 
d="M280 245h-250v94h250v-94z" />
    <glyph glyph-name="registered" unicode="&#xae;" horiz-adv-x="589" 
d="M295 727q112 0 180.5 -70.5t68.5 -186.5t-68.5 -186t-180.5 -70q-113 0 -181.5 70.5t-68.5 185.5q0 116 69 186.5t181 70.5zM295 692q-97 0 -156 -61t-59 -161t59 -161t156 -61t156 61t59 161t-59 161t-156 61zM179 633h122q54 0 81.5 -24t27.5 -67q0 -27 -15.5 -48.5
t-41.5 -28.5v-2q27 -6 45 -53l33 -94h-65l-27 79q-7 24 -20.5 34t-37.5 10h-41v-123h-61v317zM240 582v-93h46q63 0 63 49q0 44 -60 44h-49z" />
    <glyph glyph-name="macron" unicode="&#xaf;" horiz-adv-x="405" 
d="M355 607h-305v78h305v-78z" />
    <glyph glyph-name="degree" unicode="&#xb0;" horiz-adv-x="329" 
d="M165 722q53 0 90 -37.5t37 -90.5q0 -52 -37 -89.5t-90 -37.5t-90.5 37t-37.5 90t37.5 90.5t90.5 37.5zM165 660q-28 0 -47 -19t-19 -47q0 -27 19 -46t47 -19q27 0 46.5 19t19.5 46q0 28 -19.5 47t-46.5 19z" />
    <glyph glyph-name="plusminus" unicode="&#xb1;" horiz-adv-x="566" 
d="M328 396h171v-91h-171v-164h-90v164h-171v91h171v163h90v-163zM499 0h-432v91h432v-91z" />
    <glyph glyph-name="twosuperior" unicode="&#xb2;" horiz-adv-x="439" 
d="M221 813q78 0 125 -38.5t47 -99.5q0 -57 -33 -92.5t-98 -69.5q-65 -33 -86.5 -54t-22.5 -46h252v-83h-367q-2 6 -2 20q0 74 29.5 121t112.5 92q60 32 85 54.5t25 56.5q0 26 -18 42t-49 16q-73 0 -76 -77h-102q1 75 48.5 116.5t129.5 41.5z" />
    <glyph glyph-name="threesuperior" unicode="&#xb3;" horiz-adv-x="433" 
d="M216 813q81 0 128 -36t47 -97q0 -39 -20 -64t-64 -42v-2q47 -16 69 -43t22 -71q0 -63 -49.5 -101t-131.5 -38q-90 0 -138.5 42.5t-48.5 119.5h103q0 -81 84 -81q35 0 56.5 17t21.5 45q0 67 -98 67h-15v78h17q42 0 66.5 17t24.5 47q0 28 -20.5 44.5t-55.5 16.5
q-77 0 -77 -78h-101q0 75 47.5 117t132.5 42z" />
    <glyph glyph-name="acute" unicode="&#xb4;" horiz-adv-x="325" 
d="M143 568h-93l81 144h144z" />
    <glyph glyph-name="micro" unicode="&#xb5;" horiz-adv-x="598" 
d="M517 508v-352q0 -41 10.5 -56.5t34.5 -15.5q12 0 24 3v-84q-29 -10 -72 -10q-87 0 -102 81h-2q-16 -38 -51 -59.5t-81 -21.5q-61 0 -91 32v-210h-114v693h114v-300q0 -128 100 -128q51 0 83.5 38.5t32.5 108.5v281h114z" />
    <glyph glyph-name="paragraph" unicode="&#xb6;" horiz-adv-x="622" 
d="M599 633h-80v-753h-85v753h-84v-753h-85v419h-28q-91 0 -144 55.5t-53 150.5t53 151t144 56h362v-79z" />
    <glyph glyph-name="periodcentered" unicode="&#xb7;" horiz-adv-x="242" 
d="M187 235h-132v141h132v-141z" />
    <glyph glyph-name="cedilla" unicode="&#xb8;" horiz-adv-x="326" 
d="M203 0l-39 -62q9 4 29 4q35 0 59 -20t24 -54q0 -39 -30.5 -65t-86.5 -26q-57 0 -109 29l20 40q39 -21 79 -21q53 0 53 38q0 18 -13.5 29t-37.5 11q-17 0 -32 -6l-19 21l52 82h51z" />
    <glyph glyph-name="onesuperior" unicode="&#xb9;" horiz-adv-x="300" 
d="M233 330h-102v317h-120v74q64 0 95 19t38 62h89v-472z" />
    <glyph glyph-name="ordmasculine" unicode="&#xba;" horiz-adv-x="427" 
d="M214 696q85 0 135.5 -51t50.5 -137q0 -87 -50 -138t-136 -51t-136.5 51t-50.5 138q0 86 50.5 137t136.5 51zM214 620q-39 0 -61.5 -30t-22.5 -82t22.5 -82.5t61.5 -30.5t61 30t22 83t-22 82.5t-61 29.5z" />
    <glyph glyph-name="guillemetright" unicode="&#xbb;" horiz-adv-x="498" 
d="M148 454l114 -200l-114 -200h-102l109 200l-109 200h102zM338 454l114 -200l-114 -200h-102l109 200l-109 200h102z" />
    <glyph glyph-name="onequarter" unicode="&#xbc;" horiz-adv-x="761" 
d="M108 535h-99v69q94 0 110 70h85v-404h-96v265zM561 674l-376 -674h-83l377 674h82zM752 88h-67v-88h-93v88h-197v77l167 239h123v-242h67v-74zM480 162h116v46q0 65 3 128h-1q-40 -65 -78 -118z" />
    <glyph glyph-name="onehalf" unicode="&#xbd;" horiz-adv-x="792" 
d="M204 270h-96v265h-99v69q94 0 110 70h85v-404zM185 0h-83l377 674h82zM601 414q69 0 110 -33.5t41 -86.5q0 -49 -29.5 -81t-84.5 -58q-54 -26 -72.5 -42.5t-20.5 -36.5h219v-76h-326q-1 6 -1 19q0 65 26 105.5t98 78.5q28 15 40.5 22.5t28 19t21 23.5t5.5 27
q0 20 -15 32.5t-40 12.5q-60 0 -62 -64h-95q1 65 42.5 101.5t114.5 36.5z" />
    <glyph glyph-name="threequarters" unicode="&#xbe;" horiz-adv-x="885" 
d="M352 379q0 -55 -43 -87t-117 -32q-79 0 -122.5 36.5t-43.5 103.5h95q0 -65 71 -65q30 0 48 13.5t18 35.5q0 54 -82 54h-14v71h13q35 0 56.5 14.5t21.5 39.5q0 21 -17 34t-46 13q-66 0 -66 -62h-93q0 64 42.5 100t116.5 36q72 0 114 -31.5t42 -83.5q0 -63 -71 -90v-1
q40 -13 58.5 -37t18.5 -62zM685 674l-376 -674h-83l377 674h82zM876 88h-67v-88h-93v88h-197v77l167 239h123v-242h67v-74zM604 162h116v46q0 65 3 128h-1q-40 -65 -78 -118z" />
    <glyph glyph-name="questiondown" unicode="&#xbf;" horiz-adv-x="500" 
d="M216 508h129v-119h-129v119zM263 -218q-103 0 -164 49.5t-61 133.5q0 53 20.5 89t82.5 88q56 47 72.5 82t16.5 108h99v-31q0 -75 -19 -115.5t-79 -94.5q-46 -41 -59.5 -64.5t-13.5 -58.5q0 -39 28 -62.5t77 -23.5q112 0 118 115h119q-4 -106 -65 -160.5t-172 -54.5z" />
    <glyph glyph-name="Agrave" unicode="&#xc0;" horiz-adv-x="687" 
d="M327 760l-132 142h143l82 -142h-93zM491 193h-295l-66 -193h-126l259 712h161l259 -712h-126zM455 297l-19 56q-60 178 -92 283h-2q-53 -173 -91 -283l-19 -56h223z" />
    <glyph glyph-name="Aacute" unicode="&#xc1;" horiz-adv-x="687" 
d="M360 760h-93l81 142h144zM491 193h-295l-66 -193h-126l259 712h161l259 -712h-126zM455 297l-19 56q-60 178 -92 283h-2q-53 -173 -91 -283l-19 -56h223z" />
    <glyph glyph-name="Acircumflex" unicode="&#xc2;" horiz-adv-x="687" 
d="M276 760h-108l114 142h123l114 -142h-108l-68 82zM491 193h-295l-66 -193h-126l259 712h161l259 -712h-126zM455 297l-19 56q-60 178 -92 283h-2q-53 -173 -91 -283l-19 -56h223z" />
    <glyph glyph-name="Atilde" unicode="&#xc3;" horiz-adv-x="687" 
d="M277 823q-40 0 -46 -49h-68q3 59 32 92t78 33q34 0 76 -24t60 -24q41 0 46 48h68q-3 -59 -31.5 -92t-77.5 -33q-34 0 -76 24.5t-61 24.5zM491 193h-295l-66 -193h-126l259 712h161l259 -712h-126zM455 297l-19 56q-60 178 -92 283h-2q-53 -173 -91 -283l-19 -56h223z" />
    <glyph glyph-name="Adieresis" unicode="&#xc4;" horiz-adv-x="687" 
d="M291 772h-102v109h102v-109zM497 772h-102v109h102v-109zM491 193h-295l-66 -193h-126l259 712h161l259 -712h-126zM455 297l-19 56q-60 178 -92 283h-2q-53 -173 -91 -283l-19 -56h223z" />
    <glyph glyph-name="Aring" unicode="&#xc5;" horiz-adv-x="687" 
d="M343 751q-43 0 -73.5 30.5t-30.5 73.5t30.5 73.5t73.5 30.5t73.5 -30.5t30.5 -73.5t-30.5 -73.5t-73.5 -30.5zM343 911q-23 0 -39.5 -16.5t-16.5 -39.5t16.5 -39.5t39.5 -16.5t39.5 16.5t16.5 39.5t-16.5 39.5t-39.5 16.5zM491 193h-295l-66 -193h-126l259 712h161
l259 -712h-126zM455 297l-19 56q-60 178 -92 283h-2q-53 -173 -91 -283l-19 -56h223z" />
    <glyph glyph-name="AE" unicode="&#xc6;" horiz-adv-x="951" 
d="M900 104v-104h-385l-30 202h-264l-92 -202h-135l340 712h556v-104h-348l28 -193h298v-103h-283l31 -208h284zM470 304l-45 310h-15l-142 -310h202z" />
    <glyph glyph-name="Ccedilla" unicode="&#xc7;" horiz-adv-x="695" 
d="M528 247h123q-10 -114 -79 -183t-184 -78l-30 -48q9 4 29 4q35 0 59 -20t24 -54q0 -39 -30.5 -65t-86.5 -26q-57 0 -109 29l20 40q39 -21 79 -21q53 0 53 38q0 18 -13.5 29t-37.5 11q-17 0 -32 -6l-19 21l43 67q-139 7 -218 105.5t-79 265.5q0 173 85.5 272t233.5 99
q128 0 206 -72t83 -187h-121q-8 71 -52.5 111.5t-115.5 40.5q-91 0 -143 -70.5t-52 -193.5t51.5 -193.5t140.5 -70.5q71 0 116.5 41t55.5 114z" />
    <glyph glyph-name="Egrave" unicode="&#xc8;" horiz-adv-x="625" 
d="M320 902l82 -142h-93l-132 142h143zM564 608h-356v-193h334v-103h-334v-208h366v-104h-486v712h476v-104z" />
    <glyph glyph-name="Eacute" unicode="&#xc9;" horiz-adv-x="625" 
d="M343 760h-93l81 142h144zM564 608h-356v-193h334v-103h-334v-208h366v-104h-486v712h476v-104z" />
    <glyph glyph-name="Ecircumflex" unicode="&#xca;" horiz-adv-x="625" 
d="M264 902h123l114 -142h-108l-68 82l-67 -82h-108zM564 608h-356v-193h334v-103h-334v-208h366v-104h-486v712h476v-104z" />
    <glyph glyph-name="Edieresis" unicode="&#xcb;" horiz-adv-x="625" 
d="M274 772h-102v109h102v-109zM480 772h-102v109h102v-109zM564 608h-356v-193h334v-103h-334v-208h366v-104h-486v712h476v-104z" />
    <glyph glyph-name="Igrave" unicode="&#xcc;" horiz-adv-x="296" 
d="M143 902l82 -142h-93l-132 142h143zM208 0h-120v712h120v-712z" />
    <glyph glyph-name="Iacute" unicode="&#xcd;" horiz-adv-x="296" 
d="M166 760h-93l81 142h144zM208 0h-120v712h120v-712z" />
    <glyph glyph-name="Icircumflex" unicode="&#xce;" horiz-adv-x="296" 
d="M87 902h123l114 -142h-108l-68 82l-67 -82h-108zM208 0h-120v712h120v-712z" />
    <glyph glyph-name="Idieresis" unicode="&#xcf;" horiz-adv-x="296" 
d="M96 772h-102v109h102v-109zM302 772h-102v109h102v-109zM208 0h-120v712h120v-712z" />
    <glyph glyph-name="Eth" unicode="&#xd0;" horiz-adv-x="729" 
d="M88 712h228q179 0 276 -92.5t97 -263.5t-97 -263.5t-276 -92.5h-228v316h-64v89h64v307zM207 104h107q251 0 251 252t-251 252h-107v-203h184v-89h-184v-212z" />
    <glyph glyph-name="Ntilde" unicode="&#xd1;" horiz-adv-x="766" 
d="M495 899h68q-3 -59 -31.5 -92t-77.5 -33q-34 0 -76 24.5t-61 24.5q-40 0 -46 -49h-68q3 59 32 92t78 33q34 0 76 -24t60 -24q41 0 46 48zM677 0h-172l-154 298l-151 306h-2q6 -162 6 -324v-280h-116v712h173l153 -298l151 -306h2q-5 180 -5 324v280h115v-712z" />
    <glyph glyph-name="Ograve" unicode="&#xd2;" horiz-adv-x="740" 
d="M364 902l82 -142h-93l-132 142h143zM370 727q153 0 241.5 -99.5t88.5 -271.5t-88.5 -271.5t-241.5 -99.5t-241.5 99.5t-88.5 271.5t88.5 271.5t241.5 99.5zM370 620q-95 0 -150.5 -71t-55.5 -193t55.5 -193t150.5 -71t150.5 71t55.5 193t-55.5 193t-150.5 71z" />
    <glyph glyph-name="Oacute" unicode="&#xd3;" horiz-adv-x="740" 
d="M387 760h-93l81 142h144zM370 727q153 0 241.5 -99.5t88.5 -271.5t-88.5 -271.5t-241.5 -99.5t-241.5 99.5t-88.5 271.5t88.5 271.5t241.5 99.5zM370 620q-95 0 -150.5 -71t-55.5 -193t55.5 -193t150.5 -71t150.5 71t55.5 193t-55.5 193t-150.5 71z" />
    <glyph glyph-name="Ocircumflex" unicode="&#xd4;" horiz-adv-x="740" 
d="M308 902h123l114 -142h-108l-68 82l-67 -82h-108zM370 727q153 0 241.5 -99.5t88.5 -271.5t-88.5 -271.5t-241.5 -99.5t-241.5 99.5t-88.5 271.5t88.5 271.5t241.5 99.5zM370 620q-95 0 -150.5 -71t-55.5 -193t55.5 -193t150.5 -71t150.5 71t55.5 193t-55.5 193
t-150.5 71z" />
    <glyph glyph-name="Otilde" unicode="&#xd5;" horiz-adv-x="740" 
d="M482 899h68q-3 -59 -31.5 -92t-77.5 -33q-34 0 -76 24.5t-61 24.5q-40 0 -46 -49h-68q3 59 32 92t78 33q34 0 76 -24t60 -24q42 0 46 48zM370 727q153 0 241.5 -99.5t88.5 -271.5t-88.5 -271.5t-241.5 -99.5t-241.5 99.5t-88.5 271.5t88.5 271.5t241.5 99.5zM370 620
q-95 0 -150.5 -71t-55.5 -193t55.5 -193t150.5 -71t150.5 71t55.5 193t-55.5 193t-150.5 71z" />
    <glyph glyph-name="Odieresis" unicode="&#xd6;" horiz-adv-x="740" 
d="M318 772h-102v109h102v-109zM524 772h-102v109h102v-109zM370 727q153 0 241.5 -99.5t88.5 -271.5t-88.5 -271.5t-241.5 -99.5t-241.5 99.5t-88.5 271.5t88.5 271.5t241.5 99.5zM370 620q-95 0 -150.5 -71t-55.5 -193t55.5 -193t150.5 -71t150.5 71t55.5 193t-55.5 193
t-150.5 71z" />
    <glyph glyph-name="multiply" unicode="&#xd7;" horiz-adv-x="566" 
d="M536 495l-189 -188l189 -189l-64 -64l-189 189l-188 -189l-65 64l189 189l-189 188l65 64l188 -188l189 188z" />
    <glyph glyph-name="Oslash" unicode="&#xd8;" horiz-adv-x="740" 
d="M677 707l-62 -83q85 -99 85 -268q0 -172 -88.5 -271.5t-241.5 -99.5q-113 0 -192 56l-59 -79l-56 44l62 83q-85 99 -85 267q0 172 88.5 271.5t241.5 99.5q112 0 193 -56l59 79zM160 356q0 -103 38 -170l298 396q-52 43 -126 43q-97 0 -153.5 -72t-56.5 -197zM370 87
q97 0 153.5 72t56.5 197q0 103 -38 170l-297 -396q51 -43 125 -43z" />
    <glyph glyph-name="Ugrave" unicode="&#xd9;" horiz-adv-x="712" 
d="M350 902l82 -142h-93l-132 142h143zM629 712v-443q0 -138 -70.5 -211t-202.5 -73t-203 73t-71 211v443h120v-439q0 -89 40 -135t114 -46t114 46t40 135v439h119z" />
    <glyph glyph-name="Uacute" unicode="&#xda;" horiz-adv-x="712" 
d="M373 760h-93l81 142h144zM629 712v-443q0 -138 -70.5 -211t-202.5 -73t-203 73t-71 211v443h120v-439q0 -89 40 -135t114 -46t114 46t40 135v439h119z" />
    <glyph glyph-name="Ucircumflex" unicode="&#xdb;" horiz-adv-x="712" 
d="M294 902h123l114 -142h-108l-68 82l-67 -82h-108zM629 712v-443q0 -138 -70.5 -211t-202.5 -73t-203 73t-71 211v443h120v-439q0 -89 40 -135t114 -46t114 46t40 135v439h119z" />
    <glyph glyph-name="Udieresis" unicode="&#xdc;" horiz-adv-x="712" 
d="M304 772h-102v109h102v-109zM510 772h-102v109h102v-109zM629 712v-443q0 -138 -70.5 -211t-202.5 -73t-203 73t-71 211v443h120v-439q0 -89 40 -135t114 -46t114 46t40 135v439h119z" />
    <glyph glyph-name="Yacute" unicode="&#xdd;" horiz-adv-x="626" 
d="M330 760h-93l81 142h144zM373 286v-286h-120v286l-250 426h136l78 -141q50 -90 95 -184h2q48 100 96 184l77 141h135z" />
    <glyph glyph-name="Thorn" unicode="&#xde;" horiz-adv-x="626" 
d="M208 589h137q123 0 189 -60t66 -163t-66 -162.5t-189 -59.5h-137v-144h-120v712h120v-123zM208 488v-243h123q146 0 146 121q0 122 -146 122h-123z" />
    <glyph glyph-name="germandbls" unicode="&#xdf;" horiz-adv-x="566" 
d="M288 727q95 0 151.5 -47.5t56.5 -126.5q0 -117 -118 -155v-2q73 -14 112.5 -62.5t39.5 -127.5q0 -99 -62.5 -155t-165.5 -56q-26 0 -51 5v94q10 -3 31 -3q63 0 96.5 32t33.5 94q0 60 -35 94t-99 34h-13v96q121 0 121 101q0 44 -25.5 68.5t-70.5 24.5q-103 0 -103 -133
v-502h-114v510q0 103 56.5 160t158.5 57z" />
    <glyph glyph-name="agrave" unicode="&#xe0;" horiz-adv-x="539" 
d="M251 712l82 -144h-93l-132 144h143zM263 523q102 0 155.5 -50t53.5 -149v-190q0 -82 13 -134h-103q-7 31 -7 71h-2q-56 -82 -171 -82q-78 0 -125 42.5t-47 108.5q0 65 44.5 104t150.5 56q64 11 137 15v20q0 105 -99 105q-46 0 -72 -24t-28 -65h-112q4 76 58.5 124
t153.5 48zM362 216v25q-65 -4 -117 -13q-55 -9 -77.5 -27t-22.5 -53q0 -34 23.5 -54.5t66.5 -20.5q58 0 92 34q20 21 27.5 44.5t7.5 64.5z" />
    <glyph glyph-name="aacute" unicode="&#xe1;" horiz-adv-x="539" 
d="M274 568h-93l81 144h144zM263 523q102 0 155.5 -50t53.5 -149v-190q0 -82 13 -134h-103q-7 31 -7 71h-2q-56 -82 -171 -82q-78 0 -125 42.5t-47 108.5q0 65 44.5 104t150.5 56q64 11 137 15v20q0 105 -99 105q-46 0 -72 -24t-28 -65h-112q4 76 58.5 124t153.5 48z
M362 216v25q-65 -4 -117 -13q-55 -9 -77.5 -27t-22.5 -53q0 -34 23.5 -54.5t66.5 -20.5q58 0 92 34q20 21 27.5 44.5t7.5 64.5z" />
    <glyph glyph-name="acircumflex" unicode="&#xe2;" horiz-adv-x="539" 
d="M324 568l-67 84l-68 -84h-108l114 144h123l114 -144h-108zM263 523q102 0 155.5 -50t53.5 -149v-190q0 -82 13 -134h-103q-7 31 -7 71h-2q-56 -82 -171 -82q-78 0 -125 42.5t-47 108.5q0 65 44.5 104t150.5 56q64 11 137 15v20q0 105 -99 105q-46 0 -72 -24t-28 -65h-112
q4 76 58.5 124t153.5 48zM362 216v25q-65 -4 -117 -13q-55 -9 -77.5 -27t-22.5 -53q0 -34 23.5 -54.5t66.5 -20.5q58 0 92 34q20 21 27.5 44.5t7.5 64.5z" />
    <glyph glyph-name="atilde" unicode="&#xe3;" horiz-adv-x="539" 
d="M369 709h68q-3 -59 -31.5 -92t-77.5 -33q-34 0 -76 24t-61 24q-40 0 -46 -48h-68q3 59 32 92t78 33q34 0 76 -24.5t60 -24.5q41 0 46 49zM263 523q102 0 155.5 -50t53.5 -149v-190q0 -82 13 -134h-103q-7 31 -7 71h-2q-56 -82 -171 -82q-78 0 -125 42.5t-47 108.5
q0 65 44.5 104t150.5 56q64 11 137 15v20q0 105 -99 105q-46 0 -72 -24t-28 -65h-112q4 76 58.5 124t153.5 48zM362 216v25q-65 -4 -117 -13q-55 -9 -77.5 -27t-22.5 -53q0 -34 23.5 -54.5t66.5 -20.5q58 0 92 34q20 21 27.5 44.5t7.5 64.5z" />
    <glyph glyph-name="adieresis" unicode="&#xe4;" horiz-adv-x="539" 
d="M205 603h-102v109h102v-109zM411 603h-102v109h102v-109zM263 523q102 0 155.5 -50t53.5 -149v-190q0 -82 13 -134h-103q-7 31 -7 71h-2q-56 -82 -171 -82q-78 0 -125 42.5t-47 108.5q0 65 44.5 104t150.5 56q64 11 137 15v20q0 105 -99 105q-46 0 -72 -24t-28 -65h-112
q4 76 58.5 124t153.5 48zM362 216v25q-65 -4 -117 -13q-55 -9 -77.5 -27t-22.5 -53q0 -34 23.5 -54.5t66.5 -20.5q58 0 92 34q20 21 27.5 44.5t7.5 64.5z" />
    <glyph glyph-name="aring" unicode="&#xe5;" horiz-adv-x="539" 
d="M257 769q43 0 73.5 -30.5t30.5 -73.5t-30.5 -73.5t-73.5 -30.5t-73.5 30.5t-30.5 73.5t30.5 73.5t73.5 30.5zM257 721q-23 0 -39.5 -16.5t-16.5 -39.5t16.5 -39.5t39.5 -16.5t39.5 16.5t16.5 39.5t-16.5 39.5t-39.5 16.5zM263 523q102 0 155.5 -50t53.5 -149v-190
q0 -82 13 -134h-103q-7 31 -7 71h-2q-56 -82 -171 -82q-78 0 -125 42.5t-47 108.5q0 65 44.5 104t150.5 56q64 11 137 15v20q0 105 -99 105q-46 0 -72 -24t-28 -65h-112q4 76 58.5 124t153.5 48zM362 216v25q-65 -4 -117 -13q-55 -9 -77.5 -27t-22.5 -53q0 -34 23.5 -54.5
t66.5 -20.5q58 0 92 34q20 21 27.5 44.5t7.5 64.5z" />
    <glyph glyph-name="ae" unicode="&#xe6;" horiz-adv-x="871" 
d="M600 69q45 0 74 23t36 61h117q-13 -72 -73.5 -120t-153.5 -48q-123 0 -185 98q-60 -98 -196 -98q-86 0 -137.5 43.5t-51.5 111.5q0 163 245 163h94v32q0 105 -102 105q-48 0 -74.5 -24t-28.5 -65h-113q5 76 60.5 124t155.5 48q117 0 168 -69q63 69 163 69
q83 0 142.5 -46.5t80.5 -126.5q12 -48 12 -119h-359q2 -82 36.5 -122t89.5 -40zM598 439q-51 0 -83.5 -35t-39.5 -101h244q-4 66 -37 101t-84 35zM369 231h-81q-79 0 -111 -20.5t-32 -62.5q0 -36 24.5 -57.5t67.5 -21.5q61 0 95 36q21 21 29 45t8 66v15z" />
    <glyph glyph-name="ccedilla" unicode="&#xe7;" horiz-adv-x="548" 
d="M285 75q46 0 75.5 33t33.5 85h120q-7 -85 -60 -141t-137 -65l-31 -49q9 4 29 4q35 0 59 -20t24 -54q0 -39 -30.5 -65t-86.5 -26q-57 0 -109 29l20 40q39 -21 79 -21q53 0 53 38q0 18 -13.5 29t-37.5 11q-17 0 -32 -6l-19 21l43 68q-105 7 -166 78.5t-61 189.5
q0 123 67 196t180 73q96 0 158.5 -55.5t70.5 -143.5h-119q-4 50 -34 79.5t-76 29.5q-60 0 -93.5 -47.5t-33.5 -131.5t33.5 -131.5t93.5 -47.5z" />
    <glyph glyph-name="egrave" unicode="&#xe8;" horiz-adv-x="562" 
d="M264 568l-132 144h143l82 -144h-93zM284 69q48 0 78.5 23t38.5 61h117q-15 -72 -77 -120t-157 -48q-115 0 -180.5 75t-65.5 200q0 115 65.5 189t178.5 74q86 0 146.5 -46.5t81.5 -126.5q14 -45 14 -119h-373q3 -82 39.5 -122t93.5 -40zM282 439q-53 0 -87.5 -34
t-41.5 -99h257q-6 65 -40.5 99t-87.5 34z" />
    <glyph glyph-name="eacute" unicode="&#xe9;" horiz-adv-x="562" 
d="M297 568h-93l81 144h144zM284 69q48 0 78.5 23t38.5 61h117q-15 -72 -77 -120t-157 -48q-115 0 -180.5 75t-65.5 200q0 115 65.5 189t178.5 74q86 0 146.5 -46.5t81.5 -126.5q14 -45 14 -119h-373q3 -82 39.5 -122t93.5 -40zM282 439q-53 0 -87.5 -34t-41.5 -99h257
q-6 65 -40.5 99t-87.5 34z" />
    <glyph glyph-name="ecircumflex" unicode="&#xea;" horiz-adv-x="562" 
d="M213 568h-108l114 144h123l114 -144h-108l-67 84zM284 69q48 0 78.5 23t38.5 61h117q-15 -72 -77 -120t-157 -48q-115 0 -180.5 75t-65.5 200q0 115 65.5 189t178.5 74q86 0 146.5 -46.5t81.5 -126.5q14 -45 14 -119h-373q3 -82 39.5 -122t93.5 -40zM282 439
q-53 0 -87.5 -34t-41.5 -99h257q-6 65 -40.5 99t-87.5 34z" />
    <glyph glyph-name="edieresis" unicode="&#xeb;" horiz-adv-x="562" 
d="M228 603h-102v109h102v-109zM434 603h-102v109h102v-109zM284 69q48 0 78.5 23t38.5 61h117q-15 -72 -77 -120t-157 -48q-115 0 -180.5 75t-65.5 200q0 115 65.5 189t178.5 74q86 0 146.5 -46.5t81.5 -126.5q14 -45 14 -119h-373q3 -82 39.5 -122t93.5 -40zM282 439
q-53 0 -87.5 -34t-41.5 -99h257q-6 65 -40.5 99t-87.5 34z" />
    <glyph glyph-name="igrave" unicode="&#xec;" horiz-adv-x="260" 
d="M124 712l82 -144h-93l-132 144h143zM187 0h-114v508h114v-508z" />
    <glyph glyph-name="iacute" unicode="&#xed;" horiz-adv-x="260" 
d="M147 568h-93l81 144h144zM187 0h-114v508h114v-508z" />
    <glyph glyph-name="icircumflex" unicode="&#xee;" horiz-adv-x="260" 
d="M290 569h-102l-58 85l-58 -85h-103l101 143h119zM187 0h-114v508h114v-508z" />
    <glyph glyph-name="idieresis" unicode="&#xef;" horiz-adv-x="260" 
d="M99 603h-102v109h102v-109zM263 603h-103v109h103v-109zM187 0h-114v508h114v-508z" />
    <glyph glyph-name="eth" unicode="&#xf0;" horiz-adv-x="578" 
d="M444 529q96 -127 96 -271q0 -125 -67.5 -199t-182.5 -74q-116 0 -184 70.5t-68 191.5t61 192t164 71q48 0 89 -26v2q-40 50 -96 100l-130 -55l-23 54l103 44q-36 28 -67 49l87 49q36 -23 78 -57l125 53l23 -54l-99 -42q52 -47 91 -98zM289 75q61 0 96 48t35 130
q0 83 -35 131t-96 48t-96 -48t-35 -131q0 -82 35 -130t96 -48z" />
    <glyph glyph-name="ntilde" unicode="&#xf1;" horiz-adv-x="588" 
d="M409 709h68q-3 -59 -31.5 -92t-77.5 -33q-34 0 -76 24t-61 24q-40 0 -46 -48h-68q3 59 32 92t78 33q34 0 76 -24.5t60 -24.5q41 0 46 49zM335 520q88 0 136.5 -53t48.5 -156v-311h-114v301q0 127 -103 127q-51 0 -83.5 -38t-32.5 -108v-282h-114v508h108v-66h2
q54 78 152 78z" />
    <glyph glyph-name="ograve" unicode="&#xf2;" horiz-adv-x="577" 
d="M283 712l82 -144h-93l-132 144h143zM289 523q115 0 182.5 -72.5t67.5 -196.5t-67.5 -196.5t-182.5 -72.5t-183 72.5t-68 196.5t68 196.5t183 72.5zM289 433q-61 0 -96 -48t-35 -131t35 -131t96 -48t96 48t35 131t-35 131t-96 48z" />
    <glyph glyph-name="oacute" unicode="&#xf3;" horiz-adv-x="577" 
d="M306 568h-93l81 144h144zM289 523q115 0 182.5 -72.5t67.5 -196.5t-67.5 -196.5t-182.5 -72.5t-183 72.5t-68 196.5t68 196.5t183 72.5zM289 433q-61 0 -96 -48t-35 -131t35 -131t96 -48t96 48t35 131t-35 131t-96 48z" />
    <glyph glyph-name="ocircumflex" unicode="&#xf4;" horiz-adv-x="577" 
d="M356 568l-67 84l-68 -84h-108l114 144h123l114 -144h-108zM289 523q115 0 182.5 -72.5t67.5 -196.5t-67.5 -196.5t-182.5 -72.5t-183 72.5t-68 196.5t68 196.5t183 72.5zM289 433q-61 0 -96 -48t-35 -131t35 -131t96 -48t96 48t35 131t-35 131t-96 48z" />
    <glyph glyph-name="otilde" unicode="&#xf5;" horiz-adv-x="577" 
d="M401 709h68q-3 -59 -31.5 -92t-77.5 -33q-34 0 -76 24t-61 24q-40 0 -46 -48h-68q3 59 32 92t78 33q34 0 76 -24.5t60 -24.5q41 0 46 49zM289 523q115 0 182.5 -72.5t67.5 -196.5t-67.5 -196.5t-182.5 -72.5t-183 72.5t-68 196.5t68 196.5t183 72.5zM289 433
q-61 0 -96 -48t-35 -131t35 -131t96 -48t96 48t35 131t-35 131t-96 48z" />
    <glyph glyph-name="odieresis" unicode="&#xf6;" horiz-adv-x="577" 
d="M236 603h-102v109h102v-109zM442 603h-102v109h102v-109zM289 523q115 0 182.5 -72.5t67.5 -196.5t-67.5 -196.5t-182.5 -72.5t-183 72.5t-68 196.5t68 196.5t183 72.5zM289 433q-61 0 -96 -48t-35 -131t35 -131t96 -48t96 48t35 131t-35 131t-96 48z" />
    <glyph glyph-name="divide" unicode="&#xf7;" horiz-adv-x="566" 
d="M333 441h-100v97h100v-97zM499 271h-432v91h432v-91zM333 95h-100v97h100v-97z" />
    <glyph glyph-name="oslash" unicode="&#xf8;" horiz-adv-x="578" 
d="M527 518l-53 -70q66 -72 66 -194q0 -124 -68 -196.5t-183 -72.5q-81 0 -138 36l-51 -68l-48 36l53 70q-67 72 -67 195q0 124 68 196.5t183 72.5q80 0 139 -36l51 68zM289 437q-63 0 -100 -49.5t-37 -133.5q0 -62 20 -105l197 260q-34 28 -80 28zM289 71q63 0 100 49
t37 134q0 57 -20 105l-197 -261q33 -27 80 -27z" />
    <glyph glyph-name="ugrave" unicode="&#xf9;" horiz-adv-x="588" 
d="M288 712l82 -144h-93l-132 144h143zM253 -12q-88 0 -136.5 53t-48.5 156v311h114v-301q0 -127 103 -127q51 0 83.5 38t32.5 108v282h114v-508h-108v66h-2q-54 -78 -152 -78z" />
    <glyph glyph-name="uacute" unicode="&#xfa;" horiz-adv-x="588" 
d="M311 568h-93l81 144h144zM253 -12q-88 0 -136.5 53t-48.5 156v311h114v-301q0 -127 103 -127q51 0 83.5 38t32.5 108v282h114v-508h-108v66h-2q-54 -78 -152 -78z" />
    <glyph glyph-name="ucircumflex" unicode="&#xfb;" horiz-adv-x="588" 
d="M361 568l-67 84l-68 -84h-108l114 144h123l114 -144h-108zM253 -12q-88 0 -136.5 53t-48.5 156v311h114v-301q0 -127 103 -127q51 0 83.5 38t32.5 108v282h114v-508h-108v66h-2q-54 -78 -152 -78z" />
    <glyph glyph-name="udieresis" unicode="&#xfc;" horiz-adv-x="588" 
d="M242 603h-102v109h102v-109zM448 603h-102v109h102v-109zM253 -12q-88 0 -136.5 53t-48.5 156v311h114v-301q0 -127 103 -127q51 0 83.5 38t32.5 108v282h114v-508h-108v66h-2q-54 -78 -152 -78z" />
    <glyph glyph-name="yacute" unicode="&#xfd;" horiz-adv-x="488" 
d="M261 568h-93l81 144h144zM494 508l-196 -530q-36 -96 -84.5 -132t-137.5 -36q-31 0 -57 7v93q23 -7 48 -7q46 0 70.5 20t42.5 73l-186 512h122l127 -378h2l131 378h118z" />
    <glyph glyph-name="thorn" unicode="&#xfe;" horiz-adv-x="587" 
d="M187 442h2q22 37 61.5 58t86.5 21q97 0 154.5 -72.5t57.5 -194.5t-57 -194t-154 -72q-48 0 -87.5 20.5t-61.5 57.5h-2v-251h-114v897h114v-270zM304 432q-56 0 -89.5 -47.5t-33.5 -130.5q0 -82 33.5 -130t89.5 -48q58 0 92 48.5t34 129.5t-34 129.5t-92 48.5z" />
    <glyph glyph-name="ydieresis" unicode="&#xff;" horiz-adv-x="488" 
d="M192 603h-102v109h102v-109zM398 603h-102v109h102v-109zM494 508l-196 -530q-36 -96 -84.5 -132t-137.5 -36q-31 0 -57 7v93q23 -7 48 -7q46 0 70.5 20t42.5 73l-186 512h122l127 -378h2l131 378h118z" />
    <glyph glyph-name="Amacron" unicode="&#x100;" horiz-adv-x="687" 
d="M496 783h-305v78h305v-78zM491 193h-295l-66 -193h-126l259 712h161l259 -712h-126zM455 297l-19 56q-60 178 -92 283h-2q-53 -173 -91 -283l-19 -56h223z" />
    <glyph glyph-name="amacron" unicode="&#x101;" horiz-adv-x="539" 
d="M409 607h-305v78h305v-78zM263 523q102 0 155.5 -50t53.5 -149v-190q0 -82 13 -134h-103q-7 31 -7 71h-2q-56 -82 -171 -82q-78 0 -125 42.5t-47 108.5q0 65 44.5 104t150.5 56q64 11 137 15v20q0 105 -99 105q-46 0 -72 -24t-28 -65h-112q4 76 58.5 124t153.5 48z
M362 216v25q-65 -4 -117 -13q-55 -9 -77.5 -27t-22.5 -53q0 -34 23.5 -54.5t66.5 -20.5q58 0 92 34q20 21 27.5 44.5t7.5 64.5z" />
    <glyph glyph-name="Abreve" unicode="&#x102;" horiz-adv-x="687" 
d="M343 755q-73 0 -116.5 38.5t-48.5 108.5h80q8 -72 85 -72t85 72h81q-5 -70 -48.5 -108.5t-117.5 -38.5zM491 193h-295l-66 -193h-126l259 712h161l259 -712h-126zM455 297l-19 56q-60 178 -92 283h-2q-53 -173 -91 -283l-19 -56h223z" />
    <glyph glyph-name="abreve" unicode="&#x103;" horiz-adv-x="539" 
d="M342 712h81q-5 -70 -48.5 -108.5t-117.5 -38.5q-73 0 -116.5 38.5t-48.5 108.5h80q8 -72 85 -72t85 72zM263 523q102 0 155.5 -50t53.5 -149v-190q0 -82 13 -134h-103q-7 31 -7 71h-2q-56 -82 -171 -82q-78 0 -125 42.5t-47 108.5q0 65 44.5 104t150.5 56q64 11 137 15
v20q0 105 -99 105q-46 0 -72 -24t-28 -65h-112q4 76 58.5 124t153.5 48zM362 216v25q-65 -4 -117 -13q-55 -9 -77.5 -27t-22.5 -53q0 -34 23.5 -54.5t66.5 -20.5q58 0 92 34q20 21 27.5 44.5t7.5 64.5z" />
    <glyph glyph-name="Aogonek" unicode="&#x104;" horiz-adv-x="687" 
d="M648 -128q20 0 37 6v-62q-27 -11 -68 -11q-106 0 -106 83q0 32 18.5 57t59.5 55h-32l-66 193h-295l-66 -193h-126l259 712h161l259 -712h-1q-72 -51 -72 -95q0 -33 38 -33zM455 297l-19 56q-60 178 -92 283h-2q-53 -173 -91 -283l-19 -56h223z" />
    <glyph glyph-name="aogonek" unicode="&#x105;" horiz-adv-x="539" 
d="M451 -128q20 0 37 6v-62q-27 -11 -68 -11q-106 0 -106 83q0 32 18.5 57t59.5 55h-10q-7 31 -7 71h-2q-56 -82 -171 -82q-78 0 -125 42.5t-47 108.5q0 65 44.5 104t150.5 56q64 11 137 15v20q0 105 -99 105q-46 0 -72 -24t-28 -65h-112q4 76 58.5 124t153.5 48
q102 0 155.5 -50t53.5 -149v-190q0 -82 13 -134q-72 -51 -72 -95q0 -33 38 -33zM362 216v25q-65 -4 -117 -13q-55 -9 -77.5 -27t-22.5 -53q0 -34 23.5 -54.5t66.5 -20.5q58 0 92 34q20 21 27.5 44.5t7.5 64.5z" />
    <glyph glyph-name="Cacute" unicode="&#x106;" horiz-adv-x="695" 
d="M376 760h-93l81 142h144zM359 727q128 0 206 -72t83 -187h-121q-8 71 -52.5 111.5t-115.5 40.5q-91 0 -143 -70.5t-52 -193.5t51.5 -193.5t140.5 -70.5q71 0 116.5 41t55.5 114h123q-11 -123 -89 -192.5t-206 -69.5q-147 0 -231.5 99t-84.5 272t85.5 272t233.5 99z" />
    <glyph glyph-name="cacute" unicode="&#x107;" horiz-adv-x="548" 
d="M302 568h-93l81 144h144zM285 523q96 0 158.5 -55.5t70.5 -143.5h-119q-4 50 -34 79.5t-76 29.5q-60 0 -93.5 -47.5t-33.5 -131.5t33.5 -131.5t93.5 -47.5q46 0 75.5 33t33.5 85h120q-8 -93 -70 -150.5t-159 -57.5q-113 0 -180 73t-67 196t67 196t180 73z" />
    <glyph glyph-name="Ccircumflex" unicode="&#x108;" horiz-adv-x="695" 
d="M297 902h123l114 -142h-108l-68 82l-67 -82h-108zM359 727q128 0 206 -72t83 -187h-121q-8 71 -52.5 111.5t-115.5 40.5q-91 0 -143 -70.5t-52 -193.5t51.5 -193.5t140.5 -70.5q71 0 116.5 41t55.5 114h123q-11 -123 -89 -192.5t-206 -69.5q-147 0 -231.5 99t-84.5 272
t85.5 272t233.5 99z" />
    <glyph glyph-name="ccircumflex" unicode="&#x109;" horiz-adv-x="548" 
d="M353 568l-67 84l-68 -84h-108l114 144h123l114 -144h-108zM285 523q96 0 158.5 -55.5t70.5 -143.5h-119q-4 50 -34 79.5t-76 29.5q-60 0 -93.5 -47.5t-33.5 -131.5t33.5 -131.5t93.5 -47.5q46 0 75.5 33t33.5 85h120q-8 -93 -70 -150.5t-159 -57.5q-113 0 -180 73
t-67 196t67 196t180 73z" />
    <glyph glyph-name="Cdotaccent" unicode="&#x10a;" horiz-adv-x="695" 
d="M416 769h-114v109h114v-109zM359 727q128 0 206 -72t83 -187h-121q-8 71 -52.5 111.5t-115.5 40.5q-91 0 -143 -70.5t-52 -193.5t51.5 -193.5t140.5 -70.5q71 0 116.5 41t55.5 114h123q-11 -123 -89 -192.5t-206 -69.5q-147 0 -231.5 99t-84.5 272t85.5 272t233.5 99z
" />
    <glyph glyph-name="cdotaccent" unicode="&#x10b;" horiz-adv-x="548" 
d="M342 603h-114v109h114v-109zM285 523q96 0 158.5 -55.5t70.5 -143.5h-119q-4 50 -34 79.5t-76 29.5q-60 0 -93.5 -47.5t-33.5 -131.5t33.5 -131.5t93.5 -47.5q46 0 75.5 33t33.5 85h120q-8 -93 -70 -150.5t-159 -57.5q-113 0 -180 73t-67 196t67 196t180 73z" />
    <glyph glyph-name="Ccaron" unicode="&#x10c;" horiz-adv-x="695" 
d="M420 760h-123l-114 142h108l68 -82l67 82h108zM359 727q128 0 206 -72t83 -187h-121q-8 71 -52.5 111.5t-115.5 40.5q-91 0 -143 -70.5t-52 -193.5t51.5 -193.5t140.5 -70.5q71 0 116.5 41t55.5 114h123q-11 -123 -89 -192.5t-206 -69.5q-147 0 -231.5 99t-84.5 272
t85.5 272t233.5 99z" />
    <glyph glyph-name="ccaron" unicode="&#x10d;" horiz-adv-x="548" 
d="M347 568h-123l-114 144h108l68 -84l67 84h108zM285 523q96 0 158.5 -55.5t70.5 -143.5h-119q-4 50 -34 79.5t-76 29.5q-60 0 -93.5 -47.5t-33.5 -131.5t33.5 -131.5t93.5 -47.5q46 0 75.5 33t33.5 85h120q-8 -93 -70 -150.5t-159 -57.5q-113 0 -180 73t-67 196t67 196
t180 73z" />
    <glyph glyph-name="Dcaron" unicode="&#x10e;" horiz-adv-x="729" 
d="M393 760h-123l-114 142h108l68 -82l67 82h108zM88 712h228q179 0 276 -92.5t97 -263.5t-97 -263.5t-276 -92.5h-228v712zM207 608v-504h107q251 0 251 252t-251 252h-107z" />
    <glyph glyph-name="dcaron" unicode="&#x10f;" horiz-adv-x="587" 
d="M514 0h-111v70h-2q-22 -39 -62.5 -60.5t-88.5 -21.5q-97 0 -154.5 72.5t-57.5 193.5q0 122 57 194.5t154 72.5q48 0 87.5 -21t61.5 -58h2v270h114v-712zM611 535h-66l28 177h95zM283 432q-58 0 -92 -48.5t-34 -129.5t34 -129.5t92 -48.5q56 0 89.5 48t33.5 130
q0 83 -33.5 130.5t-89.5 47.5z" />
    <glyph glyph-name="Dcroat" unicode="&#x110;" horiz-adv-x="729" 
d="M88 712h228q179 0 276 -92.5t97 -263.5t-97 -263.5t-276 -92.5h-228v316h-64v89h64v307zM207 104h107q251 0 251 252t-251 252h-107v-203h184v-89h-184v-212z" />
    <glyph glyph-name="dcroat" unicode="&#x111;" horiz-adv-x="580" 
d="M579 578h-65v-578h-111v70h-2q-22 -39 -62.5 -60.5t-88.5 -21.5q-97 0 -154.5 72.5t-57.5 193.5q0 122 57 194.5t154 72.5q48 0 87.5 -21t61.5 -58h2v136h-126v64h126v70h114v-70h65v-64zM283 76q56 0 89.5 48t33.5 130q0 83 -33.5 130.5t-89.5 47.5q-58 0 -92 -48.5
t-34 -129.5t34 -129.5t92 -48.5z" />
    <glyph glyph-name="Emacron" unicode="&#x112;" horiz-adv-x="625" 
d="M478 783h-305v78h305v-78zM564 608h-356v-193h334v-103h-334v-208h366v-104h-486v712h476v-104z" />
    <glyph glyph-name="emacron" unicode="&#x113;" horiz-adv-x="562" 
d="M433 607h-305v78h305v-78zM284 69q48 0 78.5 23t38.5 61h117q-15 -72 -77 -120t-157 -48q-115 0 -180.5 75t-65.5 200q0 115 65.5 189t178.5 74q86 0 146.5 -46.5t81.5 -126.5q14 -45 14 -119h-373q3 -82 39.5 -122t93.5 -40zM282 439q-53 0 -87.5 -34t-41.5 -99h257
q-6 65 -40.5 99t-87.5 34z" />
    <glyph glyph-name="Ebreve" unicode="&#x114;" horiz-adv-x="625" 
d="M411 902h81q-5 -70 -48.5 -108.5t-117.5 -38.5q-73 0 -116.5 38.5t-48.5 108.5h80q8 -72 85 -72t85 72zM564 608h-356v-193h334v-103h-334v-208h366v-104h-486v712h476v-104z" />
    <glyph glyph-name="ebreve" unicode="&#x115;" horiz-adv-x="562" 
d="M280 565q-73 0 -116.5 38.5t-48.5 108.5h80q8 -72 85 -72t85 72h81q-5 -70 -48.5 -108.5t-117.5 -38.5zM284 69q48 0 78.5 23t38.5 61h117q-15 -72 -77 -120t-157 -48q-115 0 -180.5 75t-65.5 200q0 115 65.5 189t178.5 74q86 0 146.5 -46.5t81.5 -126.5q14 -45 14 -119
h-373q3 -82 39.5 -122t93.5 -40zM282 439q-53 0 -87.5 -34t-41.5 -99h257q-6 65 -40.5 99t-87.5 34z" />
    <glyph glyph-name="Edotaccent" unicode="&#x116;" horiz-adv-x="625" 
d="M383 769h-114v109h114v-109zM564 608h-356v-193h334v-103h-334v-208h366v-104h-486v712h476v-104z" />
    <glyph glyph-name="edotaccent" unicode="&#x117;" horiz-adv-x="562" 
d="M337 603h-114v109h114v-109zM284 69q48 0 78.5 23t38.5 61h117q-15 -72 -77 -120t-157 -48q-115 0 -180.5 75t-65.5 200q0 115 65.5 189t178.5 74q86 0 146.5 -46.5t81.5 -126.5q14 -45 14 -119h-373q3 -82 39.5 -122t93.5 -40zM282 439q-53 0 -87.5 -34t-41.5 -99h257
q-6 65 -40.5 99t-87.5 34z" />
    <glyph glyph-name="Eogonek" unicode="&#x118;" horiz-adv-x="625" 
d="M540 -128q20 0 37 6v-62q-27 -11 -68 -11q-106 0 -106 83q0 32 18.5 57t59.5 55h-393v712h476v-104h-356v-193h334v-103h-334v-208h366v-104q-72 -51 -72 -95q0 -33 38 -33z" />
    <glyph glyph-name="eogonek" unicode="&#x119;" horiz-adv-x="562" 
d="M284 69q48 0 78.5 23t38.5 61h117q-13 -66 -79 -129q-41 -37 -57 -62.5t-16 -52.5q0 -37 38 -37q21 0 37 6v-62q-27 -11 -68 -11q-106 0 -106 83q0 53 54 98v2q-17 -3 -37 -3q-115 0 -180.5 75t-65.5 200q0 115 65.5 189t178.5 74q86 0 146.5 -46.5t81.5 -126.5
q14 -45 14 -119h-373q3 -82 39.5 -122t93.5 -40zM282 439q-53 0 -87.5 -34t-41.5 -99h257q-6 65 -40.5 99t-87.5 34z" />
    <glyph glyph-name="Ecaron" unicode="&#x11a;" horiz-adv-x="625" 
d="M387 760h-123l-114 142h108l68 -82l67 82h108zM564 608h-356v-193h334v-103h-334v-208h366v-104h-486v712h476v-104z" />
    <glyph glyph-name="ecaron" unicode="&#x11b;" horiz-adv-x="562" 
d="M219 568l-114 144h108l68 -84l67 84h108l-114 -144h-123zM284 69q48 0 78.5 23t38.5 61h117q-15 -72 -77 -120t-157 -48q-115 0 -180.5 75t-65.5 200q0 115 65.5 189t178.5 74q86 0 146.5 -46.5t81.5 -126.5q14 -45 14 -119h-373q3 -82 39.5 -122t93.5 -40zM282 439
q-53 0 -87.5 -34t-41.5 -99h257q-6 65 -40.5 99t-87.5 34z" />
    <glyph glyph-name="Gcircumflex" unicode="&#x11c;" horiz-adv-x="737" 
d="M301 902h123l114 -142h-108l-68 82l-67 -82h-108zM370 727q126 0 202.5 -63t87.5 -170h-128q-11 61 -52.5 93.5t-109.5 32.5q-95 0 -150.5 -71.5t-55.5 -195.5q0 -125 54 -197t147 -72q84 0 132 50t49 151h-182v100h294v-385h-103v88h-2q-29 -47 -85.5 -74t-129.5 -27
q-137 0 -217.5 98t-80.5 268q0 174 88.5 274t241.5 100z" />
    <glyph glyph-name="gcircumflex" unicode="&#x11d;" horiz-adv-x="582" 
d="M343 568l-67 84l-68 -84h-108l114 144h123l114 -144h-108zM251 522q92 0 148 -85h2v71h108v-476q0 -112 -60.5 -168.5t-170.5 -56.5q-101 0 -157.5 42.5t-60.5 118.5h114q2 -37 30 -57t76 -20q59 0 88.5 34t29.5 111v50h-2q-55 -80 -147 -80q-97 0 -154 70t-57 188
t58 188t155 70zM277 427q-55 0 -87.5 -44t-32.5 -119t32.5 -119.5t87.5 -44.5q58 0 91.5 44.5t33.5 119.5t-33.5 119t-91.5 44z" />
    <glyph glyph-name="Gbreve" unicode="&#x11e;" horiz-adv-x="737" 
d="M448 902h81q-5 -70 -48.5 -108.5t-117.5 -38.5q-73 0 -116.5 38.5t-48.5 108.5h80q8 -72 85 -72t85 72zM370 727q126 0 202.5 -63t87.5 -170h-128q-11 61 -52.5 93.5t-109.5 32.5q-95 0 -150.5 -71.5t-55.5 -195.5q0 -125 54 -197t147 -72q84 0 132 50t49 151h-182v100
h294v-385h-103v88h-2q-29 -47 -85.5 -74t-129.5 -27q-137 0 -217.5 98t-80.5 268q0 174 88.5 274t241.5 100z" />
    <glyph glyph-name="gbreve" unicode="&#x11f;" horiz-adv-x="582" 
d="M360 712h81q-5 -70 -48.5 -108.5t-117.5 -38.5q-73 0 -116.5 38.5t-48.5 108.5h80q8 -72 85 -72t85 72zM251 522q92 0 148 -85h2v71h108v-476q0 -112 -60.5 -168.5t-170.5 -56.5q-101 0 -157.5 42.5t-60.5 118.5h114q2 -37 30 -57t76 -20q59 0 88.5 34t29.5 111v50h-2
q-55 -80 -147 -80q-97 0 -154 70t-57 188t58 188t155 70zM277 427q-55 0 -87.5 -44t-32.5 -119t32.5 -119.5t87.5 -44.5q58 0 91.5 44.5t33.5 119.5t-33.5 119t-91.5 44z" />
    <glyph glyph-name="Gdotaccent" unicode="&#x120;" horiz-adv-x="737" 
d="M420 769h-114v109h114v-109zM370 727q126 0 202.5 -63t87.5 -170h-128q-11 61 -52.5 93.5t-109.5 32.5q-95 0 -150.5 -71.5t-55.5 -195.5q0 -125 54 -197t147 -72q84 0 132 50t49 151h-182v100h294v-385h-103v88h-2q-29 -47 -85.5 -74t-129.5 -27q-137 0 -217.5 98
t-80.5 268q0 174 88.5 274t241.5 100z" />
    <glyph glyph-name="gdotaccent" unicode="&#x121;" horiz-adv-x="582" 
d="M333 603h-114v109h114v-109zM251 522q92 0 148 -85h2v71h108v-476q0 -112 -60.5 -168.5t-170.5 -56.5q-101 0 -157.5 42.5t-60.5 118.5h114q2 -37 30 -57t76 -20q59 0 88.5 34t29.5 111v50h-2q-55 -80 -147 -80q-97 0 -154 70t-57 188t58 188t155 70zM277 427
q-55 0 -87.5 -44t-32.5 -119t32.5 -119.5t87.5 -44.5q58 0 91.5 44.5t33.5 119.5t-33.5 119t-91.5 44z" />
    <glyph glyph-name="Gcommaaccent" unicode="&#x122;" horiz-adv-x="737" 
d="M370 727q126 0 202.5 -63t87.5 -170h-128q-11 61 -52.5 93.5t-109.5 32.5q-95 0 -150.5 -71.5t-55.5 -195.5q0 -125 54 -197t147 -72q84 0 132 50t49 151h-182v100h294v-385h-103v88h-2q-29 -47 -85.5 -74t-129.5 -27q-137 0 -217.5 98t-80.5 268q0 174 88.5 274
t241.5 100zM416 -158l-62 -106h-47l42 106h-40v96h107v-96z" />
    <glyph glyph-name="gcommaaccent" unicode="&#x123;" horiz-adv-x="582" 
d="M288 676h39v-96h-106v96l62 106h47zM251 522q92 0 148 -85h2v71h108v-476q0 -112 -60.5 -168.5t-170.5 -56.5q-101 0 -157.5 42.5t-60.5 118.5h114q2 -37 30 -57t76 -20q59 0 88.5 34t29.5 111v50h-2q-55 -80 -147 -80q-97 0 -154 70t-57 188t58 188t155 70zM277 427
q-55 0 -87.5 -44t-32.5 -119t32.5 -119.5t87.5 -44.5q58 0 91.5 44.5t33.5 119.5t-33.5 119t-91.5 44z" />
    <glyph glyph-name="Hcircumflex" unicode="&#x124;" horiz-adv-x="744" 
d="M310 902h123l114 -142h-108l-68 82l-67 -82h-108zM655 0h-119v318h-328v-318h-120v712h120v-290h328v290h119v-712z" />
    <glyph glyph-name="hcircumflex" unicode="&#x125;" horiz-adv-x="588" 
d="M232 902h123l114 -142h-108l-68 82l-67 -82h-108zM187 448h2q53 72 146 72q88 0 136.5 -53t48.5 -156v-311h-114v301q0 127 -103 127q-51 0 -83.5 -38t-32.5 -108v-282h-114v712h114v-264z" />
    <glyph glyph-name="Hbar" unicode="&#x126;" horiz-adv-x="744" 
d="M712 571h-57v-571h-119v318h-328v-318h-120v571h-56v65h56v76h120v-76h328v76h119v-76h57v-65zM536 571h-328v-149h328v149z" />
    <glyph glyph-name="hbar" unicode="&#x127;" horiz-adv-x="588" 
d="M335 520q88 0 136.5 -53t48.5 -156v-311h-114v301q0 127 -103 127q-51 0 -83.5 -38t-32.5 -108v-282h-114v578h-72v58h72v76h114v-76h119v-58h-119v-130h2q53 72 146 72z" />
    <glyph glyph-name="Itilde" unicode="&#x128;" horiz-adv-x="296" 
d="M260 899h68q-3 -59 -31.5 -92t-77.5 -33q-34 0 -76 24.5t-61 24.5q-40 0 -46 -49h-68q3 59 32 92t78 33q34 0 76 -24t60 -24q42 0 46 48zM208 0h-120v712h120v-712z" />
    <glyph glyph-name="itilde" unicode="&#x129;" horiz-adv-x="260" 
d="M229 709h60q-3 -59 -29.5 -92t-71.5 -33q-30 0 -65 25t-51 25q-36 0 -41 -50h-59q3 59 28.5 92t71.5 33q30 0 65 -25t51 -25q36 0 41 50zM187 0h-114v508h114v-508z" />
    <glyph glyph-name="Imacron" unicode="&#x12a;" horiz-adv-x="296" 
d="M301 783h-305v78h305v-78zM208 0h-120v712h120v-712z" />
    <glyph glyph-name="imacron" unicode="&#x12b;" horiz-adv-x="260" 
d="M265 610h-271v78h271v-78zM187 0h-114v508h114v-508z" />
    <glyph glyph-name="Ibreve" unicode="&#x12c;" horiz-adv-x="296" 
d="M233 902h81q-5 -70 -48.5 -108.5t-117.5 -38.5q-73 0 -116.5 38.5t-48.5 108.5h80q8 -72 85 -72t85 72zM208 0h-120v712h120v-712z" />
    <glyph glyph-name="ibreve" unicode="&#x12d;" horiz-adv-x="260" 
d="M203 712h76q-3 -69 -42 -108t-107 -39t-107 38.5t-42 108.5h75q3 -36 22 -55.5t52 -19.5t52 19.5t21 55.5zM187 0h-114v508h114v-508z" />
    <glyph glyph-name="Iogonek" unicode="&#x12e;" horiz-adv-x="296" 
d="M174 -128q20 0 37 6v-62q-27 -11 -68 -11q-106 0 -106 83q0 32 18.5 57t59.5 55h-27v712h120v-712q-72 -51 -72 -95q0 -33 38 -33z" />
    <glyph glyph-name="iogonek" unicode="&#x12f;" horiz-adv-x="260" 
d="M187 603h-114v109h114v-109zM153 -128q21 0 37 6v-62q-27 -11 -68 -11q-106 0 -106 83q0 32 18.5 57t59.5 55h-21v508h114v-508q-72 -51 -72 -95q0 -33 38 -33z" />
    <glyph glyph-name="Idotaccent" unicode="&#x130;" horiz-adv-x="296" 
d="M205 769h-114v109h114v-109zM208 0h-120v712h120v-712z" />
    <glyph glyph-name="dotlessi" unicode="&#x131;" horiz-adv-x="260" 
d="M187 0h-114v508h114v-508z" />
    <glyph glyph-name="IJ" unicode="&#x132;" horiz-adv-x="670" 
d="M208 0h-120v712h120v-712zM587 712v-496q0 -113 -53.5 -167.5t-165.5 -54.5q-31 0 -57 7v103q21 -4 45 -4q58 0 84.5 30t26.5 107v475h120z" />
    <glyph glyph-name="ij" unicode="&#x133;" horiz-adv-x="524" 
d="M187 603h-114v109h114v-109zM451 603h-114v109h114v-109zM187 0h-114v508h114v-508zM451 508v-528q0 -88 -42.5 -129t-117.5 -41q-27 0 -58 7v85q13 -3 28 -3q39 0 57.5 21.5t18.5 74.5v513h114z" />
    <glyph glyph-name="Jcircumflex" unicode="&#x134;" horiz-adv-x="374" 
d="M169 902h123l114 -142h-108l-68 82l-67 -82h-108zM291 712v-496q0 -113 -53.5 -167.5t-165.5 -54.5q-31 0 -57 7v103q21 -4 45 -4q58 0 84.5 30t26.5 107v475h120z" />
    <glyph glyph-name="jcircumflex" unicode="&#x135;" horiz-adv-x="264" 
d="M294 569h-102l-58 85l-58 -85h-103l101 143h119zM191 508v-528q0 -88 -42.5 -129t-117.5 -41q-27 0 -58 7v85q13 -3 28 -3q39 0 57.5 21.5t18.5 74.5v513h114z" />
    <glyph glyph-name="Kcommaaccent" unicode="&#x136;" horiz-adv-x="644" 
d="M323 373l317 -373h-155l-275 343h-2v-343h-120v712h120v-317h2l260 317h144zM383 -158l-62 -106h-47l42 106h-40v96h107v-96z" />
    <glyph glyph-name="kcommaaccent" unicode="&#x137;" horiz-adv-x="522" 
d="M531 0h-144l-198 246h-2v-246h-114v712h114v-412h2l185 208h133l-210 -232zM229 -62h107v-96l-62 -106h-47l42 106h-40v96z" />
    <glyph glyph-name="kgreenlandic" unicode="&#x138;" horiz-adv-x="539" 
d="M531 0h-144l-198 246h-2v-246h-114v508h114v-208h2l185 208h133l-210 -232z" />
    <glyph glyph-name="Lacute" unicode="&#x139;" horiz-adv-x="568" 
d="M196 760h-93l81 142h144zM208 104h350v-104h-470v712h120v-608z" />
    <glyph glyph-name="lacute" unicode="&#x13a;" horiz-adv-x="260" 
d="M164 772h-93l81 144h144zM187 0h-114v712h114v-712z" />
    <glyph glyph-name="Lcommaaccent" unicode="&#x13b;" horiz-adv-x="568" 
d="M208 104h350v-104h-470v712h120v-608zM377 -158l-62 -106h-47l42 106h-40v96h107v-96z" />
    <glyph glyph-name="lcommaaccent" unicode="&#x13c;" horiz-adv-x="260" 
d="M187 0h-114v712h114v-712zM184 -158l-62 -106h-47l42 106h-40v96h107v-96z" />
    <glyph glyph-name="Lcaron" unicode="&#x13d;" horiz-adv-x="568" 
d="M208 104h350v-104h-470v712h120v-608zM323 491h-66l28 221h95z" />
    <glyph glyph-name="lcaron" unicode="&#x13e;" horiz-adv-x="260" 
d="M187 0h-114v712h114v-712zM285 535h-66l28 177h95z" />
    <glyph glyph-name="Ldot" unicode="&#x13f;" horiz-adv-x="648" 
d="M208 104h350v-104h-470v712h120v-608zM533 351h-132v142h132v-142z" />
    <glyph glyph-name="ldot" unicode="&#x140;" horiz-adv-x="441" 
d="M187 0h-114v712h114v-712zM417 285h-132v142h132v-142z" />
    <glyph glyph-name="Lslash" unicode="&#x141;" horiz-adv-x="568" 
d="M558 104v-104h-470v292l-74 -44v102l74 44v318h120v-255l143 86v-103l-143 -86v-250h350z" />
    <glyph glyph-name="lslash" unicode="&#x142;" horiz-adv-x="309" 
d="M299 413l-88 -52v-361h-114v307l-87 -52v97l87 52v308h114v-254l88 52v-97z" />
    <glyph glyph-name="Nacute" unicode="&#x143;" horiz-adv-x="766" 
d="M400 760h-93l81 142h144zM677 0h-172l-154 298l-151 306h-2q6 -162 6 -324v-280h-116v712h173l153 -298l151 -306h2q-5 180 -5 324v280h115v-712z" />
    <glyph glyph-name="nacute" unicode="&#x144;" horiz-adv-x="588" 
d="M314 568h-93l81 144h144zM335 520q88 0 136.5 -53t48.5 -156v-311h-114v301q0 127 -103 127q-51 0 -83.5 -38t-32.5 -108v-282h-114v508h108v-66h2q54 78 152 78z" />
    <glyph glyph-name="Ncommaaccent" unicode="&#x145;" horiz-adv-x="766" 
d="M677 0h-172l-154 298l-151 306h-2q6 -162 6 -324v-280h-116v712h173l153 -298l151 -306h2q-5 180 -5 324v280h115v-712zM437 -158l-62 -106h-47l42 106h-40v96h107v-96z" />
    <glyph glyph-name="ncommaaccent" unicode="&#x146;" horiz-adv-x="588" 
d="M335 520q88 0 136.5 -53t48.5 -156v-311h-114v301q0 127 -103 127q-51 0 -83.5 -38t-32.5 -108v-282h-114v508h108v-66h2q54 78 152 78zM350 -158l-62 -106h-47l42 106h-40v96h107v-96z" />
    <glyph glyph-name="Ncaron" unicode="&#x147;" horiz-adv-x="766" 
d="M444 760h-123l-114 142h108l68 -82l67 82h108zM677 0h-172l-154 298l-151 306h-2q6 -162 6 -324v-280h-116v712h173l153 -298l151 -306h2q-5 180 -5 324v280h115v-712z" />
    <glyph glyph-name="ncaron" unicode="&#x148;" horiz-adv-x="588" 
d="M358 568h-123l-114 144h108l68 -84l67 84h108zM335 520q88 0 136.5 -53t48.5 -156v-311h-114v301q0 127 -103 127q-51 0 -83.5 -38t-32.5 -108v-282h-114v508h108v-66h2q54 78 152 78z" />
    <glyph glyph-name="napostrophe" unicode="&#x149;" horiz-adv-x="722" 
d="M180 587l-55 -140h-62l41 140h-39v125h115v-125zM469 520q88 0 136.5 -53t48.5 -156v-311h-114v301q0 127 -103 127q-51 0 -83.5 -38t-32.5 -108v-282h-114v508h108v-66h2q54 78 152 78z" />
    <glyph glyph-name="Eng" unicode="&#x14a;" horiz-adv-x="745" 
d="M657 712v-737q0 -86 -43 -126.5t-118 -40.5q-26 0 -58 7v85q15 -3 30 -3q38 0 56 20t18 68v15l-194 324q-75 124 -149 261h-2q7 -133 7 -285v-300h-116v712h155l154 -258q91 -154 149 -262h2q-7 133 -7 285v235h116z" />
    <glyph glyph-name="eng" unicode="&#x14b;" horiz-adv-x="588" 
d="M338 520q84 0 130 -49q52 -52 52 -173v-320q0 -86 -42.5 -126.5t-117.5 -40.5q-33 0 -58 7v85q14 -3 28 -3q39 0 57.5 20.5t18.5 71.5v296q0 81 -29 113q-25 28 -73 28q-51 0 -84 -38t-33 -109v-282h-114v508h109v-66h2q52 78 154 78z" />
    <glyph glyph-name="Omacron" unicode="&#x14c;" horiz-adv-x="740" 
d="M522 783h-305v78h305v-78zM370 727q153 0 241.5 -99.5t88.5 -271.5t-88.5 -271.5t-241.5 -99.5t-241.5 99.5t-88.5 271.5t88.5 271.5t241.5 99.5zM370 620q-95 0 -150.5 -71t-55.5 -193t55.5 -193t150.5 -71t150.5 71t55.5 193t-55.5 193t-150.5 71z" />
    <glyph glyph-name="omacron" unicode="&#x14d;" horiz-adv-x="577" 
d="M441 607h-305v78h305v-78zM289 523q115 0 182.5 -72.5t67.5 -196.5t-67.5 -196.5t-182.5 -72.5t-183 72.5t-68 196.5t68 196.5t183 72.5zM289 433q-61 0 -96 -48t-35 -131t35 -131t96 -48t96 48t35 131t-35 131t-96 48z" />
    <glyph glyph-name="Obreve" unicode="&#x14e;" horiz-adv-x="740" 
d="M455 902h81q-5 -70 -48.5 -108.5t-117.5 -38.5q-73 0 -116.5 38.5t-48.5 108.5h80q8 -72 85 -72t85 72zM370 727q153 0 241.5 -99.5t88.5 -271.5t-88.5 -271.5t-241.5 -99.5t-241.5 99.5t-88.5 271.5t88.5 271.5t241.5 99.5zM370 620q-95 0 -150.5 -71t-55.5 -193
t55.5 -193t150.5 -71t150.5 71t55.5 193t-55.5 193t-150.5 71z" />
    <glyph glyph-name="obreve" unicode="&#x14f;" horiz-adv-x="577" 
d="M373 712h81q-5 -70 -48.5 -108.5t-117.5 -38.5q-73 0 -116.5 38.5t-48.5 108.5h80q8 -72 85 -72t85 72zM289 523q115 0 182.5 -72.5t67.5 -196.5t-67.5 -196.5t-182.5 -72.5t-183 72.5t-68 196.5t68 196.5t183 72.5zM289 433q-61 0 -96 -48t-35 -131t35 -131t96 -48
t96 48t35 131t-35 131t-96 48z" />
    <glyph glyph-name="Ohungarumlaut" unicode="&#x150;" horiz-adv-x="740" 
d="M292 758h-92l101 144h129zM467 758h-92l101 144h129zM370 727q153 0 241.5 -99.5t88.5 -271.5t-88.5 -271.5t-241.5 -99.5t-241.5 99.5t-88.5 271.5t88.5 271.5t241.5 99.5zM370 620q-95 0 -150.5 -71t-55.5 -193t55.5 -193t150.5 -71t150.5 71t55.5 193t-55.5 193
t-150.5 71z" />
    <glyph glyph-name="ohungarumlaut" unicode="&#x151;" horiz-adv-x="577" 
d="M225 568h-92l101 144h129zM400 568h-92l101 144h129zM289 523q115 0 182.5 -72.5t67.5 -196.5t-67.5 -196.5t-182.5 -72.5t-183 72.5t-68 196.5t68 196.5t183 72.5zM289 433q-61 0 -96 -48t-35 -131t35 -131t96 -48t96 48t35 131t-35 131t-96 48z" />
    <glyph glyph-name="OE" unicode="&#x152;" horiz-adv-x="1010" 
d="M948 608h-356v-193h334v-103h-334v-208h366v-104h-544q-179 0 -276.5 92.5t-97.5 263.5t97.5 263.5t276.5 92.5h534v-104zM472 608h-58q-124 0 -187 -63.5t-63 -188.5t63 -188.5t187 -63.5h58v504z" />
    <glyph glyph-name="oe" unicode="&#x153;" horiz-adv-x="913" 
d="M641 69q45 0 74.5 23t36.5 61h116q-13 -72 -73.5 -120t-153.5 -48q-117 0 -178 88q-63 -88 -179 -88q-113 0 -179.5 72.5t-66.5 196.5t66.5 196.5t179.5 72.5q117 0 178 -87q63 87 177 87q83 0 142.5 -46.5t80.5 -126.5q13 -52 13 -119h-360q2 -82 36.5 -122t89.5 -40z
M639 439q-50 0 -82.5 -34t-39.5 -99h244q-5 65 -38 99t-84 34zM284 75q58 0 92 48.5t34 130.5t-34 130.5t-92 48.5t-92 -48t-34 -131t34 -131t92 -48z" />
    <glyph glyph-name="Racute" unicode="&#x154;" horiz-adv-x="653" 
d="M337 760h-93l81 142h144zM88 712h245q254 0 254 -197q0 -67 -35.5 -114t-96.5 -62v-2q38 -13 60 -41t46 -95l73 -201h-131l-60 179q-21 61 -49.5 84t-82.5 23h-103v-286h-120v712zM208 613v-229h119q72 0 106 31.5t33 87.5q0 110 -146 110h-112z" />
    <glyph glyph-name="racute" unicode="&#x155;" horiz-adv-x="377" 
d="M225 568h-93l81 144h144zM326 515q20 0 42 -5v-101q-19 4 -40 4q-68 0 -104.5 -42.5t-36.5 -121.5v-249h-114v508h106v-75h2q51 82 145 82z" />
    <glyph glyph-name="Rcommaaccent" unicode="&#x156;" horiz-adv-x="653" 
d="M88 712h245q254 0 254 -197q0 -67 -35.5 -114t-96.5 -62v-2q38 -13 60 -41t46 -95l73 -201h-131l-60 179q-21 61 -49.5 84t-82.5 23h-103v-286h-120v712zM208 613v-229h119q72 0 106 31.5t33 87.5q0 110 -146 110h-112zM397 -158l-62 -106h-47l42 106h-40v96h107v-96z
" />
    <glyph glyph-name="rcommaaccent" unicode="&#x157;" horiz-adv-x="377" 
d="M326 515q20 0 42 -5v-101q-19 4 -40 4q-68 0 -104.5 -42.5t-36.5 -121.5v-249h-114v508h106v-75h2q51 82 145 82zM184 -158l-62 -106h-47l42 106h-40v96h107v-96z" />
    <glyph glyph-name="Rcaron" unicode="&#x158;" horiz-adv-x="653" 
d="M381 760h-123l-114 142h108l68 -82l67 82h108zM88 712h245q254 0 254 -197q0 -67 -35.5 -114t-96.5 -62v-2q38 -13 60 -41t46 -95l73 -201h-131l-60 179q-21 61 -49.5 84t-82.5 23h-103v-286h-120v712zM208 613v-229h119q72 0 106 31.5t33 87.5q0 110 -146 110h-112z" />
    <glyph glyph-name="rcaron" unicode="&#x159;" horiz-adv-x="377" 
d="M269 568h-123l-114 144h108l68 -84l67 84h108zM326 515q20 0 42 -5v-101q-19 4 -40 4q-68 0 -104.5 -42.5t-36.5 -121.5v-249h-114v508h106v-75h2q51 82 145 82z" />
    <glyph glyph-name="Sacute" unicode="&#x15a;" horiz-adv-x="620" 
d="M312 760h-93l81 142h144zM295 727q129 0 195.5 -59.5t66.5 -174.5h-121q0 67 -37 101.5t-106 34.5q-58 0 -91.5 -25.5t-33.5 -69.5q0 -46 35 -68t128 -45q48 -12 78 -21t65.5 -26.5t55.5 -38.5t33.5 -54.5t13.5 -77.5q0 -99 -73 -158.5t-193 -59.5q-131 0 -204 64.5
t-73 185.5h123q0 -151 155 -151q66 0 103.5 29t37.5 79t-34 71t-127 44q-50 13 -78.5 21.5t-65.5 26t-56 38t-33 54t-14 76.5q0 91 68.5 147.5t181.5 56.5z" />
    <glyph glyph-name="sacute" unicode="&#x15b;" horiz-adv-x="509" 
d="M265 568h-93l81 144h144zM248 523q98 0 151.5 -44.5t54.5 -128.5h-110q0 90 -97 90q-40 0 -62 -16t-22 -44q0 -30 23 -43t92 -30q28 -7 35.5 -9t33 -9.5t34 -13t27.5 -15.5t26.5 -20.5l18 -25.5t14 -33.5t3.5 -40.5q0 -70 -58 -112.5t-155 -42.5q-104 0 -161.5 46.5
t-58.5 135.5h116q0 -47 27.5 -72t78.5 -25q43 0 67.5 17t24.5 46q0 36 -26 50.5t-102 33.5l-37.5 9.5t-33.5 10t-34 14t-26.5 18.5t-23.5 25.5t-13 33t-6 43.5q0 68 55 110t144 42z" />
    <glyph glyph-name="Scircumflex" unicode="&#x15c;" horiz-adv-x="620" 
d="M233 902h123l114 -142h-108l-68 82l-67 -82h-108zM295 727q129 0 195.5 -59.5t66.5 -174.5h-121q0 67 -37 101.5t-106 34.5q-58 0 -91.5 -25.5t-33.5 -69.5q0 -46 35 -68t128 -45q48 -12 78 -21t65.5 -26.5t55.5 -38.5t33.5 -54.5t13.5 -77.5q0 -99 -73 -158.5
t-193 -59.5q-131 0 -204 64.5t-73 185.5h123q0 -151 155 -151q66 0 103.5 29t37.5 79t-34 71t-127 44q-50 13 -78.5 21.5t-65.5 26t-56 38t-33 54t-14 76.5q0 91 68.5 147.5t181.5 56.5z" />
    <glyph glyph-name="scircumflex" unicode="&#x15d;" horiz-adv-x="509" 
d="M315 568l-67 84l-68 -84h-108l114 144h123l114 -144h-108zM248 523q98 0 151.5 -44.5t54.5 -128.5h-110q0 90 -97 90q-40 0 -62 -16t-22 -44q0 -30 23 -43t92 -30q28 -7 35.5 -9t33 -9.5t34 -13t27.5 -15.5t26.5 -20.5l18 -25.5t14 -33.5t3.5 -40.5q0 -70 -58 -112.5
t-155 -42.5q-104 0 -161.5 46.5t-58.5 135.5h116q0 -47 27.5 -72t78.5 -25q43 0 67.5 17t24.5 46q0 36 -26 50.5t-102 33.5l-37.5 9.5t-33.5 10t-34 14t-26.5 18.5t-23.5 25.5t-13 33t-6 43.5q0 68 55 110t144 42z" />
    <glyph glyph-name="Scedilla" unicode="&#x15e;" horiz-adv-x="620" 
d="M577 203q0 -93 -65.5 -152t-175.5 -65l-30 -48q9 4 29 4q35 0 59 -20t24 -54q0 -39 -30.5 -65t-86.5 -26q-57 0 -109 29l20 40q39 -21 79 -21q53 0 53 38q0 18 -13.5 29t-37.5 11q-17 0 -32 -6l-19 21l43 68q-119 6 -185 70t-66 179h123q0 -151 155 -151q66 0 103.5 29
t37.5 79t-34 71t-127 44q-50 13 -78.5 21.5t-65.5 26t-56 38t-33 54t-14 76.5q0 91 68.5 147.5t181.5 56.5q129 0 195.5 -59.5t66.5 -174.5h-121q0 67 -37 101.5t-106 34.5q-58 0 -91.5 -25.5t-33.5 -69.5q0 -46 35 -68t128 -45q48 -12 78 -21t65.5 -26.5t55.5 -38.5
t33.5 -54.5t13.5 -77.5z" />
    <glyph glyph-name="scedilla" unicode="&#x15f;" horiz-adv-x="509" 
d="M470 140q0 -64 -49 -105.5t-134 -48.5l-30 -48q9 4 29 4q35 0 59 -20t24 -54q0 -39 -30.5 -65t-86.5 -26q-57 0 -109 29l20 40q39 -21 79 -21q53 0 53 38q0 18 -13.5 29t-37.5 11q-17 0 -32 -6l-19 21l43 68q-95 5 -146.5 50.5t-52.5 130.5h116q0 -47 27.5 -72t78.5 -25
q43 0 67.5 17t24.5 46q0 36 -26 50.5t-102 33.5l-37.5 9.5t-33.5 10t-34 14t-26.5 18.5t-23.5 25.5t-13 33t-6 43.5q0 68 55 110t144 42q98 0 151.5 -44.5t54.5 -128.5h-110q0 90 -97 90q-40 0 -62 -16t-22 -44q0 -30 23 -43t92 -30q28 -7 35.5 -9t33 -9.5t34 -13
t27.5 -15.5t26.5 -20.5l18 -25.5t14 -33.5t3.5 -40.5z" />
    <glyph glyph-name="Scaron" unicode="&#x160;" horiz-adv-x="620" 
d="M356 760h-123l-114 142h108l68 -82l67 82h108zM295 727q129 0 195.5 -59.5t66.5 -174.5h-121q0 67 -37 101.5t-106 34.5q-58 0 -91.5 -25.5t-33.5 -69.5q0 -46 35 -68t128 -45q48 -12 78 -21t65.5 -26.5t55.5 -38.5t33.5 -54.5t13.5 -77.5q0 -99 -73 -158.5t-193 -59.5
q-131 0 -204 64.5t-73 185.5h123q0 -151 155 -151q66 0 103.5 29t37.5 79t-34 71t-127 44q-50 13 -78.5 21.5t-65.5 26t-56 38t-33 54t-14 76.5q0 91 68.5 147.5t181.5 56.5z" />
    <glyph glyph-name="scaron" unicode="&#x161;" horiz-adv-x="509" 
d="M309 568h-123l-114 144h108l68 -84l67 84h108zM248 523q98 0 151.5 -44.5t54.5 -128.5h-110q0 90 -97 90q-40 0 -62 -16t-22 -44q0 -30 23 -43t92 -30q28 -7 35.5 -9t33 -9.5t34 -13t27.5 -15.5t26.5 -20.5l18 -25.5t14 -33.5t3.5 -40.5q0 -70 -58 -112.5t-155 -42.5
q-104 0 -161.5 46.5t-58.5 135.5h116q0 -47 27.5 -72t78.5 -25q43 0 67.5 17t24.5 46q0 36 -26 50.5t-102 33.5l-37.5 9.5t-33.5 10t-34 14t-26.5 18.5t-23.5 25.5t-13 33t-6 43.5q0 68 55 110t144 42z" />
    <glyph glyph-name="Tcedilla" unicode="&#x162;" horiz-adv-x="607" 
d="M597 608h-234v-608h-119v608h-234v104h587v-104zM358 -158l-62 -106h-47l42 106h-40v96h107v-96z" />
    <glyph glyph-name="tcedilla" unicode="&#x163;" horiz-adv-x="339" 
d="M277 87q22 0 35 5v-89q-31 -9 -64 -9q-81 0 -117.5 36.5t-36.5 119.5v271h-85v87h85v127h114v-127h99v-87h-99v-254q0 -43 16 -61.5t53 -18.5zM136 -62h107v-96l-62 -106h-47l42 106h-40v96z" />
    <glyph glyph-name="Tcaron" unicode="&#x164;" horiz-adv-x="607" 
d="M365 760h-123l-114 142h108l68 -82l67 82h108zM597 608h-234v-608h-119v608h-234v104h587v-104z" />
    <glyph glyph-name="tcaron" unicode="&#x165;" horiz-adv-x="339" 
d="M306 535h-66l28 177h95zM208 421v-254q0 -43 16 -61.5t53 -18.5q22 0 35 5v-89q-31 -9 -64 -9q-81 0 -117.5 36.5t-36.5 119.5v271h-85v87h85v127h114v-127h99v-87h-99z" />
    <glyph glyph-name="Tbar" unicode="&#x166;" horiz-adv-x="607" 
d="M363 608v-204h139v-88h-139v-316h-119v316h-138v88h138v204h-234v104h587v-104h-234z" />
    <glyph glyph-name="tbar" unicode="&#x167;" horiz-adv-x="337" 
d="M277 87q22 0 35 5v-89q-31 -9 -64 -9q-81 0 -117 36.5t-36 119.5v84h-83v71h83v116h-86v87h86v127h113v-127h99v-87h-99v-116h96v-71h-96v-67q0 -43 16 -61.5t53 -18.5z" />
    <glyph glyph-name="Utilde" unicode="&#x168;" horiz-adv-x="712" 
d="M468 899h68q-3 -59 -31.5 -92t-77.5 -33q-34 0 -76 24.5t-61 24.5q-40 0 -46 -49h-68q3 59 32 92t78 33q34 0 76 -24t60 -24q42 0 46 48zM629 712v-443q0 -138 -70.5 -211t-202.5 -73t-203 73t-71 211v443h120v-439q0 -89 40 -135t114 -46t114 46t40 135v439h119z" />
    <glyph glyph-name="utilde" unicode="&#x169;" horiz-adv-x="588" 
d="M406 709h68q-3 -59 -31.5 -92t-77.5 -33q-34 0 -76 24t-61 24q-40 0 -46 -48h-68q3 59 32 92t78 33q34 0 76 -24.5t60 -24.5q41 0 46 49zM253 -12q-88 0 -136.5 53t-48.5 156v311h114v-301q0 -127 103 -127q51 0 83.5 38t32.5 108v282h114v-508h-108v66h-2
q-54 -78 -152 -78z" />
    <glyph glyph-name="Umacron" unicode="&#x16a;" horiz-adv-x="712" 
d="M508 783h-305v78h305v-78zM629 712v-443q0 -138 -70.5 -211t-202.5 -73t-203 73t-71 211v443h120v-439q0 -89 40 -135t114 -46t114 46t40 135v439h119z" />
    <glyph glyph-name="umacron" unicode="&#x16b;" horiz-adv-x="588" 
d="M446 607h-305v78h305v-78zM253 -12q-88 0 -136.5 53t-48.5 156v311h114v-301q0 -127 103 -127q51 0 83.5 38t32.5 108v282h114v-508h-108v66h-2q-54 -78 -152 -78z" />
    <glyph glyph-name="Ubreve" unicode="&#x16c;" horiz-adv-x="712" 
d="M441 902h81q-5 -70 -48.5 -108.5t-117.5 -38.5q-73 0 -116.5 38.5t-48.5 108.5h80q8 -72 85 -72t85 72zM629 712v-443q0 -138 -70.5 -211t-202.5 -73t-203 73t-71 211v443h120v-439q0 -89 40 -135t114 -46t114 46t40 135v439h119z" />
    <glyph glyph-name="ubreve" unicode="&#x16d;" horiz-adv-x="588" 
d="M379 712h81q-5 -70 -48.5 -108.5t-117.5 -38.5q-73 0 -116.5 38.5t-48.5 108.5h80q8 -72 85 -72t85 72zM253 -12q-88 0 -136.5 53t-48.5 156v311h114v-301q0 -127 103 -127q51 0 83.5 38t32.5 108v282h114v-508h-108v66h-2q-54 -78 -152 -78z" />
    <glyph glyph-name="Uring" unicode="&#x16e;" horiz-adv-x="712" 
d="M356 959q44 0 74 -30.5t30 -73.5t-30 -73.5t-74 -30.5t-74 30.5t-30 73.5t30 73.5t74 30.5zM356 911q-23 0 -39.5 -16.5t-16.5 -39.5t16.5 -39.5t39.5 -16.5t39.5 16.5t16.5 39.5t-16.5 39.5t-39.5 16.5zM629 712v-443q0 -138 -70.5 -211t-202.5 -73t-203 73t-71 211v443
h120v-439q0 -89 40 -135t114 -46t114 46t40 135v439h119z" />
    <glyph glyph-name="uring" unicode="&#x16f;" horiz-adv-x="588" 
d="M294 769q44 0 74 -30.5t30 -73.5t-30 -73.5t-74 -30.5t-74 30.5t-30 73.5t30 73.5t74 30.5zM294 721q-23 0 -39.5 -16.5t-16.5 -39.5t16.5 -39.5t39.5 -16.5t39.5 16.5t16.5 39.5t-16.5 39.5t-39.5 16.5zM253 -12q-88 0 -136.5 53t-48.5 156v311h114v-301
q0 -127 103 -127q51 0 83.5 38t32.5 108v282h114v-508h-108v66h-2q-54 -78 -152 -78z" />
    <glyph glyph-name="Uhungarumlaut" unicode="&#x170;" horiz-adv-x="712" 
d="M278 758h-92l101 144h129zM453 758h-92l101 144h129zM629 712v-443q0 -138 -70.5 -211t-202.5 -73t-203 73t-71 211v443h120v-439q0 -89 40 -135t114 -46t114 46t40 135v439h119z" />
    <glyph glyph-name="uhungarumlaut" unicode="&#x171;" horiz-adv-x="588" 
d="M230 568h-92l101 144h129zM405 568h-92l101 144h129zM253 -12q-88 0 -136.5 53t-48.5 156v311h114v-301q0 -127 103 -127q51 0 83.5 38t32.5 108v282h114v-508h-108v66h-2q-54 -78 -152 -78z" />
    <glyph glyph-name="Uogonek" unicode="&#x172;" horiz-adv-x="712" 
d="M629 712v-443q0 -165 -114 -256q-71 -54 -71 -101q0 -40 38 -40q20 0 37 6v-62q-27 -11 -68 -11q-106 0 -106 87q0 50 57 96v2q-23 -5 -46 -5q-132 0 -203 73t-71 211v443h120v-439q0 -89 40 -135t114 -46t114 46t40 135v439h119z" />
    <glyph glyph-name="uogonek" unicode="&#x173;" horiz-adv-x="588" 
d="M480 -128q20 0 37 6v-62q-27 -11 -68 -11q-106 0 -106 83q0 32 18.5 57t59.5 55h-14v66h-2q-54 -78 -152 -78q-88 0 -136.5 53t-48.5 156v311h114v-301q0 -127 103 -127q51 0 83.5 38t32.5 108v282h114v-508h-1q-72 -51 -72 -95q0 -33 38 -33z" />
    <glyph glyph-name="Wcircumflex" unicode="&#x174;" horiz-adv-x="936" 
d="M405 902h123l114 -142h-108l-68 82l-67 -82h-108zM769 0h-161l-71 296q-40 168 -68 313h-2q-28 -145 -68 -313l-71 -296h-161l-157 712h118l58 -274q39 -180 63 -321h2q37 176 72 322l66 273h158l66 -273q35 -146 72 -322h2q21 123 62 321l59 274h118z" />
    <glyph glyph-name="wcircumflex" unicode="&#x175;" horiz-adv-x="790" 
d="M462 568l-67 84l-68 -84h-108l114 144h123l114 -144h-108zM660 0h-163l-52 210q-24 97 -49 219h-2q-25 -122 -49 -219l-52 -210h-163l-124 508h114l46 -204q28 -120 46 -225h2q19 93 50 221l51 208h160l51 -208q31 -128 50 -221h2q18 105 46 225l46 204h114z" />
    <glyph glyph-name="Ycircumflex" unicode="&#x176;" horiz-adv-x="626" 
d="M251 902h123l114 -142h-108l-68 82l-67 -82h-108zM373 286v-286h-120v286l-250 426h136l78 -141q50 -90 95 -184h2q48 100 96 184l77 141h135z" />
    <glyph glyph-name="ycircumflex" unicode="&#x177;" horiz-adv-x="488" 
d="M311 568l-67 84l-68 -84h-108l114 144h123l114 -144h-108zM494 508l-196 -530q-36 -96 -84.5 -132t-137.5 -36q-31 0 -57 7v93q23 -7 48 -7q46 0 70.5 20t42.5 73l-186 512h122l127 -378h2l131 378h118z" />
    <glyph glyph-name="Ydieresis" unicode="&#x178;" horiz-adv-x="626" 
d="M261 772h-102v109h102v-109zM467 772h-102v109h102v-109zM373 286v-286h-120v286l-250 426h136l78 -141q50 -90 95 -184h2q48 100 96 184l77 141h135z" />
    <glyph glyph-name="Zacute" unicode="&#x179;" horiz-adv-x="574" 
d="M302 760h-93l81 142h144zM537 603l-376 -499v-2h394v-102h-536v109l376 499v2h-362v102h504v-109z" />
    <glyph glyph-name="zacute" unicode="&#x17a;" horiz-adv-x="476" 
d="M247 568h-93l81 144h144zM439 413l-274 -320v-2h284v-91h-422v95l274 320v2h-264v91h402v-95z" />
    <glyph glyph-name="Zdotaccent" unicode="&#x17b;" horiz-adv-x="574" 
d="M342 769h-114v109h114v-109zM537 603l-376 -499v-2h394v-102h-536v109l376 499v2h-362v102h504v-109z" />
    <glyph glyph-name="zdotaccent" unicode="&#x17c;" horiz-adv-x="476" 
d="M287 603h-114v109h114v-109zM439 413l-274 -320v-2h284v-91h-422v95l274 320v2h-264v91h402v-95z" />
    <glyph glyph-name="Zcaron" unicode="&#x17d;" horiz-adv-x="574" 
d="M346 760h-123l-114 142h108l68 -82l67 82h108zM537 603l-376 -499v-2h394v-102h-536v109l376 499v2h-362v102h504v-109z" />
    <glyph glyph-name="zcaron" unicode="&#x17e;" horiz-adv-x="476" 
d="M291 568h-123l-114 144h108l68 -84l67 84h108zM439 413l-274 -320v-2h284v-91h-422v95l274 320v2h-264v91h402v-95z" />
    <glyph glyph-name="longs" unicode="&#x17f;" horiz-adv-x="323" 
d="M252 719q25 0 60 -7v-84q-14 4 -28 4q-37 0 -55 -19.5t-18 -63.5v-549h-113v421h-86v87h86v54q0 157 154 157z" />
    <glyph glyph-name="florin" unicode="&#x192;" 
d="M492 721q38 0 68 -8v-91q-20 6 -47 6q-43 0 -66.5 -22t-36.5 -76l-16 -62h110v-86h-130l-97 -382q-26 -105 -70.5 -147.5t-127.5 -42.5q-35 0 -57 7v91q18 -6 44 -6q40 0 61.5 22t38.5 86l94 372h-101v86h121l19 72q24 96 69 138.5t124 42.5z" />
    <glyph glyph-name="Scommaaccent" unicode="&#x218;" horiz-adv-x="620" 
d="M295 727q129 0 195.5 -59.5t66.5 -174.5h-121q0 67 -37 101.5t-106 34.5q-58 0 -91.5 -25.5t-33.5 -69.5q0 -46 35 -68t128 -45q48 -12 78 -21t65.5 -26.5t55.5 -38.5t33.5 -54.5t13.5 -77.5q0 -99 -73 -158.5t-193 -59.5q-131 0 -204 64.5t-73 185.5h123
q0 -151 155 -151q66 0 103.5 29t37.5 79t-34 71t-127 44q-50 13 -78.5 21.5t-65.5 26t-56 38t-33 54t-14 76.5q0 91 68.5 147.5t181.5 56.5zM359 -158l-62 -106h-47l42 106h-40v96h107v-96z" />
    <glyph glyph-name="scommaaccent" unicode="&#x219;" horiz-adv-x="509" 
d="M248 523q98 0 151.5 -44.5t54.5 -128.5h-110q0 90 -97 90q-40 0 -62 -16t-22 -44q0 -30 23 -43t92 -30q28 -7 35.5 -9t33 -9.5t34 -13t27.5 -15.5t26.5 -20.5l18 -25.5t14 -33.5t3.5 -40.5q0 -70 -58 -112.5t-155 -42.5q-104 0 -161.5 46.5t-58.5 135.5h116
q0 -47 27.5 -72t78.5 -25q43 0 67.5 17t24.5 46q0 36 -26 50.5t-102 33.5l-37.5 9.5t-33.5 10t-34 14t-26.5 18.5t-23.5 25.5t-13 33t-6 43.5q0 68 55 110t144 42zM310 -158l-62 -106h-47l42 106h-40v96h107v-96z" />
    <glyph glyph-name="Tcommaaccent" unicode="&#x21a;" horiz-adv-x="607" 
d="M597 608h-234v-608h-119v608h-234v104h587v-104zM358 -158l-62 -106h-47l42 106h-40v96h107v-96z" />
    <glyph glyph-name="tcommaaccent" unicode="&#x21b;" horiz-adv-x="339" 
d="M277 87q22 0 35 5v-89q-31 -9 -64 -9q-81 0 -117.5 36.5t-36.5 119.5v271h-85v87h85v127h114v-127h99v-87h-99v-254q0 -43 16 -61.5t53 -18.5zM136 -62h107v-96l-62 -106h-47l42 106h-40v96z" />
    <glyph glyph-name="dotlessj" unicode="&#x237;" horiz-adv-x="264" 
d="M191 508v-528q0 -88 -42.5 -129t-117.5 -41q-27 0 -58 7v85q13 -3 28 -3q39 0 57.5 21.5t18.5 74.5v513h114z" />
    <glyph glyph-name="apostrophemod" unicode="&#x2bc;" horiz-adv-x="246" 
d="M180 587l-55 -140h-62l41 140h-39v125h115v-125z" />
    <glyph glyph-name="circumflex" unicode="&#x2c6;" horiz-adv-x="451" 
d="M293 568l-67 84l-68 -84h-108l114 144h123l114 -144h-108z" />
    <glyph glyph-name="caron" unicode="&#x2c7;" horiz-adv-x="451" 
d="M287 568h-123l-114 144h108l68 -84l67 84h108z" />
    <glyph glyph-name="firsttonechinese" unicode="&#x2c9;" horiz-adv-x="405" 
d="M355 607h-305v78h305v-78z" />
    <glyph glyph-name="breve" unicode="&#x2d8;" horiz-adv-x="431" 
d="M300 712h81q-5 -70 -48.5 -108.5t-117.5 -38.5q-73 0 -116.5 38.5t-48.5 108.5h80q8 -72 85 -72t85 72z" />
    <glyph glyph-name="dotaccent" unicode="&#x2d9;" horiz-adv-x="214" 
d="M164 603h-114v109h114v-109z" />
    <glyph glyph-name="ring" unicode="&#x2da;" horiz-adv-x="308" 
d="M154 769q44 0 74 -30.5t30 -73.5t-30 -73.5t-74 -30.5t-74 30.5t-30 73.5t30 73.5t74 30.5zM154 721q-23 0 -39.5 -16.5t-16.5 -39.5t16.5 -39.5t39.5 -16.5t39.5 16.5t16.5 39.5t-16.5 39.5t-39.5 16.5z" />
    <glyph glyph-name="ogonek" unicode="&#x2db;" horiz-adv-x="274" 
d="M129 1l92 -1q-72 -51 -72 -95q0 -33 38 -33q20 0 37 6v-62q-27 -11 -68 -11q-106 0 -106 83q0 32 19 58t60 55z" />
    <glyph glyph-name="tilde" unicode="&#x2dc;" horiz-adv-x="460" 
d="M342 709h68q-3 -59 -31.5 -92t-77.5 -33q-34 0 -76 24t-61 24q-40 0 -46 -48h-68q3 59 32 92t78 33q34 0 76 -24.5t60 -24.5q41 0 46 49z" />
    <glyph glyph-name="hungarumlaut" unicode="&#x2dd;" horiz-adv-x="505" 
d="M142 568h-92l101 144h129zM317 568h-92l101 144h129z" />
    <glyph glyph-name="commaturnedabovecomb" unicode="&#x312;" horiz-adv-x="0" 
d="M117 676h39v-96h-106v96l62 106h47z" />
    <glyph glyph-name="commaaccent" unicode="&#x326;" horiz-adv-x="0" 
d="M159 -158l-62 -106h-47l42 106h-40v96h107v-96z" />
    <glyph glyph-name="Delta" unicode="&#x394;" horiz-adv-x="687" 
d="M683 0h-679l260 712h162zM520 104l-85 249l-91 283h-2q-32 -105 -92 -283l-85 -249h355z" />
    <glyph glyph-name="Omega" unicode="&#x3a9;" horiz-adv-x="731" 
d="M366 727q146 0 233 -80t87 -235q0 -91 -39 -164t-110 -144v-2h160v-102h-275v107q68 69 104 136t36 153q0 110 -53.5 167t-142.5 57t-142.5 -57t-53.5 -167q0 -86 36 -153t103 -136v-107h-275v102h160v2q-71 72 -110 144.5t-39 163.5q0 155 87.5 235t233.5 80z" />
    <glyph glyph-name="mu" unicode="&#x3bc;" horiz-adv-x="598" 
d="M517 508v-352q0 -41 10.5 -56.5t34.5 -15.5q12 0 24 3v-84q-29 -10 -72 -10q-87 0 -102 81h-2q-16 -38 -51 -59.5t-81 -21.5q-61 0 -91 32v-210h-114v693h114v-300q0 -128 100 -128q51 0 83.5 38.5t32.5 108.5v281h114z" />
    <glyph glyph-name="pi" unicode="&#x3c0;" horiz-adv-x="662" 
d="M644 421h-109v-256q0 -47 15.5 -65.5t47.5 -18.5q18 0 29 4v-83q-32 -9 -70 -9q-69 0 -102.5 36t-33.5 122v270h-198v-421h-114v421h-99v87h634v-87z" />
    <glyph glyph-name="Wgrave" unicode="&#x1e80;" horiz-adv-x="936" 
d="M461 902l82 -142h-93l-132 142h143zM769 0h-161l-71 296q-40 168 -68 313h-2q-28 -145 -68 -313l-71 -296h-161l-157 712h118l58 -274q39 -180 63 -321h2q37 176 72 322l66 273h158l66 -273q35 -146 72 -322h2q21 123 62 321l59 274h118z" />
    <glyph glyph-name="wgrave" unicode="&#x1e81;" horiz-adv-x="790" 
d="M389 712l82 -144h-93l-132 144h143zM660 0h-163l-52 210q-24 97 -49 219h-2q-25 -122 -49 -219l-52 -210h-163l-124 508h114l46 -204q28 -120 46 -225h2q19 93 50 221l51 208h160l51 -208q31 -128 50 -221h2q18 105 46 225l46 204h114z" />
    <glyph glyph-name="Wacute" unicode="&#x1e82;" horiz-adv-x="936" 
d="M484 760h-93l81 142h144zM769 0h-161l-71 296q-40 168 -68 313h-2q-28 -145 -68 -313l-71 -296h-161l-157 712h118l58 -274q39 -180 63 -321h2q37 176 72 322l66 273h158l66 -273q35 -146 72 -322h2q21 123 62 321l59 274h118z" />
    <glyph glyph-name="wacute" unicode="&#x1e83;" horiz-adv-x="790" 
d="M412 568h-93l81 144h144zM660 0h-163l-52 210q-24 97 -49 219h-2q-25 -122 -49 -219l-52 -210h-163l-124 508h114l46 -204q28 -120 46 -225h2q19 93 50 221l51 208h160l51 -208q31 -128 50 -221h2q18 105 46 225l46 204h114z" />
    <glyph glyph-name="Wdieresis" unicode="&#x1e84;" horiz-adv-x="936" 
d="M415 772h-102v109h102v-109zM621 772h-102v109h102v-109zM769 0h-161l-71 296q-40 168 -68 313h-2q-28 -145 -68 -313l-71 -296h-161l-157 712h118l58 -274q39 -180 63 -321h2q37 176 72 322l66 273h158l66 -273q35 -146 72 -322h2q21 123 62 321l59 274h118z" />
    <glyph glyph-name="wdieresis" unicode="&#x1e85;" horiz-adv-x="790" 
d="M343 603h-102v109h102v-109zM549 603h-102v109h102v-109zM660 0h-163l-52 210q-24 97 -49 219h-2q-25 -122 -49 -219l-52 -210h-163l-124 508h114l46 -204q28 -120 46 -225h2q19 93 50 221l51 208h160l51 -208q31 -128 50 -221h2q18 105 46 225l46 204h114z" />
    <glyph glyph-name="Germandbls" unicode="&#x1e9e;" horiz-adv-x="785" 
d="M688 594l-157 -170q212 -49 212 -231q0 -98 -65 -152t-174 -54q-111 0 -169.5 51t-58.5 149h117q0 -100 109 -100q54 0 85 28t31 80q0 70 -54.5 105.5t-162.5 43.5v84l137 147q-56 51 -144 51q-196 0 -196 -208v-418h-120v416q0 151 83.5 230.5t239.5 79.5
q89 0 163.5 -35.5t123.5 -96.5z" />
    <glyph glyph-name="Ygrave" unicode="&#x1ef2;" horiz-adv-x="626" 
d="M307 902l82 -142h-93l-132 142h143zM373 286v-286h-120v286l-250 426h136l78 -141q50 -90 95 -184h2q48 100 96 184l77 141h135z" />
    <glyph glyph-name="ygrave" unicode="&#x1ef3;" horiz-adv-x="488" 
d="M238 712l82 -144h-93l-132 144h143zM494 508l-196 -530q-36 -96 -84.5 -132t-137.5 -36q-31 0 -57 7v93q23 -7 48 -7q46 0 70.5 20t42.5 73l-186 512h122l127 -378h2l131 378h118z" />
    <glyph glyph-name="hyphentwo" unicode="&#x2010;" horiz-adv-x="310" 
d="M280 245h-250v94h250v-94z" />
    <glyph glyph-name="endash" unicode="&#x2013;" horiz-adv-x="500" 
d="M480 245h-460v94h460v-94z" />
    <glyph glyph-name="emdash" unicode="&#x2014;" horiz-adv-x="1000" 
d="M980 245h-960v94h960v-94z" />
    <glyph glyph-name="horizontalbar" unicode="&#x2015;" horiz-adv-x="1000" 
d="M980 245h-960v94h960v-94z" />
    <glyph glyph-name="underscoredbl" unicode="&#x2017;" horiz-adv-x="500" 
d="M500 -110h-500v60h500v-60zM500 -247h-500v60h500v-60z" />
    <glyph glyph-name="quoteleft" unicode="&#x2018;" horiz-adv-x="246" 
d="M65 572l56 140h62l-41 -140h39v-125h-116v125z" />
    <glyph glyph-name="quoteright" unicode="&#x2019;" horiz-adv-x="246" 
d="M180 587l-55 -140h-62l41 140h-39v125h115v-125z" />
    <glyph glyph-name="quotesinglbase" unicode="&#x201a;" horiz-adv-x="246" 
d="M180 0l-55 -140h-62l41 140h-39v125h115v-125z" />
    <glyph glyph-name="quotedblleft" unicode="&#x201c;" horiz-adv-x="417" 
d="M65 572l56 140h62l-41 -140h39v-125h-116v125zM237 572l55 140h62l-41 -140h39v-125h-115v125z" />
    <glyph glyph-name="quotedblright" unicode="&#x201d;" horiz-adv-x="417" 
d="M180 587l-55 -140h-62l41 140h-39v125h115v-125zM351 587l-55 -140h-62l41 140h-39v125h115v-125z" />
    <glyph glyph-name="quotedblbase" unicode="&#x201e;" horiz-adv-x="417" 
d="M180 0l-55 -140h-62l41 140h-39v125h115v-125zM351 0l-55 -140h-62l41 140h-39v125h115v-125z" />
    <glyph glyph-name="dagger" unicode="&#x2020;" horiz-adv-x="550" 
d="M333 529h163v-92h-163v-557h-115v557h-164v92h164v183h115v-183z" />
    <glyph glyph-name="daggerdbl" unicode="&#x2021;" horiz-adv-x="550" 
d="M333 529h163v-92h-163v-261h163v-93h-163v-203h-115v203h-164v93h164v261h-164v92h164v183h115v-183z" />
    <glyph glyph-name="bullet" unicode="&#x2022;" horiz-adv-x="347" 
d="M174 229q-53 0 -90.5 37.5t-37.5 89.5q0 53 37.5 90t90.5 37t90 -37t37 -90t-37 -90t-90 -37z" />
    <glyph glyph-name="ellipsis" unicode="&#x2026;" horiz-adv-x="826" 
d="M187 0h-132v142h132v-142zM478 0h-131v142h131v-142zM770 0h-131v142h131v-142z" />
    <glyph glyph-name="perthousand" unicode="&#x2030;" horiz-adv-x="1052" 
d="M185 -30h-77l421 734h77zM170 689q67 0 104 -44t37 -124q0 -81 -36.5 -124.5t-104.5 -43.5q-67 0 -103.5 43.5t-36.5 124.5q0 80 36.5 124t103.5 44zM170 622q-26 0 -41 -26.5t-15 -74.5t15 -74.5t41 -26.5q57 0 57 101q0 48 -15 74.5t-42 26.5zM543 322q68 0 104.5 -44
t36.5 -125q0 -80 -37 -124t-104 -44t-103.5 44t-36.5 124q0 81 36.5 125t103.5 44zM882 322q67 0 103.5 -44t36.5 -125q0 -80 -36.5 -124t-103.5 -44t-103.5 44t-36.5 124q0 81 36.5 125t103.5 44zM543 254q-26 0 -41 -26.5t-15 -74.5t15 -74.5t41 -26.5q27 0 42 26.5
t15 74.5q0 101 -57 101zM882 254q-56 0 -56 -101t56 -101t56 101t-56 101z" />
    <glyph glyph-name="guilsinglleft" unicode="&#x2039;" horiz-adv-x="308" 
d="M153 254l109 -200h-102l-114 200l114 200h102z" />
    <glyph glyph-name="guilsinglright" unicode="&#x203a;" horiz-adv-x="308" 
d="M148 454l114 -200l-114 -200h-102l109 200l-109 200h102z" />
    <glyph glyph-name="interrobang" unicode="&#x203d;" horiz-adv-x="532" 
d="M323 712l-3 -61q81 -11 127.5 -55.5t46.5 -112.5q0 -55 -20.5 -91t-82.5 -84q-49 -38 -63.5 -62t-14.5 -70h-94l-14 365q-51 -24 -55 -94h-118q3 84 46.5 135t122.5 66l-2 64h124zM335 389q23 24 31 42t8 46q0 54 -58 71l-8 -185h2q7 8 25 26zM199 119h129v-119h-129v119
z" />
    <glyph glyph-name="overline" unicode="&#x203e;" horiz-adv-x="500" 
d="M500 783h-500v78h500v-78z" />
    <glyph glyph-name="fraction" unicode="&#x2044;" horiz-adv-x="148" 
d="M-73 0h-83l377 674h82z" />
    <glyph glyph-name="zerosuperior" unicode="&#x2070;" horiz-adv-x="451" 
d="M226 813q92 0 142 -64t50 -183t-50 -183t-142 -64q-93 0 -142.5 64t-49.5 183t49.5 183t142.5 64zM226 732q-43 0 -66 -43t-23 -123q0 -81 23 -124t66 -43t65.5 43.5t22.5 123.5t-22.5 123t-65.5 43z" />
    <glyph glyph-name="foursuperior" unicode="&#x2074;" horiz-adv-x="427" 
d="M416 436h-78v-106h-99v106h-228v83l195 283h132v-288h78v-78zM102 514h140v56q0 52 4 154h-2q-22 -36 -93 -140z" />
    <glyph glyph-name="fivesuperior" unicode="&#x2075;" horiz-adv-x="433" 
d="M372 719h-221l-11 -110h2q35 35 95 35q72 0 116.5 -43t44.5 -113q0 -77 -50.5 -123t-133.5 -46q-82 0 -130 38.5t-48 104.5h102q1 -30 21.5 -46.5t53.5 -16.5q38 0 59.5 22.5t21.5 62.5q0 39 -21.5 61t-57.5 22q-59 0 -74 -53l-100 6l27 282h304v-83z" />
    <glyph glyph-name="sixsuperior" unicode="&#x2076;" horiz-adv-x="432" 
d="M230 813q73 0 117 -37t49 -104h-103q-9 62 -67 62q-90 0 -96 -146h2q41 49 113 49q70 0 113.5 -42t43.5 -110q0 -74 -50.5 -120t-130.5 -46q-90 0 -138.5 59t-48.5 174q0 125 51.5 193t144.5 68zM222 563q-35 0 -56.5 -23t-21.5 -60t21.5 -59t56.5 -22t56 22.5t21 59.5
t-21 59.5t-56 22.5z" />
    <glyph glyph-name="sevensuperior" unicode="&#x2077;" horiz-adv-x="383" 
d="M372 802v-83q-117 -160 -161 -389h-110q52 234 170 387h-260v85h361z" />
    <glyph glyph-name="eightsuperior" unicode="&#x2078;" horiz-adv-x="434" 
d="M217 813q77 0 125.5 -36.5t48.5 -95.5q0 -37 -23 -64.5t-63 -40.5v-2q45 -12 71 -42.5t26 -73.5q0 -64 -50.5 -101.5t-134.5 -37.5t-134.5 37.5t-50.5 101.5q0 43 25.5 73.5t70.5 42.5v2q-40 13 -63 40.5t-23 64.5q0 59 48.5 95.5t126.5 36.5zM217 734q-35 0 -56.5 -16.5
t-21.5 -43.5q0 -29 21 -46.5t57 -17.5q35 0 56 17.5t21 46.5q0 27 -21 43.5t-56 16.5zM217 534q-38 0 -60.5 -18.5t-22.5 -49.5t22.5 -49t60.5 -18t60 18t22 49t-22.5 49.5t-59.5 18.5z" />
    <glyph glyph-name="ninesuperior" unicode="&#x2079;" horiz-adv-x="432" 
d="M202 319q-72 0 -116 37t-49 104h102q9 -62 67 -62q92 0 96 146h-2q-40 -49 -113 -49q-70 0 -113.5 42t-43.5 110q0 74 50.5 120t130.5 46q90 0 139 -59t49 -174q0 -125 -52 -193t-145 -68zM210 569q35 0 56.5 23t21.5 60t-21.5 59t-56.5 22t-56 -22.5t-21 -59.5t21 -59.5
t56 -22.5z" />
    <glyph glyph-name="plussuperior" unicode="&#x207a;" horiz-adv-x="410" 
d="M245 590h118v-77h-118v-115h-79v115h-119v77h119v116h79v-116z" />
    <glyph glyph-name="minussuperior" unicode="&#x207b;" horiz-adv-x="410" 
d="M363 513h-316v77h316v-77z" />
    <glyph glyph-name="equalsuperior" unicode="&#x207c;" horiz-adv-x="410" 
d="M363 581h-316v75h316v-75zM363 447h-316v75h316v-75z" />
    <glyph glyph-name="parenleftsuperior" unicode="&#x207d;" horiz-adv-x="235" 
d="M133 849h81q-77 -154 -77 -311t77 -311h-81q-101 143 -101 311q0 169 101 311z" />
    <glyph glyph-name="parenrightsuperior" unicode="&#x207e;" horiz-adv-x="235" 
d="M102 227h-81q77 154 77 311t-77 311h81q101 -143 101 -311q0 -169 -101 -311z" />
    <glyph glyph-name="zeroinferior" unicode="&#x2080;" horiz-adv-x="451" 
d="M226 311q92 0 142 -64t50 -183t-50 -183t-142 -64q-93 0 -142.5 64t-49.5 183t49.5 183t142.5 64zM226 230q-43 0 -66 -43t-23 -123q0 -81 23 -124t66 -43t65.5 43.5t22.5 123.5t-22.5 123t-65.5 43z" />
    <glyph glyph-name="oneinferior" unicode="&#x2081;" horiz-adv-x="300" 
d="M232 -172h-102v317h-120v74q64 0 95 19t38 62h89v-472z" />
    <glyph glyph-name="twoinferior" unicode="&#x2082;" horiz-adv-x="439" 
d="M221 311q78 0 125 -38.5t47 -99.5q0 -57 -33 -92.5t-98 -69.5q-65 -33 -86.5 -54t-22.5 -46h252v-83h-367q-2 6 -2 20q0 74 29.5 121t112.5 92q60 32 85 54.5t25 56.5q0 26 -18 42t-49 16q-73 0 -76 -77h-102q1 75 48.5 116.5t129.5 41.5z" />
    <glyph glyph-name="threeinferior" unicode="&#x2083;" horiz-adv-x="433" 
d="M216 311q81 0 128 -36t47 -97q0 -39 -20 -64t-64 -42v-2q47 -16 69 -43t22 -71q0 -63 -49.5 -101t-131.5 -38q-90 0 -138.5 42.5t-48.5 119.5h103q0 -81 84 -81q35 0 56.5 17t21.5 45q0 67 -98 67h-15v78h17q42 0 66.5 17t24.5 47q0 28 -20.5 44.5t-55.5 16.5
q-77 0 -77 -78h-101q0 75 47.5 117t132.5 42z" />
    <glyph glyph-name="fourinferior" unicode="&#x2084;" horiz-adv-x="427" 
d="M415 -66h-78v-106h-99v106h-228v83l195 283h132v-288h78v-78zM101 12h140v56q0 52 4 154h-2q-22 -36 -93 -140z" />
    <glyph glyph-name="fiveinferior" unicode="&#x2085;" horiz-adv-x="433" 
d="M372 217h-221l-11 -110h2q35 35 95 35q72 0 116.5 -43t44.5 -113q0 -77 -50.5 -123t-133.5 -46q-82 0 -130 38.5t-48 104.5h102q1 -30 21.5 -46.5t53.5 -16.5q38 0 59.5 22.5t21.5 62.5q0 39 -21.5 61t-57.5 22q-59 0 -74 -53l-100 6l27 282h304v-83z" />
    <glyph glyph-name="sixinferior" unicode="&#x2086;" horiz-adv-x="432" 
d="M230 311q73 0 117 -37t49 -104h-103q-9 62 -67 62q-90 0 -96 -146h2q41 49 113 49q70 0 113.5 -42t43.5 -110q0 -74 -50.5 -120t-130.5 -46q-90 0 -138.5 59t-48.5 174q0 125 51.5 193t144.5 68zM222 61q-35 0 -56.5 -23t-21.5 -60t21.5 -59t56.5 -22t56 22.5t21 59.5
t-21 59.5t-56 22.5z" />
    <glyph glyph-name="seveninferior" unicode="&#x2087;" horiz-adv-x="383" 
d="M371 300v-83q-117 -160 -161 -389h-110q52 234 170 387h-260v85h361z" />
    <glyph glyph-name="eightinferior" unicode="&#x2088;" horiz-adv-x="434" 
d="M217 311q77 0 125.5 -36.5t48.5 -95.5q0 -37 -23 -64.5t-63 -40.5v-2q45 -12 71 -42.5t26 -73.5q0 -64 -50.5 -101.5t-134.5 -37.5t-134.5 37.5t-50.5 101.5q0 43 25.5 73.5t70.5 42.5v2q-40 13 -63 40.5t-23 64.5q0 59 48.5 95.5t126.5 36.5zM217 232q-35 0 -56.5 -16.5
t-21.5 -43.5q0 -29 21 -46.5t57 -17.5q35 0 56 17.5t21 46.5q0 27 -21 43.5t-56 16.5zM217 32q-38 0 -60.5 -18.5t-22.5 -49.5t22.5 -49t60.5 -18t60 18t22 49t-22.5 49.5t-59.5 18.5z" />
    <glyph glyph-name="nineinferior" unicode="&#x2089;" horiz-adv-x="432" 
d="M202 -183q-72 0 -116 37t-49 104h102q9 -62 67 -62q92 0 96 146h-2q-40 -49 -113 -49q-70 0 -113.5 42t-43.5 110q0 74 50.5 120t130.5 46q90 0 139 -59t49 -174q0 -125 -52 -193t-145 -68zM210 67q35 0 56.5 23t21.5 60t-21.5 59t-56.5 22t-56 -22.5t-21 -59.5t21 -59.5
t56 -22.5z" />
    <glyph glyph-name="plusinferior" unicode="&#x208a;" horiz-adv-x="411" 
d="M245 88h118v-77h-118v-115h-79v115h-118v77h118v116h79v-116z" />
    <glyph glyph-name="minusinferior" unicode="&#x208b;" horiz-adv-x="411" 
d="M363 11h-315v77h315v-77z" />
    <glyph glyph-name="equalinferior" unicode="&#x208c;" horiz-adv-x="411" 
d="M363 79h-315v75h315v-75zM363 -55h-315v75h315v-75z" />
    <glyph glyph-name="parenleftinferior" unicode="&#x208d;" horiz-adv-x="235" 
d="M133 347h81q-77 -154 -77 -311t77 -311h-81q-101 143 -101 311q0 169 101 311z" />
    <glyph glyph-name="parenrightinferior" unicode="&#x208e;" horiz-adv-x="235" 
d="M102 -275h-81q77 154 77 311t-77 311h81q101 -143 101 -311q0 -169 -101 -311z" />
    <glyph glyph-name="franc" unicode="&#x20a3;" 
d="M225 570v-157h303v-104h-303v-105h168v-89h-168v-115h-120v115h-81v89h81v470h447v-104h-327z" />
    <glyph glyph-name="lira" unicode="&#x20a4;" 
d="M179 96h363v-96h-518v97q47 0 70 31t23 102v8h-93v64h93v48h-93v65h93v45q0 114 56.5 171.5t164.5 57.5q98 0 154 -56.5t56 -154.5h-115q0 54 -25 82.5t-70 28.5q-102 0 -102 -129v-45h124v-65h-124v-48h124v-64h-124v-7q0 -54 -13 -83.5t-44 -49.5v-2z" />
    <glyph glyph-name="peseta" unicode="&#x20a7;" horiz-adv-x="867" 
d="M805 87q21 0 36 5v-89q-31 -9 -65 -9q-81 0 -117 36.5t-36 119.5v271h-58q-9 -90 -74 -141t-179 -51h-104v-229h-120v674h224q105 0 168.5 -44t80.5 -122h62v127h114v-127h99v-87h-99v-254q0 -43 15.5 -61.5t52.5 -18.5zM208 330h90q146 0 146 122q0 121 -146 121h-90
v-243z" />
    <glyph glyph-name="euro" unicode="&#x20ac;" 
d="M450 207h117q-10 -105 -75 -163.5t-169 -58.5q-110 0 -178 66.5t-86 193.5h-58l12 64h41l-1 28v20h-52l12 65h45q16 130 85 198.5t182 68.5q106 0 168.5 -57.5t69.5 -161.5h-114q-8 57 -39.5 88t-84.5 31q-124 0 -149 -167h237l-12 -65h-231v-20q0 -19 1 -28h221l-12 -64
h-203q26 -160 146 -160q52 0 85.5 32t41.5 90z" />
    <glyph glyph-name="rupeeIndian" unicode="&#x20b9;" 
d="M377 599v-2q51 -22 64 -76h113l-21 -75h-91q-24 -110 -163 -136v-2q65 -25 113 -124l90 -184h-136l-81 173q-27 59 -61.5 84t-84.5 25h-16v80h45q129 0 160 84h-280l21 75h262q-21 78 -154 78h-129l21 75h505l-21 -75h-156z" />
    <glyph glyph-name="liraTurkish" unicode="&#x20ba;" 
d="M436 320h124q0 -160 -88.5 -243t-251.5 -83q-60 0 -114 6v259l-90 -49v80l90 49v77l-90 -49v80l90 49v178h120v-121l166 90v-80l-166 -90v-76l166 90v-80l-166 -90v-218q102 0 156 56t54 165z" />
    <glyph glyph-name="uni20BC" unicode="&#x20bc;" horiz-adv-x="686" 
d="M43 0v304q0 151 59.5 224.5t185.5 81.5v102h110v-102q126 -8 185.5 -81.5t59.5 -224.5v-304h-110v301q0 104 -30.5 151t-104.5 52v-504h-110v504q-73 -5 -104 -52t-31 -151v-301h-110z" />
    <glyph glyph-name="ruble" unicode="&#x20bd;" 
d="M91 674h232q114 0 174 -55t60 -150q0 -96 -60 -151t-174 -55h-114v-61h189v-89h-189v-113h-118v113h-81v89h81v61h-81v93h81v318zM209 581v-225h100q63 0 94.5 29.5t31.5 83.5q0 53 -31.5 82.5t-94.5 29.5h-100z" />
    <glyph glyph-name="literSign" unicode="&#x2113;" horiz-adv-x="445" 
d="M208 203v-44q0 -44 17 -64.5t54 -20.5q26 0 48 8v-81q-35 -11 -76 -11q-80 0 -118 40.5t-38 126.5v32q-22 1 -53 7v66q31 -6 53 -7v219q0 120 34 167.5t109 47.5q65 0 105 -46.5t40 -148.5q0 -121 -46.5 -193.5t-128.5 -97.5zM256 613q-26 0 -37 -24.5t-11 -91.5v-221
q104 50 104 218q0 119 -56 119z" />
    <glyph glyph-name="published" unicode="&#x2117;" horiz-adv-x="806" 
d="M403 725q162 0 260.5 -101.5t98.5 -267.5t-98.5 -267.5t-260.5 -101.5q-161 0 -260 101.5t-99 267.5t99 267.5t260 101.5zM403 674q-139 0 -224 -87.5t-85 -230.5t85 -230.5t224 -87.5q140 0 225 87.5t85 230.5t-85 230.5t-225 87.5zM263 581h172q85 0 129.5 -39
t44.5 -109q0 -69 -44.5 -108.5t-129.5 -39.5h-89v-164h-83v460zM346 510v-153h80q96 0 96 76q0 77 -96 77h-80z" />
    <glyph glyph-name="trademark" unicode="&#x2122;" horiz-adv-x="815" 
d="M310 641h-111v-285h-83v285h-111v71h305v-71zM771 356h-77v166q0 44 2 128h-2l-35 -126l-49 -168h-95l-49 168q-24 84 -35 126h-2q2 -84 2 -128v-166h-77v356h129l43 -149q20 -67 35 -132h2q15 65 35 132l44 149h129v-356z" />
    <glyph glyph-name="Ohm" unicode="&#x2126;" horiz-adv-x="731" 
d="M366 727q146 0 233 -80t87 -235q0 -91 -39 -164t-110 -144v-2h160v-102h-275v107q68 69 104 136t36 153q0 110 -53.5 167t-142.5 57t-142.5 -57t-53.5 -167q0 -86 36 -153t103 -136v-107h-275v102h160v2q-71 72 -110 144.5t-39 163.5q0 155 87.5 235t233.5 80z" />
    <glyph glyph-name="estimated" unicode="&#x212e;" horiz-adv-x="862" 
d="M431 689q176 0 279.5 -105t103.5 -257h-611q-14 0 -14 -12v-167q0 -29 16 -44q93 -91 226 -91q72 0 135.5 30.5t103.5 79.5h69q-40 -56 -118 -95.5t-190 -39.5q-172 0 -278 98t-106 251q0 152 104.5 252t279.5 100zM431 663q-132 0 -226 -94q-16 -14 -16 -41v-166
q0 -13 14 -13h455q13 0 13 13v166q0 27 -15 41q-95 94 -225 94z" />
    <glyph glyph-name="oneeighth" unicode="&#x215b;" horiz-adv-x="787" 
d="M204 270h-96v265h-99v69q94 0 110 70h85v-404zM185 0h-83l377 674h82zM596 414q69 0 112 -32t43 -83q0 -66 -73 -88v-2q39 -10 60.5 -35.5t21.5 -61.5q0 -56 -44.5 -89t-119.5 -33t-119 33t-44 89q0 36 22 61.5t61 35.5v2q-74 22 -74 88q0 51 43 83t111 32zM596 342
q-29 0 -46 -13.5t-17 -35.5q0 -23 17 -37t46 -14q30 0 47.5 14t17.5 37t-17.5 36t-47.5 13zM596 172q-30 0 -49 -15t-19 -40t18.5 -39t49.5 -14q32 0 50.5 14t18.5 39t-19 40t-50 15z" />
    <glyph glyph-name="threeeighths" unicode="&#x215c;" horiz-adv-x="911" 
d="M190 684q72 0 114 -31.5t42 -83.5q0 -63 -71 -90v-1q40 -13 58.5 -37t18.5 -62q0 -55 -43 -87t-117 -32q-79 0 -122.5 36.5t-43.5 103.5h95q0 -65 71 -65q30 0 48 13.5t18 35.5q0 54 -82 54h-14v71h13q35 0 56.5 14.5t21.5 39.5q0 21 -17 34t-46 13q-66 0 -66 -62h-93
q0 64 42.5 100t116.5 36zM309 0h-83l377 674h82zM720 414q69 0 112 -32t43 -83q0 -66 -73 -88v-2q39 -10 60.5 -35.5t21.5 -61.5q0 -56 -44.5 -89t-119.5 -33t-119 33t-44 89q0 36 22 61.5t61 35.5v2q-74 22 -74 88q0 51 43 83t111 32zM720 342q-29 0 -46 -13.5t-17 -35.5
q0 -23 17 -37t46 -14q30 0 47.5 14t17.5 37t-17.5 36t-47.5 13zM720 172q-30 0 -49 -15t-19 -40t18.5 -39t49.5 -14q32 0 50.5 14t18.5 39t-19 40t-50 15z" />
    <glyph glyph-name="fiveeighths" unicode="&#x215d;" horiz-adv-x="911" 
d="M329 597h-192l-9 -85h2q31 28 82 28q63 0 101.5 -37.5t38.5 -99.5q0 -65 -44 -104t-118 -39q-72 0 -115 33.5t-43 90.5h95q1 -24 18 -37.5t44 -13.5q32 0 50.5 19t18.5 51q0 31 -18 48.5t-48 17.5q-52 0 -63 -43l-93 5l24 243h269v-77zM309 0h-83l377 674h82zM719 414
q69 0 112 -32t43 -83q0 -66 -73 -88v-2q39 -10 60.5 -35.5t21.5 -61.5q0 -56 -44.5 -89t-119.5 -33t-119 33t-44 89q0 36 22 61.5t61 35.5v2q-74 22 -74 88q0 51 43 83t111 32zM719 342q-29 0 -46 -13.5t-17 -35.5q0 -23 17 -37t46 -14q30 0 47.5 14t17.5 37t-17.5 36
t-47.5 13zM719 172q-30 0 -49 -15t-19 -40t18.5 -39t49.5 -14q32 0 50.5 14t18.5 39t-19 40t-50 15z" />
    <glyph glyph-name="seveneighths" unicode="&#x215e;" horiz-adv-x="815" 
d="M326 674v-76q-98 -131 -138 -328h-101q46 200 145 326h-223v78h317zM213 0h-83l377 674h82zM624 414q69 0 112 -32t43 -83q0 -66 -73 -88v-2q39 -10 60.5 -35.5t21.5 -61.5q0 -56 -44.5 -89t-119.5 -33t-119 33t-44 89q0 36 22 61.5t61 35.5v2q-74 22 -74 88q0 51 43 83
t111 32zM624 342q-29 0 -46 -13.5t-17 -35.5q0 -23 17 -37t46 -14q30 0 47.5 14t17.5 37t-17.5 36t-47.5 13zM624 172q-30 0 -49 -15t-19 -40t18.5 -39t49.5 -14q32 0 50.5 14t18.5 39t-19 40t-50 15z" />
    <glyph glyph-name="partialdiff" unicode="&#x2202;" horiz-adv-x="613" 
d="M280 727q130 0 198 -89t68 -260q0 -198 -74 -295.5t-192 -97.5q-114 0 -176 65t-62 173q0 112 64.5 184t174.5 72q100 0 148 -69h2q1 9 1 27q0 86 -41.5 139t-105.5 53q-87 0 -100 -88h-120q9 86 63 136t152 50zM293 389q-60 0 -96 -47t-36 -120q0 -66 31.5 -102.5
t91.5 -36.5q62 0 97.5 45t35.5 117q0 66 -33 105t-91 39z" />
    <glyph glyph-name="increment" unicode="&#x2206;" horiz-adv-x="687" 
d="M683 0h-679l260 712h162zM520 104l-85 249l-91 283h-2q-32 -105 -92 -283l-85 -249h355z" />
    <glyph glyph-name="product" unicode="&#x220f;" horiz-adv-x="670" 
d="M582 -120h-119v728h-255v-728h-120v832h494v-832z" />
    <glyph glyph-name="summation" unicode="&#x2211;" horiz-adv-x="500" 
d="M465 607h-298l187 -313l-187 -309h298v-105h-430v105l189 309l-189 313v105h430v-105z" />
    <glyph glyph-name="minus" unicode="&#x2212;" horiz-adv-x="566" 
d="M499 271h-432v91h432v-91z" />
    <glyph glyph-name="divisionslash" unicode="&#x2215;" horiz-adv-x="473" 
d="M124 -89h-94l298 834h94z" />
    <glyph glyph-name="bulletoperator" unicode="&#x2219;" horiz-adv-x="353" 
d="M242 235h-131v141h131v-141z" />
    <glyph glyph-name="radical" unicode="&#x221a;" horiz-adv-x="608" 
d="M350 -120h-149l-94 397h-82v92h159l93 -389h2l209 732h100z" />
    <glyph glyph-name="infinity" unicode="&#x221e;" horiz-adv-x="651" 
d="M488 469q66 0 107 -44t41 -117t-41 -117t-107 -44q-53 0 -90.5 24.5t-72.5 68.5q-34 -44 -71 -68.5t-90 -24.5q-67 0 -108 44t-41 117t41 117t108 44q53 0 90 -24.5t71 -68.5q35 44 72.5 68.5t90.5 24.5zM173 234q30 0 54 19t50 55q-26 36 -50 55t-54 19q-33 0 -51 -20
t-18 -54t18 -54t51 -20zM478 234q33 0 51 20t18 54t-18 54t-51 20q-30 0 -54 -19t-50 -55q26 -36 50 -55t54 -19z" />
    <glyph glyph-name="integral" unicode="&#x222b;" horiz-adv-x="333" 
d="M264 719q25 0 60 -7v-84q-12 4 -28 4q-37 0 -55 -19.5t-18 -63.5v-584q0 -157 -154 -157q-25 0 -60 7v84q12 -4 27 -4q38 0 56 19.5t18 63.5v584q0 157 154 157z" />
    <glyph glyph-name="approxequal" unicode="&#x2248;" horiz-adv-x="566" 
d="M191 502q35 0 68.5 -21t61.5 -41.5t51 -20.5q27 0 41.5 19t14.5 51h75q0 -70 -35 -113.5t-93 -43.5q-35 0 -68 21t-61.5 42t-51.5 21q-27 0 -41.5 -19t-14.5 -52h-75q0 71 35 114t93 43zM191 302q35 0 68.5 -21t61.5 -42t51 -21q27 0 41.5 19t14.5 52h75q0 -71 -35 -114
t-93 -43q-35 0 -68 21t-61.5 41.5t-51.5 20.5q-27 0 -41.5 -19t-14.5 -51h-75q0 70 35 113.5t93 43.5z" />
    <glyph glyph-name="notequal" unicode="&#x2260;" horiz-adv-x="566" 
d="M353 360l-53 -87h199v-91h-253l-73 -122h-87l73 122h-92v91h146l53 87h-199v91h253l73 122h87l-73 -122h92v-91h-146z" />
    <glyph glyph-name="lessequal" unicode="&#x2264;" horiz-adv-x="566" 
d="M499 456l-326 -119v-2l326 -120v-94l-432 157v115l432 157v-94zM499 89v-89h-432v89h432z" />
    <glyph glyph-name="greaterequal" unicode="&#x2265;" horiz-adv-x="566" 
d="M499 393v-115l-432 -157v94l326 120v2l-326 119v94zM499 0h-432v89h432v-89z" />
    <glyph glyph-name="lozenge" unicode="&#x25ca;" horiz-adv-x="621" 
d="M581 356l-195 -356h-151l-195 356l195 356h151zM158 356l152 -274l153 274l-153 274z" />
    <glyph glyph-name="apple" unicode="&#xf8ff;" horiz-adv-x="600" 
d="M151 777h331q61 0 96.5 -36t35.5 -97v-576q0 -61 -35.5 -97t-96.5 -36h-331q-61 0 -97 35.5t-36 97.5v576q0 62 36 97.5t97 35.5zM482 721h-331q-35 0 -55.5 -21t-20.5 -56v-576q0 -35 20.5 -56t55.5 -21h331q35 0 55.5 21t20.5 56v576q0 35 -20.5 56t-55.5 21zM316 647
q81 0 128 -40.5t47 -108.5q0 -42 -15 -71t-61 -70q-41 -37 -53.5 -64t-12.5 -82h-87q-1 10 -1 29q0 57 14 88t58 74q33 32 42.5 50t9.5 44q0 30 -18 47t-51 17q-76 0 -79 -89h-104q2 86 49.5 131t133.5 45zM361 65h-111v102h111v-102z" />
    <glyph glyph-name="ff" unicode="&#xfb00;" horiz-adv-x="615" 
d="M576 632q-37 0 -55 -19.5t-18 -63.5v-41h98v-87h-98v-421h-113v421h-179v-421h-113v421h-86v87h86v54q0 157 154 157q25 0 60 -7v-84q-14 4 -28 4q-37 0 -55 -19.5t-18 -63.5v-41h179v54q0 157 154 157q26 0 59 -7v-84q-12 4 -27 4z" />
    <glyph glyph-name="fi" unicode="&#xfb01;" horiz-adv-x="583" 
d="M98 508v54q0 157 154 157q25 0 60 -7v-84q-14 4 -28 4q-37 0 -55 -19.5t-18 -63.5v-41h98v-87h-98v-421h-113v421h-86v87h86zM510 712v-109h-114v109h114zM396 508h114v-508h-114v508z" />
    <glyph glyph-name="fl" unicode="&#xfb02;" horiz-adv-x="583" 
d="M98 508v54q0 157 154 157q25 0 60 -7v-84q-14 4 -28 4q-37 0 -55 -19.5t-18 -63.5v-41h98v-87h-98v-421h-113v421h-86v87h86zM510 712v-712h-114v712h114z" />
    <glyph glyph-name="ffi" unicode="&#xfb03;" horiz-adv-x="875" 
d="M390 508v54q0 157 154 157q26 0 59 -7v-84q-12 4 -27 4q-37 0 -55 -19.5t-18 -63.5v-41h98v-87h-98v-421h-113v421h-179v-421h-113v421h-86v87h86v54q0 157 154 157q25 0 60 -7v-84q-14 4 -28 4q-37 0 -55 -19.5t-18 -63.5v-41h179zM802 712v-109h-114v109h114zM688 508
h114v-508h-114v508z" />
    <glyph glyph-name="ffl" unicode="&#xfb04;" horiz-adv-x="875" 
d="M390 508v54q0 157 154 157q26 0 59 -7v-84q-12 4 -27 4q-37 0 -55 -19.5t-18 -63.5v-41h98v-87h-98v-421h-113v421h-179v-421h-113v421h-86v87h86v54q0 157 154 157q25 0 60 -7v-84q-14 4 -28 4q-37 0 -55 -19.5t-18 -63.5v-41h179zM802 712v-712h-114v712h114z" />
    <glyph glyph-name="uniFEFF" unicode="&#xfeff;" horiz-adv-x="0" 
 />
    <glyph glyph-name="NULL" horiz-adv-x="600" 
 />
    <glyph glyph-name="J.acute.loclNLD" horiz-adv-x="374" 
d="M248 772h-93l81 144h144zM291 712v-496q0 -113 -53.5 -167.5t-165.5 -54.5q-31 0 -57 7v103q21 -4 45 -4q58 0 84.5 30t26.5 107v475h120z" />
    <glyph glyph-name="Ccedilla.ss01" horiz-adv-x="695" 
d="M359 727q128 0 206 -72t83 -187h-121q-8 71 -52.5 111.5t-115.5 40.5q-91 0 -143 -70.5t-52 -193.5t51.5 -193.5t140.5 -70.5q71 0 116.5 41t55.5 114h123q-11 -123 -89 -192.5t-206 -69.5q-147 0 -231.5 99t-84.5 272t85.5 272t233.5 99zM321 -214h-136l135 165h100z
" />
    <glyph glyph-name="Scedilla.ss01" horiz-adv-x="620" 
d="M295 727q129 0 195.5 -59.5t66.5 -174.5h-121q0 67 -37 101.5t-106 34.5q-58 0 -91.5 -25.5t-33.5 -69.5q0 -46 35 -68t128 -45q48 -12 78 -21t65.5 -26.5t55.5 -38.5t33.5 -54.5t13.5 -77.5q0 -99 -73 -158.5t-193 -59.5q-131 0 -204 64.5t-73 185.5h123
q0 -151 155 -151q66 0 103.5 29t37.5 79t-34 71t-127 44q-50 13 -78.5 21.5t-65.5 26t-56 38t-33 54t-14 76.5q0 91 68.5 147.5t181.5 56.5zM270 -214h-136l135 165h100z" />
    <glyph glyph-name="Tcedilla.ss01" horiz-adv-x="607" 
d="M597 608h-234v-608h-119v608h-234v104h587v-104zM268 -214h-136l135 165h100z" />
    <glyph glyph-name="idotaccent" horiz-adv-x="260" 
d="M187 603h-114v109h114v-109zM187 0h-114v508h114v-508z" />
    <glyph glyph-name="j.acute.loclNLD" horiz-adv-x="264" 
d="M151 568h-93l81 144h144zM191 508v-528q0 -88 -42.5 -129t-117.5 -41q-27 0 -58 7v85q13 -3 28 -3q39 0 57.5 21.5t18.5 74.5v513h114z" />
    <glyph glyph-name="ccedilla.ss01" horiz-adv-x="548" 
d="M285 523q96 0 158.5 -55.5t70.5 -143.5h-119q-4 50 -34 79.5t-76 29.5q-60 0 -93.5 -47.5t-33.5 -131.5t33.5 -131.5t93.5 -47.5q46 0 75.5 33t33.5 85h120q-8 -93 -70 -150.5t-159 -57.5q-113 0 -180 73t-67 196t67 196t180 73zM250 -214h-136l135 165h100z" />
    <glyph glyph-name="scedilla.ss01" horiz-adv-x="509" 
d="M248 523q98 0 151.5 -44.5t54.5 -128.5h-110q0 90 -97 90q-40 0 -62 -16t-22 -44q0 -30 23 -43t92 -30q28 -7 35.5 -9t33 -9.5t34 -13t27.5 -15.5t26.5 -20.5l18 -25.5t14 -33.5t3.5 -40.5q0 -70 -58 -112.5t-155 -42.5q-104 0 -161.5 46.5t-58.5 135.5h116
q0 -47 27.5 -72t78.5 -25q43 0 67.5 17t24.5 46q0 36 -26 50.5t-102 33.5l-37.5 9.5t-33.5 10t-34 14t-26.5 18.5t-23.5 25.5t-13 33t-6 43.5q0 68 55 110t144 42zM220 -214h-136l135 165h100z" />
    <glyph glyph-name="tcedilla.ss01" horiz-adv-x="339" 
d="M277 87q22 0 35 5v-89q-31 -9 -64 -9q-81 0 -117.5 36.5t-36.5 119.5v271h-85v87h85v127h114v-127h99v-87h-99v-254q0 -43 16 -61.5t53 -18.5zM152 -49h100l-99 -165h-136z" />
    <glyph glyph-name="a.sups" horiz-adv-x="402" 
d="M196 696q158 0 158 -142v-126q0 -58 10 -98h-88q-6 22 -6 48h-1q-41 -56 -122 -56q-58 0 -92 30t-34 78q0 47 33 74t112 39q64 9 93 10v14q0 65 -63 65q-62 0 -64 -57h-96q3 53 43.5 87t116.5 34zM259 480v16q-33 -2 -76 -9q-35 -6 -49.5 -18t-14.5 -33q0 -22 15 -35
t42 -13q39 0 60 22q23 22 23 70z" />
    <glyph glyph-name="b.sups" horiz-adv-x="435" 
d="M149 644h2q34 52 103 52q70 0 112 -51t42 -137q0 -85 -42.5 -136t-112.5 -51q-72 0 -105 55h-2v-46h-95v498h98v-184zM224 620q-36 0 -58 -30.5t-22 -81.5t22 -81.5t58 -30.5q37 0 59.5 31t22.5 81q0 51 -22.5 81.5t-59.5 30.5z" />
    <glyph glyph-name="c.sups" horiz-adv-x="407" 
d="M210 696q73 0 120 -40.5t53 -102.5h-102q-2 28 -21 47.5t-49 19.5q-38 0 -59.5 -29.5t-21.5 -81.5q0 -53 21.5 -83t59.5 -30q29 0 48.5 20.5t21.5 52.5h102q-5 -67 -52 -108.5t-121 -41.5q-84 0 -133.5 51t-49.5 139q0 86 49.5 136.5t133.5 50.5z" />
    <glyph glyph-name="d.sups" horiz-adv-x="435" 
d="M384 828v-498h-95v46h-2q-15 -26 -43 -40.5t-62 -14.5q-70 0 -112.5 51t-42.5 136q0 86 42 137t112 51q69 0 103 -52h2v184h98zM211 620q-37 0 -59.5 -30.5t-22.5 -81.5q0 -50 22.5 -81t59.5 -31q36 0 58 30.5t22 81.5t-22 81.5t-58 30.5z" />
    <glyph glyph-name="e.sups" horiz-adv-x="415" 
d="M209 388q31 0 50.5 14t24.5 36h100q-11 -51 -57.5 -85t-116.5 -34q-86 0 -134.5 53t-48.5 139q0 81 48.5 133t132.5 52q64 0 108 -31t61 -86q11 -34 11 -92h-265q2 -51 25.5 -75t60.5 -24zM208 629q-73 0 -83 -83h166q-4 41 -26.5 62t-56.5 21z" />
    <glyph glyph-name="egrave.sups" horiz-adv-x="415" 
d="M182 727l-108 101h127l70 -101h-89zM209 388q31 0 50.5 14t24.5 36h100q-11 -51 -57.5 -85t-116.5 -34q-86 0 -134.5 53t-48.5 139q0 81 48.5 133t132.5 52q64 0 108 -31t61 -86q11 -34 11 -92h-265q2 -51 25.5 -75t60.5 -24zM208 629q-73 0 -83 -83h166q-4 41 -26.5 62
t-56.5 21z" />
    <glyph glyph-name="f.sups" horiz-adv-x="246" 
d="M218 761q-52 0 -52 -54v-21h69v-73h-69v-283h-98v283h-60v73h60v32q0 116 121 116q23 0 49 -6v-69q-10 2 -20 2z" />
    <glyph glyph-name="g.sups" horiz-adv-x="430" 
d="M180 696q66 0 105 -57h2v47h92v-333q0 -159 -176 -159q-73 0 -115 30t-45 84h95q3 -48 66 -48q40 0 60 21.5t20 71.5v39h-2q-37 -53 -104 -53q-69 0 -110 48.5t-41 129.5q0 82 41.5 130.5t111.5 48.5zM206 620q-36 0 -57 -28t-21 -75t21 -74.5t57 -27.5q37 0 59 27.5
t22 74.5t-22 75t-59 28z" />
    <glyph glyph-name="h.sups" horiz-adv-x="434" 
d="M149 648h2q36 47 102 47q64 0 98.5 -37.5t34.5 -109.5v-218h-97v208q0 79 -65 79q-34 0 -54.5 -24t-20.5 -72v-191h-98v498h98v-180z" />
    <glyph glyph-name="i.sups" horiz-adv-x="200" 
d="M149 745h-98v83h98v-83zM149 330h-98v356h98v-356z" />
    <glyph glyph-name="j.sups" horiz-adv-x="204" 
d="M153 745h-98v83h98v-83zM153 686v-365q0 -64 -33 -94t-90 -30q-24 0 -49 5v72q7 -2 21 -2q27 0 40 14t13 49v351h98z" />
    <glyph glyph-name="k.sups" horiz-adv-x="392" 
d="M399 330h-123l-125 167h-2v-167h-98v499h98v-285h2l115 142h117l-143 -164z" />
    <glyph glyph-name="l.sups" horiz-adv-x="200" 
d="M149 330h-98v498h98v-498z" />
    <glyph glyph-name="m.sups" horiz-adv-x="646" 
d="M472 695q60 0 93.5 -37.5t33.5 -108.5v-219h-98v209q0 78 -58 78q-33 0 -51 -25.5t-18 -73.5v-188h-98v215q0 72 -58 72q-33 0 -51 -26t-18 -74v-187h-98v356h93v-42h2q39 51 101 51q77 0 109 -64q40 64 116 64z" />
    <glyph glyph-name="n.sups" horiz-adv-x="434" 
d="M253 695q64 0 98.5 -37.5t34.5 -109.5v-218h-97v208q0 79 -65 79q-34 0 -54.5 -24.5t-20.5 -71.5v-191h-98v356h93v-44h1q39 53 108 53z" />
    <glyph glyph-name="o.sups" horiz-adv-x="427" 
d="M214 696q85 0 135.5 -51t50.5 -137q0 -87 -50 -138t-136 -51t-136.5 51t-50.5 138q0 86 50.5 137t136.5 51zM214 620q-39 0 -61.5 -30t-22.5 -82t22.5 -82.5t61.5 -30.5t61 30t22 83t-22 82.5t-61 29.5z" />
    <glyph glyph-name="p.sups" horiz-adv-x="435" 
d="M253 696q70 0 112.5 -51t42.5 -137q0 -85 -42 -136t-112 -51t-103 51h-2v-171h-98v485h95v-46h2q34 56 105 56zM224 620q-36 0 -58 -30.5t-22 -81.5t22 -81.5t58 -30.5q37 0 59.5 31t22.5 81q0 51 -22.5 81.5t-59.5 30.5z" />
    <glyph glyph-name="q.sups" horiz-adv-x="435" 
d="M182 696q33 0 61.5 -15t43.5 -41h2v46h95v-485h-98v171h-2q-33 -51 -103 -51t-112 51t-42 136q0 86 42.5 137t112.5 51zM211 620q-37 0 -59.5 -30.5t-22.5 -81.5q0 -50 22.5 -81t59.5 -31q36 0 58 30.5t22 81.5t-22 81.5t-58 30.5z" />
    <glyph glyph-name="r.sups" horiz-adv-x="288" 
d="M250 690q17 0 32 -3v-86q-13 4 -33 4q-48 0 -74 -29t-26 -83v-163h-98v356h92v-51h2q36 55 105 55z" />
    <glyph glyph-name="s.sups" horiz-adv-x="381" 
d="M187 696q73 0 114 -30.5t41 -88.5h-95q0 54 -61 54q-54 0 -54 -35q0 -19 15.5 -27t64.5 -20q28 -7 41.5 -11t36.5 -14t34 -21t20.5 -29.5t9.5 -42.5q0 -51 -43 -81.5t-117 -30.5q-166 0 -168 128h99q0 -60 70 -60q28 0 44 10t16 27q0 22 -18 31.5t-73 22.5q-71 18 -94 35
q-35 25 -35 75q0 48 40.5 78t111.5 30z" />
    <glyph glyph-name="t.sups" horiz-adv-x="257" 
d="M212 404q17 0 26 3v-75q-25 -7 -52 -7q-63 0 -91 26.5t-28 86.5v175h-60v73h60v92h97v-92h70v-73h-70v-155q0 -29 11 -41.5t37 -12.5z" />
    <glyph glyph-name="u.sups" horiz-adv-x="433" 
d="M181 321q-64 0 -99 37.5t-35 109.5v218h98v-208q0 -79 65 -79q34 0 54.5 24.5t20.5 71.5v191h97v-356h-92v44h-1q-39 -53 -108 -53z" />
    <glyph glyph-name="v.sups" horiz-adv-x="368" 
d="M249 330h-130l-124 356h105l42 -135q23 -78 41 -152h2q11 49 41 152l42 135h104z" />
    <glyph glyph-name="w.sups" horiz-adv-x="590" 
d="M498 330h-135l-34 139q-14 53 -33 151h-2q-19 -97 -32 -151l-35 -139h-134l-88 356h96l30 -136q25 -125 29 -153h2q16 81 33 151l35 138h131l34 -138q16 -63 34 -151h1q15 84 30 153l29 136h97z" />
    <glyph glyph-name="x.sups" horiz-adv-x="371" 
d="M246 514l128 -184h-113l-74 124h-2l-75 -124h-113l128 184l-118 172h112l66 -111h2l65 111h112z" />
    <glyph glyph-name="y.sups" horiz-adv-x="369" 
d="M373 686l-132 -358q-27 -75 -62.5 -103t-101.5 -28q-33 0 -49 5v75q14 -5 33 -5q30 0 45.5 13t26.5 46l-137 355h106l85 -259h2l83 259h101z" />
    <glyph glyph-name="z.sups" horiz-adv-x="351" 
d="M326 607l-186 -198v-2h192v-77h-313v79l186 198v2h-179v77h300v-79z" />
    <glyph glyph-name="a.smcp" horiz-adv-x="575" 
d="M403 127h-230l-44 -127h-125l205 548h157l205 -548h-125zM370 226l-14 39q-35 97 -67 203h-2q-32 -106 -67 -203l-13 -39h163z" />
    <glyph glyph-name="aacute.smcp" horiz-adv-x="575" 
d="M305 608h-93l81 144h144zM403 127h-230l-44 -127h-125l205 548h157l205 -548h-125zM370 226l-14 39q-35 97 -67 203h-2q-32 -106 -67 -203l-13 -39h163z" />
    <glyph glyph-name="abreve.smcp" horiz-adv-x="575" 
d="M287 605q-73 0 -116.5 38.5t-48.5 108.5h80q8 -72 85 -72t85 72h81q-5 -70 -48.5 -108.5t-117.5 -38.5zM403 127h-230l-44 -127h-125l205 548h157l205 -548h-125zM370 226l-14 39q-35 97 -67 203h-2q-32 -106 -67 -203l-13 -39h163z" />
    <glyph glyph-name="acircumflex.smcp" horiz-adv-x="575" 
d="M220 608h-108l114 144h123l114 -144h-108l-67 84zM403 127h-230l-44 -127h-125l205 548h157l205 -548h-125zM370 226l-14 39q-35 97 -67 203h-2q-32 -106 -67 -203l-13 -39h163z" />
    <glyph glyph-name="adieresis.smcp" horiz-adv-x="575" 
d="M235 643h-102v109h102v-109zM441 643h-102v109h102v-109zM403 127h-230l-44 -127h-125l205 548h157l205 -548h-125zM370 226l-14 39q-35 97 -67 203h-2q-32 -106 -67 -203l-13 -39h163z" />
    <glyph glyph-name="agrave.smcp" horiz-adv-x="575" 
d="M271 608l-132 144h143l82 -144h-93zM403 127h-230l-44 -127h-125l205 548h157l205 -548h-125zM370 226l-14 39q-35 97 -67 203h-2q-32 -106 -67 -203l-13 -39h163z" />
    <glyph glyph-name="amacron.smcp" horiz-adv-x="575" 
d="M440 647h-305v78h305v-78zM403 127h-230l-44 -127h-125l205 548h157l205 -548h-125zM370 226l-14 39q-35 97 -67 203h-2q-32 -106 -67 -203l-13 -39h163z" />
    <glyph glyph-name="aogonek.smcp" horiz-adv-x="575" 
d="M537 -128q21 0 37 6v-62q-27 -11 -68 -11q-106 0 -106 83q0 32 18.5 57t59.5 55h-32l-43 127h-230l-44 -127h-125l205 548h157l205 -548q-72 -51 -72 -95q0 -33 38 -33zM370 226l-14 39q-35 97 -67 203h-2q-32 -106 -67 -203l-13 -39h163z" />
    <glyph glyph-name="aring.smcp" horiz-adv-x="575" 
d="M287 601q-43 0 -73.5 30.5t-30.5 73.5t30.5 73.5t73.5 30.5t73.5 -30.5t30.5 -73.5t-30.5 -73.5t-73.5 -30.5zM287 761q-23 0 -39.5 -16.5t-16.5 -39.5t16.5 -39.5t39.5 -16.5t39.5 16.5t16.5 39.5t-16.5 39.5t-39.5 16.5zM403 127h-230l-44 -127h-125l205 548h157
l205 -548h-125zM370 226l-14 39q-35 97 -67 203h-2q-32 -106 -67 -203l-13 -39h163z" />
    <glyph glyph-name="atilde.smcp" horiz-adv-x="575" 
d="M222 672q-40 0 -46 -48h-68q3 59 32 92t78 33q34 0 76 -24.5t60 -24.5q41 0 46 49h68q-3 -59 -31.5 -92t-77.5 -33q-34 0 -76 24t-61 24zM403 127h-230l-44 -127h-125l205 548h157l205 -548h-125zM370 226l-14 39q-35 97 -67 203h-2q-32 -106 -67 -203l-13 -39h163z" />
    <glyph glyph-name="ae.smcp" horiz-adv-x="793" 
d="M745 100v-100h-326l-21 136h-209l-64 -136h-130l268 548h476v-100h-274l19 -120h236v-99h-220l21 -129h224zM382 234l-34 217h-12l-102 -217h148z" />
    <glyph glyph-name="b.smcp" horiz-adv-x="556" 
d="M79 548h212q102 0 154 -38t52 -103q0 -97 -100 -125v-2q113 -23 113 -128q0 -70 -54.5 -111t-150.5 -41h-226v548zM196 455v-133h80q105 0 105 67q0 34 -23.5 50t-76.5 16h-85zM196 233v-139h86q57 0 81.5 15.5t24.5 52.5t-26 54t-85 17h-81z" />
    <glyph glyph-name="c.smcp" horiz-adv-x="598" 
d="M300 563q109 0 175 -56t71 -151h-123q-5 49 -38 76t-85 27q-65 0 -102.5 -49.5t-37.5 -135.5q0 -87 37.5 -136t102.5 -49q51 0 84 27.5t40 78.5h125q-9 -99 -75 -154.5t-174 -55.5q-123 0 -193.5 77t-70.5 212t70.5 212t193.5 77z" />
    <glyph glyph-name="cacute.smcp" horiz-adv-x="598" 
d="M317 608h-93l81 144h144zM300 563q109 0 175 -56t71 -151h-123q-5 49 -38 76t-85 27q-65 0 -102.5 -49.5t-37.5 -135.5q0 -87 37.5 -136t102.5 -49q51 0 84 27.5t40 78.5h125q-9 -99 -75 -154.5t-174 -55.5q-123 0 -193.5 77t-70.5 212t70.5 212t193.5 77z" />
    <glyph glyph-name="ccaron.smcp" horiz-adv-x="598" 
d="M361 608h-123l-114 144h108l68 -84l67 84h108zM300 563q109 0 175 -56t71 -151h-123q-5 49 -38 76t-85 27q-65 0 -102.5 -49.5t-37.5 -135.5q0 -87 37.5 -136t102.5 -49q51 0 84 27.5t40 78.5h125q-9 -99 -75 -154.5t-174 -55.5q-123 0 -193.5 77t-70.5 212t70.5 212
t193.5 77z" />
    <glyph glyph-name="ccedilla.smcp" horiz-adv-x="598" 
d="M424 195h125q-8 -92 -65.5 -146.5t-152.5 -62.5l-30 -48q9 4 29 4q35 0 59 -20t24 -54q0 -39 -30.5 -65t-86.5 -26q-57 0 -109 29l20 40q39 -21 79 -21q53 0 53 38q0 18 -13.5 29t-37.5 11q-17 0 -32 -6l-19 21l43 68q-114 6 -179 82.5t-65 205.5q0 135 70.5 212
t193.5 77q109 0 175 -56t71 -151h-123q-5 49 -38 76t-85 27q-65 0 -102.5 -49.5t-37.5 -135.5q0 -87 37.5 -136t102.5 -49q51 0 84 27.5t40 78.5z" />
    <glyph glyph-name="ccircumflex.smcp" horiz-adv-x="598" 
d="M367 608l-67 84l-68 -84h-108l114 144h123l114 -144h-108zM300 563q109 0 175 -56t71 -151h-123q-5 49 -38 76t-85 27q-65 0 -102.5 -49.5t-37.5 -135.5q0 -87 37.5 -136t102.5 -49q51 0 84 27.5t40 78.5h125q-9 -99 -75 -154.5t-174 -55.5q-123 0 -193.5 77t-70.5 212
t70.5 212t193.5 77z" />
    <glyph glyph-name="cdotaccent.smcp" horiz-adv-x="598" 
d="M356 643h-114v109h114v-109zM300 563q109 0 175 -56t71 -151h-123q-5 49 -38 76t-85 27q-65 0 -102.5 -49.5t-37.5 -135.5q0 -87 37.5 -136t102.5 -49q51 0 84 27.5t40 78.5h125q-9 -99 -75 -154.5t-174 -55.5q-123 0 -193.5 77t-70.5 212t70.5 212t193.5 77z" />
    <glyph glyph-name="d.smcp" horiz-adv-x="615" 
d="M79 548h195q147 0 226.5 -71t79.5 -203q0 -131 -79.5 -202.5t-226.5 -71.5h-195v548zM197 446v-344h75q90 0 137 43.5t47 128.5t-47 128.5t-137 43.5h-75z" />
    <glyph glyph-name="eth.smcp" horiz-adv-x="618" 
d="M82 548h195q147 0 226.5 -71t79.5 -203q0 -131 -79.5 -202.5t-226.5 -71.5h-195v238h-62v79h62v231zM200 102h75q90 0 137 43.5t47 128.5t-47 128.5t-137 43.5h-75v-129h128v-79h-128v-136z" />
    <glyph glyph-name="dcaron.smcp" horiz-adv-x="615" 
d="M344 608h-123l-114 144h108l68 -84l67 84h108zM79 548h195q147 0 226.5 -71t79.5 -203q0 -131 -79.5 -202.5t-226.5 -71.5h-195v548zM197 446v-344h75q90 0 137 43.5t47 128.5t-47 128.5t-137 43.5h-75z" />
    <glyph glyph-name="dcroat.smcp" horiz-adv-x="618" 
d="M82 548h195q147 0 226.5 -71t79.5 -203q0 -131 -79.5 -202.5t-226.5 -71.5h-195v238h-62v79h62v231zM200 102h75q90 0 137 43.5t47 128.5t-47 128.5t-137 43.5h-75v-129h128v-79h-128v-136z" />
    <glyph glyph-name="e.smcp" horiz-adv-x="531" 
d="M478 448h-281v-120h262v-99h-262v-129h287v-100h-404v548h398v-100z" />
    <glyph glyph-name="eacute.smcp" horiz-adv-x="531" 
d="M296 608h-93l81 144h144zM478 448h-281v-120h262v-99h-262v-129h287v-100h-404v548h398v-100z" />
    <glyph glyph-name="ebreve.smcp" horiz-adv-x="531" 
d="M364 752h81q-5 -70 -48.5 -108.5t-117.5 -38.5q-73 0 -116.5 38.5t-48.5 108.5h80q8 -72 85 -72t85 72zM478 448h-281v-120h262v-99h-262v-129h287v-100h-404v548h398v-100z" />
    <glyph glyph-name="ecaron.smcp" horiz-adv-x="531" 
d="M340 608h-123l-114 144h108l68 -84l67 84h108zM478 448h-281v-120h262v-99h-262v-129h287v-100h-404v548h398v-100z" />
    <glyph glyph-name="ecircumflex.smcp" horiz-adv-x="531" 
d="M346 608l-67 84l-68 -84h-108l114 144h123l114 -144h-108zM478 448h-281v-120h262v-99h-262v-129h287v-100h-404v548h398v-100z" />
    <glyph glyph-name="edieresis.smcp" horiz-adv-x="531" 
d="M227 643h-102v109h102v-109zM433 643h-102v109h102v-109zM478 448h-281v-120h262v-99h-262v-129h287v-100h-404v548h398v-100z" />
    <glyph glyph-name="edotaccent.smcp" horiz-adv-x="531" 
d="M336 643h-114v109h114v-109zM478 448h-281v-120h262v-99h-262v-129h287v-100h-404v548h398v-100z" />
    <glyph glyph-name="egrave.smcp" horiz-adv-x="531" 
d="M273 752l82 -144h-93l-132 144h143zM478 448h-281v-120h262v-99h-262v-129h287v-100h-404v548h398v-100z" />
    <glyph glyph-name="emacron.smcp" horiz-adv-x="531" 
d="M431 647h-305v78h305v-78zM478 448h-281v-120h262v-99h-262v-129h287v-100h-404v548h398v-100z" />
    <glyph glyph-name="eogonek.smcp" horiz-adv-x="531" 
d="M450 -128q20 0 37 6v-62q-27 -11 -68 -11q-106 0 -106 83q0 32 18.5 57t59.5 55h-311v548h398v-100h-281v-120h262v-99h-262v-129h287v-100q-72 -51 -72 -95q0 -33 38 -33z" />
    <glyph glyph-name="f.smcp" horiz-adv-x="489" 
d="M466 447h-269v-141h250v-101h-250v-205h-118v548h387v-101z" />
    <glyph glyph-name="fi.smcp" horiz-adv-x="765" 
d="M466 447h-269v-141h250v-101h-250v-205h-118v548h387v-101zM686 0h-117v548h117v-548z" />
    <glyph glyph-name="fl.smcp" horiz-adv-x="970" 
d="M466 447h-269v-141h250v-101h-250v-205h-118v548h387v-101zM686 101h274v-101h-391v548h117v-447z" />
    <glyph glyph-name="g.smcp" horiz-adv-x="623" 
d="M311 563q102 0 166.5 -49t75.5 -135h-125q-18 83 -117 83q-69 0 -110 -50.5t-41 -139.5t39.5 -140t107.5 -51q62 0 97 33.5t36 97.5h-136v93h248v-305h-102v56h-2q-54 -68 -167 -68t-179 76t-66 208q0 135 74 213t201 78z" />
    <glyph glyph-name="gbreve.smcp" horiz-adv-x="623" 
d="M389 752h81q-5 -70 -48.5 -108.5t-117.5 -38.5q-73 0 -116.5 38.5t-48.5 108.5h80q8 -72 85 -72t85 72zM311 563q102 0 166.5 -49t75.5 -135h-125q-18 83 -117 83q-69 0 -110 -50.5t-41 -139.5t39.5 -140t107.5 -51q62 0 97 33.5t36 97.5h-136v93h248v-305h-102v56h-2
q-54 -68 -167 -68t-179 76t-66 208q0 135 74 213t201 78z" />
    <glyph glyph-name="gcircumflex.smcp" horiz-adv-x="623" 
d="M371 608l-67 84l-68 -84h-108l114 144h123l114 -144h-108zM311 563q102 0 166.5 -49t75.5 -135h-125q-18 83 -117 83q-69 0 -110 -50.5t-41 -139.5t39.5 -140t107.5 -51q62 0 97 33.5t36 97.5h-136v93h248v-305h-102v56h-2q-54 -68 -167 -68t-179 76t-66 208
q0 135 74 213t201 78z" />
    <glyph glyph-name="gcommaaccent.smcp" horiz-adv-x="623" 
d="M311 563q102 0 166.5 -49t75.5 -135h-125q-18 83 -117 83q-69 0 -110 -50.5t-41 -139.5t39.5 -140t107.5 -51q62 0 97 33.5t36 97.5h-136v93h248v-305h-102v56h-2q-54 -68 -167 -68t-179 76t-66 208q0 135 74 213t201 78zM360 -158l-62 -106h-47l42 106h-40v96h107v-96z
" />
    <glyph glyph-name="gdotaccent.smcp" horiz-adv-x="623" 
d="M361 643h-114v109h114v-109zM311 563q102 0 166.5 -49t75.5 -135h-125q-18 83 -117 83q-69 0 -110 -50.5t-41 -139.5t39.5 -140t107.5 -51q62 0 97 33.5t36 97.5h-136v93h248v-305h-102v56h-2q-54 -68 -167 -68t-179 76t-66 208q0 135 74 213t201 78z" />
    <glyph glyph-name="h.smcp" horiz-adv-x="636" 
d="M556 0h-117v233h-242v-233h-117v548h117v-214h242v214h117v-548z" />
    <glyph glyph-name="hbar.smcp" horiz-adv-x="636" 
d="M599 435h-43v-435h-117v233h-242v-233h-117v435h-43v59h43v54h117v-54h242v54h117v-54h43v-59zM439 435h-242v-101h242v101z" />
    <glyph glyph-name="hcircumflex.smcp" horiz-adv-x="636" 
d="M385 608l-67 84l-68 -84h-108l114 144h123l114 -144h-108zM556 0h-117v233h-242v-233h-117v548h117v-214h242v214h117v-548z" />
    <glyph glyph-name="i.smcp" horiz-adv-x="277" 
d="M197 0h-117v548h117v-548z" />
    <glyph glyph-name="iacute.smcp" horiz-adv-x="277" 
d="M156 608h-93l81 144h144zM197 0h-117v548h117v-548z" />
    <glyph glyph-name="ibreve.smcp" horiz-adv-x="277" 
d="M212 752h76q-3 -69 -42 -108t-107 -39t-107 38.5t-42 108.5h75q3 -36 22 -55.5t52 -19.5t52 19.5t21 55.5zM197 0h-117v548h117v-548z" />
    <glyph glyph-name="icircumflex.smcp" horiz-adv-x="277" 
d="M298 609h-102l-58 85l-58 -85h-103l101 143h119zM197 0h-117v548h117v-548z" />
    <glyph glyph-name="idieresis.smcp" horiz-adv-x="277" 
d="M108 643h-102v109h102v-109zM272 643h-103v109h103v-109zM197 0h-117v548h117v-548z" />
    <glyph glyph-name="idotaccent.smcp" horiz-adv-x="277" 
d="M195 643h-114v109h114v-109zM197 0h-117v548h117v-548z" />
    <glyph glyph-name="igrave.smcp" horiz-adv-x="277" 
d="M133 752l82 -144h-93l-132 144h143zM197 0h-117v548h117v-548z" />
    <glyph glyph-name="ij.smcp" horiz-adv-x="603" 
d="M197 0h-117v548h117v-548zM528 548v-370q0 -94 -45 -138.5t-139 -44.5q-32 0 -53 6l-1 98q18 -3 36 -3q46 0 65.5 22.5t19.5 81.5v348h117z" />
    <glyph glyph-name="imacron.smcp" horiz-adv-x="277" 
d="M274 650h-271v78h271v-78zM197 0h-117v548h117v-548z" />
    <glyph glyph-name="iogonek.smcp" horiz-adv-x="277" 
d="M163 -128q21 0 37 6v-62q-27 -11 -68 -11q-106 0 -106 83q0 32 18.5 57t59.5 55h-24v548h117v-548q-72 -51 -72 -95q0 -33 38 -33z" />
    <glyph glyph-name="itilde.smcp" horiz-adv-x="277" 
d="M237 749h60q-3 -59 -29.5 -92t-71.5 -33q-30 0 -65 25t-51 25q-36 0 -41 -50h-59q3 59 28.5 92t71.5 33q30 0 65 -25t51 -25q36 0 41 50zM197 0h-117v548h117v-548z" />
    <glyph glyph-name="j.smcp" horiz-adv-x="326" 
d="M251 548v-370q0 -94 -45 -138.5t-139 -44.5q-32 0 -53 6l-1 98q18 -3 36 -3q46 0 65.5 22.5t19.5 81.5v348h117z" />
    <glyph glyph-name="jcircumflex.smcp" horiz-adv-x="326" 
d="M353 609h-102l-58 85l-58 -85h-103l101 143h119zM251 548v-370q0 -94 -45 -138.5t-139 -44.5q-32 0 -53 6l-1 98q18 -3 36 -3q46 0 65.5 22.5t19.5 81.5v348h117z" />
    <glyph glyph-name="k.smcp" horiz-adv-x="556" 
d="M311 288l240 -288h-151l-200 257h-3v-257h-117v548h117v-239h3l189 239h143z" />
    <glyph glyph-name="kcommaaccent.smcp" horiz-adv-x="556" 
d="M311 288l240 -288h-151l-200 257h-3v-257h-117v548h117v-239h3l189 239h143zM340 -158l-62 -106h-47l42 106h-40v96h107v-96z" />
    <glyph glyph-name="l.smcp" horiz-adv-x="481" 
d="M197 101h274v-101h-391v548h117v-447z" />
    <glyph glyph-name="lacute.smcp" horiz-adv-x="481" 
d="M185 608h-93l81 144h144zM197 101h274v-101h-391v548h117v-447z" />
    <glyph glyph-name="lcaron.smcp" horiz-adv-x="481" 
d="M197 101h274v-101h-391v548h117v-447zM310 371h-66l28 177h95z" />
    <glyph glyph-name="lcommaaccent.smcp" horiz-adv-x="481" 
d="M197 101h274v-101h-391v548h117v-447zM323 -158l-62 -106h-47l42 106h-40v96h107v-96z" />
    <glyph glyph-name="ldot.smcp" horiz-adv-x="541" 
d="M197 101h274v-101h-391v548h117v-447zM475 277h-131v142h131v-142z" />
    <glyph glyph-name="j.acute.loclNLD.smcp" horiz-adv-x="326" 
d="M211 608h-93l81 144h144zM251 548v-370q0 -94 -45 -138.5t-139 -44.5q-32 0 -53 6l-1 98q18 -3 36 -3q46 0 65.5 22.5t19.5 81.5v348h117z" />
    <glyph glyph-name="lslash.smcp" horiz-adv-x="480" 
d="M470 101v-101h-392v226l-66 -37v89l66 37v233h118v-173l109 61v-89l-109 -61v-185h274z" />
    <glyph glyph-name="m.smcp" horiz-adv-x="826" 
d="M747 0h-114v268q0 112 4 201h-2l-62 -200l-90 -269h-140l-90 269l-62 200h-2q4 -89 4 -201v-268h-113v548h190l82 -247q39 -118 60 -203h2q21 85 60 203l82 247h191v-548z" />
    <glyph glyph-name="n.smcp" horiz-adv-x="660" 
d="M580 0h-171l-111 221q-48 94 -108 224h-2q5 -99 5 -238v-207h-113v548h171l112 -221l107 -224h2q-5 99 -5 238v207h113v-548z" />
    <glyph glyph-name="nacute.smcp" horiz-adv-x="660" 
d="M347 608h-93l81 144h144zM580 0h-171l-111 221q-48 94 -108 224h-2q5 -99 5 -238v-207h-113v548h171l112 -221l107 -224h2q-5 99 -5 238v207h113v-548z" />
    <glyph glyph-name="ncaron.smcp" horiz-adv-x="660" 
d="M391 608h-123l-114 144h108l68 -84l67 84h108zM580 0h-171l-111 221q-48 94 -108 224h-2q5 -99 5 -238v-207h-113v548h171l112 -221l107 -224h2q-5 99 -5 238v207h113v-548z" />
    <glyph glyph-name="ncommaaccent.smcp" horiz-adv-x="660" 
d="M580 0h-171l-111 221q-48 94 -108 224h-2q5 -99 5 -238v-207h-113v548h171l112 -221l107 -224h2q-5 99 -5 238v207h113v-548zM384 -158l-62 -106h-47l42 106h-40v96h107v-96z" />
    <glyph glyph-name="eng.smcp" horiz-adv-x="644" 
d="M565 548v-569q0 -73 -38 -107t-105 -34q-31 0 -55 6v80q16 -2 25 -2q57 0 57 56v22l-148 237q-60 96 -111 190h-2q5 -118 5 -212v-215h-113v548h151l112 -178q62 -99 112 -190h2q-6 86 -6 212v156h114z" />
    <glyph glyph-name="ntilde.smcp" horiz-adv-x="660" 
d="M442 749h68q-3 -59 -31.5 -92t-77.5 -33q-34 0 -76 24t-61 24q-40 0 -46 -48h-68q3 59 32 92t78 33q34 0 76 -24.5t60 -24.5q41 0 46 49zM580 0h-171l-111 221q-48 94 -108 224h-2q5 -99 5 -238v-207h-113v548h171l112 -221l107 -224h2q-5 99 -5 238v207h113v-548z" />
    <glyph glyph-name="o.smcp" horiz-adv-x="621" 
d="M311 563q127 0 200.5 -77.5t73.5 -211.5t-73.5 -211.5t-200.5 -77.5t-201 77.5t-74 211.5t74 211.5t201 77.5zM311 461q-71 0 -111.5 -50t-40.5 -137t40.5 -137t111.5 -50q70 0 110.5 50t40.5 137t-40.5 137t-110.5 50z" />
    <glyph glyph-name="oacute.smcp" horiz-adv-x="621" 
d="M328 608h-93l81 144h144zM311 563q127 0 200.5 -77.5t73.5 -211.5t-73.5 -211.5t-200.5 -77.5t-201 77.5t-74 211.5t74 211.5t201 77.5zM311 461q-71 0 -111.5 -50t-40.5 -137t40.5 -137t111.5 -50q70 0 110.5 50t40.5 137t-40.5 137t-110.5 50z" />
    <glyph glyph-name="obreve.smcp" horiz-adv-x="621" 
d="M395 752h81q-5 -70 -48.5 -108.5t-117.5 -38.5q-73 0 -116.5 38.5t-48.5 108.5h80q8 -72 85 -72t85 72zM311 563q127 0 200.5 -77.5t73.5 -211.5t-73.5 -211.5t-200.5 -77.5t-201 77.5t-74 211.5t74 211.5t201 77.5zM311 461q-71 0 -111.5 -50t-40.5 -137t40.5 -137
t111.5 -50q70 0 110.5 50t40.5 137t-40.5 137t-110.5 50z" />
    <glyph glyph-name="ocircumflex.smcp" horiz-adv-x="621" 
d="M378 608l-67 84l-68 -84h-108l114 144h123l114 -144h-108zM311 563q127 0 200.5 -77.5t73.5 -211.5t-73.5 -211.5t-200.5 -77.5t-201 77.5t-74 211.5t74 211.5t201 77.5zM311 461q-71 0 -111.5 -50t-40.5 -137t40.5 -137t111.5 -50q70 0 110.5 50t40.5 137t-40.5 137
t-110.5 50z" />
    <glyph glyph-name="odieresis.smcp" horiz-adv-x="621" 
d="M258 643h-102v109h102v-109zM464 643h-102v109h102v-109zM311 563q127 0 200.5 -77.5t73.5 -211.5t-73.5 -211.5t-200.5 -77.5t-201 77.5t-74 211.5t74 211.5t201 77.5zM311 461q-71 0 -111.5 -50t-40.5 -137t40.5 -137t111.5 -50q70 0 110.5 50t40.5 137t-40.5 137
t-110.5 50z" />
    <glyph glyph-name="ograve.smcp" horiz-adv-x="621" 
d="M305 752l82 -144h-93l-132 144h143zM311 563q127 0 200.5 -77.5t73.5 -211.5t-73.5 -211.5t-200.5 -77.5t-201 77.5t-74 211.5t74 211.5t201 77.5zM311 461q-71 0 -111.5 -50t-40.5 -137t40.5 -137t111.5 -50q70 0 110.5 50t40.5 137t-40.5 137t-110.5 50z" />
    <glyph glyph-name="ohungarumlaut.smcp" horiz-adv-x="621" 
d="M247 608h-92l101 144h129zM422 608h-92l101 144h129zM311 563q127 0 200.5 -77.5t73.5 -211.5t-73.5 -211.5t-200.5 -77.5t-201 77.5t-74 211.5t74 211.5t201 77.5zM311 461q-71 0 -111.5 -50t-40.5 -137t40.5 -137t111.5 -50q70 0 110.5 50t40.5 137t-40.5 137
t-110.5 50z" />
    <glyph glyph-name="omacron.smcp" horiz-adv-x="621" 
d="M463 647h-305v78h305v-78zM311 563q127 0 200.5 -77.5t73.5 -211.5t-73.5 -211.5t-200.5 -77.5t-201 77.5t-74 211.5t74 211.5t201 77.5zM311 461q-71 0 -111.5 -50t-40.5 -137t40.5 -137t111.5 -50q70 0 110.5 50t40.5 137t-40.5 137t-110.5 50z" />
    <glyph glyph-name="oslash.smcp" horiz-adv-x="621" 
d="M565 542l-49 -62q69 -77 69 -206q0 -134 -73.5 -211.5t-200.5 -77.5q-88 0 -154 39l-48 -61l-54 42l50 63q-69 77 -69 206q0 134 74 211.5t201 77.5q87 0 153 -39l47 60zM311 465q-73 0 -115 -51t-42 -140q0 -68 24 -113l220 279q-37 25 -87 25zM311 83q73 0 114.5 51
t41.5 140q0 65 -24 113l-220 -279q38 -25 88 -25z" />
    <glyph glyph-name="otilde.smcp" horiz-adv-x="621" 
d="M422 749h68q-3 -59 -31.5 -92t-77.5 -33q-34 0 -76 24t-61 24q-40 0 -46 -48h-68q3 59 32 92t78 33q34 0 76 -24.5t60 -24.5q41 0 46 49zM311 563q127 0 200.5 -77.5t73.5 -211.5t-73.5 -211.5t-200.5 -77.5t-201 77.5t-74 211.5t74 211.5t201 77.5zM311 461
q-71 0 -111.5 -50t-40.5 -137t40.5 -137t111.5 -50q70 0 110.5 50t40.5 137t-40.5 137t-110.5 50z" />
    <glyph glyph-name="oe.smcp" horiz-adv-x="841" 
d="M787 448h-281v-120h262v-99h-262v-129h287v-100h-450q-145 0 -226 72.5t-81 201.5q0 130 81 202t226 72h444v-100zM388 448h-43q-89 0 -137.5 -45.5t-48.5 -128.5t48.5 -128.5t137.5 -45.5h43v348z" />
    <glyph glyph-name="p.smcp" horiz-adv-x="537" 
d="M80 548h217q105 0 160 -48.5t55 -133.5q0 -84 -55 -132t-160 -48h-100v-186h-117v548zM197 450v-167h87q108 0 108 84q0 83 -109 83h-86z" />
    <glyph glyph-name="thorn.smcp" horiz-adv-x="537" 
d="M197 460h100q105 0 160 -48t55 -133t-55 -133t-160 -48h-100v-98h-117v548h117v-88zM197 363v-168h87q108 0 108 84t-109 84h-86z" />
    <glyph glyph-name="q.smcp" horiz-adv-x="621" 
d="M585 274q0 -128 -68 -205l62 -64l-65 -61l-67 71q-58 -30 -136 -30q-127 0 -201 77.5t-74 211.5t74 211.5t201 77.5t200.5 -77.5t73.5 -211.5zM159 273q0 -88 41 -139t112 -51q32 0 60 11l-73 76l63 62l75 -80q28 48 28 121q0 87 -40.5 137.5t-112.5 50.5
q-71 0 -112 -50.5t-41 -137.5z" />
    <glyph glyph-name="r.smcp" horiz-adv-x="557" 
d="M80 548h214q209 0 209 -154q0 -50 -28 -86t-77 -49v-2q30 -10 47 -32.5t38 -75.5l57 -149h-126l-46 130q-16 44 -38 61t-64 17h-69v-208h-117v548zM197 455v-156h86q102 0 102 81q0 75 -106 75h-82z" />
    <glyph glyph-name="racute.smcp" horiz-adv-x="557" 
d="M295 608h-93l81 144h144zM80 548h214q209 0 209 -154q0 -50 -28 -86t-77 -49v-2q30 -10 47 -32.5t38 -75.5l57 -149h-126l-46 130q-16 44 -38 61t-64 17h-69v-208h-117v548zM197 455v-156h86q102 0 102 81q0 75 -106 75h-82z" />
    <glyph glyph-name="rcaron.smcp" horiz-adv-x="557" 
d="M339 608h-123l-114 144h108l68 -84l67 84h108zM80 548h214q209 0 209 -154q0 -50 -28 -86t-77 -49v-2q30 -10 47 -32.5t38 -75.5l57 -149h-126l-46 130q-16 44 -38 61t-64 17h-69v-208h-117v548zM197 455v-156h86q102 0 102 81q0 75 -106 75h-82z" />
    <glyph glyph-name="rcommaaccent.smcp" horiz-adv-x="557" 
d="M80 548h214q209 0 209 -154q0 -50 -28 -86t-77 -49v-2q30 -10 47 -32.5t38 -75.5l57 -149h-126l-46 130q-16 44 -38 61t-64 17h-69v-208h-117v548zM197 455v-156h86q102 0 102 81q0 75 -106 75h-82zM348 -158l-62 -106h-47l42 106h-40v96h107v-96z" />
    <glyph glyph-name="s.smcp" horiz-adv-x="529" 
d="M253 563q108 0 164 -46.5t56 -135.5h-117q0 91 -106 91q-43 0 -67.5 -17.5t-24.5 -46.5q0 -31 26.5 -46t98.5 -31q50 -12 79.5 -22t62.5 -29t48 -48.5t15 -71.5q0 -80 -61 -127.5t-164 -47.5q-109 0 -170.5 50.5t-61.5 144.5h119q0 -103 115 -103q49 0 76.5 19.5
t27.5 54.5q0 32 -26.5 47t-96.5 32q-42 10 -65 16.5t-54 20t-46.5 29.5t-27.5 42t-12 60q0 74 57.5 119.5t154.5 45.5z" />
    <glyph glyph-name="sacute.smcp" horiz-adv-x="529" 
d="M270 608h-93l81 144h144zM253 563q108 0 164 -46.5t56 -135.5h-117q0 91 -106 91q-43 0 -67.5 -17.5t-24.5 -46.5q0 -31 26.5 -46t98.5 -31q50 -12 79.5 -22t62.5 -29t48 -48.5t15 -71.5q0 -80 -61 -127.5t-164 -47.5q-109 0 -170.5 50.5t-61.5 144.5h119
q0 -103 115 -103q49 0 76.5 19.5t27.5 54.5q0 32 -26.5 47t-96.5 32q-42 10 -65 16.5t-54 20t-46.5 29.5t-27.5 42t-12 60q0 74 57.5 119.5t154.5 45.5z" />
    <glyph glyph-name="scaron.smcp" horiz-adv-x="529" 
d="M314 608h-123l-114 144h108l68 -84l67 84h108zM253 563q108 0 164 -46.5t56 -135.5h-117q0 91 -106 91q-43 0 -67.5 -17.5t-24.5 -46.5q0 -31 26.5 -46t98.5 -31q50 -12 79.5 -22t62.5 -29t48 -48.5t15 -71.5q0 -80 -61 -127.5t-164 -47.5q-109 0 -170.5 50.5
t-61.5 144.5h119q0 -103 115 -103q49 0 76.5 19.5t27.5 54.5q0 32 -26.5 47t-96.5 32q-42 10 -65 16.5t-54 20t-46.5 29.5t-27.5 42t-12 60q0 74 57.5 119.5t154.5 45.5z" />
    <glyph glyph-name="scedilla.smcp" horiz-adv-x="529" 
d="M488 160q0 -74 -52 -120t-142 -54l-30 -48q9 4 29 4q35 0 59 -20t24 -54q0 -39 -30.5 -65t-86.5 -26q-57 0 -109 29l20 40q39 -21 79 -21q53 0 53 38q0 18 -13.5 29t-37.5 11q-17 0 -32 -6l-19 21l43 67q-100 5 -156 55.5t-56 139.5h119q0 -103 115 -103q49 0 76.5 19.5
t27.5 54.5q0 32 -26.5 47t-96.5 32q-42 10 -65 16.5t-54 20t-46.5 29.5t-27.5 42t-12 60q0 74 57.5 119.5t154.5 45.5q108 0 164 -46.5t56 -135.5h-117q0 91 -106 91q-43 0 -67.5 -17.5t-24.5 -46.5q0 -31 26.5 -46t98.5 -31q50 -12 79.5 -22t62.5 -29t48 -48.5t15 -71.5z
" />
    <glyph glyph-name="scircumflex.smcp" horiz-adv-x="529" 
d="M320 608l-67 84l-68 -84h-108l114 144h123l114 -144h-108zM253 563q108 0 164 -46.5t56 -135.5h-117q0 91 -106 91q-43 0 -67.5 -17.5t-24.5 -46.5q0 -31 26.5 -46t98.5 -31q50 -12 79.5 -22t62.5 -29t48 -48.5t15 -71.5q0 -80 -61 -127.5t-164 -47.5q-109 0 -170.5 50.5
t-61.5 144.5h119q0 -103 115 -103q49 0 76.5 19.5t27.5 54.5q0 32 -26.5 47t-96.5 32q-42 10 -65 16.5t-54 20t-46.5 29.5t-27.5 42t-12 60q0 74 57.5 119.5t154.5 45.5z" />
    <glyph glyph-name="scommaaccent.smcp" horiz-adv-x="529" 
d="M253 563q108 0 164 -46.5t56 -135.5h-117q0 91 -106 91q-43 0 -67.5 -17.5t-24.5 -46.5q0 -31 26.5 -46t98.5 -31q50 -12 79.5 -22t62.5 -29t48 -48.5t15 -71.5q0 -80 -61 -127.5t-164 -47.5q-109 0 -170.5 50.5t-61.5 144.5h119q0 -103 115 -103q49 0 76.5 19.5
t27.5 54.5q0 32 -26.5 47t-96.5 32q-42 10 -65 16.5t-54 20t-46.5 29.5t-27.5 42t-12 60q0 74 57.5 119.5t154.5 45.5zM317 -158l-62 -106h-47l42 106h-40v96h107v-96z" />
    <glyph glyph-name="germandbls.smcp" horiz-adv-x="679" 
d="M589 453l-119 -125q162 -40 162 -177q0 -80 -53.5 -123t-145.5 -43t-140 41.5t-48 123.5h110q0 -71 76 -71q80 0 80 74q0 47 -41.5 71t-125.5 30v80l97 101q-38 32 -99 32q-150 0 -150 -156v-311h-117v313q0 121 69.5 185.5t199.5 64.5q76 0 140 -30t105 -80z" />
    <glyph glyph-name="t.smcp" horiz-adv-x="508" 
d="M498 448h-185v-448h-118v448h-185v100h488v-100z" />
    <glyph glyph-name="tbar.smcp" horiz-adv-x="508" 
d="M313 448v-141h104v-79h-104v-228h-118v228h-105v79h105v141h-185v100h488v-100h-185z" />
    <glyph glyph-name="tcaron.smcp" horiz-adv-x="508" 
d="M315 608h-123l-114 144h108l68 -84l67 84h108zM498 448h-185v-448h-118v448h-185v100h488v-100z" />
    <glyph glyph-name="tcedilla.smcp" horiz-adv-x="508" 
d="M498 448h-185v-448h-118v448h-185v100h488v-100zM308 -158l-62 -106h-47l42 106h-40v96h107v-96z" />
    <glyph glyph-name="tcommaaccent.smcp" horiz-adv-x="508" 
d="M498 448h-185v-448h-118v448h-185v100h488v-100zM308 -158l-62 -106h-47l42 106h-40v96h107v-96z" />
    <glyph glyph-name="u.smcp" horiz-adv-x="608" 
d="M534 548v-340q0 -108 -59.5 -165.5t-170.5 -57.5t-170.5 57.5t-59.5 165.5v340h118v-338q0 -59 29 -90t83 -31t83 31t29 90v338h118z" />
    <glyph glyph-name="uacute.smcp" horiz-adv-x="608" 
d="M321 608h-93l81 144h144zM534 548v-340q0 -108 -59.5 -165.5t-170.5 -57.5t-170.5 57.5t-59.5 165.5v340h118v-338q0 -59 29 -90t83 -31t83 31t29 90v338h118z" />
    <glyph glyph-name="ubreve.smcp" horiz-adv-x="608" 
d="M389 752h81q-5 -70 -48.5 -108.5t-117.5 -38.5q-73 0 -116.5 38.5t-48.5 108.5h80q8 -72 85 -72t85 72zM534 548v-340q0 -108 -59.5 -165.5t-170.5 -57.5t-170.5 57.5t-59.5 165.5v340h118v-338q0 -59 29 -90t83 -31t83 31t29 90v338h118z" />
    <glyph glyph-name="ucircumflex.smcp" horiz-adv-x="608" 
d="M371 608l-67 84l-68 -84h-108l114 144h123l114 -144h-108zM534 548v-340q0 -108 -59.5 -165.5t-170.5 -57.5t-170.5 57.5t-59.5 165.5v340h118v-338q0 -59 29 -90t83 -31t83 31t29 90v338h118z" />
    <glyph glyph-name="udieresis.smcp" horiz-adv-x="608" 
d="M251 643h-102v109h102v-109zM457 643h-102v109h102v-109zM534 548v-340q0 -108 -59.5 -165.5t-170.5 -57.5t-170.5 57.5t-59.5 165.5v340h118v-338q0 -59 29 -90t83 -31t83 31t29 90v338h118z" />
    <glyph glyph-name="ugrave.smcp" horiz-adv-x="608" 
d="M298 752l82 -144h-93l-132 144h143zM534 548v-340q0 -108 -59.5 -165.5t-170.5 -57.5t-170.5 57.5t-59.5 165.5v340h118v-338q0 -59 29 -90t83 -31t83 31t29 90v338h118z" />
    <glyph glyph-name="uhungarumlaut.smcp" horiz-adv-x="608" 
d="M240 608h-92l101 144h129zM415 608h-92l101 144h129zM534 548v-340q0 -108 -59.5 -165.5t-170.5 -57.5t-170.5 57.5t-59.5 165.5v340h118v-338q0 -59 29 -90t83 -31t83 31t29 90v338h118z" />
    <glyph glyph-name="umacron.smcp" horiz-adv-x="608" 
d="M456 647h-305v78h305v-78zM534 548v-340q0 -108 -59.5 -165.5t-170.5 -57.5t-170.5 57.5t-59.5 165.5v340h118v-338q0 -59 29 -90t83 -31t83 31t29 90v338h118z" />
    <glyph glyph-name="uogonek.smcp" horiz-adv-x="608" 
d="M534 548v-337q0 -125 -89 -201q-69 -61 -69 -105q0 -33 37 -33q21 0 38 6v-62q-28 -11 -69 -11q-106 0 -106 83q0 52 65 102v2q-15 -4 -37 -4q-110 0 -169.5 57.5t-59.5 165.5v337h117v-335q0 -59 29 -90t83 -31q55 0 84 31t29 90v335h117z" />
    <glyph glyph-name="uring.smcp" horiz-adv-x="608" 
d="M304 809q44 0 74 -30.5t30 -73.5t-30 -73.5t-74 -30.5t-74 30.5t-30 73.5t30 73.5t74 30.5zM304 761q-23 0 -39.5 -16.5t-16.5 -39.5t16.5 -39.5t39.5 -16.5t39.5 16.5t16.5 39.5t-16.5 39.5t-39.5 16.5zM534 548v-340q0 -108 -59.5 -165.5t-170.5 -57.5t-170.5 57.5
t-59.5 165.5v340h118v-338q0 -59 29 -90t83 -31t83 31t29 90v338h118z" />
    <glyph glyph-name="utilde.smcp" horiz-adv-x="608" 
d="M416 749h68q-3 -59 -31.5 -92t-77.5 -33q-34 0 -76 24t-61 24q-40 0 -46 -48h-68q3 59 32 92t78 33q34 0 76 -24.5t60 -24.5q41 0 46 49zM534 548v-340q0 -108 -59.5 -165.5t-170.5 -57.5t-170.5 57.5t-59.5 165.5v340h118v-338q0 -59 29 -90t83 -31t83 31t29 90v338h118
z" />
    <glyph glyph-name="v.smcp" horiz-adv-x="529" 
d="M342 0h-155l-182 548h124l72 -224q38 -118 63 -217h2q26 111 62 217l71 224h124z" />
    <glyph glyph-name="w.smcp" horiz-adv-x="791" 
d="M661 0h-163l-53 227q-22 89 -49 224h-2q-14 -83 -47 -224l-53 -227h-163l-122 548h116l43 -202q21 -96 46 -239h2q27 133 52 240l49 201h157l49 -201q19 -80 53 -240h2q18 107 46 239l42 202h116z" />
    <glyph glyph-name="wacute.smcp" horiz-adv-x="791" 
d="M413 608h-93l81 144h144zM661 0h-163l-53 227q-22 89 -49 224h-2q-14 -83 -47 -224l-53 -227h-163l-122 548h116l43 -202q21 -96 46 -239h2q27 133 52 240l49 201h157l49 -201q19 -80 53 -240h2q18 107 46 239l42 202h116z" />
    <glyph glyph-name="wcircumflex.smcp" horiz-adv-x="791" 
d="M463 608l-67 84l-68 -84h-108l114 144h123l114 -144h-108zM661 0h-163l-53 227q-22 89 -49 224h-2q-14 -83 -47 -224l-53 -227h-163l-122 548h116l43 -202q21 -96 46 -239h2q27 133 52 240l49 201h157l49 -201q19 -80 53 -240h2q18 107 46 239l42 202h116z" />
    <glyph glyph-name="wdieresis.smcp" horiz-adv-x="791" 
d="M344 643h-102v109h102v-109zM550 643h-102v109h102v-109zM661 0h-163l-53 227q-22 89 -49 224h-2q-14 -83 -47 -224l-53 -227h-163l-122 548h116l43 -202q21 -96 46 -239h2q27 133 52 240l49 201h157l49 -201q19 -80 53 -240h2q18 107 46 239l42 202h116z" />
    <glyph glyph-name="wgrave.smcp" horiz-adv-x="791" 
d="M390 752l82 -144h-93l-132 144h143zM661 0h-163l-53 227q-22 89 -49 224h-2q-14 -83 -47 -224l-53 -227h-163l-122 548h116l43 -202q21 -96 46 -239h2q27 133 52 240l49 201h157l49 -201q19 -80 53 -240h2q18 107 46 239l42 202h116z" />
    <glyph glyph-name="x.smcp" horiz-adv-x="532" 
d="M341 282l187 -282h-140l-121 199h-2l-121 -199h-140l187 282l-176 266h137l113 -188h2l113 188h138z" />
    <glyph glyph-name="y.smcp" horiz-adv-x="528" 
d="M323 213v-213h-118v213l-202 335h131l58 -102q42 -75 71 -139h2q26 57 70 139l58 102h132z" />
    <glyph glyph-name="yacute.smcp" horiz-adv-x="528" 
d="M281 608h-93l81 144h144zM323 213v-213h-118v213l-202 335h131l58 -102q42 -75 71 -139h2q26 57 70 139l58 102h132z" />
    <glyph glyph-name="ycircumflex.smcp" horiz-adv-x="528" 
d="M331 608l-67 84l-68 -84h-108l114 144h123l114 -144h-108zM323 213v-213h-118v213l-202 335h131l58 -102q42 -75 71 -139h2q26 57 70 139l58 102h132z" />
    <glyph glyph-name="ydieresis.smcp" horiz-adv-x="528" 
d="M211 643h-102v109h102v-109zM417 643h-102v109h102v-109zM323 213v-213h-118v213l-202 335h131l58 -102q42 -75 71 -139h2q26 57 70 139l58 102h132z" />
    <glyph glyph-name="ygrave.smcp" horiz-adv-x="528" 
d="M258 752l82 -144h-93l-132 144h143zM323 213v-213h-118v213l-202 335h131l58 -102q42 -75 71 -139h2q26 57 70 139l58 102h132z" />
    <glyph glyph-name="z.smcp" horiz-adv-x="478" 
d="M447 442l-290 -340v-2h304v-100h-444v106l290 340v2h-278v100h418v-106z" />
    <glyph glyph-name="zacute.smcp" horiz-adv-x="478" 
d="M255 608h-93l81 144h144zM447 442l-290 -340v-2h304v-100h-444v106l290 340v2h-278v100h418v-106z" />
    <glyph glyph-name="zcaron.smcp" horiz-adv-x="478" 
d="M300 608h-123l-114 144h108l68 -84l67 84h108zM447 442l-290 -340v-2h304v-100h-444v106l290 340v2h-278v100h418v-106z" />
    <glyph glyph-name="zdotaccent.smcp" horiz-adv-x="478" 
d="M295 643h-114v109h114v-109zM447 442l-290 -340v-2h304v-100h-444v106l290 340v2h-278v100h418v-106z" />
    <glyph glyph-name="ccedilla.smcp.ss01" horiz-adv-x="598" 
d="M300 563q109 0 175 -56t71 -151h-123q-5 49 -38 76t-85 27q-65 0 -102.5 -49.5t-37.5 -135.5q0 -87 37.5 -136t102.5 -49q51 0 84 27.5t40 78.5h125q-9 -99 -75 -154.5t-174 -55.5q-123 0 -193.5 77t-70.5 212t70.5 212t193.5 77zM264 -214h-136l135 165h100z" />
    <glyph glyph-name="scedilla.smcp.ss01" horiz-adv-x="529" 
d="M253 563q108 0 164 -46.5t56 -135.5h-117q0 91 -106 91q-43 0 -67.5 -17.5t-24.5 -46.5q0 -31 26.5 -46t98.5 -31q50 -12 79.5 -22t62.5 -29t48 -48.5t15 -71.5q0 -80 -61 -127.5t-164 -47.5q-109 0 -170.5 50.5t-61.5 144.5h119q0 -103 115 -103q49 0 76.5 19.5
t27.5 54.5q0 32 -26.5 47t-96.5 32q-42 10 -65 16.5t-54 20t-46.5 29.5t-27.5 42t-12 60q0 74 57.5 119.5t154.5 45.5zM227 -214h-136l135 165h100z" />
    <glyph glyph-name="tcedilla.smcp.ss01" horiz-adv-x="508" 
d="M498 448h-185v-448h-118v448h-185v100h488v-100zM218 -214h-136l135 165h100z" />
    <glyph glyph-name="zero.lf" horiz-adv-x="608" 
d="M304 689q124 0 190 -91t66 -261t-66 -261t-190 -91t-190.5 91t-66.5 261t66.5 261t190.5 91zM304 588q-65 0 -99.5 -64.5t-34.5 -186.5t34.5 -187.5t99.5 -65.5t99.5 65.5t34.5 187.5t-34.5 186.5t-99.5 64.5z" />
    <glyph glyph-name="one.lf" horiz-adv-x="386" 
d="M290 0h-118v474h-157v86q82 0 121.5 26.5t48.5 87.5h105v-674z" />
    <glyph glyph-name="two.lf" horiz-adv-x="589" 
d="M297 689q103 0 164.5 -52t61.5 -138q0 -82 -43 -132t-134 -103q-94 -55 -124.5 -89t-32.5 -77h351v-98h-487q-1 8 -1 21q0 103 39.5 168t156.5 133q85 49 119 83.5t34 88.5q0 43 -28 69t-76 26q-112 0 -117 -119h-119q4 105 66.5 162t169.5 57z" />
    <glyph glyph-name="three.lf" 
d="M289 689q106 0 168 -51t62 -136q0 -112 -117 -154v-2q66 -22 97 -62t31 -105q0 -88 -66 -141t-174 -53q-118 0 -182.5 59t-64.5 168h120q0 -128 127 -128q54 0 87 27.5t33 72.5q0 106 -148 106h-24v97h24q64 0 101.5 28.5t37.5 75.5q0 44 -32 71.5t-84 27.5
q-56 0 -86 -30.5t-30 -91.5h-119q0 104 63.5 162.5t175.5 58.5z" />
    <glyph glyph-name="four.lf" horiz-adv-x="573" 
d="M557 162h-103v-162h-117v162h-322v102l281 410h158v-417h103v-95zM126 257h214v87q0 132 4 237h-2q-65 -105 -145 -222z" />
    <glyph glyph-name="five.lf" 
d="M497 576h-307l-18 -183h2q48 53 134 53q100 0 161 -61.5t61 -161.5q0 -108 -68 -173t-180 -65q-105 0 -167.5 53t-62.5 144h119q1 -46 32.5 -72t78.5 -26q59 0 92 35t33 99q0 63 -32.5 97.5t-88.5 34.5q-91 0 -112 -83l-117 8l38 399h402v-98z" />
    <glyph glyph-name="six.lf" 
d="M312 689q95 0 152.5 -51.5t64.5 -142.5h-120q-15 95 -102 95q-66 0 -105.5 -56.5t-42.5 -171.5h2q61 78 160 78q97 0 157 -61.5t60 -159.5q0 -105 -67 -169.5t-175 -64.5q-121 0 -185 83t-64 246q0 181 69.5 278t195.5 97zM298 347q-54 0 -86.5 -36.5t-32.5 -96.5
t31.5 -95t85.5 -35t86.5 35.5t32.5 96.5q0 59 -32 95t-85 36z" />
    <glyph glyph-name="seven.lf" horiz-adv-x="482" 
d="M466 674v-103q-160 -237 -219 -571h-129q37 180 99.5 328t132.5 245h-335v101h451z" />
    <glyph glyph-name="eight.lf" horiz-adv-x="585" 
d="M292 689q103 0 168 -51t65 -134q0 -55 -32 -95t-88 -58v-2q63 -18 98.5 -61.5t35.5 -105.5q0 -90 -67.5 -143.5t-179.5 -53.5q-111 0 -178.5 53.5t-67.5 143.5q0 62 35 105.5t98 61.5v2q-56 18 -87.5 58t-31.5 95q0 83 64.5 134t167.5 51zM292 591q-53 0 -85 -26t-32 -69
q0 -47 31.5 -74t85.5 -27t86 27.5t32 73.5q0 43 -32.5 69t-85.5 26zM292 299q-57 0 -92 -30t-35 -77q0 -49 34.5 -78t92.5 -29t92.5 29t34.5 78q0 47 -35 77t-92 30z" />
    <glyph glyph-name="nine.lf" 
d="M269 -15q-95 0 -152.5 51.5t-64.5 142.5h120q15 -95 102 -95q66 0 105.5 56.5t42.5 171.5h-2q-61 -78 -160 -78q-97 0 -157 61.5t-60 159.5q0 105 67 169.5t175 64.5q121 0 185 -83t64 -246q0 -181 -69.5 -278t-195.5 -97zM283 327q54 0 86.5 36.5t32.5 96.5t-31.5 95
t-85.5 35t-86.5 -35.5t-32.5 -96.5q0 -59 32 -95t85 -36z" />
    <glyph glyph-name="zero.dnom" horiz-adv-x="396" 
d="M198 414q82 0 126 -55t44 -157t-44 -157t-126 -55t-126 55t-44 157t44 157t126 55zM198 338q-35 0 -54 -35.5t-19 -100.5q0 -135 73 -135q74 0 74 135q0 136 -74 136z" />
    <glyph glyph-name="one.dnom" horiz-adv-x="258" 
d="M204 0h-96v265h-99v69q94 0 110 70h85v-404z" />
    <glyph glyph-name="two.dnom" horiz-adv-x="387" 
d="M195 414q69 0 110 -33.5t41 -86.5q0 -49 -29.5 -81t-84.5 -58q-54 -26 -72.5 -42.5t-20.5 -36.5h219v-76h-326q-1 6 -1 19q0 65 26 105.5t98 78.5q28 15 40.5 22.5t28 19t21 23.5t5.5 27q0 20 -15 32.5t-40 12.5q-60 0 -62 -64h-95q1 65 42.5 101.5t114.5 36.5z" />
    <glyph glyph-name="three.dnom" horiz-adv-x="382" 
d="M190 414q72 0 114 -31.5t42 -83.5q0 -63 -71 -90v-1q40 -13 58.5 -37t18.5 -62q0 -55 -43 -87t-117 -32q-79 0 -122.5 36.5t-43.5 103.5h95q0 -65 71 -65q30 0 48 13.5t18 35.5q0 54 -82 54h-14v71h13q35 0 56.5 14.5t21.5 39.5q0 21 -17 34t-46 13q-66 0 -66 -62h-93
q0 64 42.5 100t116.5 36z" />
    <glyph glyph-name="four.dnom" horiz-adv-x="376" 
d="M366 88h-67v-88h-93v88h-197v77l167 239h123v-242h67v-74zM94 162h116v46q0 65 3 128h-1q-40 -66 -78 -118z" />
    <glyph glyph-name="five.dnom" horiz-adv-x="382" 
d="M328 327h-192l-9 -85h2q31 28 82 28q63 0 101.5 -37.5t38.5 -99.5q0 -65 -44 -104t-118 -39q-72 0 -115 33.5t-43 90.5h95q1 -24 18 -37.5t44 -13.5q32 0 50.5 19t18.5 51q0 31 -18 48.5t-48 17.5q-52 0 -63 -43l-93 5l24 243h269v-77z" />
    <glyph glyph-name="six.dnom" horiz-adv-x="380" 
d="M202 414q65 0 104 -33t43 -91h-95q-8 52 -56 52q-73 0 -76 -119h1q36 39 95 39q60 0 98 -37t38 -95q0 -62 -44 -101t-114 -39q-81 0 -124.5 51t-43.5 150q0 106 45.5 164.5t128.5 58.5zM196 192q-29 0 -46.5 -18t-17.5 -47t17.5 -46t46.5 -17q28 0 45.5 18t17.5 46
q0 29 -17.5 46.5t-45.5 17.5z" />
    <glyph glyph-name="seven.dnom" horiz-adv-x="336" 
d="M326 404v-76q-98 -131 -138 -328h-101q46 200 145 326h-223v78h317z" />
    <glyph glyph-name="eight.dnom" horiz-adv-x="381" 
d="M190 414q69 0 112 -32t43 -83q0 -66 -73 -88v-2q39 -10 60.5 -35.5t21.5 -61.5q0 -56 -44.5 -89t-119.5 -33t-119 33t-44 89q0 36 22 61.5t61 35.5v2q-74 22 -74 88q0 51 43 83t111 32zM190 342q-29 0 -46 -13.5t-17 -35.5q0 -23 17 -37t46 -14q30 0 47.5 14t17.5 37
t-17.5 36t-47.5 13zM190 172q-30 0 -49 -15t-19 -40t18.5 -39t49.5 -14q32 0 50.5 14t18.5 39t-19 40t-50 15z" />
    <glyph glyph-name="nine.dnom" horiz-adv-x="380" 
d="M178 -9q-65 0 -104 33t-43 91h95q8 -52 56 -52q73 0 76 119h-1q-36 -39 -95 -39q-60 0 -98 37t-38 95q0 62 44 101t114 39q81 0 124.5 -51t43.5 -150q0 -106 -46 -164.5t-128 -58.5zM183 213q29 0 47 18t18 47t-17.5 46t-46.5 17q-28 0 -45.5 -17.5t-17.5 -46.5t17 -46.5
t45 -17.5z" />
    <glyph glyph-name="zero.numr" horiz-adv-x="396" 
d="M198 684q82 0 126 -55t44 -157t-44 -157t-126 -55t-126 55t-44 157t44 157t126 55zM198 608q-35 0 -54 -35.5t-19 -100.5q0 -135 73 -135q74 0 74 135q0 136 -74 136z" />
    <glyph glyph-name="one.numr" horiz-adv-x="258" 
d="M204 270h-96v265h-99v69q94 0 110 70h85v-404z" />
    <glyph glyph-name="two.numr" horiz-adv-x="387" 
d="M195 684q69 0 110 -33.5t41 -86.5q0 -49 -29.5 -81t-84.5 -58q-54 -26 -72.5 -42.5t-20.5 -36.5h219v-76h-326q-1 6 -1 19q0 65 26 105.5t98 78.5q28 15 40.5 22.5t28 19t21 23.5t5.5 27q0 20 -15 32.5t-40 12.5q-60 0 -62 -64h-95q1 65 42.5 101.5t114.5 36.5z" />
    <glyph glyph-name="three.numr" horiz-adv-x="382" 
d="M190 684q72 0 114 -31.5t42 -83.5q0 -63 -71 -90v-1q40 -13 58.5 -37t18.5 -62q0 -55 -43 -87t-117 -32q-79 0 -122.5 36.5t-43.5 103.5h95q0 -65 71 -65q30 0 48 13.5t18 35.5q0 54 -82 54h-14v71h13q35 0 56.5 14.5t21.5 39.5q0 21 -17 34t-46 13q-66 0 -66 -62h-93
q0 64 42.5 100t116.5 36z" />
    <glyph glyph-name="four.numr" horiz-adv-x="376" 
d="M366 358h-67v-88h-93v88h-197v77l167 239h123v-242h67v-74zM94 432h116v46q0 65 3 128h-1q-40 -66 -78 -118z" />
    <glyph glyph-name="five.numr" horiz-adv-x="382" 
d="M329 597h-192l-9 -85h2q31 28 82 28q63 0 101.5 -37.5t38.5 -99.5q0 -65 -44 -104t-118 -39q-72 0 -115 33.5t-43 90.5h95q1 -24 18 -37.5t44 -13.5q32 0 50.5 19t18.5 51q0 31 -18 48.5t-48 17.5q-52 0 -63 -43l-93 5l24 243h269v-77z" />
    <glyph glyph-name="six.numr" horiz-adv-x="380" 
d="M202 684q65 0 104 -33t43 -91h-95q-8 52 -56 52q-73 0 -76 -119h1q36 39 95 39q60 0 98 -37t38 -95q0 -62 -44 -101t-114 -39q-81 0 -124.5 51t-43.5 150q0 106 45.5 164.5t128.5 58.5zM196 462q-29 0 -46.5 -18t-17.5 -47t17.5 -46t46.5 -17q28 0 45.5 18t17.5 46
q0 29 -17.5 46.5t-45.5 17.5z" />
    <glyph glyph-name="seven.numr" horiz-adv-x="336" 
d="M326 674v-76q-98 -131 -138 -328h-101q46 200 145 326h-223v78h317z" />
    <glyph glyph-name="eight.numr" horiz-adv-x="381" 
d="M190 684q69 0 112 -32t43 -83q0 -66 -73 -88v-2q39 -10 60.5 -35.5t21.5 -61.5q0 -56 -44.5 -89t-119.5 -33t-119 33t-44 89q0 36 22 61.5t61 35.5v2q-74 22 -74 88q0 51 43 83t111 32zM190 612q-29 0 -46 -13.5t-17 -35.5q0 -23 17 -37t46 -14q30 0 47.5 14t17.5 37
t-17.5 36t-47.5 13zM190 442q-30 0 -49 -15t-19 -40t18.5 -39t49.5 -14q32 0 50.5 14t18.5 39t-19 40t-50 15z" />
    <glyph glyph-name="nine.numr" horiz-adv-x="380" 
d="M178 261q-65 0 -104 33t-43 91h95q8 -52 56 -52q73 0 76 119h-1q-36 -39 -95 -39q-60 0 -98 37t-38 95q0 62 44 101t114 39q81 0 124.5 -51t43.5 -150q0 -106 -46 -164.5t-128 -58.5zM183 483q29 0 47 18t18 47t-17.5 46t-46.5 17q-28 0 -45.5 -17.5t-17.5 -46.5
t17 -46.5t45 -17.5z" />
    <glyph glyph-name="zero.smcp" horiz-adv-x="495" 
d="M248 560q106 0 162.5 -74t56.5 -212q0 -137 -56.5 -211.5t-162.5 -74.5t-163 74t-57 212t57 212t163 74zM248 466q-48 0 -73.5 -49.5t-25.5 -142.5q0 -94 25.5 -144t73.5 -50q47 0 73 50.5t26 143.5t-26 142.5t-73 49.5z" />
    <glyph glyph-name="one.smcp" horiz-adv-x="495" 
d="M330 0h-118v368h-133v86q70 0 104.5 22t42.5 72h104v-548z" />
    <glyph glyph-name="two.smcp" horiz-adv-x="495" 
d="M246 560q89 0 142.5 -44t53.5 -116q0 -66 -37 -106.5t-111 -80.5q-73 -38 -97.5 -62.5t-25.5 -54.5h285v-96h-420q-1 7 -1 23q0 86 33.5 140.5t127.5 106.5q68 38 96.5 64t28.5 65q0 31 -20 49.5t-54 18.5q-83 0 -86 -90h-118q1 87 55.5 135t147.5 48z" />
    <glyph glyph-name="three.smcp" horiz-adv-x="495" 
d="M245 560q92 0 145.5 -41.5t53.5 -111.5q0 -46 -22.5 -75t-71.5 -48v-2q53 -18 78 -50t25 -83q0 -73 -56.5 -117t-150.5 -44q-103 0 -158.5 48.5t-55.5 139.5h119q0 -95 95 -95q39 0 63 19.5t24 52.5q0 78 -111 78h-17v90h19q47 0 75 20.5t28 54.5q0 32 -23 51.5t-61 19.5
q-87 0 -87 -91h-117q0 87 54.5 135.5t151.5 48.5z" />
    <glyph glyph-name="four.smcp" horiz-adv-x="495" 
d="M478 123h-88v-123h-116v123h-261v97l223 328h154v-334h88v-91zM118 214h159v65q0 61 4 179h-2q-41 -70 -105 -163z" />
    <glyph glyph-name="five.smcp" horiz-adv-x="495" 
d="M424 452h-250l-13 -128h2q43 41 109 41q82 0 132.5 -50t50.5 -131q0 -90 -57.5 -143t-153.5 -53q-93 0 -148 44t-55 121h120q1 -34 23.5 -53.5t58.5 -19.5q43 0 67 26t24 72t-23.5 71.5t-64.5 25.5q-68 0 -83 -62l-116 8l31 327h346v-96z" />
    <glyph glyph-name="six.smcp" horiz-adv-x="495" 
d="M263 560q83 0 133.5 -43t56.5 -119h-119q-12 71 -76 71q-101 0 -107 -170h2q48 58 128 58q79 0 129 -49.5t50 -127.5q0 -86 -57.5 -139t-149.5 -53q-103 0 -159 68.5t-56 201.5q0 145 59.5 223.5t165.5 78.5zM254 270q-39 0 -63 -26.5t-24 -68.5q0 -43 24 -69t63 -26
q38 0 62 26.5t24 69.5q0 42 -23.5 68t-62.5 26z" />
    <glyph glyph-name="seven.smcp" horiz-adv-x="495" 
d="M449 548v-97q-131 -183 -183 -451h-128q31 138 83.5 255t111.5 194h-297v99h413z" />
    <glyph glyph-name="eight.smcp" horiz-adv-x="495" 
d="M248 560q88 0 143.5 -42t55.5 -110q0 -44 -25.5 -76t-71.5 -47v-2q51 -14 80 -49t29 -85q0 -75 -57 -118t-154 -43t-154.5 43t-57.5 118q0 50 29 85t80 49v2q-46 15 -71.5 47t-25.5 76q0 68 55.5 110t144.5 42zM248 469q-40 0 -63.5 -19t-23.5 -51q0 -34 23.5 -54
t63.5 -20t63 20t23 54q0 32 -23.5 51t-62.5 19zM248 236q-42 0 -67.5 -21t-25.5 -56q0 -37 25 -58t68 -21q42 0 67 21t25 58q0 35 -25 56t-67 21z" />
    <glyph glyph-name="nine.smcp" horiz-adv-x="495" 
d="M232 -12q-83 0 -133.5 43t-56.5 119h120q11 -71 75 -71q102 0 108 170h-2q-49 -58 -129 -58q-79 0 -128.5 49.5t-49.5 127.5q0 86 57 139t149 53q103 0 159 -68.5t56 -201.5q0 -145 -59 -223.5t-166 -78.5zM241 278q39 0 63 26.5t24 68.5q0 43 -23.5 69t-63.5 26
q-38 0 -62 -26.5t-24 -69.5q0 -42 23.5 -68t62.5 -26z" />
    <glyph glyph-name="zero.lf.smcp" horiz-adv-x="526" 
d="M263 560q106 0 163 -74t57 -212q0 -137 -57 -211.5t-163 -74.5t-163 74.5t-57 211.5q0 138 57 212t163 74zM263 466q-48 0 -73.5 -49.5t-25.5 -142.5q0 -94 25.5 -144t73.5 -50t73.5 50t25.5 144q0 93 -25.5 142.5t-73.5 49.5z" />
    <glyph glyph-name="one.lf.smcp" horiz-adv-x="345" 
d="M265 0h-119v368h-133v86q71 0 105.5 22t41.5 72h105v-548z" />
    <glyph glyph-name="two.lf.smcp" horiz-adv-x="511" 
d="M258 560q89 0 142.5 -44t53.5 -116q0 -66 -37.5 -107t-111.5 -80q-73 -38 -97.5 -63t-25.5 -54h285v-96h-419q-1 7 -1 23q0 86 33 140.5t128 106.5q68 38 96 64t28 65q0 31 -20 49.5t-54 18.5q-83 0 -85 -90h-119q2 87 56 135t148 48z" />
    <glyph glyph-name="three.lf.smcp" horiz-adv-x="506" 
d="M252 560q92 0 145.5 -41.5t53.5 -111.5q0 -46 -22.5 -75t-71.5 -48v-2q53 -18 78 -50t25 -83q0 -73 -56.5 -117t-150.5 -44q-103 0 -158.5 48.5t-55.5 139.5h119q0 -95 95 -95q39 0 63 19.5t24 52.5q0 78 -110 78h-18v90h19q47 0 75 20.5t28 54.5q0 32 -23 51.5t-61 19.5
q-87 0 -87 -91h-117q0 87 54.5 135.5t151.5 48.5z" />
    <glyph glyph-name="four.lf.smcp" horiz-adv-x="493" 
d="M479 123h-88v-123h-116v123h-261v97l223 328h154v-334h88v-91zM119 214h159v65q0 81 5 179h-2q-35 -59 -106 -163z" />
    <glyph glyph-name="five.lf.smcp" horiz-adv-x="505" 
d="M429 452h-250l-13 -128h2q43 41 109 41q82 0 132.5 -50t50.5 -131q0 -90 -57.5 -143t-153.5 -53q-93 0 -148 44t-55 121h120q1 -34 23.5 -53.5t58.5 -19.5q43 0 67 26t24 72t-23.5 71.5t-64.5 25.5q-68 0 -83 -62l-116 8l31 327h346v-96z" />
    <glyph glyph-name="six.lf.smcp" horiz-adv-x="503" 
d="M268 560q83 0 133.5 -43t56.5 -119h-120q-11 71 -75 71q-102 0 -108 -170h2q49 58 129 58q79 0 128.5 -49.5t49.5 -127.5q0 -85 -57 -138.5t-149 -53.5q-103 0 -159 68.5t-56 201.5q0 145 59 223.5t166 78.5zM259 270q-39 0 -63 -26.5t-24 -68.5q0 -43 23.5 -69t63.5 -26
q38 0 62 26.5t24 69.5q0 42 -23.5 68t-62.5 26z" />
    <glyph glyph-name="seven.lf.smcp" horiz-adv-x="440" 
d="M426 548v-97q-131 -183 -183 -451h-128q31 138 83.5 255t111.5 194h-297v99h413z" />
    <glyph glyph-name="eight.lf.smcp" horiz-adv-x="506" 
d="M253 560q89 0 144.5 -42t55.5 -110q0 -44 -26 -76t-72 -47v-2q51 -14 80 -49t29 -85q0 -75 -57 -118t-154 -43t-154 43t-57 118q0 50 28.5 85t79.5 49v2q-46 15 -71.5 47t-25.5 76q0 68 55.5 110t144.5 42zM253 469q-40 0 -63.5 -19t-23.5 -51q0 -34 23.5 -54t63.5 -20
t63 20t23 54q0 32 -23.5 51t-62.5 19zM253 236q-42 0 -67.5 -21t-25.5 -56q0 -37 25 -58t68 -21t68 21t25 58q0 35 -25.5 56t-67.5 21z" />
    <glyph glyph-name="nine.lf.smcp" horiz-adv-x="503" 
d="M235 -12q-83 0 -133.5 43t-56.5 119h120q11 -71 75 -71q102 0 108 170h-2q-49 -58 -129 -58q-79 0 -128.5 49.5t-49.5 127.5q0 85 57 138.5t149 53.5q103 0 159 -68.5t56 -201.5q0 -145 -59 -223.5t-166 -78.5zM244 278q39 0 63 26.5t24 68.5q0 43 -23.5 69t-63.5 26
q-38 0 -62 -26.5t-24 -69.5q0 -42 23.5 -68t62.5 -26z" />
    <glyph glyph-name="periodcentered.case" horiz-adv-x="242" 
d="M187 285h-132v141h132v-141z" />
    <glyph glyph-name="exclamdown.case" horiz-adv-x="300" 
d="M85 712h129v-119h-129v119zM105 525h89l26 -525h-141z" />
    <glyph glyph-name="periodcentered.loclCAT.case" horiz-adv-x="80" 
d="M-35 351h-131v142h131v-142z" />
    <glyph glyph-name="questiondown.case" horiz-adv-x="532" 
d="M216 712h129v-119h-129v119zM263 -14q-103 0 -164 49.5t-61 133.5q0 53 20.5 89t82.5 88q56 47 72.5 82t16.5 108h99v-31q0 -75 -19 -115.5t-79 -94.5q-46 -41 -59.5 -64.5t-13.5 -58.5q0 -39 28 -62.5t77 -23.5q112 0 118 115h119q-4 -106 -65 -160.5t-172 -54.5z" />
    <glyph glyph-name="slash.case" horiz-adv-x="473" 
d="M156 0h-94l254 712h94z" />
    <glyph glyph-name="periodcentered.loclCAT" horiz-adv-x="181" 
d="M156 285h-131v141h131v-141z" />
    <glyph glyph-name="braceleft.case" horiz-adv-x="320" 
d="M295 772v-68q-46 -2 -65 -23t-19 -72v-124q0 -54 -20.5 -83.5t-68.5 -43.5v-3q48 -14 68.5 -43.5t20.5 -83.5v-125q0 -51 19 -72t65 -22v-69h-23q-90 0 -128 40t-38 130v115q0 43 -14 63.5t-52 31.5v73q38 11 52 31.5t14 63.5v115q0 90 38 129.5t128 39.5h23z" />
    <glyph glyph-name="braceright.case" horiz-adv-x="320" 
d="M24 772h24q90 0 127.5 -39.5t37.5 -129.5v-115q0 -43 14.5 -63.5t52.5 -31.5v-73q-38 -11 -52.5 -31.5t-14.5 -63.5v-115q0 -90 -37.5 -130t-127.5 -40h-24v69q46 1 65 22t19 72v125q0 54 21 83.5t68 43.5v3q-47 14 -68 43.5t-21 83.5v124q0 51 -19 72t-65 23v68z" />
    <glyph glyph-name="bracketleft.case" horiz-adv-x="313" 
d="M296 702h-115v-692h115v-70h-223v832h223v-70z" />
    <glyph glyph-name="bracketright.case" horiz-adv-x="313" 
d="M240 772v-832h-223v70h115v692h-115v70h223z" />
    <glyph glyph-name="parenleft.case" horiz-adv-x="310" 
d="M184 772h96q-58 -106 -84.5 -204t-26.5 -212q0 -113 26.5 -211.5t84.5 -204.5h-96q-138 188 -138 416q0 229 138 416z" />
    <glyph glyph-name="parenright.case" horiz-adv-x="310" 
d="M30 772h96q138 -187 138 -416q0 -228 -138 -416h-96q58 105 84.5 203.5t26.5 212.5q0 115 -26 213t-85 203z" />
    <glyph glyph-name="bracketleft.sups" horiz-adv-x="239" 
d="M227 783h-83v-491h82v-65h-175v622h176v-66z" />
    <glyph glyph-name="bracketright.sups" horiz-adv-x="239" 
d="M188 849v-622h-175v65h82v491h-83v66h176z" />
    <glyph glyph-name="emdash.case" horiz-adv-x="1000" 
d="M980 309h-960v94h960v-94z" />
    <glyph glyph-name="endash.case" horiz-adv-x="500" 
d="M480 309h-460v94h460v-94z" />
    <glyph glyph-name="hyphen.case" horiz-adv-x="310" 
d="M280 309h-250v94h250v-94z" />
    <glyph glyph-name="guillemetleft.case" horiz-adv-x="498" 
d="M153 356l109 -200h-102l-114 200l114 200h102zM342 356l110 -200h-102l-114 200l114 200h102z" />
    <glyph glyph-name="guillemetright.case" horiz-adv-x="498" 
d="M148 556l114 -200l-114 -200h-102l109 200l-109 200h102zM338 556l114 -200l-114 -200h-102l109 200l-109 200h102z" />
    <glyph glyph-name="guilsinglleft.case" horiz-adv-x="308" 
d="M153 356l109 -200h-102l-114 200l114 200h102z" />
    <glyph glyph-name="guilsinglright.case" horiz-adv-x="308" 
d="M148 556l114 -200l-114 -200h-102l109 200l-109 200h102z" />
    <glyph glyph-name="quoteright.loclFRA" horiz-adv-x="279" 
d="M197 587l-56 -140h-62l41 140h-39v125h116v-125z" />
    <glyph glyph-name="periodcentered.loclCAT.smcp" horiz-adv-x="60" 
d="M-6 277h-131v142h131v-142z" />
    <glyph glyph-name="ampersand.smcp" horiz-adv-x="615" 
d="M474 0l-49 47q-67 -59 -172 -59q-99 0 -154.5 43.5t-55.5 116.5q0 106 119 160q-36 35 -49.5 61t-13.5 61q0 60 44.5 96.5t116.5 36.5q73 0 116.5 -35t43.5 -93q0 -45 -24.5 -78t-81.5 -65l108 -105q26 43 26 116h106q-2 -108 -59 -187l120 -116h-141zM262 482
q-60 0 -62 -55q0 -19 11 -36t41 -47q40 23 54 42t14 43t-15.5 38.5t-42.5 14.5zM259 73q59 0 102 36l-139 136q-67 -35 -67 -93q1 -35 28.5 -57t75.5 -22z" />
    <glyph glyph-name="acute.case" horiz-adv-x="325" 
d="M143 760h-93l81 142h144z" />
    <glyph glyph-name="breve.case" horiz-adv-x="431" 
d="M300 902h81q-5 -70 -48.5 -108.5t-117.5 -38.5q-73 0 -116.5 38.5t-48.5 108.5h80q8 -72 85 -72t85 72z" />
    <glyph glyph-name="caron.alt" horiz-adv-x="223" 
d="M116 535h-66l28 177h95z" />
    <glyph glyph-name="caron.case" horiz-adv-x="451" 
d="M287 760h-123l-114 142h108l68 -82l67 82h108z" />
    <glyph glyph-name="caron.alt.case" horiz-adv-x="223" 
d="M116 491h-66l28 221h95z" />
    <glyph glyph-name="circumflex.case" horiz-adv-x="451" 
d="M164 902h123l114 -142h-108l-68 82l-67 -82h-108z" />
    <glyph glyph-name="dieresis.case" horiz-adv-x="408" 
d="M152 772h-102v109h102v-109zM358 772h-102v109h102v-109z" />
    <glyph glyph-name="dotaccent.case" horiz-adv-x="214" 
d="M164 769h-114v109h114v-109z" />
    <glyph glyph-name="grave.case" horiz-adv-x="325" 
d="M193 902l82 -142h-93l-132 142h143z" />
    <glyph glyph-name="hungarumlaut.case" horiz-adv-x="532" 
d="M142 758h-92l101 144h129zM317 758h-92l101 144h129z" />
    <glyph glyph-name="macron.case" horiz-adv-x="405" 
d="M355 783h-305v78h305v-78z" />
    <glyph glyph-name="breve.narrow" horiz-adv-x="398" 
d="M272 712h76q-3 -69 -42 -108t-107 -39t-107 38.5t-42 108.5h75q3 -36 22 -55.5t52 -19.5t52 19.5t21 55.5z" />
    <glyph glyph-name="circumflex.narrow" horiz-adv-x="421" 
d="M371 569h-102l-58 85l-58 -85h-103l101 143h119z" />
    <glyph glyph-name="dieresis.narrow" horiz-adv-x="366" 
d="M152 603h-102v109h102v-109zM316 603h-103v109h103v-109z" />
    <glyph glyph-name="macron.narrow" horiz-adv-x="371" 
d="M321 610h-271v78h271v-78z" />
    <glyph glyph-name="tilde.narrow" horiz-adv-x="417" 
d="M307 709h60q-3 -59 -29.5 -92t-71.5 -33q-30 0 -65 25t-51 25q-36 0 -41 -50h-59q3 59 28.5 92t71.5 33q30 0 65 -25t51 -25q36 0 41 50z" />
    <glyph glyph-name="ring.case" horiz-adv-x="308" 
d="M154 959q44 0 74 -30.5t30 -73.5t-30 -73.5t-74 -30.5t-74 30.5t-30 73.5t30 73.5t74 30.5zM154 911q-23 0 -39.5 -16.5t-16.5 -39.5t16.5 -39.5t39.5 -16.5t39.5 16.5t16.5 39.5t-16.5 39.5t-39.5 16.5z" />
    <glyph glyph-name="cedilla.ss01" horiz-adv-x="335" 
d="M186 -214h-136l135 165h100z" />
    <glyph glyph-name="tilde.case" horiz-adv-x="460" 
d="M342 899h68q-3 -59 -31.5 -92t-77.5 -33q-34 0 -76 24.5t-61 24.5q-40 0 -46 -49h-68q3 59 32 92t78 33q34 0 76 -24t60 -24q42 0 46 48z" />
    <glyph glyph-name="bracketleftinferior" horiz-adv-x="239" 
d="M227 281h-83v-491h82v-65h-175v622h176v-66z" />
    <glyph glyph-name="bracketrightinferior" horiz-adv-x="239" 
d="M188 347v-622h-175v65h82v491h-83v66h176z" />
    </font>
</defs>
</svg>
