<?xml version="1.0" encoding="UTF-8" standalone="no"?>
<svg width="122px" height="164px" viewBox="0 0 122 164" version="1.1" xmlns="http://www.w3.org/2000/svg" xmlns:xlink="http://www.w3.org/1999/xlink" xmlns:sketch="http://www.bohemiancoding.com/sketch/ns">
    <!-- Generator: Sketch 3.0.4 (8053) - http://www.bohemiancoding.com/sketch -->
    <title>Paper</title>
    <desc>Created with Sketch.</desc>
    <defs></defs>
    <g id="Page-1" stroke="none" stroke-width="1" fill="none" fill-rule="evenodd" sketch:type="MSPage">
        <g id="Paper" sketch:type="MSArtboardGroup">
            <g id="Paper-+-Shapes-+-Ruler" sketch:type="MSLayerGroup" transform="translate(3.000000, 2.000000)">
                <g id="Paper-+-Shapes" transform="translate(-0.391304, 0.000000)" sketch:type="MSShapeGroup">
                    <path d="M79.3943853,0.936445153 C78.9781854,0.520245226 78.6660401,0.312148384 78.4579401,0.312148384 C78.0417402,0.104048421 77.729595,0 77.521495,0 L2.91803111,0 C1.2532314,0.416199927 0.316795616,1.35263572 0.108695652,2.80933546 L0.108695652,157.010637 C0.524895579,158.675437 1.46133137,159.611873 2.91803111,159.819973 L114.667153,159.819973 C116.331952,159.403773 117.268388,158.467337 117.476488,157.010637 L117.476488,39.9549932 C117.268388,39.5387933 117.16434,39.226648 117.16434,39.0185481 C116.95624,38.6023481 116.748143,38.2902029 116.540043,38.0821029 L79.3943853,0.936445153 L79.3943853,0.936445153 Z" id="Paper" stroke="#424242"></path>
                    <g id="Shapes" transform="translate(20.260870, 24.913043)">
                        <g id="Group" transform="translate(0.000000, 36.000000)">
                            <ellipse id="Oval-1" stroke="#D01716" cx="61.3111413" cy="14.8754941" rx="14.84375" ry="14.7727273"></ellipse>
                            <rect id="Rectangle-1" stroke="#00ACC1" x="46.4673913" y="48.5573123" width="29.6875" height="29.5454545" rx="2"></rect>
                            <ellipse id="Oval-2" stroke="#259B24" cx="14.9579136" cy="63.3300395" rx="14.84375" ry="14.7727273"></ellipse>
                            <rect id="Rectangle-3" stroke="#FDD835" x="0.114163569" y="-0.45874849" width="29.6875" height="29.5454545" rx="2"></rect>
                        </g>
                        <path d="M14.2065832,16.512983 L7.86452076,0.256273401 L6.81777259,0.256273401 L0.475710178,16.512983 L1.80980098,16.512983 L3.63647915,11.7967985 L11.0663387,11.7967985 L12.8724924,16.512983 L14.2065832,16.512983 Z M4.0674931,10.7101201 L7.35140891,2.23402818 L10.6148003,10.7101201 L4.0674931,10.7101201 Z M16.6079466,0.256273401 L16.6079466,16.512983 L22.560044,16.512983 C25.0845543,16.512983 27.1370017,15.1437682 27.1370017,12.1228021 C27.1370017,9.84077732 25.9260577,8.53676318 24.7151138,8.08035823 C25.6387151,7.55875258 26.459694,6.42860699 26.459694,4.47258578 C26.459694,1.66895538 24.5714425,0.256273401 21.9853588,0.256273401 L16.6079466,0.256273401 Z M17.8188906,1.38641899 L21.8622119,1.38641899 C23.8325614,1.38641899 25.2282256,2.47309744 25.2282256,4.55952006 C25.2282256,6.77634409 24.0788551,7.60221972 22.5395195,7.60221972 L17.8188906,7.60221972 L17.8188906,1.38641899 Z M17.8188906,8.7323653 L22.6421419,8.7323653 C24.2430509,8.7323653 25.9055333,9.62344163 25.9055333,12.0576014 C25.9055333,14.4265604 24.2840998,15.3611038 22.4368972,15.3611038 L17.8188906,15.3611038 L17.8188906,8.7323653 Z M37.0913715,0.0606712806 C32.8428054,0.0606712806 29.7025609,3.08163737 29.7025609,8.3846282 C29.7025609,13.6658855 32.9249033,16.7085851 37.1529449,16.7085851 C40.7036789,16.7085851 43.392385,14.6004289 43.9670702,11.1013243 L42.7150773,10.9926565 C42.2224899,13.9049547 40.0263713,15.556706 37.111896,15.556706 C33.6432599,15.556706 30.9340293,13.0138784 30.9340293,8.3846282 C30.9340293,3.84231228 33.4995886,1.21255044 37.0503225,1.21255044 C39.9853223,1.21255044 42.3251123,3.03817023 42.6945528,6.10260346 L43.9465458,5.97220204 C43.5155318,2.32096245 40.6421055,0.0606712806 37.0913715,0.0606712806 L37.0913715,0.0606712806 Z" id="ABC" fill="#455EDE"></path>
                    </g>
                </g>
            </g>
        </g>
    </g>
</svg>