<?xml version="1.0" encoding="UTF-8" standalone="no"?>
<svg width="174px" height="117px" viewBox="0 0 174 117" version="1.1" xmlns="http://www.w3.org/2000/svg" xmlns:xlink="http://www.w3.org/1999/xlink" xmlns:sketch="http://www.bohemiancoding.com/sketch/ns">
    <!-- Generator: Sketch 3.0.4 (8053) - http://www.bohemiancoding.com/sketch -->
    <title>Cloud</title>
    <desc>Created with Sketch.</desc>
    <defs></defs>
    <g id="Page-1" stroke="none" stroke-width="1" fill="none" fill-rule="evenodd" sketch:type="MSPage">
        <g id="Cloud" sketch:type="MSArtboardGroup">
            <path d="M133.816406,29.3088728 C126.511682,15.9159487 115.112057,7.33623535 99.6171875,3.56947545 C95.4114373,2.52315325 91.2057502,2 87,2 C69.9556439,2 56.1211469,8.27783901 45.4960938,20.8337054 C39.2981461,28.5764896 35.6458389,37.0515723 34.5390625,46.2592076 C33.6536414,46.0499432 32.6575576,45.9453125 31.5507812,45.9453125 C20.4830176,45.9453125 12.0716434,50.3397998 6.31640625,59.1289062 C3.4387877,63.7327239 2,68.6503645 2,73.8819754 C2,88.7397506 9.85799434,97.8426172 25.5742188,101.190848 C28.4518373,101.818642 30.9973848,102.132533 33.2109375,102.132533 L137.136719,102.132533 L137.46875,102.132533 C137.46875,102.132533 137.690102,102.027903 138.132812,101.818638 C156.283945,98.0518785 167.130191,89.2629039 170.671875,75.4514509 C171.557296,72.3124843 172,69.0689342 172,65.7207031 C172,52.9555723 166.466201,42.9110299 155.398438,35.5867746 C148.757779,31.4014858 141.563841,29.3088728 133.816406,29.3088728 L133.816406,29.3088728 Z" stroke="#424242" sketch:type="MSShapeGroup"></path>
            <g id="Group" sketch:type="MSLayerGroup" transform="translate(53.000000, 59.000000)">
                <path d="M4.37042791,55.7793445 C2.15879464,55.7793445 0.365911632,53.9950325 0.365911632,51.7758647 L0.365911632,17.180019 L67.601107,17.180019 L67.601107,51.7758647 C67.601107,53.9869256 65.802728,55.7793445 63.5965908,55.7793445 L4.37042791,55.7793445 Z" id="Path" stroke="#424242" fill="#FFFFFF" sketch:type="MSShapeGroup"></path>
                <path d="M11.1497993,6.96442975 C10.8684791,5.64478809 10.0714171,4.84358911 8.75858944,4.56080875 C7.44576177,4.84358911 6.64869978,5.64478809 6.36737956,6.96442975 C6.64869978,8.37833153 7.44576177,9.22665987 8.75858944,9.50944023 C10.1651905,9.41518011 10.9622525,8.56685177 11.1497993,6.96442975 L11.1497993,6.96442975 Z" id="Path" stroke="#D01716" sketch:type="MSShapeGroup"></path>
                <path d="M20.7146388,6.96442975 C20.4333186,5.64478809 19.6362566,4.84358911 18.323429,4.56080875 C17.0106013,4.84358911 16.2135393,5.64478809 15.9322191,6.96442975 C16.2135393,8.37833153 17.0106013,9.22665987 18.323429,9.50944023 C19.73003,9.41518011 20.527092,8.56685177 20.7146388,6.96442975 L20.7146388,6.96442975 Z" id="Path" stroke="#FDD835" sketch:type="MSShapeGroup"></path>
                <path d="M30.4201377,6.96442975 C30.1388175,5.64478809 29.3417555,4.84358911 28.0289279,4.56080875 C26.7161002,4.84358911 25.9190382,5.64478809 25.637718,6.96442975 C25.8252648,8.37833153 26.6223268,9.22665987 28.0289279,9.50944023 C29.3417555,9.22665987 30.1388175,8.37833153 30.4201377,6.96442975 L30.4201377,6.96442975 Z" id="Path" stroke="#259B24" sketch:type="MSShapeGroup"></path>
                <path d="M63.5965908,-0.246433254 C65.808224,-0.246433254 67.601107,1.53929056 67.601107,3.75226446 L67.601107,14.3166822 L0.365911632,14.3166822 L0.365911632,3.75226446 C0.365911632,1.54384469 2.16429069,-0.246433254 4.37042791,-0.246433254 L63.5965908,-0.246433254 Z" id="Path" stroke="#424242" sketch:type="MSShapeGroup"></path>
            </g>
        </g>
    </g>
</svg>