<?xml version="1.0" encoding="UTF-8" standalone="no"?>
<svg width="450px" height="320px" viewBox="0 0 450 320" version="1.1" xmlns="http://www.w3.org/2000/svg" xmlns:xlink="http://www.w3.org/1999/xlink" xmlns:sketch="http://www.bohemiancoding.com/sketch/ns">
    <!-- Generator: Sketch 3.0.4 (8053) - http://www.bohemiancoding.com/sketch -->
    <title>pub-logo-svg</title>
    <desc>Created with Sketch.</desc>
    <defs>
        <path id="path-1" d="M19.7616422,144.825673 C19.7616422,145.932126 20.6608353,146.829084 21.7599471,146.829084 L27.6002948,146.829084 L164.582945,9.63370684 C165.364345,8.8510939 165.358401,7.58045831 164.578999,6.80494657 L160.488134,2.73449873 C159.704555,1.95483051 158.432834,1.95443373 157.645185,2.73607415 L19.7616422,139.567758 L19.7616422,144.825673 Z"></path>
        <path id="path-2" d="M0,46.2710033 L0,19.8417681 L146.236152,19.8417681 L146.236152,166.670852 L119.913645,166.670852 L119.913645,46.2710033 L0,46.2710033 Z"></path>
        <path id="path-3" d="M19.9977942,26.2583193 L19.9977942,-0.17091587 L166.233946,-0.17091587 L166.233946,146.658168 L139.911439,146.658168 L139.911439,26.2583193 L19.9977942,26.2583193 Z"></path>
    </defs>
    <g id="Page-1" stroke="none" stroke-width="1" fill="none" fill-rule="evenodd" sketch:type="MSPage">
        <g id="pub-logo-svg" sketch:type="MSArtboardGroup">
            <g id="Rectangle-2-+-Rectangle-2-+-Rectangle-2-copy-2-+-publications-2-+-a-web-app-for-beauti" sketch:type="MSLayerGroup" transform="translate(0.000000, 30.000000)">
                <g id="Rectangle-2-+-Rectangle-2-+-Rectangle-2-copy-2-+-publications-2" transform="translate(85.000000, 0.000000)">
                    <g id="Rectangle-2-+-Rectangle-2-+-Rectangle-2-copy-2" transform="translate(45.000000, 0.000000)">
                        <g id="Rectangle-2">
                            <use fill="#FFFFFF" fill-rule="evenodd" sketch:type="MSShapeGroup" xlink:href="#path-1"></use>
                            <use fill="none" xlink:href="#path-1"></use>
                        </g>
                        <g id="Rectangle-2">
                            <use stroke="#FFFFFF" stroke-width="1" sketch:type="MSShapeGroup" xlink:href="#path-2"></use>
                            <use stroke="none" xlink:href="#path-2"></use>
                        </g>
                        <g id="Rectangle-2-copy">
                            <use stroke="#FFFFFF" stroke-width="1" sketch:type="MSShapeGroup" transform="translate(92.997794, 73.329084) rotate(-180.000000) translate(-92.997794, -73.329084) " xlink:href="#path-3"></use>
                            <use stroke="none" xlink:href="#path-3"></use>
                        </g>
                    </g>
                    <path d="M13.198,192.352 C7.69,192.352 3.856,195.052 2.236,198.616 L2.236,192.838 L0.4,192.838 L0.4,233.77 L2.29,233.77 L2.29,214.276 C3.91,217.84 7.69,220.486 13.198,220.486 C20.488,220.486 26.374,215.356 26.374,206.392 C26.374,197.428 20.488,192.352 13.198,192.352 Z M13.144,194.08 C19.462,194.08 24.484,198.4 24.484,206.446 C24.484,214.438 19.462,218.758 13.144,218.758 C7.042,218.758 2.344,215.14 2.344,207.418 L2.344,205.42 C2.344,197.698 7.042,194.08 13.144,194.08 Z M53.442,220 L53.442,192.838 L51.552,192.838 L51.552,209.416 C51.552,214.276 48.258,218.65 42.804,218.65 C37.674,218.65 34.542,214.978 34.542,209.524 L34.542,192.838 L32.652,192.838 L32.652,209.74 C32.652,216.058 36.594,220.486 42.588,220.486 C47.664,220.486 50.634,217.408 51.66,214.978 L51.66,220 L53.442,220 Z M63.9319999,178.042 L62.0419999,178.042 L62.0419999,220 L63.8779999,220 L63.8779999,214.222 C65.4979999,217.786 69.3319999,220.486 74.8399999,220.486 C82.1299999,220.486 88.0159999,215.41 88.0159999,206.446 C88.0159999,197.482 82.1299999,192.352 74.8399999,192.352 C69.3319999,192.352 65.5519999,194.998 63.9319999,198.562 L63.9319999,178.042 Z M74.7859999,194.08 C81.1039999,194.08 86.1259999,198.4 86.1259999,206.392 C86.1259999,214.438 81.1039999,218.758 74.7859999,218.758 C68.6839999,218.758 63.9859999,215.14 63.9859999,207.418 L63.9859999,205.42 C63.9859999,197.698 68.6839999,194.08 74.7859999,194.08 Z M96.3999999,220 L96.3999999,178.042 L94.5099999,178.042 L94.5099999,220 L96.3999999,220 Z M106.026,180.472 C105.162,180.472 104.406,181.228 104.406,182.146 C104.406,183.01 105.108,183.766 106.026,183.766 C106.944,183.766 107.7,183.01 107.7,182.146 C107.7,181.228 106.944,180.472 106.026,180.472 Z M106.944,220 L106.944,192.838 L105.054,192.838 L105.054,220 L106.944,220 Z M126.344,192.352 C119,192.352 113.492,197.428 113.492,206.392 C113.492,215.41 119.108,220.486 126.398,220.486 C132.824,220.486 137.144,216.976 138.116,211.252 L136.28,211.09 C135.47,215.896 131.798,218.758 126.398,218.758 C120.242,218.758 115.436,214.384 115.436,206.392 C115.436,198.454 120.08,194.026 126.344,194.026 C131.582,194.026 135.578,197.158 136.226,202.396 L138.062,202.234 C137.36,196.132 132.608,192.352 126.344,192.352 Z M152.44,192.352 C146.122,192.352 142.612,196.996 142.612,201.64 L144.502,201.748 C144.502,197.968 147.202,194.134 152.494,194.134 C157.516,194.134 160,197.212 160,202.504 L160,204.88 L151.738,205.366 C145.744,205.744 141.802,208.012 141.802,213.196 C141.802,218.002 145.312,220.486 150.334,220.486 C154.384,220.486 157.948,218.758 160,215.248 L160,220 L161.89,220 L161.89,202.504 C161.89,196.24 158.65,192.352 152.44,192.352 Z M160,206.662 L160,208.066 C160,216.058 155.302,218.704 150.496,218.704 C146.554,218.704 143.692,217.138 143.692,213.142 C143.692,209.038 146.878,207.472 151.9,207.148 L160,206.662 Z M178.104,218.488 C174.972,218.488 172.704,216.76 172.704,211.954 L172.812,194.512 L180.966,194.512 L180.966,192.838 L172.812,192.838 L172.866,183.064 L170.922,183.064 L170.868,192.838 L165.684,192.838 L165.684,194.512 L170.868,194.512 L170.814,212.224 C170.814,217.948 173.73,220.216 177.834,220.216 C179.238,220.216 180.372,220.108 181.074,219.946 L181.074,218.164 C180.372,218.326 179.292,218.488 178.104,218.488 Z M186.218,180.472 C185.354,180.472 184.598,181.228 184.598,182.146 C184.598,183.01 185.3,183.766 186.218,183.766 C187.136,183.766 187.892,183.01 187.892,182.146 C187.892,181.228 187.136,180.472 186.218,180.472 Z M187.136,220 L187.136,192.838 L185.246,192.838 L185.246,220 L187.136,220 Z M207.238,192.352 C199.678,192.352 193.684,197.644 193.684,206.392 C193.684,215.14 199.678,220.486 207.238,220.486 C214.744,220.486 220.792,215.14 220.792,206.392 C220.792,197.644 214.744,192.352 207.238,192.352 Z M207.184,194.08 C213.664,194.08 218.848,198.616 218.848,206.392 C218.848,214.168 213.664,218.758 207.184,218.758 C200.704,218.758 195.574,214.168 195.574,206.392 C195.574,198.616 200.704,194.08 207.184,194.08 Z M238.626,192.352 C233.604,192.352 230.31,195.214 229.176,197.806 L229.176,192.838 L227.286,192.838 L227.286,220 L229.176,220 L229.176,203.368 C229.176,198.508 232.956,194.134 238.41,194.134 C243.486,194.134 247.158,197.914 247.158,203.368 L247.158,220 L249.048,220 L249.048,203.152 C249.048,196.726 244.62,192.352 238.626,192.352 L238.626,192.352 Z M264.991999,192.406 C258.943999,192.352 255.865999,195.43 255.865999,199.858 C255.865999,204.988 259.753999,205.636 264.613999,206.716 C270.391999,208.012 273.037999,208.876 273.037999,212.764 C273.037999,216.922 269.797999,218.758 265.369999,218.758 C260.995999,218.758 257.863999,216.868 257.161999,212.926 L255.271999,213.088 C256.081999,217.948 259.915999,220.486 265.315999,220.486 C270.877999,220.486 274.927999,217.894 274.927999,212.656 C274.927999,207.85 271.417999,206.446 265.369999,205.096 C260.941999,204.07 257.809999,203.854 257.809999,199.858 C257.809999,196.402 260.077999,194.026 264.937999,194.08 C269.203999,194.026 271.687999,196.24 272.173999,199.804 L274.063999,199.642 C273.415999,195.268 270.391999,192.352 264.991999,192.406 L264.991999,192.406 Z" id="publications-2" fill="#FFFFFF" sketch:type="MSShapeGroup"></path>
                </g>
                <path d="M3.752,246.658 C1.52,246.658 0.206,248.278 0.206,249.862 L1.772,249.934 C1.772,248.962 2.402,248.026 3.77,248.026 C5.084,248.026 5.696,248.872 5.696,250.258 L5.696,250.69 L3.32,250.834 C1.394,250.942 -0.046,251.662 -0.046,253.57 C-0.046,255.244 1.178,256.18 2.96,256.18 C4.094,256.18 5.03,255.712 5.696,254.92 L5.696,256 L7.262,256 L7.262,250.222 C7.262,247.954 6.02,246.658 3.752,246.658 L3.752,246.658 Z M5.714,251.932 L5.714,252.31 C5.714,254.146 4.58,254.848 3.194,254.848 C2.222,254.848 1.52,254.506 1.52,253.534 C1.52,252.526 2.33,252.148 3.518,252.076 L5.714,251.932 Z M23.7044706,256 L27.1964706,246.82 L25.5224706,246.82 L23.0384706,253.48 L20.5364706,246.82 L19.4384706,246.82 L16.9544706,253.48 L14.4884706,246.82 L12.7964706,246.82 L16.2884706,256 L17.5304706,256 L19.9964706,249.43 L22.4624706,256 L23.7044706,256 Z M36.5787059,252.004 L36.5787059,251.158 C36.5787059,248.44 34.9947059,246.658 32.3667059,246.658 C29.7567059,246.658 27.8487059,248.422 27.8487059,251.41 C27.8487059,254.398 29.7747059,256.18 32.4027059,256.18 C34.5267059,256.18 36.1107059,254.938 36.4887059,253.282 L34.9407059,253.192 C34.6347059,254.218 33.7167059,254.83 32.3667059,254.83 C30.7467059,254.83 29.5767059,253.768 29.4867059,252.004 L36.5787059,252.004 Z M32.3487059,248.008 C34.0947059,248.008 34.9947059,249.142 35.0307059,250.744 L29.4867059,250.744 C29.5947059,248.962 30.7647059,248.008 32.3487059,248.008 L32.3487059,248.008 Z M40.4349412,242.014 L38.8869412,242.014 L38.8869412,256 L40.3629412,256 L40.3629412,254.506 C40.8849412,255.46 42.0369412,256.18 43.6209412,256.18 C46.1409412,256.18 48.0489412,254.38 48.0489412,251.428 C48.0489412,248.458 46.1409412,246.658 43.6209412,246.658 C42.0729412,246.658 40.9569412,247.324 40.4349412,248.206 L40.4349412,242.014 Z M43.3869412,248.008 C45.1329412,248.008 46.4649412,249.214 46.4649412,251.41 C46.4649412,253.624 45.1329412,254.83 43.3869412,254.83 C41.7129412,254.83 40.4529412,253.768 40.4529412,251.68 L40.4529412,251.14 C40.4529412,249.07 41.7129412,248.008 43.3869412,248.008 L43.3869412,248.008 Z M57.6154118,246.658 C55.3834118,246.658 54.0694118,248.278 54.0694118,249.862 L55.6354118,249.934 C55.6354118,248.962 56.2654118,248.026 57.6334118,248.026 C58.9474118,248.026 59.5594118,248.872 59.5594118,250.258 L59.5594118,250.69 L57.1834118,250.834 C55.2574118,250.942 53.8174118,251.662 53.8174118,253.57 C53.8174118,255.244 55.0414118,256.18 56.8234118,256.18 C57.9574118,256.18 58.8934118,255.712 59.5594118,254.92 L59.5594118,256 L61.1254118,256 L61.1254118,250.222 C61.1254118,247.954 59.8834118,246.658 57.6154118,246.658 L57.6154118,246.658 Z M59.5774118,251.932 L59.5774118,252.31 C59.5774118,254.146 58.4434118,254.848 57.0574118,254.848 C56.0854118,254.848 55.3834118,254.506 55.3834118,253.534 C55.3834118,252.526 56.1934118,252.148 57.3814118,252.076 L59.5774118,251.932 Z M68.707647,246.658 C67.123647,246.658 65.971647,247.378 65.449647,248.332 L65.449647,246.82 L63.973647,246.82 L63.973647,260.59 L65.521647,260.59 L65.521647,254.632 C66.043647,255.514 67.159647,256.18 68.707647,256.18 C71.227647,256.18 73.135647,254.38 73.135647,251.41 C73.135647,248.458 71.227647,246.658 68.707647,246.658 L68.707647,246.658 Z M68.473647,248.008 C70.219647,248.008 71.551647,249.214 71.551647,251.428 C71.551647,253.624 70.219647,254.83 68.473647,254.83 C66.799647,254.83 65.539647,253.768 65.539647,251.698 L65.539647,251.158 C65.539647,249.07 66.799647,248.008 68.473647,248.008 L68.473647,248.008 Z M80.1778823,246.658 C78.5938823,246.658 77.4418823,247.378 76.9198823,248.332 L76.9198823,246.82 L75.4438823,246.82 L75.4438823,260.59 L76.9918823,260.59 L76.9918823,254.632 C77.5138823,255.514 78.6298823,256.18 80.1778823,256.18 C82.6978823,256.18 84.6058823,254.38 84.6058823,251.41 C84.6058823,248.458 82.6978823,246.658 80.1778823,246.658 L80.1778823,246.658 Z M79.9438823,248.008 C81.6898823,248.008 83.0218823,249.214 83.0218823,251.428 C83.0218823,253.624 81.6898823,254.83 79.9438823,254.83 C78.2698823,254.83 77.0098823,253.768 77.0098823,251.698 L77.0098823,251.158 C77.0098823,249.07 78.2698823,248.008 79.9438823,248.008 L79.9438823,248.008 Z M94.6763529,241.942 C92.6963529,241.942 91.4183529,243.184 91.4183529,245.29 L91.4183529,246.82 L89.6363529,246.82 L89.6363529,248.17 L91.4183529,248.17 L91.4183529,256 L92.9663529,256 L92.9663529,248.17 L95.3243529,248.17 L95.3243529,246.82 L92.9663529,246.82 L92.9663529,245.254 C92.9663529,244.012 93.7223529,243.292 94.8383529,243.292 C95.0723529,243.292 95.2163529,243.31 95.3603529,243.328 L95.3603529,241.978 C95.1623529,241.96 94.9823529,241.942 94.6763529,241.942 L94.6763529,241.942 Z M101.052588,246.658 C98.3885882,246.658 96.3365882,248.494 96.3365882,251.41 C96.3365882,254.326 98.3885882,256.18 101.052588,256.18 C103.716588,256.18 105.768588,254.326 105.768588,251.41 C105.768588,248.494 103.716588,246.658 101.052588,246.658 L101.052588,246.658 Z M101.052588,248.008 C102.834588,248.008 104.202588,249.268 104.202588,251.41 C104.202588,253.552 102.834588,254.83 101.052588,254.83 C99.2705882,254.83 97.9025882,253.552 97.9025882,251.41 C97.9025882,249.268 99.2705882,248.008 101.052588,248.008 L101.052588,248.008 Z M112.306824,246.712 C110.794824,246.712 109.930824,247.45 109.606824,248.206 L109.606824,246.82 L108.094824,246.82 L108.094824,256 L109.642824,256 L109.642824,250.726 C109.642824,249.322 110.668824,248.206 112.306824,248.206 L112.306824,246.712 Z M119.623294,242.014 L118.075294,242.014 L118.075294,256 L119.551294,256 L119.551294,254.506 C120.073294,255.46 121.225294,256.18 122.809294,256.18 C125.329294,256.18 127.237294,254.38 127.237294,251.428 C127.237294,248.458 125.329294,246.658 122.809294,246.658 C121.261294,246.658 120.145294,247.324 119.623294,248.206 L119.623294,242.014 Z M122.575294,248.008 C124.321294,248.008 125.653294,249.214 125.653294,251.41 C125.653294,253.624 124.321294,254.83 122.575294,254.83 C120.901294,254.83 119.641294,253.768 119.641294,251.68 L119.641294,251.14 C119.641294,249.07 120.901294,248.008 122.575294,248.008 L122.575294,248.008 Z M137.663529,252.004 L137.663529,251.158 C137.663529,248.44 136.079529,246.658 133.451529,246.658 C130.841529,246.658 128.933529,248.422 128.933529,251.41 C128.933529,254.398 130.859529,256.18 133.487529,256.18 C135.611529,256.18 137.195529,254.938 137.573529,253.282 L136.025529,253.192 C135.719529,254.218 134.801529,254.83 133.451529,254.83 C131.831529,254.83 130.661529,253.768 130.571529,252.004 L137.663529,252.004 Z M133.433529,248.008 C135.179529,248.008 136.079529,249.142 136.115529,250.744 L130.571529,250.744 C130.679529,248.962 131.849529,248.008 133.433529,248.008 L133.433529,248.008 Z M143.157765,246.658 C140.925765,246.658 139.611765,248.278 139.611765,249.862 L141.177765,249.934 C141.177765,248.962 141.807765,248.026 143.175765,248.026 C144.489765,248.026 145.101765,248.872 145.101765,250.258 L145.101765,250.69 L142.725765,250.834 C140.799765,250.942 139.359765,251.662 139.359765,253.57 C139.359765,255.244 140.583765,256.18 142.365765,256.18 C143.499765,256.18 144.435765,255.712 145.101765,254.92 L145.101765,256 L146.667765,256 L146.667765,250.222 C146.667765,247.954 145.425765,246.658 143.157765,246.658 L143.157765,246.658 Z M145.119765,251.932 L145.119765,252.31 C145.119765,254.146 143.985765,254.848 142.599765,254.848 C141.627765,254.848 140.925765,254.506 140.925765,253.534 C140.925765,252.526 141.735765,252.148 142.923765,252.076 L145.119765,251.932 Z M157.022,256 L157.022,246.82 L155.474,246.82 L155.474,252.184 C155.474,253.534 154.61,254.722 153.152,254.722 C151.766,254.722 150.992,253.768 150.992,252.274 L150.992,246.82 L149.444,246.82 L149.444,252.49 C149.444,254.686 150.74,256.18 152.792,256.18 C154.322,256.18 155.204,255.37 155.546,254.632 L155.546,256 L157.022,256 Z M163.470235,254.722 C162.570235,254.722 161.850235,254.272 161.850235,252.94 L161.886235,248.17 L164.352235,248.17 L164.352235,246.82 L161.886235,246.82 L161.904235,243.652 L160.338235,243.652 L160.320235,246.82 L158.610235,246.82 L158.610235,248.17 L160.320235,248.17 L160.302235,253.246 C160.284235,255.262 161.454235,256.126 163.128235,256.126 C163.704235,256.126 164.064235,256.072 164.370235,256.018 L164.370235,254.632 C164.154235,254.668 163.848235,254.722 163.470235,254.722 L163.470235,254.722 Z M166.948471,242.482 C166.390471,242.482 165.922471,242.932 165.922471,243.508 C165.922471,244.066 166.372471,244.516 166.948471,244.516 C167.506471,244.516 167.974471,244.066 167.974471,243.508 C167.974471,242.932 167.506471,242.482 166.948471,242.482 L166.948471,242.482 Z M167.704471,256 L167.704471,246.82 L166.156471,246.82 L166.156471,256 L167.704471,256 Z M174.332706,241.942 C172.352706,241.942 171.074706,243.184 171.074706,245.29 L171.074706,246.82 L169.292706,246.82 L169.292706,248.17 L171.074706,248.17 L171.074706,256 L172.622706,256 L172.622706,248.17 L174.980706,248.17 L174.980706,246.82 L172.622706,246.82 L172.622706,245.254 C172.622706,244.012 173.378706,243.292 174.494706,243.292 C174.728706,243.292 174.872706,243.31 175.016706,243.328 L175.016706,241.978 C174.818706,241.96 174.638706,241.942 174.332706,241.942 L174.332706,241.942 Z M184.110941,256 L184.110941,246.82 L182.562941,246.82 L182.562941,252.184 C182.562941,253.534 181.698941,254.722 180.240941,254.722 C178.854941,254.722 178.080941,253.768 178.080941,252.274 L178.080941,246.82 L176.532941,246.82 L176.532941,252.49 C176.532941,254.686 177.828941,256.18 179.880941,256.18 C181.410941,256.18 182.292941,255.37 182.634941,254.632 L182.634941,256 L184.110941,256 Z M188.579176,256 L188.579176,242.014 L187.031176,242.014 L187.031176,256 L188.579176,256 Z M200.323647,246.658 C198.739647,246.658 197.587647,247.378 197.065647,248.332 L197.065647,246.82 L195.589647,246.82 L195.589647,260.59 L197.137647,260.59 L197.137647,254.632 C197.659647,255.514 198.775647,256.18 200.323647,256.18 C202.843647,256.18 204.751647,254.38 204.751647,251.41 C204.751647,248.458 202.843647,246.658 200.323647,246.658 L200.323647,246.658 Z M200.089647,248.008 C201.835647,248.008 203.167647,249.214 203.167647,251.428 C203.167647,253.624 201.835647,254.83 200.089647,254.83 C198.415647,254.83 197.155647,253.768 197.155647,251.698 L197.155647,251.158 C197.155647,249.07 198.415647,248.008 200.089647,248.008 L200.089647,248.008 Z M210.245882,246.658 C208.013882,246.658 206.699882,248.278 206.699882,249.862 L208.265882,249.934 C208.265882,248.962 208.895882,248.026 210.263882,248.026 C211.577882,248.026 212.189882,248.872 212.189882,250.258 L212.189882,250.69 L209.813882,250.834 C207.887882,250.942 206.447882,251.662 206.447882,253.57 C206.447882,255.244 207.671882,256.18 209.453882,256.18 C210.587882,256.18 211.523882,255.712 212.189882,254.92 L212.189882,256 L213.755882,256 L213.755882,250.222 C213.755882,247.954 212.513882,246.658 210.245882,246.658 L210.245882,246.658 Z M212.207882,251.932 L212.207882,252.31 C212.207882,254.146 211.073882,254.848 209.687882,254.848 C208.715882,254.848 208.013882,254.506 208.013882,253.534 C208.013882,252.526 208.823882,252.148 210.011882,252.076 L212.207882,251.932 Z M220.420118,246.658 C217.900118,246.658 215.992118,248.458 215.992118,251.41 C215.992118,254.38 217.900118,256.18 220.420118,256.18 C221.950118,256.18 223.084118,255.514 223.588118,254.632 L223.588118,256.63 C223.588118,258.448 222.400118,259.438 220.690118,259.438 C219.232118,259.438 218.062118,258.682 217.846118,257.44 L216.298118,257.494 C216.658118,259.402 218.170118,260.752 220.744118,260.752 C223.372118,260.752 225.136118,259.15 225.136118,256.522 L225.136118,246.82 L223.678118,246.82 L223.678118,248.332 C223.156118,247.378 221.986118,246.658 220.420118,246.658 L220.420118,246.658 Z M220.636118,248.008 C222.328118,248.008 223.588118,249.07 223.588118,251.158 L223.588118,251.698 C223.588118,253.768 222.328118,254.83 220.636118,254.83 C218.890118,254.83 217.558118,253.624 217.558118,251.428 C217.558118,249.214 218.890118,248.008 220.636118,248.008 L220.636118,248.008 Z M236.102353,252.004 L236.102353,251.158 C236.102353,248.44 234.518353,246.658 231.890353,246.658 C229.280353,246.658 227.372353,248.422 227.372353,251.41 C227.372353,254.398 229.298353,256.18 231.926353,256.18 C234.050353,256.18 235.634353,254.938 236.012353,253.282 L234.464353,253.192 C234.158353,254.218 233.240353,254.83 231.890353,254.83 C230.270353,254.83 229.100353,253.768 229.010353,252.004 L236.102353,252.004 Z M231.872353,248.008 C233.618353,248.008 234.518353,249.142 234.554353,250.744 L229.010353,250.744 C229.118353,248.962 230.288353,248.008 231.872353,248.008 L231.872353,248.008 Z M244.030823,256 L244.030823,242.014 L242.482823,242.014 L242.482823,256 L244.030823,256 Z M250.155059,246.658 C247.923059,246.658 246.609059,248.278 246.609059,249.862 L248.175059,249.934 C248.175059,248.962 248.805059,248.026 250.173059,248.026 C251.487059,248.026 252.099059,248.872 252.099059,250.258 L252.099059,250.69 L249.723059,250.834 C247.797059,250.942 246.357059,251.662 246.357059,253.57 C246.357059,255.244 247.581059,256.18 249.363059,256.18 C250.497059,256.18 251.433059,255.712 252.099059,254.92 L252.099059,256 L253.665059,256 L253.665059,250.222 C253.665059,247.954 252.423059,246.658 250.155059,246.658 L250.155059,246.658 Z M252.117059,251.932 L252.117059,252.31 C252.117059,254.146 250.983059,254.848 249.597059,254.848 C248.625059,254.848 247.923059,254.506 247.923059,253.534 C247.923059,252.526 248.733059,252.148 249.921059,252.076 L252.117059,251.932 Z M258.331294,260.59 L264.127294,246.82 L262.399294,246.82 L259.645294,253.75 L256.873294,246.82 L255.145294,246.82 L258.799294,255.496 L256.621294,260.59 L258.331294,260.59 Z M269.585529,246.658 C266.921529,246.658 264.869529,248.494 264.869529,251.41 C264.869529,254.326 266.921529,256.18 269.585529,256.18 C272.249529,256.18 274.301529,254.326 274.301529,251.41 C274.301529,248.494 272.249529,246.658 269.585529,246.658 L269.585529,246.658 Z M269.585529,248.008 C271.367529,248.008 272.735529,249.268 272.735529,251.41 C272.735529,253.552 271.367529,254.83 269.585529,254.83 C267.803529,254.83 266.435529,253.552 266.435529,251.41 C266.435529,249.268 267.803529,248.008 269.585529,248.008 L269.585529,248.008 Z M284.133765,256 L284.133765,246.82 L282.585765,246.82 L282.585765,252.184 C282.585765,253.534 281.721765,254.722 280.263765,254.722 C278.877765,254.722 278.103765,253.768 278.103765,252.274 L278.103765,246.82 L276.555765,246.82 L276.555765,252.49 C276.555765,254.686 277.851765,256.18 279.903765,256.18 C281.433765,256.18 282.315765,255.37 282.657765,254.632 L282.657765,256 L284.133765,256 Z M290.582,254.722 C289.682,254.722 288.962,254.272 288.962,252.94 L288.998,248.17 L291.464,248.17 L291.464,246.82 L288.998,246.82 L289.016,243.652 L287.45,243.652 L287.432,246.82 L285.722,246.82 L285.722,248.17 L287.432,248.17 L287.414,253.246 C287.396,255.262 288.566,256.126 290.24,256.126 C290.816,256.126 291.176,256.072 291.482,256.018 L291.482,254.632 C291.266,254.668 290.96,254.722 290.582,254.722 L290.582,254.722 Z M300.526471,246.658 C298.294471,246.658 296.980471,248.278 296.980471,249.862 L298.546471,249.934 C298.546471,248.962 299.176471,248.026 300.544471,248.026 C301.858471,248.026 302.470471,248.872 302.470471,250.258 L302.470471,250.69 L300.094471,250.834 C298.168471,250.942 296.728471,251.662 296.728471,253.57 C296.728471,255.244 297.952471,256.18 299.734471,256.18 C300.868471,256.18 301.804471,255.712 302.470471,254.92 L302.470471,256 L304.036471,256 L304.036471,250.222 C304.036471,247.954 302.794471,246.658 300.526471,246.658 L300.526471,246.658 Z M302.488471,251.932 L302.488471,252.31 C302.488471,254.146 301.354471,254.848 299.968471,254.848 C298.996471,254.848 298.294471,254.506 298.294471,253.534 C298.294471,252.526 299.104471,252.148 300.292471,252.076 L302.488471,251.932 Z M311.222706,246.658 C309.764706,246.658 308.810706,247.36 308.360706,248.188 L308.360706,246.82 L306.884706,246.82 L306.884706,256 L308.432706,256 L308.432706,250.636 C308.432706,249.25 309.440706,248.098 310.898706,248.098 C312.284706,248.098 313.220706,249.088 313.220706,250.618 L313.220706,256 L314.786706,256 L314.786706,250.42 C314.786706,248.116 313.292706,246.658 311.222706,246.658 L311.222706,246.658 Z M326.166941,256 L326.166941,242.014 L324.618941,242.014 L324.618941,248.206 C324.114941,247.324 322.980941,246.658 321.450941,246.658 C318.930941,246.658 317.022941,248.458 317.022941,251.428 C317.022941,254.38 318.930941,256.18 321.450941,256.18 C323.016941,256.18 324.186941,255.46 324.708941,254.506 L324.708941,256 L326.166941,256 Z M321.666941,248.008 C323.358941,248.008 324.618941,249.07 324.618941,251.14 L324.618941,251.68 C324.618941,253.768 323.358941,254.83 321.666941,254.83 C319.920941,254.83 318.588941,253.624 318.588941,251.41 C318.588941,249.214 319.920941,248.008 321.666941,248.008 L321.666941,248.008 Z M336.003412,246.676 C333.843412,246.658 332.637412,247.756 332.637412,249.358 C332.637412,251.158 333.969412,251.5 335.751412,251.914 C337.407412,252.31 338.019412,252.526 338.019412,253.462 C338.019412,254.38 337.227412,254.83 336.129412,254.83 C334.905412,254.83 334.149412,254.29 334.005412,253.282 L332.457412,253.39 C332.691412,255.154 334.023412,256.18 336.093412,256.18 C338.217412,256.18 339.567412,255.154 339.567412,253.336 C339.567412,251.698 338.325412,251.158 336.381412,250.69 C335.067412,250.384 334.203412,250.312 334.203412,249.34 C334.203412,248.53 334.779412,247.99 335.949412,248.008 C337.119412,247.99 337.713412,248.602 337.821412,249.52 L339.369412,249.43 C339.171412,247.846 338.055412,246.658 336.003412,246.676 L336.003412,246.676 Z M345.853647,246.658 C343.261647,246.658 341.335647,248.386 341.335647,251.41 C341.335647,254.434 343.279647,256.18 345.853647,256.18 C348.067647,256.18 349.651647,254.92 349.993647,252.886 L348.481647,252.742 C348.265647,254.038 347.293647,254.83 345.853647,254.83 C344.179647,254.83 342.919647,253.606 342.919647,251.41 C342.919647,249.232 344.143647,247.99 345.853647,247.99 C347.239647,247.99 348.301647,248.836 348.463647,250.222 L349.975647,250.096 C349.705647,247.954 348.013647,246.658 345.853647,246.658 L345.853647,246.658 Z M356.351882,246.712 C354.839882,246.712 353.975882,247.45 353.651882,248.206 L353.651882,246.82 L352.139882,246.82 L352.139882,256 L353.687882,256 L353.687882,250.726 C353.687882,249.322 354.713882,248.206 356.351882,248.206 L356.351882,246.712 Z M366.058118,252.004 L366.058118,251.158 C366.058118,248.44 364.474118,246.658 361.846118,246.658 C359.236118,246.658 357.328118,248.422 357.328118,251.41 C357.328118,254.398 359.254118,256.18 361.882118,256.18 C364.006118,256.18 365.590118,254.938 365.968118,253.282 L364.420118,253.192 C364.114118,254.218 363.196118,254.83 361.846118,254.83 C360.226118,254.83 359.056118,253.768 358.966118,252.004 L366.058118,252.004 Z M361.828118,248.008 C363.574118,248.008 364.474118,249.142 364.510118,250.744 L358.966118,250.744 C359.074118,248.962 360.244118,248.008 361.828118,248.008 L361.828118,248.008 Z M376.484353,252.004 L376.484353,251.158 C376.484353,248.44 374.900353,246.658 372.272353,246.658 C369.662353,246.658 367.754353,248.422 367.754353,251.41 C367.754353,254.398 369.680353,256.18 372.308353,256.18 C374.432353,256.18 376.016353,254.938 376.394353,253.282 L374.846353,253.192 C374.540353,254.218 373.622353,254.83 372.272353,254.83 C370.652353,254.83 369.482353,253.768 369.392353,252.004 L376.484353,252.004 Z M372.254353,248.008 C374.000353,248.008 374.900353,249.142 374.936353,250.744 L369.392353,250.744 C369.500353,248.962 370.670353,248.008 372.254353,248.008 L372.254353,248.008 Z M383.130588,246.658 C381.672588,246.658 380.718588,247.36 380.268588,248.188 L380.268588,246.82 L378.792588,246.82 L378.792588,256 L380.340588,256 L380.340588,250.636 C380.340588,249.25 381.348588,248.098 382.806588,248.098 C384.192588,248.098 385.128588,249.088 385.128588,250.618 L385.128588,256 L386.694588,256 L386.694588,250.42 C386.694588,248.116 385.200588,246.658 383.130588,246.658 L383.130588,246.658 Z M402.147059,256 L402.147059,242.014 L400.599059,242.014 L400.599059,248.206 C400.095059,247.324 398.961059,246.658 397.431059,246.658 C394.911059,246.658 393.003059,248.458 393.003059,251.428 C393.003059,254.38 394.911059,256.18 397.431059,256.18 C398.997059,256.18 400.167059,255.46 400.689059,254.506 L400.689059,256 L402.147059,256 Z M397.647059,248.008 C399.339059,248.008 400.599059,249.07 400.599059,251.14 L400.599059,251.68 C400.599059,253.768 399.339059,254.83 397.647059,254.83 C395.901059,254.83 394.569059,253.624 394.569059,251.41 C394.569059,249.214 395.901059,248.008 397.647059,248.008 L397.647059,248.008 Z M413.203294,252.004 L413.203294,251.158 C413.203294,248.44 411.619294,246.658 408.991294,246.658 C406.381294,246.658 404.473294,248.422 404.473294,251.41 C404.473294,254.398 406.399294,256.18 409.027294,256.18 C411.151294,256.18 412.735294,254.938 413.113294,253.282 L411.565294,253.192 C411.259294,254.218 410.341294,254.83 408.991294,254.83 C407.371294,254.83 406.201294,253.768 406.111294,252.004 L413.203294,252.004 Z M408.973294,248.008 C410.719294,248.008 411.619294,249.142 411.655294,250.744 L406.111294,250.744 C406.219294,248.962 407.389294,248.008 408.973294,248.008 L408.973294,248.008 Z M418.337529,246.676 C416.177529,246.658 414.971529,247.756 414.971529,249.358 C414.971529,251.158 416.303529,251.5 418.085529,251.914 C419.741529,252.31 420.353529,252.526 420.353529,253.462 C420.353529,254.38 419.561529,254.83 418.463529,254.83 C417.239529,254.83 416.483529,254.29 416.339529,253.282 L414.791529,253.39 C415.025529,255.154 416.357529,256.18 418.427529,256.18 C420.551529,256.18 421.901529,255.154 421.901529,253.336 C421.901529,251.698 420.659529,251.158 418.715529,250.69 C417.401529,250.384 416.537529,250.312 416.537529,249.34 C416.537529,248.53 417.113529,247.99 418.283529,248.008 C419.453529,247.99 420.047529,248.602 420.155529,249.52 L421.703529,249.43 C421.505529,247.846 420.389529,246.658 418.337529,246.676 L418.337529,246.676 Z M425.073765,242.482 C424.515765,242.482 424.047765,242.932 424.047765,243.508 C424.047765,244.066 424.497765,244.516 425.073765,244.516 C425.631765,244.516 426.099765,244.066 426.099765,243.508 C426.099765,242.932 425.631765,242.482 425.073765,242.482 L425.073765,242.482 Z M425.829765,256 L425.829765,246.82 L424.281765,246.82 L424.281765,256 L425.829765,256 Z M432.584,246.658 C430.064,246.658 428.156,248.458 428.156,251.41 C428.156,254.38 430.064,256.18 432.584,256.18 C434.114,256.18 435.248,255.514 435.752,254.632 L435.752,256.63 C435.752,258.448 434.564,259.438 432.854,259.438 C431.396,259.438 430.226,258.682 430.01,257.44 L428.462,257.494 C428.822,259.402 430.334,260.752 432.908,260.752 C435.536,260.752 437.3,259.15 437.3,256.522 L437.3,246.82 L435.842,246.82 L435.842,248.332 C435.32,247.378 434.15,246.658 432.584,246.658 L432.584,246.658 Z M432.8,248.008 C434.492,248.008 435.752,249.07 435.752,251.158 L435.752,251.698 C435.752,253.768 434.492,254.83 432.8,254.83 C431.054,254.83 429.722,253.624 429.722,251.428 C429.722,249.214 431.054,248.008 432.8,248.008 L432.8,248.008 Z M444.486235,246.658 C443.028235,246.658 442.074235,247.36 441.624235,248.188 L441.624235,246.82 L440.148235,246.82 L440.148235,256 L441.696235,256 L441.696235,250.636 C441.696235,249.25 442.704235,248.098 444.162235,248.098 C445.548235,248.098 446.484235,249.088 446.484235,250.618 L446.484235,256 L448.050235,256 L448.050235,250.42 C448.050235,248.116 446.556235,246.658 444.486235,246.658 L444.486235,246.658 Z" id="a-web-app-for-beauti" opacity="0.7" fill="#FFFFFF" sketch:type="MSShapeGroup"></path>
            </g>
        </g>
    </g>
</svg>