<?xml version="1.0" encoding="UTF-8" standalone="no"?>
<svg width="210px" height="160px" viewBox="0 0 210 160" version="1.1" xmlns="http://www.w3.org/2000/svg" xmlns:xlink="http://www.w3.org/1999/xlink" xmlns:sketch="http://www.bohemiancoding.com/sketch/ns">
    <!-- Generator: Sketch 3.0.3 (7891) - http://www.bohemiancoding.com/sketch -->
    <title>pub-full-logo</title>
    <desc>Created with Sketch.</desc>
    <defs>
        <path id="path-1" d="M13.8093403,100.872255 C13.8093403,101.97463 14.7138566,102.86828 15.8178976,102.86828 L19.286953,102.86828 L114.594034,7.16681843 C115.369676,6.38796674 115.365508,5.12516527 114.585061,4.34660893 L112.570285,2.33671502 C111.789687,1.55800802 110.52244,1.55797372 109.743227,2.3332386 L13.8093403,97.7810044 L13.8093403,100.872255 Z"></path>
        <path id="path-2" d="M2.00921723,32.4174095 C0.899557195,32.4174095 0,31.5243303 0,30.4182492 L0,15.9002792 C0,14.7961735 0.898972989,13.901119 1.99544629,13.901119 L102.189118,13.901119 L102.189118,114.760691 C102.189118,115.87007 101.301935,116.769399 100.185618,116.769399 L85.7985772,116.769399 C84.6920746,116.769399 83.795077,115.879161 83.795077,114.767481 L83.795077,32.4174095 L2.00921723,32.4174095 Z"></path>
        <path id="path-3" d="M16.0076758,18.384571 C14.8980158,18.384571 13.9984586,17.4914918 13.9984586,16.3854107 L13.9984586,1.86744074 C13.9984586,0.763335026 14.8974316,-0.131719502 15.9939049,-0.131719502 L114.192131,-0.131719502 C115.294185,-0.131719502 116.187577,0.757582716 116.187577,1.87698878 L116.187577,100.727853 C116.187577,101.837232 115.300394,102.736561 114.184077,102.736561 L99.7970359,102.736561 C98.6905332,102.736561 97.7935356,101.846323 97.7935356,100.734642 L97.7935356,18.384571 L16.0076758,18.384571 Z"></path>
    </defs>
    <g id="Page-1" stroke="none" stroke-width="1" fill="none" fill-rule="evenodd" sketch:type="MSPage">
        <g id="pub-full-logo" sketch:type="MSArtboardGroup">
            <g id="Rectangle-2-+-Rectangle-2-+-Rectangle-2-copy-+-PUBLICATIONS" sketch:type="MSLayerGroup" transform="translate(1.000000, 3.000000)">
                <g id="Rectangle-2-+-Rectangle-2-+-Rectangle-2-copy" transform="translate(46.818655, 0.000000)">
                    <g id="Rectangle-2">
                        <use fill-opacity="0.8" fill="#673AB7" fill-rule="evenodd" sketch:type="MSShapeGroup" xlink:href="#path-1"></use>
                        <use fill="none" xlink:href="#path-1"></use>
                    </g>
                    <g id="Rectangle-2">
                        <use stroke-opacity="0.8" stroke="#673AB7" stroke-width="2" sketch:type="MSShapeGroup" xlink:href="#path-2"></use>
                        <use stroke="none" xlink:href="#path-2"></use>
                    </g>
                    <g id="Rectangle-2-copy">
                        <use stroke-opacity="0.8" stroke="#673AB7" stroke-width="2" sketch:type="MSShapeGroup" transform="translate(64.998459, 51.368280) rotate(-180.000000) translate(-64.998459, -51.368280) " xlink:href="#path-3"></use>
                        <use stroke="none" xlink:href="#path-3"></use>
                    </g>
                </g>
                <path d="M1.05280543,154.338685 L1.05280543,144.321432 L7.59993921,144.321432 C11.6137599,144.321432 14.0154723,141.305858 14.0154723,137.770357 C14.0154723,134.234856 11.6795603,131.219281 7.59993921,131.219281 L0,131.219281 L0,154.338685 L1.05280543,154.338685 Z M7.56703905,143.281579 L1.05280543,143.281579 L1.05280543,132.259135 L7.56703905,132.259135 C10.7912557,132.259135 12.8639664,134.581473 12.8639664,137.770357 C12.8639664,140.95924 10.7912557,143.281579 7.56703905,143.281579 Z M26.1103972,154.754626 C31.4402247,154.754626 34.2696393,151.288448 34.2696393,145.569256 L34.2696393,131.219281 L33.2168338,131.219281 L33.2168338,145.569256 C33.2168338,150.699198 30.7164209,153.714773 26.1103972,153.714773 C21.5043734,153.714773 19.0039605,150.699198 19.0039605,145.569256 L19.0039605,131.219281 L17.9511551,131.219281 L17.9511551,145.569256 C17.9511551,151.253787 20.7805697,154.754626 26.1103972,154.754626 Z M48.1411733,154.338685 C51.9904932,154.338685 54.4251057,152.051007 54.4251057,148.099565 C54.4251057,145.430609 52.4510955,142.796314 50.1151835,142.415034 C52.0562935,141.999093 53.9974035,140.023372 53.9974035,137.111783 C53.9974035,133.298988 51.5298908,131.219281 48.0095726,131.219281 L39.75163,131.219281 L39.75163,154.338685 L48.1411733,154.338685 Z M48.0095726,141.929769 L40.8044354,141.929769 L40.8044354,132.259135 L48.0095726,132.259135 C51.2337892,132.259135 52.8458976,134.477488 52.8458976,137.111783 C52.8458976,139.780739 51.2337892,141.929769 48.0095726,141.929769 Z M48.1411733,153.298831 L40.8044354,153.298831 L40.8044354,142.969623 L48.1411733,142.969623 C51.5627909,142.969623 53.2735998,145.499932 53.2735998,148.134227 C53.2735998,151.288448 51.3653899,153.298831 48.1411733,153.298831 Z M71.257655,154.338685 L71.257655,153.298831 L60.2360981,153.298831 L60.2360981,131.219281 L59.1832927,131.219281 L59.1832927,154.338685 L71.257655,154.338685 Z M76.3448437,154.338685 L76.3448437,131.219281 L75.2920383,131.219281 L75.2920383,154.338685 L76.3448437,154.338685 Z M92.0258871,154.754626 C95.118503,154.754626 97.6189159,153.541464 99.6916266,151.080478 L98.8362222,150.352581 C97.2899142,152.397625 94.7566012,153.714773 92.0258871,153.714773 C86.5315587,153.714773 82.2216365,149.243404 82.2216365,142.796314 C82.2216365,136.2799 86.5315587,131.877855 92.0258871,131.877855 C94.7566012,131.877855 97.2899142,133.195002 98.8362222,135.240047 L99.6587264,134.477488 C97.7176164,132.120487 95.118503,130.838002 92.0258871,130.838002 C85.9393557,130.838002 81.0701305,135.69065 81.0701305,142.796314 C81.0701305,149.901977 85.9393557,154.754626 92.0258871,154.754626 Z M120.801198,154.338685 L111.654951,131.219281 L110.404744,131.219281 L101.258497,154.338685 L102.475803,154.338685 L104.910416,148.134227 L117.149279,148.134227 L119.583892,154.338685 L120.801198,154.338685 Z M116.754477,147.094374 L105.305218,147.094374 L111.029848,132.501767 L116.754477,147.094374 Z M128.586201,154.338685 L128.586201,132.259135 L136.021639,132.259135 L136.021639,131.219281 L120.130857,131.219281 L120.130857,132.259135 L127.533395,132.259135 L127.533395,154.338685 L128.586201,154.338685 Z M140.911427,154.338685 L140.911427,131.219281 L139.858621,131.219281 L139.858621,154.338685 L140.911427,154.338685 Z M156.066067,154.754626 C162.4158,154.754626 166.495421,149.486036 166.495421,142.796314 C166.495421,136.106591 162.4158,130.838002 156.066067,130.838002 C149.683434,130.838002 145.636713,136.106591 145.636713,142.796314 C145.636713,149.486036 149.683434,154.754626 156.066067,154.754626 Z M156.066067,153.714773 C150.374338,153.714773 146.788219,149.070095 146.788219,142.796314 C146.788219,136.453209 150.374338,131.877855 156.066067,131.877855 C161.691996,131.877855 165.343915,136.453209 165.343915,142.796314 C165.343915,149.070095 161.691996,153.714773 156.066067,153.714773 Z M188.131395,154.338685 L188.131395,131.219281 L187.07859,131.219281 L187.07859,152.328302 L172.273513,131.219281 L171.220708,131.219281 L171.220708,154.338685 L172.273513,154.338685 L172.273513,133.021694 L187.07859,154.338685 L188.131395,154.338685 Z M200.12762,154.754626 C206.04965,154.754626 207.628858,151.080478 207.628858,148.480845 C207.628858,139.850063 194.304289,143.31624 194.304289,136.730503 C194.304289,133.888238 196.837603,131.877855 200.028919,131.877855 C202.562232,131.877855 204.766543,132.779061 206.312851,134.893429 L207.135356,134.096209 C205.589048,132.085826 203.253136,130.838002 200.028919,130.838002 C196.4099,130.838002 193.152784,132.987032 193.152784,136.730503 C193.152784,144.633388 206.477352,140.855254 206.477352,148.480845 C206.477352,150.664537 205.194246,153.714773 200.12762,153.714773 C196.969203,153.714773 194.666191,152.016346 193.317284,150.283257 L192.46188,151.080478 C194.041088,153.194846 196.706002,154.754626 200.12762,154.754626 L200.12762,154.754626 Z" id="PUBLICATIONS" stroke-opacity="0.5" stroke="#673AB7" fill="#673AB7" sketch:type="MSShapeGroup"></path>
            </g>
        </g>
    </g>
</svg>