<?xml version="1.0" encoding="UTF-8" standalone="no"?>
<svg width="660px" height="360px" viewBox="0 0 660 360" version="1.1" xmlns="http://www.w3.org/2000/svg" xmlns:xlink="http://www.w3.org/1999/xlink" xmlns:sketch="http://www.bohemiancoding.com/sketch/ns">
    <!-- Generator: Sketch 3.0.4 (8053) - http://www.bohemiancoding.com/sketch -->
    <title>pub-tech-logos</title>
    <desc>Created with Sketch.</desc>
    <defs>
        <path id="path-1" d="M20.9403833,14.2522871 C23.6576157,16.9806037 26.0971297,19.9372577 28.2293901,23.1272767 C29.2856017,24.7105551 30.2717226,26.3478802 31.1948057,28.0359005 C32.6072023,30.63727 34.2510309,33.0170057 35.3178223,35.8869334 C36.9069889,40.3263136 35.3455942,40.3677914 34.4119313,39.6647638 C32.7390084,38.4011577 33.4985462,36.267356 32.5961817,33.9135963 C31.5236596,31.1165689 30.3025802,28.3040397 29.9053987,27.6018501 C28.4974104,25.0893017 26.9307258,22.7062143 25.2093123,20.4366671 C22.6922136,17.1155113 19.8299505,14.0566292 16.6710135,11.231112 C14.1772784,8.99298739 11.4803238,6.91867905 8.62379143,4.96000575 C7.67778548,4.31270088 6.70577098,3.68341162 5.72141344,3.0599879 C5.35905701,2.83165059 4.99978634,2.60708398 4.63742992,2.38712602 C4.42318999,2.25598917 4.21732569,2.1252713 4,2 C4.19528455,2.09929531 4.38748333,2.20236133 4.57306977,2.30123767 C5.02270914,2.54298195 5.46970356,2.78221242 5.91052646,3.03066017 C6.92970901,3.59375256 7.92861371,4.17737436 8.8926934,4.77775486 C9.89115728,5.39950271 10.8671392,6.03256268 11.818435,6.68280031 C13.7011896,7.97950488 15.4843183,9.34575807 17.1797232,10.7815599 C18.4902897,11.8926618 19.7391409,13.0502691 20.9403833,14.2522871"></path>
        <path id="path-2" d="M19.7616422,144.825673 C19.7616422,145.932126 20.6608353,146.829084 21.7599471,146.829084 L27.6002948,146.829084 L164.582945,9.63370684 C165.364345,8.8510939 165.358401,7.58045831 164.578999,6.80494657 L160.488134,2.73449873 C159.704555,1.95483051 158.432834,1.95443373 157.645185,2.73607415 L19.7616422,139.567758 L19.7616422,144.825673 Z"></path>
        <path id="path-3" d="M0,46.2710033 L0,19.8417681 L146.236152,19.8417681 L146.236152,166.670852 L119.913645,166.670852 L119.913645,46.2710033 L0,46.2710033 Z"></path>
        <path id="path-4" d="M19.9977942,26.2583193 L19.9977942,-0.17091587 L166.233946,-0.17091587 L166.233946,146.658168 L139.911439,146.658168 L139.911439,26.2583193 L19.9977942,26.2583193 Z"></path>
    </defs>
    <g id="Page-1" stroke="none" stroke-width="1" fill="none" fill-rule="evenodd" sketch:type="MSPage">
        <g id="pub-tech-logos" sketch:type="MSArtboardGroup">
            <g id="Group" sketch:type="MSLayerGroup" transform="translate(2.000000, 12.000000)">
                <g transform="translate(0.000000, 279.000000)">
                    <g id="Group-4"></g>
                    <path d="M139.155,31.483 C139.619,31.214 139.904,30.718 139.904,30.181 L139.904,26.691 C139.904,26.155 139.619,25.658 139.154,25.389 L126.761,18.193 C126.294,17.922 125.719,17.921 125.251,18.191 L112.782,25.39 C112.316,25.659 112.029,26.156 112.029,26.694 L112.029,41.09 C112.029,41.632 112.32,42.131 112.79,42.399 L125.182,49.46 C125.639,49.721 126.199,49.724 126.659,49.468 L134.154,45.302 C134.392,45.17 134.54,44.92 134.541,44.649 C134.543,44.377 134.398,44.126 134.163,43.991 L121.615,36.788 C121.38,36.654 121.236,36.405 121.236,36.135 L121.236,31.624 C121.236,31.354 121.38,31.105 121.613,30.971 L125.519,28.72 C125.751,28.585 126.038,28.585 126.271,28.72 L130.178,30.971 C130.411,31.105 130.555,31.354 130.555,31.624 L130.555,35.174 C130.555,35.443 130.699,35.692 130.932,35.826 C131.166,35.961 131.453,35.96 131.686,35.825 L139.155,31.483" id="Fill-5" fill="#4A4A4A" sketch:type="MSShapeGroup"></path>
                    <path d="M57.63,18.115 C58.096,17.846 58.67,17.846 59.136,18.115 L71.608,25.313 C72.074,25.582 72.361,26.079 72.361,26.617 L72.361,41.023 C72.361,41.561 72.074,42.058 71.608,42.328 L59.136,49.531 C58.67,49.8 58.096,49.8 57.629,49.531 L45.16,42.328 C44.694,42.059 44.407,41.561 44.407,41.023 L44.407,26.617 C44.407,26.079 44.694,25.582 45.161,25.313 L57.63,18.115" id="Fill-6" fill="#4A4A4A" sketch:type="MSShapeGroup"></path>
                    <path d="M37.948,26.497 C37.948,25.955 37.663,25.457 37.195,25.188 L24.727,18.013 C24.516,17.889 24.279,17.824 24.04,17.814 L23.911,17.814 C23.673,17.824 23.437,17.889 23.223,18.013 L10.754,25.188 C10.289,25.457 10,25.955 10,26.497 L10.027,45.819 C10.027,46.088 10.167,46.338 10.403,46.47 C10.635,46.608 10.921,46.608 11.151,46.47 L18.562,42.227 C19.03,41.948 19.315,41.457 19.315,40.92 L19.315,31.893 C19.315,31.354 19.601,30.856 20.067,30.589 L23.223,28.772 C23.458,28.636 23.715,28.569 23.978,28.569 C24.234,28.569 24.498,28.636 24.727,28.772 L27.881,30.589 C28.348,30.856 28.634,31.354 28.634,31.893 L28.634,40.92 C28.634,41.457 28.923,41.951 29.389,42.227 L36.797,46.47 C37.029,46.608 37.319,46.608 37.55,46.47 C37.779,46.338 37.924,46.088 37.924,45.819 L37.948,26.497" id="Fill-1" fill="#4A4A4A" sketch:type="MSShapeGroup"></path>
                    <path d="M97.371,36.558 C97.371,36.692 97.299,36.817 97.183,36.884 L92.9,39.353 C92.784,39.419 92.64,39.419 92.524,39.353 L88.241,36.884 C88.124,36.817 88.053,36.692 88.053,36.558 L88.053,31.613 C88.053,31.479 88.124,31.354 88.241,31.287 L92.523,28.813 C92.64,28.746 92.784,28.746 92.9,28.813 L97.183,31.287 C97.299,31.354 97.371,31.479 97.371,31.613 L97.371,36.558 L97.371,36.558 Z M98.528,-0.064 C98.295,-0.194 98.01,-0.191 97.78,-0.056 C97.55,0.079 97.408,0.326 97.408,0.593 L97.408,19.729 C97.408,19.917 97.308,20.091 97.145,20.185 C96.982,20.279 96.781,20.279 96.618,20.185 L93.495,18.386 C93.029,18.117 92.456,18.118 91.99,18.386 L79.516,25.585 C79.05,25.854 78.763,26.351 78.763,26.889 L78.763,41.289 C78.763,41.828 79.05,42.325 79.516,42.594 L91.989,49.798 C92.455,50.067 93.029,50.067 93.496,49.798 L105.971,42.594 C106.437,42.325 106.724,41.828 106.724,41.289 L106.724,5.393 C106.724,4.847 106.428,4.344 105.951,4.078 L98.528,-0.064 L98.528,-0.064 Z" id="Fill-3" fill="#4A4A4A" sketch:type="MSShapeGroup"></path>
                    <path d="M160.371,49.736 C159.941,49.736 159.514,49.624 159.138,49.406 L155.211,47.083 C154.625,46.755 154.911,46.639 155.104,46.571 C155.887,46.3 156.045,46.237 156.88,45.764 C156.967,45.715 157.082,45.733 157.172,45.786 L160.188,47.577 C160.298,47.638 160.452,47.638 160.553,47.577 L172.313,40.789 C172.423,40.727 172.493,40.601 172.493,40.471 L172.493,26.898 C172.493,26.766 172.423,26.642 172.311,26.574 L160.555,19.792 C160.446,19.729 160.302,19.729 160.192,19.792 L148.439,26.576 C148.325,26.642 148.253,26.77 148.253,26.898 L148.253,40.471 C148.253,40.601 148.325,40.724 148.438,40.785 L151.66,42.646 C153.408,43.521 154.479,42.491 154.479,41.457 L154.479,28.057 C154.479,27.867 154.631,27.718 154.82,27.718 L156.312,27.718 C156.498,27.718 156.652,27.867 156.652,28.057 L156.652,41.457 C156.652,43.79 155.382,45.128 153.17,45.128 C152.49,45.128 151.955,45.128 150.461,44.392 L147.377,42.616 C146.615,42.176 146.144,41.352 146.144,40.471 L146.144,26.898 C146.144,26.017 146.615,25.193 147.377,24.755 L159.138,17.959 C159.882,17.538 160.871,17.538 161.609,17.959 L173.369,24.755 C174.131,25.195 174.604,26.017 174.604,26.898 L174.604,40.471 C174.604,41.352 174.131,42.173 173.369,42.616 L161.609,49.406 C161.233,49.624 160.807,49.736 160.371,49.736" id="Fill-7" fill="#4A4A4A" sketch:type="MSShapeGroup"></path>
                    <path d="M164.004,40.386 C158.857,40.386 157.779,38.023 157.779,36.042 C157.779,35.854 157.931,35.703 158.119,35.703 L159.64,35.703 C159.81,35.703 159.951,35.825 159.978,35.991 C160.207,37.539 160.892,38.32 164.004,38.32 C166.481,38.32 167.536,37.76 167.536,36.445 C167.536,35.688 167.237,35.125 163.387,34.748 C160.169,34.43 158.179,33.719 158.179,31.145 C158.179,28.772 160.179,27.356 163.532,27.356 C167.3,27.356 169.164,28.664 169.4,31.47 C169.409,31.566 169.375,31.659 169.311,31.731 C169.246,31.799 169.156,31.84 169.062,31.84 L167.535,31.84 C167.377,31.84 167.237,31.728 167.205,31.574 C166.839,29.945 165.948,29.425 163.532,29.425 C160.827,29.425 160.513,30.367 160.513,31.073 C160.513,31.929 160.884,32.178 164.536,32.661 C168.15,33.139 169.867,33.815 169.867,36.355 C169.867,38.918 167.73,40.386 164.004,40.386" id="Fill-8" fill="#4A4A4A" sketch:type="MSShapeGroup"></path>
                    <path d="M180.221,17.99 L180.221,18.339 L179.231,18.339 L179.231,20.918 L178.832,20.918 L178.832,18.339 L177.846,18.339 L177.846,17.99 L180.221,17.99" id="Fill-9" fill="#4A4A4A" sketch:type="MSShapeGroup"></path>
                    <path d="M180.574,17.99 L181.143,17.99 L181.983,20.465 L182.82,17.99 L183.385,17.99 L183.385,20.918 L183.006,20.918 L183.006,19.19 C183.006,19.13 183.007,19.031 183.009,18.895 C183.013,18.754 183.015,18.605 183.015,18.448 L182.178,20.918 L181.785,20.918 L180.941,18.448 L180.941,18.536 C180.941,18.608 180.941,18.718 180.946,18.866 C180.949,19.012 180.953,19.12 180.953,19.19 L180.953,20.918 L180.574,20.918 L180.574,17.99" id="Fill-10" fill="#4A4A4A" sketch:type="MSShapeGroup"></path>
                    <path d="M125.822,30.809 C125.912,30.757 126.022,30.757 126.111,30.809 L128.505,32.19 C128.594,32.242 128.649,32.337 128.649,32.44 L128.649,35.204 C128.649,35.308 128.594,35.403 128.505,35.455 L126.111,36.835 C126.022,36.887 125.912,36.887 125.822,36.835 L123.431,35.455 C123.341,35.403 123.286,35.308 123.286,35.204 L123.286,32.44 C123.286,32.337 123.341,32.242 123.431,32.19 L125.822,30.809" id="Fill-11" fill="#4A4A4A" sketch:type="MSShapeGroup"></path>
                </g>
                <g id="AngularJS-+-Group" transform="translate(227.000000, 280.000000)">
                    <g id="AngularJS">
                        <g></g>
                    </g>
                    <g id="Group" transform="translate(100.000000, 37.000000)"></g>
                </g>
                <g id="mongoDB-+-Fill-63-+-Group-73" transform="translate(450.000000, 286.000000)">
                    <path d="M69.2568359,33.9694824 L69.2568359,18.5476074 C69.2568359,16.8952554 69.1841641,15.5718637 69.0388184,14.5773926 C68.8934726,13.5829215 68.6716324,12.82178 68.373291,12.2939453 C68.0749497,11.7661106 67.7001162,11.418051 67.2487793,11.2497559 C66.7974424,11.0814607 66.2581412,10.9973145 65.6308594,10.9973145 C64.9423794,10.9973145 64.3074573,11.0967601 63.7260742,11.2956543 C63.1446911,11.4945485 62.5594919,11.800535 61.970459,12.213623 C61.3814261,12.626711 60.7541537,13.150713 60.088623,13.7856445 C59.4230924,14.4205761 58.6696006,15.1664182 57.828125,16.0231934 L57.828125,33.9694824 L55.8544922,33.9694824 L55.8544922,18.2263184 C55.8544922,16.6963628 55.7818204,15.4609422 55.6364746,14.5200195 C55.4911288,13.5790969 55.2616389,12.848554 54.947998,12.3283691 C54.6343572,11.8081842 54.2365747,11.4562997 53.7546387,11.2727051 C53.2727027,11.0891104 52.6875034,10.9973145 51.9990234,10.9973145 C51.4023408,10.9973145 50.805667,11.1235339 50.2089844,11.3759766 C49.6123017,11.6284192 49.0041535,11.9764789 48.3845215,12.420166 C47.7648895,12.8638531 47.1299674,13.3916799 46.4797363,14.0036621 C45.8295052,14.6156443 45.15251,15.2888147 44.4487305,16.0231934 L44.4487305,33.9694824 L42.4750977,33.9694824 L42.4750977,9.89575195 L44.4487305,9.89575195 L44.4487305,13.9577637 C45.84099,12.4737068 47.1682066,11.310958 48.4304199,10.4694824 C49.6926333,9.62800686 50.9433532,9.20727539 52.1826172,9.20727539 C53.7890705,9.20727539 55.0512649,9.60123304 55.9692383,10.3891602 C56.8872116,11.1770873 57.4609364,12.4431065 57.6904297,14.1872559 C58.4248084,13.3610799 59.1094532,12.6381867 59.7443848,12.0185547 C60.3793163,11.3989227 61.0104135,10.8787456 61.6376953,10.4580078 C62.2649771,10.03727 62.9075488,9.72363385 63.5654297,9.51708984 C64.2233106,9.31054584 64.9423789,9.20727539 65.7226562,9.20727539 C66.9160216,9.20727539 67.8722295,9.42529079 68.5913086,9.86132812 C69.3103877,10.2973655 69.8649883,10.9016888 70.255127,11.6743164 C70.6452656,12.446944 70.9053542,13.3649035 71.0354004,14.4282227 C71.1654466,15.4915418 71.2304688,16.6504657 71.2304688,17.9050293 L71.2304688,33.9694824 L69.2568359,33.9694824 Z M95.0581055,21.9899902 C95.0581055,23.9024347 94.885988,25.6350834 94.541748,27.1879883 C94.197508,28.7408932 93.6429075,30.0757594 92.8779297,31.192627 C92.1129519,32.3094945 91.1184957,33.1700816 89.8945312,33.7744141 C88.6705668,34.3787465 87.1788825,34.6809082 85.4194336,34.6809082 C83.6752842,34.6809082 82.1874248,34.3787465 80.9558105,33.7744141 C79.7241963,33.1700816 78.7220905,32.3133193 77.9494629,31.2041016 C77.1768353,30.0948838 76.6145851,28.7600176 76.2626953,27.1994629 C75.9108055,25.6389082 75.7348633,23.9024347 75.7348633,21.9899902 C75.7348633,20.1693431 75.9069807,18.4787676 76.2512207,16.9182129 C76.5954607,15.3576582 77.1500613,14.0074927 77.9150391,12.8676758 C78.6800168,11.7278589 79.6782979,10.8328483 80.9099121,10.1826172 C82.1415263,9.53238607 83.6446851,9.20727539 85.4194336,9.20727539 C87.1176843,9.20727539 88.5749451,9.50178742 89.7912598,10.0908203 C91.0075744,10.6798532 92.0058555,11.5289658 92.7861328,12.6381836 C93.5664102,13.7474014 94.1401349,15.0899173 94.5073242,16.6657715 C94.8745136,18.2416257 95.0581055,20.0163476 95.0581055,21.9899902 Z M92.9926758,21.9899902 C92.9926758,18.2568987 92.3960021,15.4724213 91.2026367,13.6364746 C90.0092714,11.8005279 88.0815563,10.8825684 85.4194336,10.8825684 C84.0577731,10.8825684 82.8950244,11.1235327 81.9311523,11.6054688 C80.9672803,12.0874048 80.179365,12.7988234 79.5673828,13.7397461 C78.9554006,14.6806688 78.5078953,15.8395927 78.2248535,17.2165527 C77.9418117,18.5935127 77.800293,20.1846427 77.800293,21.9899902 C77.800293,25.6924827 78.412266,28.4501862 79.6362305,30.2631836 C80.8601949,32.0761809 82.78791,32.982666 85.4194336,32.982666 C87.9744594,32.982666 89.8754007,32.0876554 91.1223145,30.2976074 C92.3692282,28.5075594 92.9926758,25.7383814 92.9926758,21.9899902 Z M114.525391,33.9694824 L114.525391,18.2263184 C114.525391,16.7422615 114.441244,15.5297899 114.272949,14.5888672 C114.104654,13.6479445 113.844566,12.909752 113.492676,12.3742676 C113.140786,11.8387831 112.693281,11.4754241 112.150146,11.2841797 C111.607012,11.0929352 110.968265,10.9973145 110.233887,10.9973145 C109.08642,10.9973145 107.808926,11.4065714 106.401367,12.2250977 C104.993808,13.0436239 103.440926,14.3096431 101.742676,16.0231934 L101.742676,33.9694824 L99.769043,33.9694824 L99.769043,9.89575195 L101.742676,9.89575195 L101.742676,13.9577637 C102.568852,13.1774863 103.356767,12.4928415 104.106445,11.9038086 C104.856124,11.3147757 105.579017,10.8175476 106.275146,10.4121094 C106.971276,10.0066711 107.659746,9.70450946 108.340576,9.50561523 C109.021406,9.30672101 109.713701,9.20727539 110.41748,9.20727539 C111.656744,9.20727539 112.670325,9.39851697 113.458252,9.78100586 C114.246179,10.1634948 114.865802,10.725745 115.317139,11.4677734 C115.768476,12.2098019 116.078287,13.1201118 116.246582,14.1987305 C116.414877,15.2773491 116.499023,16.5127697 116.499023,17.9050293 L116.499023,33.9694824 L114.525391,33.9694824 Z M139.248047,33.395752 C139.248047,35.2163991 139.075929,36.738682 138.731689,37.9626465 C138.387449,39.1866109 137.871097,40.1772423 137.182617,40.9345703 C136.494137,41.6918983 135.637375,42.2311996 134.612305,42.5524902 C133.587234,42.8737809 132.393887,43.0344238 131.032227,43.0344238 C130.037755,43.0344238 129.119796,42.9655769 128.27832,42.8278809 C127.436845,42.6901849 126.675703,42.5104178 125.994873,42.2885742 C125.314043,42.0667307 124.709719,41.8104669 124.181885,41.5197754 C123.65405,41.2290838 123.221844,40.9230973 122.885254,40.6018066 L123.963867,39.1789551 C124.637048,39.8521355 125.562657,40.3837871 126.740723,40.7739258 C127.918788,41.1640645 129.349275,41.3591309 131.032227,41.3591309 C132.194993,41.3591309 133.17415,41.2099624 133.969727,40.9116211 C134.765303,40.6132798 135.407875,40.1466503 135.897461,39.5117188 C136.387047,38.8767872 136.738931,38.0582732 136.953125,37.0561523 C137.167319,36.0540314 137.274414,34.8492095 137.274414,33.4416504 L137.274414,30.4353027 C136.800128,30.909589 136.276126,31.3609191 135.702393,31.7893066 C135.128659,32.2176942 134.520511,32.5925277 133.87793,32.9138184 C133.235348,33.235109 132.562178,33.4913727 131.858398,33.6826172 C131.154619,33.8738616 130.435551,33.9694824 129.701172,33.9694824 C126.748358,33.9694824 124.560554,32.9635517 123.137695,30.9516602 C121.714837,28.9397686 121.003418,25.8531295 121.003418,21.6916504 C121.003418,19.809805 121.198484,18.1039302 121.588623,16.5739746 C121.978762,15.044019 122.556311,13.7321018 123.321289,12.6381836 C124.086267,11.5442654 125.0463,10.6989776 126.201416,10.1022949 C127.356532,9.50561225 128.699048,9.20727539 130.229004,9.20727539 C131.498867,9.20727539 132.718988,9.47118877 133.889404,9.99902344 C135.05982,10.5268581 136.188146,11.2191526 137.274414,12.0759277 L137.274414,9.89575195 L139.248047,9.89575195 L139.248047,33.395752 Z M137.274414,14.0495605 C135.912754,13.0397899 134.681158,12.2595242 133.57959,11.7087402 C132.478022,11.1579562 131.345872,10.8825684 130.183105,10.8825684 C127.842273,10.8825684 126.071376,11.8005279 124.870361,13.6364746 C123.669346,15.4724213 123.068848,18.1268544 123.068848,21.5998535 C123.068848,22.41073 123.087972,23.2368936 123.126221,24.0783691 C123.16447,24.9198447 123.26009,25.7345338 123.413086,26.5224609 C123.566081,27.3103881 123.787922,28.0524054 124.078613,28.7485352 C124.369305,29.4446649 124.763262,30.0528132 125.260498,30.572998 C125.757734,31.0931829 126.373531,31.5062647 127.10791,31.8122559 C127.842289,32.118247 128.737299,32.2712402 129.792969,32.2712402 C130.588546,32.2712402 131.349687,32.1450208 132.076416,31.8925781 C132.803145,31.6401355 133.48014,31.3188496 134.107422,30.9287109 C134.734704,30.5385723 135.312253,30.114016 135.840088,29.6550293 C136.367923,29.1960426 136.846027,28.7523622 137.274414,28.3239746 L137.274414,14.0495605 Z M163.259277,21.9899902 C163.259277,23.9024347 163.08716,25.6350834 162.74292,27.1879883 C162.39868,28.7408932 161.844079,30.0757594 161.079102,31.192627 C160.314124,32.3094945 159.319668,33.1700816 158.095703,33.7744141 C156.871739,34.3787465 155.380054,34.6809082 153.620605,34.6809082 C151.876456,34.6809082 150.388597,34.3787465 149.156982,33.7744141 C147.925368,33.1700816 146.923262,32.3133193 146.150635,31.2041016 C145.378007,30.0948838 144.815757,28.7600176 144.463867,27.1994629 C144.111977,25.6389082 143.936035,23.9024347 143.936035,21.9899902 C143.936035,20.1693431 144.108153,18.4787676 144.452393,16.9182129 C144.796633,15.3576582 145.351233,14.0074927 146.116211,12.8676758 C146.881189,11.7278589 147.87947,10.8328483 149.111084,10.1826172 C150.342698,9.53238607 151.845857,9.20727539 153.620605,9.20727539 C155.318856,9.20727539 156.776117,9.50178742 157.992432,10.0908203 C159.208746,10.6798532 160.207027,11.5289658 160.987305,12.6381836 C161.767582,13.7474014 162.341307,15.0899173 162.708496,16.6657715 C163.075685,18.2416257 163.259277,20.0163476 163.259277,21.9899902 Z M161.193848,21.9899902 C161.193848,18.2568987 160.597174,15.4724213 159.403809,13.6364746 C158.210443,11.8005279 156.282728,10.8825684 153.620605,10.8825684 C152.258945,10.8825684 151.096196,11.1235327 150.132324,11.6054688 C149.168452,12.0874048 148.380537,12.7988234 147.768555,13.7397461 C147.156572,14.6806688 146.709067,15.8395927 146.426025,17.2165527 C146.142984,18.5935127 146.001465,20.1846427 146.001465,21.9899902 C146.001465,25.6924827 146.613438,28.4501862 147.837402,30.2631836 C149.061367,32.0761809 150.989082,32.982666 153.620605,32.982666 C156.175631,32.982666 158.076573,32.0876554 159.323486,30.2976074 C160.5704,28.5075594 161.193848,25.7383814 161.193848,21.9899902 Z M185.174805,21.4675293 C185.174805,23.9245728 184.921878,25.9600342 184.416016,27.5739746 C183.910154,29.187915 183.154383,30.4676059 182.148682,31.4130859 C181.14298,32.3585659 179.899421,33.0209942 178.417969,33.4003906 C176.936516,33.7797871 175.220225,33.9694824 173.269043,33.9694824 L166.277344,33.9694824 L166.277344,8.96557617 L173.196777,8.96557617 C175.196136,8.96557617 176.945549,9.1763488 178.445068,9.59790039 C179.944588,10.019452 181.194168,10.7180127 182.193848,11.6936035 C183.193527,12.6691943 183.940264,13.9549074 184.434082,15.5507812 C184.9279,17.1466551 185.174805,19.1188847 185.174805,21.4675293 Z M180.766602,21.4313965 C180.766602,19.7451901 180.634116,18.3480687 180.369141,17.2399902 C180.104165,16.1319118 179.664554,15.2496778 179.050293,14.5932617 C178.436032,13.9368457 177.623052,13.4761569 176.611328,13.2111816 C175.599604,12.9462064 174.347013,12.8137207 172.853516,12.8137207 L170.486816,12.8137207 L170.486816,30.1213379 L172.853516,30.1213379 C174.371101,30.1213379 175.635737,29.9798191 176.647461,29.6967773 C177.659185,29.4137356 178.472165,28.9379916 179.086426,28.2695312 C179.700687,27.6010709 180.134276,26.7098037 180.387207,25.5957031 C180.640138,24.4816025 180.766602,23.0935142 180.766602,21.4313965 Z M206.064568,26.6887207 C206.064568,27.9533755 205.847773,29.0433711 205.414177,29.9587402 C204.980581,30.8741094 204.351274,31.6298798 203.526237,32.2260742 C202.701201,32.8222686 201.692503,33.2618801 200.500114,33.5449219 C199.307726,33.8279637 197.952759,33.9694824 196.435173,33.9694824 L187.672966,33.9694824 L187.672966,8.96557617 L195.766716,8.96557617 C197.380656,8.96557617 198.747667,9.0799956 199.86779,9.30883789 C200.987913,9.53768018 201.897246,9.88997158 202.595818,10.3657227 C203.294389,10.8414737 203.800243,11.4406702 204.113396,12.1633301 C204.426548,12.8859899 204.583122,13.7411246 204.583122,14.7287598 C204.583122,15.6200403 204.471714,16.3908659 204.248894,17.0412598 C204.026074,17.6916536 203.721959,18.2426735 203.33654,18.6943359 C202.951122,19.1459984 202.499466,19.5103339 201.98156,19.7873535 C201.463654,20.0643731 200.909623,20.2751458 200.31945,20.4196777 C201.174598,20.5280767 201.954457,20.7268052 202.65905,21.0158691 C203.363643,21.3049331 203.968862,21.699379 204.474724,22.1992188 C204.980586,22.6990585 205.372021,23.3163212 205.64904,24.0510254 C205.92606,24.7857296 206.064568,25.6649526 206.064568,26.6887207 Z M200.283318,15.6501465 C200.283318,15.0840629 200.199009,14.61133 200.030388,14.2319336 C199.861767,13.8525372 199.587763,13.5454113 199.208366,13.3105469 C198.82897,13.0756824 198.332149,12.9070643 197.717888,12.8046875 C197.103627,12.7023107 196.344846,12.651123 195.441521,12.651123 L191.882439,12.651123 L191.882439,19.0646973 L195.296989,19.0646973 C196.236447,19.0646973 197.022328,18.9924324 197.654655,18.8479004 C198.286983,18.7033684 198.798859,18.4895847 199.1903,18.206543 C199.581741,17.9235012 199.861767,17.5681988 200.030388,17.140625 C200.199009,16.7130512 200.283318,16.21623 200.283318,15.6501465 Z M201.692497,26.3815918 C201.692497,25.6468876 201.578078,25.0446801 201.349236,24.5749512 C201.120393,24.1052223 200.76208,23.7348646 200.274284,23.4638672 C199.786489,23.1928697 199.166215,23.0061854 198.413445,22.9038086 C197.660674,22.8014318 196.766396,22.7502441 195.730583,22.7502441 L191.882439,22.7502441 L191.882439,30.1936035 L194.881462,30.1936035 C195.977496,30.1936035 196.94705,30.1574711 197.790154,30.0852051 C198.633257,30.0129391 199.343862,29.844321 199.921989,29.5793457 C200.500117,29.3143704 200.939729,28.9319686 201.240837,28.4321289 C201.541945,27.9322892 201.692497,27.2487836 201.692497,26.3815918 Z" id="mongoDB" fill="#4A4A4A" sketch:type="MSShapeGroup"></path>
                    <g id="Fill-63-+-Group-73">
                        <path d="M32.8232313,32 C23.9051531,30.0155817 16.1138564,31.4934379 10.985594,14.9659608 C9.44682129,9.99320261 5.70152244,2.19691503 0,0 C20.5756253,0.897254902 34.7605562,9.17416993 32.8232313,32" id="Fill-63" fill="#4A4A4A" sketch:type="MSShapeGroup"></path>
                        <g id="Fill-71">
                            <use fill="none" sketch:type="MSShapeGroup" xlink:href="#path-1"></use>
                            <use fill="none" xlink:href="#path-1"></use>
                            <use fill="#D8D8D8" fill-rule="evenodd" xlink:href="#path-1"></use>
                        </g>
                    </g>
                </g>
                <g id="Rectangle-2-+-Rectangle-2-+-Rectangle-2-copy" transform="translate(234.000000, 0.000000)">
                    <g id="Rectangle-2">
                        <use fill="#673AB7" fill-rule="evenodd" sketch:type="MSShapeGroup" xlink:href="#path-2"></use>
                        <use fill="none" xlink:href="#path-2"></use>
                    </g>
                    <g id="Rectangle-2">
                        <use stroke="#673AB7" stroke-width="1" sketch:type="MSShapeGroup" xlink:href="#path-3"></use>
                        <use stroke="none" xlink:href="#path-3"></use>
                    </g>
                    <g id="Rectangle-2-copy">
                        <use stroke="#673AB7" stroke-width="1" sketch:type="MSShapeGroup" transform="translate(92.997794, 73.329084) rotate(-180.000000) translate(-92.997794, -73.329084) " xlink:href="#path-4"></use>
                        <use stroke="none" xlink:href="#path-4"></use>
                    </g>
                </g>
                <g transform="translate(227.000000, 280.000000)" sketch:type="MSShapeGroup">
                    <path d="M176.221,37.99 L176.221,38.339 L175.231,38.339 L175.231,40.918 L174.832,40.918 L174.832,38.339 L173.846,38.339 L173.846,37.99 L176.221,37.99" id="Fill-9-copy" fill="#4A4A4A"></path>
                    <path d="M176.574,37.99 L177.143,37.99 L177.983,40.465 L178.82,37.99 L179.385,37.99 L179.385,40.918 L179.006,40.918 L179.006,39.19 C179.006,39.13 179.007,39.031 179.009,38.895 C179.013,38.754 179.015,38.605 179.015,38.448 L178.178,40.918 L177.785,40.918 L176.941,38.448 L176.941,38.536 C176.941,38.608 176.941,38.718 176.946,38.866 C176.949,39.012 176.953,39.12 176.953,39.19 L176.953,40.918 L176.574,40.918 L176.574,37.99" id="Fill-10-copy" fill="#4A4A4A"></path>
                    <path d="M45,33 L45,15 L47.3963628,15 L58.7334249,29.5002189 L58.7334249,15 L61,15 L61,33 L58.6036372,33 L47.2676218,18.37241 L47.2676218,33 L45,33" id="Fill-1" fill="#4A4A4A"></path>
                    <path d="M78,32.1804165 C76.5964838,32.7274741 75.0818273,33 73.458981,33 C67.1537313,33 64,29.9177241 64,23.7519187 C64,17.9178076 67.0435745,15 73.1297399,15 C74.875775,15 76.4996048,15.2489588 78,15.7461244 L78,17.7320287 C76.4996048,17.152629 74.9564255,16.8625531 73.3729209,16.8625531 C68.6258496,16.8625531 66.2530516,19.159844 66.2530516,23.7519187 C66.2530516,28.6756877 68.5889668,31.1384498 73.2649771,31.1384498 C74.0107487,31.1384498 74.8386462,31.0384149 75.7479319,30.8395989 L75.7479319,24.8071732 L78,24.8071732 L78,32.1804165" id="Fill-2" fill="#4A4A4A"></path>
                    <path d="M82,25.9739965 L82,15 L84.3303912,15 L84.3303912,25.9739965 C84.3303912,29.4069679 86.0535517,31.1257258 89.5001273,31.1257258 C92.9451753,31.1257258 94.6683357,29.4069679 94.6683357,25.9739965 L94.6683357,15 L97,15 L97,25.9739965 C97,30.6586721 94.4997878,33 89.5001273,33 C84.4999576,33 82,30.6586721 82,25.9739965" id="Fill-3" fill="#4A4A4A"></path>
                    <path d="M103.377817,15 L103.377817,31.1123415 L113,31.1123415 L113,33 L101,33 L101,15 L103.377817,15" id="Fill-4" fill="#4A4A4A"></path>
                    <path d="M116.430442,33 L114,33 L123,13 L132,33 L129.405926,33 L127.062924,27.4391206 L121.077072,27.4391206 L121.722139,25.5874074 L126.279282,25.5874074 L122.899264,17.5798707 L116.430442,33" id="Fill-5" fill="#4A4A4A"></path>
                    <path d="M134,33 L134,15 L141.693262,15 C145.124802,15 146.83968,16.4397051 146.83968,19.3173357 C146.83968,21.6590492 145.163012,23.3921358 141.807638,24.5153244 L148,33 L144.922288,33 L139.184119,24.9065846 L139.184119,23.3842547 C142.630943,22.8374057 144.353973,21.5159176 144.353973,19.4187735 C144.353973,17.7578882 143.395659,16.9257931 141.479794,16.9257931 L136.332866,16.9257931 L136.332866,33 L134,33" id="Fill-6" fill="#4A4A4A"></path>
                    <path d="M157,15 L157,27.8142143 C157,31.2714895 155.00025,33 151,33 L151,31.1123415 C153.474453,31.1123415 154.71193,30.0120336 154.71193,27.8142143 L154.71193,15 L157,15" id="Fill-7" fill="#4A4A4A"></path>
                    <path d="M160.642754,32.2548785 L160.642754,30.1443694 C162.569978,30.8060032 164.649461,31.1384498 166.884574,31.1384498 C170.043873,31.1384498 171.62456,30.0210182 171.62456,27.7849015 C171.62456,25.8844906 170.459406,24.9305244 168.130915,24.9305244 L165.766628,24.9305244 C161.923593,24.9305244 160,23.3184344 160,20.0904938 C160,16.6978341 162.463112,15 167.386742,15 C169.526142,15 171.516137,15.2502124 173.358284,15.7461244 L173.358284,17.8563828 C171.516137,17.1937461 169.526142,16.8625531 167.386742,16.8625531 C164.047171,16.8625531 162.377774,17.9388676 162.377774,20.0904938 C162.377774,21.9929104 163.507652,22.9446201 165.766628,22.9446201 L168.130915,22.9446201 C172.041909,22.9446201 174,24.5594679 174,27.7849015 C174,31.261801 171.629229,33 166.884574,33 C164.649461,33 162.569978,32.7507904 160.642754,32.2548785" id="Fill-8" fill="#4A4A4A"></path>
                    <path d="M20.9326615,0 L0,7.45092461 L3.3076886,35.189872 L20.9549389,45 L38.693324,35.0567283 L42,7.31906117 L20.9326615,0" id="Fill-18" stroke="#4A4A4A" stroke-width="2"></path>
                    <path d="M26.7782915,26.3727909 L15.327175,26.3727909 L12.765238,32.9105017 L8,33 L20.7771957,4 L34,33 L29.5831515,33 L26.7782915,26.3727909 L26.7782915,26.3727909 Z M25,22 L20.7453773,13 L17,22 L25,22 L25,22 Z" id="Fill-21" fill="#4A4A4A"></path>
                    <path d="M106.906847,44.7228261 L105.746618,44.7228261 L107.998656,50.9917508 C107.945279,51.1281056 107.860845,51.3357919 107.743415,51.6162655 C107.625985,51.8962539 107.557565,52.0510481 107.538641,52.0816188 C107.477984,52.1723602 107.403256,52.2485443 107.314941,52.3111413 C107.226141,52.3737384 107.086874,52.4052795 106.897142,52.4052795 C106.836486,52.4052795 106.76661,52.3994565 106.687515,52.3878106 C106.607934,52.3766498 106.479343,52.3460792 106.301257,52.2970691 L106.301257,53.2297166 C106.414805,53.259802 106.510399,53.2806677 106.588039,53.2923137 C106.666164,53.3034744 106.7768,53.3092974 106.920919,53.3092974 C107.511467,53.3092974 107.928295,53.1384899 108.170919,52.7973602 C108.412573,52.4567158 108.829887,51.5095109 109.419949,49.9567158 C109.670337,49.2962927 109.981381,48.4432259 110.352596,47.3960598 C110.849491,46.0043672 111.169755,45.1129658 111.313873,44.7228261 L110.182274,44.7228261 L108.538738,49.6830357 L106.906847,44.7228261 Z M100.967891,49.0953998 C100.823773,48.7392275 100.750985,48.2748447 100.750985,47.7022516 C100.750985,46.9098408 100.92713,46.3411297 101.278936,45.9966033 C101.631711,45.6515916 102.040776,45.4788432 102.50904,45.4788432 C103.044755,45.4788432 103.451393,45.689441 103.727014,46.1101514 C104.002635,46.5308618 104.13996,47.0617236 104.13996,47.7022516 C104.13996,48.4228455 104.002635,49.0027174 103.727014,49.4423525 C103.451393,49.8819876 103.03505,50.1018051 102.480896,50.1018051 C101.742348,50.1018051 101.238175,49.7664984 100.967891,49.0953998 Z M100.756808,50.8126941 L100.756808,50.0338703 C100.973714,50.3255047 101.177519,50.5380435 101.368221,50.6705163 C101.687515,50.8942158 102.079595,51.0063082 102.543978,51.0063082 C103.373268,51.0063082 104.02253,50.6875 104.490795,50.050854 C104.958089,49.4137228 105.191979,48.6140334 105.191979,47.6513005 C105.191979,46.6351902 104.955178,45.8665567 104.482546,45.3453998 C104.008458,44.8237578 103.390737,44.5631793 102.629382,44.5631793 C102.263505,44.5631793 101.925286,44.6403339 101.613272,44.7936724 C101.300772,44.9470109 101.032429,45.1697399 100.807759,45.4618595 L100.807759,42.4309977 L99.813,42.4309977 L99.813,50.8126941 L100.756808,50.8126941 Z M138.162185,46.855493 C138.162185,45.2041925 137.367348,42.0500776 135.024568,42.0500776 C134.399083,42.0500776 133.77748,42.2927019 133.323287,42.6886646 C132.58571,43.3447205 132.452266,44.1701281 132.452266,44.9780668 C132.452266,46.8394798 133.379091,49.9009123 135.663641,49.9009123 C136.404615,49.9009123 137.159176,49.5452252 137.594929,48.9415761 C138.050092,48.3422943 138.162185,47.5950116 138.162185,46.855493 Z M130.597161,46.0082492 C130.597161,43.5242624 132.619677,41.3998447 135.495745,41.3998447 C138.277674,41.3998447 140.017775,43.5805512 140.017775,45.8752911 C140.017775,48.1122865 138.297569,50.4836957 135.210904,50.4836957 C132.201878,50.4836957 130.597161,48.1312112 130.597161,46.0082492 Z M164.303004,49.6611995 L163.259234,49.5316382 C162.995259,49.4991266 162.801645,49.2788238 162.801645,49.0080551 L162.801645,37.9225543 C162.801645,37.7857143 162.855508,37.6585792 162.946249,37.5668672 L163.637243,36.8782997 L160.509332,36.8782997 L159.700908,37.6857531 L160.913543,37.6857531 L160.913543,49.1759511 C160.913543,49.3142469 160.857255,49.4408967 160.767969,49.5326087 L160.078431,50.220691 L163.743027,50.220691 L164.303004,49.6611995 Z M170.225461,43.650427 C170.225461,43.9148874 170.036214,44.0289208 169.673248,44.1609084 L166.230896,45.5559977 C165.697123,42.7134123 167.554168,42.0403727 168.335418,42.0403727 C169.366571,42.0403727 170.225461,42.8944099 170.225461,43.650427 Z M166.361913,46.1431483 L172.16597,43.796972 C171.85347,42.6784744 170.973714,41.3998447 168.684312,41.3998447 C166.796696,41.3998447 164.492251,42.8356949 164.492251,45.761743 C164.492251,48.0666731 166.035341,50.4836957 168.977402,50.4836957 C169.587845,50.4836957 170.541843,50.4448758 171.515252,49.746118 C171.885981,49.4894216 172.196055,49.1798331 172.456634,48.8387034 C171.807371,49.1599379 171.116377,49.5064053 170.141998,49.5064053 C168.462554,49.5064053 166.916067,48.2942547 166.361913,46.1431483 Z M148.539223,46.855493 C148.539223,45.2041925 147.745356,42.0500776 145.401606,42.0500776 C144.777092,42.0500776 144.155003,42.2927019 143.700325,42.6886646 C142.963233,43.3447205 142.829304,44.1701281 142.829304,44.9780668 C142.829304,46.8394798 143.756614,49.9009123 146.039708,49.9009123 C146.781653,49.9009123 147.5367,49.5452252 147.971967,48.9415761 C148.427616,48.3422943 148.539223,47.5950116 148.539223,46.855493 Z M140.975655,46.0082492 C140.975655,43.5242624 142.99623,41.3998447 145.872297,41.3998447 C148.655197,41.3998447 150.395783,43.5805512 150.395783,45.8752911 C150.395783,48.1122865 148.674607,50.4836957 145.587457,50.4836957 C142.578916,50.4836957 140.975655,48.1312112 140.975655,46.0082492 Z M152.119386,52.8225932 C152.119386,51.466809 153.344638,51.005823 153.765834,50.8524845 C154.567464,50.5826863 155.602499,50.546778 155.777189,50.546778 C155.96498,50.546778 156.060089,50.5477484 156.212457,50.5652174 C157.669658,51.6046196 158.29951,52.1170419 158.29951,53.0928766 C158.29951,54.1822593 157.321734,55.1605202 155.488951,55.1605202 C153.443144,55.1605202 152.119386,54.1817741 152.119386,52.8225932 Z M153.086971,44.0361995 C153.086971,42.6255823 153.923054,41.9996118 154.798928,41.9996118 C156.481769,41.9996118 157.35279,44.187597 157.35279,45.5166925 C157.35279,47.1573175 156.035826,47.4741848 155.513699,47.4741848 C153.941494,47.4741848 153.086971,45.5205745 153.086971,44.0361995 Z M157.260593,49.1512034 C157.050481,48.9794255 156.755935,48.7508734 156.755935,48.330163 C156.755935,47.9065411 157.02913,47.5833657 157.275636,47.392663 C158.098617,46.7531056 158.886175,46.0713315 158.886175,44.6597438 C158.886175,43.3743207 158.110748,42.6241266 157.627926,42.2009899 L158.695958,42.2009899 L159.498559,41.3998447 L155.568532,41.3998447 C152.822996,41.3998447 151.425481,43.1103455 151.425481,45.0071817 C151.425481,46.476514 152.540096,48.0375582 154.550481,48.0375582 L155.118707,48.0375582 C155.046405,48.2408773 154.97022,48.4713703 154.97022,48.7372865 C154.97022,49.3288043 155.248753,49.6364519 155.540387,49.9644798 C154.678586,50.0212539 153.069502,50.1857531 151.88404,50.9097438 C150.754867,51.5832686 150.415193,52.5557065 150.415193,53.2428183 C150.415193,54.660229 151.773404,56 154.544658,56 C157.837554,56 159.551451,54.1638199 159.551451,52.3659744 C159.551451,51.0407609 158.789611,50.3929542 157.949161,49.6844915 L157.260593,49.1512034 Z M124.660632,46.0427019 L127.086874,46.0427019 L127.086874,49.4554542 C126.529324,49.6364519 125.633555,49.8334627 124.277286,49.8334627 C120.618512,49.8334627 117.969056,46.6075311 117.969056,42.9866071 C117.969056,39.6859472 120.141028,37.3698564 123.123365,37.3698564 C124.853761,37.3698564 126.06203,37.9312888 127.086874,38.9037267 L127.086874,40.0193129 L128.932759,38.1729425 C128.509137,37.8822787 127.760884,37.392663 126.438097,37.0034938 C125.58406,36.7535908 124.575714,36.625 123.541164,36.625 C118.536797,36.625 115.913058,40.2997865 115.913058,43.5271739 C115.913058,48.1642081 119.304945,50.675854 123.227693,50.675854 C125.943629,50.675854 128.076296,50.0610443 128.974005,49.8140528 L128.974005,46.2795031 C128.974005,46.1416925 129.028839,46.0131017 129.117639,45.9243012 L129.809603,45.2333075 L125.469056,45.2333075 L124.660632,46.0427019 Z" id="Fill-17" fill="#4A4A4A"></path>
                </g>
            </g>
            <path d="M204.198,204.352 C198.69,204.352 194.856,207.052 193.236,210.616 L193.236,204.838 L191.4,204.838 L191.4,245.77 L193.29,245.77 L193.29,226.276 C194.91,229.84 198.69,232.486 204.198,232.486 C211.488,232.486 217.374,227.356 217.374,218.392 C217.374,209.428 211.488,204.352 204.198,204.352 Z M204.144,206.08 C210.462,206.08 215.484,210.4 215.484,218.446 C215.484,226.438 210.462,230.758 204.144,230.758 C198.042,230.758 193.344,227.14 193.344,219.418 L193.344,217.42 C193.344,209.698 198.042,206.08 204.144,206.08 Z M244.442,232 L244.442,204.838 L242.552,204.838 L242.552,221.416 C242.552,226.276 239.258,230.65 233.804,230.65 C228.674,230.65 225.542,226.978 225.542,221.524 L225.542,204.838 L223.652,204.838 L223.652,221.74 C223.652,228.058 227.594,232.486 233.588,232.486 C238.664,232.486 241.634,229.408 242.66,226.978 L242.66,232 L244.442,232 Z M254.932,190.042 L253.042,190.042 L253.042,232 L254.878,232 L254.878,226.222 C256.498,229.786 260.332,232.486 265.84,232.486 C273.13,232.486 279.016,227.41 279.016,218.446 C279.016,209.482 273.13,204.352 265.84,204.352 C260.332,204.352 256.552,206.998 254.932,210.562 L254.932,190.042 Z M265.786,206.08 C272.104,206.08 277.126,210.4 277.126,218.392 C277.126,226.438 272.104,230.758 265.786,230.758 C259.684,230.758 254.986,227.14 254.986,219.418 L254.986,217.42 C254.986,209.698 259.684,206.08 265.786,206.08 Z M287.4,232 L287.4,190.042 L285.51,190.042 L285.51,232 L287.4,232 Z M297.026,192.472 C296.162,192.472 295.406,193.228 295.406,194.146 C295.406,195.01 296.108,195.766 297.026,195.766 C297.944,195.766 298.7,195.01 298.7,194.146 C298.7,193.228 297.944,192.472 297.026,192.472 Z M297.944,232 L297.944,204.838 L296.054,204.838 L296.054,232 L297.944,232 Z M317.344,204.352 C310,204.352 304.492,209.428 304.492,218.392 C304.492,227.41 310.108,232.486 317.398,232.486 C323.824,232.486 328.144,228.976 329.116,223.252 L327.28,223.09 C326.47,227.896 322.798,230.758 317.398,230.758 C311.242,230.758 306.436,226.384 306.436,218.392 C306.436,210.454 311.08,206.026 317.344,206.026 C322.582,206.026 326.578,209.158 327.226,214.396 L329.062,214.234 C328.36,208.132 323.608,204.352 317.344,204.352 Z M343.44,204.352 C337.122,204.352 333.612,208.996 333.612,213.64 L335.502,213.748 C335.502,209.968 338.202,206.134 343.494,206.134 C348.516,206.134 351,209.212 351,214.504 L351,216.88 L342.738,217.366 C336.744,217.744 332.802,220.012 332.802,225.196 C332.802,230.002 336.312,232.486 341.334,232.486 C345.384,232.486 348.948,230.758 351,227.248 L351,232 L352.89,232 L352.89,214.504 C352.89,208.24 349.65,204.352 343.44,204.352 Z M351,218.662 L351,220.066 C351,228.058 346.302,230.704 341.496,230.704 C337.554,230.704 334.692,229.138 334.692,225.142 C334.692,221.038 337.878,219.472 342.9,219.148 L351,218.662 Z M369.104,230.488 C365.972,230.488 363.704,228.76 363.704,223.954 L363.812,206.512 L371.966,206.512 L371.966,204.838 L363.812,204.838 L363.866,195.064 L361.922,195.064 L361.868,204.838 L356.684,204.838 L356.684,206.512 L361.868,206.512 L361.814,224.224 C361.814,229.948 364.73,232.216 368.834,232.216 C370.238,232.216 371.372,232.108 372.074,231.946 L372.074,230.164 C371.372,230.326 370.292,230.488 369.104,230.488 Z M377.218,192.472 C376.354,192.472 375.598,193.228 375.598,194.146 C375.598,195.01 376.3,195.766 377.218,195.766 C378.136,195.766 378.892,195.01 378.892,194.146 C378.892,193.228 378.136,192.472 377.218,192.472 Z M378.136,232 L378.136,204.838 L376.246,204.838 L376.246,232 L378.136,232 Z M398.238,204.352 C390.678,204.352 384.684,209.644 384.684,218.392 C384.684,227.14 390.678,232.486 398.238,232.486 C405.744,232.486 411.792,227.14 411.792,218.392 C411.792,209.644 405.744,204.352 398.238,204.352 Z M398.184,206.08 C404.664,206.08 409.848,210.616 409.848,218.392 C409.848,226.168 404.664,230.758 398.184,230.758 C391.704,230.758 386.574,226.168 386.574,218.392 C386.574,210.616 391.704,206.08 398.184,206.08 Z M429.626,204.352 C424.604,204.352 421.31,207.214 420.176,209.806 L420.176,204.838 L418.286,204.838 L418.286,232 L420.176,232 L420.176,215.368 C420.176,210.508 423.956,206.134 429.41,206.134 C434.486,206.134 438.158,209.914 438.158,215.368 L438.158,232 L440.048,232 L440.048,215.152 C440.048,208.726 435.62,204.352 429.626,204.352 L429.626,204.352 Z M455.991999,204.406 C449.943999,204.352 446.865999,207.43 446.865999,211.858 C446.865999,216.988 450.753999,217.636 455.613999,218.716 C461.391999,220.012 464.037999,220.876 464.037999,224.764 C464.037999,228.922 460.797999,230.758 456.369999,230.758 C451.995999,230.758 448.863999,228.868 448.161999,224.926 L446.271999,225.088 C447.081999,229.948 450.915999,232.486 456.315999,232.486 C461.877999,232.486 465.927999,229.894 465.927999,224.656 C465.927999,219.85 462.417999,218.446 456.369999,217.096 C451.941999,216.07 448.809999,215.854 448.809999,211.858 C448.809999,208.402 451.077999,206.026 455.937999,206.08 C460.203999,206.026 462.687999,208.24 463.173999,211.804 L465.063999,211.642 C464.415999,207.268 461.391999,204.352 455.991999,204.406 L455.991999,204.406 Z" id="publications" fill-opacity="0.8" fill="#673AB7" sketch:type="MSShapeGroup"></path>
        </g>
    </g>
</svg>