<?xml version="1.0" encoding="UTF-8" standalone="no"?>
<svg width="110px" height="19px" viewBox="0 0 110 19" version="1.1" xmlns="http://www.w3.org/2000/svg" xmlns:xlink="http://www.w3.org/1999/xlink" xmlns:sketch="http://www.bohemiancoding.com/sketch/ns">
    <!-- Generator: Sketch 3.0.4 (8053) - http://www.bohemiancoding.com/sketch -->
    <title>publications-wordmark 2</title>
    <desc>Created with Sketch.</desc>
    <defs></defs>
    <g id="Page-1" stroke="none" stroke-width="1" fill="none" fill-rule="evenodd" sketch:type="MSPage">
        <g id="publications-wordmark-2" sketch:type="MSLayerGroup" transform="translate(0.000000, 1.000000)" fill="#484A53">
            <g id="Rectangle-2-+-Rectangle-2-+-Rectangle-2-copy" sketch:type="MSShapeGroup">
                <path d="M1.85654008,15.9738051 L2.64155162,15.9738051 L17.8850226,0.706099315 L17.2002626,-0.0259734256 L1.85654008,15.1753544 L1.85654008,15.9738051 Z" id="Rectangle-2"></path>
                <path d="M0,4.72070694 L0,1.84615385 L15.9317668,1.84615385 L15.9317668,17.8158933 L13.0640488,17.8158933 L13.0640488,4.72070694 L0,4.72070694 Z" id="Rectangle-2"></path>
                <path d="M1.85654008,2.88319837 L1.85654008,0 L17.836222,0 L17.836222,16.0177687 L14.9598792,16.0177687 L14.9598792,2.88319837 L1.85654008,2.88319837 Z" id="Rectangle-2-copy" transform="translate(9.862869, 7.961538) rotate(-180.000000) translate(-9.862869, -7.961538) "></path>
            </g>
            <path d="M24.3531646,3.14584615 L24.3531646,14.5384615 L25.7622785,14.5384615 L25.7622785,10.0453846 L28.8408861,10.0453846 C30.8320253,10.0453846 32.3636709,8.87261538 32.3636709,6.60323077 C32.3636709,4.31861538 30.8320253,3.14584615 28.8408861,3.14584615 L24.3531646,3.14584615 Z M25.746962,4.37953846 L28.6724051,4.37953846 C29.8977215,4.37953846 30.9239241,5.08015385 30.9239241,6.60323077 C30.9239241,8.09584615 29.8977215,8.81169231 28.6724051,8.81169231 L25.746962,8.81169231 L25.746962,4.37953846 Z M40.3560759,14.5384615 L40.3560759,6.77076923 L39.0388608,6.77076923 L39.0388608,11.3095385 C39.0388608,12.4518462 38.3036709,13.4570769 37.063038,13.4570769 C35.8836709,13.4570769 35.2250633,12.6498462 35.2250633,11.3856923 L35.2250633,6.77076923 L33.9078481,6.77076923 L33.9078481,11.5684615 C33.9078481,13.4266154 35.0106329,14.6907692 36.7567089,14.6907692 C38.0586076,14.6907692 38.8091139,14.0053846 39.1001266,13.3809231 L39.1001266,14.5384615 L40.3560759,14.5384615 Z M44.0598734,2.70415385 L42.7426582,2.70415385 L42.7426582,14.5384615 L43.9986076,14.5384615 L43.9986076,13.2743077 C44.4427848,14.0815385 45.423038,14.6907692 46.7708861,14.6907692 C48.9151899,14.6907692 50.5387342,13.1676923 50.5387342,10.6698462 C50.5387342,8.15676923 48.9151899,6.63369231 46.7708861,6.63369231 C45.4536709,6.63369231 44.5040506,7.19723077 44.0598734,7.94353846 L44.0598734,2.70415385 Z M46.5717721,7.776 C48.0574683,7.776 49.1908861,8.79646154 49.1908861,10.6546154 C49.1908861,12.528 48.0574683,13.5484615 46.5717721,13.5484615 C45.1473418,13.5484615 44.0751899,12.6498462 44.0751899,10.8830769 L44.0751899,10.4261538 C44.0751899,8.67461538 45.1473418,7.776 46.5717721,7.776 Z M53.7217721,14.5384615 L53.7217721,2.70415385 L52.4045569,2.70415385 L52.4045569,14.5384615 L53.7217721,14.5384615 Z M56.7975949,3.10015385 C56.3227848,3.10015385 55.9245569,3.48092308 55.9245569,3.96830769 C55.9245569,4.44046154 56.3074683,4.82123077 56.7975949,4.82123077 C57.272405,4.82123077 57.6706329,4.44046154 57.6706329,3.96830769 C57.6706329,3.48092308 57.272405,3.10015385 56.7975949,3.10015385 Z M57.4408861,14.5384615 L57.4408861,6.77076923 L56.1236709,6.77076923 L56.1236709,14.5384615 L57.4408861,14.5384615 Z M63.1664557,6.63369231 C60.9608861,6.63369231 59.3220253,8.09584615 59.3220253,10.6546154 C59.3220253,13.2133846 60.9762025,14.6907692 63.1664557,14.6907692 C65.0503797,14.6907692 66.3982278,13.6246154 66.6892405,11.9035385 L65.4026582,11.7816923 C65.2188607,12.8783077 64.3917721,13.5484615 63.1664557,13.5484615 C61.7420253,13.5484615 60.6698734,12.5127692 60.6698734,10.6546154 C60.6698734,8.81169231 61.7113924,7.76076923 63.1664557,7.76076923 C64.3458228,7.76076923 65.2494937,8.47661538 65.3873418,9.64938462 L66.673924,9.54276923 C66.4441772,7.73030769 65.0044304,6.63369231 63.1664557,6.63369231 Z M71.1282278,6.63369231 C69.2289873,6.63369231 68.1108861,8.00446154 68.1108861,9.34476923 L69.4434177,9.40569231 C69.4434177,8.58323077 69.9794936,7.79123077 71.1435443,7.79123077 C72.2616455,7.79123077 72.782405,8.50707692 72.782405,9.67984615 L72.782405,10.0453846 L70.7606329,10.1672308 C69.1217721,10.2586154 67.8964557,10.8678462 67.8964557,12.4823077 C67.8964557,13.8987692 68.9379747,14.6907692 70.4543038,14.6907692 C71.4192405,14.6907692 72.2156962,14.2947692 72.782405,13.6246154 L72.782405,14.5384615 L74.1149367,14.5384615 L74.1149367,9.64938462 C74.1149367,7.73030769 73.0581012,6.63369231 71.1282278,6.63369231 Z M72.7977215,11.0963077 L72.7977215,11.4161538 C72.7977215,12.9696923 71.8327848,13.5636923 70.6534177,13.5636923 C69.8263291,13.5636923 69.2289873,13.2743077 69.2289873,12.4518462 C69.2289873,11.5989231 69.9182278,11.2790769 70.9291139,11.2181538 L72.7977215,11.0963077 Z M79.4422785,13.4570769 C78.6764557,13.4570769 78.0637974,13.0763077 78.0637974,11.9492308 L78.0944304,7.91307692 L80.1927848,7.91307692 L80.1927848,6.77076923 L78.0944304,6.77076923 L78.1097468,4.09015385 L76.7772152,4.09015385 L76.7618987,6.77076923 L75.3068354,6.77076923 L75.3068354,7.91307692 L76.7618987,7.91307692 L76.7465822,12.2081538 C76.7312658,13.914 77.7268354,14.6450769 79.1512658,14.6450769 C79.6413924,14.6450769 79.9477215,14.5993846 80.2081012,14.5536923 L80.2081012,13.3809231 C80.0243038,13.4113846 79.763924,13.4570769 79.4422785,13.4570769 Z M82.3036709,3.10015385 C81.8288607,3.10015385 81.4306329,3.48092308 81.4306329,3.96830769 C81.4306329,4.44046154 81.8135443,4.82123077 82.3036709,4.82123077 C82.778481,4.82123077 83.1767088,4.44046154 83.1767088,3.96830769 C83.1767088,3.48092308 82.778481,3.10015385 82.3036709,3.10015385 Z M82.946962,14.5384615 L82.946962,6.77076923 L81.6297468,6.77076923 L81.6297468,14.5384615 L82.946962,14.5384615 Z M88.8410126,6.63369231 C86.5741772,6.63369231 84.8281012,8.18723077 84.8281012,10.6546154 C84.8281012,13.122 86.5741772,14.6907692 88.8410126,14.6907692 C91.1078481,14.6907692 92.853924,13.122 92.853924,10.6546154 C92.853924,8.18723077 91.1078481,6.63369231 88.8410126,6.63369231 Z M88.8410126,7.776 C90.3573417,7.776 91.5213924,8.84215385 91.5213924,10.6546154 C91.5213924,12.4670769 90.3573417,13.5484615 88.8410126,13.5484615 C87.3246835,13.5484615 86.1606329,12.4670769 86.1606329,10.6546154 C86.1606329,8.84215385 87.3246835,7.776 88.8410126,7.776 Z M98.4263291,6.63369231 C97.1856962,6.63369231 96.373924,7.22769231 95.9910126,7.92830769 L95.9910126,6.77076923 L94.7350632,6.77076923 L94.7350632,14.5384615 L96.0522784,14.5384615 L96.0522784,9.99969231 C96.0522784,8.82692308 96.91,7.85215385 98.1506329,7.85215385 C99.33,7.85215385 100.126456,8.68984615 100.126456,9.98446154 L100.126456,14.5384615 L101.458987,14.5384615 L101.458987,9.81692308 C101.458987,7.86738462 100.187721,6.63369231 98.4263291,6.63369231 L98.4263291,6.63369231 Z M106.188987,6.64892308 C104.351013,6.63369231 103.32481,7.56276923 103.32481,8.91830769 C103.32481,10.4413846 104.458228,10.7307692 105.974557,11.0810769 C107.383671,11.4161538 107.90443,11.5989231 107.90443,12.3909231 C107.90443,13.1676923 107.230506,13.5484615 106.296202,13.5484615 C105.254683,13.5484615 104.611392,13.0915385 104.488861,12.2386154 L103.171646,12.33 C103.370759,13.8226154 104.504177,14.6907692 106.26557,14.6907692 C108.072911,14.6907692 109.221646,13.8226154 109.221646,12.2843077 C109.221646,10.8983077 108.16481,10.4413846 106.510633,10.0453846 C105.392532,9.78646154 104.657342,9.72553846 104.657342,8.90307692 C104.657342,8.21769231 105.147468,7.76076923 106.143038,7.776 C107.138608,7.76076923 107.644051,8.27861538 107.735949,9.05538462 L109.053165,8.97923077 C108.884683,7.63892308 107.935063,6.63369231 106.188987,6.64892308 L106.188987,6.64892308 Z" id="Publications" sketch:type="MSShapeGroup"></path>
        </g>
    </g>
</svg>