<?xml version="1.0" encoding="UTF-8" standalone="no"?>
<svg width="234px" height="42px" viewBox="0 0 234 42" version="1.1" xmlns="http://www.w3.org/2000/svg" xmlns:xlink="http://www.w3.org/1999/xlink" xmlns:sketch="http://www.bohemiancoding.com/sketch/ns">
    <!-- Generator: Sketch 3.0.4 (8053) - http://www.bohemiancoding.com/sketch -->
    <title>publications-wordmark 2</title>
    <desc>Created with Sketch.</desc>
    <defs>
        <path d="M52,13.2458824 L52,31.6378824 L54.2488889,31.6378824 L54.2488889,24.3843529 L59.1622222,24.3843529 C62.34,24.3843529 64.7844444,22.4910588 64.7844444,18.8274118 C64.7844444,15.1391765 62.34,13.2458824 59.1622222,13.2458824 L52,13.2458824 Z M54.2244444,15.2375294 L58.8933333,15.2375294 C60.8488889,15.2375294 62.4866667,16.3685882 62.4866667,18.8274118 C62.4866667,21.2370588 60.8488889,22.3927059 58.8933333,22.3927059 L54.2244444,22.3927059 L54.2244444,15.2375294 Z M82.2866667,13.2458824 L80.0622222,13.2458824 L80.0622222,24.704 C80.0622222,28.1217647 78.1066667,29.8675294 75.0022222,29.8675294 C71.8488889,29.8675294 69.9422222,28.1217647 69.9422222,24.704 L69.9422222,13.2458824 L67.7177778,13.2458824 L67.7177778,24.7285882 C67.7177778,29.3511765 70.5533333,31.8837647 75.0022222,31.8837647 C79.4266667,31.8837647 82.2866667,29.3511765 82.2866667,24.7285882 L82.2866667,13.2458824 Z M86.54,13.2458824 L86.54,31.6378824 L94.02,31.6378824 C97.1733333,31.6378824 99.6177778,29.9904706 99.6177778,26.5481176 C99.6177778,24.0401176 98.2733333,22.5648235 96.7577778,22.0484706 C97.9311111,21.4583529 98.8355556,20.1797647 98.8355556,18.1389412 C98.8355556,14.8687059 96.5133333,13.2458824 93.3844444,13.2458824 L86.54,13.2458824 Z M88.7644444,15.2375294 L93.1155556,15.2375294 C95.1444444,15.2375294 96.5622222,16.2456471 96.5622222,18.2864706 C96.5622222,20.4256471 95.3644444,21.2370588 93.7266667,21.2370588 L88.7644444,21.2370588 L88.7644444,15.2375294 Z M88.7644444,23.1795294 L93.9466667,23.1795294 C95.6822222,23.1795294 97.3444444,24.0647059 97.3444444,26.4251765 C97.3444444,28.7364706 95.7066667,29.6462353 93.7511111,29.6462353 L88.7644444,29.6462353 L88.7644444,23.1795294 Z M105.557778,29.6462353 L105.557778,13.2458824 L103.308889,13.2458824 L103.308889,31.6378824 L114.724444,31.6378824 L114.724444,29.6462353 L105.557778,29.6462353 Z M120.004444,31.6378824 L120.004444,13.2458824 L117.755556,13.2458824 L117.755556,31.6378824 L120.004444,31.6378824 Z M132.52,13 C127.362222,13 123.548889,16.4669412 123.548889,22.4418824 C123.548889,28.4168235 127.435556,31.8837647 132.568889,31.8837647 C136.871111,31.8837647 140.195556,29.4003529 140.88,25.3187059 L138.557778,25.122 C137.995556,28.1709412 135.624444,29.8675294 132.495556,29.8675294 C128.731111,29.8675294 125.822222,27.2611765 125.822222,22.4418824 C125.822222,17.7701176 128.56,15.0162353 132.446667,15.0162353 C135.624444,15.0162353 138.068889,16.8357647 138.533333,20.0322353 L140.855556,19.8109412 C140.293333,15.5817647 136.822222,13 132.52,13 Z M158.92,31.6378824 L151.268889,13.2458824 L149.362222,13.2458824 L141.711111,31.6378824 L144.155556,31.6378824 L146.086667,26.9661176 L154.568889,26.9661176 L156.475556,31.6378824 L158.92,31.6378824 Z M146.917778,24.9990588 L150.34,16.7128235 L153.737778,24.9990588 L146.917778,24.9990588 Z M172.291111,15.2375294 L172.291111,13.2458824 L156.451111,13.2458824 L156.451111,15.2375294 L163.246667,15.2375294 L163.246667,31.6378824 L165.495556,31.6378824 L165.495556,15.2375294 L172.291111,15.2375294 Z M177.155556,31.6378824 L177.155556,13.2458824 L174.906667,13.2458824 L174.906667,31.6378824 L177.155556,31.6378824 Z M189.915556,13 C184.708889,13 180.7,16.5898824 180.7,22.4418824 C180.7,28.2938824 184.708889,31.8837647 189.915556,31.8837647 C195.097778,31.8837647 199.106667,28.2938824 199.106667,22.4418824 C199.106667,16.5898824 195.097778,13 189.915556,13 Z M189.915556,15.0162353 C193.826667,15.0162353 196.833333,17.7455294 196.833333,22.4418824 C196.833333,27.1136471 193.826667,29.8675294 189.915556,29.8675294 C186.004444,29.8675294 182.973333,27.1136471 182.973333,22.4418824 C182.973333,17.7455294 186.004444,15.0162353 189.915556,15.0162353 Z M216.633333,31.6378824 L216.633333,13.2458824 L214.408889,13.2458824 L214.408889,27.4824706 L204.582222,13.2458824 L202.7,13.2458824 L202.7,31.6378824 L204.948889,31.6378824 L204.948889,17.4258824 L214.726667,31.6378824 L216.633333,31.6378824 Z M225.691111,13 C221.535556,13 219.506667,15.4096471 219.506667,18.2127059 C219.506667,21.7042353 222.146667,22.5402353 225.422222,23.3270588 C228.453333,24.0647059 230.262222,24.5564706 230.262222,26.7448235 C230.262222,28.9823529 228.453333,29.9167059 226.033333,29.9167059 C223.491111,29.9167059 221.511111,28.5643529 221.34,26.4005882 L219.091111,26.5235294 C219.262222,29.9658824 222.195556,31.8837647 226.033333,31.8837647 C229.602222,31.8837647 232.535556,30.2609412 232.535556,26.5727059 C232.535556,23.3516471 230.164444,22.3435294 226.228889,21.4091765 C223.491111,20.7944706 221.78,20.3272941 221.78,18.1389412 C221.78,16.344 223.124444,14.9670588 225.74,14.9670588 C228.037778,14.9670588 229.602222,16.1964706 229.724444,18.2618824 L231.997778,18.1143529 C231.851111,14.8687059 229.284444,13 225.691111,13 L225.691111,13 Z" id="path-1"></path>
    </defs>
    <g id="Page-1" stroke="none" stroke-width="1" fill="none" fill-rule="evenodd" sketch:type="MSPage">
        <g id="Rectangle-2-copy-+-Rectangle-1-+-Rectangle-3" sketch:type="MSLayerGroup" transform="translate(2.000000, 2.000000)">
            <path d="M6.41581227,33.0241134 L37.2910525,1.79842333 L35.9040895,0.301179612 L4.82579254,31.3911127 L4.82579254,33.0241134 L6.41581227,33.0241134 Z" id="Rectangle-2-copy" fill="#455EDE" sketch:type="MSShapeGroup"></path>
            <path d="M0,4.66037736 L0,11.4716981 L26.635514,11.4716981 L26.635514,38 L33.3831776,38 L33.3831776,4.66037736 L0,4.66037736 Z" id="Rectangle-1" stroke="#455EDE" sketch:type="MSShapeGroup"></path>
            <path d="M4.61682243,-1.0658141e-14 L4.61682243,6.81132075 L31.2523364,6.81132075 L31.2523364,33.3396226 L38,33.3396226 L38,-1.0658141e-14 L4.61682243,-1.0658141e-14 Z" id="Rectangle-2" stroke="#455EDE" sketch:type="MSShapeGroup" transform="translate(21.308411, 16.669811) rotate(-180.000000) translate(-21.308411, -16.669811) "></path>
        </g>
        <g id="PUBLICATIONS-2">
            <use fill="#455EDE" fill-rule="evenodd" sketch:type="MSShapeGroup" xlink:href="#path-1"></use>
            <use fill="none" xlink:href="#path-1"></use>
        </g>
    </g>
</svg>